<svg xmlns="http://www.w3.org/2000/svg" viewBox="0 0 39.85 40.48"><defs><style>.cls-1{fill:#ffa800;}.cls-2{fill:#aa4c16;}.cls-3{fill:#fff;}.cls-4{fill:#f60;}.cls-5{fill:#ffd635;}.cls-6{fill:#f2f4f4;}.cls-7{fill:#fff8b8;}.cls-8{fill:#7eed56;}.cls-9{fill:#004441;}.cls-10{fill:#00a368;}.cls-11{fill:#00cc78;}.cls-12{fill:#e4ffca;}</style></defs><g id="Layer_2" data-name="Layer 2"><g id="art_final" data-name="art final"><path class="cls-1" d="M20.36,40.48S4.14,36.07,4.14,27.31c0-4.78-1-21.28-1-21.28L20.28,4.84l17.3,1.37s-1,16.32-1,21.1C36.58,36.43,20.36,40.48,20.36,40.48Z"/><path class="cls-2" d="M20.36,40.48c.4-.31,5-1.5,9.56-4.35a14.4,14.4,0,0,0,5.54-5.66A7.63,7.63,0,0,0,36.15,27c0-1.15,0-2.18,0-3,0-2.81.11-5.71.22-8.69.11-2.72.23-5.52.35-8.37L20.27,5.79,17.17,6,4.2,7c.09,1.79.19,3.56.28,5.3.09,2.06.19,4.1.28,6.11s.14,4,.19,5.9c0,1,0,1.93,0,2.89a6.93,6.93,0,0,0,.41,2.45,10.6,10.6,0,0,0,2.89,4,24.28,24.28,0,0,0,4,2.88,43.71,43.71,0,0,0,8.18,3.68A31.74,31.74,0,0,1,8.86,35.9a13.78,13.78,0,0,1-4.65-4.65,7.76,7.76,0,0,1-1-2.71,9.11,9.11,0,0,1-.1-1.23v-.89c0-3.58-.05-7.11-.14-10.51-.06-1.71-.12-3.38-.17-5L2.62,5.57,11.91,5l8.37-.55L38.06,5.79q-.21,4.17-.41,8.1-.16,3.7-.32,7.21c-.11,2.35-.16,4.55-.23,6.82a9.54,9.54,0,0,1-3,5.95,23,23,0,0,1-7.63,4.71A40.92,40.92,0,0,1,20.36,40.48Z"/><path class="cls-3" d="M20.35,40.28c-.16,0-.15-.27-.24-.37a1.13,1.13,0,0,1-.24-.57.84.84,0,0,1,.35-.84c.41.09.7.27.63.34-.59.52-.1.91-.24,1.22C20.6,40.13,20.4,40.26,20.35,40.28ZM20,39.52h0"/><path class="cls-3" d="M9.27,35.22c-.13.1-.61-.34-.85-.47a3.58,3.58,0,0,1-1.1-1,3,3,0,0,1-.67-2.09c.47.1.9.36.9.53a2.25,2.25,0,0,0,.6,1.54c.32.37.67.62.89.92A1.89,1.89,0,0,1,9.27,35.22Z"/><path class="cls-4" d="M31.13,35.89c-.08-.13.36-.65.43-.92.14-.47.38-.92.55-1.36a7.74,7.74,0,0,1,1-1.93c.35.33.49.91.36,1.06-1,1.15-1.16,2.24-1.8,2.85A1.56,1.56,0,0,1,31.13,35.89Z"/><path class="cls-4" d="M33.84,33.68c-.1-.12.21-.54.23-.76a8.69,8.69,0,0,1,.26-1.09A4.3,4.3,0,0,1,35,30.28c.41.2.64.66.54.79a4.3,4.3,0,0,0-.7,1.36,2.86,2.86,0,0,1-.5,1A1,1,0,0,1,33.84,33.68Z"/><path class="cls-5" d="M20.36,38.23S3.14,32.08,3.14,23.08V4.78L20.28,2.59,37.58,5V23.08C37.58,32.76,20.36,38.23,20.36,38.23Z"/><path class="cls-2" d="M20.36,38.23a65.69,65.69,0,0,0,9.27-4.64,20.64,20.64,0,0,0,5.86-5.36A9.64,9.64,0,0,0,37,25a10,10,0,0,0,.21-2.86c0-2.71-.09-5.51-.14-8.38,0-2.69-.07-5.46-.1-8.28L20.27,3.35l-3,.4L3.94,5.48c0,3.9,0,7.71,0,11.39,0,1.95,0,3.87-.05,5.75a8,8,0,0,0,1.41,4.83,17.54,17.54,0,0,0,3.41,3.72A34.35,34.35,0,0,0,12.61,34a53.81,53.81,0,0,0,7.83,4A39.49,39.49,0,0,1,9.34,33.1a20.43,20.43,0,0,1-4.75-4.17,12.08,12.08,0,0,1-1.43-2.29,8.4,8.4,0,0,1-.64-2,8.75,8.75,0,0,1-.12-1.44l0-1.3.06-2.56c0-1.7.07-3.37.11-5,0-3.42.09-6.71.14-9.86l9.16-1.1,8.38-1.05L37.94,4.64q0,7.83.08,14.78v3.36a9.31,9.31,0,0,1-.57,3.36,13.48,13.48,0,0,1-3.75,5.18A29.81,29.81,0,0,1,26.27,36,46.47,46.47,0,0,1,20.36,38.23Z"/><path class="cls-1" d="M4.15,22.08c.09.09.12,1,.46,2a9.19,9.19,0,0,0,1.33,2.58,24.3,24.3,0,0,0,5.56,5,88.06,88.06,0,0,0,9.91,5.45,12.65,12.65,0,0,1-4.47-1.23,66.89,66.89,0,0,1-7.83-5.17,14,14,0,0,1-4.58-5.57,5.83,5.83,0,0,1-.39-1.76A7,7,0,0,1,4.15,22.08Z"/><path class="cls-4" d="M21.12,11.76A47.54,47.54,0,0,1,21,3.67a16.43,16.43,0,0,1,3.6.86,7.53,7.53,0,0,0-2.49,2.89A21.57,21.57,0,0,0,20.73,11"/><path class="cls-4" d="M20.72,11A14.67,14.67,0,0,1,22,7a7,7,0,0,1,.92-1.51,6.89,6.89,0,0,1,.62-.7l.12-.13s-.07,0-.1,0h0l-.31-.08c-.42-.11-.84-.19-1.25-.27l-.54-.08h0v.3l0,.63c0,.84-.05,1.65-.08,2.44,0,1.53,0,2.93,0,4.13a9.15,9.15,0,0,1-.87-3.66c.14-1.72.26-3.22.38-4.62a2.81,2.81,0,0,1,.68.07l.52.09,1,.21.95.25c.38.13.84.26,1.14.4-.29.2-.59.42-.86.64s-.22.2-.29.28l-.24.24a8,8,0,0,0-.77,1,13.81,13.81,0,0,0-1.09,2.07C21.44,9.45,20.85,10.7,20.72,11Z"/><path class="cls-4" d="M20.66,36.74a46.3,46.3,0,0,0,7.44-6.07A17.07,17.07,0,0,0,31,27.11a16.41,16.41,0,0,0,1.62-4.77,83,83,0,0,0,1.2-9.45,9.32,9.32,0,0,0,0-2.69,8.7,8.7,0,0,0-1.06-2.42C32.16,6.88,31.61,6,31,5.14L36.26,6c.09.61,0,1.23.09,1.84.12,1.44,0,2.92,0,4.37V23.07c0,8.69-15.81,13.7-15.81,13.7"/><path class="cls-4" d="M20.59,36.77c.28-.19,3.27-1.21,6.46-3a30.13,30.13,0,0,0,4.59-3,15.15,15.15,0,0,0,3-3.27,8.91,8.91,0,0,0,1.2-2.73,12,12,0,0,0,.18-3.09q0-3.23-.06-6.53l0-3.3c0-1.11,0-2.2,0-3.26,0-.51-.09-1.11-.08-1.65,0-.24,0-.61,0-.53h0l-.31,0-3.15-.51L32,5.8h0v0s-.05-.09.12.18l.72,1.14A11.34,11.34,0,0,1,34.11,9.6a7.22,7.22,0,0,1,.21,2.79L34.08,15a50.29,50.29,0,0,1-1.7,9.91,12.25,12.25,0,0,1-2.31,4.18A32.07,32.07,0,0,1,27,32.22a44.46,44.46,0,0,1-6.22,4.64,65.16,65.16,0,0,0,6.16-5.51,31.56,31.56,0,0,0,2.73-3.09,12.63,12.63,0,0,0,1.47-2.54,24.72,24.72,0,0,0,1.5-5.51c.33-1.86.55-3.7.74-5.5s.59-3.59,0-5.15a12,12,0,0,0-1.16-2.22L30.62,4.87l5.4.91.41.07a3,3,0,0,1,0,.42,5.09,5.09,0,0,1,0,.65c0,.41,0,.78.05,1.19.06.8.06,1.59.06,2.37,0,3.11,0,6.08,0,8.92,0,1.42,0,2.78,0,4.17a8,8,0,0,1-1.28,3.84A17,17,0,0,1,30,32.55a34.29,34.29,0,0,1-5.32,2.76C22.79,36.09,21.13,36.6,20.59,36.77Z"/><path class="cls-3" d="M20.26,9.15c-.16-.05-.15-.93-.24-1.27A9.59,9.59,0,0,1,19.79,6a7.19,7.19,0,0,1,.34-2.88,1.58,1.58,0,0,1,.63,1.16c-.59,1.76-.1,3.1-.24,4.15A2.29,2.29,0,0,1,20.26,9.15Zm-.33-2.59h0"/><path class="cls-3" d="M21.28,3.6c-.12.17-2.62.48-3.58.7-1.68.37-3.63.66-5.38.92a56.83,56.83,0,0,1-8.16.7,9,9,0,0,1,3.18-1c5.06-.06,8.78-1,11.75-1.27A17.76,17.76,0,0,1,21.28,3.6ZM14,4.86h0"/><path class="cls-3" d="M13.76,31.38a17.86,17.86,0,0,1,.47-5.54,32.68,32.68,0,0,1,1.58-5.9,18,18,0,0,1,1.35-2.71A24.39,24.39,0,0,1,26,9.13a5.37,5.37,0,0,1,2.8-1A2.25,2.25,0,0,1,31,10c-3.85,2.09-7.71,4.5-10.37,8.28a32.23,32.23,0,0,0-2.21,3.8c-1.81,3.53-3.24,6.38-3.61,10.44-.39-.45-.68-.67-1.07-1.12"/><path class="cls-3" d="M13.76,31.38a3.16,3.16,0,0,1,.43.37l.33.31c.11.09.29.36.26,0s0-.42.06-.64.08-.59.13-.9a18.16,18.16,0,0,1,.47-2,46.79,46.79,0,0,1,3.09-7.21,22.91,22.91,0,0,1,2.55-4.22,22,22,0,0,1,3.64-3.64A36.9,36.9,0,0,1,29,10.59c.65-.41,1.81-1,1.46-.89a1.83,1.83,0,0,0-1.52-1.07c-1.18-.09-2.4.78-3.59,1.49A32.76,32.76,0,0,0,22,12.51a19.84,19.84,0,0,0-5,6,26.54,26.54,0,0,0-2.29,6.79,20.41,20.41,0,0,0-.77,6.09A17.06,17.06,0,0,1,14,25a21.82,21.82,0,0,1,1.46-5.53,19.15,19.15,0,0,1,3.9-5.61,28.59,28.59,0,0,1,5-3.94A26.75,26.75,0,0,1,27,8.36a3.27,3.27,0,0,1,3-.09,2.5,2.5,0,0,1,1,1.12,3.27,3.27,0,0,1,.14.44l0,.23a1,1,0,0,1-.2.13l-.68.37c-.8.45-1.59.92-2.34,1.39a23.86,23.86,0,0,0-7.31,6.7,37.83,37.83,0,0,0-2.21,3.93c-.67,1.31-1.31,2.56-1.85,3.81a24.38,24.38,0,0,0-1.44,4.35c-.08.38-.14.72-.22,1.16s0,1-.34.48Z"/><path class="cls-3" d="M16.5,34.23c-.32-.12-4.05-4.14-5.54-5.65a34.61,34.61,0,0,1-3.83-4.53,17.23,17.23,0,0,1-2.62-5.51,11.5,11.5,0,0,1-.23-5.18A8.77,8.77,0,0,1,6.52,9,9.18,9.18,0,0,1,10.25,6.5,8,8,0,0,1,14,6.13a10.25,10.25,0,0,0-3.6,1A13,13,0,0,0,7.79,9a7.93,7.93,0,0,0-2.27,3,9.18,9.18,0,0,0-.71,3.55,13.31,13.31,0,0,0,1.76,6.39A27.42,27.42,0,0,0,10,26.72c1.21,1.4,2.4,2.65,3.48,3.87S16.18,33.81,16.5,34.23Z"/><path class="cls-3" d="M16.11,34a45,45,0,0,1-4.12-4A32.69,32.69,0,0,1,6.69,23a11.07,11.07,0,0,1-1.23-7.18,8.56,8.56,0,0,1,3.05-5.08,17.82,17.82,0,0,0-1.3,2.45,18.6,18.6,0,0,0-.71,2.19,9.14,9.14,0,0,0,0,5.36,15.07,15.07,0,0,0,2.23,4.34,76,76,0,0,0,5.16,6.24C14.65,32.16,15.87,33.68,16.11,34Z"/><path class="cls-6" d="M20.33,28.55c-.15,0-.15-.35-.24-.48a1.69,1.69,0,0,1-.23-.72,1.23,1.23,0,0,1,.34-1.09c.41.12.7.36.63.44-.59.66-.1,1.17-.24,1.56C20.58,28.36,20.38,28.52,20.33,28.55Zm-.33-1h0"/><path class="cls-6" d="M13.63,22.82c.14.06.07.3.15.41a1.38,1.38,0,0,1,.22.51,1,1,0,0,1-.16.81c-.42.08-.77-.05-.72-.15a1.18,1.18,0,0,0,.19-.82c0-.22-.1-.44,0-.59S13.58,22.83,13.63,22.82Z"/><path class="cls-6" d="M24.24,27.4c-.06-.15.48-.46.6-.66a2.66,2.66,0,0,0,.48-.95c.12-.54.15-1.21.32-1.74.44.12.8.53.74.71a10.2,10.2,0,0,1-.62,1.68,1.94,1.94,0,0,1-.94.91A1.37,1.37,0,0,1,24.24,27.4Z"/><path class="cls-5" d="M20.36,9.39C16,6.5,6.18,4.27.82,1.16c.85,6,2.23,14.11,2.23,14.25,0,13.64,17.31,21.79,17.31,21.79s17.32-8.15,17.32-21.79c0-.33,1-8.63,1.78-14.25l-.37.28c-5.29,2.82-14.65,5.06-18.73,8"/><path class="cls-2" d="M20.36,9.38a10,10,0,0,1,2-1.31A41.61,41.61,0,0,1,27,6l6.1-2.3c1.06-.41,2.12-.82,3.15-1.26.51-.22,1-.46,1.51-.69L38,1.67l.27-.16.52-.32a8.09,8.09,0,0,0,1-.68l0,0,0,0V.64l0,.33-.07.65c0,.43-.1.84-.15,1.25l-.2,1.72-.32,2.92c-.17,1.58-.34,3.2-.51,4.84-.09.82-.19,1.65-.28,2.47s0,1.73-.17,2.59A19.69,19.69,0,0,1,34,27.11a35.62,35.62,0,0,1-7.66,7.31A45.61,45.61,0,0,1,22,37.22l-.57.31-.29.15a2.3,2.3,0,0,1-.53.23l-.28.07c-.09,0-.18-.08-.27-.11l-.46-.23L19,37.35c-.76-.41-1.5-.83-2.22-1.28a41.31,41.31,0,0,1-7-5.37,27.16,27.16,0,0,1-5.36-6.95,18.13,18.13,0,0,1-2.1-8.38c-.4-2.69-.8-5.32-1.18-7.9C.91,6.18.72,4.91.54,3.65.41,2.74.27,1.84.14,1L0,.11,0,0S.05,0,.08,0l.18.1.38.2,1.47.81,1,.49c.26.14.54.26.82.39.54.26,1.1.49,1.64.72,1.1.46,2.2.89,3.28,1.3,4.3,1.68,8.41,3,11.65,5.15C17.4,7.61,12.6,6.39,8.09,4.93,7,4.57,5.86,4.2,4.8,3.8c-.53-.2-1-.4-1.54-.61l-.74-.31-.65-.3s0,0,0,0l.26,1.76q.44,3.3.86,6.51c.14,1.06.29,2.12.43,3.17.06.53.17,1.06.19,1.57a12.72,12.72,0,0,0,.07,1.51A19.4,19.4,0,0,0,8.56,27.77a37.62,37.62,0,0,0,8.63,7.29c.78.49,1.56.95,2.36,1.38l.59.31.19.1c.07,0,.13-.05.19-.07.32-.16.77-.4,1.14-.61a40.8,40.8,0,0,0,4.43-2.84,33.9,33.9,0,0,0,7.2-6.92A19,19,0,0,0,37.05,18c.22-2.93.61-5.95,1-8.79.17-1.43.35-2.83.52-4.21.09-.69.17-1.38.26-2.06l.07-.58,0-.23c0-.07,0-.2,0-.1a3,3,0,0,1-.5.27l-.91.42c-.67.29-1.32.56-2,.81-2.47,1-5.93,2.06-8.92,3.11A30.5,30.5,0,0,0,20.36,9.38Z"/><path class="cls-3" d="M1.72,4.09Q10.06,7.21,18.14,11C13.57,10.81,9,10.21,4.47,9.62l-.1,2.72a.78.78,0,0,0,.06.43.76.76,0,0,0,.4.3,40.75,40.75,0,0,0,8,2.52A39,39,0,0,0,4.28,17Q3,10.57,1.86,4.11"/><path class="cls-7" d="M1.87,4.11C2,4.37,2.43,6.85,3,9.71l.84,4.36c.13.7.26,1.37.38,2l.15.79c0,.07.36-.09.57-.13a41.71,41.71,0,0,1,7.94-1.27l0,.31A40.62,40.62,0,0,1,7,14.11c-.48-.17-1-.35-1.43-.54l-.71-.3a1.91,1.91,0,0,1-.38-.19.66.66,0,0,1-.27-.43c0-.58,0-1,0-1.55l.06-1.7.76.1c4.52.59,9,1.14,13.1,1.34l-.09.36c-6.27-3-12-5.34-16.36-7.06,3.3,1,9.49,3.47,11.63,4.48,1.74.79,3.42,1.58,4.87,2.29l.62.3-.69,0c-2.47-.14-4.85-.38-7.13-.64l-3.34-.42L4.54,9.7c0,.52,0,1,0,1.54l0,.8c0,.26-.07.56.06.73s.41.25.64.36l.72.29c.48.19,1,.37,1.43.54a40.59,40.59,0,0,0,5.58,1.53l.64.13-.65.06a48.34,48.34,0,0,0-7.07,1L5,16.89,4.6,17l-.26.08s-.11.05-.15,0l0-.16L3.85,15.3l-.56-3.08Z"/><path class="cls-2" d="M14.66,24.41c-.17-.2-.42-3.92-.6-5.35-.12-.91-.23-1.87-.33-2.85s-.17-1.82-.25-2.73l-1.75-1c-4-2.22-8-4.15-10.75-5.45A14.9,14.9,0,0,1,5.72,8.34l4.43,2.47,2,1.15L14.1,13.1q.2,2.36.36,4.38c.11,1.33.2,2.56.25,3.7S14.68,24.05,14.66,24.41Z"/><path class="cls-2" d="M25.87,23.2c-.16-.19-.18-3.65-.28-5-.09-1.18-.14-2.42-.19-3.73-.29-.72.73-.81.84-.94l.86-.39,1.7-.77c1.92-.89,3.79-1.79,5.44-2.73A44.81,44.81,0,0,0,38.45,7a10.57,10.57,0,0,1-3.25,3.2c-3.12,1.6-5.92,2.75-8.37,3.83l-.78.35a6.69,6.69,0,0,0,0,.79l.05,1.81c0,1.17,0,2.26,0,3.28S25.91,22.87,25.87,23.2Z"/><path class="cls-2" d="M14.35,17.69A20.31,20.31,0,0,1,11.68,17c-1.27-.3-2.68-.78-4-1.22A32.62,32.62,0,0,1,2,13.28a5.29,5.29,0,0,1,2.55.27C8,15.42,10.83,16,12.9,16.87A10.77,10.77,0,0,1,14.35,17.69ZM9,16.06H9"/><path class="cls-2" d="M38,11.93a3.39,3.39,0,0,1-.84.94c-.47.44-1,.88-1.37,1.14a17.52,17.52,0,0,1-3.94,2.36,34,34,0,0,1-6.47,2.1,5.88,5.88,0,0,1,2.33-1.54,21.25,21.25,0,0,0,5.21-1.8A29.35,29.35,0,0,0,36.5,12.9C37,12.57,37.84,12,38,11.93Z"/><path class="cls-3" d="M15.93,24c-.16-.23-.23-4.39-.35-6-.1-1.41-.18-2.94-.24-4.47l-.05-1.15a1.77,1.77,0,0,0-.11-.84,1.45,1.45,0,0,0-.33-.24L14.37,11l-.93-.58a92.07,92.07,0,0,0-11.95-6A16.71,16.71,0,0,1,6.78,5.79c1.84,1,3.54,2,5.12,2.92.79.47,1.55.94,2.27,1.41l1.07.69a1.54,1.54,0,0,1,.52.48,1.4,1.4,0,0,1,.16.67c.09,3.25.23,6,.21,8.49C16.13,21.61,16,23.64,15.93,24Z"/><path class="cls-3" d="M38.48,2.57a38,38,0,0,1-3.31,2.2c-1.55,1.06-3.42,2.12-5.12,3.05a49,49,0,0,1-8.15,3.65,10.85,10.85,0,0,1,3-2.1C30,7.49,33.44,5,36.31,3.54A21.82,21.82,0,0,1,38.48,2.57Z"/><path class="cls-8" d="M20.4,33S8.1,27.18,8.1,17.5c0-3.17,1.31-7.13,6.09-7.13s6.16,2.69,6.16,2.69,1.49-2.69,6.27-2.69,6.09,4,6.09,7.13C32.71,27.18,20.4,33,20.4,33Z"/><path class="cls-9" d="M20.4,33c.2-.3,2.83-1.67,5.4-3.88a22.06,22.06,0,0,0,3.54-3.7,13.44,13.44,0,0,0,2-3.61,12.2,12.2,0,0,0,.37-1.17l.24-1.22A10.32,10.32,0,0,0,32,18.14l0-.63,0-.62a6.9,6.9,0,0,0-1.83-4.41,5.45,5.45,0,0,0-4.46-1.19,7.75,7.75,0,0,0-2.38.57,6,6,0,0,0-1,.55,5.37,5.37,0,0,0-.45.35l-.11.09-.15.15a5.15,5.15,0,0,0-.42.48l-.85,0-.86,0a5.3,5.3,0,0,0-.41-.49,1.82,1.82,0,0,0-.24-.22,3.25,3.25,0,0,0-.42-.31,7.62,7.62,0,0,0-4.35-1.07A4.58,4.58,0,0,0,10.37,13a7.26,7.26,0,0,0-1.31,4.08,8.23,8.23,0,0,0,0,1.11,8.18,8.18,0,0,0,.1,1.1,11.74,11.74,0,0,0,.57,2.11,18.22,18.22,0,0,0,4.82,6.85,33.66,33.66,0,0,0,5.94,4.41,21.84,21.84,0,0,1-7-3.55,15.79,15.79,0,0,1-4.69-5.32A13.82,13.82,0,0,1,7.4,17.4a8.54,8.54,0,0,1,2.24-5.81,5.61,5.61,0,0,1,2.7-1.46,9.51,9.51,0,0,1,2.9-.13,9,9,0,0,1,2.71.66,6.87,6.87,0,0,1,1.22.67,5.06,5.06,0,0,1,.92.78,2,2,0,0,1,.26.35,2.38,2.38,0,0,1,.27-.34,3.85,3.85,0,0,1,.28-.27,4.58,4.58,0,0,1,.43-.34,5.86,5.86,0,0,1,.92-.57,9,9,0,0,1,2-.72,10.43,10.43,0,0,1,4.05-.1,5.61,5.61,0,0,1,3.36,2.08,7.79,7.79,0,0,1,1.44,3.48,12,12,0,0,1-.9,6.84,17.05,17.05,0,0,1-3.63,5.15A23.16,23.16,0,0,1,24,31.12,28.71,28.71,0,0,1,20.4,33Z"/><path class="cls-10" d="M28,20.66a22.61,22.61,0,0,1-6.56,6.91A31.5,31.5,0,0,0,21,31,31.75,31.75,0,0,0,29.73,23C30,22.76,28.6,21.1,28,20.66Z"/><path class="cls-10" d="M28,20.65a5.36,5.36,0,0,1,1.68,1.8,1,1,0,0,1,.19.53c0,.21-.23.36-.3.48l-.58.73L28,25.4a28.35,28.35,0,0,1-3,3.21c-.56.5-1.15,1-1.76,1.45l-.93.65-.27.17a3.35,3.35,0,0,1-.45.27l-.91.54-.3.18c.1-.94.21-1.86.31-2.77l.13-.88.08-.43a.88.88,0,0,1,.09-.31,1,1,0,0,1,.1-.17c0-.09.08-.1.12-.16l.35-.23.28-.19c.18-.13.36-.25.54-.39.35-.26.69-.54,1-.81a24.55,24.55,0,0,0,1.79-1.71,39.61,39.61,0,0,0,2.74-3.24,12.44,12.44,0,0,1-2.8,4.59,22.41,22.41,0,0,1-3.39,2.55c-.1,0-.13.42-.19.69l-.15.88c-.06.45-.12.89-.18,1.31l.44-.26.28-.18.34-.22c.44-.3.87-.61,1.27-.93a28.5,28.5,0,0,0,2.19-2c1.34-1.31,2.45-2.61,3.48-3.78.21-.27.38-.32.24-.58a10.11,10.11,0,0,0-.51-.89A10,10,0,0,0,28,20.65Z"/><path class="cls-11" d="M30.17,13.81a10,10,0,0,0-2.1,1.34,5.42,5.42,0,0,1,.19,3.92s1.74,1.44,2.29,2C31.26,19,31.75,15.88,30.17,13.81Z"/><path class="cls-11" d="M30.17,13.81A2.69,2.69,0,0,1,31,15.07a7.62,7.62,0,0,1,.45,2.12A8.94,8.94,0,0,1,31.3,20l-.07.35c0,.1-.1.35-.15.52l-.18.6c-.08.15-.08.59-.29.3l-1.49-1.25-1.21-1-.14-.12-.07-.06,0-.08.08-.35.09-.4c0-.22.08-.43.11-.65a6.22,6.22,0,0,0,0-1.21c0-.19-.05-.38-.08-.56l-.07-.26,0-.13a2.56,2.56,0,0,0-.11-.24c-.25-.41.41-.75.56-.86s.43-.24.63-.34l.59-.29.29-.12.14,0,.09,0h0a.21.21,0,0,1,.19.06.18.18,0,0,0-.17,0l-.05,0-.06.06-.11.12-.23.25-.5.54-.52.51c0,.06,0,.07,0,.08s0,0,0,0l.06.16a1.77,1.77,0,0,1,.08.25,6.13,6.13,0,0,1,0,2c0,.31-.11.6-.18.88s-.21.45,0,.54l1.17,1.07.47.41.17.14c.06,0,.06-.11.08-.16l.07-.22.06-.28c.06-.23.1-.45.14-.67a11.82,11.82,0,0,0,.15-1.27,9.42,9.42,0,0,0-.12-2.29,11.45,11.45,0,0,0-.28-1.17A7.27,7.27,0,0,0,30.17,13.81Z"/><path class="cls-3" d="M24.6,12.19c-.1-.07-2.37,0-4.34,3.09a4.28,4.28,0,0,0,0,2.35c1.2-1.58,4.74-3.73,4.79-3.86A8.14,8.14,0,0,0,24.6,12.19Z"/><path class="cls-12" d="M24.6,12.18c.07,0,.18.21.29.49s.12.31.18.49l.09.29a1.2,1.2,0,0,1,.05.38,5.27,5.27,0,0,1-.78.64l-.59.46-1.62,1.39c-.27.24-.54.48-.8.73l-.19.19a5.06,5.06,0,0,0-.37.41l-.72.88a3.55,3.55,0,0,1-.19-.42l-.18-.44a2.79,2.79,0,0,1-.17-.92v-.39l0-.29a5,5,0,0,1,.08-.56l.06-.3a1.13,1.13,0,0,1,.19-.36,8.18,8.18,0,0,1,1.38-1.59,6,6,0,0,1,1.64-1,4.75,4.75,0,0,1,.84-.22l.41,0h.36l.11.05c-1.09.25-2,1.35-2.47,1.63a5.85,5.85,0,0,0-1,.84,3.89,3.89,0,0,0-.43.48c-.12.17-.3.33-.31.44a4.54,4.54,0,0,0-.18,1.13,2.23,2.23,0,0,0,0,.37l.05.17a.49.49,0,0,0,0,.07l.06-.06a4.33,4.33,0,0,1,.34-.38l.58-.55c.39-.34.77-.66,1.15-.95a23.11,23.11,0,0,1,2.13-1.51,1.29,1.29,0,0,0,.16-.09,7.59,7.59,0,0,0-.09-.84A3.43,3.43,0,0,0,24.6,12.18Z"/><path class="cls-3" d="M11.64,15.65a7.69,7.69,0,0,1,3.37-3c-.25-.43-1.25-.59-1.25-.59s-3.27,1.38-3.85,3.07C9.73,15.63,11.22,15.12,11.64,15.65Z"/><path class="cls-12" d="M11.64,15.65c-.06,0-.15-.07-.34-.1a3.3,3.3,0,0,0-.73,0,2.66,2.66,0,0,1-.57,0c-.17,0-.34-.19-.27-.36a2.44,2.44,0,0,1,.15-.48c.1-.17.15-.28.2-.35a8.21,8.21,0,0,1,3.34-2.63l.28-.13.37.06.23.06a2.6,2.6,0,0,1,.7.3,1.26,1.26,0,0,1,.44.41l.3.43c-.38.2-.81.42-1.11.59l-.58.34a9.66,9.66,0,0,0-.91.64,10.43,10.43,0,0,0-1.38,1.34,3.16,3.16,0,0,1,.38-1.37,2.57,2.57,0,0,1,.79-.95c.32-.19.63-.36.94-.51a3.55,3.55,0,0,1,.55-.22c.11,0,.08-.09,0-.13a.52.52,0,0,0-.17-.12l-.21-.09-.29-.07a10,10,0,0,0-1.29.67,8.74,8.74,0,0,0-1.11.79,5.73,5.73,0,0,0-.85.86,2.61,2.61,0,0,0-.2.31c-.05.07-.1.2,0,.22l.22.05.48.1A.9.9,0,0,1,11.64,15.65Z"/><path class="cls-3" d="M11.25,16.41c-.25-.22-1-.05-1.36.06-.14-.22-.17,3.13.51,4.06,0,.07,1.63-.7,2-.86A28,28,0,0,0,11.25,16.41Z"/><path class="cls-12" d="M11.25,16.4c.28,0,.8,1.58,1.07,2.15l.23.48.36.84-.48.22-.24.12-.14.07-.55.29-.29.14a3.81,3.81,0,0,1-.37.17c-.19.09-.38.15-.51.06-.2.09-.29-.11-.4-.24a2.81,2.81,0,0,1-.22-.47c0-.1-.07-.2-.1-.3a4.49,4.49,0,0,1-.13-.59,7.32,7.32,0,0,1-.11-1.12,7.17,7.17,0,0,1,0-1c0-.18,0-.26.06-.57a.81.81,0,0,1,.12-.33c.06-.09.14-.1.27-.13l.3-.06.19,0a2.16,2.16,0,0,1,.36,0,1,1,0,0,1,.65.23.93.93,0,0,0-.64.18l-.29.16c-.12.06-.17.11-.16.14s0,.09.05.1a1.5,1.5,0,0,1,0,.3,6.12,6.12,0,0,0,.09,2.92,1.24,1.24,0,0,0,.1.2.66.66,0,0,0,.2-.06l.55-.26.89-.45-.13-.3-.17-.5c-.11-.33-.2-.64-.28-.94S11.35,16.54,11.25,16.4Z"/><path class="cls-11" d="M19,27.48a32.3,32.3,0,0,1-6.46-6.54,6.43,6.43,0,0,0-1.34,1.26,27.64,27.64,0,0,0,8.52,8.66A30.58,30.58,0,0,0,19,27.48Z"/><path class="cls-11" d="M19,27.47c.12,0,.27.49.41,1.12.07.31.15.67.23,1.05s.23,1.05.34,1.58c-.44-.25-.95-.57-1.38-.85l-.83-.54a24.92,24.92,0,0,1-6-6l-.53-.74-.33-.48-.25-.36s0-.07,0-.09l.07-.09.14-.17.27-.32.16-.17.33-.34.19-.17c.11-.08.21-.17.33-.25s.24-.14.36-.21.12-.09.17-.1l.13.16.48.59.27.36.53.67q.52.64,1.05,1.26a50.72,50.72,0,0,0,4,4,12.86,12.86,0,0,1-4.23-2.94c-.63-.76-1.21-1.51-1.76-2.26l-.4-.55a2.3,2.3,0,0,0-.22-.31,1.54,1.54,0,0,0-.32.23,4.57,4.57,0,0,0-.45.43l-.16.17c-.05,0-.1.09,0,.14l.28.44c.23.34.46.67.7,1,.47.64,1,1.25,1.45,1.82a25.08,25.08,0,0,0,3,2.95c.5.41,1,.8,1.49,1.16l.59.42.34.23v0a4.16,4.16,0,0,1,0-.45l-.1-.95A6.23,6.23,0,0,0,19,27.47Z"/><path class="cls-1" d="M33.45,17.41c-.05-.12-.05-.77-.21-1.7A8.62,8.62,0,0,0,32,12.44,5.76,5.76,0,0,0,30.65,11a5.14,5.14,0,0,0-1.78-.82A8.59,8.59,0,0,0,25.62,10a9.15,9.15,0,0,0-2.87.82,6.85,6.85,0,0,0-1.31.82,7.27,7.27,0,0,0-.57.54l-.13.14c-.08.1-.15.21-.22.31s-.3.47-.44.69c-.12-.2-.25-.45-.39-.64a2.77,2.77,0,0,0-.35-.47c-.16-.17-.35-.34-.53-.5A6.87,6.87,0,0,0,17.54,11a9,9,0,0,0-3-.75,8.75,8.75,0,0,0-3,.21A5.17,5.17,0,0,0,9.11,11.9a7,7,0,0,0-1.57,3.42,10.22,10.22,0,0,0-.19,1.91c0,.64.09,1.28.13,1.91a14.64,14.64,0,0,0,3,6.74,27.42,27.42,0,0,0,4.84,4.85A36,36,0,0,0,20.21,34a24.14,24.14,0,0,1-5.46-2.84,21.77,21.77,0,0,1-4.12-3.61,17.26,17.26,0,0,1-3.8-7.7,10.74,10.74,0,0,1,1.22-7.7A5.83,5.83,0,0,1,11,9.89a8.91,8.91,0,0,1,3.53-.34,9.6,9.6,0,0,1,3.29.83,6.74,6.74,0,0,1,1.4.88,8,8,0,0,1,.6.56L20,12l.11.17a1,1,0,0,1,.11-.17l.19-.22a6.32,6.32,0,0,1,.6-.56,7.62,7.62,0,0,1,1.34-.86,9.18,9.18,0,0,1,2.9-.86,7.76,7.76,0,0,1,5.43,1,5.37,5.37,0,0,1,1.54,1.57,7.48,7.48,0,0,1,.93,2.16A10.52,10.52,0,0,1,33.45,17.41Z"/><path class="cls-3" d="M20.4,33.88c.11-.19,3-1.78,3.91-2.62a35.91,35.91,0,0,0,5.06-4.81,17.47,17.47,0,0,0,4.2-9.29,7.89,7.89,0,0,1,.26,2.32,6.07,6.07,0,0,1-.4,2,24.22,24.22,0,0,1-5.14,7.09A27.2,27.2,0,0,1,23,32.72,16.42,16.42,0,0,1,20.4,33.88Z"/><path class="cls-3" d="M17.19,10.14c-.43,3.29-.65,4.85-4,4.81,3.93.42,3.55,1,4.06,4.53.42-3.14-.09-4.16,3.59-4.53C17.62,15.06,17.46,13,17.19,10.14Z"/><path class="cls-7" d="M17.19,10.14c.06.1.12,1.19.38,2.41a3.29,3.29,0,0,0,.83,1.64,2.52,2.52,0,0,0,1.36.6,7,7,0,0,0,1,0l0,.24a9.68,9.68,0,0,0-1.59.3,2,2,0,0,0-1.27.86,4.26,4.26,0,0,0-.37,1.58c-.06.57-.12,1.14-.18,1.69L17.25,21,17,19.5l-.15-1.07c-.16-1-.18-2.17-1-2.65a8.13,8.13,0,0,0-2.77-.65l0-.37a5.45,5.45,0,0,0,2-.25,2.24,2.24,0,0,0,1.26-1.21,13.7,13.7,0,0,0,.74-3.17A12.58,12.58,0,0,1,16.81,13a3.05,3.05,0,0,1-.71,1.33,2.39,2.39,0,0,1-1,.58,6.34,6.34,0,0,1-2,.2l0-.29a16.36,16.36,0,0,1,1.9.34,2.27,2.27,0,0,1,1.56,1,4.86,4.86,0,0,1,.44,1.71c.08.56.15,1.1.22,1.63h-.15l.2-1.82A3.67,3.67,0,0,1,17.83,16a2.43,2.43,0,0,1,1.43-.85,9.58,9.58,0,0,1,1.54-.27v.22A4.65,4.65,0,0,1,19,14.8a2.37,2.37,0,0,1-1.24-1.17A10.53,10.53,0,0,1,17.19,10.14Z"/></g></g></svg>