<svg width="45" height="14" viewBox="0 0 45 14" fill="none" xmlns="http://www.w3.org/2000/svg">
  <mask id="mask0_2633_23" style="mask-type:alpha" maskUnits="userSpaceOnUse" x="0" y="0" width="45" height="14">
    <path fill-rule="evenodd" clip-rule="evenodd" d="M20.9719 0.809492L18.2777 3.99995H18.2778L17.6917 4.69393C14.4495 8.53347 12.8283 10.4532 10.6247 11.4766C8.42116 12.4999 5.90847 12.4999 0.883099 12.4999H0V13.9999H45V12.4999H44.1169C39.0915 12.4999 36.5788 12.4999 34.3753 11.4766C32.1717 10.4532 30.5505 8.53347 27.3082 4.69393L25.8778 2.99995H25.8777L24.028 0.809492C23.229 -0.136693 21.7709 -0.136692 20.9719 0.809492Z" fill="#0000FF" />
  </mask>
  <g mask="url(#mask0_2633_23)">
    <rect width="45" height="14" transform="matrix(-1 0 0 1 45 0)" fill="#29292A" />
    <path d="M18.2648 5.17782L18.1277 5.34013C15.0171 9.02406 13.2953 11.0633 10.9406 12.1568C8.58603 13.2503 5.91706 13.2502 1.09554 13.25L0.883095 13.2499L-1.25 13.25V17.75H46.25V13.2499H44.1169C44.0456 13.2499 43.9748 13.25 43.9045 13.25C39.0829 13.2502 36.414 13.2503 34.0594 12.1568C31.7047 11.0633 29.9829 9.02407 26.8723 5.34015L26.7352 5.17781L23.7606 1.65531C23.1014 0.874715 21.8985 0.874721 21.2393 1.65532L18.2648 5.17782Z" stroke="white" stroke-opacity="0.16" stroke-width="1.5" />
    <path d="M26.5312 4.16129L23.837 0.970785C23.1379 0.142876 21.862 0.142876 21.1629 0.970788L18.4687 4.16129L17.8828 4.85522L17.6917 4.69393L17.8828 4.85523L17.8332 4.91392C14.6383 8.69734 12.9838 10.6567 10.73 11.7033C8.47629 12.75 5.91181 12.75 0.959896 12.7499H0.883095H-1.75V18.25H46.75V12.7499H44.1169H44.0401C39.0882 12.75 36.5237 12.75 34.27 11.7033C32.0162 10.6567 30.3617 8.69734 27.1668 4.91392L27.1172 4.85522L26.5312 4.16125L26.5312 4.16129Z" stroke="black" stroke-width="0.5" />
  </g>
</svg>