<svg width="565" height="276" viewBox="0 0 565 276" fill="none" xmlns="http://www.w3.org/2000/svg">
<rect width="565" height="275.2" fill="white"/>
<rect width="466" height="265.2" transform="translate(49.5 5)" fill="white"/>
<path d="M284.5 83C284.5 83 284.5 100 285 111.424C285.775 129.141 289 154.996 300 154.996C300 154.996 298.195 161.328 298.195 163.995H266.789L265 154.996C276 154.996 279.225 129.141 280 111.424C280.5 100 280.5 83 280.5 83H284.5Z" fill="#53D453"/>
<path d="M293 79.5H272V81H293V79.5Z" fill="#53D453"/>
<rect x="147.129" y="14.1286" width="270.743" height="61.7428" rx="10.8414" fill="white"/>
<rect x="147.129" y="14.1286" width="270.743" height="61.7428" rx="10.8414" stroke="black" stroke-width="1.74275"/>
<path d="M166.776 51H164.938V37.0656H166.776V51ZM171.245 38.5682H160.479V37.0656H171.245V38.5682ZM174.824 51H173.035V36.3H174.824V51ZM173.657 45.3918C173.67 44.4475 173.851 43.6053 174.202 42.8652C174.553 42.1187 175.041 41.5318 175.667 41.1043C176.298 40.6704 177.032 40.4535 177.868 40.4535C178.55 40.4535 179.137 40.5811 179.629 40.8363C180.126 41.0852 180.509 41.4839 180.777 42.0326C181.051 42.5813 181.189 43.3087 181.189 44.2146V51H179.399V44.1955C179.399 43.6532 179.319 43.2161 179.16 42.8844C179.007 42.5526 178.777 42.3133 178.471 42.1666C178.164 42.0135 177.788 41.9369 177.341 41.9369C176.901 41.9369 176.502 42.0294 176.145 42.2145C175.788 42.3995 175.478 42.6547 175.217 42.9801C174.955 43.3055 174.754 43.6787 174.614 44.0998C174.474 44.5145 174.403 44.9548 174.403 45.4205L173.657 45.3918ZM188.137 51.1914C187.173 51.1914 186.334 50.9777 185.62 50.5502C184.912 50.1163 184.36 49.523 183.964 48.7701C183.575 48.0173 183.38 47.1559 183.38 46.1861V45.7746C183.38 44.6517 183.594 43.6947 184.021 42.9035C184.455 42.106 185.017 41.4999 185.706 41.0852C186.401 40.6641 187.135 40.4535 187.907 40.4535C188.902 40.4535 189.713 40.6768 190.338 41.1234C190.97 41.5637 191.432 42.1666 191.726 42.9322C192.025 43.6915 192.175 44.5528 192.175 45.5162V46.3105H184.443V44.875H190.386V44.741C190.36 44.2816 190.268 43.835 190.108 43.4012C189.949 42.9609 189.693 42.6005 189.343 42.3197C188.992 42.0326 188.513 41.8891 187.907 41.8891C187.371 41.8891 186.896 42.0422 186.481 42.3484C186.073 42.6483 185.751 43.0885 185.514 43.6691C185.285 44.2434 185.17 44.9452 185.17 45.7746V46.1861C185.17 46.8433 185.291 47.443 185.534 47.9854C185.776 48.5213 186.127 48.952 186.586 49.2773C187.046 49.5964 187.594 49.7559 188.232 49.7559C188.858 49.7559 189.387 49.6283 189.821 49.373C190.255 49.1178 190.635 48.7765 190.96 48.349L192.041 49.1912C191.71 49.7016 191.231 50.1642 190.606 50.5789C189.987 50.9872 189.164 51.1914 188.137 51.1914ZM199.975 51V39.5443C199.975 38.4342 200.278 37.5824 200.884 36.9891C201.497 36.3957 202.333 36.099 203.392 36.099C203.596 36.099 203.8 36.1118 204.004 36.1373C204.208 36.1628 204.409 36.2011 204.607 36.2521L204.512 37.6781C204.378 37.6526 204.224 37.6335 204.052 37.6207C203.886 37.6079 203.72 37.6016 203.554 37.6016C202.993 37.6016 202.553 37.7706 202.234 38.1088C201.921 38.4406 201.765 38.9191 201.765 39.5443V51H199.975ZM203.966 41.9943H198.348V40.6449H203.966V41.9943ZM205.459 45.7172C205.459 44.7155 205.65 43.8191 206.033 43.0279C206.416 42.2368 206.958 41.6115 207.66 41.1521C208.362 40.6864 209.195 40.4535 210.158 40.4535C211.134 40.4535 211.976 40.6864 212.685 41.1521C213.393 41.6115 213.935 42.2368 214.312 43.0279C214.694 43.8191 214.886 44.7155 214.886 45.7172V45.9373C214.886 46.9326 214.694 47.829 214.312 48.6266C213.935 49.4177 213.393 50.043 212.685 50.5023C211.983 50.9617 211.147 51.1914 210.177 51.1914C209.207 51.1914 208.368 50.9617 207.66 50.5023C206.958 50.043 206.416 49.4177 206.033 48.6266C205.65 47.829 205.459 46.9326 205.459 45.9373V45.7172ZM207.249 45.9373C207.249 46.62 207.357 47.2516 207.574 47.8322C207.791 48.4128 208.113 48.8786 208.541 49.2295C208.974 49.5804 209.52 49.7559 210.177 49.7559C210.828 49.7559 211.367 49.5804 211.795 49.2295C212.228 48.8786 212.554 48.4128 212.771 47.8322C212.988 47.2516 213.096 46.62 213.096 45.9373V45.7172C213.096 45.0345 212.988 44.4029 212.771 43.8223C212.554 43.2417 212.228 42.7759 211.795 42.425C211.361 42.0677 210.815 41.8891 210.158 41.8891C209.514 41.8891 208.974 42.0677 208.541 42.425C208.107 42.7759 207.781 43.2417 207.564 43.8223C207.354 44.4029 207.249 45.0345 207.249 45.7172V45.9373ZM216.656 45.7172C216.656 44.7155 216.848 43.8191 217.23 43.0279C217.613 42.2368 218.156 41.6115 218.857 41.1521C219.559 40.6864 220.392 40.4535 221.355 40.4535C222.331 40.4535 223.174 40.6864 223.882 41.1521C224.59 41.6115 225.132 42.2368 225.509 43.0279C225.892 43.8191 226.083 44.7155 226.083 45.7172V45.9373C226.083 46.9326 225.892 47.829 225.509 48.6266C225.132 49.4177 224.59 50.043 223.882 50.5023C223.18 50.9617 222.344 51.1914 221.374 51.1914C220.405 51.1914 219.566 50.9617 218.857 50.5023C218.156 50.043 217.613 49.4177 217.23 48.6266C216.848 47.829 216.656 46.9326 216.656 45.9373V45.7172ZM218.446 45.9373C218.446 46.62 218.554 47.2516 218.771 47.8322C218.988 48.4128 219.31 48.8786 219.738 49.2295C220.172 49.5804 220.717 49.7559 221.374 49.7559C222.025 49.7559 222.564 49.5804 222.992 49.2295C223.426 48.8786 223.751 48.4128 223.968 47.8322C224.185 47.2516 224.293 46.62 224.293 45.9373V45.7172C224.293 45.0345 224.185 44.4029 223.968 43.8223C223.751 43.2417 223.426 42.7759 222.992 42.425C222.558 42.0677 222.012 41.8891 221.355 41.8891C220.711 41.8891 220.172 42.0677 219.738 42.425C219.304 42.7759 218.979 43.2417 218.762 43.8223C218.551 44.4029 218.446 45.0345 218.446 45.7172V45.9373ZM232.667 41.9943H227.059V40.6449H232.667V41.9943ZM230.734 38.1279V48.4352C230.734 48.7924 230.788 49.0604 230.897 49.2391C231.005 49.4177 231.146 49.5357 231.318 49.5932C231.49 49.6506 231.675 49.6793 231.873 49.6793C232.02 49.6793 232.173 49.6665 232.332 49.641C232.498 49.6155 232.62 49.5932 232.696 49.574V51C232.556 51.0447 232.374 51.0861 232.151 51.1244C231.927 51.1691 231.656 51.1914 231.337 51.1914C230.903 51.1914 230.504 51.1053 230.141 50.933C229.777 50.7607 229.487 50.4736 229.27 50.0717C229.053 49.6633 228.945 49.1146 228.945 48.4256V38.1279H230.734ZM239.481 51.1914C238.601 51.1914 237.867 50.9936 237.28 50.598C236.693 50.1961 236.237 49.6314 235.912 48.9041C235.586 48.1704 235.373 47.3027 235.271 46.301V45.3727C235.373 44.3582 235.586 43.4841 235.912 42.7504C236.237 42.0167 236.69 41.452 237.271 41.0564C237.858 40.6545 238.588 40.4535 239.462 40.4535C240.33 40.4535 241.064 40.6736 241.663 41.1139C242.263 41.5541 242.719 42.173 243.032 42.9705C243.345 43.7617 243.501 44.6836 243.501 45.7363V45.9373C243.501 46.9454 243.345 47.845 243.032 48.6361C242.719 49.4273 242.263 50.0525 241.663 50.5119C241.064 50.9649 240.336 51.1914 239.481 51.1914ZM234.725 51V36.3H236.515V48.9902L236.362 51H234.725ZM239.032 49.6984C239.67 49.6984 240.183 49.5294 240.572 49.1912C240.968 48.8467 241.255 48.3905 241.434 47.8227C241.619 47.2548 241.711 46.6264 241.711 45.9373V45.7363C241.711 45.0473 241.625 44.4156 241.453 43.8414C241.281 43.2608 240.997 42.7982 240.601 42.4537C240.212 42.1092 239.682 41.9369 239.012 41.9369C238.572 41.9369 238.186 42.0135 237.854 42.1666C237.529 42.3197 237.252 42.5271 237.022 42.7887C236.792 43.0439 236.604 43.3374 236.457 43.6691C236.317 43.9945 236.212 44.3327 236.141 44.6836V47.0092C236.243 47.4558 236.409 47.8865 236.639 48.3012C236.869 48.7095 237.178 49.0445 237.567 49.3061C237.963 49.5676 238.451 49.6984 239.032 49.6984ZM251.837 43.8988C251.837 43.2799 251.652 42.7887 251.282 42.425C250.918 42.0549 250.379 41.8699 249.664 41.8699C249.224 41.8699 248.835 41.9465 248.497 42.0996C248.165 42.2527 247.907 42.4537 247.721 42.7025C247.536 42.9514 247.444 43.2225 247.444 43.516H245.654C245.654 43.0184 245.823 42.5367 246.162 42.0709C246.5 41.5988 246.975 41.2128 247.587 40.9129C248.206 40.6066 248.934 40.4535 249.77 40.4535C250.522 40.4535 251.189 40.5811 251.77 40.8363C252.35 41.0915 252.803 41.4775 253.129 41.9943C253.46 42.5048 253.626 43.146 253.626 43.918V48.7414C253.626 49.0859 253.655 49.4528 253.712 49.842C253.776 50.2312 253.869 50.5661 253.99 50.8469V51H252.124C252.035 50.7958 251.964 50.5247 251.913 50.1865C251.862 49.842 251.837 49.523 251.837 49.2295V43.8988ZM252.143 45.966H250.382C249.374 45.966 248.596 46.1255 248.047 46.4445C247.498 46.7635 247.224 47.2421 247.224 47.8801C247.224 48.3777 247.39 48.7988 247.721 49.1434C248.06 49.4879 248.551 49.6602 249.195 49.6602C249.738 49.6602 250.216 49.5453 250.631 49.3156C251.046 49.0859 251.374 48.802 251.617 48.4639C251.859 48.1257 251.99 47.8003 252.009 47.4877L252.775 48.3395C252.73 48.6074 252.609 48.9041 252.411 49.2295C252.213 49.5549 251.948 49.8675 251.617 50.1674C251.291 50.4609 250.902 50.7065 250.449 50.9043C250.002 51.0957 249.498 51.1914 248.937 51.1914C248.235 51.1914 247.619 51.0574 247.09 50.7895C246.567 50.5151 246.158 50.1451 245.865 49.6793C245.578 49.2135 245.434 48.6967 245.434 48.1289C245.434 47.0124 245.855 46.167 246.697 45.5928C247.54 45.0122 248.672 44.7219 250.095 44.7219H252.143V45.966ZM258.354 51H256.564V36.3H258.354V51ZM263.12 51H261.33V36.3H263.12V51ZM272.595 51H270.805V36.3H272.595V51ZM271.427 45.3918C271.44 44.4475 271.622 43.6053 271.973 42.8652C272.324 42.1187 272.812 41.5318 273.437 41.1043C274.069 40.6704 274.802 40.4535 275.638 40.4535C276.321 40.4535 276.908 40.5811 277.399 40.8363C277.897 41.0852 278.279 41.4839 278.547 42.0326C278.822 42.5813 278.959 43.3087 278.959 44.2146V51H277.169V44.1955C277.169 43.6532 277.09 43.2161 276.93 42.8844C276.777 42.5526 276.547 42.3133 276.241 42.1666C275.935 42.0135 275.558 41.9369 275.112 41.9369C274.671 41.9369 274.273 42.0294 273.915 42.2145C273.558 42.3995 273.249 42.6547 272.987 42.9801C272.726 43.3055 272.525 43.6787 272.384 44.0998C272.244 44.5145 272.174 44.9548 272.174 45.4205L271.427 45.3918ZM287.706 43.8988C287.706 43.2799 287.521 42.7887 287.151 42.425C286.788 42.0549 286.248 41.8699 285.534 41.8699C285.094 41.8699 284.704 41.9465 284.366 42.0996C284.034 42.2527 283.776 42.4537 283.591 42.7025C283.406 42.9514 283.313 43.2225 283.313 43.516H281.524C281.524 43.0184 281.693 42.5367 282.031 42.0709C282.369 41.5988 282.845 41.2128 283.457 40.9129C284.076 40.6066 284.803 40.4535 285.639 40.4535C286.392 40.4535 287.059 40.5811 287.639 40.8363C288.22 41.0915 288.673 41.4775 288.998 41.9943C289.33 42.5048 289.496 43.146 289.496 43.918V48.7414C289.496 49.0859 289.525 49.4528 289.582 49.842C289.646 50.2312 289.738 50.5661 289.86 50.8469V51H287.993C287.904 50.7958 287.834 50.5247 287.783 50.1865C287.732 49.842 287.706 49.523 287.706 49.2295V43.8988ZM288.013 45.966H286.252C285.243 45.966 284.465 46.1255 283.916 46.4445C283.368 46.7635 283.093 47.2421 283.093 47.8801C283.093 48.3777 283.259 48.7988 283.591 49.1434C283.929 49.4879 284.42 49.6602 285.065 49.6602C285.607 49.6602 286.086 49.5453 286.5 49.3156C286.915 49.0859 287.244 48.802 287.486 48.4639C287.729 48.1257 287.859 47.8003 287.879 47.4877L288.644 48.3395C288.599 48.6074 288.478 48.9041 288.28 49.2295C288.083 49.5549 287.818 49.8675 287.486 50.1674C287.161 50.4609 286.772 50.7065 286.319 50.9043C285.872 51.0957 285.368 51.1914 284.806 51.1914C284.105 51.1914 283.489 51.0574 282.959 50.7895C282.436 50.5151 282.028 50.1451 281.734 49.6793C281.447 49.2135 281.304 48.6967 281.304 48.1289C281.304 47.0124 281.725 46.167 282.567 45.5928C283.409 45.0122 284.542 44.7219 285.964 44.7219H288.013V45.966ZM296.09 51.1914C295.177 51.1914 294.405 51.0287 293.774 50.7033C293.142 50.3779 292.664 49.96 292.338 49.4496C292.013 48.9328 291.85 48.3873 291.85 47.8131H293.64C293.672 48.298 293.812 48.684 294.061 48.9711C294.316 49.2518 294.626 49.4528 294.989 49.574C295.359 49.6952 295.726 49.7559 296.09 49.7559C296.575 49.7559 296.98 49.6921 297.305 49.5645C297.637 49.4305 297.886 49.2518 298.052 49.0285C298.224 48.7988 298.31 48.5404 298.31 48.2533C298.31 47.9981 298.253 47.762 298.138 47.5451C298.029 47.3218 297.806 47.1208 297.468 46.9422C297.13 46.7572 296.619 46.5945 295.937 46.4541C295.171 46.2946 294.508 46.0936 293.946 45.8512C293.391 45.6023 292.96 45.2865 292.654 44.9037C292.354 44.5209 292.204 44.0456 292.204 43.4777C292.204 42.929 292.361 42.4282 292.673 41.9752C292.992 41.5158 293.439 41.149 294.013 40.8746C294.594 40.5939 295.27 40.4535 296.042 40.4535C296.871 40.4535 297.58 40.6003 298.167 40.8937C298.76 41.1809 299.213 41.5701 299.526 42.0613C299.838 42.5462 299.995 43.0854 299.995 43.6787H298.205C298.205 43.2512 298.017 42.8461 297.64 42.4633C297.27 42.0805 296.737 41.8891 296.042 41.8891C295.557 41.8891 295.162 41.9656 294.855 42.1187C294.555 42.2655 294.335 42.4569 294.195 42.693C294.061 42.9227 293.994 43.1651 293.994 43.4203C293.994 43.6755 294.058 43.8988 294.185 44.0902C294.313 44.2753 294.546 44.4411 294.884 44.5879C295.229 44.7346 295.726 44.8814 296.377 45.0281C297.226 45.2195 297.924 45.4492 298.473 45.7172C299.022 45.9852 299.43 46.3137 299.698 46.7029C299.966 47.0921 300.1 47.5674 300.1 48.1289C300.1 48.7286 299.934 49.2614 299.602 49.7271C299.27 50.1865 298.805 50.547 298.205 50.8086C297.605 51.0638 296.9 51.1914 296.09 51.1914ZM313.374 43.8988C313.374 43.2799 313.189 42.7887 312.819 42.425C312.455 42.0549 311.916 41.8699 311.201 41.8699C310.761 41.8699 310.372 41.9465 310.034 42.0996C309.702 42.2527 309.444 42.4537 309.259 42.7025C309.074 42.9514 308.981 43.2225 308.981 43.516H307.191C307.191 43.0184 307.36 42.5367 307.699 42.0709C308.037 41.5988 308.512 41.2128 309.125 40.9129C309.743 40.6066 310.471 40.4535 311.307 40.4535C312.06 40.4535 312.726 40.5811 313.307 40.8363C313.887 41.0915 314.34 41.4775 314.666 41.9943C314.998 42.5048 315.163 43.146 315.163 43.918V48.7414C315.163 49.0859 315.192 49.4528 315.25 49.842C315.313 50.2312 315.406 50.5661 315.527 50.8469V51H313.661C313.572 50.7958 313.501 50.5247 313.45 50.1865C313.399 49.842 313.374 49.523 313.374 49.2295V43.8988ZM313.68 45.966H311.919C310.911 45.966 310.133 46.1255 309.584 46.4445C309.035 46.7635 308.761 47.2421 308.761 47.8801C308.761 48.3777 308.927 48.7988 309.259 49.1434C309.597 49.4879 310.088 49.6602 310.732 49.6602C311.275 49.6602 311.753 49.5453 312.168 49.3156C312.583 49.0859 312.911 48.802 313.154 48.4639C313.396 48.1257 313.527 47.8003 313.546 47.4877L314.312 48.3395C314.267 48.6074 314.146 48.9041 313.948 49.2295C313.75 49.5549 313.485 49.8675 313.154 50.1674C312.828 50.4609 312.439 50.7065 311.986 50.9043C311.54 51.0957 311.035 51.1914 310.474 51.1914C309.772 51.1914 309.157 51.0574 308.627 50.7895C308.104 50.5151 307.695 50.1451 307.402 49.6793C307.115 49.2135 306.971 48.6967 306.971 48.1289C306.971 47.0124 307.392 46.167 308.235 45.5928C309.077 45.0122 310.209 44.7219 311.632 44.7219H313.68V45.966ZM327.557 51.1914C326.893 51.1914 326.31 51.0829 325.806 50.866C325.302 50.6491 324.874 50.3365 324.523 49.9281C324.172 49.5134 323.892 49.0189 323.681 48.4447C323.477 47.8641 323.337 47.2102 323.26 46.4828V45.3727C323.362 44.3582 323.582 43.4841 323.92 42.7504C324.265 42.0167 324.734 41.452 325.327 41.0564C325.927 40.6545 326.661 40.4535 327.528 40.4535C328.396 40.4535 329.13 40.6736 329.729 41.1139C330.329 41.5541 330.785 42.173 331.098 42.9705C331.411 43.7617 331.567 44.6836 331.567 45.7363V45.9373C331.567 46.9454 331.411 47.845 331.098 48.6361C330.785 49.4273 330.329 50.0525 329.729 50.5119C329.136 50.9649 328.412 51.1914 327.557 51.1914ZM322.81 54.9813V40.6449H324.437L324.6 42.6355V54.9813H322.81ZM327.012 49.7559C327.65 49.7559 328.173 49.5804 328.581 49.2295C328.989 48.8786 329.289 48.416 329.481 47.8418C329.678 47.2612 329.777 46.6264 329.777 45.9373V45.7363C329.777 45.0473 329.678 44.4156 329.481 43.8414C329.289 43.2608 328.986 42.7982 328.571 42.4537C328.163 42.1092 327.637 41.9369 326.992 41.9369C326.552 41.9369 326.169 42.0135 325.844 42.1666C325.519 42.3197 325.241 42.5271 325.011 42.7887C324.782 43.0439 324.593 43.3374 324.447 43.6691C324.306 43.9945 324.201 44.3327 324.131 44.6836V47.1814C324.258 47.6281 324.434 48.0492 324.657 48.4447C324.887 48.8339 325.19 49.1497 325.566 49.3922C325.949 49.6346 326.431 49.7559 327.012 49.7559ZM340.152 40.6449H341.941V51H340.238L340.152 48.6074V40.6449ZM341.233 46.4062C341.233 47.325 341.102 48.1449 340.841 48.8658C340.579 49.5868 340.152 50.1546 339.558 50.5693C338.965 50.984 338.171 51.1914 337.175 51.1914C336.161 51.1914 335.341 50.8915 334.716 50.2918C334.09 49.6921 333.778 48.7031 333.778 47.325V40.6449H335.567V47.3441C335.567 47.9694 335.657 48.4543 335.835 48.7988C336.02 49.137 336.256 49.373 336.544 49.507C336.837 49.6346 337.143 49.6984 337.462 49.6984C338.215 49.6984 338.812 49.5549 339.252 49.2678C339.692 48.9743 340.008 48.5787 340.199 48.0811C340.391 47.5834 340.487 47.0315 340.487 46.4254L341.233 46.4062ZM346.42 51H344.63V40.6449H346.324L346.42 42.8557V51ZM345.253 45.3918C345.265 44.4475 345.447 43.6053 345.798 42.8652C346.149 42.1187 346.637 41.5318 347.262 41.1043C347.894 40.6704 348.628 40.4535 349.463 40.4535C350.146 40.4535 350.733 40.5811 351.224 40.8363C351.722 41.0852 352.105 41.4839 352.373 42.0326C352.647 42.5813 352.784 43.3087 352.784 44.2146V51H350.995V44.1955C350.995 43.6532 350.915 43.2161 350.755 42.8844C350.602 42.5526 350.373 42.3133 350.066 42.1666C349.76 42.0135 349.384 41.9369 348.937 41.9369C348.497 41.9369 348.098 42.0294 347.741 42.2145C347.384 42.3995 347.074 42.6547 346.812 42.9801C346.551 43.3055 346.35 43.6787 346.21 44.0998C346.069 44.5145 345.999 44.9548 345.999 45.4205L345.253 45.3918ZM359.618 51.1914C358.578 51.1914 357.716 50.9553 357.034 50.4832C356.351 50.0047 355.84 49.373 355.502 48.5883C355.171 47.8035 355.005 46.9486 355.005 46.0234V45.6215C355.005 44.69 355.174 43.835 355.512 43.0566C355.85 42.2719 356.36 41.6434 357.043 41.1713C357.726 40.6928 358.584 40.4535 359.618 40.4535C360.428 40.4535 361.136 40.6194 361.742 40.9512C362.355 41.2766 362.833 41.7232 363.178 42.291C363.529 42.8525 363.72 43.4905 363.752 44.2051H362.058C362.026 43.7776 361.905 43.3884 361.694 43.0375C361.49 42.6866 361.209 42.409 360.852 42.2049C360.501 41.9943 360.09 41.8891 359.618 41.8891C358.897 41.8891 358.329 42.0741 357.914 42.4441C357.506 42.8142 357.215 43.2863 357.043 43.8605C356.877 44.4284 356.794 45.0154 356.794 45.6215V46.0234C356.794 46.6296 356.877 47.2197 357.043 47.7939C357.209 48.3682 357.496 48.8403 357.904 49.2104C358.319 49.574 358.89 49.7559 359.618 49.7559C360.039 49.7559 360.428 49.6697 360.785 49.4975C361.142 49.3188 361.436 49.0764 361.666 48.7701C361.895 48.4639 362.026 48.1161 362.058 47.727H363.752C363.72 48.3395 363.513 48.9105 363.13 49.44C362.747 49.9632 362.249 50.3875 361.637 50.7129C361.024 51.0319 360.351 51.1914 359.618 51.1914ZM370.097 41.9943H364.489V40.6449H370.097V41.9943ZM368.164 38.1279V48.4352C368.164 48.7924 368.218 49.0604 368.327 49.2391C368.435 49.4177 368.575 49.5357 368.748 49.5932C368.92 49.6506 369.105 49.6793 369.303 49.6793C369.449 49.6793 369.603 49.6665 369.762 49.641C369.928 49.6155 370.049 49.5932 370.126 49.574V51C369.985 51.0447 369.804 51.0861 369.58 51.1244C369.357 51.1691 369.086 51.1914 368.767 51.1914C368.333 51.1914 367.934 51.1053 367.571 50.933C367.207 50.7607 366.917 50.4736 366.7 50.0717C366.483 49.6633 366.374 49.1146 366.374 48.4256V38.1279H368.164ZM378.49 40.6449H380.28V51H378.576L378.49 48.6074V40.6449ZM379.572 46.4062C379.572 47.325 379.441 48.1449 379.179 48.8658C378.918 49.5868 378.49 50.1546 377.897 50.5693C377.304 50.984 376.509 51.1914 375.514 51.1914C374.499 51.1914 373.68 50.8915 373.054 50.2918C372.429 49.6921 372.116 48.7031 372.116 47.325V40.6449H373.906V47.3441C373.906 47.9694 373.995 48.4543 374.174 48.7988C374.359 49.137 374.595 49.373 374.882 49.507C375.176 49.6346 375.482 49.6984 375.801 49.6984C376.554 49.6984 377.15 49.5549 377.591 49.2678C378.031 48.9743 378.347 48.5787 378.538 48.0811C378.729 47.5834 378.825 47.0315 378.825 46.4254L379.572 46.4062ZM384.759 51H382.969V40.6449H384.711L384.759 42.2719V51ZM387.984 42.224C387.831 42.1921 387.687 42.173 387.553 42.1666C387.426 42.1538 387.279 42.1475 387.113 42.1475C386.571 42.1475 386.111 42.2591 385.735 42.4824C385.365 42.7057 385.078 43.0152 384.874 43.4107C384.669 43.7999 384.542 44.2465 384.491 44.7506L383.984 45.0377C383.984 44.2019 384.095 43.4395 384.319 42.7504C384.542 42.0549 384.89 41.4999 385.362 41.0852C385.84 40.6641 386.453 40.4535 387.199 40.4535C387.32 40.4535 387.464 40.4695 387.63 40.5014C387.802 40.5269 387.92 40.5556 387.984 40.5875V42.224ZM393.918 51.1914C392.954 51.1914 392.115 50.9777 391.401 50.5502C390.692 50.1163 390.141 49.523 389.745 48.7701C389.356 48.0173 389.161 47.1559 389.161 46.1861V45.7746C389.161 44.6517 389.375 43.6947 389.802 42.9035C390.236 42.106 390.798 41.4999 391.487 41.0852C392.182 40.6641 392.916 40.4535 393.688 40.4535C394.683 40.4535 395.493 40.6768 396.119 41.1234C396.75 41.5637 397.213 42.1666 397.506 42.9322C397.806 43.6915 397.956 44.5528 397.956 45.5162V46.3105H390.223V44.875H396.167V44.741C396.141 44.2816 396.049 43.835 395.889 43.4012C395.73 42.9609 395.474 42.6005 395.123 42.3197C394.773 42.0326 394.294 41.8891 393.688 41.8891C393.152 41.8891 392.677 42.0422 392.262 42.3484C391.854 42.6483 391.531 43.0885 391.295 43.6691C391.066 44.2434 390.951 44.9452 390.951 45.7746V46.1861C390.951 46.8433 391.072 47.443 391.314 47.9854C391.557 48.5213 391.908 48.952 392.367 49.2773C392.827 49.5964 393.375 49.7559 394.013 49.7559C394.639 49.7559 395.168 49.6283 395.602 49.373C396.036 49.1178 396.415 48.7765 396.741 48.349L397.822 49.1912C397.491 49.7016 397.012 50.1642 396.387 50.5789C395.768 50.9872 394.945 51.1914 393.918 51.1914Z" fill="black"/>
<path d="M60 170.203C60 162.195 66.4919 155.703 74.5 155.703H490.5C498.508 155.703 505 162.195 505 170.203V264.703H60V170.203Z" fill="white"/>
<path d="M60 170.203C60 162.195 66.4919 155.703 74.5 155.703H490.5C498.508 155.703 505 162.195 505 170.203V264.703H60V170.203Z" fill="url(#paint0_linear_2319_88)"/>
<path d="M60 170.203C60 162.195 66.4919 155.703 74.5 155.703H490.5C498.508 155.703 505 162.195 505 170.203V264.703H60V170.203Z" stroke="url(#paint1_linear_2319_88)"/>
<rect x="71.6286" y="167.332" width="177.743" height="68.7428" rx="10.8414" fill="white"/>
<rect x="71.6286" y="167.332" width="177.743" height="68.7428" rx="10.8414" stroke="black" stroke-width="1.74275"/>
<path d="M85.2758 208.203H83.4383V194.269H85.2758V208.203ZM89.7451 195.771H78.9785V194.269H89.7451V195.771ZM93.3244 208.203H91.5348V193.503H93.3244V208.203ZM92.1568 202.595C92.1696 201.651 92.3514 200.808 92.7023 200.068C93.0533 199.322 93.5413 198.735 94.1666 198.307C94.7982 197.874 95.532 197.657 96.3678 197.657C97.0505 197.657 97.6374 197.784 98.1287 198.039C98.6264 198.288 99.0092 198.687 99.2771 199.236C99.5515 199.784 99.6887 200.512 99.6887 201.418V208.203H97.899V201.399C97.899 200.856 97.8193 200.419 97.6598 200.087C97.5066 199.756 97.277 199.516 96.9707 199.37C96.6645 199.217 96.288 199.14 95.8414 199.14C95.4012 199.14 95.0024 199.233 94.6451 199.418C94.2878 199.603 93.9784 199.858 93.7168 200.183C93.4552 200.509 93.2542 200.882 93.1139 201.303C92.9735 201.718 92.9033 202.158 92.9033 202.624L92.1568 202.595ZM106.637 208.395C105.673 208.395 104.834 208.181 104.12 207.753C103.412 207.319 102.86 206.726 102.464 205.973C102.075 205.22 101.88 204.359 101.88 203.389V202.978C101.88 201.855 102.094 200.898 102.521 200.107C102.955 199.309 103.517 198.703 104.206 198.288C104.901 197.867 105.635 197.657 106.407 197.657C107.402 197.657 108.213 197.88 108.838 198.327C109.47 198.767 109.932 199.37 110.226 200.135C110.525 200.895 110.675 201.756 110.675 202.719V203.514H102.943V202.078H108.886V201.944C108.86 201.485 108.768 201.038 108.608 200.604C108.449 200.164 108.193 199.804 107.843 199.523C107.492 199.236 107.013 199.092 106.407 199.092C105.871 199.092 105.396 199.245 104.981 199.552C104.573 199.851 104.251 200.292 104.014 200.872C103.785 201.446 103.67 202.148 103.67 202.978V203.389C103.67 204.046 103.791 204.646 104.034 205.188C104.276 205.724 104.627 206.155 105.086 206.48C105.546 206.799 106.094 206.959 106.732 206.959C107.358 206.959 107.887 206.831 108.321 206.576C108.755 206.321 109.135 205.98 109.46 205.552L110.541 206.394C110.21 206.905 109.731 207.367 109.106 207.782C108.487 208.19 107.664 208.395 106.637 208.395ZM122.361 208.395C121.48 208.395 120.747 208.197 120.16 207.801C119.573 207.399 119.116 206.835 118.791 206.107C118.466 205.374 118.252 204.506 118.15 203.504V202.576C118.252 201.561 118.466 200.687 118.791 199.954C119.116 199.22 119.569 198.655 120.15 198.26C120.737 197.858 121.468 197.657 122.342 197.657C123.209 197.657 123.943 197.877 124.543 198.317C125.143 198.757 125.599 199.376 125.911 200.174C126.224 200.965 126.38 201.887 126.38 202.939V203.14C126.38 204.149 126.224 205.048 125.911 205.839C125.599 206.63 125.143 207.256 124.543 207.715C123.943 208.168 123.216 208.395 122.361 208.395ZM117.604 208.203V193.503H119.394V206.193L119.241 208.203H117.604ZM121.911 206.902C122.549 206.902 123.063 206.732 123.452 206.394C123.847 206.05 124.134 205.594 124.313 205.026C124.498 204.458 124.591 203.829 124.591 203.14V202.939C124.591 202.25 124.504 201.619 124.332 201.045C124.16 200.464 123.876 200.001 123.48 199.657C123.091 199.312 122.562 199.14 121.892 199.14C121.452 199.14 121.066 199.217 120.734 199.37C120.408 199.523 120.131 199.73 119.901 199.992C119.671 200.247 119.483 200.54 119.337 200.872C119.196 201.198 119.091 201.536 119.021 201.887V204.212C119.123 204.659 119.289 205.09 119.518 205.504C119.748 205.913 120.057 206.248 120.447 206.509C120.842 206.771 121.33 206.902 121.911 206.902ZM134.716 201.102C134.716 200.483 134.531 199.992 134.161 199.628C133.797 199.258 133.258 199.073 132.544 199.073C132.103 199.073 131.714 199.15 131.376 199.303C131.044 199.456 130.786 199.657 130.601 199.906C130.416 200.154 130.323 200.426 130.323 200.719H128.534C128.534 200.221 128.703 199.74 129.041 199.274C129.379 198.802 129.854 198.416 130.467 198.116C131.086 197.81 131.813 197.657 132.649 197.657C133.402 197.657 134.068 197.784 134.649 198.039C135.23 198.295 135.683 198.681 136.008 199.197C136.34 199.708 136.506 200.349 136.506 201.121V205.945C136.506 206.289 136.534 206.656 136.592 207.045C136.656 207.434 136.748 207.769 136.869 208.05V208.203H135.003C134.914 207.999 134.844 207.728 134.793 207.39C134.742 207.045 134.716 206.726 134.716 206.433V201.102ZM135.022 203.169H133.261C132.253 203.169 131.475 203.329 130.926 203.648C130.377 203.967 130.103 204.445 130.103 205.083C130.103 205.581 130.269 206.002 130.601 206.346C130.939 206.691 131.43 206.863 132.075 206.863C132.617 206.863 133.095 206.748 133.51 206.519C133.925 206.289 134.253 206.005 134.496 205.667C134.738 205.329 134.869 205.003 134.888 204.691L135.654 205.543C135.609 205.811 135.488 206.107 135.29 206.433C135.092 206.758 134.828 207.071 134.496 207.371C134.171 207.664 133.781 207.91 133.328 208.107C132.882 208.299 132.378 208.395 131.816 208.395C131.114 208.395 130.499 208.261 129.969 207.993C129.446 207.718 129.038 207.348 128.744 206.882C128.457 206.417 128.313 205.9 128.313 205.332C128.313 204.215 128.735 203.37 129.577 202.796C130.419 202.215 131.551 201.925 132.974 201.925H135.022V203.169ZM141.233 208.203H139.444V193.503H141.233V208.203ZM145.999 208.203H144.21V193.503H145.999V208.203ZM154.785 194.087C155.129 194.087 155.391 194.186 155.57 194.384C155.755 194.581 155.847 194.821 155.847 195.101C155.847 195.376 155.755 195.612 155.57 195.81C155.391 196.001 155.129 196.097 154.785 196.097C154.44 196.097 154.179 196.001 154 195.81C153.828 195.612 153.742 195.376 153.742 195.101C153.742 194.821 153.828 194.581 154 194.384C154.179 194.186 154.44 194.087 154.785 194.087ZM155.685 208.203H153.904V197.848H155.685V208.203ZM162.393 208.395C161.481 208.395 160.709 208.232 160.077 207.906C159.446 207.581 158.967 207.163 158.642 206.653C158.316 206.136 158.154 205.59 158.154 205.016H159.943C159.975 205.501 160.116 205.887 160.364 206.174C160.62 206.455 160.929 206.656 161.293 206.777C161.663 206.898 162.03 206.959 162.393 206.959C162.878 206.959 163.283 206.895 163.609 206.768C163.941 206.634 164.189 206.455 164.355 206.232C164.528 206.002 164.614 205.744 164.614 205.456C164.614 205.201 164.556 204.965 164.441 204.748C164.333 204.525 164.11 204.324 163.771 204.145C163.433 203.96 162.923 203.798 162.24 203.657C161.475 203.498 160.811 203.297 160.25 203.054C159.695 202.805 159.264 202.49 158.958 202.107C158.658 201.724 158.508 201.249 158.508 200.681C158.508 200.132 158.664 199.631 158.977 199.178C159.296 198.719 159.742 198.352 160.317 198.078C160.897 197.797 161.574 197.657 162.346 197.657C163.175 197.657 163.883 197.803 164.47 198.097C165.063 198.384 165.516 198.773 165.829 199.264C166.142 199.749 166.298 200.288 166.298 200.882H164.508C164.508 200.454 164.32 200.049 163.944 199.666C163.574 199.284 163.041 199.092 162.346 199.092C161.861 199.092 161.465 199.169 161.159 199.322C160.859 199.469 160.639 199.66 160.498 199.896C160.364 200.126 160.297 200.368 160.297 200.623C160.297 200.879 160.361 201.102 160.489 201.293C160.616 201.478 160.849 201.644 161.187 201.791C161.532 201.938 162.03 202.085 162.68 202.231C163.529 202.423 164.228 202.652 164.776 202.92C165.325 203.188 165.733 203.517 166.001 203.906C166.269 204.295 166.403 204.771 166.403 205.332C166.403 205.932 166.237 206.465 165.906 206.93C165.574 207.39 165.108 207.75 164.508 208.012C163.909 208.267 163.204 208.395 162.393 208.395ZM174.442 208.203V196.747C174.442 195.637 174.752 194.786 175.371 194.192C175.99 193.599 176.867 193.302 178.003 193.302C178.213 193.302 178.465 193.321 178.759 193.36C179.052 193.391 179.371 193.436 179.716 193.494C180.06 193.551 180.411 193.615 180.768 193.685C181.132 193.749 181.486 193.816 181.831 193.886L181.008 195.159C180.395 195.044 179.846 194.958 179.362 194.9C178.883 194.837 178.475 194.805 178.137 194.805C177.518 194.805 177.046 194.974 176.72 195.312C176.395 195.644 176.232 196.122 176.232 196.747V208.203H174.442ZM180.041 193.886H181.831V208.203H180.041V193.886ZM178.433 199.197H172.815V197.848H178.433V199.197ZM190.817 201.102C190.817 200.483 190.632 199.992 190.262 199.628C189.898 199.258 189.359 199.073 188.645 199.073C188.204 199.073 187.815 199.15 187.477 199.303C187.145 199.456 186.887 199.657 186.702 199.906C186.517 200.154 186.424 200.426 186.424 200.719H184.635C184.635 200.221 184.804 199.74 185.142 199.274C185.48 198.802 185.955 198.416 186.568 198.116C187.187 197.81 187.914 197.657 188.75 197.657C189.503 197.657 190.17 197.784 190.75 198.039C191.331 198.295 191.784 198.681 192.109 199.197C192.441 199.708 192.607 200.349 192.607 201.121V205.945C192.607 206.289 192.636 206.656 192.693 207.045C192.757 207.434 192.849 207.769 192.971 208.05V208.203H191.104C191.015 207.999 190.945 207.728 190.894 207.39C190.843 207.045 190.817 206.726 190.817 206.433V201.102ZM191.123 203.169H189.362C188.354 203.169 187.576 203.329 187.027 203.648C186.479 203.967 186.204 204.445 186.204 205.083C186.204 205.581 186.37 206.002 186.702 206.346C187.04 206.691 187.531 206.863 188.176 206.863C188.718 206.863 189.197 206.748 189.611 206.519C190.026 206.289 190.355 206.005 190.597 205.667C190.84 205.329 190.97 205.003 190.989 204.691L191.755 205.543C191.71 205.811 191.589 206.107 191.391 206.433C191.194 206.758 190.929 207.071 190.597 207.371C190.272 207.664 189.882 207.91 189.429 208.107C188.983 208.299 188.479 208.395 187.917 208.395C187.216 208.395 186.6 208.261 186.07 207.993C185.547 207.718 185.139 207.348 184.845 206.882C184.558 206.417 184.415 205.9 184.415 205.332C184.415 204.215 184.836 203.37 185.678 202.796C186.52 202.215 187.653 201.925 189.075 201.925H191.123V203.169ZM199.746 199.197H194.138V197.848H199.746V199.197ZM197.813 195.331V205.638C197.813 205.996 197.867 206.264 197.976 206.442C198.084 206.621 198.225 206.739 198.397 206.796C198.569 206.854 198.754 206.882 198.952 206.882C199.099 206.882 199.252 206.87 199.411 206.844C199.577 206.819 199.698 206.796 199.775 206.777V208.203C199.635 208.248 199.453 208.289 199.229 208.328C199.006 208.372 198.735 208.395 198.416 208.395C197.982 208.395 197.583 208.308 197.22 208.136C196.856 207.964 196.566 207.677 196.349 207.275C196.132 206.866 196.023 206.318 196.023 205.629V195.331H197.813ZM202.943 208.308C202.585 208.308 202.311 208.21 202.12 208.012C201.935 207.814 201.842 207.568 201.842 207.275C201.842 206.975 201.935 206.723 202.12 206.519C202.311 206.308 202.585 206.203 202.943 206.203C203.306 206.203 203.581 206.308 203.766 206.519C203.957 206.723 204.053 206.975 204.053 207.275C204.053 207.568 203.957 207.814 203.766 208.012C203.581 208.21 203.306 208.308 202.943 208.308Z" fill="black"/>
<rect x="259.629" y="167.332" width="171.743" height="85.7428" rx="10.8414" fill="white"/>
<rect x="259.629" y="167.332" width="171.743" height="85.7428" rx="10.8414" stroke="black" stroke-width="1.74275"/>
<path d="M269.974 192.203H268.117V178.269H269.974V192.203ZM275.802 186.04H269.572V184.547H275.802V186.04ZM276.75 179.771H269.572V178.269H276.75V179.771ZM280.616 192.203H278.827V177.503H280.616V192.203ZM289.545 185.102C289.545 184.483 289.36 183.992 288.99 183.628C288.627 183.258 288.087 183.073 287.373 183.073C286.933 183.073 286.543 183.15 286.205 183.303C285.874 183.456 285.615 183.657 285.43 183.906C285.245 184.154 285.153 184.426 285.153 184.719H283.363C283.363 184.221 283.532 183.74 283.87 183.274C284.208 182.802 284.684 182.416 285.296 182.116C285.915 181.81 286.642 181.657 287.478 181.657C288.231 181.657 288.898 181.784 289.478 182.039C290.059 182.295 290.512 182.681 290.837 183.197C291.169 183.708 291.335 184.349 291.335 185.121V189.945C291.335 190.289 291.364 190.656 291.421 191.045C291.485 191.434 291.577 191.769 291.699 192.05V192.203H289.832C289.743 191.999 289.673 191.728 289.622 191.39C289.571 191.045 289.545 190.726 289.545 190.433V185.102ZM289.852 187.169H288.091C287.083 187.169 286.304 187.329 285.755 187.648C285.207 187.967 284.932 188.445 284.932 189.083C284.932 189.581 285.098 190.002 285.43 190.346C285.768 190.691 286.26 190.863 286.904 190.863C287.446 190.863 287.925 190.748 288.339 190.519C288.754 190.289 289.083 190.005 289.325 189.667C289.568 189.329 289.698 189.003 289.718 188.691L290.483 189.543C290.439 189.811 290.317 190.107 290.12 190.433C289.922 190.758 289.657 191.071 289.325 191.371C289 191.664 288.611 191.91 288.158 192.107C287.711 192.299 287.207 192.395 286.646 192.395C285.944 192.395 285.328 192.261 284.798 191.993C284.275 191.718 283.867 191.348 283.573 190.882C283.286 190.417 283.143 189.9 283.143 189.332C283.143 188.215 283.564 187.37 284.406 186.796C285.248 186.215 286.381 185.925 287.804 185.925H289.852V187.169ZM298.474 183.197H292.866V181.848H298.474V183.197ZM296.541 179.331V189.638C296.541 189.996 296.595 190.264 296.704 190.442C296.812 190.621 296.953 190.739 297.125 190.796C297.297 190.854 297.482 190.882 297.68 190.882C297.827 190.882 297.98 190.87 298.139 190.844C298.305 190.819 298.427 190.796 298.503 190.777V192.203C298.363 192.248 298.181 192.289 297.958 192.328C297.734 192.372 297.463 192.395 297.144 192.395C296.71 192.395 296.312 192.308 295.948 192.136C295.584 191.964 295.294 191.677 295.077 191.275C294.86 190.866 294.752 190.318 294.752 189.629V179.331H296.541ZM306.265 192.203V180.747C306.265 179.637 306.568 178.786 307.174 178.192C307.786 177.599 308.622 177.302 309.681 177.302C309.885 177.302 310.09 177.315 310.294 177.34C310.498 177.366 310.699 177.404 310.897 177.455L310.801 178.881C310.667 178.856 310.514 178.837 310.342 178.824C310.176 178.811 310.01 178.805 309.844 178.805C309.282 178.805 308.842 178.974 308.523 179.312C308.211 179.644 308.054 180.122 308.054 180.747V192.203H306.265ZM310.255 183.197H304.638V181.848H310.255V183.197ZM311.748 186.92C311.748 185.919 311.94 185.022 312.323 184.231C312.705 183.44 313.248 182.815 313.95 182.355C314.651 181.89 315.484 181.657 316.447 181.657C317.424 181.657 318.266 181.89 318.974 182.355C319.682 182.815 320.225 183.44 320.601 184.231C320.984 185.022 321.175 185.919 321.175 186.92V187.14C321.175 188.136 320.984 189.032 320.601 189.83C320.225 190.621 319.682 191.246 318.974 191.705C318.272 192.165 317.436 192.395 316.467 192.395C315.497 192.395 314.658 192.165 313.95 191.705C313.248 191.246 312.705 190.621 312.323 189.83C311.94 189.032 311.748 188.136 311.748 187.14V186.92ZM313.538 187.14C313.538 187.823 313.647 188.455 313.863 189.035C314.08 189.616 314.403 190.082 314.83 190.433C315.264 190.784 315.809 190.959 316.467 190.959C317.117 190.959 317.657 190.784 318.084 190.433C318.518 190.082 318.843 189.616 319.06 189.035C319.277 188.455 319.386 187.823 319.386 187.14V186.92C319.386 186.238 319.277 185.606 319.06 185.025C318.843 184.445 318.518 183.979 318.084 183.628C317.65 183.271 317.105 183.092 316.447 183.092C315.803 183.092 315.264 183.271 314.83 183.628C314.396 183.979 314.071 184.445 313.854 185.025C313.643 185.606 313.538 186.238 313.538 186.92V187.14ZM322.946 186.92C322.946 185.919 323.137 185.022 323.52 184.231C323.903 183.44 324.445 182.815 325.147 182.355C325.849 181.89 326.681 181.657 327.645 181.657C328.621 181.657 329.463 181.89 330.171 182.355C330.879 182.815 331.422 183.44 331.798 184.231C332.181 185.022 332.372 185.919 332.372 186.92V187.14C332.372 188.136 332.181 189.032 331.798 189.83C331.422 190.621 330.879 191.246 330.171 191.705C329.469 192.165 328.634 192.395 327.664 192.395C326.694 192.395 325.855 192.165 325.147 191.705C324.445 191.246 323.903 190.621 323.52 189.83C323.137 189.032 322.946 188.136 322.946 187.14V186.92ZM324.735 187.14C324.735 187.823 324.844 188.455 325.061 189.035C325.278 189.616 325.6 190.082 326.027 190.433C326.461 190.784 327.007 190.959 327.664 190.959C328.315 190.959 328.854 190.784 329.281 190.433C329.715 190.082 330.04 189.616 330.257 189.035C330.474 188.455 330.583 187.823 330.583 187.14V186.92C330.583 186.238 330.474 185.606 330.257 185.025C330.04 184.445 329.715 183.979 329.281 183.628C328.847 183.271 328.302 183.092 327.645 183.092C327 183.092 326.461 183.271 326.027 183.628C325.593 183.979 325.268 184.445 325.051 185.025C324.841 185.606 324.735 186.238 324.735 186.92V187.14ZM338.957 183.197H333.349V181.848H338.957V183.197ZM337.024 179.331V189.638C337.024 189.996 337.078 190.264 337.186 190.442C337.295 190.621 337.435 190.739 337.607 190.796C337.78 190.854 337.965 190.882 338.162 190.882C338.309 190.882 338.462 190.87 338.622 190.844C338.788 190.819 338.909 190.796 338.986 190.777V192.203C338.845 192.248 338.663 192.289 338.44 192.328C338.217 192.372 337.946 192.395 337.627 192.395C337.193 192.395 336.794 192.308 336.43 192.136C336.067 191.964 335.776 191.677 335.559 191.275C335.342 190.866 335.234 190.318 335.234 189.629V179.331H337.024ZM345.771 192.395C344.89 192.395 344.157 192.197 343.57 191.801C342.983 191.399 342.527 190.835 342.201 190.107C341.876 189.374 341.662 188.506 341.56 187.504V186.576C341.662 185.561 341.876 184.687 342.201 183.954C342.527 183.22 342.98 182.655 343.56 182.26C344.147 181.858 344.878 181.657 345.752 181.657C346.619 181.657 347.353 181.877 347.953 182.317C348.553 182.757 349.009 183.376 349.321 184.174C349.634 184.965 349.79 185.887 349.79 186.939V187.14C349.79 188.149 349.634 189.048 349.321 189.839C349.009 190.63 348.553 191.256 347.953 191.715C347.353 192.168 346.626 192.395 345.771 192.395ZM341.014 192.203V177.503H342.804V190.193L342.651 192.203H341.014ZM345.321 190.902C345.959 190.902 346.473 190.732 346.862 190.394C347.257 190.05 347.545 189.594 347.723 189.026C347.908 188.458 348.001 187.829 348.001 187.14V186.939C348.001 186.25 347.915 185.619 347.742 185.045C347.57 184.464 347.286 184.001 346.891 183.657C346.501 183.312 345.972 183.14 345.302 183.14C344.862 183.14 344.476 183.217 344.144 183.37C343.819 183.523 343.541 183.73 343.311 183.992C343.082 184.247 342.893 184.54 342.747 184.872C342.606 185.198 342.501 185.536 342.431 185.887V188.212C342.533 188.659 342.699 189.09 342.929 189.504C343.158 189.913 343.468 190.248 343.857 190.509C344.252 190.771 344.74 190.902 345.321 190.902ZM358.126 185.102C358.126 184.483 357.941 183.992 357.571 183.628C357.207 183.258 356.668 183.073 355.954 183.073C355.513 183.073 355.124 183.15 354.786 183.303C354.454 183.456 354.196 183.657 354.011 183.906C353.826 184.154 353.733 184.426 353.733 184.719H351.944C351.944 184.221 352.113 183.74 352.451 183.274C352.789 182.802 353.264 182.416 353.877 182.116C354.496 181.81 355.223 181.657 356.059 181.657C356.812 181.657 357.479 181.784 358.059 182.039C358.64 182.295 359.093 182.681 359.418 183.197C359.75 183.708 359.916 184.349 359.916 185.121V189.945C359.916 190.289 359.945 190.656 360.002 191.045C360.066 191.434 360.158 191.769 360.279 192.05V192.203H358.413C358.324 191.999 358.254 191.728 358.203 191.39C358.152 191.045 358.126 190.726 358.126 190.433V185.102ZM358.432 187.169H356.671C355.663 187.169 354.885 187.329 354.336 187.648C353.788 187.967 353.513 188.445 353.513 189.083C353.513 189.581 353.679 190.002 354.011 190.346C354.349 190.691 354.84 190.863 355.485 190.863C356.027 190.863 356.506 190.748 356.92 190.519C357.335 190.289 357.664 190.005 357.906 189.667C358.148 189.329 358.279 189.003 358.298 188.691L359.064 189.543C359.019 189.811 358.898 190.107 358.7 190.433C358.503 190.758 358.238 191.071 357.906 191.371C357.581 191.664 357.191 191.91 356.738 192.107C356.292 192.299 355.788 192.395 355.226 192.395C354.525 192.395 353.909 192.261 353.379 191.993C352.856 191.718 352.448 191.348 352.154 190.882C351.867 190.417 351.724 189.9 351.724 189.332C351.724 188.215 352.145 187.37 352.987 186.796C353.829 186.215 354.962 185.925 356.384 185.925H358.432V187.169ZM364.644 192.203H362.854V177.503H364.644V192.203ZM369.41 192.203H367.62V177.503H369.41V192.203ZM376.042 192.395C375.129 192.395 374.357 192.232 373.726 191.906C373.094 191.581 372.616 191.163 372.29 190.653C371.965 190.136 371.802 189.59 371.802 189.016H373.592C373.624 189.501 373.764 189.887 374.013 190.174C374.268 190.455 374.578 190.656 374.941 190.777C375.311 190.898 375.678 190.959 376.042 190.959C376.527 190.959 376.932 190.895 377.257 190.768C377.589 190.634 377.838 190.455 378.004 190.232C378.176 190.002 378.262 189.744 378.262 189.456C378.262 189.201 378.205 188.965 378.09 188.748C377.981 188.525 377.758 188.324 377.42 188.145C377.082 187.96 376.571 187.798 375.889 187.657C375.123 187.498 374.46 187.297 373.898 187.054C373.343 186.805 372.912 186.49 372.606 186.107C372.306 185.724 372.156 185.249 372.156 184.681C372.156 184.132 372.313 183.631 372.625 183.178C372.944 182.719 373.391 182.352 373.965 182.078C374.546 181.797 375.222 181.657 375.994 181.657C376.823 181.657 377.532 181.803 378.119 182.097C378.712 182.384 379.165 182.773 379.478 183.264C379.79 183.749 379.946 184.288 379.946 184.882H378.157C378.157 184.454 377.969 184.049 377.592 183.666C377.222 183.284 376.689 183.092 375.994 183.092C375.509 183.092 375.113 183.169 374.807 183.322C374.507 183.469 374.287 183.66 374.147 183.896C374.013 184.126 373.946 184.368 373.946 184.623C373.946 184.879 374.01 185.102 374.137 185.293C374.265 185.478 374.498 185.644 374.836 185.791C375.18 185.938 375.678 186.085 376.329 186.231C377.177 186.423 377.876 186.652 378.425 186.92C378.974 187.188 379.382 187.517 379.65 187.906C379.918 188.295 380.052 188.771 380.052 189.332C380.052 189.932 379.886 190.465 379.554 190.93C379.222 191.39 378.757 191.75 378.157 192.012C377.557 192.267 376.852 192.395 376.042 192.395ZM274.175 205.848H275.965V216.203H274.262L274.175 213.811V205.848ZM275.257 211.609C275.257 212.528 275.126 213.348 274.864 214.069C274.603 214.79 274.175 215.358 273.582 215.772C272.989 216.187 272.194 216.395 271.199 216.395C270.185 216.395 269.365 216.095 268.739 215.495C268.114 214.895 267.802 213.906 267.802 212.528V205.848H269.591V212.547C269.591 213.173 269.681 213.657 269.859 214.002C270.044 214.34 270.28 214.576 270.567 214.71C270.861 214.838 271.167 214.902 271.486 214.902C272.239 214.902 272.836 214.758 273.276 214.471C273.716 214.177 274.032 213.782 274.223 213.284C274.415 212.787 274.51 212.235 274.51 211.629L275.257 211.609ZM282.463 216.395C281.551 216.395 280.779 216.232 280.147 215.906C279.516 215.581 279.037 215.163 278.712 214.653C278.386 214.136 278.224 213.59 278.224 213.016H280.013C280.045 213.501 280.186 213.887 280.434 214.174C280.69 214.455 280.999 214.656 281.363 214.777C281.733 214.898 282.1 214.959 282.463 214.959C282.948 214.959 283.353 214.895 283.679 214.768C284.01 214.634 284.259 214.455 284.425 214.232C284.597 214.002 284.684 213.744 284.684 213.456C284.684 213.201 284.626 212.965 284.511 212.748C284.403 212.525 284.18 212.324 283.841 212.145C283.503 211.96 282.993 211.798 282.31 211.657C281.545 211.498 280.881 211.297 280.32 211.054C279.764 210.805 279.334 210.49 279.028 210.107C278.728 209.724 278.578 209.249 278.578 208.681C278.578 208.132 278.734 207.631 279.047 207.178C279.366 206.719 279.812 206.352 280.387 206.078C280.967 205.797 281.643 205.657 282.415 205.657C283.245 205.657 283.953 205.803 284.54 206.097C285.133 206.384 285.586 206.773 285.899 207.264C286.212 207.749 286.368 208.288 286.368 208.882H284.578C284.578 208.454 284.39 208.049 284.014 207.666C283.644 207.284 283.111 207.092 282.415 207.092C281.931 207.092 281.535 207.169 281.229 207.322C280.929 207.469 280.709 207.66 280.568 207.896C280.434 208.126 280.367 208.368 280.367 208.623C280.367 208.879 280.431 209.102 280.559 209.293C280.686 209.478 280.919 209.644 281.257 209.791C281.602 209.938 282.1 210.085 282.75 210.231C283.599 210.423 284.298 210.652 284.846 210.92C285.395 211.188 285.803 211.517 286.071 211.906C286.339 212.295 286.473 212.771 286.473 213.332C286.473 213.932 286.307 214.465 285.976 214.93C285.644 215.39 285.178 215.75 284.578 216.012C283.979 216.267 283.274 216.395 282.463 216.395ZM295.115 205.848H296.905V216.203H295.201L295.115 213.811V205.848ZM296.197 211.609C296.197 212.528 296.066 213.348 295.804 214.069C295.543 214.79 295.115 215.358 294.522 215.772C293.929 216.187 293.134 216.395 292.139 216.395C291.124 216.395 290.305 216.095 289.679 215.495C289.054 214.895 288.741 213.906 288.741 212.528V205.848H290.531V212.547C290.531 213.173 290.62 213.657 290.799 214.002C290.984 214.34 291.22 214.576 291.507 214.71C291.801 214.838 292.107 214.902 292.426 214.902C293.179 214.902 293.775 214.758 294.216 214.471C294.656 214.177 294.972 213.782 295.163 213.284C295.354 212.787 295.45 212.235 295.45 211.629L296.197 211.609ZM305.7 209.102C305.7 208.483 305.515 207.992 305.145 207.628C304.781 207.258 304.242 207.073 303.528 207.073C303.087 207.073 302.698 207.15 302.36 207.303C302.028 207.456 301.77 207.657 301.585 207.906C301.4 208.154 301.307 208.426 301.307 208.719H299.518C299.518 208.221 299.687 207.74 300.025 207.274C300.363 206.802 300.838 206.416 301.451 206.116C302.07 205.81 302.797 205.657 303.633 205.657C304.386 205.657 305.052 205.784 305.633 206.039C306.214 206.295 306.667 206.681 306.992 207.197C307.324 207.708 307.49 208.349 307.49 209.121V213.945C307.49 214.289 307.518 214.656 307.576 215.045C307.64 215.434 307.732 215.769 307.853 216.05V216.203H305.987C305.898 215.999 305.828 215.728 305.777 215.39C305.726 215.045 305.7 214.726 305.7 214.433V209.102ZM306.006 211.169H304.245C303.237 211.169 302.459 211.329 301.91 211.648C301.361 211.967 301.087 212.445 301.087 213.083C301.087 213.581 301.253 214.002 301.585 214.346C301.923 214.691 302.414 214.863 303.059 214.863C303.601 214.863 304.079 214.748 304.494 214.519C304.909 214.289 305.237 214.005 305.48 213.667C305.722 213.329 305.853 213.003 305.872 212.691L306.638 213.543C306.593 213.811 306.472 214.107 306.274 214.433C306.076 214.758 305.812 215.071 305.48 215.371C305.154 215.664 304.765 215.91 304.312 216.107C303.866 216.299 303.362 216.395 302.8 216.395C302.098 216.395 301.483 216.261 300.953 215.993C300.43 215.718 300.022 215.348 299.728 214.882C299.441 214.417 299.297 213.9 299.297 213.332C299.297 212.215 299.719 211.37 300.561 210.796C301.403 210.215 302.535 209.925 303.958 209.925H306.006V211.169ZM312.217 216.203H310.428V201.503H312.217V216.203ZM316.983 216.203H315.194V201.503H316.983V216.203ZM325.597 205.848H327.501L323.348 217.801C323.252 218.057 323.124 218.331 322.965 218.624C322.812 218.924 322.614 219.208 322.371 219.476C322.135 219.744 321.845 219.961 321.501 220.127C321.156 220.299 320.748 220.385 320.276 220.385C320.18 220.385 320.065 220.376 319.931 220.357C319.797 220.338 319.669 220.315 319.548 220.29C319.427 220.271 319.335 220.251 319.271 220.232V218.806C319.322 218.813 319.401 218.822 319.51 218.835C319.625 218.848 319.705 218.854 319.749 218.854C320.349 218.854 320.818 218.73 321.156 218.481C321.494 218.232 321.769 217.789 321.979 217.151L322.716 215.131L325.597 205.848ZM323.3 213.897L323.759 215.763L322.477 216.404L318.677 205.848H320.63L323.3 213.897ZM335.741 216.203H333.952V201.503H335.741V216.203ZM334.574 210.595C334.586 209.651 334.768 208.808 335.119 208.068C335.47 207.322 335.958 206.735 336.583 206.307C337.215 205.874 337.949 205.657 338.785 205.657C339.467 205.657 340.054 205.784 340.546 206.039C341.043 206.288 341.426 206.687 341.694 207.236C341.968 207.784 342.105 208.512 342.105 209.418V216.203H340.316V209.399C340.316 208.856 340.236 208.419 340.077 208.087C339.923 207.756 339.694 207.516 339.387 207.37C339.081 207.217 338.705 207.14 338.258 207.14C337.818 207.14 337.419 207.233 337.062 207.418C336.705 207.603 336.395 207.858 336.134 208.183C335.872 208.509 335.671 208.882 335.531 209.303C335.39 209.718 335.32 210.158 335.32 210.624L334.574 210.595ZM350.853 209.102C350.853 208.483 350.668 207.992 350.298 207.628C349.934 207.258 349.395 207.073 348.68 207.073C348.24 207.073 347.851 207.15 347.513 207.303C347.181 207.456 346.923 207.657 346.737 207.906C346.552 208.154 346.46 208.426 346.46 208.719H344.67C344.67 208.221 344.839 207.74 345.178 207.274C345.516 206.802 345.991 206.416 346.604 206.116C347.222 205.81 347.95 205.657 348.786 205.657C349.538 205.657 350.205 205.784 350.786 206.039C351.366 206.295 351.819 206.681 352.145 207.197C352.476 207.708 352.642 208.349 352.642 209.121V213.945C352.642 214.289 352.671 214.656 352.729 215.045C352.792 215.434 352.885 215.769 353.006 216.05V216.203H351.14C351.051 215.999 350.98 215.728 350.929 215.39C350.878 215.045 350.853 214.726 350.853 214.433V209.102ZM351.159 211.169H349.398C348.39 211.169 347.612 211.329 347.063 211.648C346.514 211.967 346.24 212.445 346.24 213.083C346.24 213.581 346.406 214.002 346.737 214.346C347.076 214.691 347.567 214.863 348.211 214.863C348.754 214.863 349.232 214.748 349.647 214.519C350.062 214.289 350.39 214.005 350.633 213.667C350.875 213.329 351.006 213.003 351.025 212.691L351.791 213.543C351.746 213.811 351.625 214.107 351.427 214.433C351.229 214.758 350.964 215.071 350.633 215.371C350.307 215.664 349.918 215.91 349.465 216.107C349.018 216.299 348.514 216.395 347.953 216.395C347.251 216.395 346.635 216.261 346.106 215.993C345.583 215.718 345.174 215.348 344.881 214.882C344.594 214.417 344.45 213.9 344.45 213.332C344.45 212.215 344.871 211.37 345.713 210.796C346.556 210.215 347.688 209.925 349.111 209.925H351.159V211.169ZM361.246 205.848H363.074L359.361 216.203H358.155L358.432 214.614L361.246 205.848ZM358.987 214.662L359.198 216.203H358.002L354.25 205.848H356.078L358.987 214.662ZM369.094 216.395C368.13 216.395 367.291 216.181 366.577 215.753C365.869 215.319 365.317 214.726 364.921 213.973C364.532 213.22 364.337 212.359 364.337 211.389V210.978C364.337 209.855 364.551 208.898 364.979 208.107C365.412 207.309 365.974 206.703 366.663 206.288C367.358 205.867 368.092 205.657 368.864 205.657C369.859 205.657 370.67 205.88 371.295 206.327C371.927 206.767 372.389 207.37 372.683 208.135C372.982 208.895 373.132 209.756 373.132 210.719V211.514H365.4V210.078H371.343V209.944C371.317 209.485 371.225 209.038 371.065 208.604C370.906 208.164 370.651 207.804 370.3 207.523C369.949 207.236 369.47 207.092 368.864 207.092C368.328 207.092 367.853 207.245 367.438 207.552C367.03 207.851 366.708 208.292 366.471 208.872C366.242 209.446 366.127 210.148 366.127 210.978V211.389C366.127 212.046 366.248 212.646 366.491 213.188C366.733 213.724 367.084 214.155 367.543 214.48C368.003 214.799 368.551 214.959 369.189 214.959C369.815 214.959 370.344 214.831 370.778 214.576C371.212 214.321 371.592 213.98 371.917 213.552L372.998 214.394C372.667 214.905 372.188 215.367 371.563 215.782C370.944 216.19 370.121 216.395 369.094 216.395ZM386.167 209.102C386.167 208.483 385.982 207.992 385.612 207.628C385.248 207.258 384.709 207.073 383.995 207.073C383.554 207.073 383.165 207.15 382.827 207.303C382.495 207.456 382.237 207.657 382.052 207.906C381.867 208.154 381.774 208.426 381.774 208.719H379.985C379.985 208.221 380.154 207.74 380.492 207.274C380.83 206.802 381.305 206.416 381.918 206.116C382.537 205.81 383.264 205.657 384.1 205.657C384.853 205.657 385.52 205.784 386.1 206.039C386.681 206.295 387.134 206.681 387.459 207.197C387.791 207.708 387.957 208.349 387.957 209.121V213.945C387.957 214.289 387.986 214.656 388.043 215.045C388.107 215.434 388.199 215.769 388.321 216.05V216.203H386.454C386.365 215.999 386.295 215.728 386.244 215.39C386.193 215.045 386.167 214.726 386.167 214.433V209.102ZM386.473 211.169H384.712C383.704 211.169 382.926 211.329 382.377 211.648C381.829 211.967 381.554 212.445 381.554 213.083C381.554 213.581 381.72 214.002 382.052 214.346C382.39 214.691 382.881 214.863 383.526 214.863C384.068 214.863 384.547 214.748 384.961 214.519C385.376 214.289 385.705 214.005 385.947 213.667C386.19 213.329 386.32 213.003 386.339 212.691L387.105 213.543C387.06 213.811 386.939 214.107 386.741 214.433C386.544 214.758 386.279 215.071 385.947 215.371C385.622 215.664 385.232 215.91 384.779 216.107C384.333 216.299 383.829 216.395 383.267 216.395C382.566 216.395 381.95 216.261 381.42 215.993C380.897 215.718 380.489 215.348 380.195 214.882C379.908 214.417 379.765 213.9 379.765 213.332C379.765 212.215 380.186 211.37 381.028 210.796C381.87 210.215 383.003 209.925 384.425 209.925H386.473V211.169ZM272.587 240.395C271.923 240.395 271.339 240.286 270.835 240.069C270.331 239.852 269.904 239.54 269.553 239.131C269.202 238.717 268.921 238.222 268.711 237.648C268.507 237.067 268.366 236.413 268.29 235.686V234.576C268.392 233.561 268.612 232.687 268.95 231.954C269.295 231.22 269.763 230.655 270.357 230.26C270.957 229.858 271.69 229.657 272.558 229.657C273.426 229.657 274.159 229.877 274.759 230.317C275.359 230.757 275.815 231.376 276.128 232.174C276.44 232.965 276.597 233.887 276.597 234.939V235.14C276.597 236.149 276.44 237.048 276.128 237.839C275.815 238.63 275.359 239.256 274.759 239.715C274.166 240.168 273.442 240.395 272.587 240.395ZM267.84 244.184V229.848H269.467L269.629 231.839V244.184H267.84ZM272.041 238.959C272.679 238.959 273.202 238.784 273.611 238.433C274.019 238.082 274.319 237.619 274.51 237.045C274.708 236.464 274.807 235.829 274.807 235.14V234.939C274.807 234.25 274.708 233.619 274.51 233.045C274.319 232.464 274.016 232.001 273.601 231.657C273.193 231.312 272.666 231.14 272.022 231.14C271.582 231.14 271.199 231.217 270.874 231.37C270.548 231.523 270.271 231.73 270.041 231.992C269.811 232.247 269.623 232.54 269.476 232.872C269.336 233.198 269.231 233.536 269.161 233.887V236.385C269.288 236.831 269.464 237.252 269.687 237.648C269.917 238.037 270.22 238.353 270.596 238.595C270.979 238.838 271.461 238.959 272.041 238.959ZM285.181 229.848H286.971V240.203H285.267L285.181 237.811V229.848ZM286.263 235.609C286.263 236.528 286.132 237.348 285.87 238.069C285.609 238.79 285.181 239.358 284.588 239.772C283.995 240.187 283.2 240.395 282.205 240.395C281.19 240.395 280.371 240.095 279.745 239.495C279.12 238.895 278.807 237.906 278.807 236.528V229.848H280.597V236.547C280.597 237.173 280.686 237.657 280.865 238.002C281.05 238.34 281.286 238.576 281.573 238.71C281.867 238.838 282.173 238.902 282.492 238.902C283.245 238.902 283.841 238.758 284.282 238.471C284.722 238.177 285.038 237.782 285.229 237.284C285.421 236.787 285.516 236.235 285.516 235.629L286.263 235.609ZM291.45 240.203H289.66V229.848H291.354L291.45 232.059V240.203ZM290.282 234.595C290.295 233.651 290.477 232.808 290.828 232.068C291.179 231.322 291.667 230.735 292.292 230.307C292.924 229.874 293.657 229.657 294.493 229.657C295.176 229.657 295.763 229.784 296.254 230.039C296.752 230.288 297.135 230.687 297.403 231.236C297.677 231.784 297.814 232.512 297.814 233.418V240.203H296.024V233.399C296.024 232.856 295.945 232.419 295.785 232.087C295.632 231.756 295.402 231.516 295.096 231.37C294.79 231.217 294.413 231.14 293.967 231.14C293.527 231.14 293.128 231.233 292.771 231.418C292.413 231.603 292.104 231.858 291.842 232.183C291.581 232.509 291.38 232.882 291.239 233.303C291.099 233.718 291.029 234.158 291.029 234.624L290.282 234.595ZM304.647 240.395C303.607 240.395 302.746 240.158 302.063 239.686C301.381 239.208 300.87 238.576 300.532 237.791C300.2 237.007 300.034 236.152 300.034 235.227V234.825C300.034 233.893 300.203 233.038 300.542 232.26C300.88 231.475 301.39 230.847 302.073 230.374C302.756 229.896 303.614 229.657 304.647 229.657C305.458 229.657 306.166 229.823 306.772 230.154C307.384 230.48 307.863 230.926 308.207 231.494C308.558 232.056 308.75 232.694 308.782 233.408H307.088C307.056 232.981 306.935 232.592 306.724 232.241C306.52 231.89 306.239 231.612 305.882 231.408C305.531 231.197 305.119 231.092 304.647 231.092C303.926 231.092 303.358 231.277 302.944 231.647C302.535 232.017 302.245 232.489 302.073 233.064C301.907 233.632 301.824 234.218 301.824 234.825V235.227C301.824 235.833 301.907 236.423 302.073 236.997C302.239 237.571 302.526 238.043 302.934 238.413C303.349 238.777 303.92 238.959 304.647 238.959C305.068 238.959 305.458 238.873 305.815 238.701C306.172 238.522 306.466 238.279 306.695 237.973C306.925 237.667 307.056 237.319 307.088 236.93H308.782C308.75 237.543 308.542 238.114 308.16 238.643C307.777 239.166 307.279 239.591 306.667 239.916C306.054 240.235 305.381 240.395 304.647 240.395ZM315.127 231.197H309.519V229.848H315.127V231.197ZM313.194 227.331V237.638C313.194 237.996 313.248 238.264 313.356 238.442C313.465 238.621 313.605 238.739 313.777 238.796C313.95 238.854 314.135 238.882 314.332 238.882C314.479 238.882 314.632 238.87 314.792 238.844C314.958 238.819 315.079 238.796 315.155 238.777V240.203C315.015 240.248 314.833 240.289 314.61 240.328C314.387 240.372 314.115 240.395 313.796 240.395C313.363 240.395 312.964 240.308 312.6 240.136C312.237 239.964 311.946 239.677 311.729 239.275C311.512 238.866 311.404 238.318 311.404 237.629V227.331H313.194ZM323.52 229.848H325.31V240.203H323.606L323.52 237.811V229.848ZM324.601 235.609C324.601 236.528 324.471 237.348 324.209 238.069C323.947 238.79 323.52 239.358 322.927 239.772C322.333 240.187 321.539 240.395 320.544 240.395C319.529 240.395 318.709 240.095 318.084 239.495C317.459 238.895 317.146 237.906 317.146 236.528V229.848H318.936V236.547C318.936 237.173 319.025 237.657 319.204 238.002C319.389 238.34 319.625 238.576 319.912 238.71C320.205 238.838 320.512 238.902 320.831 238.902C321.584 238.902 322.18 238.758 322.62 238.471C323.061 238.177 323.376 237.782 323.568 237.284C323.759 236.787 323.855 236.235 323.855 235.629L324.601 235.609ZM329.788 240.203H327.999V229.848H329.741L329.788 231.475V240.203ZM333.014 231.427C332.861 231.395 332.717 231.376 332.583 231.37C332.455 231.357 332.309 231.351 332.143 231.351C331.6 231.351 331.141 231.462 330.765 231.686C330.395 231.909 330.107 232.218 329.903 232.614C329.699 233.003 329.572 233.45 329.521 233.954L329.013 234.241C329.013 233.405 329.125 232.643 329.348 231.954C329.572 231.258 329.919 230.703 330.391 230.288C330.87 229.867 331.482 229.657 332.229 229.657C332.35 229.657 332.494 229.673 332.66 229.704C332.832 229.73 332.95 229.759 333.014 229.791V231.427ZM338.947 240.395C337.984 240.395 337.145 240.181 336.43 239.753C335.722 239.319 335.17 238.726 334.775 237.973C334.385 237.22 334.191 236.359 334.191 235.389V234.978C334.191 233.855 334.405 232.898 334.832 232.107C335.266 231.309 335.827 230.703 336.516 230.288C337.212 229.867 337.946 229.657 338.718 229.657C339.713 229.657 340.523 229.88 341.148 230.327C341.78 230.767 342.243 231.37 342.536 232.135C342.836 232.895 342.986 233.756 342.986 234.719V235.514H335.253V234.078H341.196V233.944C341.171 233.485 341.078 233.038 340.919 232.604C340.759 232.164 340.504 231.804 340.153 231.523C339.802 231.236 339.324 231.092 338.718 231.092C338.182 231.092 337.706 231.245 337.292 231.552C336.883 231.851 336.561 232.292 336.325 232.872C336.095 233.446 335.98 234.148 335.98 234.978V235.389C335.98 236.046 336.102 236.646 336.344 237.188C336.587 237.724 336.938 238.155 337.397 238.48C337.856 238.799 338.405 238.959 339.043 238.959C339.668 238.959 340.198 238.831 340.632 238.576C341.065 238.321 341.445 237.98 341.771 237.552L342.852 238.394C342.52 238.905 342.042 239.367 341.416 239.782C340.798 240.19 339.974 240.395 338.947 240.395ZM346.192 240.308C345.835 240.308 345.56 240.21 345.369 240.012C345.184 239.814 345.091 239.568 345.091 239.275C345.091 238.975 345.184 238.723 345.369 238.519C345.56 238.308 345.835 238.203 346.192 238.203C346.556 238.203 346.83 238.308 347.015 238.519C347.206 238.723 347.302 238.975 347.302 239.275C347.302 239.568 347.206 239.814 347.015 240.012C346.83 240.21 346.556 240.308 346.192 240.308Z" fill="black"/>
<path d="M442.773 182.132L444.353 181.838C444.489 182.599 444.913 182.979 445.624 182.979C446.002 182.979 446.285 182.907 446.472 182.761C446.659 182.615 446.752 182.426 446.752 182.193C446.752 182.034 446.711 181.909 446.629 181.817C446.542 181.726 446.371 181.646 446.116 181.578C444.822 181.236 443.999 180.91 443.648 180.601C443.211 180.213 442.992 179.682 442.992 179.008C442.992 178.333 443.206 177.793 443.635 177.388C444.063 176.982 444.685 176.779 445.501 176.779C446.28 176.779 446.873 176.932 447.278 177.237C447.684 177.538 447.969 178.026 448.133 178.7L446.649 179.035C446.517 178.452 446.144 178.16 445.528 178.16C445.141 178.16 444.865 178.217 444.701 178.331C444.537 178.44 444.455 178.584 444.455 178.762C444.455 178.921 444.53 179.053 444.681 179.158C444.831 179.268 445.298 179.432 446.082 179.65C446.962 179.896 447.559 180.195 447.873 180.546C448.183 180.897 448.338 181.364 448.338 181.947C448.338 182.649 448.096 183.228 447.613 183.684C447.135 184.139 446.472 184.367 445.624 184.367C444.854 184.367 444.225 184.178 443.737 183.8C443.25 183.417 442.928 182.861 442.773 182.132ZM453.622 184.203V183.116C453.403 183.508 453.116 183.816 452.761 184.039C452.405 184.258 452.034 184.367 451.646 184.367C451.255 184.367 450.904 184.265 450.594 184.06C450.284 183.854 450.051 183.563 449.896 183.185C449.746 182.806 449.671 182.257 449.671 181.537V176.943H451.25V180.279C451.25 181.232 451.273 181.838 451.318 182.098C451.368 182.353 451.476 182.551 451.64 182.692C451.804 182.834 452.002 182.904 452.234 182.904C452.499 182.904 452.743 182.813 452.966 182.631C453.189 182.444 453.335 182.207 453.403 181.92C453.476 181.628 453.513 180.99 453.513 180.006V176.943H455.085V184.203H453.622ZM456.678 176.943H458.147V178.01C458.348 177.627 458.612 177.326 458.94 177.107C459.269 176.889 459.622 176.779 460 176.779C460.679 176.779 461.262 177.103 461.75 177.75C462.242 178.397 462.488 179.315 462.488 180.505C462.488 181.754 462.242 182.711 461.75 183.376C461.258 184.037 460.672 184.367 459.993 184.367C459.679 184.367 459.385 184.292 459.111 184.142C458.842 183.987 458.558 183.709 458.257 183.308V186.965H456.678V176.943ZM458.236 180.45C458.236 181.271 458.368 181.874 458.633 182.262C458.902 182.649 459.225 182.843 459.604 182.843C459.964 182.843 460.267 182.665 460.513 182.31C460.759 181.95 460.882 181.364 460.882 180.553C460.882 179.783 460.754 179.215 460.499 178.851C460.248 178.481 459.941 178.297 459.576 178.297C459.193 178.297 458.874 178.477 458.619 178.837C458.364 179.192 458.236 179.73 458.236 180.45ZM463.691 176.943H465.161V178.01C465.362 177.627 465.626 177.326 465.954 177.107C466.282 176.889 466.635 176.779 467.014 176.779C467.693 176.779 468.276 177.103 468.764 177.75C469.256 178.397 469.502 179.315 469.502 180.505C469.502 181.754 469.256 182.711 468.764 183.376C468.271 184.037 467.686 184.367 467.007 184.367C466.692 184.367 466.398 184.292 466.125 184.142C465.856 183.987 465.571 183.709 465.271 183.308V186.965H463.691V176.943ZM465.25 180.45C465.25 181.271 465.382 181.874 465.646 182.262C465.915 182.649 466.239 182.843 466.617 182.843C466.977 182.843 467.28 182.665 467.526 182.31C467.772 181.95 467.896 181.364 467.896 180.553C467.896 179.783 467.768 179.215 467.513 178.851C467.262 178.481 466.954 178.297 466.59 178.297C466.207 178.297 465.888 178.477 465.633 178.837C465.378 179.192 465.25 179.73 465.25 180.45ZM470.384 180.471C470.384 179.76 470.525 179.113 470.808 178.529C471.09 177.946 471.459 177.508 471.915 177.217C472.371 176.925 472.883 176.779 473.453 176.779C474.41 176.779 475.162 177.155 475.709 177.907C476.256 178.655 476.529 179.53 476.529 180.532C476.529 181.28 476.386 181.954 476.099 182.556C475.816 183.157 475.442 183.611 474.978 183.916C474.517 184.217 474.011 184.367 473.46 184.367C472.576 184.367 471.842 184.03 471.259 183.355C470.675 182.681 470.384 181.719 470.384 180.471ZM471.997 180.573C471.997 181.307 472.141 181.863 472.428 182.241C472.715 182.615 473.061 182.802 473.467 182.802C473.863 182.802 474.203 182.613 474.485 182.234C474.768 181.856 474.909 181.298 474.909 180.56C474.909 179.84 474.766 179.29 474.479 178.912C474.191 178.534 473.847 178.345 473.446 178.345C473.05 178.345 472.708 178.534 472.421 178.912C472.138 179.29 471.997 179.844 471.997 180.573ZM479.277 184.203H477.698V176.943H479.161V177.976C479.412 177.493 479.635 177.174 479.831 177.019C480.032 176.859 480.262 176.779 480.521 176.779C480.882 176.779 481.226 176.9 481.554 177.142L481.062 178.816C480.802 178.607 480.556 178.502 480.323 178.502C480.104 178.502 479.911 178.584 479.742 178.748C479.578 178.908 479.46 179.199 479.387 179.623C479.314 180.047 479.277 180.826 479.277 181.961V184.203ZM484.958 176.943V178.475H483.885V181.4C483.885 182.034 483.901 182.401 483.933 182.501C483.996 182.683 484.126 182.774 484.322 182.774C484.468 182.774 484.678 182.713 484.951 182.59L485.088 184.08C484.723 184.271 484.311 184.367 483.851 184.367C483.45 184.367 483.128 184.271 482.887 184.08C482.645 183.889 482.483 183.613 482.401 183.253C482.338 182.989 482.306 182.451 482.306 181.64V178.475H481.581V176.943H482.306V175.501L483.885 174.38V176.943H484.958ZM485.512 182.132L487.091 181.838C487.228 182.599 487.651 182.979 488.362 182.979C488.741 182.979 489.023 182.907 489.21 182.761C489.397 182.615 489.49 182.426 489.49 182.193C489.49 182.034 489.449 181.909 489.367 181.817C489.281 181.726 489.11 181.646 488.854 181.578C487.56 181.236 486.738 180.91 486.387 180.601C485.949 180.213 485.73 179.682 485.73 179.008C485.73 178.333 485.945 177.793 486.373 177.388C486.801 176.982 487.424 176.779 488.239 176.779C489.019 176.779 489.611 176.932 490.017 177.237C490.422 177.538 490.707 178.026 490.871 178.7L489.388 179.035C489.256 178.452 488.882 178.16 488.267 178.16C487.879 178.16 487.604 178.217 487.439 178.331C487.275 178.44 487.193 178.584 487.193 178.762C487.193 178.921 487.269 179.053 487.419 179.158C487.569 179.268 488.036 179.432 488.82 179.65C489.7 179.896 490.297 180.195 490.611 180.546C490.921 180.897 491.076 181.364 491.076 181.947C491.076 182.649 490.835 183.228 490.352 183.684C489.873 184.139 489.21 184.367 488.362 184.367C487.592 184.367 486.963 184.178 486.476 183.8C485.988 183.417 485.667 182.861 485.512 182.132Z" fill="black"/>
<defs>
<linearGradient id="paint0_linear_2319_88" x1="282.5" y1="155.203" x2="282.5" y2="265.203" gradientUnits="userSpaceOnUse">
<stop stop-color="#55D555"/>
<stop offset="1" stop-color="#55D555" stop-opacity="0"/>
</linearGradient>
<linearGradient id="paint1_linear_2319_88" x1="282.5" y1="155.203" x2="282.5" y2="265.203" gradientUnits="userSpaceOnUse">
<stop offset="0.505" stop-color="#55D555"/>
<stop offset="1" stop-color="#55D555" stop-opacity="0"/>
</linearGradient>
</defs>
</svg>
