<svg width="565" height="256" viewBox="0 0 565 256" fill="none" xmlns="http://www.w3.org/2000/svg">
<rect width="565" height="255.2" fill="white"/>
<rect width="477" height="245.2" transform="translate(44 5)" fill="white"/>
<path d="M285 83C285 83 285 100 285.5 111.424C286.275 129.141 289.5 154.996 300.5 154.996C300.5 154.996 298.695 161.328 298.695 163.995H267.289L265.5 154.996C276.5 154.996 279.725 129.141 280.5 111.424C281 100 281 83 281 83H285Z" fill="#53D453"/>
<path d="M293.5 79.5H272.5V81H293.5V79.5Z" fill="#53D453"/>
<rect x="208.629" y="14.1286" width="147.743" height="61.7428" rx="10.8414" fill="white"/>
<rect x="208.629" y="14.1286" width="147.743" height="61.7428" rx="10.8414" stroke="black" stroke-width="1.74275"/>
<path d="M255.788 41.468L257.884 37.0656H261.98L258.161 43.985L262.075 51H257.941L255.788 46.5211L253.634 51H249.5L253.414 43.985L249.596 37.0656H253.692L255.788 41.468Z" fill="#F86700"/>
<path d="M269.378 36.8838C269.722 36.8838 269.984 36.9827 270.162 37.1805C270.347 37.3783 270.44 37.6175 270.44 37.8982C270.44 38.1726 270.347 38.4087 270.162 38.6064C269.984 38.7979 269.722 38.8936 269.378 38.8936C269.033 38.8936 268.771 38.7979 268.593 38.6064C268.421 38.4087 268.334 38.1726 268.334 37.8982C268.334 37.6175 268.421 37.3783 268.593 37.1805C268.771 36.9827 269.033 36.8838 269.378 36.8838ZM270.277 51H268.497V40.6449H270.277V51ZM276.986 51.1914C276.074 51.1914 275.302 51.0287 274.67 50.7033C274.038 50.3779 273.56 49.96 273.234 49.4496C272.909 48.9328 272.746 48.3873 272.746 47.8131H274.536C274.568 48.298 274.708 48.684 274.957 48.9711C275.212 49.2518 275.522 49.4528 275.885 49.574C276.255 49.6952 276.622 49.7559 276.986 49.7559C277.471 49.7559 277.876 49.6921 278.201 49.5645C278.533 49.4305 278.782 49.2518 278.948 49.0285C279.12 48.7988 279.206 48.5404 279.206 48.2533C279.206 47.9981 279.149 47.762 279.034 47.5451C278.926 47.3218 278.702 47.1208 278.364 46.9422C278.026 46.7572 277.515 46.5945 276.833 46.4541C276.067 46.2946 275.404 46.0936 274.842 45.8512C274.287 45.6023 273.856 45.2865 273.55 44.9037C273.25 44.5209 273.1 44.0456 273.1 43.4777C273.1 42.929 273.257 42.4282 273.569 41.9752C273.888 41.5158 274.335 41.149 274.909 40.8746C275.49 40.5939 276.166 40.4535 276.938 40.4535C277.768 40.4535 278.476 40.6003 279.063 40.8937C279.656 41.1809 280.109 41.5701 280.422 42.0613C280.734 42.5462 280.891 43.0854 280.891 43.6787H279.101C279.101 43.2512 278.913 42.8461 278.536 42.4633C278.166 42.0805 277.634 41.8891 276.938 41.8891C276.453 41.8891 276.058 41.9656 275.751 42.1187C275.451 42.2655 275.231 42.4569 275.091 42.693C274.957 42.9227 274.89 43.1651 274.89 43.4203C274.89 43.6755 274.954 43.8988 275.081 44.0902C275.209 44.2753 275.442 44.4411 275.78 44.5879C276.125 44.7346 276.622 44.8814 277.273 45.0281C278.122 45.2195 278.82 45.4492 279.369 45.7172C279.918 45.9852 280.326 46.3137 280.594 46.7029C280.862 47.0921 280.996 47.5674 280.996 48.1289C280.996 48.7286 280.83 49.2614 280.498 49.7271C280.166 50.1865 279.701 50.547 279.101 50.8086C278.501 51.0638 277.796 51.1914 276.986 51.1914ZM294.27 43.8988C294.27 43.2799 294.085 42.7887 293.715 42.425C293.351 42.0549 292.812 41.8699 292.097 41.8699C291.657 41.8699 291.268 41.9465 290.93 42.0996C290.598 42.2527 290.34 42.4537 290.155 42.7025C289.97 42.9514 289.877 43.2225 289.877 43.516H288.088C288.088 43.0184 288.257 42.5367 288.595 42.0709C288.933 41.5988 289.408 41.2128 290.021 40.9129C290.64 40.6066 291.367 40.4535 292.203 40.4535C292.956 40.4535 293.622 40.5811 294.203 40.8363C294.784 41.0915 295.237 41.4775 295.562 41.9943C295.894 42.5048 296.06 43.146 296.06 43.918V48.7414C296.06 49.0859 296.088 49.4528 296.146 49.842C296.21 50.2312 296.302 50.5661 296.423 50.8469V51H294.557C294.468 50.7958 294.398 50.5247 294.346 50.1865C294.295 49.842 294.27 49.523 294.27 49.2295V43.8988ZM294.576 45.966H292.815C291.807 45.966 291.029 46.1255 290.48 46.4445C289.931 46.7635 289.657 47.2421 289.657 47.8801C289.657 48.3777 289.823 48.7988 290.155 49.1434C290.493 49.4879 290.984 49.6602 291.629 49.6602C292.171 49.6602 292.649 49.5453 293.064 49.3156C293.479 49.0859 293.807 48.802 294.05 48.4639C294.292 48.1257 294.423 47.8003 294.442 47.4877L295.208 48.3395C295.163 48.6074 295.042 48.9041 294.844 49.2295C294.646 49.5549 294.382 49.8675 294.05 50.1674C293.724 50.4609 293.335 50.7065 292.882 50.9043C292.436 51.0957 291.932 51.1914 291.37 51.1914C290.668 51.1914 290.053 51.0574 289.523 50.7895C289 50.5151 288.592 50.1451 288.298 49.6793C288.011 49.2135 287.867 48.6967 287.867 48.1289C287.867 47.0124 288.288 46.167 289.131 45.5928C289.973 45.0122 291.105 44.7219 292.528 44.7219H294.576V45.966Z" fill="black"/>
<path d="M305.592 45.2291V42.8078H308.434C309.18 42.8078 309.704 42.6962 310.004 42.4729C310.303 42.2432 310.453 41.9018 310.453 41.4488C310.453 40.9129 310.297 40.5333 309.984 40.31C309.672 40.0803 309.165 39.9654 308.463 39.9654H306.951V51H303.352V37.0656H308.463C310.211 37.0656 311.576 37.3878 312.559 38.0322C313.548 38.6702 314.042 39.6432 314.042 40.9512C314.042 41.519 313.921 42.0581 313.679 42.5686C313.436 43.0726 313.025 43.4809 312.444 43.7936C311.87 44.1062 311.079 44.2593 310.071 44.2529L309.133 45.2291H305.592ZM304.721 51L305.946 48.1098H308.999C309.643 48.1098 310.093 47.9758 310.348 47.7078C310.603 47.4398 310.731 47.1304 310.731 46.7795C310.731 46.4541 310.677 46.1766 310.568 45.9469C310.466 45.7172 310.297 45.5417 310.061 45.4205C309.831 45.2929 309.522 45.2291 309.133 45.2291H306.262V42.8078H309.669L310.511 43.7936C311.474 43.7298 312.23 43.8478 312.779 44.1477C313.334 44.4411 313.726 44.8335 313.956 45.3248C314.192 45.8097 314.31 46.3137 314.31 46.8369C314.31 48.2214 313.864 49.2614 312.97 49.9568C312.077 50.6523 310.753 51 308.999 51H304.721Z" fill="#9900F8"/>
<path d="M69 155.703H496C504.008 155.703 510.5 162.195 510.5 170.203V244.703H54.5V170.203C54.5 162.195 60.9919 155.703 69 155.703Z" fill="white"/>
<path d="M69 155.703H496C504.008 155.703 510.5 162.195 510.5 170.203V244.703H54.5V170.203C54.5 162.195 60.9919 155.703 69 155.703Z" fill="url(#paint0_linear_2326_39)"/>
<path d="M69 155.703H496C504.008 155.703 510.5 162.195 510.5 170.203V244.703H54.5V170.203C54.5 162.195 60.9919 155.703 69 155.703Z" stroke="url(#paint1_linear_2326_39)"/>
<rect x="66.1286" y="167.332" width="200.743" height="65.7428" rx="10.8414" fill="white"/>
<rect x="66.1286" y="167.332" width="200.743" height="65.7428" rx="10.8414" stroke="black" stroke-width="1.74275"/>
<path d="M117.47 206.203H110.11V204.71H117.47V206.203ZM110.474 206.203H108.617V192.269H110.474V206.203ZM116.494 199.753H110.11V198.26H116.494V199.753ZM117.374 193.771H110.11V192.269H117.374V193.771ZM125.203 195.848H127.031L123.317 206.203H122.112L122.389 204.614L125.203 195.848ZM122.944 204.662L123.155 206.203H121.958L118.207 195.848H120.035L122.944 204.662ZM133.05 206.395C132.087 206.395 131.248 206.181 130.533 205.753C129.825 205.319 129.273 204.726 128.878 203.973C128.489 203.22 128.294 202.359 128.294 201.389V200.978C128.294 199.855 128.508 198.898 128.935 198.107C129.369 197.309 129.93 196.703 130.62 196.288C131.315 195.867 132.049 195.657 132.821 195.657C133.816 195.657 134.626 195.88 135.252 196.327C135.883 196.767 136.346 197.37 136.639 198.135C136.939 198.895 137.089 199.756 137.089 200.719V201.514H129.356V200.078H135.299V199.944C135.274 199.485 135.181 199.038 135.022 198.604C134.862 198.164 134.607 197.804 134.256 197.523C133.905 197.236 133.427 197.092 132.821 197.092C132.285 197.092 131.809 197.245 131.395 197.552C130.986 197.851 130.664 198.292 130.428 198.872C130.198 199.446 130.084 200.148 130.084 200.978V201.389C130.084 202.046 130.205 202.646 130.447 203.188C130.69 203.724 131.041 204.155 131.5 204.48C131.959 204.799 132.508 204.959 133.146 204.959C133.771 204.959 134.301 204.831 134.735 204.576C135.169 204.321 135.548 203.98 135.874 203.552L136.955 204.394C136.623 204.905 136.145 205.367 135.52 205.782C134.901 206.19 134.078 206.395 133.05 206.395ZM140.946 206.203H139.156V195.848H140.898L140.946 197.475V206.203ZM144.171 197.427C144.018 197.395 143.874 197.376 143.74 197.37C143.613 197.357 143.466 197.351 143.3 197.351C142.758 197.351 142.299 197.462 141.922 197.686C141.552 197.909 141.265 198.218 141.061 198.614C140.857 199.003 140.729 199.45 140.678 199.954L140.171 200.241C140.171 199.405 140.282 198.643 140.506 197.954C140.729 197.258 141.077 196.703 141.549 196.288C142.027 195.867 142.64 195.657 143.386 195.657C143.508 195.657 143.651 195.673 143.817 195.704C143.989 195.73 144.107 195.759 144.171 195.791V197.427ZM151.588 195.848H153.493L149.339 207.801C149.243 208.057 149.116 208.331 148.956 208.624C148.803 208.924 148.605 209.208 148.363 209.476C148.127 209.744 147.837 209.961 147.492 210.127C147.147 210.299 146.739 210.385 146.267 210.385C146.171 210.385 146.056 210.376 145.922 210.357C145.788 210.338 145.661 210.315 145.54 210.29C145.418 210.271 145.326 210.251 145.262 210.232V208.806C145.313 208.813 145.393 208.822 145.501 208.835C145.616 208.848 145.696 208.854 145.741 208.854C146.34 208.854 146.809 208.73 147.147 208.481C147.486 208.232 147.76 207.789 147.971 207.151L148.707 205.131L151.588 195.848ZM149.291 203.897L149.751 205.763L148.468 206.404L144.669 195.848H146.621L149.291 203.897ZM179.399 192.087C179.744 192.087 180.006 192.186 180.184 192.384C180.369 192.581 180.462 192.821 180.462 193.101C180.462 193.376 180.369 193.612 180.184 193.81C180.006 194.001 179.744 194.097 179.399 194.097C179.055 194.097 178.793 194.001 178.615 193.81C178.442 193.612 178.356 193.376 178.356 193.101C178.356 192.821 178.442 192.581 178.615 192.384C178.793 192.186 179.055 192.087 179.399 192.087ZM180.299 206.203H178.519V195.848H180.299V206.203ZM187.008 206.395C186.095 206.395 185.323 206.232 184.692 205.906C184.06 205.581 183.582 205.163 183.256 204.653C182.931 204.136 182.768 203.59 182.768 203.016H184.558C184.59 203.501 184.73 203.887 184.979 204.174C185.234 204.455 185.544 204.656 185.907 204.777C186.277 204.898 186.644 204.959 187.008 204.959C187.493 204.959 187.898 204.895 188.223 204.768C188.555 204.634 188.804 204.455 188.97 204.232C189.142 204.002 189.228 203.744 189.228 203.456C189.228 203.201 189.171 202.965 189.056 202.748C188.947 202.525 188.724 202.324 188.386 202.145C188.048 201.96 187.537 201.798 186.855 201.657C186.089 201.498 185.426 201.297 184.864 201.054C184.309 200.805 183.878 200.49 183.572 200.107C183.272 199.724 183.122 199.249 183.122 198.681C183.122 198.132 183.279 197.631 183.591 197.178C183.91 196.719 184.357 196.352 184.931 196.078C185.512 195.797 186.188 195.657 186.96 195.657C187.789 195.657 188.498 195.803 189.085 196.097C189.678 196.384 190.131 196.773 190.444 197.264C190.756 197.749 190.913 198.288 190.913 198.882H189.123C189.123 198.454 188.935 198.049 188.558 197.666C188.188 197.284 187.655 197.092 186.96 197.092C186.475 197.092 186.079 197.169 185.773 197.322C185.473 197.469 185.253 197.66 185.113 197.896C184.979 198.126 184.912 198.368 184.912 198.623C184.912 198.879 184.976 199.102 185.103 199.293C185.231 199.478 185.464 199.644 185.802 199.791C186.146 199.938 186.644 200.085 187.295 200.231C188.143 200.423 188.842 200.652 189.391 200.92C189.94 201.188 190.348 201.517 190.616 201.906C190.884 202.295 191.018 202.771 191.018 203.332C191.018 203.932 190.852 204.465 190.52 204.93C190.188 205.39 189.723 205.75 189.123 206.012C188.523 206.267 187.818 206.395 187.008 206.395ZM204.292 199.102C204.292 198.483 204.107 197.992 203.737 197.628C203.373 197.258 202.834 197.073 202.119 197.073C201.679 197.073 201.29 197.15 200.952 197.303C200.62 197.456 200.362 197.657 200.177 197.906C199.992 198.154 199.899 198.426 199.899 198.719H198.109C198.109 198.221 198.278 197.74 198.617 197.274C198.955 196.802 199.43 196.416 200.043 196.116C200.661 195.81 201.389 195.657 202.225 195.657C202.977 195.657 203.644 195.784 204.225 196.039C204.805 196.295 205.258 196.681 205.584 197.197C205.916 197.708 206.081 198.349 206.081 199.121V203.945C206.081 204.289 206.11 204.656 206.168 205.045C206.231 205.434 206.324 205.769 206.445 206.05V206.203H204.579C204.49 205.999 204.419 205.728 204.368 205.39C204.317 205.045 204.292 204.726 204.292 204.433V199.102ZM204.598 201.169H202.837C201.829 201.169 201.051 201.329 200.502 201.648C199.953 201.967 199.679 202.445 199.679 203.083C199.679 203.581 199.845 204.002 200.177 204.346C200.515 204.691 201.006 204.863 201.65 204.863C202.193 204.863 202.671 204.748 203.086 204.519C203.501 204.289 203.829 204.005 204.072 203.667C204.314 203.329 204.445 203.003 204.464 202.691L205.23 203.543C205.185 203.811 205.064 204.107 204.866 204.433C204.668 204.758 204.403 205.071 204.072 205.371C203.746 205.664 203.357 205.91 202.904 206.107C202.457 206.299 201.953 206.395 201.392 206.395C200.69 206.395 200.074 206.261 199.545 205.993C199.022 205.718 198.613 205.348 198.32 204.882C198.033 204.417 197.889 203.9 197.889 203.332C197.889 202.215 198.31 201.37 199.153 200.796C199.995 200.215 201.127 199.925 202.55 199.925H204.598V201.169Z" fill="black"/>
<path d="M162.393 206.203H158.536L163.647 192.269H166.078L165.656 195.628L162.393 206.203ZM165.025 195.628L164.556 192.269H167.015L172.155 206.203H168.298L165.025 195.628ZM168.26 203.868H161.111V200.968H168.26V203.868Z" fill="#1567FF"/>
<path d="M215.613 200.432V198.011H218.456C219.202 198.011 219.726 197.899 220.025 197.676C220.325 197.446 220.475 197.105 220.475 196.652C220.475 196.116 220.319 195.736 220.006 195.513C219.694 195.283 219.186 195.169 218.485 195.169H216.972V206.203H213.374V192.269H218.485C220.233 192.269 221.598 192.591 222.581 193.235C223.57 193.873 224.064 194.846 224.064 196.154C224.064 196.722 223.943 197.261 223.7 197.772C223.458 198.276 223.046 198.684 222.466 198.997C221.892 199.309 221.1 199.462 220.092 199.456L219.154 200.432H215.613ZM214.743 206.203L215.968 203.313H219.021C219.665 203.313 220.115 203.179 220.37 202.911C220.625 202.643 220.753 202.334 220.753 201.983C220.753 201.657 220.699 201.38 220.59 201.15C220.488 200.92 220.319 200.745 220.083 200.624C219.853 200.496 219.544 200.432 219.154 200.432H216.283V198.011H219.69L220.533 198.997C221.496 198.933 222.252 199.051 222.801 199.351C223.356 199.644 223.748 200.037 223.978 200.528C224.214 201.013 224.332 201.517 224.332 202.04C224.332 203.425 223.885 204.465 222.992 205.16C222.099 205.855 220.775 206.203 219.021 206.203H214.743Z" fill="#9900F8"/>
<rect x="277.129" y="167.332" width="159.743" height="65.7428" rx="10.8414" fill="white"/>
<rect x="277.129" y="167.332" width="159.743" height="65.7428" rx="10.8414" stroke="black" stroke-width="1.74275"/>
<path d="M324.288 196.671L326.384 192.269H330.48L326.661 199.188L330.575 206.203H326.441L324.288 201.724L322.134 206.203H318L321.914 199.188L318.096 192.269H322.192L324.288 196.671Z" fill="#F86700"/>
<path d="M337.878 192.087C338.222 192.087 338.484 192.186 338.662 192.384C338.847 192.581 338.94 192.821 338.94 193.101C338.94 193.376 338.847 193.612 338.662 193.81C338.484 194.001 338.222 194.097 337.878 194.097C337.533 194.097 337.271 194.001 337.093 193.81C336.921 193.612 336.834 193.376 336.834 193.101C336.834 192.821 336.921 192.581 337.093 192.384C337.271 192.186 337.533 192.087 337.878 192.087ZM338.777 206.203H336.997V195.848H338.777V206.203ZM345.486 206.395C344.574 206.395 343.802 206.232 343.17 205.906C342.538 205.581 342.06 205.163 341.734 204.653C341.409 204.136 341.246 203.59 341.246 203.016H343.036C343.068 203.501 343.208 203.887 343.457 204.174C343.712 204.455 344.022 204.656 344.385 204.777C344.755 204.898 345.122 204.959 345.486 204.959C345.971 204.959 346.376 204.895 346.701 204.768C347.033 204.634 347.282 204.455 347.448 204.232C347.62 204.002 347.706 203.744 347.706 203.456C347.706 203.201 347.649 202.965 347.534 202.748C347.426 202.525 347.202 202.324 346.864 202.145C346.526 201.96 346.015 201.798 345.333 201.657C344.567 201.498 343.904 201.297 343.342 201.054C342.787 200.805 342.356 200.49 342.05 200.107C341.75 199.724 341.6 199.249 341.6 198.681C341.6 198.132 341.757 197.631 342.069 197.178C342.388 196.719 342.835 196.352 343.409 196.078C343.99 195.797 344.666 195.657 345.438 195.657C346.268 195.657 346.976 195.803 347.563 196.097C348.156 196.384 348.609 196.773 348.922 197.264C349.234 197.749 349.391 198.288 349.391 198.882H347.601C347.601 198.454 347.413 198.049 347.036 197.666C346.666 197.284 346.134 197.092 345.438 197.092C344.953 197.092 344.558 197.169 344.251 197.322C343.951 197.469 343.731 197.66 343.591 197.896C343.457 198.126 343.39 198.368 343.39 198.623C343.39 198.879 343.454 199.102 343.581 199.293C343.709 199.478 343.942 199.644 344.28 199.791C344.625 199.938 345.122 200.085 345.773 200.231C346.622 200.423 347.32 200.652 347.869 200.92C348.418 201.188 348.826 201.517 349.094 201.906C349.362 202.295 349.496 202.771 349.496 203.332C349.496 203.932 349.33 204.465 348.998 204.93C348.666 205.39 348.201 205.75 347.601 206.012C347.001 206.267 346.296 206.395 345.486 206.395ZM362.77 199.102C362.77 198.483 362.585 197.992 362.215 197.628C361.851 197.258 361.312 197.073 360.597 197.073C360.157 197.073 359.768 197.15 359.43 197.303C359.098 197.456 358.84 197.657 358.655 197.906C358.47 198.154 358.377 198.426 358.377 198.719H356.588C356.588 198.221 356.757 197.74 357.095 197.274C357.433 196.802 357.908 196.416 358.521 196.116C359.14 195.81 359.867 195.657 360.703 195.657C361.456 195.657 362.122 195.784 362.703 196.039C363.284 196.295 363.737 196.681 364.062 197.197C364.394 197.708 364.56 198.349 364.56 199.121V203.945C364.56 204.289 364.588 204.656 364.646 205.045C364.71 205.434 364.802 205.769 364.923 206.05V206.203H363.057C362.968 205.999 362.898 205.728 362.846 205.39C362.795 205.045 362.77 204.726 362.77 204.433V199.102ZM363.076 201.169H361.315C360.307 201.169 359.529 201.329 358.98 201.648C358.431 201.967 358.157 202.445 358.157 203.083C358.157 203.581 358.323 204.002 358.655 204.346C358.993 204.691 359.484 204.863 360.129 204.863C360.671 204.863 361.149 204.748 361.564 204.519C361.979 204.289 362.307 204.005 362.55 203.667C362.792 203.329 362.923 203.003 362.942 202.691L363.708 203.543C363.663 203.811 363.542 204.107 363.344 204.433C363.146 204.758 362.882 205.071 362.55 205.371C362.224 205.664 361.835 205.91 361.382 206.107C360.936 206.299 360.432 206.395 359.87 206.395C359.168 206.395 358.553 206.261 358.023 205.993C357.5 205.718 357.092 205.348 356.798 204.882C356.511 204.417 356.367 203.9 356.367 203.332C356.367 202.215 356.788 201.37 357.631 200.796C358.473 200.215 359.605 199.925 361.028 199.925H363.076V201.169ZM369.134 206.203H367.345V195.848H369.038L369.134 198.059V206.203ZM367.967 200.595C367.979 199.651 368.161 198.808 368.512 198.068C368.863 197.322 369.351 196.735 369.976 196.307C370.608 195.874 371.342 195.657 372.178 195.657C372.86 195.657 373.447 195.784 373.938 196.039C374.436 196.288 374.819 196.687 375.087 197.236C375.361 197.784 375.498 198.512 375.498 199.418V206.203H373.709V199.399C373.709 198.856 373.629 198.419 373.47 198.087C373.316 197.756 373.087 197.516 372.78 197.37C372.474 197.217 372.098 197.14 371.651 197.14C371.211 197.14 370.812 197.233 370.455 197.418C370.098 197.603 369.788 197.858 369.527 198.183C369.265 198.509 369.064 198.882 368.924 199.303C368.783 199.718 368.713 200.158 368.713 200.624L367.967 200.595Z" fill="black"/>
<path d="M385.49 206.203H381.633L386.744 192.269H389.174L388.753 195.628L385.49 206.203ZM388.122 195.628L387.653 192.269H390.112L395.252 206.203H391.395L388.122 195.628ZM391.356 203.868H384.207V200.968H391.356V203.868Z" fill="#1567FF"/>
<path d="M448.273 182.132L449.853 181.838C449.989 182.599 450.413 182.979 451.124 182.979C451.502 182.979 451.785 182.907 451.972 182.761C452.159 182.615 452.252 182.426 452.252 182.193C452.252 182.034 452.211 181.909 452.129 181.817C452.042 181.726 451.871 181.646 451.616 181.578C450.322 181.236 449.499 180.91 449.148 180.601C448.711 180.213 448.492 179.682 448.492 179.008C448.492 178.333 448.706 177.793 449.135 177.388C449.563 176.982 450.185 176.779 451.001 176.779C451.78 176.779 452.373 176.932 452.778 177.237C453.184 177.538 453.469 178.026 453.633 178.7L452.149 179.035C452.017 178.452 451.644 178.16 451.028 178.16C450.641 178.16 450.365 178.217 450.201 178.331C450.037 178.44 449.955 178.584 449.955 178.762C449.955 178.921 450.03 179.053 450.181 179.158C450.331 179.268 450.798 179.432 451.582 179.65C452.462 179.896 453.059 180.195 453.373 180.546C453.683 180.897 453.838 181.364 453.838 181.947C453.838 182.649 453.596 183.228 453.113 183.684C452.635 184.139 451.972 184.367 451.124 184.367C450.354 184.367 449.725 184.178 449.237 183.8C448.75 183.417 448.428 182.861 448.273 182.132ZM459.122 184.203V183.116C458.903 183.508 458.616 183.816 458.261 184.039C457.905 184.258 457.534 184.367 457.146 184.367C456.755 184.367 456.404 184.265 456.094 184.06C455.784 183.854 455.551 183.563 455.396 183.185C455.246 182.806 455.171 182.257 455.171 181.537V176.943H456.75V180.279C456.75 181.232 456.773 181.838 456.818 182.098C456.868 182.353 456.976 182.551 457.14 182.692C457.304 182.834 457.502 182.904 457.734 182.904C457.999 182.904 458.243 182.813 458.466 182.631C458.689 182.444 458.835 182.207 458.903 181.92C458.976 181.628 459.013 180.99 459.013 180.006V176.943H460.585V184.203H459.122ZM462.178 176.943H463.647V178.01C463.848 177.627 464.112 177.326 464.44 177.107C464.769 176.889 465.122 176.779 465.5 176.779C466.179 176.779 466.762 177.103 467.25 177.75C467.742 178.397 467.988 179.315 467.988 180.505C467.988 181.754 467.742 182.711 467.25 183.376C466.758 184.037 466.172 184.367 465.493 184.367C465.179 184.367 464.885 184.292 464.611 184.142C464.342 183.987 464.058 183.709 463.757 183.308V186.965H462.178V176.943ZM463.736 180.45C463.736 181.271 463.868 181.874 464.133 182.262C464.402 182.649 464.725 182.843 465.104 182.843C465.464 182.843 465.767 182.665 466.013 182.31C466.259 181.95 466.382 181.364 466.382 180.553C466.382 179.783 466.254 179.215 465.999 178.851C465.748 178.481 465.441 178.297 465.076 178.297C464.693 178.297 464.374 178.477 464.119 178.837C463.864 179.192 463.736 179.73 463.736 180.45ZM469.191 176.943H470.661V178.01C470.862 177.627 471.126 177.326 471.454 177.107C471.782 176.889 472.135 176.779 472.514 176.779C473.193 176.779 473.776 177.103 474.264 177.75C474.756 178.397 475.002 179.315 475.002 180.505C475.002 181.754 474.756 182.711 474.264 183.376C473.771 184.037 473.186 184.367 472.507 184.367C472.192 184.367 471.898 184.292 471.625 184.142C471.356 183.987 471.071 183.709 470.771 183.308V186.965H469.191V176.943ZM470.75 180.45C470.75 181.271 470.882 181.874 471.146 182.262C471.415 182.649 471.739 182.843 472.117 182.843C472.477 182.843 472.78 182.665 473.026 182.31C473.272 181.95 473.396 181.364 473.396 180.553C473.396 179.783 473.268 179.215 473.013 178.851C472.762 178.481 472.454 178.297 472.09 178.297C471.707 178.297 471.388 178.477 471.133 178.837C470.878 179.192 470.75 179.73 470.75 180.45ZM475.884 180.471C475.884 179.76 476.025 179.113 476.308 178.529C476.59 177.946 476.959 177.508 477.415 177.217C477.871 176.925 478.383 176.779 478.953 176.779C479.91 176.779 480.662 177.155 481.209 177.907C481.756 178.655 482.029 179.53 482.029 180.532C482.029 181.28 481.886 181.954 481.599 182.556C481.316 183.157 480.942 183.611 480.478 183.916C480.017 184.217 479.511 184.367 478.96 184.367C478.076 184.367 477.342 184.03 476.759 183.355C476.175 182.681 475.884 181.719 475.884 180.471ZM477.497 180.573C477.497 181.307 477.641 181.863 477.928 182.241C478.215 182.615 478.561 182.802 478.967 182.802C479.363 182.802 479.703 182.613 479.985 182.234C480.268 181.856 480.409 181.298 480.409 180.56C480.409 179.84 480.266 179.29 479.979 178.912C479.691 178.534 479.347 178.345 478.946 178.345C478.55 178.345 478.208 178.534 477.921 178.912C477.638 179.29 477.497 179.844 477.497 180.573ZM484.777 184.203H483.198V176.943H484.661V177.976C484.912 177.493 485.135 177.174 485.331 177.019C485.532 176.859 485.762 176.779 486.021 176.779C486.382 176.779 486.726 176.9 487.054 177.142L486.562 178.816C486.302 178.607 486.056 178.502 485.823 178.502C485.604 178.502 485.411 178.584 485.242 178.748C485.078 178.908 484.96 179.199 484.887 179.623C484.814 180.047 484.777 180.826 484.777 181.961V184.203ZM490.458 176.943V178.475H489.385V181.4C489.385 182.034 489.401 182.401 489.433 182.501C489.496 182.683 489.626 182.774 489.822 182.774C489.968 182.774 490.178 182.713 490.451 182.59L490.588 184.08C490.223 184.271 489.811 184.367 489.351 184.367C488.95 184.367 488.628 184.271 488.387 184.08C488.145 183.889 487.983 183.613 487.901 183.253C487.838 182.989 487.806 182.451 487.806 181.64V178.475H487.081V176.943H487.806V175.501L489.385 174.38V176.943H490.458ZM491.012 182.132L492.591 181.838C492.728 182.599 493.151 182.979 493.862 182.979C494.241 182.979 494.523 182.907 494.71 182.761C494.897 182.615 494.99 182.426 494.99 182.193C494.99 182.034 494.949 181.909 494.867 181.817C494.781 181.726 494.61 181.646 494.354 181.578C493.06 181.236 492.238 180.91 491.887 180.601C491.449 180.213 491.23 179.682 491.23 179.008C491.23 178.333 491.445 177.793 491.873 177.388C492.301 176.982 492.924 176.779 493.739 176.779C494.519 176.779 495.111 176.932 495.517 177.237C495.922 177.538 496.207 178.026 496.371 178.7L494.888 179.035C494.756 178.452 494.382 178.16 493.767 178.16C493.379 178.16 493.104 178.217 492.939 178.331C492.775 178.44 492.693 178.584 492.693 178.762C492.693 178.921 492.769 179.053 492.919 179.158C493.069 179.268 493.536 179.432 494.32 179.65C495.2 179.896 495.797 180.195 496.111 180.546C496.421 180.897 496.576 181.364 496.576 181.947C496.576 182.649 496.335 183.228 495.852 183.684C495.373 184.139 494.71 184.367 493.862 184.367C493.092 184.367 492.463 184.178 491.976 183.8C491.488 183.417 491.167 182.861 491.012 182.132Z" fill="black"/>
<defs>
<linearGradient id="paint0_linear_2326_39" x1="282.5" y1="155.203" x2="282.5" y2="245.203" gradientUnits="userSpaceOnUse">
<stop stop-color="#55D555"/>
<stop offset="1" stop-color="#55D555" stop-opacity="0"/>
</linearGradient>
<linearGradient id="paint1_linear_2326_39" x1="282.5" y1="155.203" x2="282.5" y2="245.203" gradientUnits="userSpaceOnUse">
<stop offset="0.505" stop-color="#55D555"/>
<stop offset="1" stop-color="#55D555" stop-opacity="0"/>
</linearGradient>
</defs>
</svg>
