<svg width="517" height="252" viewBox="0 0 517 252" fill="none" xmlns="http://www.w3.org/2000/svg">
<rect width="517" height="252" fill="white"/>
<path d="M9.67188 168.5C9.67188 160.492 16.1637 154 24.1719 154H493.172C501.18 154 507.672 160.492 507.672 168.5V247H9.67188V168.5Z" fill="url(#paint0_linear_2272_59)"/>
<path d="M9.67188 168.5C9.67188 160.492 16.1637 154 24.1719 154H493.172C501.18 154 507.672 160.492 507.672 168.5V247H9.67188V168.5Z" stroke="url(#paint1_linear_2272_59)"/>
<path d="M261.172 79.1819C261.172 79.1819 261.172 96.7241 261.672 108.512C262.991 139.612 267.672 153.474 281.672 153.474C281.672 153.474 276.571 153.841 276.416 154.438H241.858L236.672 153.474C250.672 153.474 255.352 139.626 256.672 108.512C257.172 96.7241 257.172 79.1819 257.172 79.1819H261.172Z" fill="#53D453"/>
<path d="M269.672 75.5703H248.672V77.1182H269.672V75.5703Z" fill="#53D453"/>
<rect x="21.3005" y="165.629" width="204.743" height="69.7428" rx="10.8414" fill="white"/>
<rect x="21.3005" y="165.629" width="204.743" height="69.7428" rx="10.8414" stroke="black" stroke-width="1.74275"/>
<path d="M29.0029 191.245L30.656 191.101C30.7343 191.763 30.915 192.308 31.198 192.736C31.4871 193.157 31.9327 193.501 32.5349 193.766C33.1371 194.025 33.8146 194.154 34.5674 194.154C35.2358 194.154 35.826 194.055 36.3379 193.856C36.8498 193.657 37.2292 193.386 37.4761 193.043C37.729 192.694 37.8555 192.314 37.8555 191.905C37.8555 191.489 37.735 191.128 37.4941 190.821C37.2533 190.508 36.8558 190.246 36.3018 190.035C35.9465 189.896 35.1606 189.683 33.9441 189.394C32.7276 189.098 31.8755 188.821 31.3877 188.562C30.7554 188.231 30.2826 187.822 29.9695 187.334C29.6624 186.84 29.5088 186.289 29.5088 185.681C29.5088 185.012 29.6985 184.389 30.0779 183.811C30.4573 183.227 31.0113 182.784 31.74 182.483C32.4687 182.182 33.2786 182.031 34.1699 182.031C35.1515 182.031 36.0157 182.191 36.7625 182.51C37.5152 182.823 38.0933 183.287 38.4968 183.901C38.9003 184.516 39.1171 185.211 39.1472 185.988L37.467 186.115C37.3767 185.277 37.0696 184.645 36.5457 184.218C36.0278 183.79 35.2599 183.576 34.2422 183.576C33.1823 183.576 32.4084 183.772 31.9207 184.163C31.4389 184.549 31.198 185.015 31.198 185.563C31.198 186.039 31.3696 186.431 31.7129 186.738C32.0501 187.045 32.9294 187.361 34.3506 187.686C35.7778 188.005 36.7564 188.285 37.2864 188.526C38.0572 188.882 38.6263 189.333 38.9937 189.881C39.361 190.423 39.5447 191.05 39.5447 191.76C39.5447 192.465 39.3429 193.13 38.9395 193.757C38.536 194.377 37.9548 194.862 37.196 195.211C36.4433 195.554 35.5942 195.726 34.6487 195.726C33.4503 195.726 32.4446 195.551 31.6316 195.202C30.8246 194.853 30.1893 194.329 29.7256 193.63C29.2679 192.926 29.027 192.131 29.0029 191.245ZM41.1255 190.703C41.1255 188.927 41.6193 187.611 42.6069 186.756C43.432 186.045 44.4377 185.69 45.624 185.69C46.9429 185.69 48.0208 186.124 48.8579 186.991C49.695 187.852 50.1135 189.044 50.1135 190.568C50.1135 191.802 49.9268 192.775 49.5535 193.486C49.1861 194.19 48.6471 194.738 47.9365 195.13C47.2319 195.521 46.4611 195.717 45.624 195.717C44.2811 195.717 43.1941 195.286 42.363 194.425C41.538 193.564 41.1255 192.323 41.1255 190.703ZM42.7966 190.703C42.7966 191.932 43.0646 192.853 43.6006 193.468C44.1366 194.076 44.811 194.38 45.624 194.38C46.431 194.38 47.1025 194.073 47.6384 193.458C48.1744 192.844 48.4424 191.908 48.4424 190.649C48.4424 189.463 48.1714 188.566 47.6294 187.957C47.0934 187.343 46.425 187.036 45.624 187.036C44.811 187.036 44.1366 187.34 43.6006 187.948C43.0646 188.556 42.7966 189.475 42.7966 190.703ZM58.2886 191.986L59.8875 192.194C59.7128 193.296 59.2642 194.16 58.5415 194.786C57.8249 195.407 56.9426 195.717 55.8948 195.717C54.5819 195.717 53.5251 195.289 52.7241 194.434C51.9292 193.573 51.5317 192.341 51.5317 190.74C51.5317 189.704 51.7034 188.797 52.0466 188.021C52.3899 187.244 52.9108 186.663 53.6094 186.277C54.314 185.886 55.0788 185.69 55.9038 185.69C56.9456 185.69 57.7978 185.955 58.4602 186.485C59.1226 187.009 59.5472 187.756 59.7339 188.725L58.1531 188.969C58.0025 188.325 57.7345 187.84 57.3491 187.515C56.9697 187.189 56.509 187.027 55.967 187.027C55.148 187.027 54.4826 187.322 53.9707 187.912C53.4588 188.496 53.2029 189.424 53.2029 190.694C53.2029 191.983 53.4498 192.92 53.9436 193.504C54.4374 194.088 55.0818 194.38 55.8767 194.38C56.5151 194.38 57.048 194.184 57.4756 193.793C57.9032 193.401 58.1742 192.799 58.2886 191.986ZM61.2605 195.5V185.907H62.7239V187.361C63.0972 186.681 63.4405 186.232 63.7537 186.015C64.0728 185.798 64.4221 185.69 64.8015 185.69C65.3495 185.69 65.9066 185.865 66.4727 186.214L65.9126 187.722C65.5151 187.488 65.1177 187.37 64.7202 187.37C64.3649 187.37 64.0457 187.479 63.7627 187.695C63.4797 187.906 63.2779 188.201 63.1575 188.581C62.9768 189.159 62.8865 189.791 62.8865 190.478V195.5H61.2605ZM73.6992 194.317C73.097 194.829 72.5159 195.19 71.9558 195.401C71.4018 195.611 70.8056 195.717 70.1672 195.717C69.1134 195.717 68.3034 195.461 67.7373 194.949C67.1712 194.431 66.8882 193.772 66.8882 192.971C66.8882 192.501 66.9936 192.073 67.2043 191.688C67.4211 191.297 67.7012 190.983 68.0444 190.749C68.3937 190.514 68.7852 190.336 69.2188 190.216C69.5379 190.131 70.0197 190.05 70.6641 189.972C71.9769 189.815 72.9434 189.628 73.5637 189.412C73.5697 189.189 73.5728 189.047 73.5728 188.987C73.5728 188.325 73.4192 187.858 73.1121 187.587C72.6965 187.22 72.0793 187.036 71.2603 187.036C70.4954 187.036 69.9294 187.171 69.562 187.442C69.2007 187.707 68.9327 188.18 68.7581 188.861L67.1682 188.644C67.3127 187.963 67.5506 187.415 67.8818 187C68.2131 186.578 68.6918 186.256 69.3181 186.033C69.9444 185.804 70.6701 185.69 71.4951 185.69C72.3141 185.69 72.9796 185.786 73.4915 185.979C74.0033 186.172 74.3797 186.416 74.6206 186.711C74.8615 187 75.0301 187.367 75.1265 187.813C75.1807 188.09 75.2078 188.59 75.2078 189.312V191.48C75.2078 192.992 75.2409 193.949 75.3071 194.353C75.3794 194.75 75.5179 195.133 75.7227 195.5H74.0244C73.8558 195.163 73.7474 194.768 73.6992 194.317ZM73.5637 190.685C72.9736 190.926 72.0883 191.131 70.908 191.3C70.2395 191.396 69.7668 191.504 69.4897 191.625C69.2127 191.745 68.9989 191.923 68.8484 192.158C68.6978 192.387 68.6226 192.642 68.6226 192.926C68.6226 193.359 68.7852 193.72 69.1104 194.01C69.4416 194.299 69.9233 194.443 70.5557 194.443C71.182 194.443 71.739 194.308 72.2268 194.037C72.7146 193.76 73.0729 193.383 73.3018 192.907C73.4764 192.54 73.5637 191.998 73.5637 191.281V190.685ZM81.2871 194.046L81.522 195.482C81.0643 195.578 80.6548 195.626 80.2935 195.626C79.7033 195.626 79.2456 195.533 78.9204 195.346C78.5952 195.16 78.3664 194.916 78.2339 194.615C78.1014 194.308 78.0352 193.666 78.0352 192.691V187.171H76.8428V185.907H78.0352V183.531L79.6521 182.555V185.907H81.2871V187.171H79.6521V192.781C79.6521 193.245 79.6792 193.543 79.7334 193.675C79.7936 193.808 79.887 193.913 80.0134 193.991C80.1459 194.07 80.3326 194.109 80.5735 194.109C80.7542 194.109 80.992 194.088 81.2871 194.046ZM89.4531 192.411L91.1333 192.618C90.8683 193.6 90.3775 194.362 89.6609 194.904C88.9443 195.446 88.0289 195.717 86.9148 195.717C85.5116 195.717 84.3975 195.286 83.5725 194.425C82.7535 193.558 82.344 192.344 82.344 190.785C82.344 189.171 82.7595 187.918 83.5906 187.027C84.4216 186.136 85.4996 185.69 86.8245 185.69C88.1072 185.69 89.155 186.127 89.968 187C90.781 187.873 91.1875 189.101 91.1875 190.685C91.1875 190.782 91.1845 190.926 91.1785 191.119H84.0242C84.0844 192.173 84.3825 192.98 84.9185 193.54C85.4544 194.1 86.1229 194.38 86.9238 194.38C87.52 194.38 88.0289 194.223 88.4504 193.91C88.872 193.597 89.2062 193.097 89.4531 192.411ZM84.1145 189.782H89.4712C89.3989 188.975 89.1942 188.37 88.8569 187.966C88.339 187.34 87.6676 187.027 86.8425 187.027C86.0958 187.027 85.4665 187.277 84.9546 187.777C84.4487 188.276 84.1687 188.945 84.1145 189.782ZM92.5334 192.636L94.1414 192.384C94.2317 193.028 94.4816 193.522 94.8911 193.865C95.3066 194.208 95.8848 194.38 96.6255 194.38C97.3722 194.38 97.9263 194.229 98.2876 193.928C98.6489 193.621 98.8296 193.263 98.8296 192.853C98.8296 192.486 98.67 192.197 98.3508 191.986C98.128 191.842 97.574 191.658 96.6887 191.435C95.4963 191.134 94.6683 190.875 94.2046 190.658C93.7469 190.435 93.3976 190.131 93.1567 189.746C92.9219 189.354 92.8044 188.924 92.8044 188.454C92.8044 188.027 92.9008 187.632 93.0935 187.271C93.2922 186.903 93.5602 186.599 93.8975 186.358C94.1504 186.172 94.4937 186.015 94.9272 185.889C95.3669 185.756 95.8366 185.69 96.3364 185.69C97.0892 185.69 97.7486 185.798 98.3147 186.015C98.8868 186.232 99.3083 186.527 99.5793 186.9C99.8503 187.268 100.037 187.762 100.139 188.382L98.5496 188.599C98.4773 188.105 98.2665 187.719 97.9172 187.442C97.574 187.165 97.0862 187.027 96.4539 187.027C95.7071 187.027 95.1742 187.15 94.855 187.397C94.5358 187.644 94.3762 187.933 94.3762 188.264C94.3762 188.475 94.4425 188.665 94.575 188.833C94.7074 189.008 94.9152 189.153 95.1982 189.267C95.3608 189.327 95.8396 189.466 96.6345 189.683C97.7847 189.99 98.5857 190.243 99.0374 190.441C99.495 190.634 99.8534 190.917 100.112 191.291C100.371 191.664 100.501 192.128 100.501 192.682C100.501 193.224 100.341 193.736 100.022 194.217C99.7088 194.693 99.2542 195.063 98.658 195.328C98.0618 195.587 97.3873 195.717 96.6345 195.717C95.3879 195.717 94.4364 195.458 93.78 194.94C93.1296 194.422 92.7141 193.654 92.5334 192.636ZM107.592 184.127V182.257H109.218V184.127H107.592ZM107.592 195.5V185.907H109.218V195.5H107.592ZM111.052 192.636L112.659 192.384C112.75 193.028 113 193.522 113.409 193.865C113.825 194.208 114.403 194.38 115.144 194.38C115.89 194.38 116.444 194.229 116.806 193.928C117.167 193.621 117.348 193.263 117.348 192.853C117.348 192.486 117.188 192.197 116.869 191.986C116.646 191.842 116.092 191.658 115.207 191.435C114.014 191.134 113.186 190.875 112.723 190.658C112.265 190.435 111.916 190.131 111.675 189.746C111.44 189.354 111.323 188.924 111.323 188.454C111.323 188.027 111.419 187.632 111.612 187.271C111.81 186.903 112.078 186.599 112.416 186.358C112.668 186.172 113.012 186.015 113.445 185.889C113.885 185.756 114.355 185.69 114.854 185.69C115.607 185.69 116.267 185.798 116.833 186.015C117.405 186.232 117.826 186.527 118.097 186.9C118.368 187.268 118.555 187.762 118.657 188.382L117.068 188.599C116.995 188.105 116.785 187.719 116.435 187.442C116.092 187.165 115.604 187.027 114.972 187.027C114.225 187.027 113.692 187.15 113.373 187.397C113.054 187.644 112.894 187.933 112.894 188.264C112.894 188.475 112.961 188.665 113.093 188.833C113.226 189.008 113.433 189.153 113.716 189.267C113.879 189.327 114.358 189.466 115.153 189.683C116.303 189.99 117.104 190.243 117.555 190.441C118.013 190.634 118.371 190.917 118.63 191.291C118.889 191.664 119.019 192.128 119.019 192.682C119.019 193.224 118.859 193.736 118.54 194.217C118.227 194.693 117.772 195.063 117.176 195.328C116.58 195.587 115.905 195.717 115.153 195.717C113.906 195.717 112.955 195.458 112.298 194.94C111.648 194.422 111.232 193.654 111.052 192.636ZM126.101 195.5V182.257H127.727V187.009C128.486 186.13 129.443 185.69 130.599 185.69C131.31 185.69 131.927 185.831 132.451 186.115C132.975 186.392 133.348 186.777 133.571 187.271C133.8 187.765 133.915 188.481 133.915 189.421V195.5H132.289V189.421C132.289 188.608 132.111 188.017 131.756 187.65C131.406 187.277 130.91 187.09 130.265 187.09C129.783 187.09 129.329 187.217 128.901 187.469C128.48 187.716 128.178 188.054 127.998 188.481C127.817 188.909 127.727 189.499 127.727 190.252V195.5H126.101ZM142.686 195.5V194.091C141.939 195.175 140.924 195.717 139.642 195.717C139.076 195.717 138.546 195.608 138.052 195.392C137.564 195.175 137.2 194.904 136.959 194.579C136.724 194.247 136.558 193.844 136.462 193.368C136.396 193.049 136.363 192.543 136.363 191.851V185.907H137.989V191.227C137.989 192.076 138.022 192.649 138.088 192.944C138.19 193.371 138.407 193.708 138.738 193.955C139.069 194.196 139.479 194.317 139.967 194.317C140.455 194.317 140.912 194.193 141.34 193.946C141.767 193.693 142.069 193.353 142.243 192.926C142.424 192.492 142.514 191.866 142.514 191.047V185.907H144.14V195.5H142.686ZM146.697 195.5V185.907H148.151V187.253C148.452 186.783 148.852 186.407 149.352 186.124C149.852 185.834 150.421 185.69 151.06 185.69C151.77 185.69 152.351 185.837 152.803 186.133C153.261 186.428 153.583 186.84 153.77 187.37C154.528 186.25 155.516 185.69 156.732 185.69C157.684 185.69 158.416 185.955 158.927 186.485C159.439 187.009 159.695 187.819 159.695 188.915V195.5H158.078V189.457C158.078 188.806 158.024 188.34 157.916 188.057C157.813 187.768 157.624 187.536 157.347 187.361C157.07 187.186 156.744 187.099 156.371 187.099C155.697 187.099 155.137 187.325 154.691 187.777C154.245 188.222 154.022 188.939 154.022 189.927V195.5H152.396V189.267C152.396 188.544 152.264 188.002 151.999 187.641C151.734 187.28 151.3 187.099 150.698 187.099C150.241 187.099 149.816 187.22 149.425 187.46C149.039 187.701 148.759 188.054 148.584 188.517C148.41 188.981 148.323 189.649 148.323 190.523V195.5H146.697ZM168.367 194.317C167.765 194.829 167.184 195.19 166.624 195.401C166.07 195.611 165.474 195.717 164.835 195.717C163.781 195.717 162.971 195.461 162.405 194.949C161.839 194.431 161.556 193.772 161.556 192.971C161.556 192.501 161.662 192.073 161.872 191.688C162.089 191.297 162.369 190.983 162.712 190.749C163.062 190.514 163.453 190.336 163.887 190.216C164.206 190.131 164.688 190.05 165.332 189.972C166.645 189.815 167.611 189.628 168.232 189.412C168.238 189.189 168.241 189.047 168.241 188.987C168.241 188.325 168.087 187.858 167.78 187.587C167.365 187.22 166.747 187.036 165.928 187.036C165.163 187.036 164.597 187.171 164.23 187.442C163.869 187.707 163.601 188.18 163.426 188.861L161.836 188.644C161.981 187.963 162.219 187.415 162.55 187C162.881 186.578 163.36 186.256 163.986 186.033C164.612 185.804 165.338 185.69 166.163 185.69C166.982 185.69 167.648 185.786 168.159 185.979C168.671 186.172 169.048 186.416 169.289 186.711C169.529 187 169.698 187.367 169.794 187.813C169.849 188.09 169.876 188.59 169.876 189.312V191.48C169.876 192.992 169.909 193.949 169.975 194.353C170.047 194.75 170.186 195.133 170.391 195.5H168.692C168.524 195.163 168.415 194.768 168.367 194.317ZM168.232 190.685C167.642 190.926 166.756 191.131 165.576 191.3C164.907 191.396 164.435 191.504 164.158 191.625C163.881 191.745 163.667 191.923 163.516 192.158C163.366 192.387 163.291 192.642 163.291 192.926C163.291 193.359 163.453 193.72 163.778 194.01C164.11 194.299 164.591 194.443 165.224 194.443C165.85 194.443 166.407 194.308 166.895 194.037C167.383 193.76 167.741 193.383 167.97 192.907C168.144 192.54 168.232 191.998 168.232 191.281V190.685ZM172.405 195.5V185.907H173.868V187.271C174.573 186.217 175.591 185.69 176.922 185.69C177.5 185.69 178.03 185.795 178.511 186.006C178.999 186.211 179.364 186.482 179.604 186.819C179.845 187.156 180.014 187.557 180.11 188.021C180.171 188.322 180.201 188.849 180.201 189.601V195.5H178.575V189.665C178.575 189.002 178.511 188.508 178.385 188.183C178.259 187.852 178.033 187.59 177.708 187.397C177.388 187.198 177.012 187.099 176.578 187.099C175.886 187.099 175.287 187.319 174.781 187.759C174.281 188.198 174.031 189.032 174.031 190.261V195.5H172.405Z" fill="black"/>
<rect x="236.3" y="165.629" width="191.743" height="69.7428" rx="10.8414" fill="white"/>
<rect x="236.3" y="165.629" width="191.743" height="69.7428" rx="10.8414" stroke="black" stroke-width="1.74275"/>
<path d="M243.145 195.5L248.23 182.257H250.118L255.538 195.5H253.542L251.997 191.489H246.46L245.006 195.5H243.145ZM246.966 190.062H251.455L250.073 186.395C249.652 185.28 249.339 184.365 249.134 183.648C248.965 184.498 248.727 185.341 248.42 186.178L246.966 190.062ZM256.695 195.5V182.257H258.321V195.5H256.695ZM260.814 195.5V182.257H262.44V195.5H260.814ZM270.118 195.5V182.257H271.744V187.009C272.503 186.13 273.46 185.69 274.616 185.69C275.327 185.69 275.944 185.831 276.468 186.115C276.992 186.392 277.366 186.777 277.588 187.271C277.817 187.765 277.932 188.481 277.932 189.421V195.5H276.306V189.421C276.306 188.608 276.128 188.017 275.773 187.65C275.423 187.277 274.927 187.09 274.282 187.09C273.8 187.09 273.346 187.217 272.918 187.469C272.497 187.716 272.196 188.054 272.015 188.481C271.834 188.909 271.744 189.499 271.744 190.252V195.5H270.118ZM286.703 195.5V194.091C285.956 195.175 284.941 195.717 283.659 195.717C283.093 195.717 282.563 195.608 282.069 195.392C281.581 195.175 281.217 194.904 280.976 194.579C280.741 194.247 280.575 193.844 280.479 193.368C280.413 193.049 280.38 192.543 280.38 191.851V185.907H282.006V191.227C282.006 192.076 282.039 192.649 282.105 192.944C282.207 193.371 282.424 193.708 282.755 193.955C283.087 194.196 283.496 194.317 283.984 194.317C284.472 194.317 284.929 194.193 285.357 193.946C285.785 193.693 286.086 193.353 286.26 192.926C286.441 192.492 286.531 191.866 286.531 191.047V185.907H288.157V195.5H286.703ZM290.714 195.5V185.907H292.168V187.253C292.469 186.783 292.87 186.407 293.369 186.124C293.869 185.834 294.438 185.69 295.077 185.69C295.787 185.69 296.368 185.837 296.82 186.133C297.278 186.428 297.6 186.84 297.787 187.37C298.545 186.25 299.533 185.69 300.75 185.69C301.701 185.69 302.433 185.955 302.945 186.485C303.456 187.009 303.712 187.819 303.712 188.915V195.5H302.095V189.457C302.095 188.806 302.041 188.34 301.933 188.057C301.83 187.768 301.641 187.536 301.364 187.361C301.087 187.186 300.762 187.099 300.388 187.099C299.714 187.099 299.154 187.325 298.708 187.777C298.262 188.222 298.04 188.939 298.04 189.927V195.5H296.414V189.267C296.414 188.544 296.281 188.002 296.016 187.641C295.751 187.28 295.318 187.099 294.715 187.099C294.258 187.099 293.833 187.22 293.442 187.46C293.056 187.701 292.776 188.054 292.602 188.517C292.427 188.981 292.34 189.649 292.34 190.523V195.5H290.714ZM312.384 194.317C311.782 194.829 311.201 195.19 310.641 195.401C310.087 195.611 309.491 195.717 308.852 195.717C307.798 195.717 306.988 195.461 306.422 194.949C305.856 194.431 305.573 193.772 305.573 192.971C305.573 192.501 305.679 192.073 305.889 191.688C306.106 191.297 306.386 190.983 306.729 190.749C307.079 190.514 307.47 190.336 307.904 190.216C308.223 190.131 308.705 190.05 309.349 189.972C310.662 189.815 311.628 189.628 312.249 189.412C312.255 189.189 312.258 189.047 312.258 188.987C312.258 188.325 312.104 187.858 311.797 187.587C311.382 187.22 310.764 187.036 309.945 187.036C309.181 187.036 308.614 187.171 308.247 187.442C307.886 187.707 307.618 188.18 307.443 188.861L305.853 188.644C305.998 187.963 306.236 187.415 306.567 187C306.898 186.578 307.377 186.256 308.003 186.033C308.629 185.804 309.355 185.69 310.18 185.69C310.999 185.69 311.665 185.786 312.177 185.979C312.688 186.172 313.065 186.416 313.306 186.711C313.547 187 313.715 187.367 313.812 187.813C313.866 188.09 313.893 188.59 313.893 189.312V191.48C313.893 192.992 313.926 193.949 313.992 194.353C314.064 194.75 314.203 195.133 314.408 195.5H312.709C312.541 195.163 312.432 194.768 312.384 194.317ZM312.249 190.685C311.659 190.926 310.773 191.131 309.593 191.3C308.925 191.396 308.452 191.504 308.175 191.625C307.898 191.745 307.684 191.923 307.533 192.158C307.383 192.387 307.308 192.642 307.308 192.926C307.308 193.359 307.47 193.72 307.795 194.01C308.127 194.299 308.608 194.443 309.241 194.443C309.867 194.443 310.424 194.308 310.912 194.037C311.4 193.76 311.758 193.383 311.987 192.907C312.161 192.54 312.249 191.998 312.249 191.281V190.685ZM316.422 195.5V185.907H317.885V187.271C318.59 186.217 319.608 185.69 320.939 185.69C321.517 185.69 322.047 185.795 322.529 186.006C323.016 186.211 323.381 186.482 323.622 186.819C323.862 187.156 324.031 187.557 324.127 188.021C324.188 188.322 324.218 188.849 324.218 189.601V195.5H322.592V189.665C322.592 189.002 322.529 188.508 322.402 188.183C322.276 187.852 322.05 187.59 321.725 187.397C321.405 187.198 321.029 187.099 320.595 187.099C319.903 187.099 319.304 187.319 318.798 187.759C318.298 188.198 318.048 189.032 318.048 190.261V195.5H316.422ZM326.07 192.636L327.677 192.384C327.768 193.028 328.018 193.522 328.427 193.865C328.843 194.208 329.421 194.38 330.162 194.38C330.908 194.38 331.462 194.229 331.824 193.928C332.185 193.621 332.366 193.263 332.366 192.853C332.366 192.486 332.206 192.197 331.887 191.986C331.664 191.842 331.11 191.658 330.225 191.435C329.032 191.134 328.204 190.875 327.741 190.658C327.283 190.435 326.934 190.131 326.693 189.746C326.458 189.354 326.341 188.924 326.341 188.454C326.341 188.027 326.437 187.632 326.63 187.271C326.828 186.903 327.096 186.599 327.434 186.358C327.687 186.172 328.03 186.015 328.463 185.889C328.903 185.756 329.373 185.69 329.873 185.69C330.625 185.69 331.285 185.798 331.851 186.015C332.423 186.232 332.844 186.527 333.115 186.9C333.386 187.268 333.573 187.762 333.676 188.382L332.086 188.599C332.013 188.105 331.803 187.719 331.453 187.442C331.11 187.165 330.622 187.027 329.99 187.027C329.243 187.027 328.71 187.15 328.391 187.397C328.072 187.644 327.912 187.933 327.912 188.264C327.912 188.475 327.979 188.665 328.111 188.833C328.244 189.008 328.451 189.153 328.734 189.267C328.897 189.327 329.376 189.466 330.171 189.683C331.321 189.99 332.122 190.243 332.573 190.441C333.031 190.634 333.389 190.917 333.648 191.291C333.907 191.664 334.037 192.128 334.037 192.682C334.037 193.224 333.877 193.736 333.558 194.217C333.245 194.693 332.79 195.063 332.194 195.328C331.598 195.587 330.923 195.717 330.171 195.717C328.924 195.717 327.973 195.458 327.316 194.94C326.666 194.422 326.25 193.654 326.07 192.636ZM347.379 194.317C346.777 194.829 346.196 195.19 345.635 195.401C345.081 195.611 344.485 195.717 343.847 195.717C342.793 195.717 341.983 195.461 341.417 194.949C340.851 194.431 340.568 193.772 340.568 192.971C340.568 192.501 340.673 192.073 340.884 191.688C341.101 191.297 341.381 190.983 341.724 190.749C342.073 190.514 342.465 190.336 342.898 190.216C343.218 190.131 343.699 190.05 344.344 189.972C345.657 189.815 346.623 189.628 347.243 189.412C347.249 189.189 347.252 189.047 347.252 188.987C347.252 188.325 347.099 187.858 346.792 187.587C346.376 187.22 345.759 187.036 344.94 187.036C344.175 187.036 343.609 187.171 343.242 187.442C342.88 187.707 342.612 188.18 342.438 188.861L340.848 188.644C340.992 187.963 341.23 187.415 341.562 187C341.893 186.578 342.372 186.256 342.998 186.033C343.624 185.804 344.35 185.69 345.175 185.69C345.994 185.69 346.659 185.786 347.171 185.979C347.683 186.172 348.059 186.416 348.3 186.711C348.541 187 348.71 187.367 348.806 187.813C348.86 188.09 348.887 188.59 348.887 189.312V191.48C348.887 192.992 348.921 193.949 348.987 194.353C349.059 194.75 349.198 195.133 349.402 195.5H347.704C347.535 195.163 347.427 194.768 347.379 194.317ZM347.243 190.685C346.653 190.926 345.768 191.131 344.588 191.3C343.919 191.396 343.446 191.504 343.169 191.625C342.892 191.745 342.679 191.923 342.528 192.158C342.378 192.387 342.302 192.642 342.302 192.926C342.302 193.359 342.465 193.72 342.79 194.01C343.121 194.299 343.603 194.443 344.235 194.443C344.862 194.443 345.419 194.308 345.906 194.037C346.394 193.76 346.753 193.383 346.981 192.907C347.156 192.54 347.243 191.998 347.243 191.281V190.685ZM351.399 195.5V185.907H352.862V187.361C353.235 186.681 353.579 186.232 353.892 186.015C354.211 185.798 354.56 185.69 354.94 185.69C355.488 185.69 356.045 185.865 356.611 186.214L356.051 187.722C355.653 187.488 355.256 187.37 354.858 187.37C354.503 187.37 354.184 187.479 353.901 187.695C353.618 187.906 353.416 188.201 353.296 188.581C353.115 189.159 353.025 189.791 353.025 190.478V195.5H351.399ZM364.145 192.411L365.825 192.618C365.56 193.6 365.069 194.362 364.352 194.904C363.636 195.446 362.72 195.717 361.606 195.717C360.203 195.717 359.089 195.286 358.264 194.425C357.445 193.558 357.035 192.344 357.035 190.785C357.035 189.171 357.451 187.918 358.282 187.027C359.113 186.136 360.191 185.69 361.516 185.69C362.799 185.69 363.846 186.127 364.659 187C365.472 187.873 365.879 189.101 365.879 190.685C365.879 190.782 365.876 190.926 365.87 191.119H358.716C358.776 192.173 359.074 192.98 359.61 193.54C360.146 194.1 360.814 194.38 361.615 194.38C362.211 194.38 362.72 194.223 363.142 193.91C363.563 193.597 363.898 193.097 364.145 192.411ZM358.806 189.782H364.163C364.09 188.975 363.886 188.37 363.548 187.966C363.03 187.34 362.359 187.027 361.534 187.027C360.787 187.027 360.158 187.277 359.646 187.777C359.14 188.276 358.86 188.945 358.806 189.782ZM244.391 217.5V207.907H245.846V209.253C246.147 208.783 246.547 208.407 247.047 208.124C247.547 207.834 248.116 207.69 248.754 207.69C249.465 207.69 250.046 207.837 250.498 208.133C250.955 208.428 251.278 208.84 251.464 209.37C252.223 208.25 253.211 207.69 254.427 207.69C255.379 207.69 256.11 207.955 256.622 208.485C257.134 209.009 257.39 209.819 257.39 210.915V217.5H255.773V211.457C255.773 210.806 255.719 210.34 255.611 210.057C255.508 209.768 255.319 209.536 255.042 209.361C254.764 209.186 254.439 209.099 254.066 209.099C253.391 209.099 252.831 209.325 252.386 209.777C251.94 210.222 251.717 210.939 251.717 211.927V217.5H250.091V211.267C250.091 210.544 249.959 210.002 249.694 209.641C249.429 209.28 248.995 209.099 248.393 209.099C247.935 209.099 247.511 209.22 247.119 209.46C246.734 209.701 246.454 210.054 246.279 210.517C246.105 210.981 246.017 211.649 246.017 212.523V217.5H244.391ZM259.197 212.703C259.197 210.927 259.691 209.611 260.678 208.756C261.503 208.045 262.509 207.69 263.695 207.69C265.014 207.69 266.092 208.124 266.929 208.991C267.766 209.852 268.185 211.044 268.185 212.568C268.185 213.802 267.998 214.775 267.625 215.486C267.257 216.19 266.718 216.738 266.008 217.13C265.303 217.521 264.532 217.717 263.695 217.717C262.352 217.717 261.265 217.286 260.434 216.425C259.609 215.564 259.197 214.323 259.197 212.703ZM260.868 212.703C260.868 213.932 261.136 214.853 261.672 215.468C262.208 216.076 262.882 216.38 263.695 216.38C264.502 216.38 265.174 216.073 265.71 215.458C266.246 214.844 266.514 213.908 266.514 212.649C266.514 211.463 266.243 210.566 265.701 209.957C265.165 209.343 264.496 209.036 263.695 209.036C262.882 209.036 262.208 209.34 261.672 209.948C261.136 210.556 260.868 211.475 260.868 212.703ZM270.082 217.5V207.907H271.545V209.361C271.919 208.681 272.262 208.232 272.575 208.015C272.894 207.798 273.243 207.69 273.623 207.69C274.171 207.69 274.728 207.865 275.294 208.214L274.734 209.722C274.336 209.488 273.939 209.37 273.542 209.37C273.186 209.37 272.867 209.479 272.584 209.695C272.301 209.906 272.099 210.201 271.979 210.581C271.798 211.159 271.708 211.791 271.708 212.478V217.5H270.082ZM279.811 216.046L280.045 217.482C279.588 217.578 279.178 217.626 278.817 217.626C278.227 217.626 277.769 217.533 277.444 217.346C277.119 217.16 276.89 216.916 276.757 216.615C276.625 216.308 276.559 215.666 276.559 214.691V209.171H275.366V207.907H276.559V205.531L278.176 204.555V207.907H279.811V209.171H278.176V214.781C278.176 215.245 278.203 215.543 278.257 215.675C278.317 215.808 278.41 215.913 278.537 215.991C278.669 216.07 278.856 216.109 279.097 216.109C279.278 216.109 279.515 216.088 279.811 216.046ZM287.669 216.317C287.067 216.829 286.486 217.19 285.926 217.401C285.372 217.611 284.776 217.717 284.137 217.717C283.084 217.717 282.274 217.461 281.708 216.949C281.141 216.431 280.858 215.772 280.858 214.971C280.858 214.501 280.964 214.073 281.175 213.688C281.391 213.297 281.671 212.983 282.015 212.749C282.364 212.514 282.755 212.336 283.189 212.216C283.508 212.131 283.99 212.05 284.634 211.972C285.947 211.815 286.914 211.628 287.534 211.412C287.54 211.189 287.543 211.047 287.543 210.987C287.543 210.325 287.389 209.858 287.082 209.587C286.667 209.22 286.049 209.036 285.23 209.036C284.466 209.036 283.9 209.171 283.532 209.442C283.171 209.707 282.903 210.18 282.728 210.861L281.138 210.644C281.283 209.963 281.521 209.415 281.852 209C282.183 208.578 282.662 208.256 283.288 208.033C283.915 207.804 284.64 207.69 285.465 207.69C286.284 207.69 286.95 207.786 287.462 207.979C287.974 208.172 288.35 208.416 288.591 208.711C288.832 209 289 209.367 289.097 209.813C289.151 210.09 289.178 210.59 289.178 211.312V213.48C289.178 214.992 289.211 215.949 289.277 216.353C289.35 216.75 289.488 217.133 289.693 217.5H287.995C287.826 217.163 287.718 216.768 287.669 216.317ZM287.534 212.685C286.944 212.926 286.059 213.131 284.878 213.3C284.21 213.396 283.737 213.504 283.46 213.625C283.183 213.745 282.969 213.923 282.819 214.158C282.668 214.387 282.593 214.642 282.593 214.926C282.593 215.359 282.755 215.72 283.081 216.01C283.412 216.299 283.894 216.443 284.526 216.443C285.152 216.443 285.709 216.308 286.197 216.037C286.685 215.76 287.043 215.383 287.272 214.907C287.447 214.54 287.534 213.998 287.534 213.281V212.685ZM291.671 217.5V204.257H293.297V217.5H291.671Z" fill="black"/>
<path d="M439.445 176.429L441.024 176.135C441.161 176.896 441.585 177.276 442.296 177.276C442.674 177.276 442.957 177.203 443.144 177.058C443.33 176.912 443.424 176.723 443.424 176.49C443.424 176.331 443.383 176.205 443.301 176.114C443.214 176.023 443.043 175.943 442.788 175.875C441.494 175.533 440.671 175.207 440.32 174.897C439.883 174.51 439.664 173.979 439.664 173.305C439.664 172.63 439.878 172.09 440.307 171.685C440.735 171.279 441.357 171.076 442.173 171.076C442.952 171.076 443.545 171.229 443.95 171.534C444.356 171.835 444.641 172.323 444.805 172.997L443.321 173.332C443.189 172.749 442.815 172.457 442.2 172.457C441.813 172.457 441.537 172.514 441.373 172.628C441.209 172.737 441.127 172.881 441.127 173.059C441.127 173.218 441.202 173.35 441.353 173.455C441.503 173.564 441.97 173.729 442.754 173.947C443.633 174.193 444.23 174.492 444.545 174.843C444.855 175.194 445.01 175.661 445.01 176.244C445.01 176.946 444.768 177.525 444.285 177.98C443.807 178.436 443.144 178.664 442.296 178.664C441.526 178.664 440.897 178.475 440.409 178.097C439.922 177.714 439.6 177.158 439.445 176.429ZM450.294 178.5V177.413C450.075 177.805 449.788 178.113 449.433 178.336C449.077 178.555 448.706 178.664 448.318 178.664C447.926 178.664 447.576 178.562 447.266 178.356C446.956 178.151 446.723 177.86 446.568 177.481C446.418 177.103 446.343 176.554 446.343 175.834V171.24H447.922V174.576C447.922 175.529 447.945 176.135 447.99 176.395C448.04 176.65 448.147 176.848 448.312 176.989C448.476 177.131 448.674 177.201 448.906 177.201C449.171 177.201 449.414 177.11 449.638 176.928C449.861 176.741 450.007 176.504 450.075 176.217C450.148 175.925 450.185 175.287 450.185 174.303V171.24H451.757V178.5H450.294ZM453.35 171.24H454.819V172.307C455.02 171.924 455.284 171.623 455.612 171.404C455.94 171.186 456.294 171.076 456.672 171.076C457.351 171.076 457.934 171.4 458.422 172.047C458.914 172.694 459.16 173.612 459.16 174.802C459.16 176.05 458.914 177.007 458.422 177.673C457.93 178.334 457.344 178.664 456.665 178.664C456.351 178.664 456.057 178.589 455.783 178.438C455.514 178.284 455.229 178.006 454.929 177.604V181.262H453.35V171.24ZM454.908 174.747C454.908 175.567 455.04 176.171 455.305 176.559C455.574 176.946 455.897 177.14 456.275 177.14C456.635 177.14 456.938 176.962 457.185 176.606C457.431 176.246 457.554 175.661 457.554 174.85C457.554 174.079 457.426 173.512 457.171 173.147C456.92 172.778 456.613 172.594 456.248 172.594C455.865 172.594 455.546 172.774 455.291 173.134C455.036 173.489 454.908 174.027 454.908 174.747ZM460.363 171.24H461.833V172.307C462.034 171.924 462.298 171.623 462.626 171.404C462.954 171.186 463.307 171.076 463.686 171.076C464.365 171.076 464.948 171.4 465.436 172.047C465.928 172.694 466.174 173.612 466.174 174.802C466.174 176.05 465.928 177.007 465.436 177.673C464.943 178.334 464.358 178.664 463.679 178.664C463.364 178.664 463.07 178.589 462.797 178.438C462.528 178.284 462.243 178.006 461.942 177.604V181.262H460.363V171.24ZM461.922 174.747C461.922 175.567 462.054 176.171 462.318 176.559C462.587 176.946 462.911 177.14 463.289 177.14C463.649 177.14 463.952 176.962 464.198 176.606C464.444 176.246 464.567 175.661 464.567 174.85C464.567 174.079 464.44 173.512 464.185 173.147C463.934 172.778 463.626 172.594 463.262 172.594C462.879 172.594 462.56 172.774 462.305 173.134C462.049 173.489 461.922 174.027 461.922 174.747ZM467.056 174.768C467.056 174.057 467.197 173.41 467.479 172.826C467.762 172.243 468.131 171.805 468.587 171.514C469.043 171.222 469.555 171.076 470.125 171.076C471.082 171.076 471.834 171.452 472.381 172.204C472.928 172.951 473.201 173.826 473.201 174.829C473.201 175.576 473.058 176.251 472.771 176.853C472.488 177.454 472.114 177.908 471.649 178.213C471.189 178.514 470.683 178.664 470.132 178.664C469.248 178.664 468.514 178.327 467.931 177.652C467.347 176.978 467.056 176.016 467.056 174.768ZM468.669 174.87C468.669 175.604 468.812 176.16 469.1 176.538C469.387 176.912 469.733 177.099 470.139 177.099C470.535 177.099 470.875 176.91 471.157 176.531C471.44 176.153 471.581 175.595 471.581 174.856C471.581 174.136 471.438 173.587 471.15 173.209C470.863 172.831 470.519 172.642 470.118 172.642C469.722 172.642 469.38 172.831 469.093 173.209C468.81 173.587 468.669 174.141 468.669 174.87ZM475.949 178.5H474.37V171.24H475.833V172.272C476.084 171.789 476.307 171.47 476.503 171.315C476.703 171.156 476.934 171.076 477.193 171.076C477.553 171.076 477.897 171.197 478.226 171.438L477.733 173.113C477.474 172.904 477.228 172.799 476.995 172.799C476.776 172.799 476.583 172.881 476.414 173.045C476.25 173.204 476.132 173.496 476.059 173.92C475.986 174.344 475.949 175.123 475.949 176.258V178.5ZM481.63 171.24V172.771H480.557V175.697C480.557 176.331 480.573 176.698 480.604 176.798C480.668 176.98 480.798 177.071 480.994 177.071C481.14 177.071 481.35 177.01 481.623 176.887L481.76 178.377C481.395 178.568 480.983 178.664 480.522 178.664C480.121 178.664 479.8 178.568 479.559 178.377C479.317 178.186 479.155 177.91 479.073 177.55C479.009 177.285 478.978 176.748 478.978 175.937V172.771H478.253V171.24H478.978V169.798L480.557 168.677V171.24H481.63ZM482.184 176.429L483.763 176.135C483.899 176.896 484.323 177.276 485.034 177.276C485.412 177.276 485.695 177.203 485.882 177.058C486.069 176.912 486.162 176.723 486.162 176.49C486.162 176.331 486.121 176.205 486.039 176.114C485.952 176.023 485.782 175.943 485.526 175.875C484.232 175.533 483.41 175.207 483.059 174.897C482.621 174.51 482.402 173.979 482.402 173.305C482.402 172.63 482.617 172.09 483.045 171.685C483.473 171.279 484.095 171.076 484.911 171.076C485.69 171.076 486.283 171.229 486.688 171.534C487.094 171.835 487.379 172.323 487.543 172.997L486.06 173.332C485.927 172.749 485.554 172.457 484.938 172.457C484.551 172.457 484.275 172.514 484.111 172.628C483.947 172.737 483.865 172.881 483.865 173.059C483.865 173.218 483.94 173.35 484.091 173.455C484.241 173.564 484.708 173.729 485.492 173.947C486.372 174.193 486.969 174.492 487.283 174.843C487.593 175.194 487.748 175.661 487.748 176.244C487.748 176.946 487.507 177.525 487.023 177.98C486.545 178.436 485.882 178.664 485.034 178.664C484.264 178.664 483.635 178.475 483.147 178.097C482.66 177.714 482.339 177.158 482.184 176.429ZM491.494 178.671L493.873 168.308H494.687L492.301 178.671H491.494ZM440.84 194.5H439.903V184.479H440.908V188.054C441.122 187.726 441.364 187.482 441.633 187.322C441.906 187.158 442.209 187.076 442.542 187.076C443.007 187.076 443.428 187.215 443.807 187.493C444.189 187.771 444.495 188.193 444.723 188.758C444.951 189.323 445.064 190.009 445.064 190.815C445.064 192.046 444.807 192.996 444.292 193.666C443.777 194.331 443.175 194.664 442.487 194.664C442.141 194.664 441.829 194.575 441.551 194.397C441.277 194.215 441.04 193.946 440.84 193.591V194.5ZM440.826 190.815C440.826 191.567 440.895 192.13 441.031 192.504C441.168 192.878 441.362 193.162 441.612 193.358C441.863 193.554 442.141 193.652 442.446 193.652C442.861 193.652 443.228 193.42 443.547 192.955C443.87 192.486 444.032 191.786 444.032 190.856C444.032 189.904 443.877 189.204 443.567 188.758C443.257 188.311 442.877 188.088 442.426 188.088C442.011 188.088 441.64 188.323 441.312 188.792C440.988 189.257 440.826 189.931 440.826 190.815ZM450.369 192.162L451.408 192.319C451.235 193.094 450.921 193.68 450.465 194.076C450.014 194.468 449.453 194.664 448.783 194.664C447.94 194.664 447.257 194.345 446.732 193.707C446.213 193.064 445.953 192.139 445.953 190.932C445.953 189.678 446.215 188.724 446.739 188.067C447.268 187.407 447.936 187.076 448.742 187.076C449.512 187.076 450.155 187.4 450.67 188.047C451.185 188.694 451.442 189.631 451.442 190.856L451.436 191.185H446.992C447.033 192 447.222 192.616 447.56 193.03C447.897 193.445 448.307 193.652 448.79 193.652C449.547 193.652 450.073 193.156 450.369 192.162ZM447.054 190.173H450.376C450.33 189.544 450.196 189.075 449.973 188.765C449.649 188.313 449.237 188.088 448.735 188.088C448.284 188.088 447.899 188.277 447.58 188.655C447.261 189.029 447.086 189.535 447.054 190.173ZM456.583 191.841L457.574 191.998C457.46 192.864 457.173 193.525 456.713 193.98C456.257 194.436 455.708 194.664 455.065 194.664C454.286 194.664 453.644 194.345 453.138 193.707C452.636 193.064 452.386 192.117 452.386 190.863C452.386 189.601 452.639 188.655 453.145 188.026C453.655 187.393 454.309 187.076 455.106 187.076C455.722 187.076 456.239 187.268 456.658 187.65C457.082 188.033 457.353 188.607 457.472 189.373L456.494 189.558C456.398 189.065 456.232 188.699 455.995 188.457C455.758 188.211 455.473 188.088 455.141 188.088C454.644 188.088 454.231 188.309 453.903 188.751C453.58 189.188 453.418 189.886 453.418 190.843C453.418 191.832 453.573 192.547 453.883 192.989C454.197 193.431 454.598 193.652 455.086 193.652C455.469 193.652 455.795 193.507 456.063 193.215C456.337 192.919 456.51 192.461 456.583 191.841ZM462.305 193.604C461.967 193.955 461.617 194.22 461.252 194.397C460.887 194.575 460.509 194.664 460.117 194.664C459.497 194.664 459.003 194.477 458.634 194.104C458.265 193.73 458.08 193.226 458.08 192.593C458.08 192.174 458.167 191.802 458.34 191.479C458.513 191.155 458.75 190.902 459.051 190.72C459.352 190.537 459.807 190.403 460.418 190.316C461.238 190.198 461.84 190.057 462.223 189.893L462.229 189.578C462.229 189.081 462.141 188.733 461.963 188.532C461.712 188.241 461.327 188.095 460.808 188.095C460.338 188.095 459.987 188.193 459.755 188.389C459.522 188.58 459.352 188.942 459.242 189.476L458.251 189.312C458.392 188.532 458.677 187.965 459.105 187.609C459.538 187.254 460.156 187.076 460.958 187.076C461.582 187.076 462.072 187.195 462.428 187.432C462.783 187.664 463.007 187.953 463.098 188.3C463.193 188.646 463.241 189.152 463.241 189.817V191.458C463.241 192.606 463.262 193.331 463.303 193.632C463.348 193.928 463.435 194.217 463.562 194.5H462.51C462.405 194.249 462.337 193.951 462.305 193.604ZM462.223 190.856C461.854 191.039 461.304 191.194 460.575 191.321C460.151 191.394 459.855 191.479 459.687 191.574C459.518 191.665 459.386 191.798 459.29 191.971C459.199 192.139 459.153 192.335 459.153 192.559C459.153 192.905 459.26 193.183 459.475 193.393C459.689 193.598 459.985 193.7 460.363 193.7C460.723 193.7 461.049 193.607 461.341 193.42C461.637 193.233 461.858 192.985 462.004 192.675C462.15 192.36 462.223 191.905 462.223 191.308V190.856ZM468.71 194.5V193.434C468.478 193.844 468.204 194.151 467.89 194.356C467.575 194.562 467.22 194.664 466.823 194.664C466.354 194.664 465.953 194.539 465.62 194.288C465.287 194.033 465.064 193.712 464.95 193.324C464.841 192.937 464.786 192.408 464.786 191.738V187.24H465.791V191.267C465.791 192.014 465.827 192.515 465.9 192.771C465.978 193.021 466.117 193.224 466.317 193.379C466.522 193.529 466.755 193.604 467.015 193.604C467.498 193.604 467.894 193.406 468.204 193.01C468.468 192.668 468.601 192.041 468.601 191.13V187.24H469.612V194.5H468.71ZM470.809 192.333L471.807 192.142C471.866 192.652 472.028 193.033 472.292 193.283C472.556 193.529 472.907 193.652 473.345 193.652C473.782 193.652 474.119 193.545 474.356 193.331C474.598 193.112 474.719 192.837 474.719 192.504C474.719 192.217 474.616 191.993 474.411 191.834C474.27 191.725 473.928 191.588 473.386 191.424C472.602 191.182 472.078 190.977 471.813 190.809C471.549 190.64 471.344 190.414 471.198 190.132C471.052 189.849 470.979 189.528 470.979 189.168C470.979 188.548 471.178 188.045 471.574 187.657C471.971 187.27 472.52 187.076 473.222 187.076C473.664 187.076 474.051 187.156 474.384 187.315C474.721 187.475 474.979 187.689 475.156 187.958C475.334 188.227 475.457 188.612 475.525 189.113L474.541 189.277C474.45 188.484 474.019 188.088 473.249 188.088C472.812 188.088 472.486 188.177 472.271 188.354C472.057 188.528 471.95 188.751 471.95 189.024C471.95 189.293 472.053 189.505 472.258 189.66C472.381 189.751 472.745 189.897 473.352 190.098C474.186 190.367 474.726 190.581 474.972 190.74C475.218 190.895 475.409 191.109 475.546 191.383C475.683 191.652 475.751 191.973 475.751 192.347C475.751 193.039 475.53 193.6 475.088 194.028C474.65 194.457 474.051 194.671 473.29 194.671C471.864 194.671 471.036 193.892 470.809 192.333ZM481.008 192.162L482.047 192.319C481.874 193.094 481.559 193.68 481.104 194.076C480.652 194.468 480.092 194.664 479.422 194.664C478.579 194.664 477.895 194.345 477.371 193.707C476.852 193.064 476.592 192.139 476.592 190.932C476.592 189.678 476.854 188.724 477.378 188.067C477.907 187.407 478.574 187.076 479.381 187.076C480.151 187.076 480.794 187.4 481.309 188.047C481.824 188.694 482.081 189.631 482.081 190.856L482.074 191.185H477.631C477.672 192 477.861 192.616 478.198 193.03C478.535 193.445 478.946 193.652 479.429 193.652C480.185 193.652 480.712 193.156 481.008 192.162ZM477.692 190.173H481.015C480.969 189.544 480.835 189.075 480.611 188.765C480.288 188.313 479.875 188.088 479.374 188.088C478.923 188.088 478.538 188.277 478.219 188.655C477.9 189.029 477.724 189.535 477.692 190.173Z" fill="black"/>
<rect x="156.3" y="9.62862" width="206.743" height="55.7428" rx="10.8414" fill="white"/>
<rect x="156.3" y="9.62862" width="206.743" height="55.7428" rx="10.8414" stroke="black" stroke-width="1.74275"/>
<path d="M186.431 39.2454L188.084 39.1008C188.162 39.7633 188.343 40.3083 188.626 40.7358C188.915 41.1574 189.36 41.5007 189.963 41.7656C190.565 42.0246 191.242 42.1541 191.995 42.1541C192.664 42.1541 193.254 42.0547 193.766 41.856C194.278 41.6572 194.657 41.3862 194.904 41.043C195.157 40.6937 195.283 40.3143 195.283 39.9048C195.283 39.4893 195.163 39.1279 194.922 38.8208C194.681 38.5076 194.284 38.2457 193.729 38.0349C193.374 37.8964 192.588 37.6826 191.372 37.3936C190.155 37.0985 189.303 36.8215 188.815 36.5625C188.183 36.2313 187.71 35.8218 187.397 35.334C187.09 34.8402 186.937 34.2891 186.937 33.6809C186.937 33.0125 187.126 32.3892 187.506 31.811C187.885 31.2269 188.439 30.7843 189.168 30.4832C189.896 30.182 190.706 30.0315 191.598 30.0315C192.579 30.0315 193.443 30.1911 194.19 30.5103C194.943 30.8234 195.521 31.2871 195.925 31.9014C196.328 32.5156 196.545 33.2112 196.575 33.988L194.895 34.1145C194.804 33.2774 194.497 32.6451 193.973 32.2175C193.455 31.79 192.688 31.5762 191.67 31.5762C190.61 31.5762 189.836 31.7719 189.348 32.1633C188.867 32.5487 188.626 33.0155 188.626 33.5635C188.626 34.0392 188.797 34.4307 189.141 34.7378C189.478 35.0449 190.357 35.3611 191.778 35.6863C193.206 36.0055 194.184 36.2855 194.714 36.5264C195.485 36.8817 196.054 37.3333 196.421 37.8813C196.789 38.4233 196.972 39.0496 196.972 39.7603C196.972 40.4648 196.771 41.1303 196.367 41.7566C195.964 42.3769 195.383 42.8617 194.624 43.2109C193.871 43.5542 193.022 43.7258 192.076 43.7258C190.878 43.7258 189.872 43.5512 189.059 43.2019C188.252 42.8526 187.617 42.3287 187.153 41.6301C186.696 40.9255 186.455 40.1306 186.431 39.2454ZM198.553 38.7034C198.553 36.9268 199.047 35.611 200.035 34.7559C200.86 34.0452 201.865 33.6899 203.052 33.6899C204.371 33.6899 205.449 34.1235 206.286 34.9907C207.123 35.8519 207.541 37.0443 207.541 38.5679C207.541 39.8024 207.355 40.775 206.981 41.4856C206.614 42.1902 206.075 42.7382 205.364 43.1296C204.66 43.5211 203.889 43.7168 203.052 43.7168C201.709 43.7168 200.622 43.2862 199.791 42.425C198.966 41.5639 198.553 40.3233 198.553 38.7034ZM200.224 38.7034C200.224 39.9319 200.492 40.8533 201.028 41.4675C201.564 42.0758 202.239 42.3799 203.052 42.3799C203.859 42.3799 204.53 42.0728 205.066 41.4585C205.602 40.8442 205.87 39.9078 205.87 38.6492C205.87 37.4628 205.599 36.5655 205.057 35.9573C204.521 35.343 203.853 35.0359 203.052 35.0359C202.239 35.0359 201.564 35.34 201.028 35.9482C200.492 36.5565 200.224 37.4749 200.224 38.7034ZM215.716 39.9861L217.315 40.1938C217.141 41.2959 216.692 42.1601 215.969 42.7864C215.253 43.4067 214.37 43.7168 213.323 43.7168C212.01 43.7168 210.953 43.2892 210.152 42.4341C209.357 41.5729 208.959 40.3414 208.959 38.7395C208.959 37.7037 209.131 36.7974 209.474 36.0205C209.818 35.2437 210.339 34.6625 211.037 34.2771C211.742 33.8857 212.507 33.6899 213.332 33.6899C214.373 33.6899 215.226 33.9549 215.888 34.4849C216.55 35.0088 216.975 35.7555 217.162 36.7251L215.581 36.969C215.43 36.3246 215.162 35.8398 214.777 35.5146C214.397 35.1895 213.937 35.0269 213.395 35.0269C212.576 35.0269 211.91 35.3219 211.398 35.9121C210.887 36.4963 210.631 37.4237 210.631 38.6943C210.631 39.9831 210.878 40.9195 211.371 41.5037C211.865 42.0878 212.51 42.3799 213.304 42.3799C213.943 42.3799 214.476 42.1842 214.903 41.7927C215.331 41.4013 215.602 40.7991 215.716 39.9861ZM218.688 43.5V33.9067H220.152V35.3611C220.525 34.6806 220.868 34.2319 221.181 34.0151C221.501 33.7983 221.85 33.6899 222.229 33.6899C222.777 33.6899 223.334 33.8646 223.9 34.2139L223.34 35.7224C222.943 35.4875 222.545 35.3701 222.148 35.3701C221.793 35.3701 221.473 35.4785 221.19 35.6953C220.907 35.9061 220.706 36.2012 220.585 36.5806C220.405 37.1587 220.314 37.791 220.314 38.4775V43.5H218.688ZM231.127 42.3167C230.525 42.8285 229.944 43.1899 229.384 43.4006C228.83 43.6114 228.233 43.7168 227.595 43.7168C226.541 43.7168 225.731 43.4609 225.165 42.949C224.599 42.4311 224.316 41.7716 224.316 40.9707C224.316 40.501 224.421 40.0734 224.632 39.688C224.849 39.2965 225.129 38.9834 225.472 38.7485C225.821 38.5137 226.213 38.336 226.646 38.2156C226.966 38.1313 227.447 38.05 228.092 37.9717C229.405 37.8151 230.371 37.6284 230.991 37.4116C230.997 37.1888 231 37.0473 231 36.9871C231 36.3246 230.847 35.8579 230.54 35.5869C230.124 35.2196 229.507 35.0359 228.688 35.0359C227.923 35.0359 227.357 35.1714 226.99 35.4424C226.628 35.7074 226.36 36.1801 226.186 36.8606L224.596 36.6438C224.74 35.9633 224.978 35.4153 225.31 34.9998C225.641 34.5782 226.12 34.256 226.746 34.0332C227.372 33.8044 228.098 33.6899 228.923 33.6899C229.742 33.6899 230.407 33.7863 230.919 33.979C231.431 34.1717 231.807 34.4156 232.048 34.7107C232.289 34.9998 232.458 35.3671 232.554 35.8127C232.608 36.0898 232.635 36.5896 232.635 37.3123V39.4802C232.635 40.9918 232.669 41.9493 232.735 42.3528C232.807 42.7502 232.946 43.1326 233.15 43.5H231.452C231.284 43.1628 231.175 42.7683 231.127 42.3167ZM230.991 38.6853C230.401 38.9262 229.516 39.1309 228.336 39.2996C227.667 39.3959 227.194 39.5043 226.917 39.6248C226.64 39.7452 226.427 39.9229 226.276 40.1577C226.126 40.3866 226.05 40.6425 226.05 40.9255C226.05 41.3591 226.213 41.7205 226.538 42.0095C226.869 42.2986 227.351 42.4431 227.983 42.4431C228.61 42.4431 229.167 42.3076 229.655 42.0366C230.142 41.7596 230.501 41.3832 230.729 40.9075C230.904 40.5401 230.991 39.9981 230.991 39.2815V38.6853ZM238.715 42.0457L238.95 43.4819C238.492 43.5783 238.083 43.6265 237.721 43.6265C237.131 43.6265 236.673 43.5331 236.348 43.3464C236.023 43.1597 235.794 42.9159 235.662 42.6147C235.529 42.3076 235.463 41.6663 235.463 40.6907V35.1714H234.271V33.9067H235.463V31.531L237.08 30.5554V33.9067H238.715V35.1714H237.08V40.781C237.08 41.2447 237.107 41.5428 237.161 41.6753C237.221 41.8078 237.315 41.9132 237.441 41.9915C237.574 42.0697 237.76 42.1089 238.001 42.1089C238.182 42.1089 238.42 42.0878 238.715 42.0457ZM246.881 40.4106L248.561 40.6184C248.296 41.6 247.805 42.3618 247.089 42.9038C246.372 43.4458 245.457 43.7168 244.343 43.7168C242.939 43.7168 241.825 43.2862 241 42.425C240.181 41.5579 239.772 40.3444 239.772 38.7847C239.772 37.1707 240.187 35.9181 241.018 35.0269C241.849 34.1356 242.927 33.6899 244.252 33.6899C245.535 33.6899 246.583 34.1265 247.396 34.9998C248.209 35.873 248.615 37.1015 248.615 38.6853C248.615 38.7817 248.612 38.9262 248.606 39.1189H241.452C241.512 40.1728 241.81 40.9797 242.346 41.5398C242.882 42.0999 243.551 42.3799 244.352 42.3799C244.948 42.3799 245.457 42.2233 245.878 41.9102C246.3 41.597 246.634 41.0972 246.881 40.4106ZM241.542 37.782H246.899C246.827 36.975 246.622 36.3698 246.285 35.9663C245.767 35.34 245.095 35.0269 244.27 35.0269C243.524 35.0269 242.894 35.2768 242.382 35.7766C241.876 36.2764 241.596 36.9449 241.542 37.782ZM249.961 40.6365L251.569 40.3835C251.659 41.0279 251.909 41.5217 252.319 41.865C252.734 42.2083 253.312 42.3799 254.053 42.3799C254.8 42.3799 255.354 42.2293 255.715 41.9282C256.077 41.6211 256.257 41.2628 256.257 40.8533C256.257 40.4859 256.098 40.1969 255.779 39.9861C255.556 39.8416 255.002 39.6579 254.116 39.4351C252.924 39.134 252.096 38.875 251.632 38.6582C251.175 38.4354 250.825 38.1313 250.584 37.7458C250.35 37.3544 250.232 36.9238 250.232 36.4541C250.232 36.0265 250.329 35.6321 250.521 35.2708C250.72 34.9034 250.988 34.5993 251.325 34.3584C251.578 34.1717 251.921 34.0151 252.355 33.8887C252.795 33.7562 253.264 33.6899 253.764 33.6899C254.517 33.6899 255.176 33.7983 255.742 34.0151C256.315 34.2319 256.736 34.527 257.007 34.9004C257.278 35.2677 257.465 35.7616 257.567 36.3818L255.977 36.5986C255.905 36.1048 255.694 35.7194 255.345 35.4424C255.002 35.1654 254.514 35.0269 253.882 35.0269C253.135 35.0269 252.602 35.1503 252.283 35.3972C251.964 35.6441 251.804 35.9332 251.804 36.2644C251.804 36.4752 251.87 36.6649 252.003 36.8335C252.135 37.0081 252.343 37.1527 252.626 37.2671C252.789 37.3273 253.267 37.4658 254.062 37.6826C255.212 37.9897 256.013 38.2427 256.465 38.4414C256.923 38.6341 257.281 38.9172 257.54 39.2905C257.799 39.6639 257.928 40.1276 257.928 40.6816C257.928 41.2236 257.769 41.7355 257.45 42.2173C257.137 42.693 256.682 43.0634 256.086 43.3284C255.49 43.5873 254.815 43.7168 254.062 43.7168C252.816 43.7168 251.864 43.4578 251.208 42.9399C250.557 42.422 250.142 41.6542 249.961 40.6365ZM265.02 32.1272V30.2573H266.646V32.1272H265.02ZM265.02 43.5V33.9067H266.646V43.5H265.02ZM268.479 40.6365L270.087 40.3835C270.177 41.0279 270.427 41.5217 270.837 41.865C271.252 42.2083 271.831 42.3799 272.571 42.3799C273.318 42.3799 273.872 42.2293 274.233 41.9282C274.595 41.6211 274.775 41.2628 274.775 40.8533C274.775 40.4859 274.616 40.1969 274.297 39.9861C274.074 39.8416 273.52 39.6579 272.635 39.4351C271.442 39.134 270.614 38.875 270.15 38.6582C269.693 38.4354 269.343 38.1313 269.103 37.7458C268.868 37.3544 268.75 36.9238 268.75 36.4541C268.75 36.0265 268.847 35.6321 269.039 35.2708C269.238 34.9034 269.506 34.5993 269.843 34.3584C270.096 34.1717 270.439 34.0151 270.873 33.8887C271.313 33.7562 271.782 33.6899 272.282 33.6899C273.035 33.6899 273.694 33.7983 274.26 34.0151C274.833 34.2319 275.254 34.527 275.525 34.9004C275.796 35.2677 275.983 35.7616 276.085 36.3818L274.495 36.5986C274.423 36.1048 274.212 35.7194 273.863 35.4424C273.52 35.1654 273.032 35.0269 272.4 35.0269C271.653 35.0269 271.12 35.1503 270.801 35.3972C270.482 35.6441 270.322 35.9332 270.322 36.2644C270.322 36.4752 270.388 36.6649 270.521 36.8335C270.653 37.0081 270.861 37.1527 271.144 37.2671C271.307 37.3273 271.785 37.4658 272.58 37.6826C273.731 37.9897 274.531 38.2427 274.983 38.4414C275.441 38.6341 275.799 38.9172 276.058 39.2905C276.317 39.6639 276.447 40.1276 276.447 40.6816C276.447 41.2236 276.287 41.7355 275.968 42.2173C275.655 42.693 275.2 43.0634 274.604 43.3284C274.008 43.5873 273.333 43.7168 272.58 43.7168C271.334 43.7168 270.382 43.4578 269.726 42.9399C269.075 42.422 268.66 41.6542 268.479 40.6365ZM283.529 43.5V33.9067H284.983V35.2527C285.284 34.783 285.684 34.4066 286.184 34.1235C286.684 33.8345 287.253 33.6899 287.892 33.6899C288.602 33.6899 289.183 33.8375 289.635 34.1326C290.093 34.4277 290.415 34.8402 290.602 35.3701C291.36 34.25 292.348 33.6899 293.564 33.6899C294.516 33.6899 295.248 33.9549 295.76 34.4849C296.271 35.0088 296.527 35.8188 296.527 36.9148V43.5H294.91V37.4568C294.91 36.8064 294.856 36.3397 294.748 36.0566C294.645 35.7676 294.456 35.5357 294.179 35.3611C293.902 35.1864 293.576 35.0991 293.203 35.0991C292.529 35.0991 291.969 35.325 291.523 35.7766C291.077 36.2222 290.854 36.9389 290.854 37.9265V43.5H289.229V37.2671C289.229 36.5444 289.096 36.0024 288.831 35.6411C288.566 35.2798 288.132 35.0991 287.53 35.0991C287.073 35.0991 286.648 35.2196 286.257 35.4604C285.871 35.7013 285.591 36.0536 285.417 36.5173C285.242 36.981 285.155 37.6495 285.155 38.5227V43.5H283.529ZM298.334 38.7034C298.334 36.9268 298.828 35.611 299.815 34.7559C300.64 34.0452 301.646 33.6899 302.833 33.6899C304.151 33.6899 305.229 34.1235 306.066 34.9907C306.903 35.8519 307.322 37.0443 307.322 38.5679C307.322 39.8024 307.135 40.775 306.762 41.4856C306.395 42.1902 305.856 42.7382 305.145 43.1296C304.44 43.5211 303.67 43.7168 302.833 43.7168C301.49 43.7168 300.403 43.2862 299.572 42.425C298.747 41.5639 298.334 40.3233 298.334 38.7034ZM300.005 38.7034C300.005 39.9319 300.273 40.8533 300.809 41.4675C301.345 42.0758 302.02 42.3799 302.833 42.3799C303.639 42.3799 304.311 42.0728 304.847 41.4585C305.383 40.8442 305.651 39.9078 305.651 38.6492C305.651 37.4628 305.38 36.5655 304.838 35.9573C304.302 35.343 303.633 35.0359 302.833 35.0359C302.02 35.0359 301.345 35.34 300.809 35.9482C300.273 36.5565 300.005 37.4749 300.005 38.7034ZM309.219 43.5V33.9067H310.682V35.3611C311.056 34.6806 311.399 34.2319 311.712 34.0151C312.031 33.7983 312.381 33.6899 312.76 33.6899C313.308 33.6899 313.865 33.8646 314.431 34.2139L313.871 35.7224C313.474 35.4875 313.076 35.3701 312.679 35.3701C312.323 35.3701 312.004 35.4785 311.721 35.6953C311.438 35.9061 311.236 36.2012 311.116 36.5806C310.935 37.1587 310.845 37.791 310.845 38.4775V43.5H309.219ZM318.948 42.0457L319.183 43.4819C318.725 43.5783 318.315 43.6265 317.954 43.6265C317.364 43.6265 316.906 43.5331 316.581 43.3464C316.256 43.1597 316.027 42.9159 315.895 42.6147C315.762 42.3076 315.696 41.6663 315.696 40.6907V35.1714H314.503V33.9067H315.696V31.531L317.313 30.5554V33.9067H318.948V35.1714H317.313V40.781C317.313 41.2447 317.34 41.5428 317.394 41.6753C317.454 41.8078 317.548 41.9132 317.674 41.9915C317.807 42.0697 317.993 42.1089 318.234 42.1089C318.415 42.1089 318.653 42.0878 318.948 42.0457ZM326.807 42.3167C326.204 42.8285 325.623 43.1899 325.063 43.4006C324.509 43.6114 323.913 43.7168 323.275 43.7168C322.221 43.7168 321.411 43.4609 320.845 42.949C320.279 42.4311 319.996 41.7716 319.996 40.9707C319.996 40.501 320.101 40.0734 320.312 39.688C320.529 39.2965 320.809 38.9834 321.152 38.7485C321.501 38.5137 321.893 38.336 322.326 38.2156C322.645 38.1313 323.127 38.05 323.771 37.9717C325.084 37.8151 326.051 37.6284 326.671 37.4116C326.677 37.1888 326.68 37.0473 326.68 36.9871C326.68 36.3246 326.527 35.8579 326.219 35.5869C325.804 35.2196 325.187 35.0359 324.368 35.0359C323.603 35.0359 323.037 35.1714 322.669 35.4424C322.308 35.7074 322.04 36.1801 321.865 36.8606L320.276 36.6438C320.42 35.9633 320.658 35.4153 320.989 34.9998C321.32 34.5782 321.799 34.256 322.426 34.0332C323.052 33.8044 323.778 33.6899 324.603 33.6899C325.422 33.6899 326.087 33.7863 326.599 33.979C327.111 34.1717 327.487 34.4156 327.728 34.7107C327.969 34.9998 328.138 35.3671 328.234 35.8127C328.288 36.0898 328.315 36.5896 328.315 37.3123V39.4802C328.315 40.9918 328.348 41.9493 328.415 42.3528C328.487 42.7502 328.625 43.1326 328.83 43.5H327.132C326.963 43.1628 326.855 42.7683 326.807 42.3167ZM326.671 38.6853C326.081 38.9262 325.196 39.1309 324.015 39.2996C323.347 39.3959 322.874 39.5043 322.597 39.6248C322.32 39.7452 322.106 39.9229 321.956 40.1577C321.805 40.3866 321.73 40.6425 321.73 40.9255C321.73 41.3591 321.893 41.7205 322.218 42.0095C322.549 42.2986 323.031 42.4431 323.663 42.4431C324.289 42.4431 324.846 42.3076 325.334 42.0366C325.822 41.7596 326.18 41.3832 326.409 40.9075C326.584 40.5401 326.671 39.9981 326.671 39.2815V38.6853ZM330.808 43.5V30.2573H332.434V43.5H330.808Z" fill="black"/>
<path fill-rule="evenodd" clip-rule="evenodd" d="M388.369 87.1704C386.6 85.4015 383.732 85.4015 381.963 87.1704L348.135 120.999L335.716 108.579C333.947 106.811 331.08 106.811 329.311 108.579C327.542 110.348 327.542 113.216 329.311 114.985L341.73 127.404L341.727 127.407L344.02 129.701C346.166 131.846 349.571 131.965 351.856 130.056C351.991 129.944 352.122 129.824 352.248 129.697L354.541 127.405L354.541 127.404L388.369 93.576C390.138 91.8071 390.138 88.9392 388.369 87.1704Z" fill="#00FF00"/>
<defs>
<linearGradient id="paint0_linear_2272_59" x1="258.672" y1="153.5" x2="258.672" y2="229.819" gradientUnits="userSpaceOnUse">
<stop stop-color="#55D555"/>
<stop offset="0.09" stop-color="#55D555"/>
<stop offset="1" stop-color="#55D555" stop-opacity="0"/>
</linearGradient>
<linearGradient id="paint1_linear_2272_59" x1="258.672" y1="153.5" x2="258.672" y2="229.819" gradientUnits="userSpaceOnUse">
<stop stop-color="#55D555"/>
<stop offset="0.09" stop-color="#55D555"/>
<stop offset="1" stop-color="#55D555" stop-opacity="0"/>
</linearGradient>
</defs>
</svg>
