<svg width="476" height="276" viewBox="0 0 476 276" fill="none" xmlns="http://www.w3.org/2000/svg">
<rect width="476" height="275.2" fill="white"/>
<rect width="466" height="265.2" transform="translate(5 5)" fill="white"/>
<path d="M240 83C240 83 240 100 240.5 111.424C241.275 129.141 244.5 154.996 255.5 154.996C255.5 154.996 253.695 161.328 253.695 163.995H222.289L220.5 154.996C231.5 154.996 234.725 129.141 235.5 111.424C236 100 236 83 236 83H240Z" fill="#53D453"/>
<path d="M248.5 79.5H227.5V81H248.5V79.5Z" fill="#53D453"/>
<rect x="102.629" y="14.1286" width="270.743" height="61.7428" rx="10.8414" fill="white"/>
<rect x="102.629" y="14.1286" width="270.743" height="61.7428" rx="10.8414" stroke="black" stroke-width="1.74275"/>
<path d="M122.276 51H120.438V37.0656H122.276V51ZM126.745 38.5682H115.979V37.0656H126.745V38.5682ZM130.324 51H128.535V36.3H130.324V51ZM129.157 45.3918C129.17 44.4475 129.351 43.6053 129.702 42.8652C130.053 42.1187 130.541 41.5318 131.167 41.1043C131.798 40.6704 132.532 40.4535 133.368 40.4535C134.05 40.4535 134.637 40.5811 135.129 40.8363C135.626 41.0852 136.009 41.4839 136.277 42.0326C136.551 42.5813 136.689 43.3087 136.689 44.2146V51H134.899V44.1955C134.899 43.6532 134.819 43.2161 134.66 42.8844C134.507 42.5526 134.277 42.3133 133.971 42.1666C133.664 42.0135 133.288 41.9369 132.841 41.9369C132.401 41.9369 132.002 42.0294 131.645 42.2145C131.288 42.3995 130.978 42.6547 130.717 42.9801C130.455 43.3055 130.254 43.6787 130.114 44.0998C129.974 44.5145 129.903 44.9548 129.903 45.4205L129.157 45.3918ZM143.637 51.1914C142.673 51.1914 141.834 50.9777 141.12 50.5502C140.412 50.1163 139.86 49.523 139.464 48.7701C139.075 48.0173 138.88 47.1559 138.88 46.1861V45.7746C138.88 44.6517 139.094 43.6947 139.521 42.9035C139.955 42.106 140.517 41.4999 141.206 41.0852C141.901 40.6641 142.635 40.4535 143.407 40.4535C144.402 40.4535 145.213 40.6768 145.838 41.1234C146.47 41.5637 146.932 42.1666 147.226 42.9322C147.525 43.6915 147.675 44.5528 147.675 45.5162V46.3105H139.943V44.875H145.886V44.741C145.86 44.2816 145.768 43.835 145.608 43.4012C145.449 42.9609 145.193 42.6005 144.843 42.3197C144.492 42.0326 144.013 41.8891 143.407 41.8891C142.871 41.8891 142.396 42.0422 141.981 42.3484C141.573 42.6483 141.251 43.0885 141.014 43.6691C140.785 44.2434 140.67 44.9452 140.67 45.7746V46.1861C140.67 46.8433 140.791 47.443 141.034 47.9854C141.276 48.5213 141.627 48.952 142.086 49.2773C142.546 49.5964 143.094 49.7559 143.732 49.7559C144.358 49.7559 144.887 49.6283 145.321 49.373C145.755 49.1178 146.135 48.7765 146.46 48.349L147.541 49.1912C147.21 49.7016 146.731 50.1642 146.106 50.5789C145.487 50.9872 144.664 51.1914 143.637 51.1914ZM155.475 51V39.5443C155.475 38.4342 155.778 37.5824 156.384 36.9891C156.997 36.3957 157.833 36.099 158.892 36.099C159.096 36.099 159.3 36.1118 159.504 36.1373C159.708 36.1628 159.909 36.2011 160.107 36.2521L160.012 37.6781C159.878 37.6526 159.724 37.6335 159.552 37.6207C159.386 37.6079 159.22 37.6016 159.054 37.6016C158.493 37.6016 158.053 37.7706 157.734 38.1088C157.421 38.4406 157.265 38.9191 157.265 39.5443V51H155.475ZM159.466 41.9943H153.848V40.6449H159.466V41.9943ZM160.959 45.7172C160.959 44.7155 161.15 43.8191 161.533 43.0279C161.916 42.2368 162.458 41.6115 163.16 41.1521C163.862 40.6864 164.695 40.4535 165.658 40.4535C166.634 40.4535 167.476 40.6864 168.185 41.1521C168.893 41.6115 169.435 42.2368 169.812 43.0279C170.194 43.8191 170.386 44.7155 170.386 45.7172V45.9373C170.386 46.9326 170.194 47.829 169.812 48.6266C169.435 49.4177 168.893 50.043 168.185 50.5023C167.483 50.9617 166.647 51.1914 165.677 51.1914C164.707 51.1914 163.868 50.9617 163.16 50.5023C162.458 50.043 161.916 49.4177 161.533 48.6266C161.15 47.829 160.959 46.9326 160.959 45.9373V45.7172ZM162.749 45.9373C162.749 46.62 162.857 47.2516 163.074 47.8322C163.291 48.4128 163.613 48.8786 164.041 49.2295C164.474 49.5804 165.02 49.7559 165.677 49.7559C166.328 49.7559 166.867 49.5804 167.295 49.2295C167.728 48.8786 168.054 48.4128 168.271 47.8322C168.488 47.2516 168.596 46.62 168.596 45.9373V45.7172C168.596 45.0345 168.488 44.4029 168.271 43.8223C168.054 43.2417 167.728 42.7759 167.295 42.425C166.861 42.0677 166.315 41.8891 165.658 41.8891C165.014 41.8891 164.474 42.0677 164.041 42.425C163.607 42.7759 163.281 43.2417 163.064 43.8223C162.854 44.4029 162.749 45.0345 162.749 45.7172V45.9373ZM172.156 45.7172C172.156 44.7155 172.348 43.8191 172.73 43.0279C173.113 42.2368 173.656 41.6115 174.357 41.1521C175.059 40.6864 175.892 40.4535 176.855 40.4535C177.831 40.4535 178.674 40.6864 179.382 41.1521C180.09 41.6115 180.632 42.2368 181.009 43.0279C181.392 43.8191 181.583 44.7155 181.583 45.7172V45.9373C181.583 46.9326 181.392 47.829 181.009 48.6266C180.632 49.4177 180.09 50.043 179.382 50.5023C178.68 50.9617 177.844 51.1914 176.874 51.1914C175.905 51.1914 175.066 50.9617 174.357 50.5023C173.656 50.043 173.113 49.4177 172.73 48.6266C172.348 47.829 172.156 46.9326 172.156 45.9373V45.7172ZM173.946 45.9373C173.946 46.62 174.054 47.2516 174.271 47.8322C174.488 48.4128 174.81 48.8786 175.238 49.2295C175.672 49.5804 176.217 49.7559 176.874 49.7559C177.525 49.7559 178.064 49.5804 178.492 49.2295C178.926 48.8786 179.251 48.4128 179.468 47.8322C179.685 47.2516 179.793 46.62 179.793 45.9373V45.7172C179.793 45.0345 179.685 44.4029 179.468 43.8223C179.251 43.2417 178.926 42.7759 178.492 42.425C178.058 42.0677 177.512 41.8891 176.855 41.8891C176.211 41.8891 175.672 42.0677 175.238 42.425C174.804 42.7759 174.479 43.2417 174.262 43.8223C174.051 44.4029 173.946 45.0345 173.946 45.7172V45.9373ZM188.167 41.9943H182.559V40.6449H188.167V41.9943ZM186.234 38.1279V48.4352C186.234 48.7924 186.288 49.0604 186.397 49.2391C186.505 49.4177 186.646 49.5357 186.818 49.5932C186.99 49.6506 187.175 49.6793 187.373 49.6793C187.52 49.6793 187.673 49.6665 187.832 49.641C187.998 49.6155 188.12 49.5932 188.196 49.574V51C188.056 51.0447 187.874 51.0861 187.651 51.1244C187.427 51.1691 187.156 51.1914 186.837 51.1914C186.403 51.1914 186.004 51.1053 185.641 50.933C185.277 50.7607 184.987 50.4736 184.77 50.0717C184.553 49.6633 184.445 49.1146 184.445 48.4256V38.1279H186.234ZM194.981 51.1914C194.101 51.1914 193.367 50.9936 192.78 50.598C192.193 50.1961 191.737 49.6314 191.412 48.9041C191.086 48.1704 190.873 47.3027 190.771 46.301V45.3727C190.873 44.3582 191.086 43.4841 191.412 42.7504C191.737 42.0167 192.19 41.452 192.771 41.0564C193.358 40.6545 194.088 40.4535 194.962 40.4535C195.83 40.4535 196.564 40.6736 197.163 41.1139C197.763 41.5541 198.219 42.173 198.532 42.9705C198.845 43.7617 199.001 44.6836 199.001 45.7363V45.9373C199.001 46.9454 198.845 47.845 198.532 48.6361C198.219 49.4273 197.763 50.0525 197.163 50.5119C196.564 50.9649 195.836 51.1914 194.981 51.1914ZM190.225 51V36.3H192.015V48.9902L191.862 51H190.225ZM194.532 49.6984C195.17 49.6984 195.683 49.5294 196.072 49.1912C196.468 48.8467 196.755 48.3905 196.934 47.8227C197.119 47.2548 197.211 46.6264 197.211 45.9373V45.7363C197.211 45.0473 197.125 44.4156 196.953 43.8414C196.781 43.2608 196.497 42.7982 196.101 42.4537C195.712 42.1092 195.182 41.9369 194.512 41.9369C194.072 41.9369 193.686 42.0135 193.354 42.1666C193.029 42.3197 192.752 42.5271 192.522 42.7887C192.292 43.0439 192.104 43.3374 191.957 43.6691C191.817 43.9945 191.712 44.3327 191.641 44.6836V47.0092C191.743 47.4558 191.909 47.8865 192.139 48.3012C192.369 48.7095 192.678 49.0445 193.067 49.3061C193.463 49.5676 193.951 49.6984 194.532 49.6984ZM207.337 43.8988C207.337 43.2799 207.152 42.7887 206.782 42.425C206.418 42.0549 205.879 41.8699 205.164 41.8699C204.724 41.8699 204.335 41.9465 203.997 42.0996C203.665 42.2527 203.407 42.4537 203.221 42.7025C203.036 42.9514 202.944 43.2225 202.944 43.516H201.154C201.154 43.0184 201.323 42.5367 201.662 42.0709C202 41.5988 202.475 41.2128 203.087 40.9129C203.706 40.6066 204.434 40.4535 205.27 40.4535C206.022 40.4535 206.689 40.5811 207.27 40.8363C207.85 41.0915 208.303 41.4775 208.629 41.9943C208.96 42.5048 209.126 43.146 209.126 43.918V48.7414C209.126 49.0859 209.155 49.4528 209.212 49.842C209.276 50.2312 209.369 50.5661 209.49 50.8469V51H207.624C207.535 50.7958 207.464 50.5247 207.413 50.1865C207.362 49.842 207.337 49.523 207.337 49.2295V43.8988ZM207.643 45.966H205.882C204.874 45.966 204.096 46.1255 203.547 46.4445C202.998 46.7635 202.724 47.2421 202.724 47.8801C202.724 48.3777 202.89 48.7988 203.221 49.1434C203.56 49.4879 204.051 49.6602 204.695 49.6602C205.238 49.6602 205.716 49.5453 206.131 49.3156C206.546 49.0859 206.874 48.802 207.117 48.4639C207.359 48.1257 207.49 47.8003 207.509 47.4877L208.275 48.3395C208.23 48.6074 208.109 48.9041 207.911 49.2295C207.713 49.5549 207.448 49.8675 207.117 50.1674C206.791 50.4609 206.402 50.7065 205.949 50.9043C205.502 51.0957 204.998 51.1914 204.437 51.1914C203.735 51.1914 203.119 51.0574 202.59 50.7895C202.067 50.5151 201.658 50.1451 201.365 49.6793C201.078 49.2135 200.934 48.6967 200.934 48.1289C200.934 47.0124 201.355 46.167 202.197 45.5928C203.04 45.0122 204.172 44.7219 205.595 44.7219H207.643V45.966ZM213.854 51H212.064V36.3H213.854V51ZM218.62 51H216.83V36.3H218.62V51ZM228.095 51H226.305V36.3H228.095V51ZM226.927 45.3918C226.94 44.4475 227.122 43.6053 227.473 42.8652C227.824 42.1187 228.312 41.5318 228.937 41.1043C229.569 40.6704 230.302 40.4535 231.138 40.4535C231.821 40.4535 232.408 40.5811 232.899 40.8363C233.397 41.0852 233.779 41.4839 234.047 42.0326C234.322 42.5813 234.459 43.3087 234.459 44.2146V51H232.669V44.1955C232.669 43.6532 232.59 43.2161 232.43 42.8844C232.277 42.5526 232.047 42.3133 231.741 42.1666C231.435 42.0135 231.058 41.9369 230.612 41.9369C230.171 41.9369 229.773 42.0294 229.415 42.2145C229.058 42.3995 228.749 42.6547 228.487 42.9801C228.226 43.3055 228.025 43.6787 227.884 44.0998C227.744 44.5145 227.674 44.9548 227.674 45.4205L226.927 45.3918ZM243.206 43.8988C243.206 43.2799 243.021 42.7887 242.651 42.425C242.288 42.0549 241.748 41.8699 241.034 41.8699C240.594 41.8699 240.204 41.9465 239.866 42.0996C239.534 42.2527 239.276 42.4537 239.091 42.7025C238.906 42.9514 238.813 43.2225 238.813 43.516H237.024C237.024 43.0184 237.193 42.5367 237.531 42.0709C237.869 41.5988 238.345 41.2128 238.957 40.9129C239.576 40.6066 240.303 40.4535 241.139 40.4535C241.892 40.4535 242.559 40.5811 243.139 40.8363C243.72 41.0915 244.173 41.4775 244.498 41.9943C244.83 42.5048 244.996 43.146 244.996 43.918V48.7414C244.996 49.0859 245.025 49.4528 245.082 49.842C245.146 50.2312 245.238 50.5661 245.36 50.8469V51H243.493C243.404 50.7958 243.334 50.5247 243.283 50.1865C243.232 49.842 243.206 49.523 243.206 49.2295V43.8988ZM243.513 45.966H241.752C240.743 45.966 239.965 46.1255 239.416 46.4445C238.868 46.7635 238.593 47.2421 238.593 47.8801C238.593 48.3777 238.759 48.7988 239.091 49.1434C239.429 49.4879 239.92 49.6602 240.565 49.6602C241.107 49.6602 241.586 49.5453 242 49.3156C242.415 49.0859 242.744 48.802 242.986 48.4639C243.229 48.1257 243.359 47.8003 243.379 47.4877L244.144 48.3395C244.099 48.6074 243.978 48.9041 243.78 49.2295C243.583 49.5549 243.318 49.8675 242.986 50.1674C242.661 50.4609 242.272 50.7065 241.819 50.9043C241.372 51.0957 240.868 51.1914 240.306 51.1914C239.605 51.1914 238.989 51.0574 238.459 50.7895C237.936 50.5151 237.528 50.1451 237.234 49.6793C236.947 49.2135 236.804 48.6967 236.804 48.1289C236.804 47.0124 237.225 46.167 238.067 45.5928C238.909 45.0122 240.042 44.7219 241.464 44.7219H243.513V45.966ZM251.59 51.1914C250.677 51.1914 249.905 51.0287 249.274 50.7033C248.642 50.3779 248.164 49.96 247.838 49.4496C247.513 48.9328 247.35 48.3873 247.35 47.8131H249.14C249.172 48.298 249.312 48.684 249.561 48.9711C249.816 49.2518 250.126 49.4528 250.489 49.574C250.859 49.6952 251.226 49.7559 251.59 49.7559C252.075 49.7559 252.48 49.6921 252.805 49.5645C253.137 49.4305 253.386 49.2518 253.552 49.0285C253.724 48.7988 253.81 48.5404 253.81 48.2533C253.81 47.9981 253.753 47.762 253.638 47.5451C253.529 47.3218 253.306 47.1208 252.968 46.9422C252.63 46.7572 252.119 46.5945 251.437 46.4541C250.671 46.2946 250.008 46.0936 249.446 45.8512C248.891 45.6023 248.46 45.2865 248.154 44.9037C247.854 44.5209 247.704 44.0456 247.704 43.4777C247.704 42.929 247.861 42.4282 248.173 41.9752C248.492 41.5158 248.939 41.149 249.513 40.8746C250.094 40.5939 250.77 40.4535 251.542 40.4535C252.371 40.4535 253.08 40.6003 253.667 40.8937C254.26 41.1809 254.713 41.5701 255.026 42.0613C255.338 42.5462 255.495 43.0854 255.495 43.6787H253.705C253.705 43.2512 253.517 42.8461 253.14 42.4633C252.77 42.0805 252.237 41.8891 251.542 41.8891C251.057 41.8891 250.662 41.9656 250.355 42.1187C250.055 42.2655 249.835 42.4569 249.695 42.693C249.561 42.9227 249.494 43.1651 249.494 43.4203C249.494 43.6755 249.558 43.8988 249.685 44.0902C249.813 44.2753 250.046 44.4411 250.384 44.5879C250.729 44.7346 251.226 44.8814 251.877 45.0281C252.726 45.2195 253.424 45.4492 253.973 45.7172C254.522 45.9852 254.93 46.3137 255.198 46.7029C255.466 47.0921 255.6 47.5674 255.6 48.1289C255.6 48.7286 255.434 49.2614 255.102 49.7271C254.77 50.1865 254.305 50.547 253.705 50.8086C253.105 51.0638 252.4 51.1914 251.59 51.1914ZM268.874 43.8988C268.874 43.2799 268.689 42.7887 268.319 42.425C267.955 42.0549 267.416 41.8699 266.701 41.8699C266.261 41.8699 265.872 41.9465 265.534 42.0996C265.202 42.2527 264.944 42.4537 264.759 42.7025C264.574 42.9514 264.481 43.2225 264.481 43.516H262.691C262.691 43.0184 262.86 42.5367 263.199 42.0709C263.537 41.5988 264.012 41.2128 264.625 40.9129C265.243 40.6066 265.971 40.4535 266.807 40.4535C267.56 40.4535 268.226 40.5811 268.807 40.8363C269.387 41.0915 269.84 41.4775 270.166 41.9943C270.498 42.5048 270.663 43.146 270.663 43.918V48.7414C270.663 49.0859 270.692 49.4528 270.75 49.842C270.813 50.2312 270.906 50.5661 271.027 50.8469V51H269.161C269.072 50.7958 269.001 50.5247 268.95 50.1865C268.899 49.842 268.874 49.523 268.874 49.2295V43.8988ZM269.18 45.966H267.419C266.411 45.966 265.633 46.1255 265.084 46.4445C264.535 46.7635 264.261 47.2421 264.261 47.8801C264.261 48.3777 264.427 48.7988 264.759 49.1434C265.097 49.4879 265.588 49.6602 266.232 49.6602C266.775 49.6602 267.253 49.5453 267.668 49.3156C268.083 49.0859 268.411 48.802 268.654 48.4639C268.896 48.1257 269.027 47.8003 269.046 47.4877L269.812 48.3395C269.767 48.6074 269.646 48.9041 269.448 49.2295C269.25 49.5549 268.985 49.8675 268.654 50.1674C268.328 50.4609 267.939 50.7065 267.486 50.9043C267.04 51.0957 266.535 51.1914 265.974 51.1914C265.272 51.1914 264.657 51.0574 264.127 50.7895C263.604 50.5151 263.195 50.1451 262.902 49.6793C262.615 49.2135 262.471 48.6967 262.471 48.1289C262.471 47.0124 262.892 46.167 263.735 45.5928C264.577 45.0122 265.709 44.7219 267.132 44.7219H269.18V45.966ZM283.057 51.1914C282.393 51.1914 281.81 51.0829 281.306 50.866C280.802 50.6491 280.374 50.3365 280.023 49.9281C279.672 49.5134 279.392 49.0189 279.181 48.4447C278.977 47.8641 278.837 47.2102 278.76 46.4828V45.3727C278.862 44.3582 279.082 43.4841 279.42 42.7504C279.765 42.0167 280.234 41.452 280.827 41.0564C281.427 40.6545 282.161 40.4535 283.028 40.4535C283.896 40.4535 284.63 40.6736 285.229 41.1139C285.829 41.5541 286.285 42.173 286.598 42.9705C286.911 43.7617 287.067 44.6836 287.067 45.7363V45.9373C287.067 46.9454 286.911 47.845 286.598 48.6361C286.285 49.4273 285.829 50.0525 285.229 50.5119C284.636 50.9649 283.912 51.1914 283.057 51.1914ZM278.31 54.9813V40.6449H279.937L280.1 42.6355V54.9813H278.31ZM282.512 49.7559C283.15 49.7559 283.673 49.5804 284.081 49.2295C284.489 48.8786 284.789 48.416 284.981 47.8418C285.178 47.2612 285.277 46.6264 285.277 45.9373V45.7363C285.277 45.0473 285.178 44.4156 284.981 43.8414C284.789 43.2608 284.486 42.7982 284.071 42.4537C283.663 42.1092 283.137 41.9369 282.492 41.9369C282.052 41.9369 281.669 42.0135 281.344 42.1666C281.019 42.3197 280.741 42.5271 280.511 42.7887C280.282 43.0439 280.093 43.3374 279.947 43.6691C279.806 43.9945 279.701 44.3327 279.631 44.6836V47.1814C279.758 47.6281 279.934 48.0492 280.157 48.4447C280.387 48.8339 280.69 49.1497 281.066 49.3922C281.449 49.6346 281.931 49.7559 282.512 49.7559ZM295.652 40.6449H297.441V51H295.738L295.652 48.6074V40.6449ZM296.733 46.4062C296.733 47.325 296.602 48.1449 296.341 48.8658C296.079 49.5868 295.652 50.1546 295.058 50.5693C294.465 50.984 293.671 51.1914 292.675 51.1914C291.661 51.1914 290.841 50.8915 290.216 50.2918C289.59 49.6921 289.278 48.7031 289.278 47.325V40.6449H291.067V47.3441C291.067 47.9694 291.157 48.4543 291.335 48.7988C291.52 49.137 291.756 49.373 292.044 49.507C292.337 49.6346 292.643 49.6984 292.962 49.6984C293.715 49.6984 294.312 49.5549 294.752 49.2678C295.192 48.9743 295.508 48.5787 295.699 48.0811C295.891 47.5834 295.987 47.0315 295.987 46.4254L296.733 46.4062ZM301.92 51H300.13V40.6449H301.824L301.92 42.8557V51ZM300.753 45.3918C300.765 44.4475 300.947 43.6053 301.298 42.8652C301.649 42.1187 302.137 41.5318 302.762 41.1043C303.394 40.6704 304.128 40.4535 304.963 40.4535C305.646 40.4535 306.233 40.5811 306.724 40.8363C307.222 41.0852 307.605 41.4839 307.873 42.0326C308.147 42.5813 308.284 43.3087 308.284 44.2146V51H306.495V44.1955C306.495 43.6532 306.415 43.2161 306.255 42.8844C306.102 42.5526 305.873 42.3133 305.566 42.1666C305.26 42.0135 304.884 41.9369 304.437 41.9369C303.997 41.9369 303.598 42.0294 303.241 42.2145C302.884 42.3995 302.574 42.6547 302.312 42.9801C302.051 43.3055 301.85 43.6787 301.71 44.0998C301.569 44.5145 301.499 44.9548 301.499 45.4205L300.753 45.3918ZM315.118 51.1914C314.078 51.1914 313.216 50.9553 312.534 50.4832C311.851 50.0047 311.34 49.373 311.002 48.5883C310.671 47.8035 310.505 46.9486 310.505 46.0234V45.6215C310.505 44.69 310.674 43.835 311.012 43.0566C311.35 42.2719 311.86 41.6434 312.543 41.1713C313.226 40.6928 314.084 40.4535 315.118 40.4535C315.928 40.4535 316.636 40.6194 317.242 40.9512C317.855 41.2766 318.333 41.7232 318.678 42.291C319.029 42.8525 319.22 43.4905 319.252 44.2051H317.558C317.526 43.7776 317.405 43.3884 317.194 43.0375C316.99 42.6866 316.709 42.409 316.352 42.2049C316.001 41.9943 315.59 41.8891 315.118 41.8891C314.397 41.8891 313.829 42.0741 313.414 42.4441C313.006 42.8142 312.715 43.2863 312.543 43.8605C312.377 44.4284 312.294 45.0154 312.294 45.6215V46.0234C312.294 46.6296 312.377 47.2197 312.543 47.7939C312.709 48.3682 312.996 48.8403 313.404 49.2104C313.819 49.574 314.39 49.7559 315.118 49.7559C315.539 49.7559 315.928 49.6697 316.285 49.4975C316.642 49.3188 316.936 49.0764 317.166 48.7701C317.395 48.4639 317.526 48.1161 317.558 47.727H319.252C319.22 48.3395 319.013 48.9105 318.63 49.44C318.247 49.9632 317.749 50.3875 317.137 50.7129C316.524 51.0319 315.851 51.1914 315.118 51.1914ZM325.597 41.9943H319.989V40.6449H325.597V41.9943ZM323.664 38.1279V48.4352C323.664 48.7924 323.718 49.0604 323.827 49.2391C323.935 49.4177 324.075 49.5357 324.248 49.5932C324.42 49.6506 324.605 49.6793 324.803 49.6793C324.949 49.6793 325.103 49.6665 325.262 49.641C325.428 49.6155 325.549 49.5932 325.626 49.574V51C325.485 51.0447 325.304 51.0861 325.08 51.1244C324.857 51.1691 324.586 51.1914 324.267 51.1914C323.833 51.1914 323.434 51.1053 323.071 50.933C322.707 50.7607 322.417 50.4736 322.2 50.0717C321.983 49.6633 321.874 49.1146 321.874 48.4256V38.1279H323.664ZM333.99 40.6449H335.78V51H334.076L333.99 48.6074V40.6449ZM335.072 46.4062C335.072 47.325 334.941 48.1449 334.679 48.8658C334.418 49.5868 333.99 50.1546 333.397 50.5693C332.804 50.984 332.009 51.1914 331.014 51.1914C329.999 51.1914 329.18 50.8915 328.554 50.2918C327.929 49.6921 327.616 48.7031 327.616 47.325V40.6449H329.406V47.3441C329.406 47.9694 329.495 48.4543 329.674 48.7988C329.859 49.137 330.095 49.373 330.382 49.507C330.676 49.6346 330.982 49.6984 331.301 49.6984C332.054 49.6984 332.65 49.5549 333.091 49.2678C333.531 48.9743 333.847 48.5787 334.038 48.0811C334.229 47.5834 334.325 47.0315 334.325 46.4254L335.072 46.4062ZM340.259 51H338.469V40.6449H340.211L340.259 42.2719V51ZM343.484 42.224C343.331 42.1921 343.187 42.173 343.053 42.1666C342.926 42.1538 342.779 42.1475 342.613 42.1475C342.071 42.1475 341.611 42.2591 341.235 42.4824C340.865 42.7057 340.578 43.0152 340.374 43.4107C340.169 43.7999 340.042 44.2465 339.991 44.7506L339.484 45.0377C339.484 44.2019 339.595 43.4395 339.819 42.7504C340.042 42.0549 340.39 41.4999 340.862 41.0852C341.34 40.6641 341.953 40.4535 342.699 40.4535C342.82 40.4535 342.964 40.4695 343.13 40.5014C343.302 40.5269 343.42 40.5556 343.484 40.5875V42.224ZM349.418 51.1914C348.454 51.1914 347.615 50.9777 346.901 50.5502C346.192 50.1163 345.641 49.523 345.245 48.7701C344.856 48.0173 344.661 47.1559 344.661 46.1861V45.7746C344.661 44.6517 344.875 43.6947 345.302 42.9035C345.736 42.106 346.298 41.4999 346.987 41.0852C347.682 40.6641 348.416 40.4535 349.188 40.4535C350.183 40.4535 350.993 40.6768 351.619 41.1234C352.25 41.5637 352.713 42.1666 353.006 42.9322C353.306 43.6915 353.456 44.5528 353.456 45.5162V46.3105H345.723V44.875H351.667V44.741C351.641 44.2816 351.549 43.835 351.389 43.4012C351.23 42.9609 350.974 42.6005 350.623 42.3197C350.273 42.0326 349.794 41.8891 349.188 41.8891C348.652 41.8891 348.177 42.0422 347.762 42.3484C347.354 42.6483 347.031 43.0885 346.795 43.6691C346.566 44.2434 346.451 44.9452 346.451 45.7746V46.1861C346.451 46.8433 346.572 47.443 346.814 47.9854C347.057 48.5213 347.408 48.952 347.867 49.2773C348.327 49.5964 348.875 49.7559 349.513 49.7559C350.139 49.7559 350.668 49.6283 351.102 49.373C351.536 49.1178 351.915 48.7765 352.241 48.349L353.322 49.1912C352.991 49.7016 352.512 50.1642 351.887 50.5789C351.268 50.9872 350.445 51.1914 349.418 51.1914Z" fill="black"/>
<path d="M30 155.703H446C454.008 155.703 460.5 162.195 460.5 170.203V264.703H15.5V170.203C15.5 162.195 21.9919 155.703 30 155.703Z" fill="white"/>
<path d="M30 155.703H446C454.008 155.703 460.5 162.195 460.5 170.203V264.703H15.5V170.203C15.5 162.195 21.9919 155.703 30 155.703Z" fill="url(#paint0_linear_2319_88)"/>
<path d="M30 155.703H446C454.008 155.703 460.5 162.195 460.5 170.203V264.703H15.5V170.203C15.5 162.195 21.9919 155.703 30 155.703Z" stroke="url(#paint1_linear_2319_88)"/>
<rect x="27.1286" y="167.332" width="177.743" height="68.7428" rx="10.8414" fill="white"/>
<rect x="27.1286" y="167.332" width="177.743" height="68.7428" rx="10.8414" stroke="black" stroke-width="1.74275"/>
<path d="M40.7758 208.203H38.9383V194.269H40.7758V208.203ZM45.2451 195.771H34.4785V194.269H45.2451V195.771ZM48.8244 208.203H47.0348V193.503H48.8244V208.203ZM47.6568 202.595C47.6696 201.651 47.8514 200.808 48.2023 200.068C48.5533 199.322 49.0413 198.735 49.6666 198.307C50.2982 197.874 51.032 197.657 51.8678 197.657C52.5505 197.657 53.1374 197.784 53.6287 198.039C54.1264 198.288 54.5092 198.687 54.7771 199.236C55.0515 199.784 55.1887 200.512 55.1887 201.418V208.203H53.399V201.399C53.399 200.856 53.3193 200.419 53.1598 200.087C53.0066 199.756 52.777 199.516 52.4707 199.37C52.1645 199.217 51.788 199.14 51.3414 199.14C50.9012 199.14 50.5024 199.233 50.1451 199.418C49.7878 199.603 49.4784 199.858 49.2168 200.183C48.9552 200.509 48.7542 200.882 48.6139 201.303C48.4735 201.718 48.4033 202.158 48.4033 202.624L47.6568 202.595ZM62.1367 208.395C61.1733 208.395 60.3343 208.181 59.6197 207.753C58.9115 207.319 58.3596 206.726 57.9641 205.973C57.5749 205.22 57.3803 204.359 57.3803 203.389V202.978C57.3803 201.855 57.594 200.898 58.0215 200.107C58.4553 199.309 59.0168 198.703 59.7059 198.288C60.4013 197.867 61.135 197.657 61.907 197.657C62.9023 197.657 63.7126 197.88 64.3379 198.327C64.9695 198.767 65.4321 199.37 65.7256 200.135C66.0255 200.895 66.1754 201.756 66.1754 202.719V203.514H58.4426V202.078H64.3857V201.944C64.3602 201.485 64.2677 201.038 64.1082 200.604C63.9487 200.164 63.6935 199.804 63.3426 199.523C62.9917 199.236 62.5132 199.092 61.907 199.092C61.3711 199.092 60.8958 199.245 60.4811 199.552C60.0727 199.851 59.7505 200.292 59.5145 200.872C59.2848 201.446 59.1699 202.148 59.1699 202.978V203.389C59.1699 204.046 59.2911 204.646 59.5336 205.188C59.776 205.724 60.127 206.155 60.5863 206.48C61.0457 206.799 61.5944 206.959 62.2324 206.959C62.8577 206.959 63.3872 206.831 63.8211 206.576C64.2549 206.321 64.6346 205.98 64.96 205.552L66.0414 206.394C65.7096 206.905 65.2311 207.367 64.6059 207.782C63.987 208.19 63.1639 208.395 62.1367 208.395ZM77.8607 208.395C76.9803 208.395 76.2466 208.197 75.6596 207.801C75.0726 207.399 74.6164 206.835 74.291 206.107C73.9656 205.374 73.7519 204.506 73.6498 203.504V202.576C73.7519 201.561 73.9656 200.687 74.291 199.954C74.6164 199.22 75.0694 198.655 75.65 198.26C76.237 197.858 76.9675 197.657 77.8416 197.657C78.7093 197.657 79.443 197.877 80.0428 198.317C80.6425 198.757 81.0987 199.376 81.4113 200.174C81.724 200.965 81.8803 201.887 81.8803 202.939V203.14C81.8803 204.149 81.724 205.048 81.4113 205.839C81.0987 206.63 80.6425 207.256 80.0428 207.715C79.443 208.168 78.7157 208.395 77.8607 208.395ZM73.1043 208.203V193.503H74.8939V206.193L74.7408 208.203H73.1043ZM77.4109 206.902C78.049 206.902 78.5626 206.732 78.9518 206.394C79.3473 206.05 79.6344 205.594 79.8131 205.026C79.9981 204.458 80.0906 203.829 80.0906 203.14V202.939C80.0906 202.25 80.0045 201.619 79.8322 201.045C79.66 200.464 79.376 200.001 78.9805 199.657C78.5913 199.312 78.0617 199.14 77.3918 199.14C76.9516 199.14 76.5656 199.217 76.2338 199.37C75.9084 199.523 75.6309 199.73 75.4012 199.992C75.1715 200.247 74.9833 200.54 74.8365 200.872C74.6962 201.198 74.5909 201.536 74.5207 201.887V204.212C74.6228 204.659 74.7887 205.09 75.0184 205.504C75.248 205.913 75.5575 206.248 75.9467 206.509C76.3423 206.771 76.8303 206.902 77.4109 206.902ZM90.216 201.102C90.216 200.483 90.031 199.992 89.6609 199.628C89.2973 199.258 88.7581 199.073 88.0436 199.073C87.6033 199.073 87.2141 199.15 86.876 199.303C86.5442 199.456 86.2858 199.657 86.1008 199.906C85.9158 200.154 85.8232 200.426 85.8232 200.719H84.0336C84.0336 200.221 84.2027 199.74 84.5408 199.274C84.879 198.802 85.3543 198.416 85.9668 198.116C86.5857 197.81 87.313 197.657 88.1488 197.657C88.9017 197.657 89.5684 197.784 90.149 198.039C90.7296 198.295 91.1826 198.681 91.508 199.197C91.8398 199.708 92.0057 200.349 92.0057 201.121V205.945C92.0057 206.289 92.0344 206.656 92.0918 207.045C92.1556 207.434 92.2481 207.769 92.3693 208.05V208.203H90.5031C90.4138 207.999 90.3436 207.728 90.2926 207.39C90.2415 207.045 90.216 206.726 90.216 206.433V201.102ZM90.5223 203.169H88.7613C87.7533 203.169 86.9749 203.329 86.4262 203.648C85.8775 203.967 85.6031 204.445 85.6031 205.083C85.6031 205.581 85.769 206.002 86.1008 206.346C86.4389 206.691 86.9302 206.863 87.5746 206.863C88.1169 206.863 88.5954 206.748 89.0102 206.519C89.4249 206.289 89.7535 206.005 89.9959 205.667C90.2383 205.329 90.3691 205.003 90.3883 204.691L91.1539 205.543C91.1092 205.811 90.988 206.107 90.7902 206.433C90.5924 206.758 90.3277 207.071 89.9959 207.371C89.6705 207.664 89.2813 207.91 88.8283 208.107C88.3817 208.299 87.8777 208.395 87.3162 208.395C86.6144 208.395 85.9987 208.261 85.4691 207.993C84.946 207.718 84.5376 207.348 84.2441 206.882C83.957 206.417 83.8135 205.9 83.8135 205.332C83.8135 204.215 84.2346 203.37 85.0768 202.796C85.9189 202.215 87.0514 201.925 88.4742 201.925H90.5223V203.169ZM96.7334 208.203H94.9438V193.503H96.7334V208.203ZM101.499 208.203H99.7098V193.503H101.499V208.203ZM110.285 194.087C110.629 194.087 110.891 194.186 111.07 194.384C111.255 194.581 111.347 194.821 111.347 195.101C111.347 195.376 111.255 195.612 111.07 195.81C110.891 196.001 110.629 196.097 110.285 196.097C109.94 196.097 109.679 196.001 109.5 195.81C109.328 195.612 109.242 195.376 109.242 195.101C109.242 194.821 109.328 194.581 109.5 194.384C109.679 194.186 109.94 194.087 110.285 194.087ZM111.185 208.203H109.404V197.848H111.185V208.203ZM117.893 208.395C116.981 208.395 116.209 208.232 115.577 207.906C114.946 207.581 114.467 207.163 114.142 206.653C113.816 206.136 113.654 205.59 113.654 205.016H115.443C115.475 205.501 115.616 205.887 115.864 206.174C116.12 206.455 116.429 206.656 116.793 206.777C117.163 206.898 117.53 206.959 117.893 206.959C118.378 206.959 118.783 206.895 119.109 206.768C119.441 206.634 119.689 206.455 119.855 206.232C120.028 206.002 120.114 205.744 120.114 205.456C120.114 205.201 120.056 204.965 119.941 204.748C119.833 204.525 119.61 204.324 119.271 204.145C118.933 203.96 118.423 203.798 117.74 203.657C116.975 203.498 116.311 203.297 115.75 203.054C115.195 202.805 114.764 202.49 114.458 202.107C114.158 201.724 114.008 201.249 114.008 200.681C114.008 200.132 114.164 199.631 114.477 199.178C114.796 198.719 115.242 198.352 115.817 198.078C116.397 197.797 117.074 197.657 117.846 197.657C118.675 197.657 119.383 197.803 119.97 198.097C120.563 198.384 121.016 198.773 121.329 199.264C121.642 199.749 121.798 200.288 121.798 200.882H120.008C120.008 200.454 119.82 200.049 119.444 199.666C119.074 199.284 118.541 199.092 117.846 199.092C117.361 199.092 116.965 199.169 116.659 199.322C116.359 199.469 116.139 199.66 115.998 199.896C115.864 200.126 115.797 200.368 115.797 200.623C115.797 200.879 115.861 201.102 115.989 201.293C116.116 201.478 116.349 201.644 116.687 201.791C117.032 201.938 117.53 202.085 118.18 202.231C119.029 202.423 119.728 202.652 120.276 202.92C120.825 203.188 121.233 203.517 121.501 203.906C121.769 204.295 121.903 204.771 121.903 205.332C121.903 205.932 121.737 206.465 121.406 206.93C121.074 207.39 120.608 207.75 120.008 208.012C119.409 208.267 118.704 208.395 117.893 208.395ZM129.942 208.203V196.747C129.942 195.637 130.252 194.786 130.871 194.192C131.49 193.599 132.367 193.302 133.503 193.302C133.713 193.302 133.965 193.321 134.259 193.36C134.552 193.391 134.871 193.436 135.216 193.494C135.56 193.551 135.911 193.615 136.268 193.685C136.632 193.749 136.986 193.816 137.331 193.886L136.508 195.159C135.895 195.044 135.346 194.958 134.862 194.9C134.383 194.837 133.975 194.805 133.637 194.805C133.018 194.805 132.546 194.974 132.22 195.312C131.895 195.644 131.732 196.122 131.732 196.747V208.203H129.942ZM135.541 193.886H137.331V208.203H135.541V193.886ZM133.933 199.197H128.315V197.848H133.933V199.197ZM146.317 201.102C146.317 200.483 146.132 199.992 145.762 199.628C145.398 199.258 144.859 199.073 144.145 199.073C143.704 199.073 143.315 199.15 142.977 199.303C142.645 199.456 142.387 199.657 142.202 199.906C142.017 200.154 141.924 200.426 141.924 200.719H140.135C140.135 200.221 140.304 199.74 140.642 199.274C140.98 198.802 141.455 198.416 142.068 198.116C142.687 197.81 143.414 197.657 144.25 197.657C145.003 197.657 145.67 197.784 146.25 198.039C146.831 198.295 147.284 198.681 147.609 199.197C147.941 199.708 148.107 200.349 148.107 201.121V205.945C148.107 206.289 148.136 206.656 148.193 207.045C148.257 207.434 148.349 207.769 148.471 208.05V208.203H146.604C146.515 207.999 146.445 207.728 146.394 207.39C146.343 207.045 146.317 206.726 146.317 206.433V201.102ZM146.623 203.169H144.862C143.854 203.169 143.076 203.329 142.527 203.648C141.979 203.967 141.704 204.445 141.704 205.083C141.704 205.581 141.87 206.002 142.202 206.346C142.54 206.691 143.031 206.863 143.676 206.863C144.218 206.863 144.697 206.748 145.111 206.519C145.526 206.289 145.855 206.005 146.097 205.667C146.34 205.329 146.47 205.003 146.489 204.691L147.255 205.543C147.21 205.811 147.089 206.107 146.891 206.433C146.694 206.758 146.429 207.071 146.097 207.371C145.772 207.664 145.382 207.91 144.929 208.107C144.483 208.299 143.979 208.395 143.417 208.395C142.716 208.395 142.1 208.261 141.57 207.993C141.047 207.718 140.639 207.348 140.345 206.882C140.058 206.417 139.915 205.9 139.915 205.332C139.915 204.215 140.336 203.37 141.178 202.796C142.02 202.215 143.153 201.925 144.575 201.925H146.623V203.169ZM155.246 199.197H149.638V197.848H155.246V199.197ZM153.313 195.331V205.638C153.313 205.996 153.367 206.264 153.476 206.442C153.584 206.621 153.725 206.739 153.897 206.796C154.069 206.854 154.254 206.882 154.452 206.882C154.599 206.882 154.752 206.87 154.911 206.844C155.077 206.819 155.198 206.796 155.275 206.777V208.203C155.135 208.248 154.953 208.289 154.729 208.328C154.506 208.372 154.235 208.395 153.916 208.395C153.482 208.395 153.083 208.308 152.72 208.136C152.356 207.964 152.066 207.677 151.849 207.275C151.632 206.866 151.523 206.318 151.523 205.629V195.331H153.313ZM158.443 208.308C158.085 208.308 157.811 208.21 157.62 208.012C157.435 207.814 157.342 207.568 157.342 207.275C157.342 206.975 157.435 206.723 157.62 206.519C157.811 206.308 158.085 206.203 158.443 206.203C158.806 206.203 159.081 206.308 159.266 206.519C159.457 206.723 159.553 206.975 159.553 207.275C159.553 207.568 159.457 207.814 159.266 208.012C159.081 208.21 158.806 208.308 158.443 208.308Z" fill="black"/>
<rect x="215.129" y="167.332" width="171.743" height="85.7428" rx="10.8414" fill="white"/>
<rect x="215.129" y="167.332" width="171.743" height="85.7428" rx="10.8414" stroke="black" stroke-width="1.74275"/>
<path d="M225.474 192.203H223.617V178.269H225.474V192.203ZM231.302 186.04H225.072V184.547H231.302V186.04ZM232.25 179.771H225.072V178.269H232.25V179.771ZM236.116 192.203H234.327V177.503H236.116V192.203ZM245.045 185.102C245.045 184.483 244.86 183.992 244.49 183.628C244.127 183.258 243.587 183.073 242.873 183.073C242.433 183.073 242.043 183.15 241.705 183.303C241.374 183.456 241.115 183.657 240.93 183.906C240.745 184.154 240.653 184.426 240.653 184.719H238.863C238.863 184.221 239.032 183.74 239.37 183.274C239.708 182.802 240.184 182.416 240.796 182.116C241.415 181.81 242.142 181.657 242.978 181.657C243.731 181.657 244.398 181.784 244.978 182.039C245.559 182.295 246.012 182.681 246.337 183.197C246.669 183.708 246.835 184.349 246.835 185.121V189.945C246.835 190.289 246.864 190.656 246.921 191.045C246.985 191.434 247.077 191.769 247.199 192.05V192.203H245.332C245.243 191.999 245.173 191.728 245.122 191.39C245.071 191.045 245.045 190.726 245.045 190.433V185.102ZM245.352 187.169H243.591C242.583 187.169 241.804 187.329 241.255 187.648C240.707 187.967 240.432 188.445 240.432 189.083C240.432 189.581 240.598 190.002 240.93 190.346C241.268 190.691 241.76 190.863 242.404 190.863C242.946 190.863 243.425 190.748 243.839 190.519C244.254 190.289 244.583 190.005 244.825 189.667C245.068 189.329 245.198 189.003 245.218 188.691L245.983 189.543C245.939 189.811 245.817 190.107 245.62 190.433C245.422 190.758 245.157 191.071 244.825 191.371C244.5 191.664 244.111 191.91 243.658 192.107C243.211 192.299 242.707 192.395 242.146 192.395C241.444 192.395 240.828 192.261 240.298 191.993C239.775 191.718 239.367 191.348 239.073 190.882C238.786 190.417 238.643 189.9 238.643 189.332C238.643 188.215 239.064 187.37 239.906 186.796C240.748 186.215 241.881 185.925 243.304 185.925H245.352V187.169ZM253.974 183.197H248.366V181.848H253.974V183.197ZM252.041 179.331V189.638C252.041 189.996 252.095 190.264 252.204 190.442C252.312 190.621 252.453 190.739 252.625 190.796C252.797 190.854 252.982 190.882 253.18 190.882C253.327 190.882 253.48 190.87 253.639 190.844C253.805 190.819 253.927 190.796 254.003 190.777V192.203C253.863 192.248 253.681 192.289 253.458 192.328C253.234 192.372 252.963 192.395 252.644 192.395C252.21 192.395 251.812 192.308 251.448 192.136C251.084 191.964 250.794 191.677 250.577 191.275C250.36 190.866 250.252 190.318 250.252 189.629V179.331H252.041ZM261.765 192.203V180.747C261.765 179.637 262.068 178.786 262.674 178.192C263.286 177.599 264.122 177.302 265.181 177.302C265.385 177.302 265.59 177.315 265.794 177.34C265.998 177.366 266.199 177.404 266.397 177.455L266.301 178.881C266.167 178.856 266.014 178.837 265.842 178.824C265.676 178.811 265.51 178.805 265.344 178.805C264.782 178.805 264.342 178.974 264.023 179.312C263.711 179.644 263.554 180.122 263.554 180.747V192.203H261.765ZM265.755 183.197H260.138V181.848H265.755V183.197ZM267.248 186.92C267.248 185.919 267.44 185.022 267.823 184.231C268.205 183.44 268.748 182.815 269.45 182.355C270.151 181.89 270.984 181.657 271.947 181.657C272.924 181.657 273.766 181.89 274.474 182.355C275.182 182.815 275.725 183.44 276.101 184.231C276.484 185.022 276.675 185.919 276.675 186.92V187.14C276.675 188.136 276.484 189.032 276.101 189.83C275.725 190.621 275.182 191.246 274.474 191.705C273.772 192.165 272.936 192.395 271.967 192.395C270.997 192.395 270.158 192.165 269.45 191.705C268.748 191.246 268.205 190.621 267.823 189.83C267.44 189.032 267.248 188.136 267.248 187.14V186.92ZM269.038 187.14C269.038 187.823 269.147 188.455 269.363 189.035C269.58 189.616 269.903 190.082 270.33 190.433C270.764 190.784 271.309 190.959 271.967 190.959C272.617 190.959 273.157 190.784 273.584 190.433C274.018 190.082 274.343 189.616 274.56 189.035C274.777 188.455 274.886 187.823 274.886 187.14V186.92C274.886 186.238 274.777 185.606 274.56 185.025C274.343 184.445 274.018 183.979 273.584 183.628C273.15 183.271 272.605 183.092 271.947 183.092C271.303 183.092 270.764 183.271 270.33 183.628C269.896 183.979 269.571 184.445 269.354 185.025C269.143 185.606 269.038 186.238 269.038 186.92V187.14ZM278.446 186.92C278.446 185.919 278.637 185.022 279.02 184.231C279.403 183.44 279.945 182.815 280.647 182.355C281.349 181.89 282.181 181.657 283.145 181.657C284.121 181.657 284.963 181.89 285.671 182.355C286.379 182.815 286.922 183.44 287.298 184.231C287.681 185.022 287.872 185.919 287.872 186.92V187.14C287.872 188.136 287.681 189.032 287.298 189.83C286.922 190.621 286.379 191.246 285.671 191.705C284.969 192.165 284.134 192.395 283.164 192.395C282.194 192.395 281.355 192.165 280.647 191.705C279.945 191.246 279.403 190.621 279.02 189.83C278.637 189.032 278.446 188.136 278.446 187.14V186.92ZM280.235 187.14C280.235 187.823 280.344 188.455 280.561 189.035C280.778 189.616 281.1 190.082 281.527 190.433C281.961 190.784 282.507 190.959 283.164 190.959C283.815 190.959 284.354 190.784 284.781 190.433C285.215 190.082 285.54 189.616 285.757 189.035C285.974 188.455 286.083 187.823 286.083 187.14V186.92C286.083 186.238 285.974 185.606 285.757 185.025C285.54 184.445 285.215 183.979 284.781 183.628C284.347 183.271 283.802 183.092 283.145 183.092C282.5 183.092 281.961 183.271 281.527 183.628C281.093 183.979 280.768 184.445 280.551 185.025C280.341 185.606 280.235 186.238 280.235 186.92V187.14ZM294.457 183.197H288.849V181.848H294.457V183.197ZM292.524 179.331V189.638C292.524 189.996 292.578 190.264 292.686 190.442C292.795 190.621 292.935 190.739 293.107 190.796C293.28 190.854 293.465 190.882 293.662 190.882C293.809 190.882 293.962 190.87 294.122 190.844C294.288 190.819 294.409 190.796 294.486 190.777V192.203C294.345 192.248 294.163 192.289 293.94 192.328C293.717 192.372 293.446 192.395 293.127 192.395C292.693 192.395 292.294 192.308 291.93 192.136C291.567 191.964 291.276 191.677 291.059 191.275C290.842 190.866 290.734 190.318 290.734 189.629V179.331H292.524ZM301.271 192.395C300.39 192.395 299.657 192.197 299.07 191.801C298.483 191.399 298.027 190.835 297.701 190.107C297.376 189.374 297.162 188.506 297.06 187.504V186.576C297.162 185.561 297.376 184.687 297.701 183.954C298.027 183.22 298.48 182.655 299.06 182.26C299.647 181.858 300.378 181.657 301.252 181.657C302.119 181.657 302.853 181.877 303.453 182.317C304.053 182.757 304.509 183.376 304.821 184.174C305.134 184.965 305.29 185.887 305.29 186.939V187.14C305.29 188.149 305.134 189.048 304.821 189.839C304.509 190.63 304.053 191.256 303.453 191.715C302.853 192.168 302.126 192.395 301.271 192.395ZM296.514 192.203V177.503H298.304V190.193L298.151 192.203H296.514ZM300.821 190.902C301.459 190.902 301.973 190.732 302.362 190.394C302.757 190.05 303.045 189.594 303.223 189.026C303.408 188.458 303.501 187.829 303.501 187.14V186.939C303.501 186.25 303.415 185.619 303.242 185.045C303.07 184.464 302.786 184.001 302.391 183.657C302.001 183.312 301.472 183.14 300.802 183.14C300.362 183.14 299.976 183.217 299.644 183.37C299.319 183.523 299.041 183.73 298.811 183.992C298.582 184.247 298.393 184.54 298.247 184.872C298.106 185.198 298.001 185.536 297.931 185.887V188.212C298.033 188.659 298.199 189.09 298.429 189.504C298.658 189.913 298.968 190.248 299.357 190.509C299.752 190.771 300.24 190.902 300.821 190.902ZM313.626 185.102C313.626 184.483 313.441 183.992 313.071 183.628C312.707 183.258 312.168 183.073 311.454 183.073C311.013 183.073 310.624 183.15 310.286 183.303C309.954 183.456 309.696 183.657 309.511 183.906C309.326 184.154 309.233 184.426 309.233 184.719H307.444C307.444 184.221 307.613 183.74 307.951 183.274C308.289 182.802 308.764 182.416 309.377 182.116C309.996 181.81 310.723 181.657 311.559 181.657C312.312 181.657 312.979 181.784 313.559 182.039C314.14 182.295 314.593 182.681 314.918 183.197C315.25 183.708 315.416 184.349 315.416 185.121V189.945C315.416 190.289 315.445 190.656 315.502 191.045C315.566 191.434 315.658 191.769 315.779 192.05V192.203H313.913C313.824 191.999 313.754 191.728 313.703 191.39C313.652 191.045 313.626 190.726 313.626 190.433V185.102ZM313.932 187.169H312.171C311.163 187.169 310.385 187.329 309.836 187.648C309.288 187.967 309.013 188.445 309.013 189.083C309.013 189.581 309.179 190.002 309.511 190.346C309.849 190.691 310.34 190.863 310.985 190.863C311.527 190.863 312.006 190.748 312.42 190.519C312.835 190.289 313.164 190.005 313.406 189.667C313.648 189.329 313.779 189.003 313.798 188.691L314.564 189.543C314.519 189.811 314.398 190.107 314.2 190.433C314.003 190.758 313.738 191.071 313.406 191.371C313.081 191.664 312.691 191.91 312.238 192.107C311.792 192.299 311.288 192.395 310.726 192.395C310.025 192.395 309.409 192.261 308.879 191.993C308.356 191.718 307.948 191.348 307.654 190.882C307.367 190.417 307.224 189.9 307.224 189.332C307.224 188.215 307.645 187.37 308.487 186.796C309.329 186.215 310.462 185.925 311.884 185.925H313.932V187.169ZM320.144 192.203H318.354V177.503H320.144V192.203ZM324.91 192.203H323.12V177.503H324.91V192.203ZM331.542 192.395C330.629 192.395 329.857 192.232 329.226 191.906C328.594 191.581 328.116 191.163 327.79 190.653C327.465 190.136 327.302 189.59 327.302 189.016H329.092C329.124 189.501 329.264 189.887 329.513 190.174C329.768 190.455 330.078 190.656 330.441 190.777C330.811 190.898 331.178 190.959 331.542 190.959C332.027 190.959 332.432 190.895 332.757 190.768C333.089 190.634 333.338 190.455 333.504 190.232C333.676 190.002 333.762 189.744 333.762 189.456C333.762 189.201 333.705 188.965 333.59 188.748C333.481 188.525 333.258 188.324 332.92 188.145C332.582 187.96 332.071 187.798 331.389 187.657C330.623 187.498 329.96 187.297 329.398 187.054C328.843 186.805 328.412 186.49 328.106 186.107C327.806 185.724 327.656 185.249 327.656 184.681C327.656 184.132 327.813 183.631 328.125 183.178C328.444 182.719 328.891 182.352 329.465 182.078C330.046 181.797 330.722 181.657 331.494 181.657C332.323 181.657 333.032 181.803 333.619 182.097C334.212 182.384 334.665 182.773 334.978 183.264C335.29 183.749 335.446 184.288 335.446 184.882H333.657C333.657 184.454 333.469 184.049 333.092 183.666C332.722 183.284 332.189 183.092 331.494 183.092C331.009 183.092 330.613 183.169 330.307 183.322C330.007 183.469 329.787 183.66 329.647 183.896C329.513 184.126 329.446 184.368 329.446 184.623C329.446 184.879 329.51 185.102 329.637 185.293C329.765 185.478 329.998 185.644 330.336 185.791C330.68 185.938 331.178 186.085 331.829 186.231C332.677 186.423 333.376 186.652 333.925 186.92C334.474 187.188 334.882 187.517 335.15 187.906C335.418 188.295 335.552 188.771 335.552 189.332C335.552 189.932 335.386 190.465 335.054 190.93C334.722 191.39 334.257 191.75 333.657 192.012C333.057 192.267 332.352 192.395 331.542 192.395ZM229.675 205.848H231.465V216.203H229.762L229.675 213.811V205.848ZM230.757 211.609C230.757 212.528 230.626 213.348 230.364 214.069C230.103 214.79 229.675 215.358 229.082 215.772C228.489 216.187 227.694 216.395 226.699 216.395C225.685 216.395 224.865 216.095 224.239 215.495C223.614 214.895 223.302 213.906 223.302 212.528V205.848H225.091V212.547C225.091 213.173 225.181 213.657 225.359 214.002C225.544 214.34 225.78 214.576 226.067 214.71C226.361 214.838 226.667 214.902 226.986 214.902C227.739 214.902 228.336 214.758 228.776 214.471C229.216 214.177 229.532 213.782 229.723 213.284C229.915 212.787 230.01 212.235 230.01 211.629L230.757 211.609ZM237.963 216.395C237.051 216.395 236.279 216.232 235.647 215.906C235.016 215.581 234.537 215.163 234.212 214.653C233.886 214.136 233.724 213.59 233.724 213.016H235.513C235.545 213.501 235.686 213.887 235.934 214.174C236.19 214.455 236.499 214.656 236.863 214.777C237.233 214.898 237.6 214.959 237.963 214.959C238.448 214.959 238.853 214.895 239.179 214.768C239.51 214.634 239.759 214.455 239.925 214.232C240.097 214.002 240.184 213.744 240.184 213.456C240.184 213.201 240.126 212.965 240.011 212.748C239.903 212.525 239.68 212.324 239.341 212.145C239.003 211.96 238.493 211.798 237.81 211.657C237.045 211.498 236.381 211.297 235.82 211.054C235.264 210.805 234.834 210.49 234.528 210.107C234.228 209.724 234.078 209.249 234.078 208.681C234.078 208.132 234.234 207.631 234.547 207.178C234.866 206.719 235.312 206.352 235.887 206.078C236.467 205.797 237.143 205.657 237.915 205.657C238.745 205.657 239.453 205.803 240.04 206.097C240.633 206.384 241.086 206.773 241.399 207.264C241.712 207.749 241.868 208.288 241.868 208.882H240.078C240.078 208.454 239.89 208.049 239.514 207.666C239.144 207.284 238.611 207.092 237.915 207.092C237.431 207.092 237.035 207.169 236.729 207.322C236.429 207.469 236.209 207.66 236.068 207.896C235.934 208.126 235.867 208.368 235.867 208.623C235.867 208.879 235.931 209.102 236.059 209.293C236.186 209.478 236.419 209.644 236.757 209.791C237.102 209.938 237.6 210.085 238.25 210.231C239.099 210.423 239.798 210.652 240.346 210.92C240.895 211.188 241.303 211.517 241.571 211.906C241.839 212.295 241.973 212.771 241.973 213.332C241.973 213.932 241.807 214.465 241.476 214.93C241.144 215.39 240.678 215.75 240.078 216.012C239.479 216.267 238.774 216.395 237.963 216.395ZM250.615 205.848H252.405V216.203H250.701L250.615 213.811V205.848ZM251.697 211.609C251.697 212.528 251.566 213.348 251.304 214.069C251.043 214.79 250.615 215.358 250.022 215.772C249.429 216.187 248.634 216.395 247.639 216.395C246.624 216.395 245.805 216.095 245.179 215.495C244.554 214.895 244.241 213.906 244.241 212.528V205.848H246.031V212.547C246.031 213.173 246.12 213.657 246.299 214.002C246.484 214.34 246.72 214.576 247.007 214.71C247.301 214.838 247.607 214.902 247.926 214.902C248.679 214.902 249.275 214.758 249.716 214.471C250.156 214.177 250.472 213.782 250.663 213.284C250.854 212.787 250.95 212.235 250.95 211.629L251.697 211.609ZM261.2 209.102C261.2 208.483 261.015 207.992 260.645 207.628C260.281 207.258 259.742 207.073 259.028 207.073C258.587 207.073 258.198 207.15 257.86 207.303C257.528 207.456 257.27 207.657 257.085 207.906C256.9 208.154 256.807 208.426 256.807 208.719H255.018C255.018 208.221 255.187 207.74 255.525 207.274C255.863 206.802 256.338 206.416 256.951 206.116C257.57 205.81 258.297 205.657 259.133 205.657C259.886 205.657 260.552 205.784 261.133 206.039C261.714 206.295 262.167 206.681 262.492 207.197C262.824 207.708 262.99 208.349 262.99 209.121V213.945C262.99 214.289 263.018 214.656 263.076 215.045C263.14 215.434 263.232 215.769 263.353 216.05V216.203H261.487C261.398 215.999 261.328 215.728 261.277 215.39C261.226 215.045 261.2 214.726 261.2 214.433V209.102ZM261.506 211.169H259.745C258.737 211.169 257.959 211.329 257.41 211.648C256.861 211.967 256.587 212.445 256.587 213.083C256.587 213.581 256.753 214.002 257.085 214.346C257.423 214.691 257.914 214.863 258.559 214.863C259.101 214.863 259.579 214.748 259.994 214.519C260.409 214.289 260.737 214.005 260.98 213.667C261.222 213.329 261.353 213.003 261.372 212.691L262.138 213.543C262.093 213.811 261.972 214.107 261.774 214.433C261.576 214.758 261.312 215.071 260.98 215.371C260.654 215.664 260.265 215.91 259.812 216.107C259.366 216.299 258.862 216.395 258.3 216.395C257.598 216.395 256.983 216.261 256.453 215.993C255.93 215.718 255.522 215.348 255.228 214.882C254.941 214.417 254.797 213.9 254.797 213.332C254.797 212.215 255.219 211.37 256.061 210.796C256.903 210.215 258.035 209.925 259.458 209.925H261.506V211.169ZM267.717 216.203H265.928V201.503H267.717V216.203ZM272.483 216.203H270.694V201.503H272.483V216.203ZM281.097 205.848H283.001L278.848 217.801C278.752 218.057 278.624 218.331 278.465 218.624C278.312 218.924 278.114 219.208 277.871 219.476C277.635 219.744 277.345 219.961 277.001 220.127C276.656 220.299 276.248 220.385 275.776 220.385C275.68 220.385 275.565 220.376 275.431 220.357C275.297 220.338 275.169 220.315 275.048 220.29C274.927 220.271 274.835 220.251 274.771 220.232V218.806C274.822 218.813 274.901 218.822 275.01 218.835C275.125 218.848 275.205 218.854 275.249 218.854C275.849 218.854 276.318 218.73 276.656 218.481C276.994 218.232 277.269 217.789 277.479 217.151L278.216 215.131L281.097 205.848ZM278.8 213.897L279.259 215.763L277.977 216.404L274.177 205.848H276.13L278.8 213.897ZM291.241 216.203H289.452V201.503H291.241V216.203ZM290.074 210.595C290.086 209.651 290.268 208.808 290.619 208.068C290.97 207.322 291.458 206.735 292.083 206.307C292.715 205.874 293.449 205.657 294.285 205.657C294.967 205.657 295.554 205.784 296.046 206.039C296.543 206.288 296.926 206.687 297.194 207.236C297.468 207.784 297.605 208.512 297.605 209.418V216.203H295.816V209.399C295.816 208.856 295.736 208.419 295.577 208.087C295.423 207.756 295.194 207.516 294.887 207.37C294.581 207.217 294.205 207.14 293.758 207.14C293.318 207.14 292.919 207.233 292.562 207.418C292.205 207.603 291.895 207.858 291.634 208.183C291.372 208.509 291.171 208.882 291.031 209.303C290.89 209.718 290.82 210.158 290.82 210.624L290.074 210.595ZM306.353 209.102C306.353 208.483 306.168 207.992 305.798 207.628C305.434 207.258 304.895 207.073 304.18 207.073C303.74 207.073 303.351 207.15 303.013 207.303C302.681 207.456 302.423 207.657 302.237 207.906C302.052 208.154 301.96 208.426 301.96 208.719H300.17C300.17 208.221 300.339 207.74 300.678 207.274C301.016 206.802 301.491 206.416 302.104 206.116C302.722 205.81 303.45 205.657 304.286 205.657C305.038 205.657 305.705 205.784 306.286 206.039C306.866 206.295 307.319 206.681 307.645 207.197C307.976 207.708 308.142 208.349 308.142 209.121V213.945C308.142 214.289 308.171 214.656 308.229 215.045C308.292 215.434 308.385 215.769 308.506 216.05V216.203H306.64C306.551 215.999 306.48 215.728 306.429 215.39C306.378 215.045 306.353 214.726 306.353 214.433V209.102ZM306.659 211.169H304.898C303.89 211.169 303.112 211.329 302.563 211.648C302.014 211.967 301.74 212.445 301.74 213.083C301.74 213.581 301.906 214.002 302.237 214.346C302.576 214.691 303.067 214.863 303.711 214.863C304.254 214.863 304.732 214.748 305.147 214.519C305.562 214.289 305.89 214.005 306.133 213.667C306.375 213.329 306.506 213.003 306.525 212.691L307.291 213.543C307.246 213.811 307.125 214.107 306.927 214.433C306.729 214.758 306.464 215.071 306.133 215.371C305.807 215.664 305.418 215.91 304.965 216.107C304.518 216.299 304.014 216.395 303.453 216.395C302.751 216.395 302.135 216.261 301.606 215.993C301.083 215.718 300.674 215.348 300.381 214.882C300.094 214.417 299.95 213.9 299.95 213.332C299.95 212.215 300.371 211.37 301.213 210.796C302.056 210.215 303.188 209.925 304.611 209.925H306.659V211.169ZM316.746 205.848H318.574L314.861 216.203H313.655L313.932 214.614L316.746 205.848ZM314.487 214.662L314.698 216.203H313.502L309.75 205.848H311.578L314.487 214.662ZM324.594 216.395C323.63 216.395 322.791 216.181 322.077 215.753C321.369 215.319 320.817 214.726 320.421 213.973C320.032 213.22 319.837 212.359 319.837 211.389V210.978C319.837 209.855 320.051 208.898 320.479 208.107C320.912 207.309 321.474 206.703 322.163 206.288C322.858 205.867 323.592 205.657 324.364 205.657C325.359 205.657 326.17 205.88 326.795 206.327C327.427 206.767 327.889 207.37 328.183 208.135C328.482 208.895 328.632 209.756 328.632 210.719V211.514H320.9V210.078H326.843V209.944C326.817 209.485 326.725 209.038 326.565 208.604C326.406 208.164 326.151 207.804 325.8 207.523C325.449 207.236 324.97 207.092 324.364 207.092C323.828 207.092 323.353 207.245 322.938 207.552C322.53 207.851 322.208 208.292 321.971 208.872C321.742 209.446 321.627 210.148 321.627 210.978V211.389C321.627 212.046 321.748 212.646 321.991 213.188C322.233 213.724 322.584 214.155 323.043 214.48C323.503 214.799 324.051 214.959 324.689 214.959C325.315 214.959 325.844 214.831 326.278 214.576C326.712 214.321 327.092 213.98 327.417 213.552L328.498 214.394C328.167 214.905 327.688 215.367 327.063 215.782C326.444 216.19 325.621 216.395 324.594 216.395ZM341.667 209.102C341.667 208.483 341.482 207.992 341.112 207.628C340.748 207.258 340.209 207.073 339.495 207.073C339.054 207.073 338.665 207.15 338.327 207.303C337.995 207.456 337.737 207.657 337.552 207.906C337.367 208.154 337.274 208.426 337.274 208.719H335.485C335.485 208.221 335.654 207.74 335.992 207.274C336.33 206.802 336.805 206.416 337.418 206.116C338.037 205.81 338.764 205.657 339.6 205.657C340.353 205.657 341.02 205.784 341.6 206.039C342.181 206.295 342.634 206.681 342.959 207.197C343.291 207.708 343.457 208.349 343.457 209.121V213.945C343.457 214.289 343.486 214.656 343.543 215.045C343.607 215.434 343.699 215.769 343.821 216.05V216.203H341.954C341.865 215.999 341.795 215.728 341.744 215.39C341.693 215.045 341.667 214.726 341.667 214.433V209.102ZM341.973 211.169H340.212C339.204 211.169 338.426 211.329 337.877 211.648C337.329 211.967 337.054 212.445 337.054 213.083C337.054 213.581 337.22 214.002 337.552 214.346C337.89 214.691 338.381 214.863 339.026 214.863C339.568 214.863 340.047 214.748 340.461 214.519C340.876 214.289 341.205 214.005 341.447 213.667C341.69 213.329 341.82 213.003 341.839 212.691L342.605 213.543C342.56 213.811 342.439 214.107 342.241 214.433C342.044 214.758 341.779 215.071 341.447 215.371C341.122 215.664 340.732 215.91 340.279 216.107C339.833 216.299 339.329 216.395 338.767 216.395C338.066 216.395 337.45 216.261 336.92 215.993C336.397 215.718 335.989 215.348 335.695 214.882C335.408 214.417 335.265 213.9 335.265 213.332C335.265 212.215 335.686 211.37 336.528 210.796C337.37 210.215 338.503 209.925 339.925 209.925H341.973V211.169ZM228.087 240.395C227.423 240.395 226.839 240.286 226.335 240.069C225.831 239.852 225.404 239.54 225.053 239.131C224.702 238.717 224.421 238.222 224.211 237.648C224.007 237.067 223.866 236.413 223.79 235.686V234.576C223.892 233.561 224.112 232.687 224.45 231.954C224.795 231.22 225.263 230.655 225.857 230.26C226.457 229.858 227.19 229.657 228.058 229.657C228.926 229.657 229.659 229.877 230.259 230.317C230.859 230.757 231.315 231.376 231.628 232.174C231.94 232.965 232.097 233.887 232.097 234.939V235.14C232.097 236.149 231.94 237.048 231.628 237.839C231.315 238.63 230.859 239.256 230.259 239.715C229.666 240.168 228.942 240.395 228.087 240.395ZM223.34 244.184V229.848H224.967L225.129 231.839V244.184H223.34ZM227.541 238.959C228.179 238.959 228.702 238.784 229.111 238.433C229.519 238.082 229.819 237.619 230.01 237.045C230.208 236.464 230.307 235.829 230.307 235.14V234.939C230.307 234.25 230.208 233.619 230.01 233.045C229.819 232.464 229.516 232.001 229.101 231.657C228.693 231.312 228.166 231.14 227.522 231.14C227.082 231.14 226.699 231.217 226.374 231.37C226.048 231.523 225.771 231.73 225.541 231.992C225.311 232.247 225.123 232.54 224.976 232.872C224.836 233.198 224.731 233.536 224.661 233.887V236.385C224.788 236.831 224.964 237.252 225.187 237.648C225.417 238.037 225.72 238.353 226.096 238.595C226.479 238.838 226.961 238.959 227.541 238.959ZM240.681 229.848H242.471V240.203H240.767L240.681 237.811V229.848ZM241.763 235.609C241.763 236.528 241.632 237.348 241.37 238.069C241.109 238.79 240.681 239.358 240.088 239.772C239.495 240.187 238.7 240.395 237.705 240.395C236.69 240.395 235.871 240.095 235.245 239.495C234.62 238.895 234.307 237.906 234.307 236.528V229.848H236.097V236.547C236.097 237.173 236.186 237.657 236.365 238.002C236.55 238.34 236.786 238.576 237.073 238.71C237.367 238.838 237.673 238.902 237.992 238.902C238.745 238.902 239.341 238.758 239.782 238.471C240.222 238.177 240.538 237.782 240.729 237.284C240.921 236.787 241.016 236.235 241.016 235.629L241.763 235.609ZM246.95 240.203H245.16V229.848H246.854L246.95 232.059V240.203ZM245.782 234.595C245.795 233.651 245.977 232.808 246.328 232.068C246.679 231.322 247.167 230.735 247.792 230.307C248.424 229.874 249.157 229.657 249.993 229.657C250.676 229.657 251.263 229.784 251.754 230.039C252.252 230.288 252.635 230.687 252.903 231.236C253.177 231.784 253.314 232.512 253.314 233.418V240.203H251.524V233.399C251.524 232.856 251.445 232.419 251.285 232.087C251.132 231.756 250.902 231.516 250.596 231.37C250.29 231.217 249.913 231.14 249.467 231.14C249.027 231.14 248.628 231.233 248.271 231.418C247.913 231.603 247.604 231.858 247.342 232.183C247.081 232.509 246.88 232.882 246.739 233.303C246.599 233.718 246.529 234.158 246.529 234.624L245.782 234.595ZM260.147 240.395C259.107 240.395 258.246 240.158 257.563 239.686C256.881 239.208 256.37 238.576 256.032 237.791C255.7 237.007 255.534 236.152 255.534 235.227V234.825C255.534 233.893 255.703 233.038 256.042 232.26C256.38 231.475 256.89 230.847 257.573 230.374C258.256 229.896 259.114 229.657 260.147 229.657C260.958 229.657 261.666 229.823 262.272 230.154C262.884 230.48 263.363 230.926 263.707 231.494C264.058 232.056 264.25 232.694 264.282 233.408H262.588C262.556 232.981 262.435 232.592 262.224 232.241C262.02 231.89 261.739 231.612 261.382 231.408C261.031 231.197 260.619 231.092 260.147 231.092C259.426 231.092 258.858 231.277 258.444 231.647C258.035 232.017 257.745 232.489 257.573 233.064C257.407 233.632 257.324 234.218 257.324 234.825V235.227C257.324 235.833 257.407 236.423 257.573 236.997C257.739 237.571 258.026 238.043 258.434 238.413C258.849 238.777 259.42 238.959 260.147 238.959C260.568 238.959 260.958 238.873 261.315 238.701C261.672 238.522 261.966 238.279 262.195 237.973C262.425 237.667 262.556 237.319 262.588 236.93H264.282C264.25 237.543 264.042 238.114 263.66 238.643C263.277 239.166 262.779 239.591 262.167 239.916C261.554 240.235 260.881 240.395 260.147 240.395ZM270.627 231.197H265.019V229.848H270.627V231.197ZM268.694 227.331V237.638C268.694 237.996 268.748 238.264 268.856 238.442C268.965 238.621 269.105 238.739 269.277 238.796C269.45 238.854 269.635 238.882 269.832 238.882C269.979 238.882 270.132 238.87 270.292 238.844C270.458 238.819 270.579 238.796 270.655 238.777V240.203C270.515 240.248 270.333 240.289 270.11 240.328C269.887 240.372 269.615 240.395 269.296 240.395C268.863 240.395 268.464 240.308 268.1 240.136C267.737 239.964 267.446 239.677 267.229 239.275C267.012 238.866 266.904 238.318 266.904 237.629V227.331H268.694ZM279.02 229.848H280.81V240.203H279.106L279.02 237.811V229.848ZM280.101 235.609C280.101 236.528 279.971 237.348 279.709 238.069C279.447 238.79 279.02 239.358 278.427 239.772C277.833 240.187 277.039 240.395 276.044 240.395C275.029 240.395 274.209 240.095 273.584 239.495C272.959 238.895 272.646 237.906 272.646 236.528V229.848H274.436V236.547C274.436 237.173 274.525 237.657 274.704 238.002C274.889 238.34 275.125 238.576 275.412 238.71C275.705 238.838 276.012 238.902 276.331 238.902C277.084 238.902 277.68 238.758 278.12 238.471C278.561 238.177 278.876 237.782 279.068 237.284C279.259 236.787 279.355 236.235 279.355 235.629L280.101 235.609ZM285.288 240.203H283.499V229.848H285.241L285.288 231.475V240.203ZM288.514 231.427C288.361 231.395 288.217 231.376 288.083 231.37C287.955 231.357 287.809 231.351 287.643 231.351C287.1 231.351 286.641 231.462 286.265 231.686C285.895 231.909 285.607 232.218 285.403 232.614C285.199 233.003 285.072 233.45 285.021 233.954L284.513 234.241C284.513 233.405 284.625 232.643 284.848 231.954C285.072 231.258 285.419 230.703 285.891 230.288C286.37 229.867 286.982 229.657 287.729 229.657C287.85 229.657 287.994 229.673 288.16 229.704C288.332 229.73 288.45 229.759 288.514 229.791V231.427ZM294.447 240.395C293.484 240.395 292.645 240.181 291.93 239.753C291.222 239.319 290.67 238.726 290.275 237.973C289.885 237.22 289.691 236.359 289.691 235.389V234.978C289.691 233.855 289.905 232.898 290.332 232.107C290.766 231.309 291.327 230.703 292.016 230.288C292.712 229.867 293.446 229.657 294.218 229.657C295.213 229.657 296.023 229.88 296.648 230.327C297.28 230.767 297.743 231.37 298.036 232.135C298.336 232.895 298.486 233.756 298.486 234.719V235.514H290.753V234.078H296.696V233.944C296.671 233.485 296.578 233.038 296.419 232.604C296.259 232.164 296.004 231.804 295.653 231.523C295.302 231.236 294.824 231.092 294.218 231.092C293.682 231.092 293.206 231.245 292.792 231.552C292.383 231.851 292.061 232.292 291.825 232.872C291.595 233.446 291.48 234.148 291.48 234.978V235.389C291.48 236.046 291.602 236.646 291.844 237.188C292.087 237.724 292.438 238.155 292.897 238.48C293.356 238.799 293.905 238.959 294.543 238.959C295.168 238.959 295.698 238.831 296.132 238.576C296.565 238.321 296.945 237.98 297.271 237.552L298.352 238.394C298.02 238.905 297.542 239.367 296.916 239.782C296.298 240.19 295.474 240.395 294.447 240.395ZM301.692 240.308C301.335 240.308 301.06 240.21 300.869 240.012C300.684 239.814 300.591 239.568 300.591 239.275C300.591 238.975 300.684 238.723 300.869 238.519C301.06 238.308 301.335 238.203 301.692 238.203C302.056 238.203 302.33 238.308 302.515 238.519C302.706 238.723 302.802 238.975 302.802 239.275C302.802 239.568 302.706 239.814 302.515 240.012C302.33 240.21 302.056 240.308 301.692 240.308Z" fill="black"/>
<path d="M398.273 182.132L399.853 181.838C399.989 182.599 400.413 182.979 401.124 182.979C401.502 182.979 401.785 182.907 401.972 182.761C402.159 182.615 402.252 182.426 402.252 182.193C402.252 182.034 402.211 181.909 402.129 181.817C402.042 181.726 401.871 181.646 401.616 181.578C400.322 181.236 399.499 180.91 399.148 180.601C398.711 180.213 398.492 179.682 398.492 179.008C398.492 178.333 398.706 177.793 399.135 177.388C399.563 176.982 400.185 176.779 401.001 176.779C401.78 176.779 402.373 176.932 402.778 177.237C403.184 177.538 403.469 178.026 403.633 178.7L402.149 179.035C402.017 178.452 401.644 178.16 401.028 178.16C400.641 178.16 400.365 178.217 400.201 178.331C400.037 178.44 399.955 178.584 399.955 178.762C399.955 178.921 400.03 179.053 400.181 179.158C400.331 179.268 400.798 179.432 401.582 179.65C402.462 179.896 403.059 180.195 403.373 180.546C403.683 180.897 403.838 181.364 403.838 181.947C403.838 182.649 403.596 183.228 403.113 183.684C402.635 184.139 401.972 184.367 401.124 184.367C400.354 184.367 399.725 184.178 399.237 183.8C398.75 183.417 398.428 182.861 398.273 182.132ZM409.122 184.203V183.116C408.903 183.508 408.616 183.816 408.261 184.039C407.905 184.258 407.534 184.367 407.146 184.367C406.755 184.367 406.404 184.265 406.094 184.06C405.784 183.854 405.551 183.563 405.396 183.185C405.246 182.806 405.171 182.257 405.171 181.537V176.943H406.75V180.279C406.75 181.232 406.773 181.838 406.818 182.098C406.868 182.353 406.976 182.551 407.14 182.692C407.304 182.834 407.502 182.904 407.734 182.904C407.999 182.904 408.243 182.813 408.466 182.631C408.689 182.444 408.835 182.207 408.903 181.92C408.976 181.628 409.013 180.99 409.013 180.006V176.943H410.585V184.203H409.122ZM412.178 176.943H413.647V178.01C413.848 177.627 414.112 177.326 414.44 177.107C414.769 176.889 415.122 176.779 415.5 176.779C416.179 176.779 416.762 177.103 417.25 177.75C417.742 178.397 417.988 179.315 417.988 180.505C417.988 181.754 417.742 182.711 417.25 183.376C416.758 184.037 416.172 184.367 415.493 184.367C415.179 184.367 414.885 184.292 414.611 184.142C414.342 183.987 414.058 183.709 413.757 183.308V186.965H412.178V176.943ZM413.736 180.45C413.736 181.271 413.868 181.874 414.133 182.262C414.402 182.649 414.725 182.843 415.104 182.843C415.464 182.843 415.767 182.665 416.013 182.31C416.259 181.95 416.382 181.364 416.382 180.553C416.382 179.783 416.254 179.215 415.999 178.851C415.748 178.481 415.441 178.297 415.076 178.297C414.693 178.297 414.374 178.477 414.119 178.837C413.864 179.192 413.736 179.73 413.736 180.45ZM419.191 176.943H420.661V178.01C420.862 177.627 421.126 177.326 421.454 177.107C421.782 176.889 422.135 176.779 422.514 176.779C423.193 176.779 423.776 177.103 424.264 177.75C424.756 178.397 425.002 179.315 425.002 180.505C425.002 181.754 424.756 182.711 424.264 183.376C423.771 184.037 423.186 184.367 422.507 184.367C422.192 184.367 421.898 184.292 421.625 184.142C421.356 183.987 421.071 183.709 420.771 183.308V186.965H419.191V176.943ZM420.75 180.45C420.75 181.271 420.882 181.874 421.146 182.262C421.415 182.649 421.739 182.843 422.117 182.843C422.477 182.843 422.78 182.665 423.026 182.31C423.272 181.95 423.396 181.364 423.396 180.553C423.396 179.783 423.268 179.215 423.013 178.851C422.762 178.481 422.454 178.297 422.09 178.297C421.707 178.297 421.388 178.477 421.133 178.837C420.878 179.192 420.75 179.73 420.75 180.45ZM425.884 180.471C425.884 179.76 426.025 179.113 426.308 178.529C426.59 177.946 426.959 177.508 427.415 177.217C427.871 176.925 428.383 176.779 428.953 176.779C429.91 176.779 430.662 177.155 431.209 177.907C431.756 178.655 432.029 179.53 432.029 180.532C432.029 181.28 431.886 181.954 431.599 182.556C431.316 183.157 430.942 183.611 430.478 183.916C430.017 184.217 429.511 184.367 428.96 184.367C428.076 184.367 427.342 184.03 426.759 183.355C426.175 182.681 425.884 181.719 425.884 180.471ZM427.497 180.573C427.497 181.307 427.641 181.863 427.928 182.241C428.215 182.615 428.561 182.802 428.967 182.802C429.363 182.802 429.703 182.613 429.985 182.234C430.268 181.856 430.409 181.298 430.409 180.56C430.409 179.84 430.266 179.29 429.979 178.912C429.691 178.534 429.347 178.345 428.946 178.345C428.55 178.345 428.208 178.534 427.921 178.912C427.638 179.29 427.497 179.844 427.497 180.573ZM434.777 184.203H433.198V176.943H434.661V177.976C434.912 177.493 435.135 177.174 435.331 177.019C435.532 176.859 435.762 176.779 436.021 176.779C436.382 176.779 436.726 176.9 437.054 177.142L436.562 178.816C436.302 178.607 436.056 178.502 435.823 178.502C435.604 178.502 435.411 178.584 435.242 178.748C435.078 178.908 434.96 179.199 434.887 179.623C434.814 180.047 434.777 180.826 434.777 181.961V184.203ZM440.458 176.943V178.475H439.385V181.4C439.385 182.034 439.401 182.401 439.433 182.501C439.496 182.683 439.626 182.774 439.822 182.774C439.968 182.774 440.178 182.713 440.451 182.59L440.588 184.08C440.223 184.271 439.811 184.367 439.351 184.367C438.95 184.367 438.628 184.271 438.387 184.08C438.145 183.889 437.983 183.613 437.901 183.253C437.838 182.989 437.806 182.451 437.806 181.64V178.475H437.081V176.943H437.806V175.501L439.385 174.38V176.943H440.458ZM441.012 182.132L442.591 181.838C442.728 182.599 443.151 182.979 443.862 182.979C444.241 182.979 444.523 182.907 444.71 182.761C444.897 182.615 444.99 182.426 444.99 182.193C444.99 182.034 444.949 181.909 444.867 181.817C444.781 181.726 444.61 181.646 444.354 181.578C443.06 181.236 442.238 180.91 441.887 180.601C441.449 180.213 441.23 179.682 441.23 179.008C441.23 178.333 441.445 177.793 441.873 177.388C442.301 176.982 442.924 176.779 443.739 176.779C444.519 176.779 445.111 176.932 445.517 177.237C445.922 177.538 446.207 178.026 446.371 178.7L444.888 179.035C444.756 178.452 444.382 178.16 443.767 178.16C443.379 178.16 443.104 178.217 442.939 178.331C442.775 178.44 442.693 178.584 442.693 178.762C442.693 178.921 442.769 179.053 442.919 179.158C443.069 179.268 443.536 179.432 444.32 179.65C445.2 179.896 445.797 180.195 446.111 180.546C446.421 180.897 446.576 181.364 446.576 181.947C446.576 182.649 446.335 183.228 445.852 183.684C445.373 184.139 444.71 184.367 443.862 184.367C443.092 184.367 442.463 184.178 441.976 183.8C441.488 183.417 441.167 182.861 441.012 182.132Z" fill="black"/>
<defs>
<linearGradient id="paint0_linear_2319_88" x1="238" y1="155.203" x2="238" y2="265.203" gradientUnits="userSpaceOnUse">
<stop stop-color="#55D555"/>
<stop offset="1" stop-color="#55D555" stop-opacity="0"/>
</linearGradient>
<linearGradient id="paint1_linear_2319_88" x1="238" y1="155.203" x2="238" y2="265.203" gradientUnits="userSpaceOnUse">
<stop offset="0.505" stop-color="#55D555"/>
<stop offset="1" stop-color="#55D555" stop-opacity="0"/>
</linearGradient>
</defs>
</svg>
