<?xml version="1.0" standalone="no"?>
<!DOCTYPE svg PUBLIC "-//W3C//DTD SVG 1.1//EN" "http://www.w3.org/Graphics/SVG/1.1/DTD/svg11.dtd" >
<svg xmlns="http://www.w3.org/2000/svg" xmlns:xlink="http://www.w3.org/1999/xlink" version="1.1">
<metadata>
Created by FontForge 20200427 at Thu Dec  4 01:31:23 2008
 By www
Copyright (C) 2004, 2009 Hoefler &#38; Frere-Jones. http://www.typography.com
</metadata>
<defs>
<font id="Sentinel-Semibold" horiz-adv-x="732" >
  <font-face 
    font-family="Sentinel Semibold"
    font-weight="375"
    font-stretch="normal"
    units-per-em="1000"
    panose-1="0 0 0 0 0 0 0 0 0 0"
    ascent="800"
    descent="-200"
    x-height="463"
    cap-height="658"
    bbox="-64 -337 1184 1106"
    underline-thickness="50"
    underline-position="-100"
    unicode-range="U+0020-FB04"
  />
<missing-glyph horiz-adv-x="500" 
d="M0 -200v1000h500v-1000h-500zM71 750l179 -390l179 390h-358zM50 -76l172 376l-172 376v-752zM450 676l-172 -376l172 -376v752zM250 240l-179 -390h358z" />
    <glyph glyph-name="f_f" unicode="ff" horiz-adv-x="649" 
d="M316 694q100 0 136 -57q57 58 148 58q65 0 100.5 -26t35.5 -67q0 -28 -18 -47.5t-45 -19.5q-30 0 -48 16.5t-18 47.5q0 19 11 37q-10 6 -31 6q-38 0 -58.5 -32.5t-20.5 -113.5v-38h136v-69h-133v-315h102v-74h-280v74h61v315h-174v-315h61v-74h-246v74h69v315h-88v69h88
v12q0 111 62.5 167.5t149.5 56.5zM394 458v20q0 26 3 48q-28 1 -45 17.5t-17 45.5q0 23 13 40q-18 12 -40 12q-91 0 -91 -148v-35h177z" />
    <glyph glyph-name="fi" unicode="fi" horiz-adv-x="611" 
d="M399 389h-179v-315h62v-74h-249v74h71v315h-88v69h88v11q0 113 65.5 169.5t157.5 56.5q75 0 123 -31.5t48 -75.5q0 -30 -19 -48.5t-50 -18.5q-32 0 -51 17t-19 46q0 23 15 40q-19 17 -58 17q-99 0 -99 -140v-43h299v-384h80v-74h-258v74h61v315z" />
    <glyph glyph-name="fl" unicode="fl" horiz-adv-x="625" 
d="M33 0v74h71v315h-88v69h88v15q0 110 62 166t149 56q53 0 91 -18l120 17v-620h80v-74h-263v74h66v315h-189v-315h67v-74h-254zM217 489v-31h192v79q-10 -2 -15 -2q-30 0 -48 16.5t-18 47.5q0 20 10 37q-12 6 -34 6q-42 0 -64.5 -33.5t-22.5 -119.5z" />
    <glyph glyph-name="f_f_i" unicode="ffi" horiz-adv-x="902" 
d="M508 501v-43h298v-384h80v-74h-258v74h62v315h-179v-315h61v-74h-239v74h61v315h-174v-315h61v-74h-246v74h69v315h-88v69h88v11q0 111 62.5 168t149.5 57q106 0 138 -61q62 62 163 62q75 0 123 -31.5t48 -75.5q0 -30 -19 -48.5t-49 -18.5q-32 0 -51 17t-19 46
q0 23 15 40q-19 17 -58 17q-99 0 -99 -140zM394 469q0 35 5 57q-29 0 -46.5 16.5t-17.5 46.5q0 23 13 40q-18 12 -40 12q-91 0 -91 -148v-35h177v11z" />
    <glyph glyph-name="f_f_l" unicode="ffl" horiz-adv-x="916" 
d="M633 0v74h67v315h-189v-315h66v-74h-244v74h61v315h-174v-315h61v-74h-246v74h69v315h-88v69h88v11q0 111 62.5 168t149.5 57q101 0 137 -58q58 59 153 59q53 0 91 -18l119 17v-620h80v-74h-263zM508 489v-31h192v79q-10 -2 -15 -2q-31 0 -49 16.5t-18 47.5q0 21 11 37
q-12 6 -34 6q-42 0 -64.5 -33.5t-22.5 -119.5zM394 458v15q0 30 4 53q-29 1 -46 17.5t-17 45.5q0 23 13 40q-18 12 -40 12q-91 0 -91 -148v-35h177z" />
    <glyph glyph-name="f_b" unicode="fb" horiz-adv-x="882" 
d="M33 0v74h71v315h-88v69h88v15q0 110 62 166t149 56q54 0 90 -17l108 16v-324q24 47 63.5 74t87.5 27q75 0 119 -46q63 -63 63 -193q0 -124 -67 -191q-53 -51 -124 -51q-103 0 -157 97l-39 -93h-63v395h-176v-315h67v-74h-254zM623 62q46 0 71 43.5t25 125.5
q0 165 -96 165q-51 0 -83 -49.5t-32 -125.5q0 -73 32.5 -116t82.5 -43zM217 489v-31h179v77h-2q-30 0 -48 16.5t-18 47.5q0 20 10 37q-12 6 -34 6q-42 0 -64.5 -33.5t-22.5 -119.5z" />
    <glyph glyph-name="f_h" unicode="fh" horiz-adv-x="908" 
d="M343 0v74h66v315h-189v-315h67v-74h-254v74h71v315h-88v69h88v15q0 110 62 166t149 56q53 0 91 -18l120 17v-342q66 118 166 118q63 0 97 -41t34 -111v-244h70v-74h-248v74h61v216q0 52 -23 75q-18 19 -51 19q-41 0 -73.5 -37t-32.5 -96v-177h60v-74h-243zM217 489v-31
h192v79q-10 -2 -15 -2q-30 0 -48 16.5t-18 47.5q0 20 10 37q-12 6 -34 6q-42 0 -64.5 -33.5t-22.5 -119.5z" />
    <glyph glyph-name="f_j" unicode="fj" horiz-adv-x="592" 
d="M516 458v-426q0 -97 -45 -149.5t-133 -52.5q-56 0 -90 22.5t-34 59.5q0 28 19 48.5t48 20.5q30 0 48 -18.5t18 -43.5q0 -16 -8 -32q7 -3 17 -3q43 0 43 74v431h-179v-315h62v-74h-249v74h71v315h-88v69h88v11q0 113 65.5 169.5t157.5 56.5q75 0 123 -31.5t48 -75.5
q0 -30 -19 -48.5t-50 -18.5q-32 0 -51 17t-19 46q0 23 15 40q-19 17 -58 17q-99 0 -99 -140v-43h299z" />
    <glyph glyph-name="f_k" unicode="fk" horiz-adv-x="880" 
d="M33 0v74h71v315h-88v69h88v15q0 110 62 166t149 56q53 0 91 -18l120 17v-465l162 161h-75v73h233v-74h-70l-114 -109l157 -206h52v-74h-234v73h55l-103 142l-63 -61v-81h54v-73h-237v74h66v315h-189v-315h67v-74h-254zM217 489v-31h192v79q-10 -2 -15 -2q-30 0 -48 16.5
t-18 47.5q0 20 10 37q-12 6 -34 6q-42 0 -64.5 -33.5t-22.5 -119.5z" />
    <glyph glyph-name="f_f_b" unicode="ffb" horiz-adv-x="1173" 
d="M803 694v-324q24 47 63.5 74t88.5 27q73 0 119 -46q63 -63 63 -193q0 -122 -67 -191q-53 -51 -124 -51q-103 0 -157 97l-39 -93h-63v395h-176v-315h66v-74h-244v74h61v315h-174v-315h61v-74h-246v74h69v315h-88v69h88v11q0 111 62.5 168t149.5 57q101 0 137 -58
q58 59 153 59q54 0 90 -17zM914 62q46 0 71 43.5t25 125.5q0 80 -25 122.5t-71 42.5q-51 0 -83.5 -49.5t-32.5 -125.5q0 -73 33 -116t83 -43zM394 458v15q0 30 4 53q-29 1 -46 17.5t-17 45.5q0 23 13 40q-18 12 -40 12q-91 0 -91 -148v-35h177zM508 489v-31h179v77h-2
q-31 0 -49 16.5t-18 47.5q0 21 11 37q-12 6 -34 6q-42 0 -64.5 -33.5t-22.5 -119.5z" />
    <glyph glyph-name="f_f_h" unicode="ffh" horiz-adv-x="1199" 
d="M633 0v74h67v315h-189v-315h66v-74h-244v74h61v315h-174v-315h61v-74h-246v74h69v315h-88v69h88v11q0 111 62.5 168t149.5 57q101 0 137 -58q58 59 153 59q53 0 91 -18l119 17v-342q66 118 166 118q63 0 97 -41t34 -111v-244h71v-74h-248v74h61v216q0 51 -24 75
q-18 19 -50 19q-42 0 -74.5 -37t-32.5 -96v-177h61v-74h-244zM508 489v-31h192v79q-10 -2 -15 -2q-31 0 -49 16.5t-18 47.5q0 21 11 37q-12 6 -34 6q-42 0 -64.5 -33.5t-22.5 -119.5zM394 473q0 30 4 53q-29 1 -46 17.5t-17 45.5q0 23 13 40q-18 12 -40 12q-91 0 -91 -148
v-35h177v15z" />
    <glyph glyph-name="f_f_j" unicode="ffj" horiz-adv-x="883" 
d="M806 458v-426q0 -97 -44.5 -149.5t-132.5 -52.5q-56 0 -90 22.5t-34 59.5q0 28 19 48.5t48 20.5q30 0 47.5 -18.5t17.5 -43.5q0 -18 -7 -32q8 -3 16 -3q44 0 44 74v431h-179v-315h61v-74h-239v74h61v315h-174v-315h61v-74h-246v74h69v315h-88v69h88v11q0 111 62.5 168
t149.5 57q106 0 138 -61q62 62 163 62q75 0 123 -31.5t48 -75.5q0 -30 -19 -48.5t-49 -18.5q-32 0 -51 17t-19 46q0 23 15 40q-19 17 -58 17q-99 0 -99 -140v-43h298zM394 469q0 35 5 57q-29 0 -46.5 16.5t-17.5 46.5q0 23 13 40q-18 12 -40 12q-91 0 -91 -148v-35h177v11z
" />
    <glyph glyph-name="f_f_k" unicode="ffk" horiz-adv-x="1171" 
d="M816 694v-465l162 161h-74v73h233v-74h-70l-115 -109l157 -206h53v-74h-234v73h55l-104 142l-63 -61v-81h54v-73h-237v74h67v315h-189v-315h66v-74h-244v74h61v315h-174v-315h61v-74h-246v74h69v315h-88v69h88v11q0 111 62.5 168t149.5 57q101 0 137 -58q58 59 153 59
q53 0 91 -18zM508 489v-31h192v79q-10 -2 -15 -2q-31 0 -49 16.5t-18 47.5q0 21 11 37q-12 6 -34 6q-42 0 -64.5 -33.5t-22.5 -119.5zM394 473q0 30 4 53q-29 1 -46 17.5t-17 45.5q0 23 13 40q-18 12 -40 12q-91 0 -91 -148v-35h177v15z" />
    <glyph glyph-name=".notdef" horiz-adv-x="500" 
d="M0 -200v1000h500v-1000h-500zM71 750l179 -390l179 390h-358zM50 -76l172 376l-172 376v-752zM450 676l-172 -376l172 -376v752zM250 240l-179 -390h358z" />
    <glyph glyph-name=".null" horiz-adv-x="0" 
 />
    <glyph glyph-name="nonmarkingreturn" horiz-adv-x="333" 
 />
    <glyph glyph-name="space" unicode=" " horiz-adv-x="180" 
 />
    <glyph glyph-name="exclam" unicode="!" horiz-adv-x="288" 
d="M145 684q34 0 53.5 -21t19.5 -59q0 -44 -15 -146q-24 -178 -31 -266h-56q-7 88 -31 266q-14 107 -14 146q0 38 19.5 59t54.5 21zM144 -16q-32 0 -54 21.5t-22 51.5q0 31 22 52.5t55 21.5q31 0 53 -21.5t22 -51.5q0 -31 -22 -52.5t-54 -21.5z" />
    <glyph glyph-name="quotedbl" unicode="&#x22;" horiz-adv-x="412" 
d="M269 400l-40 19l19 97q19 90 29 113q17 36 48 36q24 0 42.5 -14.5t18.5 -36.5q0 -21 -6 -32q-24 -50 -57 -100zM94 400l-40 19l17 96q18 93 27 113q17 37 49 37q24 0 42.5 -14.5t18.5 -36.5q0 -16 -6 -31q-17 -41 -55 -101z" />
    <glyph glyph-name="numbersign" unicode="#" horiz-adv-x="669" 
d="M200 409h-132v68h144l36 186h78l-36 -186h151l37 186h78l-36 -186h121v-68h-134l-36 -188h131v-68h-144l-37 -193h-78l37 193h-151l-37 -193h-79l37 193h-121v68h134zM430 410h-153l-36 -190h152z" />
    <glyph glyph-name="dollar" unicode="$" horiz-adv-x="561" 
d="M320 -82h-66v83q-99 6 -156.5 45.5t-57.5 92.5q0 29 20 51t50 22q29 0 48 -19.5t19 -45.5q0 -34 -30 -55q30 -28 108 -36v216q-48 14 -78.5 26.5t-60 32.5t-43.5 48.5t-14 66.5q0 74 52 125.5t143 61.5v74h66v-72q93 -5 143.5 -44t50.5 -86q0 -32 -16.5 -52t-44.5 -20
q-32 0 -50.5 17.5t-18.5 45.5q0 34 27 52q-26 26 -91 32v-206q103 -31 150 -69.5t47 -111.5t-48.5 -128t-148.5 -64v-83zM418 152q0 35 -23.5 58t-75.5 42v-196q50 6 74.5 32t24.5 64zM163 487q0 -36 20 -55.5t73 -37.5v184q-46 -7 -69.5 -32t-23.5 -59z" />
    <glyph glyph-name="percent" unicode="%" horiz-adv-x="803" 
d="M164 265q-61 0 -97 37.5t-36 100.5q0 86 61 156.5t141 70.5q65 0 98 -44q37 -16 91 -16q96 0 163 75h73l-440 -671h-86l391 575l-3 3q-50 -39 -120 -39q-20 0 -46 3q0 -1 0.5 -5t0.5 -6q0 -81 -54 -160.5t-137 -79.5zM579 -14q-61 0 -97 38t-36 100q0 86 61 156.5
t141 70.5q57 0 89.5 -33t32.5 -92q0 -50 -21.5 -103.5t-67 -95t-102.5 -41.5zM593 38q48 0 83.5 63.5t35.5 125.5q0 67 -50 67q-46 0 -83 -64t-37 -124q0 -33 14 -50.5t37 -17.5zM177 317q49 0 84.5 63t35.5 126q0 10 -2 24q-29 13 -61 41q-43 -9 -75 -70t-32 -116
q0 -68 50 -68z" />
    <glyph glyph-name="ampersand" unicode="&#x26;" horiz-adv-x="738" 
d="M488 384h224v-72h-74q-49 -100 -118 -176q27 -41 42.5 -54.5t35.5 -13.5q18 0 31 12.5t26 45.5l49 -18q-38 -124 -141 -124q-45 0 -73 18t-59 66q-81 -84 -186 -84q-96 0 -149 49.5t-53 118.5q0 66 40.5 111t118.5 77q-65 68 -65 133q0 70 51 115t130 45q74 0 116.5 -38
t42.5 -91t-32.5 -87t-98.5 -68q79 -78 136 -163q50 59 80 127h-74v71zM281 64q59 0 115 51q-56 90 -156 188q-75 -44 -75 -125q0 -49 31.5 -81.5t84.5 -32.5zM242 504q0 -51 67 -119q72 47 72 111q0 33 -17.5 55.5t-52.5 22.5q-31 0 -50 -19t-19 -51z" />
    <glyph glyph-name="quotesingle" unicode="'" horiz-adv-x="234" 
d="M93 400l-41 19l19 97q17 89 28 113q15 36 49 36q24 0 42.5 -14.5t18.5 -37.5q0 -16 -6 -31q-18 -40 -56 -100z" />
    <glyph glyph-name="parenleft" unicode="(" horiz-adv-x="373" 
d="M357 -159q-129 55 -210.5 167.5t-81.5 271.5q0 160 82 274t210 169l31 -52q-202 -125 -202 -387q0 -266 202 -391z" />
    <glyph glyph-name="parenright" unicode=")" horiz-adv-x="373" 
d="M16 723q129 -55 210.5 -167.5t81.5 -271.5q0 -160 -82 -274t-210 -169l-31 52q202 125 202 387q0 266 -202 391z" />
    <glyph glyph-name="asterisk" unicode="*" horiz-adv-x="434" 
d="M219 359q-6 19 -4 122l-13 4q-57 -84 -75 -96q-39 -29 -66 7q-28 35 13 64q21 15 116 42v14q-95 27 -116 42q-40 28 -13 65q26 37 66 7q21 -16 75 -97l12 4q0 108 5 122q16 47 58 34q42 -15 26 -61q-7 -23 -68 -100l9 -11q90 33 116 33q50 0 50 -45q0 -44 -50 -44
q-23 0 -116 34l-8 -11q58 -76 67 -101q16 -46 -26 -61q-42 -13 -58 33z" />
    <glyph glyph-name="plus" unicode="+" horiz-adv-x="525" 
d="M225 68v180h-176v70h176v179h76v-179h175v-70h-175v-180h-76z" />
    <glyph glyph-name="comma" unicode="," horiz-adv-x="242" 
d="M35 -158l-21 40q113 50 126 121l-6 3q-14 -12 -33 -12q-23 0 -39 18t-16 45q0 31 20.5 53.5t52.5 22.5q38 0 61 -26.5t23 -70.5q0 -128 -168 -194z" />
    <glyph glyph-name="hyphen" unicode="-" horiz-adv-x="361" 
d="M52 208v86h257v-86h-257z" />
    <glyph glyph-name="period" unicode="." horiz-adv-x="242" 
d="M121 -16q-32 0 -54 21.5t-22 52.5t22 53t55 22q31 0 53 -21.5t22 -52.5q0 -32 -22 -53.5t-54 -21.5z" />
    <glyph glyph-name="slash" unicode="/" horiz-adv-x="428" 
d="M-54 -203l387 910h84l-387 -910h-84z" />
    <glyph glyph-name="zero" unicode="0" horiz-adv-x="585" 
d="M292 -16q-117 0 -185 91.5t-68 239.5q0 147 70 241t184 94q117 0 185.5 -91.5t68.5 -239.5t-70 -241.5t-185 -93.5zM294 52q62 0 89.5 64.5t27.5 200.5q0 265 -120 265q-62 0 -89.5 -64.5t-27.5 -200.5q0 -265 120 -265z" />
    <glyph glyph-name="one" unicode="1" horiz-adv-x="480" 
d="M57 0v74h140v428q-29 -11 -70 -11q-43 0 -75 10v62q61 -3 112.5 18t74.5 61h81v-568h138v-74h-401z" />
    <glyph glyph-name="two" unicode="2" horiz-adv-x="572" 
d="M43 68q0 104 179 211q91 56 123.5 92.5t32.5 98.5q0 53 -29.5 84t-82.5 31q-80 0 -110 -56q51 -18 51 -69q0 -32 -19.5 -53t-53.5 -21q-35 0 -57 24.5t-22 62.5q0 70 65.5 123.5t166.5 53.5q106 0 166.5 -54t60.5 -133q0 -73 -50 -120t-152 -93q-83 -38 -122.5 -66.5
t-56.5 -66.5l3 -4q43 30 100 30q40 0 95 -22.5t74 -22.5q29 0 44.5 23.5t30.5 84.5l54 -5q-16 -217 -144 -217q-34 0 -66 15t-52 33t-44.5 33t-45.5 15q-4 0 -11 -1t-8 -1q12 -14 12 -35q0 -25 -16.5 -42t-43.5 -17q-32 0 -52 23.5t-20 60.5z" />
    <glyph glyph-name="three" unicode="3" horiz-adv-x="551" 
d="M260 -16q-100 0 -164 41.5t-64 104.5q0 34 22 57.5t57 23.5q32 0 51 -20t19 -48q0 -39 -36 -62q33 -31 107 -31q60 0 91.5 31t31.5 87q0 61 -37.5 91.5t-130.5 30.5h-28v68h25q87 0 122 31.5t35 91.5q0 50 -27.5 76.5t-79.5 26.5q-67 0 -102 -31q42 -20 42 -63
q0 -28 -18.5 -48t-52.5 -20q-32 0 -54 22t-22 57q0 61 64 105t162 44q104 0 163.5 -46.5t59.5 -114.5q0 -58 -46 -100.5t-140 -58.5v-3q97 -7 148.5 -48.5t51.5 -106.5q0 -80 -68.5 -134t-181.5 -54z" />
    <glyph glyph-name="four" unicode="4" horiz-adv-x="580" 
d="M320 256v278h-5l-205 -278h210zM437 73h96v-73h-315v73h101v109h-294v75l293 388h119v-389h126v-74h-126v-109z" />
    <glyph glyph-name="five" unicode="5" horiz-adv-x="545" 
d="M167 526l-12 -168q60 46 143 46q103 0 156 -56t53 -140q0 -92 -63 -158t-182 -66q-90 0 -154.5 41.5t-64.5 104.5q0 36 22 60.5t56 24.5q32 0 49.5 -19.5t17.5 -47.5q0 -42 -35 -65q35 -35 97 -35q61 0 93 38t32 108q0 140 -119 140q-66 0 -121 -50l-54 15l22 329l19 17
q92 -35 194 -35q89 0 158 36l19 -42q-61 -104 -187 -104q-69 0 -139 26z" />
    <glyph glyph-name="six" unicode="6" horiz-adv-x="568" 
d="M176 315q59 85 157 85q89 0 141 -53.5t52 -140.5q0 -91 -61 -156.5t-172 -65.5q-114 0 -180 86.5t-66 219.5q0 164 80.5 262t212.5 98q80 0 126 -36.5t46 -89.5q0 -35 -20.5 -57.5t-52.5 -22.5t-50 18t-18 46q0 39 33 60q-23 19 -67 19q-77 0 -119.5 -66.5t-41.5 -205.5z
M181 194q0 -64 33 -105t82 -41q101 0 101 147q0 66 -26.5 102.5t-77.5 36.5t-81.5 -37.5t-30.5 -102.5z" />
    <glyph glyph-name="seven" unicode="7" horiz-adv-x="536" 
d="M300 67q-10 -83 -71 -83q-32 0 -52 19.5t-20 54.5q0 154 215 387q21 26 65 67l-5 6q-52 -32 -107 -32q-37 0 -83 20t-62 20q-27 0 -41.5 -26.5t-26.5 -101.5h-70v239h76l6 -76h6q27 82 90 82q27 0 52 -14.5t40.5 -32.5t36.5 -32.5t41 -14.5q7 0 22 3q-13 17 -13 37
q0 26 17 43.5t46 17.5t47 -19t18 -46t-15 -51t-46 -59q-70 -76 -111 -170.5t-55 -237.5z" />
    <glyph glyph-name="eight" unicode="8" horiz-adv-x="556" 
d="M61 460q0 78 62.5 134t161.5 56q97 0 154.5 -46t57.5 -112q0 -100 -115 -141q134 -50 134 -164q0 -86 -68 -144.5t-173 -58.5q-107 0 -168 49t-61 121q0 46 31 85t92 61q-108 48 -108 160zM222 282h-1q-70 -37 -70 -116q0 -52 35 -85.5t99 -33.5q56 0 89.5 30t33.5 72
q0 49 -43 76t-144 54zM170 494q0 -50 39 -77t123 -47q66 40 66 115q0 42 -31 72t-87 30q-51 0 -80.5 -27t-29.5 -66z" />
    <glyph glyph-name="nine" unicode="9" horiz-adv-x="568" 
d="M392 311q-59 -85 -157 -85q-90 0 -141 53.5t-51 143.5q0 94 60.5 160.5t171.5 66.5q114 0 180 -86.5t66 -219.5q0 -166 -78 -263t-212 -97q-86 0 -134.5 37t-48.5 92q0 35 20.5 58t53.5 23q32 0 49.5 -18.5t17.5 -46.5q0 -40 -33 -60q31 -22 76 -22q164 0 160 264z
M387 436q0 66 -33 108t-82 42q-101 0 -101 -151q0 -143 104 -143q51 0 81.5 38.5t30.5 105.5z" />
    <glyph glyph-name="colon" unicode=":" horiz-adv-x="254" 
d="M127 274q-32 0 -54 21.5t-22 52.5t22 53t55 22q31 0 53 -21.5t22 -52.5q0 -32 -22 -53.5t-54 -21.5zM127 -16q-32 0 -54 21.5t-22 52.5t22 53t55 22q31 0 53 -21.5t22 -52.5q0 -32 -22 -53.5t-54 -21.5z" />
    <glyph glyph-name="semicolon" unicode=";" horiz-adv-x="254" 
d="M129 274q-32 0 -54 21.5t-22 52.5t22 53t55 22q31 0 53 -21.5t22 -52.5q0 -32 -22 -53.5t-54 -21.5zM37 -158l-20 40q113 50 126 121l-7 3q-12 -12 -32 -12q-23 0 -39 18t-16 45q0 32 20 54t52 22q38 0 61.5 -26.5t23.5 -70.5q0 -128 -169 -194z" />
    <glyph glyph-name="less" unicode="&#x3c;" horiz-adv-x="524" 
d="M449 60l-374 187v72l374 186v-81l-299 -142l299 -141v-81z" />
    <glyph glyph-name="equal" unicode="=" horiz-adv-x="525" 
d="M54 343v72h417v-72h-417zM54 150v72h417v-72h-417z" />
    <glyph glyph-name="greater" unicode="&#x3e;" horiz-adv-x="524" 
d="M75 505l374 -187v-72l-374 -186v81l299 142l-299 141v81z" />
    <glyph glyph-name="question" unicode="?" horiz-adv-x="471" 
d="M178 205q2 95 60 170q7 9 22 26.5t22.5 27.5t17 25.5t13.5 32t4 35.5q0 45 -26.5 72t-72.5 27q-76 0 -98 -49q21 -8 34.5 -27t13.5 -41q0 -30 -19.5 -51.5t-52.5 -21.5q-34 0 -56.5 23.5t-22.5 60.5q0 68 59.5 118.5t152.5 50.5q103 0 160.5 -51.5t57.5 -123.5
q0 -52 -26.5 -90t-86.5 -83q-68 -49 -87 -131h-69zM214 -16q-31 0 -53.5 21.5t-22.5 51.5q0 31 22.5 52.5t54.5 21.5q31 0 53 -21.5t22 -51.5q0 -31 -22 -52.5t-54 -21.5z" />
    <glyph glyph-name="at" unicode="@" horiz-adv-x="904" 
d="M463 -149q-181 0 -297 105.5t-116 287.5q0 192 127 317t312 125q157 0 262.5 -95.5t105.5 -252.5q0 -130 -67 -205t-159 -75q-58 0 -91 29t-25 82l-4 1q-25 -51 -62 -78t-75 -27q-59 0 -95 41t-36 111q0 54 22.5 107.5t57.5 88.5q66 66 145 66q38 0 64.5 -23t30.5 -60
l23 76h96l-77 -246q-19 -64 -8.5 -88t53.5 -24q56 0 102 64t46 157q0 135 -88.5 219t-225.5 84q-161 0 -268.5 -113t-107.5 -280q0 -157 98 -251.5t261 -94.5q138 0 255 83l26 -40q-124 -91 -285 -91zM404 132q57 0 94.5 73.5t37.5 139.5q0 78 -56 78q-31 0 -57 -23.5
t-41.5 -58.5t-24 -71t-8.5 -65q0 -73 55 -73z" />
    <glyph glyph-name="A" unicode="A" horiz-adv-x="698" 
d="M484 75l-51 147h-232l-52 -147h83v-75h-241v75h72l221 587h128l213 -587h86v-75h-325v75h98zM318 548l-93 -259h185l-88 259h-4z" />
    <glyph glyph-name="B" unicode="B" horiz-adv-x="656" 
d="M28 0v75h102v508h-102v75h316q254 0 254 -159q0 -51 -40.5 -93.5t-132.5 -57.5v-5q100 -9 150.5 -51t50.5 -107q0 -82 -64 -133.5t-215 -51.5h-319zM259 379h75q71 0 101 28.5t30 80.5q0 50 -27.5 72.5t-102.5 22.5h-76v-204zM259 75h75q88 0 123 27.5t35 94.5
q0 112 -160 112h-73v-234z" />
    <glyph glyph-name="C" unicode="C" horiz-adv-x="684" 
d="M361 -16q-145 0 -234.5 97t-89.5 247q0 144 92.5 245t221.5 101q120 0 185 -78l19 75h76v-260h-76q-68 190 -192 190q-83 0 -132 -64.5t-49 -200.5q0 -133 51.5 -202.5t146.5 -69.5q79 0 128 55t62 144h82q-13 -130 -90.5 -204.5t-200.5 -74.5z" />
    <glyph glyph-name="D" unicode="D" horiz-adv-x="735" 
d="M28 0v75h102v508h-102v75h289q186 0 283.5 -87t97.5 -235q0 -149 -95 -242.5t-279 -93.5h-296zM259 74h69q120 0 172 59.5t52 202.5q0 131 -54.5 189.5t-177.5 58.5h-61v-510z" />
    <glyph glyph-name="E" unicode="E" horiz-adv-x="691" 
d="M28 0v75h102v508h-102v75h601v-223h-64q-25 96 -45.5 122.5t-78.5 26.5h-182v-214h63q49 0 63.5 15.5t26.5 81.5h64v-264h-64q-10 66 -25 82.5t-65 16.5h-63v-228h178q36 0 56.5 6t35.5 29t23.5 50t21.5 86h64v-245h-610z" />
    <glyph glyph-name="F" unicode="F" horiz-adv-x="656" 
d="M28 0v75h102v508h-102v75h588v-228h-64q-28 98 -52.5 126t-84.5 28h-156v-226h51q49 0 64.5 16.5t25.5 81.5h64v-268h-64q-8 67 -24 85t-66 18h-51v-216h117v-75h-348z" />
    <glyph glyph-name="G" unicode="G" 
d="M534 86q-62 -102 -182 -102q-139 0 -227 98t-88 248q0 143 93.5 243.5t221.5 100.5q117 0 183 -79l20 76h76v-256h-82q-64 186 -186 186q-82 0 -131.5 -65.5t-49.5 -199.5q0 -130 49 -201.5t141 -71.5q76 0 116 64q26 38 26 111v22h-117v75h327v-75h-82v-267h-75z" />
    <glyph glyph-name="H" unicode="H" horiz-adv-x="801" 
d="M28 0v75h102v508h-102v75h324v-75h-93v-207h282v207h-92v75h323v-75h-102v-508h102v-75h-323v75h92v231h-282v-231h93v-75h-324z" />
    <glyph glyph-name="I" unicode="I" horiz-adv-x="413" 
d="M39 0v75h103v508h-103v75h335v-75h-103v-508h103v-75h-335z" />
    <glyph glyph-name="J" unicode="J" horiz-adv-x="569" 
d="M239 -16q-98 0 -157.5 45.5t-59.5 119.5q0 42 24.5 69.5t61.5 27.5q32 0 54 -20.5t22 -57.5q0 -50 -48 -74q30 -39 96 -39q48 0 73.5 29.5t25.5 85.5v413h-105v75h332v-75h-98v-387q0 -100 -57 -156t-164 -56z" />
    <glyph glyph-name="K" unicode="K" horiz-adv-x="736" 
d="M259 227v-153h90v-74h-321v75h102v508h-102v75h322v-74h-91v-265l259 265h-85v74h270v-75h-82l-193 -191l231 -317h77v-75h-309v74h79l-164 234z" />
    <glyph glyph-name="L" unicode="L" horiz-adv-x="621" 
d="M28 658h337v-74h-106v-510h128q32 0 49.5 4.5t34 25.5t28.5 53.5t31 98.5h60v-256h-562v75h102v508h-102v75z" />
    <glyph glyph-name="M" unicode="M" horiz-adv-x="955" 
d="M32 0v75h94v508h-94v75h291l156 -452h4l154 452h286v-75h-99v-508h99v-75h-313v75h85v495h-9l-203 -570h-59l-208 570h-9v-495h89v-75h-264z" />
    <glyph glyph-name="N" unicode="N" horiz-adv-x="790" 
d="M561 -13l-345 528h-9v-440h98v-75h-273v75h94v508h-94v75h245l308 -472h9v397h-98v75h273v-75h-94v-596h-114z" />
    <glyph glyph-name="O" unicode="O" 
d="M366 -16q-141 0 -235 96.5t-94 247.5q0 149 95.5 247.5t233.5 98.5q141 0 235 -96.5t94 -247.5q0 -149 -95.5 -247.5t-233.5 -98.5zM367 57q90 0 136.5 69t46.5 203q0 133 -47.5 202.5t-137.5 69.5t-136.5 -69.5t-46.5 -202.5t47.5 -202.5t137.5 -69.5z" />
    <glyph glyph-name="P" unicode="P" horiz-adv-x="639" 
d="M28 0v75h102v508h-102v75h305q146 0 214 -53.5t68 -140.5q0 -85 -65.5 -143t-209.5 -58h-81v-188h112v-75h-343zM259 334h71q82 0 112.5 32t30.5 97q0 58 -32 89.5t-111 31.5h-71v-250z" />
    <glyph glyph-name="Q" unicode="Q" 
d="M366 -14q-141 0 -235 96t-94 246q0 149 95.5 247.5t233.5 98.5q141 0 235 -96.5t94 -247.5q0 -84 -35 -156t-95 -119q22 -42 40 -57t41 -15q25 0 37.5 17.5t20.5 62.5h58q-12 -173 -136 -173q-56 0 -91.5 26.5t-63.5 86.5q-51 -17 -105 -17zM223 142q12 51 49.5 82
t91.5 31q50 0 85 -28t65 -86q37 67 37 188q0 133 -47.5 202.5t-138.5 69.5q-90 0 -136.5 -69.5t-46.5 -202.5q0 -123 41 -187zM367 57q41 0 75 14q-46 106 -105 106q-30 0 -48 -19t-18 -47q0 -54 96 -54z" />
    <glyph glyph-name="R" unicode="R" horiz-adv-x="704" 
d="M259 288v-213h102v-75h-333v75h102v508h-102v75h340q138 0 198.5 -48.5t60.5 -120.5q0 -61 -42.5 -104.5t-139.5 -56.5v-8q79 -13 113 -48.5t38 -94.5l4 -59q4 -48 30 -48q22 0 43 50l50 -20q-34 -112 -127 -112q-129 0 -132 137l-1 61q-1 56 -21.5 79t-81.5 23h-101z
M259 358h98q69 0 98.5 29t29.5 90q0 55 -26.5 81t-92.5 26h-107v-226z" />
    <glyph glyph-name="S" unicode="S" horiz-adv-x="599" 
d="M49 -13v240h72q47 -96 92 -134t117 -38q56 0 87.5 26.5t31.5 73.5q0 21 -10 37.5t-21.5 27t-40 21t-44.5 15.5t-55 15q-50 13 -81 25t-67.5 34.5t-54.5 58.5t-18 86q0 83 62 141t156 58q48 0 93 -19t71 -52l21 68h75v-230h-72q-38 89 -81.5 125.5t-104.5 36.5
q-48 0 -75.5 -26t-27.5 -67q0 -23 10.5 -41t22.5 -28.5t41.5 -21.5t45 -15.5t56.5 -14.5q39 -9 63.5 -16.5t56.5 -23t50.5 -34.5t32 -50t13.5 -71q0 -90 -65.5 -150t-165.5 -60q-58 0 -108 20t-79 55l-23 -72h-76z" />
    <glyph glyph-name="T" unicode="T" horiz-adv-x="686" 
d="M168 0v75h111v519h-36q-63 0 -88 -32.5t-59 -150.5h-61v247h616v-247h-61q-34 118 -59 150.5t-88 32.5h-36v-519h111v-75h-350z" />
    <glyph glyph-name="U" unicode="U" horiz-adv-x="752" 
d="M381 -16q-132 0 -201.5 61t-69.5 166v372h-92v75h316v-75h-95v-344q0 -91 42.5 -131t129.5 -40q70 0 113 43q41 41 41 150v322h-97v75h268v-75h-89v-370q0 -97 -69.5 -163t-196.5 -66z" />
    <glyph glyph-name="V" unicode="V" horiz-adv-x="707" 
d="M300 -4l-220 587h-86v75h325v-75h-98l161 -458h8l167 458h-83v75h241v-75h-72l-226 -587h-117z" />
    <glyph glyph-name="W" unicode="W" horiz-adv-x="1024" 
d="M711 584h-104l122 -450h8l133 450h-83v74h241v-75h-72l-190 -587h-126l-113 399l-140 -399h-125l-180 587h-88v75h323v-74h-94l130 -451h8l131 378l-21 73h-84v74h324v-74z" />
    <glyph glyph-name="X" unicode="X" horiz-adv-x="698" 
d="M422 584v74h259v-75h-81l-182 -233l194 -275h82v-75h-315v74h83l-133 198l-150 -198h87v-74h-258v75h80l192 247l-186 261h-82v75h315v-74h-81l123 -184l138 184h-85z" />
    <glyph glyph-name="Y" unicode="Y" horiz-adv-x="660" 
d="M365 345l138 239h-81v74h241v-75h-75l-191 -308v-200h96v-75h-319v75h94v195l-185 313h-76v75h309v-74h-83z" />
    <glyph glyph-name="Z" unicode="Z" horiz-adv-x="640" 
d="M36 0v63l406 521h-183q-43 0 -63.5 -10.5t-38.5 -45.5t-42 -119h-61v249h544v-63l-405 -521h204q43 0 64 12.5t37.5 48t41.5 121.5h61v-256h-565z" />
    <glyph glyph-name="bracketleft" unicode="[" horiz-adv-x="353" 
d="M85 -158v881h277v-69h-165v-743h165v-69h-277z" />
    <glyph glyph-name="backslash" unicode="\" horiz-adv-x="428" 
d="M399 -203l-388 910h84l388 -910h-84z" />
    <glyph glyph-name="bracketright" unicode="]" horiz-adv-x="353" 
d="M267 723v-881h-277v69h165v743h-165v69h277z" />
    <glyph glyph-name="asciicircum" unicode="^" horiz-adv-x="350" 
d="M19 506l128 211h61l121 -211h-66l-89 107l-89 -107h-66z" />
    <glyph glyph-name="underscore" unicode="_" horiz-adv-x="443" 
d="M-2 0v75h447v-75h-447z" />
    <glyph glyph-name="grave" unicode="`" horiz-adv-x="251" 
d="M198 534h-57l-70 75q-47 50 -47 81q0 20 15 34.5t36 14.5q26 0 43 -20.5t33 -63.5z" />
    <glyph glyph-name="a" unicode="a" horiz-adv-x="516" 
d="M175 -7q-63 0 -100.5 33.5t-37.5 87.5q0 49 34 83q25 25 65 38.5t116 24.5q45 6 55 9.5t10 14.5v45q0 44 -21 63t-67 19q-40 0 -70 -17q27 -15 27 -50q0 -25 -17.5 -41.5t-46.5 -16.5q-31 0 -49 19t-18 45q0 56 58.5 88.5t143.5 32.5q176 0 176 -150v-224q0 -31 28 -31
q21 0 34 41l41 -19q-31 -93 -112 -93q-39 0 -65 22t-28 66h-5q-20 -43 -61 -66.5t-90 -23.5zM229 66q34 0 61 28t27 69v65q-10 -4 -45 -10q-66 -11 -89 -27.5t-23 -55.5q0 -32 17 -50.5t52 -18.5z" />
    <glyph glyph-name="b" unicode="b" horiz-adv-x="560" 
d="M302 62q45 0 70 43.5t25 125.5q0 165 -96 165q-51 0 -83 -49.5t-32 -125.5q0 -73 33 -116t83 -43zM75 -6v617h-71v78h187v-319q24 47 63.5 74t87.5 27q74 0 120 -46q62 -62 62 -193q0 -124 -67 -191q-51 -51 -123 -51q-102 0 -158 97l-38 -93h-63z" />
    <glyph glyph-name="c" unicode="c" horiz-adv-x="495" 
d="M267 -10q-109 0 -171.5 65t-62.5 169q0 108 69.5 177.5t176.5 69.5q82 0 134.5 -43t52.5 -95q0 -38 -18.5 -61t-52.5 -23q-31 0 -49.5 19t-18.5 47q0 20 12.5 37t28.5 24q-25 37 -86 37q-53 0 -88 -47.5t-35 -130.5q0 -81 34 -126.5t98 -45.5q86 0 118 93h61
q-17 -78 -69.5 -122t-133.5 -44z" />
    <glyph glyph-name="d" unicode="d" horiz-adv-x="569" 
d="M221 -10q-71 0 -120 49q-65 65 -65 187q0 125 68 195q52 50 124 50q93 0 141 -80v220h-75v78h192v-615h66v-74h-178v96q-50 -106 -153 -106zM267 64q45 0 76 46.5t31 121.5q0 72 -27 119t-80 47q-104 0 -104 -168q0 -79 28.5 -122.5t75.5 -43.5z" />
    <glyph glyph-name="e" unicode="e" horiz-adv-x="507" 
d="M474 220h-317q3 -83 36.5 -121t97.5 -38q85 0 120 83h60q-36 -154 -206 -154q-107 0 -169.5 66t-62.5 170q0 105 66.5 175t167.5 70q104 0 157.5 -72t49.5 -179zM261 412q-92 0 -103 -139h200q-9 139 -97 139z" />
    <glyph glyph-name="f" unicode="f" horiz-adv-x="358" 
d="M33 0v74h71v315h-88v69h88v20q0 107 60 162t145 55q65 0 101 -26t36 -67q0 -28 -18 -47.5t-45 -19.5q-31 0 -48.5 16.5t-17.5 47.5q0 20 10 37q-10 6 -30 6q-39 0 -59.5 -32.5t-20.5 -113.5v-38h136v-69h-133v-315h102v-74h-289z" />
    <glyph glyph-name="g" unicode="g" horiz-adv-x="496" 
d="M436 325q0 -72 -52.5 -111.5t-140.5 -39.5q-11 0 -31.5 1.5t-29.5 1.5q-23 0 -35.5 -11.5t-12.5 -26.5q0 -37 69 -37h124q157 0 157 -116q0 -69 -65.5 -112.5t-193.5 -43.5q-100 0 -155 28t-55 75q0 33 28 57.5t74 31.5v5q-78 21 -78 83q0 30 29 55.5t71 32.5
q-93 34 -93 124q0 69 53 109t141 40q42 0 78 -11q21 44 55 70.5t75 26.5q35 0 54.5 -18t19.5 -45q0 -23 -15 -39t-39 -16q-22 0 -35 13t-13 34q0 7 1 11q-15 1 -31.5 -14t-28.5 -40q75 -42 75 -118zM235 -112q70 0 108.5 18.5t38.5 51.5q0 48 -74 48h-116q-84 0 -84 -57
q0 -61 127 -61zM244 222q76 0 76 100q0 46 -21.5 73t-60.5 27q-77 0 -77 -101q0 -99 83 -99z" />
    <glyph glyph-name="h" unicode="h" horiz-adv-x="593" 
d="M23 0v74h71v537h-71v78h187v-337q66 118 166 118q63 0 97 -41t34 -111v-244h71v-74h-249v74h62v216q0 51 -24 75q-18 19 -50 19q-42 0 -74.5 -37t-32.5 -96v-177h61v-74h-248z" />
    <glyph glyph-name="i" unicode="i" horiz-adv-x="328" 
d="M168 546q-34 0 -55 20.5t-21 52.5q0 33 21 54.5t55 21.5t54.5 -20t20.5 -53t-21 -54.5t-54 -21.5zM36 0v74h80v315h-80v74h197v-389h80v-74h-277z" />
    <glyph glyph-name="j" unicode="j" horiz-adv-x="314" 
d="M173 546q-34 0 -55 20.5t-21 52.5q0 33 21 54.5t55 21.5t54.5 -20t20.5 -53t-21 -54.5t-54 -21.5zM60 -170q-56 0 -90 22.5t-34 59.5q0 28 19 48.5t48 20.5q30 0 47.5 -18.5t17.5 -43.5q0 -18 -7 -32q7 -3 16 -3q44 0 44 74v431h-83v74h199v-431q0 -97 -44.5 -149.5
t-132.5 -52.5z" />
    <glyph glyph-name="k" unicode="k" horiz-adv-x="564" 
d="M461 389l-115 -109l157 -206h53v-74h-235v73h56l-104 142l-63 -61v-81h54v-73h-241v74h71v537h-71v78h187v-460l162 161h-74v73h233v-74h-70z" />
    <glyph glyph-name="l" unicode="l" horiz-adv-x="316" 
d="M20 0v74h80v537h-80v78h196v-615h80v-74h-276z" />
    <glyph glyph-name="m" unicode="m" horiz-adv-x="881" 
d="M504 350q69 120 166 120q61 0 93.5 -40.5t32.5 -111.5v-244h70v-74h-243v74h56v216q0 54 -23 77q-17 17 -46 17q-38 0 -70 -37.5t-32 -95.5v-177h56v-74h-229v74h56v216q0 55 -22 77q-19 17 -47 17q-38 0 -70 -37.5t-32 -95.5v-177h56v-74h-243v74h70v315h-70v74h182
v-119q68 126 167 126q110 0 122 -120z" />
    <glyph glyph-name="n" unicode="n" horiz-adv-x="603" 
d="M33 0v74h70v315h-70v74h182v-119q68 126 171 126q63 0 97 -41t34 -111v-244h71v-74h-249v74h62v216q0 51 -24 75q-18 19 -51 19q-41 0 -73.5 -37t-32.5 -96v-177h61v-74h-248z" />
    <glyph glyph-name="o" unicode="o" horiz-adv-x="543" 
d="M272 -10q-109 0 -174 66t-65 173q0 106 67 174t172 68q108 0 173.5 -65.5t65.5 -172.5t-67 -175t-172 -68zM276 50q107 0 107 181q0 180 -115 180q-55 0 -81 -43t-26 -137q0 -181 115 -181z" />
    <glyph glyph-name="p" unicode="p" horiz-adv-x="573" 
d="M312 71q98 0 98 169q0 77 -26 116.5t-72 39.5q-44 0 -77 -48.5t-33 -119.5q0 -69 28.5 -113t81.5 -44zM20 -157v74h71v472h-71v74h182v-108q48 116 155 116q70 0 118 -48q61 -61 61 -184q0 -122 -66 -188q-51 -51 -118 -51q-98 0 -145 82v-165h92v-74h-279z" />
    <glyph glyph-name="q" unicode="q" horiz-adv-x="554" 
d="M265 398q-50 0 -76 -43t-26 -123q0 -158 103 -158q45 0 75.5 45t30.5 117t-29 117t-78 45zM367 94q-22 -45 -59 -69.5t-84 -24.5q-76 0 -126 50q-62 62 -62 183q0 54 18.5 104t49.5 81q53 53 126 53q97 0 151 -98l40 94h63v-550h71v-74h-279v74h91v177z" />
    <glyph glyph-name="r" unicode="r" horiz-adv-x="447" 
d="M33 0v74h70v315h-70v74h182v-113q18 58 56.5 89t83.5 31q39 0 62.5 -24.5t23.5 -59.5q0 -31 -19.5 -52.5t-48.5 -21.5q-30 0 -49.5 17t-19.5 47q0 5 2 13q-27 0 -50 -27.5t-36 -72.5v-215h87v-74h-274z" />
    <glyph glyph-name="s" unicode="s" horiz-adv-x="460" 
d="M41 -9v173h68q23 -52 63.5 -84t85.5 -32q70 0 70 56q0 28 -25.5 45t-94.5 35q-85 23 -122.5 55.5t-37.5 89.5q0 60 45.5 101t118.5 41q82 0 121 -54l12 54h67v-159h-67q-28 51 -57.5 77t-70.5 26q-28 0 -46.5 -14t-18.5 -39q0 -27 25.5 -43.5t90.5 -33.5
q85 -23 124 -54.5t39 -91.5q0 -59 -46.5 -104t-123.5 -45q-89 0 -141 63l-13 -62h-66z" />
    <glyph glyph-name="t" unicode="t" horiz-adv-x="384" 
d="M94 570l115 13v-125h150v-69h-150v-256q0 -34 12 -50.5t40 -16.5q21 0 36.5 19.5t30.5 63.5l51 -18q-34 -141 -152 -141q-67 0 -101 36t-34 103v260h-87v69h89v112z" />
    <glyph glyph-name="u" unicode="u" horiz-adv-x="588" 
d="M217 -8q-63 0 -96 41t-33 112v244h-70v74h187v-290q0 -55 23 -77q17 -17 48 -17q41 0 73.5 37t32.5 95v178h-72v74h189v-389h71v-74h-183v119q-67 -127 -170 -127z" />
    <glyph glyph-name="v" unicode="v" horiz-adv-x="538" 
d="M214 -5l-150 394h-63v74h264v-74h-75l103 -296h4l106 296h-62v74h198v-74h-58l-155 -394h-112z" />
    <glyph glyph-name="w" unicode="w" horiz-adv-x="800" 
d="M550 390h-75l95 -296h4l88 296h-60v73h197v-74h-59l-131 -394h-117l-84 251l-97 -251h-115l-129 394h-63v74h251v-73h-68l90 -297h4l94 248l-16 49h-59v73h250v-73z" />
    <glyph glyph-name="x" unicode="x" horiz-adv-x="524" 
d="M260 391h-65l86 -111l96 111h-60v72h191v-74h-48l-138 -147l136 -168h53v-74h-244v72h65l-86 113l-99 -113h58v-72h-191v74h51l139 148l-137 167h-55v74h248v-72z" />
    <glyph glyph-name="y" unicode="y" horiz-adv-x="530" 
d="M81 -7q30 0 48 -20t18 -47q0 -18 -8 -34q32 6 53 27.5t43 78.5l-172 391h-63v74h264v-74h-75l106 -269l106 269h-62v74h197v-74h-58l-159 -377q-41 -97 -87 -139.5t-111 -42.5q-51 0 -80.5 24.5t-29.5 65.5q0 30 20 51.5t50 21.5z" />
    <glyph glyph-name="z" unicode="z" horiz-adv-x="479" 
d="M35 0v60l280 342h-102q-51 0 -70.5 -20t-41.5 -96h-54v177h401v-60l-281 -343h122q49 0 67.5 22t39.5 104h54v-186h-415z" />
    <glyph glyph-name="braceleft" unicode="{" horiz-adv-x="392" 
d="M17 318h28q131 0 131 85q0 24 -7.5 71.5t-7.5 70.5q0 84 60.5 129.5t178.5 48.5v-68q-76 -6 -99.5 -31t-23.5 -82q0 -8 2 -46.5t2 -59.5q0 -75 -35 -108.5t-123 -41.5v-7q88 -8 123 -41.5t35 -108.5q0 -21 -2 -59.5t-2 -46.5q0 -57 23.5 -82t99.5 -31v-68
q-118 3 -178.5 48.5t-60.5 129.5q0 23 7.5 70.5t7.5 71.5q0 85 -131 85h-28v71z" />
    <glyph glyph-name="bar" unicode="|" horiz-adv-x="290" 
d="M108 -203v910h75v-910h-75z" />
    <glyph glyph-name="braceright" unicode="}" horiz-adv-x="392" 
d="M374 247h-28q-131 0 -131 -85q0 -24 7.5 -71.5t7.5 -70.5q0 -84 -60.5 -129.5t-178.5 -48.5v68q76 6 99.5 31t23.5 82q0 8 -2 46.5t-2 59.5q0 75 35 108.5t123 41.5v7q-88 8 -123 41.5t-35 108.5q0 21 2 59.5t2 46.5q0 57 -23.5 82t-99.5 31v68q118 -3 178.5 -48.5
t60.5 -129.5q0 -23 -7.5 -70.5t-7.5 -71.5q0 -85 131 -85h28v-71z" />
    <glyph glyph-name="asciitilde" unicode="~" horiz-adv-x="389" 
d="M34 245q8 75 31.5 107.5t72.5 32.5q30 0 74 -24t56 -24q14 0 21.5 12.5t12.5 42.5h56q-8 -75 -31.5 -107.5t-72.5 -32.5q-30 0 -74 24t-56 24q-14 0 -21.5 -12.5t-12.5 -42.5h-56z" />
    <glyph glyph-name="uni00A0" unicode="&#xa0;" horiz-adv-x="180" 
 />
    <glyph glyph-name="exclamdown" unicode="&#xa1;" horiz-adv-x="288" 
d="M143 -17q-34 0 -53.5 21t-19.5 59q0 44 15 146q24 178 31 266h56q7 -88 31 -266q14 -107 14 -146q0 -38 -19.5 -59t-54.5 -21zM144 683q32 0 54 -21.5t22 -51.5q0 -31 -22 -52.5t-55 -21.5q-31 0 -53 21.5t-22 51.5q0 31 22 52.5t54 21.5z" />
    <glyph glyph-name="cent" unicode="&#xa2;" horiz-adv-x="535" 
d="M299 -102l-66 4l7 92q-93 14 -143 75.5t-50 154.5q0 101 64 169.5t168 76.5l8 83l66 -4l-7 -81q70 -10 116 -50t46 -88q0 -36 -18.5 -56.5t-51.5 -20.5q-31 0 -49 18.5t-18 45.5q0 21 12 38.5t27 24.5q-17 25 -71 33l-30 -353h8q43 0 77 24.5t50 71.5h61
q-17 -74 -68.5 -117.5t-129.5 -47.5zM170 235q0 -131 79 -165l28 342q-50 -9 -78.5 -54.5t-28.5 -122.5z" />
    <glyph glyph-name="sterling" unicode="&#xa3;" horiz-adv-x="620" 
d="M485 277h-160q1 -4 1 -13q0 -51 -35 -104q36 -9 88.5 -36t80.5 -27q33 0 50 20.5t28 77.5l55 -3q-4 -108 -36.5 -157.5t-104.5 -49.5q-33 0 -63.5 13t-77 44t-60.5 39q-40 -97 -133 -97q-41 0 -66 22t-25 58q0 47 43.5 80t124.5 33q13 0 31 -3q2 18 2 24q0 33 -22 79
h-150v70h113q-21 46 -21 89q0 95 67 154.5t167 59.5q80 0 132 -39t52 -94q0 -38 -23 -61t-55 -23q-33 0 -53 20t-20 50q0 35 31 60q-20 25 -72 25q-50 0 -77.5 -26.5t-27.5 -72.5q0 -18 4.5 -38t9 -33t14 -37.5t12.5 -33.5h176v-70zM128 41q46 0 69 63q-24 8 -44 8
q-26 0 -41 -12t-15 -30q0 -29 31 -29z" />
    <glyph glyph-name="yen" unicode="&#xa5;" horiz-adv-x="653" 
d="M86 329h147l-137 231h-75v74h295v-74h-83l123 -224l125 224h-76v74h231v-74h-73l-142 -231h149v-64h-183v-64h183v-64h-183v-64h108v-73h-335v73h110v64h-184v64h184v64h-184v64z" />
    <glyph glyph-name="section" unicode="&#xa7;" horiz-adv-x="531" 
d="M258 -121q-83 0 -141 35.5t-58 88.5q0 30 18.5 51.5t48.5 21.5t48.5 -18t18.5 -45q0 -32 -26 -50q34 -26 98 -26q50 0 74 18t24 46q0 30 -27 52.5t-106 48.5q-92 31 -131.5 63t-39.5 88q0 44 31 76.5t86 49.5v7q-95 41 -95 115q0 68 59 110.5t146 42.5q78 0 127 -34.5
t49 -80.5q0 -29 -17.5 -47.5t-45.5 -18.5q-29 0 -47 17t-18 42q0 27 20 44q-30 20 -73 20q-48 0 -73 -18t-25 -44q0 -28 28.5 -48.5t111.5 -49.5t121 -61.5t38 -89.5q0 -40 -28 -74t-79 -52v-6q89 -37 89 -113q0 -68 -53 -114.5t-153 -46.5zM312 183q71 20 71 70
q0 28 -27 50.5t-90 44.5l-31 10q-73 -20 -73 -76q0 -28 28.5 -48.5t97.5 -43.5z" />
    <glyph glyph-name="dieresis" unicode="&#xa8;" horiz-adv-x="349" 
d="M270 548q-29 0 -48 19.5t-19 47.5q0 30 19 50t48 20t48 -19.5t19 -48.5t-19 -49t-48 -20zM80 548q-29 0 -48 19.5t-19 47.5q0 30 19 50t48 20t47.5 -19.5t18.5 -48.5t-19 -49t-47 -20z" />
    <glyph glyph-name="copyright" unicode="&#xa9;" horiz-adv-x="787" 
d="M393 -33q-155 0 -259 103.5t-104 258.5q0 154 104 258t259 104t259.5 -104t104.5 -258q0 -155 -104.5 -258.5t-259.5 -103.5zM393 10q135 0 224.5 91t89.5 228q0 136 -89.5 227.5t-224.5 91.5t-224 -91.5t-89 -227.5q0 -137 89 -228t224 -91zM399 141q-81 0 -133 54.5
t-52 137.5q0 80 54 135t127 55q62 0 100 -43l10 42h46v-142h-46q-37 99 -104 99q-98 0 -98 -142q0 -147 106 -147q87 0 102 107h49q-8 -73 -50 -114.5t-111 -41.5z" />
    <glyph glyph-name="ordfeminine" unicode="&#xaa;" horiz-adv-x="420" 
d="M142 316q-45 0 -72.5 23.5t-27.5 61.5q0 42 36 68q34 27 126 39q37 5 38 15v30q0 32 -14.5 44t-47.5 12q-30 0 -49 -9q19 -12 19 -36q0 -17 -13 -29t-33 -12q-23 0 -36 13t-13 31q0 40 42.5 64t103.5 24q128 0 128 -107v-154q0 -23 20 -23q16 0 25 29l33 -14
q-21 -70 -84 -70q-28 0 -48.5 16t-21.5 46h-4q-14 -30 -43 -46t-64 -16zM180 370q24 0 43 19.5t19 49.5v41q-2 -1 -31 -6q-47 -8 -62 -19t-15 -39q0 -46 46 -46z" />
    <glyph glyph-name="guillemotleft" unicode="&#xab;" horiz-adv-x="509" 
d="M147 228l112 -170l-37 -27l-163 155q-26 24 -26 40q0 14 26 39l163 155l37 -27zM354 228l112 -170l-37 -27l-164 155q-25 24 -25 40q0 14 25 39l164 155l37 -27z" />
    <glyph glyph-name="registered" unicode="&#xae;" horiz-adv-x="512" 
d="M256 248q-95 0 -159 63t-64 158q0 96 63.5 158.5t159.5 62.5q95 0 158.5 -62.5t63.5 -158.5q0 -95 -63.5 -158t-158.5 -63zM256 280q83 0 133.5 52t50.5 137q0 84 -50 136t-134 52q-83 0 -133.5 -52t-50.5 -136t50.5 -136.5t133.5 -52.5zM231 456v-70h33v-27h-116v27h33
v171h-33v28h121q47 0 68 -17t21 -42q0 -48 -66 -56v-2q28 -4 40 -15.5t15 -33.5l1 -17q3 -17 10 -17q8 0 15 19l18 -7q-10 -43 -46 -43q-49 0 -49 52v16q0 18 -7 26t-27 8h-31zM231 482h32q41 0 41 40q0 19 -8.5 27t-30.5 8h-34v-75z" />
    <glyph glyph-name="macron" unicode="&#xaf;" horiz-adv-x="339" 
d="M34 546v84h271v-84h-271z" />
    <glyph glyph-name="degree" unicode="&#xb0;" horiz-adv-x="403" 
d="M203 350q-78 0 -124.5 45.5t-46.5 114.5t48 116.5t123 47.5q76 0 122 -45.5t46 -115.5q0 -69 -47 -116t-121 -47zM205 412q37 0 59 26t22 74t-24 74t-63 26q-37 0 -59 -26t-22 -74t24 -74t63 -26z" />
    <glyph glyph-name="plusminus" unicode="&#xb1;" horiz-adv-x="538" 
d="M235 161v160h-155v63h155v157h69v-157h155v-63h-155v-160h-69zM459 28h-379v64h379v-64z" />
    <glyph glyph-name="acute" unicode="&#xb4;" horiz-adv-x="251" 
d="M44 534l47 121q16 44 33 64t43 20q21 0 36 -14.5t15 -34.5q0 -32 -48 -81l-69 -75h-57z" />
    <glyph glyph-name="paragraph" unicode="&#xb6;" horiz-adv-x="652" 
d="M314 -107v273q-120 1 -195.5 60.5t-75.5 164.5q0 104 76 164.5t216 60.5h287v-74h-87v-649h-76v650h-70v-650h-75z" />
    <glyph glyph-name="periodcentered" unicode="&#xb7;" horiz-adv-x="245" 
d="M122 245q-32 0 -54 21.5t-22 52.5t22 53t55 22q31 0 53 -21.5t22 -52.5q0 -32 -22 -53.5t-54 -21.5z" />
    <glyph glyph-name="cedilla" unicode="&#xb8;" horiz-adv-x="306" 
d="M123 -246q-66 0 -118 33l26 41q36 -20 77 -20q51 0 51 33q0 17 -19.5 28t-52.5 11q-20 0 -31 -3l-19 30l103 99h63l-68 -68l2 -4q52 -5 79 -28t27 -57q0 -44 -32.5 -69.5t-87.5 -25.5z" />
    <glyph glyph-name="ordmasculine" unicode="&#xba;" horiz-adv-x="417" 
d="M209 313q-78 0 -125.5 47t-47.5 123q0 75 49 123.5t124 48.5q78 0 125.5 -46.5t47.5 -122.5t-49 -124.5t-124 -48.5zM212 360q75 0 75 125q0 124 -81 124q-76 0 -76 -124q0 -125 82 -125z" />
    <glyph glyph-name="guillemotright" unicode="&#xbb;" horiz-adv-x="509" 
d="M362 222l-112 170l37 27l163 -155q26 -24 26 -40q0 -14 -26 -39l-163 -155l-37 27zM155 222l-112 170l37 27l164 -155q25 -24 25 -40q0 -14 -25 -39l-164 -155l-37 27z" />
    <glyph glyph-name="questiondown" unicode="&#xbf;" horiz-adv-x="462" 
d="M292 462q-2 -95 -60 -170q-7 -9 -22 -26.5t-22.5 -27.5t-17 -25.5t-13.5 -32t-4 -35.5q0 -45 26.5 -72t72.5 -27q76 0 98 49q-21 8 -34.5 27t-13.5 41q0 30 19.5 51.5t52.5 21.5q34 0 56.5 -23.5t22.5 -60.5q0 -68 -59.5 -118.5t-152.5 -50.5q-103 0 -160.5 51.5
t-57.5 123.5q0 52 26.5 90t86.5 83q68 49 87 131h69zM256 683q31 0 53.5 -21.5t22.5 -51.5q0 -31 -22.5 -52.5t-54.5 -21.5q-31 0 -53 21.5t-22 51.5q0 31 22 52.5t54 21.5z" />
    <glyph glyph-name="Agrave" unicode="&#xc0;" horiz-adv-x="698" 
d="M484 75l-51 147h-232l-52 -147h83v-75h-241v75h72l221 587h128l213 -587h86v-75h-325v75h98zM318 548l-93 -259h185l-88 259h-4zM388 736h-57l-70 75q-47 50 -47 81q0 20 15 34.5t36 14.5q26 0 43 -20.5t33 -63.5z" />
    <glyph glyph-name="Aacute" unicode="&#xc1;" horiz-adv-x="698" 
d="M484 75l-51 147h-232l-52 -147h83v-75h-241v75h72l221 587h128l213 -587h86v-75h-325v75h98zM318 548l-93 -259h185l-88 259h-4zM314 736l47 121q16 44 33 64t43 20q21 0 36 -14.5t15 -34.5q0 -32 -48 -81l-69 -75h-57z" />
    <glyph glyph-name="Acircumflex" unicode="&#xc2;" horiz-adv-x="698" 
d="M484 75l-51 147h-232l-52 -147h83v-75h-241v75h72l221 587h128l213 -587h86v-75h-325v75h98zM204 737l117 189h58l116 -189h-65l-81 90l-80 -90h-65zM318 548l-93 -259h185l-88 259h-4z" />
    <glyph glyph-name="Atilde" unicode="&#xc3;" horiz-adv-x="698" 
d="M484 75l-51 147h-232l-52 -147h83v-75h-241v75h72l221 587h128l213 -587h86v-75h-325v75h98zM186 737q8 75 31.5 107.5t72.5 32.5q30 0 77 -24t59 -24q24 0 34 55h56q-8 -75 -31.5 -107.5t-72.5 -32.5q-30 0 -77 24t-59 24q-14 0 -21.5 -12.5t-12.5 -42.5h-56zM318 548
l-93 -259h185l-88 259h-4z" />
    <glyph glyph-name="Adieresis" unicode="&#xc4;" horiz-adv-x="698" 
d="M484 75l-51 147h-232l-52 -147h83v-75h-241v75h72l221 587h128l213 -587h86v-75h-325v75h98zM318 548l-93 -259h185l-88 259h-4zM446 750q-29 0 -48 19.5t-19 47.5q0 30 19 50t48 20t48 -19.5t19 -48.5t-19 -49t-48 -20zM256 750q-29 0 -48 19.5t-19 47.5q0 30 19 50
t48 20t47.5 -19.5t18.5 -48.5t-19 -49t-47 -20z" />
    <glyph glyph-name="Aring" unicode="&#xc5;" horiz-adv-x="698" 
d="M202 222l-53 -147h83v-75h-241v75h72l221 587q-51 26 -51 90q0 46 30.5 77t84.5 31t85 -31t31 -77q0 -63 -52 -90l213 -587h86v-75h-325v75h98l-50 147h-232zM411 289l-89 259h-4l-93 -259h186zM349 686q24 0 39 19t15 47q0 31 -14.5 49t-40.5 18q-25 0 -39.5 -18
t-14.5 -49q0 -28 15.5 -47t39.5 -19z" />
    <glyph glyph-name="AE" unicode="&#xc6;" horiz-adv-x="1019" 
d="M459 299v282h-10l-171 -282h181zM236 232l-95 -158h84v-74h-252v75h76l316 508h-96v75h689v-223h-65q-24 95 -45 122t-79 27h-182v-214h63q49 0 63.5 15.5t26.5 81.5h64v-264h-64q-10 66 -25 82.5t-65 16.5h-63v-228h178q36 0 56.5 6t35.5 29t23.5 50t21.5 86h65v-245
h-610v75h102v157h-223z" />
    <glyph glyph-name="Ccedilla" unicode="&#xc7;" horiz-adv-x="684" 
d="M346 -246q-66 0 -118 33l26 41q36 -20 77 -20q51 0 51 33q0 17 -19.5 28t-52.5 11q-20 0 -31 -3l-19 30l81 78q-137 7 -220.5 103t-83.5 240t92.5 245t221.5 101q120 0 185 -78l19 75h76v-260h-76q-68 190 -192 190q-83 0 -132 -64.5t-49 -200.5q0 -133 51.5 -202.5
t146.5 -69.5q79 0 128 55t62 144h82q-12 -117 -76.5 -189.5t-168.5 -86.5l-49 -49l2 -4q52 -5 79 -28t27 -57q0 -44 -32.5 -69.5t-87.5 -25.5z" />
    <glyph glyph-name="Egrave" unicode="&#xc8;" horiz-adv-x="691" 
d="M28 0v75h102v508h-102v75h601v-223h-64q-25 96 -45.5 122.5t-78.5 26.5h-182v-214h63q49 0 63.5 15.5t26.5 81.5h64v-264h-64q-10 66 -25 82.5t-65 16.5h-63v-228h178q36 0 56.5 6t35.5 29t23.5 50t21.5 86h64v-245h-610zM407 736h-57l-70 75q-47 50 -47 81q0 20 15 34.5
t36 14.5q26 0 43 -20.5t33 -63.5z" />
    <glyph glyph-name="Eacute" unicode="&#xc9;" horiz-adv-x="691" 
d="M333 736l47 121q16 44 33 64t43 20q21 0 36 -14.5t15 -34.5q0 -32 -48 -81l-69 -75h-57zM28 0v75h102v508h-102v75h601v-223h-64q-25 96 -45.5 122.5t-78.5 26.5h-182v-214h63q49 0 63.5 15.5t26.5 81.5h64v-264h-64q-10 66 -25 82.5t-65 16.5h-63v-228h178q36 0 56.5 6
t35.5 29t23.5 50t21.5 86h64v-245h-610z" />
    <glyph glyph-name="Ecircumflex" unicode="&#xca;" horiz-adv-x="691" 
d="M223 737l117 189h58l116 -189h-65l-81 90l-80 -90h-65zM28 0v75h102v508h-102v75h601v-223h-64q-25 96 -45.5 122.5t-78.5 26.5h-182v-214h63q49 0 63.5 15.5t26.5 81.5h64v-264h-64q-10 66 -25 82.5t-65 16.5h-63v-228h178q36 0 56.5 6t35.5 29t23.5 50t21.5 86h64v-245
h-610z" />
    <glyph glyph-name="Edieresis" unicode="&#xcb;" horiz-adv-x="691" 
d="M465 750q-29 0 -48 19.5t-19 47.5q0 30 19 50t48 20t48 -19.5t19 -48.5t-19 -49t-48 -20zM275 750q-29 0 -48 19.5t-19 47.5q0 30 19 50t48 20t47.5 -19.5t18.5 -48.5t-19 -49t-47 -20zM28 0v75h102v508h-102v75h601v-223h-64q-25 96 -45.5 122.5t-78.5 26.5h-182v-214
h63q49 0 63.5 15.5t26.5 81.5h64v-264h-64q-10 66 -25 82.5t-65 16.5h-63v-228h178q36 0 56.5 6t35.5 29t23.5 50t21.5 86h64v-245h-610z" />
    <glyph glyph-name="Igrave" unicode="&#xcc;" horiz-adv-x="413" 
d="M39 0v75h103v508h-103v75h335v-75h-103v-508h103v-75h-335zM243 736h-57l-70 75q-47 50 -47 81q0 20 15 34.5t36 14.5q26 0 43 -20.5t33 -63.5z" />
    <glyph glyph-name="Iacute" unicode="&#xcd;" horiz-adv-x="413" 
d="M39 0v75h103v508h-103v75h335v-75h-103v-508h103v-75h-335zM169 736l47 121q16 44 33 64t43 20q21 0 36 -14.5t15 -34.5q0 -32 -48 -81l-69 -75h-57z" />
    <glyph glyph-name="Icircumflex" unicode="&#xce;" horiz-adv-x="413" 
d="M39 0v75h103v508h-103v75h335v-75h-103v-508h103v-75h-335zM60 737l117 189h58l116 -189h-65l-81 90l-80 -90h-65z" />
    <glyph glyph-name="Idieresis" unicode="&#xcf;" horiz-adv-x="413" 
d="M39 0v75h103v508h-103v75h335v-75h-103v-508h103v-75h-335zM301 750q-29 0 -48 19.5t-19 47.5q0 30 19 50t48 20t48 -19.5t19 -48.5t-19 -49t-48 -20zM111 750q-29 0 -48 19.5t-19 47.5q0 30 19 50t48 20t47.5 -19.5t18.5 -48.5t-19 -49t-47 -20z" />
    <glyph glyph-name="Eth" unicode="&#xd0;" horiz-adv-x="735" 
d="M28 0v75h102v230h-102v76h102v202h-102v75h289q186 0 283.5 -87t97.5 -235q0 -149 -95 -242.5t-279 -93.5h-296zM259 74h69q120 0 172 59.5t52 202.5q0 131 -54.5 189.5t-177.5 58.5h-61v-203h127v-76h-127v-231z" />
    <glyph glyph-name="Ntilde" unicode="&#xd1;" horiz-adv-x="790" 
d="M561 -13l-345 528h-9v-440h98v-75h-273v75h94v508h-94v75h245l308 -472h9v397h-98v75h273v-75h-94v-596h-114zM235 737q8 75 31.5 107.5t72.5 32.5q31 0 77 -24t59 -24q24 0 34 55h56q-8 -75 -31.5 -107.5t-72.5 -32.5q-31 0 -77 24t-59 24q-14 0 -21.5 -12.5
t-12.5 -42.5h-56z" />
    <glyph glyph-name="Ograve" unicode="&#xd2;" 
d="M366 -16q-141 0 -235 96.5t-94 247.5q0 149 95.5 247.5t233.5 98.5q141 0 235 -96.5t94 -247.5q0 -149 -95.5 -247.5t-233.5 -98.5zM367 57q90 0 136.5 69t46.5 203q0 133 -47.5 202.5t-137.5 69.5t-136.5 -69.5t-46.5 -202.5t47.5 -202.5t137.5 -69.5zM404 736h-57
l-70 75q-47 50 -47 81q0 20 15 34.5t36 14.5q26 0 43 -20.5t33 -63.5z" />
    <glyph glyph-name="Oacute" unicode="&#xd3;" 
d="M330 736l47 121q16 44 33 64t43 20q21 0 36 -14.5t15 -34.5q0 -32 -48 -81l-69 -75h-57zM366 -16q-141 0 -235 96.5t-94 247.5q0 149 95.5 247.5t233.5 98.5q141 0 235 -96.5t94 -247.5q0 -149 -95.5 -247.5t-233.5 -98.5zM367 57q90 0 136.5 69t46.5 203
q0 133 -47.5 202.5t-137.5 69.5t-136.5 -69.5t-46.5 -202.5t47.5 -202.5t137.5 -69.5z" />
    <glyph glyph-name="Ocircumflex" unicode="&#xd4;" 
d="M220 737l117 189h58l116 -189h-65l-81 90l-80 -90h-65zM366 -16q-141 0 -235 96.5t-94 247.5q0 149 95.5 247.5t233.5 98.5q141 0 235 -96.5t94 -247.5q0 -149 -95.5 -247.5t-233.5 -98.5zM367 57q90 0 136.5 69t46.5 203q0 133 -47.5 202.5t-137.5 69.5t-136.5 -69.5
t-46.5 -202.5t47.5 -202.5t137.5 -69.5z" />
    <glyph glyph-name="Otilde" unicode="&#xd5;" 
d="M366 -16q-141 0 -235 96.5t-94 247.5q0 149 95.5 247.5t233.5 98.5q141 0 235 -96.5t94 -247.5q0 -149 -95.5 -247.5t-233.5 -98.5zM367 57q90 0 136.5 69t46.5 203q0 133 -47.5 202.5t-137.5 69.5t-136.5 -69.5t-46.5 -202.5t47.5 -202.5t137.5 -69.5zM201 737
q8 75 31.5 107.5t72.5 32.5q31 0 77 -24t59 -24q24 0 34 55h56q-8 -75 -31.5 -107.5t-72.5 -32.5q-31 0 -77 24t-59 24q-14 0 -21.5 -12.5t-12.5 -42.5h-56z" />
    <glyph glyph-name="Odieresis" unicode="&#xd6;" 
d="M461 750q-29 0 -48 19.5t-19 47.5q0 30 19 50t48 20t48 -19.5t19 -48.5t-19 -49t-48 -20zM271 750q-29 0 -48 19.5t-19 47.5q0 30 19 50t48 20t47.5 -19.5t18.5 -48.5t-19 -49t-47 -20zM366 -16q-141 0 -235 96.5t-94 247.5q0 149 95.5 247.5t233.5 98.5q141 0 235 -96.5
t94 -247.5q0 -149 -95.5 -247.5t-233.5 -98.5zM367 57q90 0 136.5 69t46.5 203q0 133 -47.5 202.5t-137.5 69.5t-136.5 -69.5t-46.5 -202.5t47.5 -202.5t137.5 -69.5z" />
    <glyph glyph-name="multiply" unicode="&#xd7;" horiz-adv-x="520" 
d="M309 283l139 -143l-52 -51l-136 142l-136 -142l-52 51l139 143l-139 142l52 51l136 -142l136 142l52 -51z" />
    <glyph glyph-name="Oslash" unicode="&#xd8;" 
d="M139 -34h-91l85 113q-96 98 -96 249q0 149 95.5 247.5t232.5 98.5q98 0 179 -51l49 69h91l-85 -113q96 -98 96 -249q0 -149 -95.5 -247.5t-231.5 -98.5q-100 0 -180 51zM367 56q91 0 137.5 69.5t46.5 203.5q0 95 -25 161l-282 -386q46 -48 123 -48zM181 329
q0 -100 25 -162l281 386q-45 49 -122 49q-91 0 -137.5 -69.5t-46.5 -203.5z" />
    <glyph glyph-name="Ugrave" unicode="&#xd9;" horiz-adv-x="752" 
d="M381 -16q-132 0 -201.5 61t-69.5 166v372h-92v75h316v-75h-95v-344q0 -91 42.5 -131t129.5 -40q70 0 113 43q41 41 41 150v322h-97v75h268v-75h-89v-370q0 -97 -69.5 -163t-196.5 -66zM433 736h-57l-70 75q-47 50 -47 81q0 20 15 34.5t36 14.5q26 0 43 -20.5t33 -63.5z
" />
    <glyph glyph-name="Uacute" unicode="&#xda;" horiz-adv-x="752" 
d="M359 736l47 121q16 44 33 64t43 20q21 0 36 -14.5t15 -34.5q0 -32 -48 -81l-69 -75h-57zM381 -16q-132 0 -201.5 61t-69.5 166v372h-92v75h316v-75h-95v-344q0 -91 42.5 -131t129.5 -40q70 0 113 43q41 41 41 150v322h-97v75h268v-75h-89v-370q0 -97 -69.5 -163
t-196.5 -66z" />
    <glyph glyph-name="Ucircumflex" unicode="&#xdb;" horiz-adv-x="752" 
d="M249 737l117 189h58l116 -189h-65l-81 90l-80 -90h-65zM381 -16q-132 0 -201.5 61t-69.5 166v372h-92v75h316v-75h-95v-344q0 -91 42.5 -131t129.5 -40q70 0 113 43q41 41 41 150v322h-97v75h268v-75h-89v-370q0 -97 -69.5 -163t-196.5 -66z" />
    <glyph glyph-name="Udieresis" unicode="&#xdc;" horiz-adv-x="752" 
d="M490 750q-29 0 -48 19.5t-19 47.5q0 30 19 50t48 20t48 -19.5t19 -48.5t-19 -49t-48 -20zM300 750q-29 0 -48 19.5t-19 47.5q0 30 19 50t48 20t47.5 -19.5t18.5 -48.5t-19 -49t-47 -20zM381 -16q-132 0 -201.5 61t-69.5 166v372h-92v75h316v-75h-95v-344q0 -91 42.5 -131
t129.5 -40q70 0 113 43q41 41 41 150v322h-97v75h268v-75h-89v-370q0 -97 -69.5 -163t-196.5 -66z" />
    <glyph glyph-name="Yacute" unicode="&#xdd;" horiz-adv-x="660" 
d="M365 345l138 239h-81v74h241v-75h-75l-191 -308v-200h96v-75h-319v75h94v195l-185 313h-76v75h309v-74h-83zM319 736l47 121q16 44 33 64t43 20q21 0 36 -14.5t15 -34.5q0 -32 -48 -81l-69 -75h-57z" />
    <glyph glyph-name="Thorn" unicode="&#xde;" horiz-adv-x="647" 
d="M28 0v75h102v508h-102v75h331v-75h-100v-59h76q147 0 214.5 -50t67.5 -133t-65 -136t-211 -53h-82v-77h100v-75h-331zM259 224h71q82 0 113.5 29t31.5 89q0 53 -32.5 81.5t-113.5 28.5h-70v-228z" />
    <glyph glyph-name="germandbls" unicode="&#xdf;" horiz-adv-x="599" 
d="M421 -9q-66 0 -107 27.5t-41 73.5q0 25 16 43.5t43 18.5q26 0 41.5 -17.5t15.5 -42.5q0 -24 -15 -39q18 -14 51 -14q30 0 48 17.5t18 45.5q0 47 -89 100q-60 34 -84 61.5t-24 70.5q0 44 52 98q32 35 45.5 60t13.5 56q0 40 -23.5 64.5t-63.5 24.5q-98 0 -98 -130v-509
h-187v74h71v315h-88v69h88v9q0 117 63 172.5t159 55.5q85 0 137.5 -39.5t52.5 -99.5q0 -38 -20 -64t-62 -55q-31 -22 -41.5 -34.5t-10.5 -28.5q0 -17 13.5 -29t59.5 -40q9 -5 13 -8q57 -35 87.5 -69t30.5 -83q0 -64 -45 -109t-120 -45z" />
    <glyph glyph-name="agrave" unicode="&#xe0;" horiz-adv-x="516" 
d="M175 -7q-63 0 -100.5 33.5t-37.5 87.5q0 49 34 83q25 25 65 38.5t116 24.5q45 6 55 9.5t10 14.5v45q0 44 -21 63t-67 19q-40 0 -70 -17q27 -15 27 -50q0 -25 -17.5 -41.5t-46.5 -16.5q-31 0 -49 19t-18 45q0 56 58.5 88.5t143.5 32.5q176 0 176 -150v-224q0 -31 28 -31
q21 0 34 41l41 -19q-31 -93 -112 -93q-39 0 -65 22t-28 66h-5q-20 -43 -61 -66.5t-90 -23.5zM229 66q34 0 61 28t27 69v65q-10 -4 -45 -10q-66 -11 -89 -27.5t-23 -55.5q0 -32 17 -50.5t52 -18.5zM295 534h-57l-70 75q-47 50 -47 81q0 20 15 34.5t36 14.5q26 0 43 -20.5
t33 -63.5z" />
    <glyph glyph-name="aacute" unicode="&#xe1;" horiz-adv-x="516" 
d="M175 -7q-63 0 -100.5 33.5t-37.5 87.5q0 49 34 83q25 25 65 38.5t116 24.5q45 6 55 9.5t10 14.5v45q0 44 -21 63t-67 19q-40 0 -70 -17q27 -15 27 -50q0 -25 -17.5 -41.5t-46.5 -16.5q-31 0 -49 19t-18 45q0 56 58.5 88.5t143.5 32.5q176 0 176 -150v-224q0 -31 28 -31
q21 0 34 41l41 -19q-31 -93 -112 -93q-39 0 -65 22t-28 66h-5q-20 -43 -61 -66.5t-90 -23.5zM229 66q34 0 61 28t27 69v65q-10 -4 -45 -10q-66 -11 -89 -27.5t-23 -55.5q0 -32 17 -50.5t52 -18.5zM221 534l47 121q16 44 33 64t43 20q21 0 36 -14.5t15 -34.5q0 -32 -48 -81
l-69 -75h-57z" />
    <glyph glyph-name="acircumflex" unicode="&#xe2;" horiz-adv-x="516" 
d="M175 -7q-63 0 -100.5 33.5t-37.5 87.5q0 49 34 83q25 25 65 38.5t116 24.5q45 6 55 9.5t10 14.5v45q0 44 -21 63t-67 19q-40 0 -70 -17q27 -15 27 -50q0 -25 -17.5 -41.5t-46.5 -16.5q-31 0 -49 19t-18 45q0 56 58.5 88.5t143.5 32.5q176 0 176 -150v-224q0 -31 28 -31
q21 0 34 41l41 -19q-31 -93 -112 -93q-39 0 -65 22t-28 66h-5q-20 -43 -61 -66.5t-90 -23.5zM229 66q34 0 61 28t27 69v65q-10 -4 -45 -10q-66 -11 -89 -27.5t-23 -55.5q0 -32 17 -50.5t52 -18.5zM111 535l117 189h58l116 -189h-65l-81 90l-80 -90h-65z" />
    <glyph glyph-name="atilde" unicode="&#xe3;" horiz-adv-x="516" 
d="M175 -7q-63 0 -100.5 33.5t-37.5 87.5q0 49 34 83q25 25 65 38.5t116 24.5q45 6 55 9.5t10 14.5v45q0 44 -21 63t-67 19q-40 0 -70 -17q27 -15 27 -50q0 -25 -17.5 -41.5t-46.5 -16.5q-31 0 -49 19t-18 45q0 56 58.5 88.5t143.5 32.5q176 0 176 -150v-224q0 -31 28 -31
q21 0 34 41l41 -19q-31 -93 -112 -93q-39 0 -65 22t-28 66h-5q-20 -43 -61 -66.5t-90 -23.5zM229 66q34 0 61 28t27 69v65q-10 -4 -45 -10q-66 -11 -89 -27.5t-23 -55.5q0 -32 17 -50.5t52 -18.5zM93 535q8 75 31.5 107.5t72.5 32.5q31 0 77 -24t59 -24q24 0 34 55h56
q-8 -75 -31.5 -107.5t-72.5 -32.5q-31 0 -77 24t-59 24q-14 0 -21.5 -12.5t-12.5 -42.5h-56z" />
    <glyph glyph-name="adieresis" unicode="&#xe4;" horiz-adv-x="516" 
d="M175 -7q-63 0 -100.5 33.5t-37.5 87.5q0 49 34 83q25 25 65 38.5t116 24.5q45 6 55 9.5t10 14.5v45q0 44 -21 63t-67 19q-40 0 -70 -17q27 -15 27 -50q0 -25 -17.5 -41.5t-46.5 -16.5q-31 0 -49 19t-18 45q0 56 58.5 88.5t143.5 32.5q176 0 176 -150v-224q0 -31 28 -31
q21 0 34 41l41 -19q-31 -93 -112 -93q-39 0 -65 22t-28 66h-5q-20 -43 -61 -66.5t-90 -23.5zM229 66q34 0 61 28t27 69v65q-10 -4 -45 -10q-66 -11 -89 -27.5t-23 -55.5q0 -32 17 -50.5t52 -18.5zM353 548q-29 0 -48 19.5t-19 47.5q0 30 19 50t48 20t48 -19.5t19 -48.5
t-19 -49t-48 -20zM163 548q-29 0 -48 19.5t-19 47.5q0 30 19 50t48 20t47.5 -19.5t18.5 -48.5t-19 -49t-47 -20z" />
    <glyph glyph-name="aring" unicode="&#xe5;" horiz-adv-x="516" 
d="M175 -7q-63 0 -100.5 33.5t-37.5 87.5q0 49 34 83q25 25 65 38.5t116 24.5q45 6 55 9.5t10 14.5v45q0 44 -21 63t-67 19q-40 0 -70 -17q27 -15 27 -50q0 -25 -17.5 -41.5t-46.5 -16.5q-31 0 -49 19t-18 45q0 56 58.5 88.5t143.5 32.5q176 0 176 -150v-224q0 -31 28 -31
q21 0 34 41l41 -19q-31 -93 -112 -93q-39 0 -65 22t-28 66h-5q-20 -43 -61 -66.5t-90 -23.5zM229 66q34 0 61 28t27 69v65q-10 -4 -45 -10q-66 -11 -89 -27.5t-23 -55.5q0 -32 17 -50.5t52 -18.5zM257 528q-55 0 -85.5 31t-30.5 77t31 77t85 31t85 -31t31 -77t-31.5 -77
t-84.5 -31zM257 570q25 0 39.5 18t14.5 48t-14.5 48.5t-39.5 18.5t-39.5 -18.5t-14.5 -48.5t15 -48t39 -18z" />
    <glyph glyph-name="ae" unicode="&#xe6;" horiz-adv-x="776" 
d="M744 220h-313q2 -83 34.5 -121t96.5 -38q83 0 118 83h61q-38 -154 -203 -154q-144 0 -193 110q-26 -53 -71 -80t-96 -27q-65 0 -103 33.5t-38 87.5q0 49 34 83q25 25 65 38.5t116 24.5q45 6 55 9.5t10 14.5v45q0 44 -21 63t-67 19q-40 0 -70 -17q27 -15 27 -50
q0 -25 -17.5 -41.5t-46.5 -16.5q-31 0 -49 19t-18 45q0 56 58 88.5t141 32.5q104 0 140 -61q53 61 146 61q101 0 154.5 -72.5t49.5 -178.5zM532 412q-45 0 -70 -32.5t-30 -106.5h196q-9 139 -96 139zM229 66q34 0 61 28t27 69v65q-10 -4 -45 -10q-66 -11 -89 -27.5
t-23 -55.5q0 -32 17 -50.5t52 -18.5z" />
    <glyph glyph-name="ccedilla" unicode="&#xe7;" horiz-adv-x="495" 
d="M251 -246q-66 0 -118 33l26 41q36 -20 77 -20q51 0 51 33q0 17 -19.5 28t-52.5 11q-20 0 -31 -3l-19 30l86 83q-102 5 -160 69.5t-58 164.5q0 108 69.5 177.5t176.5 69.5q82 0 134.5 -43t52.5 -95q0 -38 -18.5 -61t-52.5 -23q-31 0 -49.5 19t-18.5 47q0 20 12.5 37
t28.5 24q-25 37 -86 37q-53 0 -88 -47.5t-35 -130.5q0 -81 34 -126.5t98 -45.5q86 0 118 93h61q-14 -64 -52.5 -105.5t-97.5 -54.5l-57 -58l2 -4q52 -5 79 -28t27 -57q0 -44 -32.5 -69.5t-87.5 -25.5z" />
    <glyph glyph-name="egrave" unicode="&#xe8;" horiz-adv-x="507" 
d="M474 220h-317q3 -83 36.5 -121t97.5 -38q85 0 120 83h60q-36 -154 -206 -154q-107 0 -169.5 66t-62.5 170q0 105 66.5 175t167.5 70q104 0 157.5 -72t49.5 -179zM261 412q-92 0 -103 -139h200q-9 139 -97 139zM302 534h-57l-70 75q-47 50 -47 81q0 20 15 34.5t36 14.5
q26 0 43 -20.5t33 -63.5z" />
    <glyph glyph-name="eacute" unicode="&#xe9;" horiz-adv-x="507" 
d="M474 220h-317q3 -83 36.5 -121t97.5 -38q85 0 120 83h60q-36 -154 -206 -154q-107 0 -169.5 66t-62.5 170q0 105 66.5 175t167.5 70q104 0 157.5 -72t49.5 -179zM261 412q-92 0 -103 -139h200q-9 139 -97 139zM228 534l47 121q16 44 33 64t43 20q21 0 36 -14.5t15 -34.5
q0 -32 -48 -81l-69 -75h-57z" />
    <glyph glyph-name="ecircumflex" unicode="&#xea;" horiz-adv-x="507" 
d="M474 220h-317q3 -83 36.5 -121t97.5 -38q85 0 120 83h60q-36 -154 -206 -154q-107 0 -169.5 66t-62.5 170q0 105 66.5 175t167.5 70q104 0 157.5 -72t49.5 -179zM118 535l117 189h58l116 -189h-65l-81 90l-80 -90h-65zM261 412q-92 0 -103 -139h200q-9 139 -97 139z" />
    <glyph glyph-name="edieresis" unicode="&#xeb;" horiz-adv-x="507" 
d="M474 220h-317q3 -83 36.5 -121t97.5 -38q85 0 120 83h60q-36 -154 -206 -154q-107 0 -169.5 66t-62.5 170q0 105 66.5 175t167.5 70q104 0 157.5 -72t49.5 -179zM261 412q-92 0 -103 -139h200q-9 139 -97 139zM359 548q-29 0 -48 19.5t-19 47.5q0 30 19 50t48 20
t48 -19.5t19 -48.5t-19 -49t-48 -20zM169 548q-29 0 -48 19.5t-19 47.5q0 30 19 50t48 20t47.5 -19.5t18.5 -48.5t-19 -49t-47 -20z" />
    <glyph glyph-name="igrave" unicode="&#xec;" horiz-adv-x="328" 
d="M36 0v74h80v315h-80v74h197v-389h80v-74h-277zM196 534h-57l-70 75q-47 50 -47 81q0 20 15 34.5t36 14.5q26 0 43 -20.5t33 -63.5z" />
    <glyph glyph-name="iacute" unicode="&#xed;" horiz-adv-x="328" 
d="M122 534l47 121q16 44 33 64t43 20q21 0 36 -14.5t15 -34.5q0 -32 -48 -81l-69 -75h-57zM36 0v74h80v315h-80v74h197v-389h80v-74h-277z" />
    <glyph glyph-name="icircumflex" unicode="&#xee;" horiz-adv-x="328" 
d="M13 535l117 189h58l116 -189h-65l-81 90l-80 -90h-65zM36 0v74h80v315h-80v74h197v-389h80v-74h-277z" />
    <glyph glyph-name="idieresis" unicode="&#xef;" horiz-adv-x="328" 
d="M254 548q-29 0 -48 19.5t-19 47.5q0 30 19 50t48 20t48 -19.5t19 -48.5t-19 -49t-48 -20zM64 548q-29 0 -48 19.5t-19 47.5q0 30 19 50t48 20t47.5 -19.5t18.5 -48.5t-19 -49t-47 -20zM36 0v74h80v315h-80v74h197v-389h80v-74h-277z" />
    <glyph glyph-name="eth" unicode="&#xf0;" horiz-adv-x="549" 
d="M476 625l-86 -35q121 -143 121 -298q0 -142 -66.5 -222t-182.5 -80q-103 0 -166 65.5t-63 167.5q0 105 59 172t153 67t136 -77q-13 79 -76 170l-117 -48l-22 53l103 42q-26 32 -71 77l90 12q40 -36 60 -56l106 44zM275 50q107 0 107 177q0 172 -117 172q-53 0 -79 -41
t-26 -131q0 -177 115 -177z" />
    <glyph glyph-name="ntilde" unicode="&#xf1;" horiz-adv-x="603" 
d="M33 0v74h70v315h-70v74h182v-119q68 126 171 126q63 0 97 -41t34 -111v-244h71v-74h-249v74h62v216q0 51 -24 75q-18 19 -51 19q-41 0 -73.5 -37t-32.5 -96v-177h61v-74h-248zM149 535q8 75 31.5 107.5t72.5 32.5q31 0 77 -24t59 -24q24 0 34 55h56q-8 -75 -31.5 -107.5
t-72.5 -32.5q-31 0 -77.5 24t-58.5 24q-14 0 -21.5 -12.5t-12.5 -42.5h-56z" />
    <glyph glyph-name="ograve" unicode="&#xf2;" horiz-adv-x="543" 
d="M272 -10q-109 0 -174 66t-65 173q0 106 67 174t172 68q108 0 173.5 -65.5t65.5 -172.5t-67 -175t-172 -68zM276 50q107 0 107 181q0 180 -115 180q-55 0 -81 -43t-26 -137q0 -181 115 -181zM309 534h-57l-70 75q-47 50 -47 81q0 20 15 34.5t36 14.5q26 0 43 -20.5
t33 -63.5z" />
    <glyph glyph-name="oacute" unicode="&#xf3;" horiz-adv-x="543" 
d="M235 534l47 121q16 44 33 64t43 20q21 0 36 -14.5t15 -34.5q0 -32 -48 -81l-69 -75h-57zM272 -10q-109 0 -174 66t-65 173q0 106 67 174t172 68q108 0 173.5 -65.5t65.5 -172.5t-67 -175t-172 -68zM276 50q107 0 107 181q0 180 -115 180q-55 0 -81 -43t-26 -137
q0 -181 115 -181z" />
    <glyph glyph-name="ocircumflex" unicode="&#xf4;" horiz-adv-x="543" 
d="M125 535l117 189h58l116 -189h-65l-81 90l-80 -90h-65zM272 -10q-109 0 -174 66t-65 173q0 106 67 174t172 68q108 0 173.5 -65.5t65.5 -172.5t-67 -175t-172 -68zM276 50q107 0 107 181q0 180 -115 180q-55 0 -81 -43t-26 -137q0 -181 115 -181z" />
    <glyph glyph-name="otilde" unicode="&#xf5;" horiz-adv-x="543" 
d="M272 -10q-109 0 -174 66t-65 173q0 106 67 174t172 68q108 0 173.5 -65.5t65.5 -172.5t-67 -175t-172 -68zM276 50q107 0 107 181q0 180 -115 180q-55 0 -81 -43t-26 -137q0 -181 115 -181zM106 535q8 75 31.5 107.5t72.5 32.5q30 0 77 -24t59 -24q24 0 34 55h56
q-8 -75 -31.5 -107.5t-72.5 -32.5q-30 0 -77 24t-59 24q-14 0 -21.5 -12.5t-12.5 -42.5h-56z" />
    <glyph glyph-name="odieresis" unicode="&#xf6;" horiz-adv-x="543" 
d="M366 548q-29 0 -48 19.5t-19 47.5q0 30 19 50t48 20t48 -19.5t19 -48.5t-19 -49t-48 -20zM176 548q-29 0 -48 19.5t-19 47.5q0 30 19 50t48 20t47.5 -19.5t18.5 -48.5t-19 -49t-47 -20zM272 -10q-109 0 -174 66t-65 173q0 106 67 174t172 68q108 0 173.5 -65.5
t65.5 -172.5t-67 -175t-172 -68zM276 50q107 0 107 181q0 180 -115 180q-55 0 -81 -43t-26 -137q0 -181 115 -181z" />
    <glyph glyph-name="divide" unicode="&#xf7;" horiz-adv-x="520" 
d="M260 507q28 0 48 -19.5t20 -47.5t-20 -47.5t-48 -19.5t-48 19.5t-20 47.5q0 27 20 47t48 20zM477 248h-434v69h434v-69zM260 192q28 0 48 -19.5t20 -47.5q0 -27 -20 -47t-48 -20t-48 19.5t-20 47.5t20 47.5t48 19.5z" />
    <glyph glyph-name="oslash" unicode="&#xf8;" horiz-adv-x="543" 
d="M102 -28h-73l68 86q-64 66 -64 172t67 173.5t172 67.5q73 0 130 -33l39 51h74l-69 -86q65 -67 65 -171q0 -106 -67 -174t-171 -68q-76 0 -131 32zM157 231q0 -55 9 -92l185 238q-27 36 -83 36q-111 0 -111 -182zM276 49q110 0 110 182q0 55 -10 91l-184 -238
q29 -35 84 -35z" />
    <glyph glyph-name="ugrave" unicode="&#xf9;" horiz-adv-x="588" 
d="M217 -8q-63 0 -96 41t-33 112v244h-70v74h187v-290q0 -55 23 -77q17 -17 48 -17q41 0 73.5 37t32.5 95v178h-72v74h189v-389h71v-74h-183v119q-67 -127 -170 -127zM322 534h-57l-70 75q-47 50 -47 81q0 20 15 34.5t36 14.5q26 0 43 -20.5t33 -63.5z" />
    <glyph glyph-name="uacute" unicode="&#xfa;" horiz-adv-x="588" 
d="M248 534l47 121q16 44 33 64t43 20q21 0 36 -14.5t15 -34.5q0 -32 -48 -81l-69 -75h-57zM217 -8q-63 0 -96 41t-33 112v244h-70v74h187v-290q0 -55 23 -77q17 -17 48 -17q41 0 73.5 37t32.5 95v178h-72v74h189v-389h71v-74h-183v119q-67 -127 -170 -127z" />
    <glyph glyph-name="ucircumflex" unicode="&#xfb;" horiz-adv-x="588" 
d="M138 535l117 189h58l116 -189h-65l-81 90l-80 -90h-65zM217 -8q-63 0 -96 41t-33 112v244h-70v74h187v-290q0 -55 23 -77q17 -17 48 -17q41 0 73.5 37t32.5 95v178h-72v74h189v-389h71v-74h-183v119q-67 -127 -170 -127z" />
    <glyph glyph-name="udieresis" unicode="&#xfc;" horiz-adv-x="588" 
d="M379 548q-29 0 -48 19.5t-19 47.5q0 30 19 50t48 20t48 -19.5t19 -48.5t-19 -49t-48 -20zM189 548q-29 0 -48 19.5t-19 47.5q0 30 19 50t48 20t47.5 -19.5t18.5 -48.5t-19 -49t-47 -20zM217 -8q-63 0 -96 41t-33 112v244h-70v74h187v-290q0 -55 23 -77q17 -17 48 -17
q41 0 73.5 37t32.5 95v178h-72v74h189v-389h71v-74h-183v119q-67 -127 -170 -127z" />
    <glyph glyph-name="yacute" unicode="&#xfd;" horiz-adv-x="530" 
d="M81 -7q30 0 48 -20t18 -47q0 -18 -8 -34q32 6 53 27.5t43 78.5l-172 391h-63v74h264v-74h-75l106 -269l106 269h-62v74h197v-74h-58l-159 -377q-41 -97 -87 -139.5t-111 -42.5q-51 0 -80.5 24.5t-29.5 65.5q0 30 20 51.5t50 21.5zM247 534l47 121q16 44 33 64t43 20
q21 0 36 -14.5t15 -34.5q0 -32 -48 -81l-69 -75h-57z" />
    <glyph glyph-name="thorn" unicode="&#xfe;" horiz-adv-x="560" 
d="M4 -157v74h71v694h-71v78h187v-319q24 47 63.5 74t87.5 27q74 0 120 -46q62 -62 62 -193q0 -114 -67 -182q-50 -50 -121 -50q-98 0 -145 81v-164h92v-74h-279zM303 64q45 0 69.5 44t24.5 125q0 79 -24.5 121t-71.5 42q-51 0 -83 -49t-32 -123q0 -72 33 -116t84 -44z" />
    <glyph glyph-name="ydieresis" unicode="&#xff;" horiz-adv-x="530" 
d="M81 -7q30 0 48 -20t18 -47q0 -18 -8 -34q32 6 53 27.5t43 78.5l-172 391h-63v74h264v-74h-75l106 -269l106 269h-62v74h197v-74h-58l-159 -377q-41 -97 -87 -139.5t-111 -42.5q-51 0 -80.5 24.5t-29.5 65.5q0 30 20 51.5t50 21.5zM379 548q-29 0 -48 19.5t-19 47.5
q0 30 19 50t48 20t48 -19.5t19 -48.5t-19 -49t-48 -20zM189 548q-29 0 -48 19.5t-19 47.5q0 30 19 50t48 20t47.5 -19.5t18.5 -48.5t-19 -49t-47 -20z" />
    <glyph glyph-name="Amacron" unicode="&#x100;" horiz-adv-x="698" 
d="M484 75l-51 147h-232l-52 -147h83v-75h-241v75h72l221 587h128l213 -587h86v-75h-325v75h98zM318 548l-93 -259h185l-88 259h-4zM215 748v84h271v-84h-271z" />
    <glyph glyph-name="amacron" unicode="&#x101;" horiz-adv-x="516" 
d="M175 -7q-63 0 -100.5 33.5t-37.5 87.5q0 49 34 83q25 25 65 38.5t116 24.5q45 6 55 9.5t10 14.5v45q0 44 -21 63t-67 19q-40 0 -70 -17q27 -15 27 -50q0 -25 -17.5 -41.5t-46.5 -16.5q-31 0 -49 19t-18 45q0 56 58.5 88.5t143.5 32.5q176 0 176 -150v-224q0 -31 28 -31
q21 0 34 41l41 -19q-31 -93 -112 -93q-39 0 -65 22t-28 66h-5q-20 -43 -61 -66.5t-90 -23.5zM229 66q34 0 61 28t27 69v65q-10 -4 -45 -10q-66 -11 -89 -27.5t-23 -55.5q0 -32 17 -50.5t52 -18.5zM122 546v84h271v-84h-271z" />
    <glyph glyph-name="Abreve" unicode="&#x102;" horiz-adv-x="698" 
d="M484 75l-51 147h-232l-52 -147h83v-75h-241v75h72l221 587h128l213 -587h86v-75h-325v75h98zM350 739q-67 0 -105.5 43.5t-40.5 124.5h53q22 -86 94 -86q70 0 92 86h53q-1 -81 -40 -124.5t-106 -43.5zM318 548l-93 -259h185l-88 259h-4z" />
    <glyph glyph-name="abreve" unicode="&#x103;" horiz-adv-x="516" 
d="M175 -7q-63 0 -100.5 33.5t-37.5 87.5q0 49 34 83q25 25 65 38.5t116 24.5q45 6 55 9.5t10 14.5v45q0 44 -21 63t-67 19q-40 0 -70 -17q27 -15 27 -50q0 -25 -17.5 -41.5t-46.5 -16.5q-31 0 -49 19t-18 45q0 56 58.5 88.5t143.5 32.5q176 0 176 -150v-224q0 -31 28 -31
q21 0 34 41l41 -19q-31 -93 -112 -93q-39 0 -65 22t-28 66h-5q-20 -43 -61 -66.5t-90 -23.5zM229 66q34 0 61 28t27 69v65q-10 -4 -45 -10q-66 -11 -89 -27.5t-23 -55.5q0 -32 17 -50.5t52 -18.5zM257 537q-67 0 -105.5 43.5t-40.5 124.5h53q22 -86 94 -86q70 0 92 86h53
q-1 -81 -40 -124.5t-106 -43.5z" />
    <glyph glyph-name="Aogonek" unicode="&#x104;" horiz-adv-x="698" 
d="M550 -246q-54 0 -83.5 26t-29.5 69q0 37 22.5 68.5t73.5 72.5l12 10h-159v75h98l-51 147h-232l-52 -147h83v-75h-241v75h72l221 587h128l213 -587h86v-75h-93l-12 -12q-76 -74 -76 -121q0 -24 14.5 -37t37.5 -13q26 0 58 20l22 -42q-55 -41 -112 -41zM318 548l-93 -259
h185l-88 259h-4z" />
    <glyph glyph-name="aogonek" unicode="&#x105;" horiz-adv-x="516" 
d="M408 -246q-54 0 -83.5 26t-29.5 69q0 37 23.5 70t80.5 78q-65 14 -68 86h-5q-20 -43 -61 -66.5t-90 -23.5q-63 0 -100.5 33.5t-37.5 87.5q0 59 51 95q47 36 174 52q32 5 43 9t12 12v47q0 44 -21 63t-67 19q-40 0 -70 -17q27 -15 27 -50q0 -25 -17.5 -41.5t-46.5 -16.5
q-31 0 -49 19t-18 45q0 56 58.5 88.5t143.5 32.5q176 0 176 -150v-224q0 -31 28 -31q21 0 34 41l41 -19q-15 -48 -51 -80q-59 -55 -78 -85t-19 -56q0 -24 15 -37t38 -13q25 0 57 20l23 -42q-55 -41 -113 -41zM229 66q34 0 61 28t27 69v65q-10 -4 -45 -10q-66 -11 -89 -27.5
t-23 -55.5q0 -32 17 -50.5t52 -18.5z" />
    <glyph glyph-name="Cacute" unicode="&#x106;" horiz-adv-x="684" 
d="M318 736l47 121q16 44 33 64t43 20q21 0 36 -14.5t15 -34.5q0 -32 -48 -81l-69 -75h-57zM361 -16q-145 0 -234.5 97t-89.5 247q0 144 92.5 245t221.5 101q120 0 185 -78l19 75h76v-260h-76q-68 190 -192 190q-83 0 -132 -64.5t-49 -200.5q0 -133 51.5 -202.5t146.5 -69.5
q79 0 128 55t62 144h82q-13 -130 -90.5 -204.5t-200.5 -74.5z" />
    <glyph glyph-name="cacute" unicode="&#x107;" horiz-adv-x="495" 
d="M235 534l47 121q16 44 33 64t43 20q21 0 36 -14.5t15 -34.5q0 -32 -48 -81l-69 -75h-57zM267 -10q-109 0 -171.5 65t-62.5 169q0 108 69.5 177.5t176.5 69.5q82 0 134.5 -43t52.5 -95q0 -38 -18.5 -61t-52.5 -23q-31 0 -49.5 19t-18.5 47q0 20 12.5 37t28.5 24
q-25 37 -86 37q-53 0 -88 -47.5t-35 -130.5q0 -81 34 -126.5t98 -45.5q86 0 118 93h61q-17 -78 -69.5 -122t-133.5 -44z" />
    <glyph glyph-name="Cdotaccent" unicode="&#x10a;" horiz-adv-x="684" 
d="M361 -16q-145 0 -234.5 97t-89.5 247q0 144 92.5 245t221.5 101q120 0 185 -78l19 75h76v-260h-76q-68 190 -192 190q-83 0 -132 -64.5t-49 -200.5q0 -133 51.5 -202.5t146.5 -69.5q79 0 128 55t62 144h82q-13 -130 -90.5 -204.5t-200.5 -74.5zM355 737q-33 0 -52.5 19.5
t-19.5 50.5q0 30 20.5 51t51.5 21q32 0 51.5 -20t19.5 -51q0 -30 -20.5 -50.5t-50.5 -20.5z" />
    <glyph glyph-name="cdotaccent" unicode="&#x10b;" horiz-adv-x="495" 
d="M267 -10q-109 0 -171.5 65t-62.5 169q0 108 69.5 177.5t176.5 69.5q82 0 134.5 -43t52.5 -95q0 -38 -18.5 -61t-52.5 -23q-31 0 -49.5 19t-18.5 47q0 20 12.5 37t28.5 24q-25 37 -86 37q-53 0 -88 -47.5t-35 -130.5q0 -81 34 -126.5t98 -45.5q86 0 118 93h61
q-17 -78 -69.5 -122t-133.5 -44zM271 535q-33 0 -52.5 19.5t-19.5 50.5q0 30 20.5 51t51.5 21q32 0 51.5 -20t19.5 -51q0 -30 -20.5 -50.5t-50.5 -20.5z" />
    <glyph glyph-name="Ccaron" unicode="&#x10c;" horiz-adv-x="684" 
d="M327 743l-116 189h65l81 -90l80 90h65l-117 -189h-58zM361 -16q-145 0 -234.5 97t-89.5 247q0 144 92.5 245t221.5 101q120 0 185 -78l19 75h76v-260h-76q-68 190 -192 190q-83 0 -132 -64.5t-49 -200.5q0 -133 51.5 -202.5t146.5 -69.5q79 0 128 55t62 144h82
q-13 -130 -90.5 -204.5t-200.5 -74.5z" />
    <glyph glyph-name="ccaron" unicode="&#x10d;" horiz-adv-x="495" 
d="M244 541l-116 189h65l81 -90l80 90h65l-117 -189h-58zM267 -10q-109 0 -171.5 65t-62.5 169q0 108 69.5 177.5t176.5 69.5q82 0 134.5 -43t52.5 -95q0 -38 -18.5 -61t-52.5 -23q-31 0 -49.5 19t-18.5 47q0 20 12.5 37t28.5 24q-25 37 -86 37q-53 0 -88 -47.5t-35 -130.5
q0 -81 34 -126.5t98 -45.5q86 0 118 93h61q-17 -78 -69.5 -122t-133.5 -44z" />
    <glyph glyph-name="Dcaron" unicode="&#x10e;" horiz-adv-x="735" 
d="M351 743l-116 189h65l81 -90l80 90h65l-117 -189h-58zM28 0v75h102v508h-102v75h289q186 0 283.5 -87t97.5 -235q0 -149 -95 -242.5t-279 -93.5h-296zM259 74h69q120 0 172 59.5t52 202.5q0 131 -54.5 189.5t-177.5 58.5h-61v-510z" />
    <glyph glyph-name="dcaron" unicode="&#x10f;" horiz-adv-x="569" 
d="M604 531h-46q-6 84 -6 152q-1 87 56 87q22 0 36 -15t14 -40q0 -21 -18 -75zM221 -10q-71 0 -120 49q-65 65 -65 187q0 125 68 195q52 50 124 50q93 0 141 -80v220h-75v78h192v-615h66v-74h-178v96q-50 -106 -153 -106zM267 64q45 0 76 46.5t31 121.5q0 72 -27 119t-80 47
q-104 0 -104 -168q0 -79 28.5 -122.5t75.5 -43.5z" />
    <glyph glyph-name="Dcroat" unicode="&#x110;" horiz-adv-x="735" 
d="M28 0v75h102v232h-102v72h102v204h-102v75h289q186 0 283.5 -87t97.5 -235q0 -149 -95 -242.5t-279 -93.5h-296zM259 74h69q120 0 172 59.5t52 202.5q0 131 -54.5 189.5t-177.5 58.5h-61v-205h135v-72h-135v-233z" />
    <glyph glyph-name="dcroat" unicode="&#x111;" horiz-adv-x="569" 
d="M221 -10q-71 0 -120 49q-65 65 -65 186q0 123 68 193q52 50 124 50q93 0 141 -80v116h-124v59h124v51h-75v75h192v-126h67v-59h-67v-430h66v-74h-178v96q-50 -106 -153 -106zM267 64q45 0 76 45.5t31 120.5q0 72 -27 118.5t-80 46.5q-104 0 -104 -166q0 -78 28.5 -121.5
t75.5 -43.5z" />
    <glyph glyph-name="Emacron" unicode="&#x112;" horiz-adv-x="691" 
d="M28 0v75h102v508h-102v75h601v-223h-64q-25 96 -45.5 122.5t-78.5 26.5h-182v-214h63q49 0 63.5 15.5t26.5 81.5h64v-264h-64q-10 66 -25 82.5t-65 16.5h-63v-228h178q36 0 56.5 6t35.5 29t23.5 50t21.5 86h64v-245h-610zM234 748v84h271v-84h-271z" />
    <glyph glyph-name="emacron" unicode="&#x113;" horiz-adv-x="507" 
d="M474 220h-317q3 -83 36.5 -121t97.5 -38q85 0 120 83h60q-36 -154 -206 -154q-107 0 -169.5 66t-62.5 170q0 105 66.5 175t167.5 70q104 0 157.5 -72t49.5 -179zM129 546v84h271v-84h-271zM261 412q-92 0 -103 -139h200q-9 139 -97 139z" />
    <glyph glyph-name="Ebreve" unicode="&#x114;" horiz-adv-x="691" 
d="M28 0v75h102v508h-102v75h601v-223h-64q-25 96 -45.5 122.5t-78.5 26.5h-182v-214h63q49 0 63.5 15.5t26.5 81.5h64v-264h-64q-10 66 -25 82.5t-65 16.5h-63v-228h178q36 0 56.5 6t35.5 29t23.5 50t21.5 86h64v-245h-610zM369 739q-67 0 -105.5 43.5t-40.5 124.5h53
q22 -86 94 -86q70 0 92 86h53q-1 -81 -40 -124.5t-106 -43.5z" />
    <glyph glyph-name="ebreve" unicode="&#x115;" horiz-adv-x="507" 
d="M474 220h-317q3 -83 36.5 -121t97.5 -38q85 0 120 83h60q-36 -154 -206 -154q-107 0 -169.5 66t-62.5 170q0 105 66.5 175t167.5 70q104 0 157.5 -72t49.5 -179zM264 537q-67 0 -105.5 43.5t-40.5 124.5h53q22 -86 94 -86q70 0 92 86h53q-1 -81 -40 -124.5t-106 -43.5z
M261 412q-92 0 -103 -139h200q-9 139 -97 139z" />
    <glyph glyph-name="Edotaccent" unicode="&#x116;" horiz-adv-x="691" 
d="M28 0v75h102v508h-102v75h601v-223h-64q-25 96 -45.5 122.5t-78.5 26.5h-182v-214h63q49 0 63.5 15.5t26.5 81.5h64v-264h-64q-10 66 -25 82.5t-65 16.5h-63v-228h178q36 0 56.5 6t35.5 29t23.5 50t21.5 86h64v-245h-610zM370 737q-33 0 -52.5 19.5t-19.5 50.5
q0 30 20.5 51t51.5 21q32 0 51.5 -20t19.5 -51q0 -30 -20.5 -50.5t-50.5 -20.5z" />
    <glyph glyph-name="edotaccent" unicode="&#x117;" horiz-adv-x="507" 
d="M474 220h-317q3 -83 36.5 -121t97.5 -38q85 0 120 83h60q-36 -154 -206 -154q-107 0 -169.5 66t-62.5 170q0 105 66.5 175t167.5 70q104 0 157.5 -72t49.5 -179zM261 412q-92 0 -103 -139h200q-9 139 -97 139zM264 535q-33 0 -52.5 19.5t-19.5 50.5q0 30 20.5 51t51.5 21
q32 0 51.5 -20t19.5 -51q0 -30 -20.5 -50.5t-50.5 -20.5z" />
    <glyph glyph-name="Eogonek" unicode="&#x118;" horiz-adv-x="691" 
d="M28 0v75h102v508h-102v75h601v-223h-64q-25 96 -45.5 122.5t-78.5 26.5h-182v-214h63q49 0 63.5 15.5t26.5 81.5h64v-264h-64q-10 66 -25 82.5t-65 16.5h-63v-228h178q36 0 56.5 6t35.5 29t23.5 50t21.5 86h64v-245h-52l-12 -12q-76 -74 -76 -121q0 -24 14.5 -37
t37.5 -13q26 0 58 20l22 -42q-55 -41 -112 -41q-54 0 -83.5 26t-29.5 69q0 37 22.5 68.5t73.5 72.5l12 10h-485z" />
    <glyph glyph-name="eogonek" unicode="&#x119;" horiz-adv-x="507" 
d="M474 220h-317q3 -83 36.5 -121t97.5 -38q85 0 120 83h60q-17 -70 -79 -131l-32 -35q-38 -41 -51.5 -65t-13.5 -46q0 -24 14.5 -37t37.5 -13q26 0 58 20l22 -42q-55 -41 -112 -41q-54 0 -83.5 26t-29.5 69q0 35 19.5 64.5t64.5 68.5l12 10q-22 -2 -29 -2
q-111 0 -173.5 65.5t-62.5 170.5t66.5 175t167.5 70q104 0 157.5 -72t49.5 -179zM261 412q-92 0 -103 -139h200q-9 139 -97 139z" />
    <glyph glyph-name="Ecaron" unicode="&#x11a;" horiz-adv-x="691" 
d="M342 743l-116 189h65l81 -90l80 90h65l-117 -189h-58zM28 0v75h102v508h-102v75h601v-223h-64q-25 96 -45.5 122.5t-78.5 26.5h-182v-214h63q49 0 63.5 15.5t26.5 81.5h64v-264h-64q-10 66 -25 82.5t-65 16.5h-63v-228h178q36 0 56.5 6t35.5 29t23.5 50t21.5 86h64v-245
h-610z" />
    <glyph glyph-name="ecaron" unicode="&#x11b;" horiz-adv-x="507" 
d="M474 220h-317q3 -83 36.5 -121t97.5 -38q85 0 120 83h60q-36 -154 -206 -154q-107 0 -169.5 66t-62.5 170q0 105 66.5 175t167.5 70q104 0 157.5 -72t49.5 -179zM237 541l-116 189h65l81 -90l80 90h65l-117 -189h-58zM261 412q-92 0 -103 -139h200q-9 139 -97 139z" />
    <glyph glyph-name="Gbreve" unicode="&#x11e;" 
d="M534 86q-62 -102 -182 -102q-139 0 -227 98t-88 248q0 143 93.5 243.5t221.5 100.5q117 0 183 -79l20 76h76v-256h-82q-64 186 -186 186q-82 0 -131.5 -65.5t-49.5 -199.5q0 -130 49 -201.5t141 -71.5q76 0 116 64q26 38 26 111v22h-117v75h327v-75h-82v-267h-75z
M359 739q-67 0 -105.5 43.5t-40.5 124.5h53q22 -86 94 -86q70 0 92 86h53q-1 -81 -40 -124.5t-106 -43.5z" />
    <glyph glyph-name="gbreve" unicode="&#x11f;" horiz-adv-x="496" 
d="M436 325q0 -72 -52.5 -111.5t-140.5 -39.5q-11 0 -31.5 1.5t-29.5 1.5q-23 0 -35.5 -11.5t-12.5 -26.5q0 -37 69 -37h124q157 0 157 -116q0 -69 -65.5 -112.5t-193.5 -43.5q-100 0 -155 28t-55 75q0 33 28 57.5t74 31.5v5q-78 21 -78 83q0 30 29 55.5t71 32.5
q-93 34 -93 124q0 69 53 109t141 40q42 0 78 -11q21 44 55 70.5t75 26.5q35 0 54.5 -18t19.5 -45q0 -23 -15 -39t-39 -16q-22 0 -35 13t-13 34q0 7 1 11q-15 1 -31.5 -14t-28.5 -40q75 -42 75 -118zM235 -112q70 0 108.5 18.5t38.5 51.5q0 48 -74 48h-116q-84 0 -84 -57
q0 -61 127 -61zM237 543q-67 0 -105.5 43.5t-40.5 124.5h53q22 -86 94 -86q70 0 92 86h53q-1 -81 -40 -124.5t-106 -43.5zM244 222q76 0 76 100q0 46 -21.5 73t-60.5 27q-77 0 -77 -101q0 -99 83 -99z" />
    <glyph glyph-name="Gdotaccent" unicode="&#x120;" 
d="M534 86q-62 -102 -182 -102q-139 0 -227 98t-88 248q0 143 93.5 243.5t221.5 100.5q117 0 183 -79l20 76h76v-256h-82q-64 186 -186 186q-82 0 -131.5 -65.5t-49.5 -199.5q0 -130 49 -201.5t141 -71.5q76 0 116 64q26 38 26 111v22h-117v75h327v-75h-82v-267h-75z
M360 737q-33 0 -52.5 19.5t-19.5 50.5q0 30 20.5 51t51.5 21q32 0 51.5 -20t19.5 -51q0 -30 -20.5 -50.5t-50.5 -20.5z" />
    <glyph glyph-name="gdotaccent" unicode="&#x121;" horiz-adv-x="496" 
d="M436 325q0 -72 -52.5 -111.5t-140.5 -39.5q-11 0 -31.5 1.5t-29.5 1.5q-23 0 -35.5 -11.5t-12.5 -26.5q0 -37 69 -37h124q157 0 157 -116q0 -69 -65.5 -112.5t-193.5 -43.5q-100 0 -155 28t-55 75q0 33 28 57.5t74 31.5v5q-78 21 -78 83q0 30 29 55.5t71 32.5
q-93 34 -93 124q0 69 53 109t141 40q42 0 78 -11q21 44 55 70.5t75 26.5q35 0 54.5 -18t19.5 -45q0 -23 -15 -39t-39 -16q-22 0 -35 13t-13 34q0 7 1 11q-15 1 -31.5 -14t-28.5 -40q75 -42 75 -118zM235 -112q70 0 108.5 18.5t38.5 51.5q0 48 -74 48h-116q-84 0 -84 -57
q0 -61 127 -61zM244 222q76 0 76 100q0 46 -21.5 73t-60.5 27q-77 0 -77 -101q0 -99 83 -99zM237 538q-33 0 -52.5 19.5t-19.5 50.5q0 30 20.5 51t51.5 21q32 0 51.5 -20t19.5 -51q0 -30 -20.5 -50.5t-50.5 -20.5z" />
    <glyph glyph-name="Gcommaaccent" unicode="&#x122;" 
d="M289 -337l-20 39q91 41 100 105l-6 3q-11 -11 -31 -11q-22 0 -37.5 16.5t-15.5 42.5q0 29 20 50t50 21q37 0 58.5 -25t21.5 -67q0 -117 -140 -174zM534 86q-62 -102 -182 -102q-139 0 -227 98t-88 248q0 143 93.5 243.5t221.5 100.5q117 0 183 -79l20 76h76v-256h-82
q-64 186 -186 186q-82 0 -131.5 -65.5t-49.5 -199.5q0 -130 49 -201.5t141 -71.5q76 0 116 64q26 38 26 111v22h-117v75h327v-75h-82v-267h-75z" />
    <glyph glyph-name="gcommaaccent" unicode="&#x123;" horiz-adv-x="496" 
d="M436 325q0 -72 -52.5 -111.5t-140.5 -39.5q-11 0 -31.5 1.5t-29.5 1.5q-23 0 -35.5 -11.5t-12.5 -26.5q0 -37 69 -37h124q157 0 157 -116q0 -69 -65.5 -112.5t-193.5 -43.5q-100 0 -155 28t-55 75q0 33 28 57.5t74 31.5v5q-78 21 -78 83q0 30 29 55.5t71 32.5
q-93 34 -93 124q0 69 53 109t141 40q42 0 78 -11q21 44 55 70.5t75 26.5q35 0 54.5 -18t19.5 -45q0 -23 -15 -39t-39 -16q-22 0 -35 13t-13 34q0 7 1 11q-15 1 -31.5 -14t-28.5 -40q75 -42 75 -118zM235 -112q70 0 108.5 18.5t38.5 51.5q0 48 -74 48h-116q-84 0 -84 -57
q0 -61 127 -61zM244 222q76 0 76 100q0 46 -21.5 73t-60.5 27q-77 0 -77 -101q0 -99 83 -99zM302 803l20 -39q-91 -41 -100 -105l6 -3q11 11 31 11q22 0 37.5 -16.5t15.5 -42.5q0 -29 -20 -50t-50 -21q-37 0 -58.5 25t-21.5 67q0 117 140 174z" />
    <glyph glyph-name="Hbar" unicode="&#x126;" horiz-adv-x="801" 
d="M28 439v68h102v76h-102v75h324v-75h-93v-80h282v80h-92v75h323v-75h-102v-76h102v-68h-102v-364h102v-75h-323v75h92v219h-282v-219h93v-75h-324v75h102v364h-102zM259 363h282v79h-282v-79z" />
    <glyph glyph-name="hbar" unicode="&#x127;" horiz-adv-x="593" 
d="M23 0v74h71v430h-71v59h71v48h-71v78h187v-126h120v-59h-120v-155q66 118 166 118q63 0 97 -41t34 -111v-241h71v-74h-249v74h62v213q0 51 -24 75q-18 19 -50 19q-42 0 -74.5 -37t-32.5 -96v-174h61v-74h-248z" />
    <glyph glyph-name="Imacron" unicode="&#x12a;" horiz-adv-x="413" 
d="M39 0v75h103v508h-103v75h335v-75h-103v-508h103v-75h-335zM70 748v84h271v-84h-271z" />
    <glyph glyph-name="imacron" unicode="&#x12b;" horiz-adv-x="328" 
d="M36 0v74h80v315h-80v74h197v-389h80v-74h-277zM23 546v84h271v-84h-271z" />
    <glyph glyph-name="Ibreve" unicode="&#x12c;" horiz-adv-x="413" 
d="M39 0v75h103v508h-103v75h335v-75h-103v-508h103v-75h-335zM206 739q-67 0 -105.5 43.5t-40.5 124.5h53q22 -86 94 -86q70 0 92 86h53q-1 -81 -40 -124.5t-106 -43.5z" />
    <glyph glyph-name="ibreve" unicode="&#x12d;" horiz-adv-x="328" 
d="M36 0v74h80v315h-80v74h197v-389h80v-74h-277zM159 537q-67 0 -105.5 43.5t-40.5 124.5h53q22 -86 94 -86q70 0 92 86h53q-1 -81 -40 -124.5t-106 -43.5z" />
    <glyph glyph-name="Iogonek" unicode="&#x12e;" horiz-adv-x="413" 
d="M39 0v75h103v508h-103v75h335v-75h-103v-508h103v-75h-104l-12 -12q-76 -74 -76 -121q0 -24 14.5 -37t37.5 -13q26 0 58 20l22 -42q-55 -41 -112 -41q-54 0 -83.5 26t-29.5 69q0 37 22.5 68.5t73.5 72.5l12 10h-158z" />
    <glyph glyph-name="iogonek" unicode="&#x12f;" horiz-adv-x="328" 
d="M36 0v74h80v315h-80v74h197v-389h80v-74h-74l-12 -12q-76 -74 -76 -121q0 -24 14.5 -37t37.5 -13q26 0 58 20l22 -42q-55 -41 -112 -41q-54 0 -83.5 26t-29.5 69q0 37 22.5 68.5t73.5 72.5l12 10h-130zM168 546q-34 0 -55 20.5t-21 52.5q0 33 21 54.5t55 21.5t54.5 -20
t20.5 -53t-21 -54.5t-54 -21.5z" />
    <glyph glyph-name="Idotaccent" unicode="&#x130;" horiz-adv-x="413" 
d="M39 0v75h103v508h-103v75h335v-75h-103v-508h103v-75h-335zM206 737q-33 0 -52.5 19.5t-19.5 50.5q0 30 20.5 51t51.5 21q32 0 51.5 -20t19.5 -51q0 -30 -20.5 -50.5t-50.5 -20.5z" />
    <glyph glyph-name="dotlessi" unicode="&#x131;" horiz-adv-x="328" 
d="M36 0v74h80v315h-80v74h197v-389h80v-74h-277z" />
    <glyph glyph-name="Kcommaaccent" unicode="&#x136;" horiz-adv-x="736" 
d="M259 227v-153h90v-74h-321v75h102v508h-102v75h322v-74h-91v-265l259 265h-85v74h270v-75h-82l-193 -191l231 -317h77v-75h-309v74h79l-164 234zM310 -337l-20 39q91 41 100 105l-6 3q-11 -11 -31 -11q-22 0 -37.5 16.5t-15.5 42.5q0 29 20 50t50 21q37 0 58.5 -25
t21.5 -67q0 -117 -140 -174z" />
    <glyph glyph-name="kcommaaccent" unicode="&#x137;" horiz-adv-x="564" 
d="M461 389l-115 -109l157 -206h53v-74h-235v73h56l-104 142l-63 -61v-81h54v-73h-241v74h71v537h-71v78h187v-460l162 161h-74v73h233v-74h-70zM214 -337l-20 39q91 41 100 105l-6 3q-11 -11 -31 -11q-22 0 -37.5 16.5t-15.5 42.5q0 29 20 50t50 21q37 0 58.5 -25t21.5 -67
q0 -117 -140 -174z" />
    <glyph glyph-name="Lacute" unicode="&#x139;" horiz-adv-x="621" 
d="M162 736l47 121q16 44 33 64t43 20q21 0 36 -14.5t15 -34.5q0 -32 -48 -81l-69 -75h-57zM28 658h337v-74h-106v-510h128q32 0 49.5 4.5t34 25.5t28.5 53.5t31 98.5h60v-256h-562v75h102v508h-102v75z" />
    <glyph glyph-name="lacute" unicode="&#x13a;" horiz-adv-x="316" 
d="M108 760l47 121q16 44 33 64t43 20q21 0 36 -14.5t15 -34.5q0 -32 -48 -81l-69 -75h-57zM20 0v74h80v537h-80v78h196v-615h80v-74h-276z" />
    <glyph glyph-name="Lcommaaccent" unicode="&#x13b;" horiz-adv-x="621" 
d="M255 -337l-20 39q91 41 100 105l-6 3q-11 -11 -31 -11q-22 0 -37.5 16.5t-15.5 42.5q0 29 20 50t50 21q37 0 58.5 -25t21.5 -67q0 -117 -140 -174zM28 658h337v-74h-106v-510h128q32 0 49.5 4.5t34 25.5t28.5 53.5t31 98.5h60v-256h-562v75h102v508h-102v75z" />
    <glyph glyph-name="lcommaaccent" unicode="&#x13c;" horiz-adv-x="316" 
d="M93 -337l-20 39q91 41 100 105l-6 3q-11 -11 -31 -11q-22 0 -37.5 16.5t-15.5 42.5q0 29 20 50t50 21q37 0 58.5 -25t21.5 -67q0 -117 -140 -174zM20 0v74h80v537h-80v78h196v-615h80v-74h-276z" />
    <glyph glyph-name="Lcaron" unicode="&#x13d;" horiz-adv-x="621" 
d="M479 495h-46q-6 84 -6 152q-1 87 56 87q22 0 36 -15t14 -40q0 -21 -18 -75zM28 658h337v-74h-106v-510h128q32 0 49.5 4.5t34 25.5t28.5 53.5t31 98.5h60v-256h-562v75h102v508h-102v75z" />
    <glyph glyph-name="lcaron" unicode="&#x13e;" horiz-adv-x="316" 
d="M335 525h-46q-6 84 -6 152q-1 87 56 87q22 0 36 -15t14 -40q0 -21 -18 -75zM20 0v74h80v537h-80v78h196v-615h80v-74h-276z" />
    <glyph glyph-name="Ldot" unicode="&#x13f;" horiz-adv-x="621" 
d="M28 658h337v-74h-106v-510h128q43 0 63.5 11t37.5 43t42 111h60v-239h-562v75h102v508h-102v75zM485 302q-32 0 -52 19.5t-20 49.5t20.5 51t51.5 21t51 -20t20 -50t-20 -50.5t-51 -20.5z" />
    <glyph glyph-name="ldot" unicode="&#x140;" horiz-adv-x="386" 
d="M351 279q-31 0 -50 18.5t-19 48.5q0 29 19.5 49t49.5 20q31 0 50 -19.5t19 -48.5t-20 -48.5t-49 -19.5zM20 0v74h80v537h-80v78h196v-615h80v-74h-276z" />
    <glyph glyph-name="Lslash" unicode="&#x141;" horiz-adv-x="623" 
d="M29 658h337v-74h-106v-203l166 56v-71l-166 -57v-235h128q32 0 49.5 4.5t34 25.5t28.5 53.5t31 98.5h60v-256h-562v75h102v190l-84 -28v72l84 28v246h-102v75z" />
    <glyph glyph-name="lslash" unicode="&#x142;" horiz-adv-x="332" 
d="M28 0v74h80v226l-91 -30v65l91 30v246h-80v78h196v-286l95 31v-64l-95 -32v-264h80v-74h-276z" />
    <glyph glyph-name="Nacute" unicode="&#x143;" horiz-adv-x="790" 
d="M363 736l47 121q16 44 33 64t43 20q21 0 36 -14.5t15 -34.5q0 -32 -48 -81l-69 -75h-57zM561 -13l-345 528h-9v-440h98v-75h-273v75h94v508h-94v75h245l308 -472h9v397h-98v75h273v-75h-94v-596h-114z" />
    <glyph glyph-name="nacute" unicode="&#x144;" horiz-adv-x="603" 
d="M278 534l47 121q16 44 33 64t43 20q21 0 36 -14.5t15 -34.5q0 -32 -48 -81l-69 -75h-57zM33 0v74h70v315h-70v74h182v-119q68 126 171 126q63 0 97 -41t34 -111v-244h71v-74h-249v74h62v216q0 51 -24 75q-18 19 -51 19q-41 0 -73.5 -37t-32.5 -96v-177h61v-74h-248z" />
    <glyph glyph-name="Ncommaaccent" unicode="&#x145;" horiz-adv-x="790" 
d="M326 -337l-20 39q91 41 100 105l-6 3q-11 -11 -31 -11q-22 0 -37.5 16.5t-15.5 42.5q0 29 20 50t50 21q37 0 58.5 -25t21.5 -67q0 -117 -140 -174zM561 -13l-345 528h-9v-440h98v-75h-273v75h94v508h-94v75h245l308 -472h9v397h-98v75h273v-75h-94v-596h-114z" />
    <glyph glyph-name="ncommaaccent" unicode="&#x146;" horiz-adv-x="603" 
d="M247 -337l-20 39q91 41 100 105l-6 3q-11 -11 -31 -11q-22 0 -37.5 16.5t-15.5 42.5q0 29 20 50t50 21q37 0 58.5 -25t21.5 -67q0 -117 -140 -174zM33 0v74h70v315h-70v74h182v-119q68 126 171 126q63 0 97 -41t34 -111v-244h71v-74h-249v74h62v216q0 51 -24 75
q-18 19 -51 19q-41 0 -73.5 -37t-32.5 -96v-177h61v-74h-248z" />
    <glyph glyph-name="Ncaron" unicode="&#x147;" horiz-adv-x="790" 
d="M372 743l-116 189h65l81 -90l80 90h65l-117 -189h-58zM561 -13l-345 528h-9v-440h98v-75h-273v75h94v508h-94v75h245l308 -472h9v397h-98v75h273v-75h-94v-596h-114z" />
    <glyph glyph-name="ncaron" unicode="&#x148;" horiz-adv-x="603" 
d="M287 541l-116 189h65l81 -90l80 90h65l-117 -189h-58zM33 0v74h70v315h-70v74h182v-119q68 126 171 126q63 0 97 -41t34 -111v-244h71v-74h-249v74h62v216q0 51 -24 75q-18 19 -51 19q-41 0 -73.5 -37t-32.5 -96v-177h61v-74h-248z" />
    <glyph glyph-name="Omacron" unicode="&#x14c;" 
d="M231 748v84h271v-84h-271zM366 -16q-141 0 -235 96.5t-94 247.5q0 149 95.5 247.5t233.5 98.5q141 0 235 -96.5t94 -247.5q0 -149 -95.5 -247.5t-233.5 -98.5zM367 57q90 0 136.5 69t46.5 203q0 133 -47.5 202.5t-137.5 69.5t-136.5 -69.5t-46.5 -202.5t47.5 -202.5
t137.5 -69.5z" />
    <glyph glyph-name="omacron" unicode="&#x14d;" horiz-adv-x="543" 
d="M136 546v84h271v-84h-271zM272 -10q-109 0 -174 66t-65 173q0 106 67 174t172 68q108 0 173.5 -65.5t65.5 -172.5t-67 -175t-172 -68zM276 50q107 0 107 181q0 180 -115 180q-55 0 -81 -43t-26 -137q0 -181 115 -181z" />
    <glyph glyph-name="Obreve" unicode="&#x14e;" 
d="M366 -16q-141 0 -235 96.5t-94 247.5q0 149 95.5 247.5t233.5 98.5q141 0 235 -96.5t94 -247.5q0 -149 -95.5 -247.5t-233.5 -98.5zM367 57q90 0 136.5 69t46.5 203q0 133 -47.5 202.5t-137.5 69.5t-136.5 -69.5t-46.5 -202.5t47.5 -202.5t137.5 -69.5zM366 739
q-67 0 -105.5 43.5t-40.5 124.5h53q22 -86 94 -86q70 0 92 86h53q-1 -81 -40 -124.5t-106 -43.5z" />
    <glyph glyph-name="obreve" unicode="&#x14f;" horiz-adv-x="543" 
d="M272 -10q-109 0 -174 66t-65 173q0 106 67 174t172 68q108 0 173.5 -65.5t65.5 -172.5t-67 -175t-172 -68zM276 50q107 0 107 181q0 180 -115 180q-55 0 -81 -43t-26 -137q0 -181 115 -181zM271 537q-67 0 -105.5 43.5t-40.5 124.5h53q22 -86 94 -86q70 0 92 86h53
q-1 -81 -40 -124.5t-106 -43.5z" />
    <glyph glyph-name="Ohungarumlaut" unicode="&#x150;" 
d="M418 736l50 121q18 43 35.5 63.5t43.5 20.5q20 0 34 -13.5t14 -33.5q0 -31 -49 -83l-71 -75h-57zM257 736l48 121q17 44 34 64t43 20q21 0 35 -14t14 -33q0 -33 -47 -83l-70 -75h-57zM366 -16q-141 0 -235 96.5t-94 247.5q0 149 95.5 247.5t233.5 98.5q141 0 235 -96.5
t94 -247.5q0 -149 -95.5 -247.5t-233.5 -98.5zM367 57q90 0 136.5 69t46.5 203q0 133 -47.5 202.5t-137.5 69.5t-136.5 -69.5t-46.5 -202.5t47.5 -202.5t137.5 -69.5z" />
    <glyph glyph-name="ohungarumlaut" unicode="&#x151;" horiz-adv-x="543" 
d="M323 534l50 121q18 43 35.5 63.5t43.5 20.5q20 0 34 -13.5t14 -33.5q0 -31 -49 -83l-71 -75h-57zM162 534l48 121q17 44 34 64t43 20q21 0 35 -14t14 -33q0 -33 -47 -83l-70 -75h-57zM272 -10q-109 0 -174 66t-65 173q0 106 67 174t172 68q108 0 173.5 -65.5t65.5 -172.5
t-67 -175t-172 -68zM276 50q107 0 107 181q0 180 -115 180q-55 0 -81 -43t-26 -137q0 -181 115 -181z" />
    <glyph glyph-name="OE" unicode="&#x152;" horiz-adv-x="1035" 
d="M418 0q-186 0 -283.5 87t-97.5 235q0 149 94.5 242.5t279.5 93.5h563v-223h-64q-25 96 -45.5 122.5t-78.5 26.5h-182v-214h63q49 0 63.5 15.5t26.5 81.5h64v-264h-64q-10 66 -25 82.5t-65 16.5h-63v-228h178q29 0 47.5 5.5t31.5 14t23 32.5t17 47.5t18 71.5h64v-245h-565
zM415 74h60v510h-69q-120 0 -172 -59.5t-52 -202.5q0 -131 55 -189.5t178 -58.5z" />
    <glyph glyph-name="oe" unicode="&#x153;" horiz-adv-x="854" 
d="M822 220h-318q4 -83 37 -121t97 -38q85 0 120 83h60q-17 -74 -68.5 -114t-131.5 -40q-118 0 -176 86q-63 -86 -172 -86q-107 0 -172 66t-65 173q0 106 66.5 174t170.5 68q120 0 177 -87q62 87 170 87q102 0 155 -72t50 -179zM276 50q107 0 107 181q0 180 -115 180
q-55 0 -81 -43t-26 -137q0 -181 115 -181zM609 412q-93 0 -104 -139h200q-9 139 -96 139z" />
    <glyph glyph-name="Racute" unicode="&#x154;" horiz-adv-x="704" 
d="M321 736l47 121q16 44 33 64t43 20q21 0 36 -14.5t15 -34.5q0 -32 -48 -81l-69 -75h-57zM259 288v-213h102v-75h-333v75h102v508h-102v75h340q138 0 198.5 -48.5t60.5 -120.5q0 -61 -42.5 -104.5t-139.5 -56.5v-8q79 -13 113 -48.5t38 -94.5l4 -59q4 -48 30 -48
q22 0 43 50l50 -20q-34 -112 -127 -112q-129 0 -132 137l-1 61q-1 56 -21.5 79t-81.5 23h-101zM259 358h98q69 0 98.5 29t29.5 90q0 55 -26.5 81t-92.5 26h-107v-226z" />
    <glyph glyph-name="racute" unicode="&#x155;" horiz-adv-x="447" 
d="M206 534l47 121q16 44 33 64t43 20q21 0 36 -14.5t15 -34.5q0 -32 -48 -81l-69 -75h-57zM33 0v74h70v315h-70v74h182v-113q18 58 56.5 89t83.5 31q39 0 62.5 -24.5t23.5 -59.5q0 -31 -19.5 -52.5t-48.5 -21.5q-30 0 -49.5 17t-19.5 47q0 5 2 13q-27 0 -50 -27.5
t-36 -72.5v-215h87v-74h-274z" />
    <glyph glyph-name="Rcommaaccent" unicode="&#x156;" horiz-adv-x="704" 
d="M302 -337l-20 39q91 41 100 105l-6 3q-11 -11 -31 -11q-22 0 -37.5 16.5t-15.5 42.5q0 29 20 50t50 21q37 0 58.5 -25t21.5 -67q0 -117 -140 -174zM259 288v-213h102v-75h-333v75h102v508h-102v75h340q138 0 198.5 -48.5t60.5 -120.5q0 -61 -42.5 -104.5t-139.5 -56.5v-8
q79 -13 113 -48.5t38 -94.5l4 -59q4 -48 30 -48q22 0 43 50l50 -20q-34 -112 -127 -112q-129 0 -132 137l-1 61q-1 56 -21.5 79t-81.5 23h-101zM259 358h98q69 0 98.5 29t29.5 90q0 55 -26.5 81t-92.5 26h-107v-226z" />
    <glyph glyph-name="rcommaaccent" unicode="&#x157;" horiz-adv-x="447" 
d="M102 -337l-20 39q91 41 100 105l-6 3q-11 -11 -31 -11q-22 0 -37.5 16.5t-15.5 42.5q0 29 20 50t50 21q37 0 58.5 -25t21.5 -67q0 -117 -140 -174zM33 0v74h70v315h-70v74h182v-113q18 58 56.5 89t83.5 31q39 0 62.5 -24.5t23.5 -59.5q0 -31 -19.5 -52.5t-48.5 -21.5
q-30 0 -49.5 17t-19.5 47q0 5 2 13q-27 0 -50 -27.5t-36 -72.5v-215h87v-74h-274z" />
    <glyph glyph-name="Rcaron" unicode="&#x158;" horiz-adv-x="704" 
d="M330 743l-116 189h65l81 -90l80 90h65l-117 -189h-58zM259 288v-213h102v-75h-333v75h102v508h-102v75h340q138 0 198.5 -48.5t60.5 -120.5q0 -61 -42.5 -104.5t-139.5 -56.5v-8q79 -13 113 -48.5t38 -94.5l4 -59q4 -48 30 -48q22 0 43 50l50 -20q-34 -112 -127 -112
q-129 0 -132 137l-1 61q-1 56 -21.5 79t-81.5 23h-101zM259 358h98q69 0 98.5 29t29.5 90q0 55 -26.5 81t-92.5 26h-107v-226z" />
    <glyph glyph-name="rcaron" unicode="&#x159;" horiz-adv-x="447" 
d="M215 541l-116 189h65l81 -90l80 90h65l-117 -189h-58zM33 0v74h70v315h-70v74h182v-113q18 58 56.5 89t83.5 31q39 0 62.5 -24.5t23.5 -59.5q0 -31 -19.5 -52.5t-48.5 -21.5q-30 0 -49.5 17t-19.5 47q0 5 2 13q-27 0 -50 -27.5t-36 -72.5v-215h87v-74h-274z" />
    <glyph glyph-name="Sacute" unicode="&#x15a;" horiz-adv-x="599" 
d="M266 736l47 121q16 44 33 64t43 20q21 0 36 -14.5t15 -34.5q0 -32 -48 -81l-69 -75h-57zM49 -13v240h72q47 -96 92 -134t117 -38q56 0 87.5 26.5t31.5 73.5q0 21 -10 37.5t-21.5 27t-40 21t-44.5 15.5t-55 15q-50 13 -81 25t-67.5 34.5t-54.5 58.5t-18 86q0 83 62 141
t156 58q48 0 93 -19t71 -52l21 68h75v-230h-72q-38 89 -81.5 125.5t-104.5 36.5q-48 0 -75.5 -26t-27.5 -67q0 -23 10.5 -41t22.5 -28.5t41.5 -21.5t45 -15.5t56.5 -14.5q39 -9 63.5 -16.5t56.5 -23t50.5 -34.5t32 -50t13.5 -71q0 -90 -65.5 -150t-165.5 -60q-58 0 -108 20
t-79 55l-23 -72h-76z" />
    <glyph glyph-name="sacute" unicode="&#x15b;" horiz-adv-x="460" 
d="M194 534l47 121q16 44 33 64t43 20q21 0 36 -14.5t15 -34.5q0 -32 -48 -81l-69 -75h-57zM41 -9v173h68q23 -52 63.5 -84t85.5 -32q70 0 70 56q0 28 -25.5 45t-94.5 35q-85 23 -122.5 55.5t-37.5 89.5q0 60 45.5 101t118.5 41q82 0 121 -54l12 54h67v-159h-67
q-28 51 -57.5 77t-70.5 26q-28 0 -46.5 -14t-18.5 -39q0 -27 25.5 -43.5t90.5 -33.5q85 -23 124 -54.5t39 -91.5q0 -59 -46.5 -104t-123.5 -45q-89 0 -141 63l-13 -62h-66z" />
    <glyph glyph-name="Scedilla" unicode="&#x15e;" horiz-adv-x="599" 
d="M290 -246q-66 0 -118 33l26 41q36 -20 77 -20q51 0 51 33q0 17 -19.5 28t-52.5 11q-20 0 -31 -3l-19 30l84 81q-93 14 -140 71l-23 -72h-76v240h72q47 -96 92 -134t117 -38q56 0 87.5 26.5t31.5 73.5q0 21 -10 37.5t-21.5 27t-40 21t-44.5 15.5t-55 15q-50 13 -81 25
t-67.5 34.5t-54.5 58.5t-18 86q0 83 62 141t156 58q48 0 93 -19t71 -52l21 68h75v-230h-72q-38 89 -81.5 125.5t-104.5 36.5q-48 0 -75.5 -26t-27.5 -67q0 -23 10.5 -41t22.5 -28.5t41.5 -21.5t45 -15.5t56.5 -14.5q39 -9 63.5 -16.5t56.5 -23t50.5 -34.5t32 -50t13.5 -71
q0 -87 -61.5 -146.5t-156.5 -63.5l-46 -46l2 -4q52 -5 79 -28t27 -57q0 -44 -32.5 -69.5t-87.5 -25.5z" />
    <glyph glyph-name="scedilla" unicode="&#x15f;" horiz-adv-x="460" 
d="M219 -246q-66 0 -118 33l26 41q36 -20 77 -20q51 0 51 33q0 17 -19.5 28t-52.5 11q-20 0 -31 -3l-19 30l90 87q-65 12 -103 59l-13 -62h-66v173h68q23 -52 63.5 -84t85.5 -32q70 0 70 56q0 28 -25.5 45t-94.5 35q-85 23 -122.5 55.5t-37.5 89.5q0 60 45.5 101t118.5 41
q82 0 121 -54l12 54h67v-159h-67q-28 51 -57.5 77t-70.5 26q-28 0 -46.5 -14t-18.5 -39q0 -27 25.5 -43.5t90.5 -33.5q85 -23 124 -54.5t39 -91.5q0 -54 -40 -97.5t-107 -50.5l-53 -53l2 -4q52 -5 79 -28t27 -57q0 -44 -32.5 -69.5t-87.5 -25.5z" />
    <glyph glyph-name="Scaron" unicode="&#x160;" horiz-adv-x="599" 
d="M275 743l-116 189h65l81 -90l80 90h65l-117 -189h-58zM49 -13v240h72q47 -96 92 -134t117 -38q56 0 87.5 26.5t31.5 73.5q0 21 -10 37.5t-21.5 27t-40 21t-44.5 15.5t-55 15q-50 13 -81 25t-67.5 34.5t-54.5 58.5t-18 86q0 83 62 141t156 58q48 0 93 -19t71 -52l21 68h75
v-230h-72q-38 89 -81.5 125.5t-104.5 36.5q-48 0 -75.5 -26t-27.5 -67q0 -23 10.5 -41t22.5 -28.5t41.5 -21.5t45 -15.5t56.5 -14.5q39 -9 63.5 -16.5t56.5 -23t50.5 -34.5t32 -50t13.5 -71q0 -90 -65.5 -150t-165.5 -60q-58 0 -108 20t-79 55l-23 -72h-76z" />
    <glyph glyph-name="scaron" unicode="&#x161;" horiz-adv-x="460" 
d="M203 541l-116 189h65l81 -90l80 90h65l-117 -189h-58zM41 -9v173h68q23 -52 63.5 -84t85.5 -32q70 0 70 56q0 28 -25.5 45t-94.5 35q-85 23 -122.5 55.5t-37.5 89.5q0 60 45.5 101t118.5 41q82 0 121 -54l12 54h67v-159h-67q-28 51 -57.5 77t-70.5 26q-28 0 -46.5 -14
t-18.5 -39q0 -27 25.5 -43.5t90.5 -33.5q85 -23 124 -54.5t39 -91.5q0 -59 -46.5 -104t-123.5 -45q-89 0 -141 63l-13 -62h-66z" />
    <glyph glyph-name="Tcommaaccent" unicode="&#x162;" horiz-adv-x="686" 
d="M277 -337l-20 39q91 41 100 105l-6 3q-11 -11 -31 -11q-22 0 -37.5 16.5t-15.5 42.5q0 29 20 50t50 21q37 0 58.5 -25t21.5 -67q0 -117 -140 -174zM168 0v75h111v519h-36q-63 0 -88 -32.5t-59 -150.5h-61v247h616v-247h-61q-34 118 -59 150.5t-88 32.5h-36v-519h111v-75
h-350z" />
    <glyph glyph-name="tcommaaccent" unicode="&#x163;" horiz-adv-x="384" 
d="M142 -337l-20 39q91 41 100 105l-6 3q-11 -11 -31 -11q-22 0 -37.5 16.5t-15.5 42.5q0 29 20 50t50 21q37 0 58.5 -25t21.5 -67q0 -117 -140 -174zM94 570l115 13v-125h150v-69h-150v-256q0 -34 12 -50.5t40 -16.5q21 0 36.5 19.5t30.5 63.5l51 -18q-34 -141 -152 -141
q-67 0 -101 36t-34 103v260h-87v69h89v112z" />
    <glyph glyph-name="Tcaron" unicode="&#x164;" horiz-adv-x="686" 
d="M316 743l-116 189h65l81 -90l80 90h65l-117 -189h-58zM168 0v75h111v519h-36q-63 0 -88 -32.5t-59 -150.5h-61v247h616v-247h-61q-34 118 -59 150.5t-88 32.5h-36v-519h111v-75h-350z" />
    <glyph glyph-name="tcaron" unicode="&#x165;" horiz-adv-x="384" 
d="M326 525h-46q-6 84 -6 152q-1 87 56 87q22 0 36 -15t14 -40q0 -21 -18 -75zM94 570l115 13v-125h150v-69h-150v-256q0 -34 12 -50.5t40 -16.5q21 0 36.5 19.5t30.5 63.5l51 -18q-34 -141 -152 -141q-67 0 -101 36t-34 103v260h-87v69h89v112z" />
    <glyph glyph-name="Umacron" unicode="&#x16a;" horiz-adv-x="752" 
d="M381 -16q-132 0 -201.5 61t-69.5 166v372h-92v75h316v-75h-95v-344q0 -91 42.5 -131t129.5 -40q70 0 113 43q41 41 41 150v322h-97v75h268v-75h-89v-370q0 -97 -69.5 -163t-196.5 -66zM260 748v84h271v-84h-271z" />
    <glyph glyph-name="umacron" unicode="&#x16b;" horiz-adv-x="588" 
d="M217 -8q-63 0 -96 41t-33 112v244h-70v74h187v-290q0 -55 23 -77q17 -17 48 -17q41 0 73.5 37t32.5 95v178h-72v74h189v-389h71v-74h-183v119q-67 -127 -170 -127zM149 546v84h271v-84h-271z" />
    <glyph glyph-name="Ubreve" unicode="&#x16c;" horiz-adv-x="752" 
d="M381 -16q-132 0 -201.5 61t-69.5 166v372h-92v75h316v-75h-95v-344q0 -91 42.5 -131t129.5 -40q70 0 113 43q41 41 41 150v322h-97v75h268v-75h-89v-370q0 -97 -69.5 -163t-196.5 -66zM395 739q-67 0 -105.5 43.5t-40.5 124.5h53q22 -86 94 -86q70 0 92 86h53
q-1 -81 -40 -124.5t-106 -43.5z" />
    <glyph glyph-name="ubreve" unicode="&#x16d;" horiz-adv-x="588" 
d="M217 -8q-63 0 -96 41t-33 112v244h-70v74h187v-290q0 -55 23 -77q17 -17 48 -17q41 0 73.5 37t32.5 95v178h-72v74h189v-389h71v-74h-183v119q-67 -127 -170 -127zM284 537q-67 0 -105.5 43.5t-40.5 124.5h53q22 -86 94 -86q70 0 92 86h53q-1 -81 -40 -124.5t-106 -43.5z
" />
    <glyph glyph-name="Uring" unicode="&#x16e;" horiz-adv-x="752" 
d="M395 730q-55 0 -85.5 31t-30.5 77t31 77t85 31t85 -31t31 -77t-31.5 -77t-84.5 -31zM395 772q25 0 39.5 18t14.5 48t-14.5 48.5t-39.5 18.5t-39.5 -18.5t-14.5 -48.5t15 -48t39 -18zM381 -16q-132 0 -201.5 61t-69.5 166v372h-92v75h316v-75h-95v-344q0 -91 42.5 -131
t129.5 -40q70 0 113 43q41 41 41 150v322h-97v75h268v-75h-89v-370q0 -97 -69.5 -163t-196.5 -66z" />
    <glyph glyph-name="uring" unicode="&#x16f;" horiz-adv-x="588" 
d="M284 528q-55 0 -85.5 31t-30.5 77t31 77t85 31t85 -31t31 -77t-31 -77t-85 -31zM284 570q25 0 39.5 18t14.5 48t-14.5 48.5t-39.5 18.5t-39.5 -18.5t-14.5 -48.5t15 -48t39 -18zM217 -8q-63 0 -96 41t-33 112v244h-70v74h187v-290q0 -55 23 -77q17 -17 48 -17
q41 0 73.5 37t32.5 95v178h-72v74h189v-389h71v-74h-183v119q-67 -127 -170 -127z" />
    <glyph glyph-name="Uhungarumlaut" unicode="&#x170;" horiz-adv-x="752" 
d="M381 -16q-132 0 -201.5 61t-69.5 166v372h-92v75h316v-75h-95v-344q0 -91 42.5 -131t129.5 -40q70 0 113 43q41 41 41 150v322h-97v75h268v-75h-89v-370q0 -97 -69.5 -163t-196.5 -66zM447 736l50 121q18 43 35.5 63.5t43.5 20.5q20 0 34 -13.5t14 -33.5q0 -31 -49 -83
l-71 -75h-57zM286 736l48 121q17 44 34 64t43 20q21 0 35 -14t14 -33q0 -33 -47 -83l-70 -75h-57z" />
    <glyph glyph-name="uhungarumlaut" unicode="&#x171;" horiz-adv-x="588" 
d="M217 -8q-63 0 -96 41t-33 112v244h-70v74h187v-290q0 -55 23 -77q17 -17 48 -17q41 0 73.5 37t32.5 95v178h-72v74h189v-389h71v-74h-183v119q-67 -127 -170 -127zM336 534l50 121q18 43 35.5 63.5t43.5 20.5q20 0 34 -13.5t14 -33.5q0 -31 -49 -83l-71 -75h-57zM175 534
l48 121q17 44 34 64t43 20q21 0 35 -14t14 -33q0 -33 -47 -83l-70 -75h-57z" />
    <glyph glyph-name="Uogonek" unicode="&#x172;" horiz-adv-x="752" 
d="M378 -246q-54 0 -83.5 26t-29.5 69q0 36 21 67t68 69q-119 6 -181.5 66t-62.5 160v372h-92v75h316v-75h-95v-344q0 -91 42.5 -131t129.5 -40q70 0 113 43q41 41 41 150v322h-97v75h268v-75h-89v-370q0 -86 -55.5 -149t-158.5 -76q-75 -74 -75 -121q0 -24 14.5 -37
t37.5 -13q26 0 58 20l22 -42q-55 -41 -112 -41z" />
    <glyph glyph-name="uogonek" unicode="&#x173;" horiz-adv-x="588" 
d="M217 -8q-63 0 -96 41t-33 112v244h-70v74h187v-290q0 -55 23 -77q17 -17 48 -17q41 0 73.5 37t32.5 95v178h-72v74h189v-389h71v-74h-37l-12 -12q-76 -74 -76 -121q0 -24 14.5 -37t37.5 -13q26 0 58 20l22 -42q-55 -41 -112 -41q-54 0 -83.5 26t-29.5 69q0 37 22.5 68.5
t73.5 72.5l12 10h-73v119q-67 -127 -170 -127z" />
    <glyph glyph-name="Wcircumflex" unicode="&#x174;" horiz-adv-x="1024" 
d="M711 584h-104l122 -450h8l133 450h-83v74h241v-75h-72l-190 -587h-126l-113 399l-140 -399h-125l-180 587h-88v75h323v-74h-94l130 -451h8l131 378l-21 73h-84v74h324v-74zM396 737l117 189h58l116 -189h-65l-81 90l-80 -90h-65z" />
    <glyph glyph-name="wcircumflex" unicode="&#x175;" horiz-adv-x="800" 
d="M550 390h-75l95 -296h4l88 296h-60v73h197v-74h-59l-131 -394h-117l-84 251l-97 -251h-115l-129 394h-63v74h251v-73h-68l90 -297h4l94 248l-16 49h-59v73h250v-73zM274 535l117 189h58l116 -189h-65l-81 90l-80 -90h-65z" />
    <glyph glyph-name="Ycircumflex" unicode="&#x176;" horiz-adv-x="660" 
d="M365 345l138 239h-81v74h241v-75h-75l-191 -308v-200h96v-75h-319v75h94v195l-185 313h-76v75h309v-74h-83zM209 737l117 189h58l116 -189h-65l-81 90l-80 -90h-65z" />
    <glyph glyph-name="ycircumflex" unicode="&#x177;" horiz-adv-x="530" 
d="M81 -7q30 0 48 -20t18 -47q0 -18 -8 -34q32 6 53 27.5t43 78.5l-172 391h-63v74h264v-74h-75l106 -269l106 269h-62v74h197v-74h-58l-159 -377q-41 -97 -87 -139.5t-111 -42.5q-51 0 -80.5 24.5t-29.5 65.5q0 30 20 51.5t50 21.5zM137 535l117 189h58l116 -189h-65
l-81 90l-80 -90h-65z" />
    <glyph glyph-name="Ydieresis" unicode="&#x178;" horiz-adv-x="660" 
d="M365 345l138 239h-81v74h241v-75h-75l-191 -308v-200h96v-75h-319v75h94v195l-185 313h-76v75h309v-74h-83zM451 750q-29 0 -48 19.5t-19 47.5q0 30 19 50t48 20t48 -19.5t19 -48.5t-19 -49t-48 -20zM261 750q-29 0 -48 19.5t-19 47.5q0 30 19 50t48 20t47.5 -19.5
t18.5 -48.5t-19 -49t-47 -20z" />
    <glyph glyph-name="Zacute" unicode="&#x179;" horiz-adv-x="640" 
d="M291 736l47 121q16 44 33 64t43 20q21 0 36 -14.5t15 -34.5q0 -32 -48 -81l-69 -75h-57zM36 0v63l406 521h-183q-43 0 -63.5 -10.5t-38.5 -45.5t-42 -119h-61v249h544v-63l-405 -521h204q43 0 64 12.5t37.5 48t41.5 121.5h61v-256h-565z" />
    <glyph glyph-name="zacute" unicode="&#x17a;" horiz-adv-x="479" 
d="M217 534l47 121q16 44 33 64t43 20q21 0 36 -14.5t15 -34.5q0 -32 -48 -81l-69 -75h-57zM35 0v60l280 342h-102q-51 0 -70.5 -20t-41.5 -96h-54v177h401v-60l-281 -343h122q49 0 67.5 22t39.5 104h54v-186h-415z" />
    <glyph glyph-name="Zdotaccent" unicode="&#x17b;" horiz-adv-x="640" 
d="M36 0v63l406 521h-183q-43 0 -63.5 -10.5t-38.5 -45.5t-42 -119h-61v249h544v-63l-405 -521h204q43 0 64 12.5t37.5 48t41.5 121.5h61v-256h-565zM328 737q-33 0 -52.5 19.5t-19.5 50.5q0 30 20.5 51t51.5 21q32 0 51.5 -20t19.5 -51q0 -30 -20.5 -50.5t-50.5 -20.5z" />
    <glyph glyph-name="zdotaccent" unicode="&#x17c;" horiz-adv-x="479" 
d="M35 0v60l280 342h-102q-51 0 -70.5 -20t-41.5 -96h-54v177h401v-60l-281 -343h122q49 0 67.5 22t39.5 104h54v-186h-415zM253 535q-33 0 -52.5 19.5t-19.5 50.5q0 30 20.5 51t51.5 21q32 0 51.5 -20t19.5 -51q0 -30 -20.5 -50.5t-50.5 -20.5z" />
    <glyph glyph-name="Zcaron" unicode="&#x17d;" horiz-adv-x="640" 
d="M300 743l-116 189h65l81 -90l80 90h65l-117 -189h-58zM36 0v63l406 521h-183q-43 0 -63.5 -10.5t-38.5 -45.5t-42 -119h-61v249h544v-63l-405 -521h204q43 0 64 12.5t37.5 48t41.5 121.5h61v-256h-565z" />
    <glyph glyph-name="zcaron" unicode="&#x17e;" horiz-adv-x="479" 
d="M226 541l-116 189h65l81 -90l80 90h65l-117 -189h-58zM35 0v60l280 342h-102q-51 0 -70.5 -20t-41.5 -96h-54v177h401v-60l-281 -343h122q49 0 67.5 22t39.5 104h54v-186h-415z" />
    <glyph glyph-name="Aringacute" unicode="&#x1fa;" horiz-adv-x="698" 
d="M202 222l-53 -147h83v-75h-241v75h72l221 587q-51 26 -51 90q0 46 30.5 77t84.5 31t85 -31t31 -77q0 -63 -52 -90l213 -587h86v-75h-325v75h98l-50 147h-232zM411 289l-89 259h-4l-93 -259h186zM306 901l47 121q16 44 33 64t43 20q21 0 36 -14.5t15 -34.5q0 -32 -48 -81
l-69 -75h-57zM349 686q24 0 39 19t15 47q0 31 -14.5 49t-40.5 18q-25 0 -39.5 -18t-14.5 -49q0 -28 15.5 -47t39.5 -19z" />
    <glyph glyph-name="aringacute" unicode="&#x1fb;" horiz-adv-x="516" 
d="M175 -7q-63 0 -100.5 33.5t-37.5 87.5q0 49 34 83q25 25 65 38.5t116 24.5q45 6 55 9.5t10 14.5v45q0 44 -21 63t-67 19q-40 0 -70 -17q27 -15 27 -50q0 -25 -17.5 -41.5t-46.5 -16.5q-31 0 -49 19t-18 45q0 56 58.5 88.5t143.5 32.5q176 0 176 -150v-224q0 -31 28 -31
q21 0 34 41l41 -19q-31 -93 -112 -93q-39 0 -65 22t-28 66h-5q-20 -43 -61 -66.5t-90 -23.5zM229 66q34 0 61 28t27 69v65q-10 -4 -45 -10q-66 -11 -89 -27.5t-23 -55.5q0 -32 17 -50.5t52 -18.5zM218 784l47 121q16 44 33 64t43 20q21 0 36 -14.5t15 -34.5q0 -32 -48 -81
l-69 -75h-57zM255 528q-55 0 -85.5 31t-30.5 77t31 77t85 31t85 -31t31 -77t-31.5 -77t-84.5 -31zM255 570q25 0 39.5 18t14.5 48t-14.5 48.5t-39.5 18.5t-39.5 -18.5t-14.5 -48.5t15 -48t39 -18z" />
    <glyph glyph-name="AEacute" unicode="&#x1fc;" horiz-adv-x="1019" 
d="M512 736l47 121q16 44 33 64t43 20q21 0 36 -14.5t15 -34.5q0 -32 -48 -81l-69 -75h-57zM459 299v282h-10l-171 -282h181zM236 232l-95 -158h84v-74h-252v75h76l316 508h-96v75h689v-223h-65q-24 95 -45 122t-79 27h-182v-214h63q49 0 63.5 15.5t26.5 81.5h64v-264h-64
q-10 66 -25 82.5t-65 16.5h-63v-228h178q36 0 56.5 6t35.5 29t23.5 50t21.5 86h65v-245h-610v75h102v157h-223z" />
    <glyph glyph-name="aeacute" unicode="&#x1fd;" horiz-adv-x="776" 
d="M744 220h-313q2 -83 34.5 -121t96.5 -38q83 0 118 83h61q-38 -154 -203 -154q-144 0 -193 110q-26 -53 -71 -80t-96 -27q-65 0 -103 33.5t-38 87.5q0 49 34 83q25 25 65 38.5t116 24.5q45 6 55 9.5t10 14.5v45q0 44 -21 63t-67 19q-40 0 -70 -17q27 -15 27 -50
q0 -25 -17.5 -41.5t-46.5 -16.5q-31 0 -49 19t-18 45q0 56 58 88.5t141 32.5q104 0 140 -61q53 61 146 61q101 0 154.5 -72.5t49.5 -178.5zM532 412q-45 0 -70 -32.5t-30 -106.5h196q-9 139 -96 139zM229 66q34 0 61 28t27 69v65q-10 -4 -45 -10q-66 -11 -89 -27.5
t-23 -55.5q0 -32 17 -50.5t52 -18.5zM371 534l47 121q16 44 33 64t43 20q21 0 36 -14.5t15 -34.5q0 -32 -48 -81l-69 -75h-57z" />
    <glyph glyph-name="Oslashacute" unicode="&#x1fe;" 
d="M139 -34h-91l85 113q-96 98 -96 249q0 149 95.5 247.5t232.5 98.5q98 0 179 -51l49 69h91l-85 -113q96 -98 96 -249q0 -149 -95.5 -247.5t-231.5 -98.5q-100 0 -180 51zM367 56q91 0 137.5 69.5t46.5 203.5q0 95 -25 161l-282 -386q46 -48 123 -48zM181 329
q0 -100 25 -162l281 386q-45 49 -122 49q-91 0 -137.5 -69.5t-46.5 -203.5zM330 736l47 121q16 44 33 64t43 20q21 0 36 -14.5t15 -34.5q0 -32 -48 -81l-69 -75h-57z" />
    <glyph glyph-name="oslashacute" unicode="&#x1ff;" horiz-adv-x="543" 
d="M102 -28h-73l68 86q-64 66 -64 172t67 173.5t172 67.5q73 0 130 -33l39 51h74l-69 -86q65 -67 65 -171q0 -106 -67 -174t-171 -68q-76 0 -131 32zM157 231q0 -55 9 -92l185 238q-27 36 -83 36q-111 0 -111 -182zM276 49q110 0 110 182q0 55 -10 91l-184 -238
q29 -35 84 -35zM235 534l47 121q16 44 33 64t43 20q21 0 36 -14.5t15 -34.5q0 -32 -48 -81l-69 -75h-57z" />
    <glyph glyph-name="Scommaaccent" unicode="&#x218;" horiz-adv-x="599" 
d="M237 -337l-20 39q91 41 100 105l-6 3q-11 -11 -31 -11q-22 0 -37.5 16.5t-15.5 42.5q0 29 20 50t50 21q37 0 58.5 -25t21.5 -67q0 -117 -140 -174zM49 -13v240h72q47 -96 92 -134t117 -38q56 0 87.5 26.5t31.5 73.5q0 21 -10 37.5t-21.5 27t-40 21t-44.5 15.5t-55 15
q-50 13 -81 25t-67.5 34.5t-54.5 58.5t-18 86q0 83 62 141t156 58q48 0 93 -19t71 -52l21 68h75v-230h-72q-38 89 -81.5 125.5t-104.5 36.5q-48 0 -75.5 -26t-27.5 -67q0 -23 10.5 -41t22.5 -28.5t41.5 -21.5t45 -15.5t56.5 -14.5q39 -9 63.5 -16.5t56.5 -23t50.5 -34.5
t32 -50t13.5 -71q0 -90 -65.5 -150t-165.5 -60q-58 0 -108 20t-79 55l-23 -72h-76z" />
    <glyph glyph-name="scommaaccent" unicode="&#x219;" horiz-adv-x="460" 
d="M165 -337l-20 39q91 41 100 105l-6 3q-11 -11 -31 -11q-22 0 -37.5 16.5t-15.5 42.5q0 29 20 50t50 21q37 0 58.5 -25t21.5 -67q0 -117 -140 -174zM41 -9v173h68q23 -52 63.5 -84t85.5 -32q70 0 70 56q0 28 -25.5 45t-94.5 35q-85 23 -122.5 55.5t-37.5 89.5
q0 60 45.5 101t118.5 41q82 0 121 -54l12 54h67v-159h-67q-28 51 -57.5 77t-70.5 26q-28 0 -46.5 -14t-18.5 -39q0 -27 25.5 -43.5t90.5 -33.5q85 -23 124 -54.5t39 -91.5q0 -59 -46.5 -104t-123.5 -45q-89 0 -141 63l-13 -62h-66z" />
    <glyph glyph-name="schwa" unicode="&#x259;" horiz-adv-x="507" 
d="M239 -10q-104 0 -157.5 72t-49.5 179h317q-6 159 -134 159q-85 0 -120 -83h-60q36 154 206 154q107 0 169.5 -66t62.5 -170q0 -105 -66.5 -175t-167.5 -70zM245 49q92 0 102 139h-199q9 -139 97 -139z" />
    <glyph glyph-name="circumflex" unicode="&#x2c6;" horiz-adv-x="321" 
d="M15 535l117 189h58l116 -189h-65l-81 90l-80 -90h-65z" />
    <glyph glyph-name="caron" unicode="&#x2c7;" horiz-adv-x="321" 
d="M132 541l-116 189h65l81 -90l80 90h65l-117 -189h-58z" />
    <glyph glyph-name="breve" unicode="&#x2d8;" horiz-adv-x="346" 
d="M173 537q-67 0 -105.5 43.5t-40.5 124.5h53q22 -86 94 -86q70 0 92 86h53q-1 -81 -40 -124.5t-106 -43.5z" />
    <glyph glyph-name="dotaccent" unicode="&#x2d9;" horiz-adv-x="201" 
d="M101 535q-33 0 -52.5 19.5t-19.5 50.5q0 30 20.5 51t51.5 21q32 0 51.5 -20t19.5 -51q0 -30 -20.5 -50.5t-50.5 -20.5z" />
    <glyph glyph-name="ring" unicode="&#x2da;" horiz-adv-x="274" 
d="M137 528q-55 0 -85.5 31t-30.5 77t31 77t85 31t85 -31t31 -77t-31.5 -77t-84.5 -31zM137 570q25 0 39.5 18t14.5 48t-14.5 48.5t-39.5 18.5t-39.5 -18.5t-14.5 -48.5t15 -48t39 -18z" />
    <glyph glyph-name="ogonek" unicode="&#x2db;" horiz-adv-x="283" 
d="M122 -246q-54 0 -83.5 26t-29.5 69q0 37 22.5 68.5t73.5 72.5l31 25h70l-28 -27q-76 -74 -76 -121q0 -24 14.5 -37t37.5 -13q26 0 58 20l22 -42q-55 -41 -112 -41z" />
    <glyph glyph-name="tilde" unicode="&#x2dc;" horiz-adv-x="361" 
d="M16 535q8 75 31.5 107.5t72.5 32.5q30 0 77 -24t59 -24q24 0 34 55h56q-8 -75 -31.5 -107.5t-72.5 -32.5q-30 0 -77 24t-59 24q-14 0 -21.5 -12.5t-12.5 -42.5h-56z" />
    <glyph glyph-name="hungarumlaut" unicode="&#x2dd;" horiz-adv-x="308" 
d="M145 534l50 121q18 43 35.5 63.5t43.5 20.5q20 0 34 -13.5t14 -33.5q0 -31 -49 -83l-71 -75h-57zM-16 534l48 121q17 44 34 64t43 20q21 0 35 -14t14 -33q0 -33 -47 -83l-70 -75h-57z" />
    <glyph glyph-name="commaaccent" unicode="&#x326;" horiz-adv-x="240" 
d="M52 -337l-20 39q91 41 100 105l-6 3q-11 -11 -31 -11q-22 0 -37.5 16.5t-15.5 42.5q0 29 20 50t50 21q37 0 58.5 -25t21.5 -67q0 -117 -140 -174z" />
    <glyph glyph-name="Wgrave" unicode="&#x1e80;" horiz-adv-x="1024" 
d="M711 584h-104l122 -450h8l133 450h-83v74h241v-75h-72l-190 -587h-126l-113 399l-140 -399h-125l-180 587h-88v75h323v-74h-94l130 -451h8l131 378l-21 73h-84v74h324v-74zM580 736h-57l-70 75q-47 50 -47 81q0 20 15 34.5t36 14.5q26 0 43 -20.5t33 -63.5z" />
    <glyph glyph-name="wgrave" unicode="&#x1e81;" horiz-adv-x="800" 
d="M550 390h-75l95 -296h4l88 296h-60v73h197v-74h-59l-131 -394h-117l-84 251l-97 -251h-115l-129 394h-63v74h251v-73h-68l90 -297h4l94 248l-16 49h-59v73h250v-73zM458 534h-57l-70 75q-47 50 -47 81q0 20 15 34.5t36 14.5q26 0 43 -20.5t33 -63.5z" />
    <glyph glyph-name="Wacute" unicode="&#x1e82;" horiz-adv-x="1024" 
d="M711 584h-104l122 -450h8l133 450h-83v74h241v-75h-72l-190 -587h-126l-113 399l-140 -399h-125l-180 587h-88v75h323v-74h-94l130 -451h8l131 378l-21 73h-84v74h324v-74zM506 736l47 121q16 44 33 64t43 20q21 0 36 -14.5t15 -34.5q0 -32 -48 -81l-69 -75h-57z" />
    <glyph glyph-name="wacute" unicode="&#x1e83;" horiz-adv-x="800" 
d="M550 390h-75l95 -296h4l88 296h-60v73h197v-74h-59l-131 -394h-117l-84 251l-97 -251h-115l-129 394h-63v74h251v-73h-68l90 -297h4l94 248l-16 49h-59v73h250v-73zM384 534l47 121q16 44 33 64t43 20q21 0 36 -14.5t15 -34.5q0 -32 -48 -81l-69 -75h-57z" />
    <glyph glyph-name="Wdieresis" unicode="&#x1e84;" horiz-adv-x="1024" 
d="M711 584h-104l122 -450h8l133 450h-83v74h241v-75h-72l-190 -587h-126l-113 399l-140 -399h-125l-180 587h-88v75h323v-74h-94l130 -451h8l131 378l-21 73h-84v74h324v-74zM638 750q-29 0 -48 19.5t-19 47.5q0 30 19 50t48 20t48 -19.5t19 -48.5t-19 -49t-48 -20z
M448 750q-29 0 -48 19.5t-19 47.5q0 30 19 50t48 20t47.5 -19.5t18.5 -48.5t-19 -49t-47 -20z" />
    <glyph glyph-name="wdieresis" unicode="&#x1e85;" horiz-adv-x="800" 
d="M550 390h-75l95 -296h4l88 296h-60v73h197v-74h-59l-131 -394h-117l-84 251l-97 -251h-115l-129 394h-63v74h251v-73h-68l90 -297h4l94 248l-16 49h-59v73h250v-73zM516 548q-29 0 -48 19.5t-19 47.5q0 30 19 50t48 20t48 -19.5t19 -48.5t-19 -49t-48 -20zM326 548
q-29 0 -48 19.5t-19 47.5q0 30 19 50t48 20t47.5 -19.5t18.5 -48.5t-19 -49t-47 -20z" />
    <glyph glyph-name="Ygrave" unicode="&#x1ef2;" horiz-adv-x="660" 
d="M365 345l138 239h-81v74h241v-75h-75l-191 -308v-200h96v-75h-319v75h94v195l-185 313h-76v75h309v-74h-83zM393 736h-57l-70 75q-47 50 -47 81q0 20 15 34.5t36 14.5q26 0 43 -20.5t33 -63.5z" />
    <glyph glyph-name="ygrave" unicode="&#x1ef3;" horiz-adv-x="530" 
d="M81 -7q30 0 48 -20t18 -47q0 -18 -8 -34q32 6 53 27.5t43 78.5l-172 391h-63v74h264v-74h-75l106 -269l106 269h-62v74h197v-74h-58l-159 -377q-41 -97 -87 -139.5t-111 -42.5q-51 0 -80.5 24.5t-29.5 65.5q0 30 20 51.5t50 21.5zM321 534h-57l-70 75q-47 50 -47 81
q0 20 15 34.5t36 14.5q26 0 43 -20.5t33 -63.5z" />
    <glyph glyph-name="enspace" unicode="&#x2002;" horiz-adv-x="500" 
 />
    <glyph glyph-name="emspace" unicode="&#x2003;" horiz-adv-x="1000" 
 />
    <glyph glyph-name="threeperemspace" unicode="&#x2004;" horiz-adv-x="333" 
 />
    <glyph glyph-name="fourperemspace" unicode="&#x2005;" horiz-adv-x="250" 
 />
    <glyph glyph-name="thinspace" unicode="&#x2009;" horiz-adv-x="133" 
 />
    <glyph glyph-name="hairspace" unicode="&#x200a;" horiz-adv-x="75" 
 />
    <glyph glyph-name="endash" unicode="&#x2013;" horiz-adv-x="535" 
d="M52 209v78h431v-78h-431z" />
    <glyph glyph-name="emdash" unicode="&#x2014;" horiz-adv-x="785" 
d="M52 209v78h681v-78h-681z" />
    <glyph glyph-name="quoteleft" unicode="&#x2018;" horiz-adv-x="242" 
d="M125 392q-38 0 -61.5 26.5t-23.5 70.5q0 128 168 194l21 -40q-113 -50 -126 -121l7 -3q12 12 32 12q23 0 39 -18t16 -45q0 -32 -20 -54t-52 -22z" />
    <glyph glyph-name="quoteright" unicode="&#x2019;" horiz-adv-x="242" 
d="M36 384l-20 40q113 49 126 120l-7 4q-13 -13 -32 -13q-24 0 -40 18t-16 45q0 31 20.5 53.5t52.5 22.5q38 0 61.5 -26.5t23.5 -70.5q0 -128 -169 -193z" />
    <glyph glyph-name="quotesinglbase" unicode="&#x201a;" horiz-adv-x="242" 
d="M36 -157l-20 40q113 49 126 120l-7 4q-13 -13 -32 -13q-24 0 -40 18t-16 45q0 31 20.5 53.5t52.5 22.5q38 0 61.5 -26.5t23.5 -70.5q0 -128 -169 -193z" />
    <glyph glyph-name="quotedblleft" unicode="&#x201c;" horiz-adv-x="446" 
d="M331 392q-38 0 -61.5 26.5t-23.5 70.5q0 128 168 194l21 -40q-113 -50 -126 -121l7 -3q12 12 32 12q23 0 39 -18t16 -45q0 -32 -20 -54t-52 -22zM124 392q-38 0 -61.5 26.5t-23.5 70.5q0 128 169 194l20 -40q-113 -51 -126 -121l7 -3q14 12 32 12q23 0 39 -18t16 -45
q0 -32 -20 -54t-52 -22z" />
    <glyph glyph-name="quotedblright" unicode="&#x201d;" horiz-adv-x="446" 
d="M243 384l-21 40q113 48 126 120l-6 4q-13 -13 -33 -13q-23 0 -39 18t-16 45q0 31 20.5 53.5t51.5 22.5q39 0 62 -26.5t23 -70.5q0 -128 -168 -193zM36 384l-20 40q113 49 126 120l-7 4q-13 -13 -32 -13q-24 0 -40 18t-16 45q0 31 20.5 53.5t52.5 22.5q38 0 61.5 -26.5
t23.5 -70.5q0 -128 -169 -193z" />
    <glyph glyph-name="quotedblbase" unicode="&#x201e;" horiz-adv-x="446" 
d="M243 -157l-21 40q113 48 126 120l-6 4q-13 -13 -33 -13q-23 0 -39 18t-16 45q0 31 20.5 53.5t51.5 22.5q39 0 62 -26.5t23 -70.5q0 -128 -168 -193zM36 -157l-20 40q113 49 126 120l-7 4q-13 -13 -32 -13q-24 0 -40 18t-16 45q0 31 20.5 53.5t52.5 22.5q38 0 61.5 -26.5
t23.5 -70.5q0 -128 -169 -193z" />
    <glyph glyph-name="dagger" unicode="&#x2020;" horiz-adv-x="527" 
d="M243 418q-78 27 -105 27q-10 0 -13 -1q7 -12 7 -29q0 -23 -15 -38.5t-39 -15.5q-22 0 -39 15t-17 40q0 32 25.5 55.5t70.5 23.5t124 -30l-38 174l8 21q17 43 52 43q34 0 51 -43l9 -21l-42 -189q78 -27 108 -27q9 0 12 1q-7 14 -7 29q0 22 15 38t39 16q22 0 39 -15t17 -41
q0 -32 -25 -55t-71 -23q-44 0 -122 29l27 -271v-149q0 -31 -19.5 -60t-30.5 -29q-12 0 -32 29t-20 60v149z" />
    <glyph glyph-name="daggerdbl" unicode="&#x2021;" horiz-adv-x="527" 
d="M241 468l-37 172l8 21q17 42 52 42q34 0 51 -42l9 -21l-42 -188q83 -27 108 -27q9 0 12 1q-7 16 -7 29q0 22 15 38t39 16q22 0 39 -15t17 -41q0 -32 -25 -55t-71 -23t-120 28l23 -117l-25 -112q72 -25 103 -25q9 0 12 1q-7 14 -7 29q0 22 15 38t39 16q22 0 39 -15t17 -41
q0 -32 -25.5 -55.5t-70.5 -23.5q-46 0 -123 30l38 -172l-9 -21q-17 -42 -51 -42q-35 0 -52 42l-8 21l41 187q-81 28 -107 28q-10 0 -13 -1q7 -12 7 -29q0 -23 -15 -38.5t-39 -15.5q-22 0 -39 15t-17 40q0 32 25.5 55.5t70.5 23.5q46 0 120 -28l-24 116l26 112
q-76 26 -102 26q-10 0 -13 -1q7 -12 7 -29q0 -22 -15 -38t-39 -16q-22 0 -39 15t-17 41q0 32 25 55t71 23q45 0 123 -29z" />
    <glyph glyph-name="bullet" unicode="&#x2022;" horiz-adv-x="490" 
d="M245 174q-61 0 -103.5 42.5t-42.5 103.5q0 60 42.5 103t103.5 43t103.5 -43t42.5 -103q0 -61 -42.5 -103.5t-103.5 -42.5z" />
    <glyph glyph-name="ellipsis" unicode="&#x2026;" horiz-adv-x="708" 
d="M588 -16q-32 0 -54 21.5t-22 51.5q0 31 22 53t54 22q31 0 53 -21.5t22 -52.5t-22 -52.5t-53 -21.5zM354 -16q-31 0 -53 21.5t-22 51.5q0 31 22 53t54 22q31 0 52.5 -21.5t21.5 -52.5t-22 -52.5t-53 -21.5zM121 -16q-32 0 -54 21.5t-22 51.5q0 31 22 53t54 22
q31 0 53 -21.5t22 -52.5t-22 -52.5t-53 -21.5z" />
    <glyph glyph-name="guilsinglleft" unicode="&#x2039;" horiz-adv-x="305" 
d="M148 228l114 -169l-37 -28l-166 155q-26 23 -26 40q0 15 26 40l166 154l37 -28z" />
    <glyph glyph-name="guilsinglright" unicode="&#x203a;" horiz-adv-x="305" 
d="M156 223l-114 169l37 28l166 -155q26 -23 26 -40q0 -15 -26 -40l-166 -154l-37 28z" />
    <glyph glyph-name="Euro" unicode="&#x20ac;" horiz-adv-x="657" 
d="M30 348v65h94q28 106 104.5 171.5t182.5 65.5q86 0 147.5 -43.5t61.5 -103.5q0 -34 -20 -58t-56 -24q-34 0 -54 20t-20 51q0 35 28 59q-26 31 -86 31q-133 0 -162 -169h172v-65h-178q-1 -12 -1 -37t1 -37h178v-64h-169q33 -143 157 -143q61 0 98 38t46 107h73
q-7 -100 -69 -164t-168 -64q-111 0 -179 61t-90 165h-91v64h82q-1 11 -1 34q0 14 2 40h-83z" />
    <glyph glyph-name="published" unicode="&#x2117;" horiz-adv-x="787" 
d="M393 -33q-155 0 -259 103.5t-104 258.5q0 154 104 258t259 104t259.5 -104t104.5 -258q0 -155 -104.5 -258.5t-259.5 -103.5zM393 10q135 0 224.5 91t89.5 228q0 136 -89.5 227.5t-224.5 91.5t-224 -91.5t-89 -227.5q0 -137 89 -228t224 -91zM243 147v44h54v278h-54v45
h173q82 0 120 -30.5t38 -80.5t-37.5 -82.5t-117.5 -32.5h-44v-97h59v-44h-191zM375 331h38q43 0 59.5 17.5t16.5 53.5q0 69 -76 69h-38v-140z" />
    <glyph glyph-name="servicemark" unicode="&#x2120;" horiz-adv-x="808" 
d="M46 351v110h39q20 -40 41.5 -57t54.5 -17q49 0 49 42q0 14 -11 24t-24 14.5t-40 11.5q-23 6 -38 11.5t-31.5 16.5t-25 28t-8.5 40q0 38 29 65t73 27q49 0 76 -33l10 31h38v-104h-38q-33 68 -82 68q-45 0 -45 -37q0 -22 18.5 -32.5t59.5 -20.5q47 -10 74 -30t27 -62
t-30.5 -70t-77.5 -28q-58 0 -88 35l-11 -33h-39zM332 355v41h41v221h-41v41h156l62 -196h7l59 196h154v-41h-44v-221h44v-41h-153v41h36v208h-12l-81 -249h-45l-84 249h-13v-208h36v-41h-122z" />
    <glyph glyph-name="trademark" unicode="&#x2122;" horiz-adv-x="853" 
d="M376 355v41h42v221h-42v41h157l61 -196h7l60 196h154v-41h-45v-221h45v-41h-153v41h35v208h-12l-80 -249h-45l-84 249h-14v-208h37v-41h-123zM97 355v41h55v225h-12q-27 0 -39.5 -15t-29.5 -70h-33v122h302v-122h-34q-15 53 -27.5 69t-40.5 16h-12v-225h54v-41h-183z" />
    <glyph glyph-name="minus" unicode="&#x2212;" horiz-adv-x="520" 
d="M450 245h-381v76h381v-76z" />
    <glyph glyph-name="registered.alt" horiz-adv-x="787" 
d="M393 -33q-155 0 -259 103.5t-104 258.5q0 154 104 258t259 104t259.5 -104t104.5 -258q0 -155 -104.5 -258.5t-259.5 -103.5zM393 10q135 0 224.5 91t89.5 228q0 136 -89.5 227.5t-224.5 91.5t-224 -91.5t-89 -227.5q0 -137 89 -228t224 -91zM350 308v-115h55v-44h-187
v44h55v278h-55v44h192q77 0 111.5 -27t34.5 -68q0 -77 -105 -90v-5q46 -6 65.5 -25t21.5 -54l3 -29q1 -27 17 -27q12 0 23 29l29 -11q-19 -67 -75 -67q-76 0 -76 81v29q0 30 -11.5 43.5t-44.5 13.5h-53zM350 348h52q37 0 53 15.5t16 49.5q0 31 -14.5 45t-50.5 14h-56v-124z
" />
    <glyph glyph-name="zero.osf" horiz-adv-x="592" 
d="M296 -16q-115 0 -186 82.5t-71 209.5t72 211t185 84q115 0 186 -82.5t71 -209.5t-72 -211t-185 -84zM300 52q61 0 89 55t28 170q0 226 -125 226q-61 0 -89 -55t-28 -170q0 -226 125 -226z" />
    <glyph glyph-name="one.osf" horiz-adv-x="471" 
d="M57 0v74h135v348q-24 -12 -65 -12q-45 0 -75 11v61q60 -3 110 18.5t73 60.5h81v-487h133v-74h-392z" />
    <glyph glyph-name="two.osf" horiz-adv-x="558" 
d="M492 406q0 -65 -45.5 -104.5t-138.5 -70.5q-143 -46 -179 -119l2 -4q41 29 97 29q37 0 89.5 -19.5t72.5 -19.5q30 0 45 19t30 76l54 -4q-8 -107 -47 -156t-98 -49q-33 0 -63 14t-48.5 30.5t-42 30.5t-43.5 14q-3 0 -9.5 -1t-7.5 -1q12 -14 12 -33q0 -23 -16 -38.5
t-43 -15.5q-32 0 -51.5 21t-19.5 55q0 58 47.5 111t129.5 92q81 39 109.5 69t28.5 83q0 42 -27 66.5t-75 24.5q-67 0 -101 -41q49 -18 49 -65q0 -31 -19.5 -50.5t-52.5 -19.5t-54 23t-21 56q0 66 61.5 114t155.5 48q103 0 161 -47t58 -118z" />
    <glyph glyph-name="three.osf" horiz-adv-x="538" 
d="M256 -88q-100 0 -162.5 41.5t-62.5 106.5q0 34 22 56.5t56 22.5t53 -21t19 -50q0 -39 -34 -62q34 -30 104 -30q53 0 82.5 31t29.5 86q0 61 -34 91.5t-125 30.5h-21v67h17q86 0 118 31t32 91q0 103 -103 103q-57 0 -95 -33q19 -8 31 -26t12 -38q0 -29 -18.5 -49.5
t-51.5 -20.5q-34 0 -56 22t-22 57q0 64 61 108t157 44q104 0 161.5 -45.5t57.5 -113.5q0 -58 -43 -100t-135 -57v-4q94 -7 142.5 -48t48.5 -105q0 -80 -65 -133t-176 -53z" />
    <glyph glyph-name="four.osf" horiz-adv-x="577" 
d="M318 185v271h-4l-202 -271h206zM435 -7h85v-71h-287v71h84v118h-292v72l291 383h119v-381h126v-74h-126v-118z" />
    <glyph glyph-name="five.osf" horiz-adv-x="536" 
d="M165 449l-12 -165q57 45 140 45q103 0 155 -55.5t52 -139.5q0 -92 -63 -157t-182 -65q-87 0 -150 41.5t-63 103.5q0 36 21.5 60.5t55.5 24.5q32 0 49.5 -19.5t17.5 -46.5q0 -44 -35 -66q34 -34 95 -34q60 0 91 37t31 108q0 138 -116 138q-63 0 -119 -49l-54 15l22 326
l19 17q90 -35 192 -35q87 0 154 36l19 -43q-61 -103 -184 -103q-68 0 -136 26z" />
    <glyph glyph-name="six.osf" horiz-adv-x="562" 
d="M176 310q58 84 156 84q90 0 141.5 -52.5t51.5 -138.5q0 -90 -60.5 -154.5t-171.5 -64.5q-115 0 -180.5 85t-65.5 217q0 153 82.5 253.5t210.5 100.5q82 0 127.5 -35.5t45.5 -85.5q0 -36 -20 -59.5t-53 -23.5q-35 0 -52.5 18.5t-17.5 46.5q0 41 36 57q-26 19 -70 19
q-70 0 -115 -69.5t-45 -197.5zM181 190q0 -62 33 -102t82 -40q101 0 101 144q0 64 -26.5 100t-77.5 36t-81.5 -37t-30.5 -101z" />
    <glyph glyph-name="seven.osf" horiz-adv-x="516" 
d="M148 -23q0 70 58.5 180.5t160.5 219.5l56 60l-6 6q-52 -32 -99 -32q-35 0 -78.5 19t-59.5 19q-27 0 -40.5 -25.5t-25.5 -99.5h-70v238h76l6 -77h6q27 83 87 83q26 0 50.5 -14.5t39.5 -32.5t35 -32.5t39 -14.5q3 0 8.5 1t6.5 1q-12 17 -12 40q0 25 16.5 42t43.5 17
q30 0 47.5 -19.5t17.5 -48.5q0 -45 -57 -106q-68 -72 -106.5 -165t-57.5 -244q-10 -81 -70 -81q-33 0 -52.5 18t-19.5 48z" />
    <glyph glyph-name="eight.osf" horiz-adv-x="549" 
d="M62 452q0 78 61 133t159 55q96 0 151.5 -45.5t55.5 -110.5q0 -99 -111 -138q132 -50 132 -161q0 -86 -67 -143.5t-171 -57.5q-105 0 -165.5 48.5t-60.5 118.5q0 99 120 144q-104 46 -104 157zM220 276h-1q-68 -35 -68 -112q0 -52 34 -84t96 -32q55 0 87 29t32 70
q0 48 -41 74t-140 52zM172 486q0 -50 36.5 -76t119.5 -46q62 37 62 113q0 42 -29.5 71t-83.5 29q-50 0 -77.5 -25.5t-27.5 -65.5z" />
    <glyph glyph-name="nine.osf" horiz-adv-x="562" 
d="M385 240q-22 -40 -62.5 -62t-91.5 -22q-89 0 -142 53t-53 140q0 91 63 156.5t173 65.5q117 0 180 -84.5t63 -218.5q0 -152 -80.5 -254t-209.5 -102q-87 0 -133.5 35.5t-46.5 90.5q0 36 21 59.5t54 23.5t50.5 -18.5t17.5 -47.5q0 -39 -33 -58q30 -22 74 -22q151 0 156 265
zM380 362q0 64 -30 104.5t-78 40.5q-50 0 -78.5 -38.5t-28.5 -107.5q0 -139 105 -139q52 0 81 35t29 105z" />
    <glyph glyph-name="dollar.osf" horiz-adv-x="548" 
d="M313 -96h-66v81q-94 7 -151 45t-57 90q0 29 20 51t49 22q30 0 49 -19.5t19 -45.5q0 -35 -29 -54q30 -27 101 -34v185q-47 13 -75.5 24t-57.5 29.5t-42.5 45.5t-13.5 63q0 69 50 117t138 58v73h66v-71q90 -5 139.5 -43.5t49.5 -85.5q0 -30 -18.5 -49.5t-46.5 -19.5
q-29 0 -47.5 17t-18.5 43q0 33 26 52q-24 24 -84 30v-176q98 -28 144.5 -64.5t46.5 -102.5q0 -67 -47.5 -118.5t-143.5 -60.5v-82zM406 124q0 28 -22.5 47t-71.5 35v-165q47 6 70.5 28.5t23.5 54.5zM163 428q0 -30 18.5 -47t67.5 -32v158q-43 -6 -64.5 -27t-21.5 -52z" />
    <glyph glyph-name="sterling.osf" horiz-adv-x="612" 
d="M464 241h-153q-1 -40 -30 -88q31 -9 85.5 -35.5t81.5 -26.5q32 0 48 19t28 78l55 -4q-4 -106 -35.5 -152.5t-102.5 -46.5q-25 0 -53.5 10t-47 20t-52.5 31.5t-47 29.5q-43 -92 -128 -92q-43 0 -68 21t-25 56q0 45 41 76.5t119 31.5q11 0 37 -2q1 4 1 16q0 25 -21 58h-144
v69h101q-16 36 -16 70q0 81 65 136t171 55q85 0 136 -36.5t51 -88.5q0 -32 -20.5 -54t-53.5 -22q-32 0 -52 18.5t-20 47.5q0 33 25 54q-24 19 -70 19q-52 0 -80.5 -25t-28.5 -61q0 -15 4 -31.5t8 -27t12 -28t12 -26.5h167v-69zM121 41q46 0 69 58q-26 9 -47 9q-28 0 -41 -11
t-13 -26q0 -30 32 -30z" />
    <glyph glyph-name="Euro.osf" horiz-adv-x="649" 
d="M27 304v64h97q29 91 104.5 147t177.5 56q90 0 152.5 -42.5t62.5 -102.5q0 -33 -20.5 -56t-56.5 -23q-34 0 -54 19t-20 50q0 33 28 57q-24 31 -88 31q-132 0 -163 -137h176v-63h-185v-26q0 -26 1 -38h184v-63h-172q36 -111 153 -111q64 0 102 37t48 104h73
q-7 -96 -70.5 -159.5t-171.5 -63.5q-107 0 -175.5 52t-91.5 140h-91v64h81v24q0 27 2 40h-83z" />
    <glyph glyph-name="yen.osf" horiz-adv-x="653" 
d="M81 328h116l-99 154h-77v73h294v-72h-81l121 -199l124 199h-75v72h230v-73h-74l-102 -154h115v-63h-157l-30 -46v-16h187v-63h-187v-68h106v-72h-329v72h107v68h-189v63h189v12l-33 50h-156v63z" />
    <glyph glyph-name="hfjslug" horiz-adv-x="694" 
d="M644 -200h-208l-8 14h-163l-8 -14h-207v303q14 0 23 9.5t9 22.5t-9.5 22.5t-22.5 9.5v554h100l30 79h334l29 -79h101v-921zM400 563v-172h15v78h38v14h-38v66h43v14h-58zM184 563v-172h15v79h47v-79h15v172h-15v-79h-47v79h-15zM460 394q10 -4 21 -4q31 0 31 36v137h-16
v-137q0 -22 -16 -22q-8 0 -20 5v-15zM371 465l-13 3q-4 -18 -8 -30h-1l-16 31q23 21 23 42q0 31 -27 31q-12 0 -20 -9t-8 -22t14 -39q-23 -18 -23 -47q0 -16 8 -26.5t21 -10.5q19 0 29 24h1l12 -24l12 6l-17 32q6 14 13 39zM523 323v-46h8v12l8 8l15 -20h10l-20 26l18 20
h-10l-20 -24h-1v24h-8zM488 292l10 -15h9l-12 17q10 4 10 14q0 15 -17 15h-20v-46h8v15h12zM426 276q10 0 17 7t7 17q0 9 -7 16.5t-17 7.5t-17 -7.5t-7 -16.5q0 -10 7 -17t17 -7zM370 301l-13 22h-9l18 -29v-17h8v17l18 29h-9zM193 323v-46h34v7h-26v13h23v7h-23v12h26v7
h-34zM132 323v-46h8v32l25 -32h7v46h-8v-32l-25 32h-7zM241 323l14 -47h8l11 34h1l11 -34h8l14 47h-8l-10 -35h-1l-11 35h-7l-11 -35h-1l-10 35h-8zM327 479q-12 22 -12 32q0 19 14 19q13 0 13 -19q0 -15 -15 -32zM342 423q-8 -21 -20 -21q-16 0 -16 25q0 19 16 35zM487 299
h-11v17h11q10 0 10 -8q0 -9 -10 -9zM426 283q-16 0 -16 17q0 6 4.5 11.5t11.5 5.5t11.5 -5.5t4.5 -11.5q0 -17 -16 -17z" />
    <glyph glyph-name="i.dot" horiz-adv-x="328" 
d="M168 546q-34 0 -55 20.5t-21 52.5q0 33 21 54.5t55 21.5t54.5 -20t20.5 -53t-21 -54.5t-54 -21.5zM36 0v74h80v315h-80v74h197v-389h80v-74h-277z" />
    <glyph glyph-name="caron.alt" horiz-adv-x="238" 
d="M119 525h-46q-6 84 -6 152q-1 87 56 87q22 0 36 -15t14 -40q0 -21 -18 -75z" />
    </font>
</defs>
</svg>
