<?xml version="1.0" standalone="no"?>
<!DOCTYPE svg PUBLIC "-//W3C//DTD SVG 1.1//EN" "http://www.w3.org/Graphics/SVG/1.1/DTD/svg11.dtd" >
<svg xmlns="http://www.w3.org/2000/svg" xmlns:xlink="http://www.w3.org/1999/xlink" version="1.1">
<metadata>
Created by FontForge 20200427 at Thu Dec  4 01:39:42 2008
 By www
Copyright (C) 2004, 2009 Hoefler &#38; Frere-Jones. http://www.typography.com
</metadata>
<defs>
<font id="Sentinel-BlackItalic" horiz-adv-x="616" >
  <font-face 
    font-family="Sentinel Black"
    font-weight="450"
    font-style="italic"
    font-stretch="normal"
    units-per-em="1000"
    panose-1="0 0 0 0 0 0 0 0 0 0"
    ascent="800"
    descent="-200"
    x-height="484"
    cap-height="658"
    bbox="-166 -384 1267 1134"
    underline-thickness="50"
    underline-position="-100"
    slope="-12"
    unicode-range="U+0020-FB04"
  />
<missing-glyph horiz-adv-x="500" 
d="M0 -200v1000h500v-1000h-500zM71 750l179 -390l179 390h-358zM50 -76l172 376l-172 376v-752zM450 676l-172 -376l172 -376v752zM250 240l-179 -390h358z" />
    <glyph glyph-name="f_f" unicode="ff" horiz-adv-x="695" 
d="M274 -177q-53 0 -85.5 26t-33.5 65q-68 -91 -181 -91q-54 0 -86.5 26.5t-32.5 66.5q0 33 20.5 57t55.5 24q25 0 43 -17.5t18 -49.5q0 -29 -17 -53q26 -1 38.5 17.5t22.5 69.5l82 418h-84l20 78h80q55 235 272 235q98 0 146 -40q61 44 148 44q79 0 123.5 -30.5t44.5 -78.5
q0 -34 -22 -58.5t-60 -24.5q-33 0 -54.5 18.5t-21.5 48.5q0 38 28 59q-10 6 -28 6q-42 0 -57.5 -28.5t-31.5 -107.5q-4 -18 -6 -28l-3 -15h138l-20 -78h-135l-66 -313q-27 -127 -96 -186.5t-159 -59.5zM219 69q-12 -54 -24 -80q16 8 36 8q25 0 43 -17.5t18 -49.5
q0 -29 -17 -53q27 -2 44.5 18.5t26.5 68.5l82 418h-143zM304 471l-3 -11h143q12 45 15 54q-31 18 -31 56t28 59q-12 6 -40 6q-23 0 -40 -8t-26.5 -17t-19 -36t-13.5 -43t-13 -60z" />
    <glyph glyph-name="fi" unicode="fi" horiz-adv-x="663" 
d="M425 382h-140l-66 -313q-27 -128 -91.5 -187t-153.5 -59q-54 0 -86.5 26.5t-32.5 66.5q0 33 20.5 57t55.5 24q25 0 43 -17.5t18 -49.5q0 -29 -17 -53q26 -1 38.5 17.5t22.5 69.5l82 418h-84l20 78h80q28 122 98.5 180.5t197.5 58.5q93 0 144.5 -30t51.5 -79
q0 -34 -25 -58.5t-72 -24.5q-43 0 -67 18t-24 49q0 38 28 59q-10 6 -41 6q-25 0 -43.5 -8t-29 -17.5t-20 -35.5t-14 -43.5t-13.5 -59.5l-3 -15h308l-73 -260q-23 -78 -23 -90q0 -19 16 -19q30 0 69 95l55 -20q-64 -177 -188 -177q-49 0 -80 28t-31 75q0 19 13 71z" />
    <glyph glyph-name="fl" unicode="fl" horiz-adv-x="667" 
d="M407 699q64 0 110 -19l165 17l-138 -494q-24 -82 -24 -93q0 -19 16 -19q30 0 69 95l55 -20q-64 -177 -188 -177q-51 0 -81 26.5t-30 75.5q0 29 12 74l57 217h-145l-66 -313q-27 -128 -91.5 -187t-153.5 -59q-54 0 -86.5 26.5t-32.5 66.5q0 33 20.5 57t55.5 24
q25 0 43 -17.5t18 -49.5q0 -29 -17 -53q26 -1 38.5 17.5t22.5 69.5l82 418h-84l20 78h80q55 239 273 239zM305 475l-3 -15h149l15 55q-37 16 -37 59q0 38 28 59q-12 6 -40 6q-23 0 -40 -8t-26.5 -17t-19 -36t-13.5 -43t-13 -60z" />
    <glyph glyph-name="f_f_i" unicode="ffi" horiz-adv-x="973" 
d="M406 695q103 0 150 -44q69 48 184 48q93 0 144.5 -30t51.5 -79q0 -34 -25 -58.5t-72 -24.5q-43 0 -67 18t-24 49q0 38 28 59q-10 6 -41 6q-25 0 -43.5 -8t-29 -17.5t-20 -35.5t-14 -43.5t-13.5 -59.5l-3 -15h308l-73 -260q-23 -78 -23 -90q0 -19 16 -19q30 0 69 95
l55 -20q-64 -177 -188 -177q-49 0 -80 28t-31 75q0 19 13 71l57 219h-140l-66 -313q-27 -127 -96 -186.5t-159 -59.5q-53 0 -85.5 26t-33.5 65q-68 -91 -181 -91q-54 0 -86.5 26.5t-32.5 66.5q0 33 20.5 57t55.5 24q25 0 43 -17.5t18 -49.5q0 -29 -17 -53q26 -1 38.5 17.5
t22.5 69.5l82 418h-84l20 78h80q55 235 272 235zM219 69q-12 -54 -24 -80q16 8 36 8q25 0 43 -17.5t18 -49.5q0 -29 -17 -53q27 -2 44.5 18.5t26.5 68.5l82 418h-143zM304 471l-3 -11h143q12 45 15 54q-31 18 -31 56t28 59q-12 6 -40 6q-23 0 -40 -8t-26.5 -17t-19 -36
t-13.5 -43t-13 -60z" />
    <glyph glyph-name="f_f_l" unicode="ffl" horiz-adv-x="977" 
d="M274 -177q-53 0 -85.5 26t-33.5 65q-68 -91 -181 -91q-54 0 -86.5 26.5t-32.5 66.5q0 33 20.5 57t55.5 24q25 0 43 -17.5t18 -49.5q0 -29 -17 -53q26 -1 38.5 17.5t22.5 69.5l82 418h-84l20 78h80q55 235 272 235q101 0 149 -43q65 47 162 47q64 0 110 -19l165 17
l-138 -494q-24 -82 -24 -93q0 -19 16 -19q30 0 69 95l55 -20q-64 -177 -188 -177q-51 0 -81 26.5t-30 75.5q0 29 12 74l57 217h-145l-66 -313q-27 -127 -96 -186.5t-159 -59.5zM219 69q-12 -54 -24 -80q16 8 36 8q25 0 43 -17.5t18 -49.5q0 -29 -17 -53q27 -2 44.5 18.5
t26.5 68.5l82 418h-143zM615 475l-3 -15h149l15 55q-37 16 -37 59q0 38 28 59q-12 6 -40 6q-23 0 -40 -8t-26.5 -17t-19 -36t-13.5 -43t-13 -60zM304 471l-3 -11h143q12 45 15 54q-31 18 -31 56t28 59q-12 6 -40 6q-23 0 -40 -8t-26.5 -17t-19 -36t-13.5 -43t-13 -60z" />
    <glyph glyph-name="f_b" unicode="fb" horiz-adv-x="901" 
d="M668 697l-111 -352l8 -3q75 142 173 142q71 0 107.5 -46t36.5 -126q0 -50 -20 -105.5t-56.5 -104.5t-95.5 -81t-129 -32q-98 0 -151 50.5t-53 135.5q0 57 36 193l3 14h-131l-66 -313q-27 -128 -91.5 -187t-153.5 -59q-54 0 -86.5 26.5t-32.5 66.5q0 33 20.5 57t55.5 24
q25 0 43 -17.5t18 -49.5q0 -29 -17 -53q26 -1 38.5 17.5t22.5 69.5l82 418h-84l20 78h80q55 239 273 239q65 0 107 -18zM660 380q-31 0 -60.5 -41.5t-46.5 -99t-17 -106.5q0 -33 13 -50.5t32 -17.5q34 0 65 44.5t46.5 100t15.5 98.5q0 72 -48 72zM305 475l-3 -15h135l17 62
q-25 19 -25 52q0 38 28 59q-12 6 -40 6q-23 0 -40 -8t-26.5 -17t-19 -36t-13.5 -43t-13 -60z" />
    <glyph glyph-name="f_h" unicode="fh" horiz-adv-x="963" 
d="M686 697l-132 -420l8 -3q95 210 230 210q47 0 76.5 -27t29.5 -75q0 -53 -40.5 -154.5t-40.5 -117.5q0 -19 16 -19q30 0 69 95l55 -20q-64 -177 -189 -177q-51 0 -79 27.5t-28 70.5q0 45 33.5 137t33.5 115q0 27 -30 27q-97 0 -196 -366h-168l101 382h-150l-66 -313
q-27 -128 -91.5 -187t-153.5 -59q-54 0 -86.5 26.5t-32.5 66.5q0 33 20.5 57t55.5 24q25 0 43 -17.5t18 -49.5q0 -29 -17 -53q26 -1 38.5 17.5t22.5 69.5l82 418h-84l20 78h80q55 239 273 239q65 0 111 -19zM305 475l-3 -15h153l14 53q-40 17 -40 61q0 38 28 59q-12 6 -40 6
q-23 0 -40 -8t-26.5 -17t-19 -36t-13.5 -43t-13 -60z" />
    <glyph glyph-name="f_j" unicode="fj" horiz-adv-x="610" 
d="M430 699q93 0 144.5 -30t51.5 -79q0 -34 -25 -58.5t-72 -24.5q-43 0 -67 18t-24 49q0 38 28 59q-10 6 -41 6q-25 0 -43.5 -8t-29 -17.5t-20 -35.5t-14 -43.5t-13.5 -59.5l-3 -15h306l-113 -426q-33 -122 -91.5 -166.5t-145.5 -44.5q-50 0 -81.5 19t-40.5 50
q-65 -69 -162 -69q-54 0 -86.5 26.5t-32.5 66.5q0 33 20.5 57t55.5 24q25 0 43 -17.5t18 -49.5q0 -29 -17 -53q26 -1 38.5 17.5t22.5 69.5l82 418h-84l20 78h80q28 122 98.5 180.5t197.5 58.5zM431 382h-146l-66 -313q-9 -41 -21 -72h11q26 0 44.5 -18t18.5 -48
q0 -35 -22 -59q29 -2 48 27t41 116z" />
    <glyph glyph-name="f_k" unicode="fk" horiz-adv-x="925" 
d="M677 266q58 -6 81.5 -28.5t23.5 -60.5q0 -16 -4.5 -37.5t-4.5 -29.5q0 -19 17 -19q15 0 29.5 19t38.5 76l55 -20q-32 -87 -74.5 -132t-104.5 -45q-58 0 -87 30.5t-29 73.5q0 17 6 50t6 44q0 23 -12.5 32t-55.5 10l-60 -229h-168l101 382h-150l-66 -313
q-27 -128 -91.5 -187t-153.5 -59q-54 0 -86.5 26.5t-32.5 66.5q0 33 20.5 57t55.5 24q25 0 43 -17.5t18 -49.5q0 -29 -17 -53q26 -1 38.5 17.5t22.5 69.5l82 418h-84l20 78h80q55 239 273 239q65 0 111 -19l168 17l-109 -412q39 0 63.5 23.5t65.5 91.5q51 84 122 84
q43 0 66 -24.5t23 -62.5q0 -37 -21.5 -66t-58.5 -29q-33 0 -50 23t-11 57q-18 -12 -38 -47q-27 -45 -61 -69zM305 475l-3 -15h153l14 53q-40 17 -40 61q0 38 28 59q-12 6 -40 6q-23 0 -40 -8t-26.5 -17t-19 -36t-13.5 -43t-13 -60z" />
    <glyph glyph-name="f_f_b" unicode="ffb" horiz-adv-x="1211" 
d="M274 -177q-53 0 -85.5 26t-33.5 65q-68 -91 -181 -91q-54 0 -86.5 26.5t-32.5 66.5q0 33 20.5 57t55.5 24q25 0 43 -17.5t18 -49.5q0 -29 -17 -53q26 -1 38.5 17.5t22.5 69.5l82 418h-84l20 78h80q55 235 272 235q101 0 149 -43q65 47 162 47q65 0 107 -18l154 16
l-111 -352l8 -3q75 142 173 142q71 0 107.5 -46t36.5 -126q0 -50 -20 -105.5t-56.5 -104.5t-95.5 -81t-129 -32q-98 0 -151 50.5t-53 135.5q0 57 36 193l3 14h-131l-66 -313q-27 -127 -96 -186.5t-159 -59.5zM219 69q-12 -54 -24 -80q16 8 36 8q25 0 43 -17.5t18 -49.5
q0 -29 -17 -53q27 -2 44.5 18.5t26.5 68.5l82 418h-143zM970 380q-31 0 -60.5 -41.5t-46.5 -99t-17 -106.5q0 -33 13 -50.5t32 -17.5q34 0 65 44.5t46.5 100t15.5 98.5q0 72 -48 72zM615 475l-3 -15h135l17 62q-25 19 -25 52q0 38 28 59q-12 6 -40 6q-23 0 -40 -8t-26.5 -17
t-19 -36t-13.5 -43t-13 -60zM304 471l-3 -11h143q12 45 15 54q-31 18 -31 56t28 59q-12 6 -40 6q-23 0 -40 -8t-26.5 -17t-19 -36t-13.5 -43t-13 -60z" />
    <glyph glyph-name="f_f_h" unicode="ffh" horiz-adv-x="1273" 
d="M274 -177q-53 0 -85.5 26t-33.5 65q-68 -91 -181 -91q-54 0 -86.5 26.5t-32.5 66.5q0 33 20.5 57t55.5 24q25 0 43 -17.5t18 -49.5q0 -29 -17 -53q26 -1 38.5 17.5t22.5 69.5l82 418h-84l20 78h80q55 235 272 235q101 0 149 -43q65 47 162 47q65 0 111 -19l168 17
l-132 -420l8 -3q95 210 230 210q47 0 76.5 -27t29.5 -75q0 -53 -40.5 -154.5t-40.5 -117.5q0 -19 16 -19q30 0 69 95l55 -20q-64 -177 -189 -177q-51 0 -79 27.5t-28 70.5q0 45 33.5 137t33.5 115q0 27 -30 27q-97 0 -196 -366h-168l101 382h-150l-66 -313
q-27 -127 -96 -186.5t-159 -59.5zM219 69q-12 -54 -24 -80q16 8 36 8q25 0 43 -17.5t18 -49.5q0 -29 -17 -53q27 -2 44.5 18.5t26.5 68.5l82 418h-143zM615 475l-3 -15h153l14 53q-40 17 -40 61q0 38 28 59q-12 6 -40 6q-23 0 -40 -8t-26.5 -17t-19 -36t-13.5 -43t-13 -60z
M304 471l-3 -11h143q12 45 15 54q-31 18 -31 56t28 59q-12 6 -40 6q-23 0 -40 -8t-26.5 -17t-19 -36t-13.5 -43t-13 -60z" />
    <glyph glyph-name="f_f_j" unicode="ffj" horiz-adv-x="920" 
d="M406 695q103 0 150 -44q69 48 184 48q93 0 144.5 -30t51.5 -79q0 -34 -25 -58.5t-72 -24.5q-43 0 -67 18t-24 49q0 38 28 59q-10 6 -41 6q-25 0 -43.5 -8t-29 -17.5t-20 -35.5t-14 -43.5t-13.5 -59.5l-3 -15h306l-113 -426q-33 -122 -91.5 -166.5t-145.5 -44.5
q-51 0 -83 20t-40 52q-69 -72 -171 -72q-53 0 -85.5 26t-33.5 65q-68 -91 -181 -91q-54 0 -86.5 26.5t-32.5 66.5q0 33 20.5 57t55.5 24q25 0 43 -17.5t18 -49.5q0 -29 -17 -53q26 -1 38.5 17.5t22.5 69.5l82 418h-84l20 78h80q55 235 272 235zM219 69q-12 -54 -24 -80
q16 8 36 8q25 0 43 -17.5t18 -49.5q0 -29 -17 -53q27 -2 44.5 18.5t26.5 68.5l82 418h-143zM741 382h-146l-66 -313q-10 -43 -22 -72h12q26 0 44.5 -18t18.5 -48q0 -35 -22 -59q29 -2 48 27t41 116zM304 471l-3 -11h143q12 45 15 54q-31 18 -31 56t28 59q-12 6 -40 6
q-23 0 -40 -8t-26.5 -17t-19 -36t-13.5 -43t-13 -60z" />
    <glyph glyph-name="f_f_k" unicode="ffk" horiz-adv-x="1235" 
d="M274 -177q-53 0 -85.5 26t-33.5 65q-68 -91 -181 -91q-54 0 -86.5 26.5t-32.5 66.5q0 33 20.5 57t55.5 24q25 0 43 -17.5t18 -49.5q0 -29 -17 -53q26 -1 38.5 17.5t22.5 69.5l82 418h-84l20 78h80q55 235 272 235q101 0 149 -43q65 47 162 47q65 0 111 -19l168 17
l-109 -412q39 0 63.5 23.5t65.5 91.5q51 84 122 84q43 0 66 -24.5t23 -62.5q0 -37 -21.5 -66t-58.5 -29q-33 0 -50 23t-11 57q-18 -12 -38 -47q-27 -45 -61 -69q58 -6 81.5 -28.5t23.5 -60.5q0 -16 -4.5 -37.5t-4.5 -29.5q0 -19 17 -19q15 0 29.5 19t38.5 76l55 -20
q-32 -87 -74.5 -132t-104.5 -45q-58 0 -87 30.5t-29 73.5q0 17 6 50t6 44q0 23 -12.5 32t-55.5 10l-60 -229h-168l101 382h-150l-66 -313q-27 -127 -96 -186.5t-159 -59.5zM219 69q-12 -54 -24 -80q16 8 36 8q25 0 43 -17.5t18 -49.5q0 -29 -17 -53q27 -2 44.5 18.5
t26.5 68.5l82 418h-143zM615 475l-3 -15h153l14 53q-40 17 -40 61q0 38 28 59q-12 6 -40 6q-23 0 -40 -8t-26.5 -17t-19 -36t-13.5 -43t-13 -60zM304 471l-3 -11h143q12 45 15 54q-31 18 -31 56t28 59q-12 6 -40 6q-23 0 -40 -8t-26.5 -17t-19 -36t-13.5 -43t-13 -60z" />
    <glyph glyph-name=".notdef" horiz-adv-x="500" 
d="M0 -200v1000h500v-1000h-500zM71 750l179 -390l179 390h-358zM50 -76l172 376l-172 376v-752zM450 676l-172 -376l172 -376v752zM250 240l-179 -390h358z" />
    <glyph glyph-name=".null" horiz-adv-x="0" 
 />
    <glyph glyph-name="nonmarkingreturn" horiz-adv-x="333" 
 />
    <glyph glyph-name="space" unicode=" " horiz-adv-x="174" 
 />
    <glyph glyph-name="exclam" unicode="!" horiz-adv-x="310" 
d="M110 219q9 106 19 287q2 35 4 55.5t9 47t18 40.5t31.5 24.5t49.5 10.5q46 0 76 -25.5t30 -61.5t-39 -121q-87 -191 -122 -271zM117 -17q-38 0 -63 22.5t-27 56.5q0 41 27.5 69t71.5 28q38 0 63 -22.5t27 -56.5q0 -41 -28 -69t-71 -28z" />
    <glyph glyph-name="quotedbl" unicode="&#x22;" horiz-adv-x="472" 
d="M141 377l-53 34l51 134q27 71 50 100t58 29q32 0 55.5 -21.5t23.5 -53.5q0 -29 -21 -55.5t-88 -92.5zM365 377l-53 34l51 134q27 71 50 100t58 29q32 0 55.5 -21.5t23.5 -53.5q0 -29 -21 -55.5t-88 -92.5z" />
    <glyph glyph-name="numbersign" unicode="#" horiz-adv-x="673" 
d="M66 400l17 87h139l48 180l95 -9l-45 -171h129l48 180l95 -9l-45 -171h120l-17 -87h-126l-44 -170h132l-17 -87h-138l-49 -188l-96 9l47 179h-129l-49 -188l-96 9l47 179h-121l17 87h127l44 170h-133zM297 400l-44 -170h129l44 170h-129z" />
    <glyph glyph-name="dollar" unicode="$" horiz-adv-x="563" 
d="M353 717l82 -9l-20 -79q75 -13 122.5 -47.5t47.5 -86.5q0 -38 -22 -64.5t-61 -26.5q-34 0 -57.5 20.5t-23.5 52.5q0 42 29 65q-19 17 -51 25l-46 -184q92 -34 135.5 -73t43.5 -106q0 -93 -70.5 -148.5t-187.5 -55.5h-15l-22 -93l-82 9l22 92q-82 14 -132.5 49t-50.5 89
q0 38 22.5 64.5t62.5 26.5q34 0 57.5 -20.5t23.5 -52.5q0 -44 -30 -66q22 -19 64 -27l46 185q-84 33 -124 70t-40 101q0 91 73 149t184 60zM385 149q0 48 -73 80l-41 -165q114 1 114 85zM224 486q0 -27 13.5 -44t43.5 -31l40 161q-48 -5 -72.5 -29t-24.5 -57z" />
    <glyph glyph-name="percent" unicode="%" horiz-adv-x="809" 
d="M182 267q-64 0 -103 37t-39 103q0 87 63 157.5t150 70.5q63 0 101 -36q48 -17 106 -17q144 0 238 87l49 -41l-581 -664l-68 55l488 534l-3 3q-63 -49 -153 -49q-28 0 -41 2q-1 -85 -62 -163.5t-145 -78.5zM586 -14q-64 0 -103 37t-39 103q0 87 63 157.5t150 70.5
q62 0 99 -33t37 -92q0 -85 -61 -164t-146 -79zM605 48q45 0 83.5 62.5t38.5 122.5q0 54 -42 54q-46 0 -84 -63.5t-38 -123.5q0 -52 42 -52zM201 329q45 0 83.5 62.5t38.5 122.5q0 3 -0.5 7t-0.5 6q-33 15 -60 38q-40 -14 -71.5 -72.5t-31.5 -111.5q0 -52 42 -52z" />
    <glyph glyph-name="ampersand" unicode="&#x26;" horiz-adv-x="728" 
d="M645 395q35 0 60.5 -21.5t25.5 -60.5q0 -34 -24 -63t-60 -29q-29 0 -46 15.5t-17 40.5q-36 -24 -92 -109q35 -69 73 -69q40 0 74 66l51 -30q-38 -79 -75.5 -115t-98.5 -36q-51 0 -82.5 19.5t-59.5 65.5q-77 -85 -189 -85q-77 0 -125.5 44t-48.5 118q0 141 204 198
q-47 69 -47 128q0 74 60 121t154 47q82 0 131.5 -39.5t49.5 -97.5q0 -105 -166 -158q43 -67 66 -127q7 10 22.5 36.5t23 37.5t22 31.5t25.5 30t25.5 21t30 16t33.5 4.5zM257 85q49 0 84 31q-31 89 -91 177q-73 -46 -73 -120q0 -39 22 -63.5t58 -24.5zM323 501q0 -37 41 -106
q76 46 76 112q0 27 -15 45t-41 18q-27 0 -44 -19.5t-17 -49.5z" />
    <glyph glyph-name="quotesingle" unicode="'" horiz-adv-x="248" 
d="M141 377l-53 34l51 134q27 71 50 100t58 29q32 0 55.5 -21.5t23.5 -53.5q0 -29 -21 -55.5t-88 -92.5z" />
    <glyph glyph-name="parenleft" unicode="(" horiz-adv-x="401" 
d="M288 -161q-110 74 -169.5 174.5t-59.5 219.5q0 169 115.5 300t305.5 193l28 -68q-125 -70 -205.5 -185.5t-80.5 -270.5q0 -89 32 -169.5t86 -135.5z" />
    <glyph glyph-name="parenright" unicode=")" horiz-adv-x="401" 
d="M136 725q110 -74 169.5 -174.5t59.5 -219.5q0 -169 -115.5 -300t-305.5 -193l-28 68q125 70 205.5 185.5t80.5 270.5q0 89 -32 169.5t-86 135.5z" />
    <glyph glyph-name="asterisk" unicode="*" horiz-adv-x="427" 
d="M287 347q-9 31 7 119l-13 4q-43 -82 -67 -100q-20 -13 -42 -9.5t-36 23.5q-16 22 -12.5 43t24.5 35q27 21 116 32v15q-85 11 -116 33q-20 14 -23 35.5t13 42.5q15 20 36.5 23.5t41.5 -10.5q26 -19 65 -102l13 3q-15 91 -4 122q8 23 27.5 32.5t43.5 1.5q53 -18 37 -71
q-12 -32 -77 -93l8 -11q79 42 115 42q25 0 39.5 -15.5t14.5 -41.5q-1 -26 -15.5 -42t-39.5 -15q-36 1 -113 43l-9 -10q66 -64 74 -95q8 -24 -2 -43t-34 -26q-25 -8 -44.5 1.5t-27.5 33.5z" />
    <glyph glyph-name="plus" unicode="+" horiz-adv-x="525" 
d="M171 70l43 172h-169l22 89h169l42 169h99l-42 -169h169l-22 -89h-169l-43 -172h-99z" />
    <glyph glyph-name="comma" unicode="," horiz-adv-x="267" 
d="M-59 -169l-17 60q66 15 109.5 45t59.5 66l-7 6q-13 -10 -33 -10q-31 0 -50 23t-19 57q0 43 28 75t72 32q48 0 76.5 -32.5t28.5 -88.5q0 -88 -69 -150t-179 -83z" />
    <glyph glyph-name="hyphen" unicode="-" horiz-adv-x="351" 
d="M36 200l27 109h261l-27 -109h-261z" />
    <glyph glyph-name="period" unicode="." horiz-adv-x="267" 
d="M85 -17q-38 0 -62.5 26.5t-24.5 65.5q0 48 30.5 81t73.5 33q38 0 62.5 -26.5t24.5 -65.5q0 -48 -30.5 -81t-73.5 -33z" />
    <glyph glyph-name="slash" unicode="/" horiz-adv-x="425" 
d="M-166 -183l618 917l89 -40l-618 -917z" />
    <glyph glyph-name="zero" unicode="0" horiz-adv-x="614" 
d="M285 -16q-113 0 -174.5 70.5t-61.5 199.5q0 62 20 128.5t57.5 127.5t101 100.5t141.5 39.5q112 0 173.5 -70.5t61.5 -199.5q0 -62 -20 -128.5t-57.5 -127.5t-101 -100.5t-140.5 -39.5zM372 567q-37 0 -68 -49.5t-48.5 -118.5t-27 -132t-9.5 -101q0 -99 62 -99
q37 0 68 49.5t48.5 118.5t27 132t9.5 101q0 99 -62 99z" />
    <glyph glyph-name="one" unicode="1" horiz-adv-x="478" 
d="M-20 0l23 91h129l96 388q-20 -5 -52 -5q-44 0 -85 12l19 78q145 -6 222 79h107l-137 -552h125l-23 -91h-424z" />
    <glyph glyph-name="two" unicode="2" horiz-adv-x="592" 
d="M226 532q43 -22 43 -72q0 -39 -25 -64.5t-64 -25.5q-41 0 -66 26t-25 69q0 76 70.5 130.5t179.5 54.5q118 0 183 -50.5t65 -124.5q0 -54 -20 -93t-60 -63t-80 -37.5t-100 -26.5q-94 -20 -144.5 -48t-73.5 -70l4 -5q50 37 117 37q46 0 99 -12.5t77 -12.5q26 0 42.5 16.5
t31.5 55.5l62 -13q-25 -117 -63.5 -168t-102.5 -51q-39 0 -71 17t-49.5 37.5t-41 37.5t-46.5 17q-15 0 -29 -3q10 -18 10 -36q0 -32 -20 -51.5t-51 -19.5q-28 0 -50.5 22.5t-22.5 67.5q0 40 18.5 76t53.5 65.5t71.5 52.5t85.5 47q87 43 128 80.5t41 94.5q0 40 -21.5 63
t-62.5 23q-62 0 -93 -43z" />
    <glyph glyph-name="three" unicode="3" horiz-adv-x="568" 
d="M132 93q10 -14 35.5 -24t59.5 -10q56 0 83 36.5t27 98.5q0 45 -30 64t-104 19h-17l22 87h29q74 0 111 37q38 38 38 98q0 77 -83 77q-47 0 -68 -16q28 -26 28 -66q0 -35 -23 -58.5t-61 -23.5q-41 0 -67 23.5t-26 59.5q0 68 69.5 112t175.5 44q117 0 178 -44.5t61 -113.5
q0 -74 -54 -118.5t-162 -53.5l-1 -4q89 -14 128.5 -49t39.5 -94q0 -80 -71 -135t-198 -55q-114 0 -179 46.5t-65 117.5q0 46 29 76.5t72 30.5q40 0 60.5 -23t20.5 -55q0 -29 -16 -52t-42 -32z" />
    <glyph glyph-name="four" unicode="4" horiz-adv-x="593" 
d="M320 273l62 251h-6l-247 -251h191zM431 94h89l-24 -94h-343l24 94h99l21 85h-295l21 93l377 373h168l-93 -372h116l-23 -94h-116z" />
    <glyph glyph-name="five" unicode="5" horiz-adv-x="558" 
d="M219 496l-48 -145q73 51 156 51q95 0 145 -48.5t50 -122.5q0 -98 -74.5 -172.5t-202.5 -74.5q-102 0 -167 45t-65 109q0 43 26 71t71 28q36 0 57 -21.5t21 -52.5q0 -23 -13.5 -42.5t-34.5 -29.5q26 -32 78 -32q63 0 92.5 50.5t29.5 110.5q0 89 -94 89q-56 0 -107 -36
l-68 23l102 325l38 26q84 -32 202 -32q81 0 158 33l25 -52q-47 -67 -102 -97.5t-128 -30.5q-82 0 -147 28z" />
    <glyph glyph-name="six" unicode="6" horiz-adv-x="581" 
d="M276 58q44 0 70 50t26 119q0 94 -62 94q-46 0 -73.5 -47.5t-27.5 -119.5q0 -44 18 -70t49 -26zM596 511q0 -40 -24 -69t-70 -29q-38 0 -60.5 22t-22.5 54q0 45 36 72q-19 17 -53 17q-127 0 -167 -229q51 46 135 46q74 0 126 -45t52 -120q0 -99 -71 -172.5t-187 -73.5
q-117 0 -181 69.5t-64 184.5q0 171 97.5 291.5t255.5 120.5q88 0 143 -39t55 -100z" />
    <glyph glyph-name="seven" unicode="7" horiz-adv-x="571" 
d="M299 84q-18 -48 -42.5 -74t-66.5 -26q-41 0 -68.5 24.5t-27.5 58.5q0 66 67.5 138t263.5 217q56 43 73 57l-6 6q-62 -38 -113 -38q-31 0 -73.5 17t-62.5 17q-25 0 -42.5 -20.5t-45.5 -82.5h-89l66 265h95l-10 -87h8q28 50 53.5 72t58.5 22q30 0 51.5 -16.5t31.5 -37
t25.5 -37t35.5 -16.5q4 0 8 2q-6 17 -6 32q0 32 21 52.5t57 20.5q33 0 55 -17.5t22 -46.5q0 -58 -76 -116q-81 -60 -141 -144t-122 -242z" />
    <glyph glyph-name="eight" unicode="8" horiz-adv-x="576" 
d="M583 493q0 -62 -44.5 -99.5t-111.5 -47.5q107 -58 107 -152q0 -91 -73.5 -150t-194.5 -59q-122 0 -187.5 44t-65.5 112q0 65 45.5 105t122.5 50q-94 49 -94 143q0 89 74 150t187 61q112 0 173.5 -47.5t61.5 -109.5zM370 142q0 38 -35.5 64t-115.5 62q-73 -56 -73 -119
q0 -38 30.5 -64.5t87.5 -26.5q46 0 76 22.5t30 61.5zM256 494q0 -37 31 -63t99 -55q64 52 64 115q0 34 -25 60t-72 26q-43 0 -70 -23t-27 -60z" />
    <glyph glyph-name="nine" unicode="9" horiz-adv-x="581" 
d="M345 576q-45 0 -71 -50.5t-26 -122.5q0 -98 61 -98q46 0 74 48.5t28 122.5q0 47 -17.5 73.5t-48.5 26.5zM17 127q0 39 24 67.5t70 28.5q38 0 60.5 -22t22.5 -54q0 -45 -36 -72q26 -19 61 -19q65 0 106.5 59.5t58.5 161.5q-51 -46 -135 -46q-75 0 -126 45.5t-51 123.5
q0 102 71.5 176t187.5 74q117 0 181 -69.5t64 -184.5q0 -171 -97.5 -291.5t-255.5 -120.5q-93 0 -149.5 40t-56.5 103z" />
    <glyph glyph-name="colon" unicode=":" horiz-adv-x="283" 
d="M93 -17q-38 0 -62.5 26.5t-24.5 65.5q0 48 30.5 81t73.5 33q38 0 62.5 -26.5t24.5 -65.5q0 -48 -30.5 -81t-73.5 -33zM163 266q-38 0 -62.5 26.5t-24.5 65.5q0 48 30.5 81t73.5 33q38 0 62.5 -26.5t24.5 -65.5q0 -48 -30.5 -81t-73.5 -33z" />
    <glyph glyph-name="semicolon" unicode=";" horiz-adv-x="283" 
d="M-51 -169l-17 60q66 15 109.5 45t59.5 66l-7 6q-13 -10 -33 -10q-31 0 -50 23t-19 57q0 43 28 75t72 32q48 0 76.5 -32.5t28.5 -88.5q0 -88 -69 -150t-179 -83zM163 266q-38 0 -62.5 26.5t-24.5 65.5q0 48 30.5 81t73.5 33q38 0 62.5 -26.5t24.5 -65.5q0 -48 -30.5 -81
t-73.5 -33z" />
    <glyph glyph-name="less" unicode="&#x3c;" horiz-adv-x="524" 
d="M405 68l-332 172l25 102l387 160l36 -86l-342 -131l268 -127z" />
    <glyph glyph-name="equal" unicode="=" horiz-adv-x="525" 
d="M79 338l25 97h417l-25 -97h-417zM29 137l25 97h417l-25 -97h-417z" />
    <glyph glyph-name="greater" unicode="&#x3e;" horiz-adv-x="524" 
d="M143 502l332 -172l-25 -102l-387 -160l-36 86l342 131l-268 127z" />
    <glyph glyph-name="question" unicode="?" horiz-adv-x="512" 
d="M402 237q-70 -43 -147 -43q-53 0 -93.5 28t-40.5 83q0 50 38.5 82t115.5 57q36 11 55.5 19t41 20.5t31 28t9.5 36.5q0 32 -22.5 46t-52.5 14q-42 0 -61 -12q20 -27 20 -54q0 -30 -23.5 -54t-66.5 -24q-37 0 -61.5 23t-24.5 61q0 61 64 98.5t154 37.5q112 0 167.5 -47
t55.5 -116q0 -43 -15.5 -74.5t-48 -53t-68.5 -35t-90 -25.5q-48 -11 -66 -20.5t-18 -24.5q0 -24 34 -24q38 0 86 22zM193 -17q-40 0 -65 24.5t-25 59.5q0 38 29 65t70 27q40 0 65 -24.5t25 -59.5q0 -39 -29 -65.5t-70 -26.5z" />
    <glyph glyph-name="at" unicode="@" horiz-adv-x="898" 
d="M631 -49l24 -50q-110 -56 -245 -56q-168 0 -273.5 95t-105.5 257q0 140 69 254t183.5 177t249.5 63q151 0 250 -85t99 -226q0 -146 -71.5 -237.5t-176.5 -91.5q-53 0 -92.5 27.5t-41.5 84.5l-9 4q-50 -111 -133 -111q-67 0 -100 42t-33 109q0 113 60.5 194t143.5 81
q39 0 66.5 -24.5t36.5 -59.5l20 75h141l-64 -225q-18 -61 -8.5 -91t51.5 -30q57 0 99.5 75.5t42.5 177.5q0 117 -79 185.5t-208 68.5q-174 0 -301 -126.5t-127 -309.5q0 -137 86.5 -216.5t231.5 -79.5q121 0 214 49zM416 149q43 0 74 65.5t31 122.5q0 66 -50 66
q-30 0 -54 -38.5t-34 -81.5t-10 -72q0 -62 43 -62z" />
    <glyph glyph-name="A" unicode="A" horiz-adv-x="715" 
d="M342 96h73l-7 105h-202l-58 -105h85l-24 -96h-260l24 96h64l326 566h175l56 -566h79l-24 -96h-331zM254 289h149l-14 237h-4z" />
    <glyph glyph-name="B" unicode="B" horiz-adv-x="673" 
d="M-32 0l24 96h79l116 466h-79l24 96h323q234 0 234 -134q0 -67 -53 -115.5t-164 -61.5l-2 -7q162 -23 162 -136q0 -73 -48 -122q-82 -82 -278 -82h-338zM322 388h53q64 0 98 29t34 76q0 35 -21.5 52t-73.5 17h-46zM249 96h56q149 0 149 119q0 39 -25.5 58t-86.5 19h-44z
" />
    <glyph glyph-name="C" unicode="C" horiz-adv-x="685" 
d="M348 -16q-133 0 -213 76t-80 207q0 65 22.5 134t64.5 131t113.5 102t159.5 40q127 0 184 -86l49 84h101l-65 -264h-111q-4 89 -42 133t-95 44q-52 0 -92.5 -40t-61 -98.5t-31 -111t-10.5 -89.5q0 -47 13 -80.5t34 -49t41.5 -22t43.5 -6.5q69 0 110.5 42t77.5 130l91 -27
q-85 -249 -304 -249z" />
    <glyph glyph-name="D" unicode="D" horiz-adv-x="740" 
d="M-32 0l24 96h79l116 466h-79l24 96h265q169 0 257 -72.5t88 -194.5q0 -166 -109 -275q-116 -116 -346 -116h-319zM250 93h52q55 0 90.5 13.5t70.5 48.5q39 39 65.5 117t26.5 151q0 74 -36 108t-114 34h-37z" />
    <glyph glyph-name="E" unicode="E" horiz-adv-x="690" 
d="M132 658h613l-61 -243h-93q5 97 -11.5 123.5t-81.5 26.5h-130l-47 -187h26q35 0 49 14.5t38 73.5h89l-67 -269h-87q8 57 1 72.5t-42 15.5h-30l-48 -192h123q33 0 55.5 6t38.5 15.5t31 34t26.5 49.5t30.5 73h104l-68 -271h-623l24 96h79l116 466h-79z" />
    <glyph glyph-name="F" unicode="F" horiz-adv-x="660" 
d="M316 366h14q35 0 49 14.5t38 73.5h89l-68 -272h-87q9 57 2 74t-42 17h-18l-44 -177h102l-24 -96h-359l24 96h79l116 466h-79l24 96h600l-62 -248h-95q2 70 -7 102.5t-29.5 42.5t-67.5 10h-105z" />
    <glyph glyph-name="G" unicode="G" horiz-adv-x="739" 
d="M343 83q31 0 55 13t39.5 37.5t24 46.5t17.5 54l4 15h-107l23 96h352l-23 -96h-69l-68 -257h-95l-13 90q-65 -98 -181 -98q-113 0 -180 75t-67 197q0 55 13.5 111.5t43 112t70.5 98.5t101.5 69.5t131.5 26.5q127 0 184 -86l49 84h101l-63 -254h-129q-3 87 -38 127t-83 40
q-52 0 -92.5 -41.5t-61 -102t-31 -115.5t-10.5 -96q0 -81 30 -114t72 -33z" />
    <glyph glyph-name="H" unicode="H" horiz-adv-x="796" 
d="M-32 0l24 96h79l116 466h-79l24 96h341l-24 -96h-82l-43 -173h225l43 173h-82l24 96h340l-24 -96h-79l-116 -466h79l-24 -96h-340l24 96h82l49 197h-225l-49 -197h82l-24 -96h-341z" />
    <glyph glyph-name="I" unicode="I" horiz-adv-x="392" 
d="M-32 0l24 96h79l116 466h-79l24 96h338l-24 -96h-79l-116 -466h79l-24 -96h-338z" />
    <glyph glyph-name="J" unicode="J" horiz-adv-x="589" 
d="M580 562l-84 -335q-29 -117 -92.5 -180t-179.5 -63q-110 0 -172 47.5t-62 122.5q0 55 30.5 90t79.5 35q38 0 63 -22.5t25 -60.5q0 -69 -68 -94q20 -31 71 -31q42 0 70.5 28.5t45.5 95.5l93 367h-89l24 96h345l-24 -96h-76z" />
    <glyph glyph-name="K" unicode="K" horiz-adv-x="735" 
d="M719 562l-210 -166l137 -300h73l-24 -96h-332l24 94h60l-80 189l-87 -69l-29 -120h71l-24 -94h-330l24 96h79l116 466h-79l24 96h335l-24 -94h-76l-56 -225l270 225h-72l24 94h283l-24 -96h-73z" />
    <glyph glyph-name="L" unicode="L" horiz-adv-x="620" 
d="M132 658h353l-24 -93h-94l-117 -472h83q76 0 105.5 33.5t76.5 156.5h92l-71 -283h-568l24 96h79l116 466h-79z" />
    <glyph glyph-name="M" unicode="M" horiz-adv-x="926" 
d="M-33 0l24 96h72l116 466h-73l24 96h306l34 -378h4l211 378h321l-24 -96h-77l-116 -466h77l-24 -96h-328l24 96h72l109 440h-9l-307 -537h-74l-52 537h-9l-109 -440h74l-24 -96h-242z" />
    <glyph glyph-name="N" unicode="N" horiz-adv-x="778" 
d="M447 -6l-165 497h-9l-99 -395h84l-24 -96h-258l24 96h78l116 466h-79l24 96h270l151 -452h9l88 356h-84l24 96h259l-24 -96h-79l-141 -568h-165z" />
    <glyph glyph-name="O" unicode="O" horiz-adv-x="746" 
d="M55 277q0 63 22.5 129t66 127.5t120 101t173.5 39.5q133 0 217 -81t84 -212q0 -49 -13 -101.5t-43.5 -106t-73 -95t-108 -68t-143.5 -26.5q-134 0 -218 81t-84 212zM438 585q-51 0 -91 -42t-62 -103.5t-33 -121t-11 -105.5q0 -72 30.5 -106t83.5 -34q51 0 91 42t62 103.5
t33 121t11 105.5q0 72 -31 106t-83 34z" />
    <glyph glyph-name="P" unicode="P" horiz-adv-x="659" 
d="M288 248l-38 -152h85l-24 -96h-343l24 96h79l116 466h-79l24 96h299q146 0 207.5 -44t61.5 -131q0 -46 -17 -86t-53.5 -74.5t-102 -54.5t-153.5 -20h-86zM312 342h56q41 0 70 15t43.5 39t20.5 47.5t6 47.5q0 43 -26 59.5t-81 16.5h-33z" />
    <glyph glyph-name="Q" unicode="Q" horiz-adv-x="746" 
d="M364 -11q-142 0 -225.5 78t-83.5 210q0 63 22.5 129t66 127.5t120 101t173.5 39.5q133 0 217 -81t84 -212q0 -95 -48.5 -193.5t-141.5 -151.5q12 -29 25 -37t31 -8q22 0 38.5 16.5t34.5 61.5l60 -21q-26 -87 -66.5 -126t-99.5 -39q-64 0 -97.5 27.5t-53.5 82.5
q-36 -4 -56 -4zM242 182q41 98 130 98q50 0 79.5 -25t49.5 -71q51 108 51 261q0 72 -31 106t-83 34q-51 0 -91 -42t-62 -103.5t-33 -121t-11 -105.5q0 -22 1 -31zM358 72q24 0 42 5q-15 100 -70 100q-24 0 -39.5 -16.5t-15.5 -37.5q0 -26 24 -38.5t59 -12.5z" />
    <glyph glyph-name="R" unicode="R" horiz-adv-x="717" 
d="M-32 0l24 96h79l116 466h-79l24 96h345q122 0 178.5 -41t56.5 -103q0 -79 -64 -127.5t-194 -56.5l-2 -6q77 -9 112 -38t35 -70q0 -17 -6 -51t-6 -44q0 -25 22 -25q12 0 23 12.5t28 47.5l54 -28q-32 -72 -71 -107.5t-104 -35.5q-61 0 -96.5 28t-35.5 77q0 22 9.5 69
t9.5 71q0 55 -87 55h-42l-47 -189h85l-24 -96h-343zM320 376h57q76 0 113 37q30 30 30 84q0 70 -90 70h-62z" />
    <glyph glyph-name="S" unicode="S" horiz-adv-x="628" 
d="M-11 -14l60 256h97q7 -78 57 -122t125 -44q43 0 70.5 19t27.5 54q0 16 -8.5 29.5t-28 25t-36.5 19.5t-47 20l-15 6q-43 17 -69.5 31t-58.5 37.5t-48 57t-16 75.5q0 100 71 162t170 62q122 0 186 -79l43 77h95l-58 -246h-98q-6 77 -46 116.5t-106 39.5q-41 0 -67.5 -19.5
t-26.5 -52.5q0 -23 20.5 -43t39 -29.5t64.5 -28.5q11 -5 16 -7q33 -14 54 -24t49.5 -28t44.5 -36t27.5 -45.5t11.5 -59.5q0 -101 -71 -163t-175 -62q-141 0 -214 87l-46 -85h-94z" />
    <glyph glyph-name="T" unicode="T" horiz-adv-x="707" 
d="M104 0l24 96h96l120 479h-23q-55 0 -79.5 -31.5t-81.5 -163.5h-95l70 278h641l-70 -278h-81q2 131 -9.5 163t-67.5 32h-15l-120 -479h100l-24 -96h-385z" />
    <glyph glyph-name="U" unicode="U" horiz-adv-x="727" 
d="M328 -16q-115 0 -178 52t-63 132q0 33 16 99l74 295h-79l24 96h344l-24 -96h-84l-77 -306q-11 -46 -11 -71q0 -47 30.5 -68t76.5 -21q64 0 104 40q37 37 56 111l79 315h-78l24 96h254l-24 -96h-75l-84 -336q-25 -103 -85 -163q-79 -79 -220 -79z" />
    <glyph glyph-name="V" unicode="V" horiz-adv-x="726" 
d="M351 562l35 -408h6l232 408h-85l24 96h260l-24 -96h-64l-336 -566h-163l-66 566h-79l24 96h331l-24 -96h-71z" />
    <glyph glyph-name="W" unicode="W" horiz-adv-x="1054" 
d="M597 -4l-25 342l-201 -342h-160l-34 566h-86l24 96h322l-23 -94h-58l16 -393h7l183 306l-6 87h-70l23 94h308l-23 -94h-65l21 -393h7l196 393h-88l23 94h263l-24 -96h-67l-297 -566h-166z" />
    <glyph glyph-name="X" unicode="X" horiz-adv-x="708" 
d="M420 564h-64l71 -147l146 147h-70l24 94h272l-24 -96h-73l-227 -214l132 -252h76l-24 -96h-338l24 94h64l-73 153l-152 -153h70l-24 -94h-272l24 96h73l233 221l-130 245h-76l24 96h338z" />
    <glyph glyph-name="Y" unicode="Y" horiz-adv-x="665" 
d="M414 364l161 200h-79l24 94h260l-24 -96h-65l-249 -291l-44 -175h84l-24 -96h-348l24 96h84l43 172l-109 294h-75l24 96h344l-24 -94h-74z" />
    <glyph glyph-name="Z" unicode="Z" horiz-adv-x="650" 
d="M-30 0l23 91l476 474h-117q-59 0 -89.5 -30.5t-90.5 -149.5h-88l69 273h562l-23 -91l-479 -474h140q59 0 90 32t93 158h88l-71 -283h-583z" />
    <glyph glyph-name="bracketleft" unicode="[" horiz-adv-x="376" 
d="M-24 -161l220 887h307l-21 -84h-147l-179 -719h147l-21 -84h-306z" />
    <glyph glyph-name="backslash" unicode="\" horiz-adv-x="425" 
d="M376 -193l-98 -20l-161 917l98 20z" />
    <glyph glyph-name="bracketright" unicode="]" horiz-adv-x="376" 
d="M424 726l-220 -887h-307l21 84h147l179 719h-147l21 84h306z" />
    <glyph glyph-name="asciicircum" unicode="^" horiz-adv-x="389" 
d="M69 480l196 237h98l76 -237h-94l-53 117l-118 -117h-105z" />
    <glyph glyph-name="underscore" unicode="_" horiz-adv-x="450" 
d="M-61 0l24 96h453l-24 -96h-453z" />
    <glyph glyph-name="grave" unicode="`" horiz-adv-x="281" 
d="M293 648l29 -112h-70l-58 58q-57 57 -57 98q0 26 20 47.5t53 21.5q16 0 28 -6.5t19.5 -14.5t15 -26t11 -29.5t9.5 -36.5z" />
    <glyph glyph-name="a" unicode="a" 
d="M570 473l-82 -317q-7 -27 -7 -41q0 -24 19 -24q31 0 63 95l55 -20q-57 -177 -178 -177q-47 0 -74.5 25.5t-27.5 73.5q0 8 2 26l-8 3q-58 -128 -161 -128q-74 0 -112 48t-38 120q0 75 29 148.5t72 116.5q62 62 140 62q45 0 76 -28t42 -70l24 87h166zM238 90q32 0 61.5 42
t45 96t15.5 97q0 72 -45 72q-31 0 -59.5 -43t-44 -99t-15.5 -101q0 -64 42 -64z" />
    <glyph glyph-name="b" unicode="b" horiz-adv-x="558" 
d="M317 380q-31 0 -60.5 -41.5t-46.5 -99t-17 -106.5q0 -33 13 -50.5t32 -17.5q34 0 65 44.5t46.5 100t15.5 98.5q0 72 -48 72zM324 692l-110 -347l8 -3q75 142 173 142q71 0 107.5 -46t36.5 -126q0 -50 -20 -105.5t-56.5 -104.5t-95.5 -81t-129 -32q-98 0 -151 50.5
t-53 135.5q0 57 36 193l62 233h-66l23 91h235z" />
    <glyph glyph-name="c" unicode="c" horiz-adv-x="508" 
d="M320 484q71 0 120.5 -36t49.5 -105q0 -45 -27 -76t-66 -31q-33 0 -52.5 18.5t-19.5 48.5q0 28 18 47.5t39 25.5q-11 34 -52 34q-58 0 -97.5 -65.5t-39.5 -148.5q0 -62 26.5 -87t62.5 -25q69 0 129 77l48 -42q-96 -130 -231 -130q-95 0 -151.5 51.5t-56.5 140.5
q0 125 89.5 214t210.5 89z" />
    <glyph glyph-name="d" unicode="d" 
d="M238 90q48 0 86 84.5t38 158.5q0 64 -45 64q-34 0 -63 -43t-43.5 -98.5t-14.5 -101.5q0 -64 42 -64zM563 186l55 -20q-57 -177 -178 -177q-47 0 -74.5 25.5t-27.5 73.5q0 12 2 26l-8 3q-58 -128 -161 -128q-74 0 -112 48t-38 120q0 75 29 148.5t72 116.5q62 62 140 62
q44 0 75 -26t46 -63l54 206h-66l23 91h233l-139 -536q-7 -27 -7 -41q0 -24 19 -24q31 0 63 95z" />
    <glyph glyph-name="e" unicode="e" horiz-adv-x="509" 
d="M499 361q0 -74 -76.5 -120.5t-232.5 -47.5q0 -63 28 -89.5t70 -26.5q67 0 131 72l45 -42q-101 -118 -233 -118q-97 0 -154 51.5t-57 139.5q0 122 88.5 213t221.5 91q79 0 124 -34t45 -89zM309 416q-39 0 -71 -51t-43 -117q83 3 118 37t35 79q0 52 -39 52z" />
    <glyph glyph-name="f" unicode="f" horiz-adv-x="385" 
d="M-26 -177q-54 0 -86.5 26.5t-32.5 66.5q0 33 20.5 57t55.5 24q25 0 43 -17.5t18 -49.5q0 -29 -17 -53q26 -1 38.5 17.5t22.5 69.5l83 418h-85l20 78h80q54 239 256 239q79 0 123.5 -30.5t44.5 -78.5q0 -34 -22 -58.5t-60 -24.5q-33 0 -54.5 18.5t-21.5 48.5q0 38 28 59
q-11 6 -28 6q-42 0 -57.5 -28.5t-31.5 -107.5q-4 -18 -6 -28l-3 -15h138l-20 -78h-135l-66 -313q-27 -128 -91.5 -187t-153.5 -59z" />
    <glyph glyph-name="g" unicode="g" horiz-adv-x="573" 
d="M124 -114q21 -7 45 -7q51 0 84 33q42 42 77 183l-10 4q-48 -74 -134 -74q-76 0 -115.5 49t-39.5 126q0 135 87 222q62 62 139 62q50 0 84.5 -28.5t44.5 -69.5l24 87h166l-101 -433q-51 -217 -292 -217q-26 0 -54 4t-62.5 14.5t-56.5 35t-22 59.5q0 32 22 55.5t59 23.5
t57.5 -21.5t20.5 -53.5q0 -31 -23 -54zM255 117q45 0 76 65.5t31 138.5q0 76 -52 76q-32 0 -57 -35.5t-36.5 -81t-11.5 -85.5q0 -78 50 -78z" />
    <glyph glyph-name="h" unicode="h" horiz-adv-x="626" 
d="M431 -11q-51 0 -79 27.5t-28 70.5q0 45 33.5 137t33.5 115q0 27 -30 27q-97 0 -196 -366h-168l159 601h-66l23 91h235l-131 -415l8 -3q95 210 230 210q47 0 76.5 -27t29.5 -75q0 -53 -40.5 -154.5t-40.5 -117.5q0 -19 16 -19q30 0 69 95l55 -20q-64 -177 -189 -177z" />
    <glyph glyph-name="i" unicode="i" horiz-adv-x="374" 
d="M359 642q0 -39 -29 -70.5t-77 -31.5q-37 0 -61 22.5t-24 60.5q0 39 29 70.5t77 31.5q37 0 61 -22.5t24 -60.5zM308 394q0 -46 -41.5 -155.5t-41.5 -128.5t16 -19q30 0 69 95l55 -20q-64 -177 -188 -177q-49 0 -80 28t-31 75q0 40 41.5 147t41.5 125t-14 18q-23 0 -65 -96
l-55 20q37 89 83.5 133.5t108.5 44.5q44 0 72.5 -25t28.5 -65z" />
    <glyph glyph-name="j" unicode="j" horiz-adv-x="337" 
d="M358 642q0 -39 -29 -70.5t-77 -31.5q-37 0 -61 22.5t-24 60.5q0 39 29 70.5t77 31.5q37 0 61 -22.5t24 -60.5zM307 392q0 -35 -15 -95l-71 -267q-30 -112 -88 -159.5t-148 -47.5q-59 0 -92 26t-33 67q0 33 20.5 57t55.5 24q26 0 44.5 -18t18.5 -48q0 -35 -22 -59
q29 -2 48 27t41 116l57 227q25 97 25 122q0 18 -14 18q-23 0 -65 -96l-55 20q37 89 83.5 133.5t108.5 44.5q44 0 72.5 -25.5t28.5 -66.5z" />
    <glyph glyph-name="k" unicode="k" horiz-adv-x="588" 
d="M436 110q0 -19 17 -19q15 0 29.5 19t38.5 76l55 -20q-32 -87 -74.5 -132t-104.5 -45q-57 0 -86.5 30.5t-29.5 73.5q0 17 6 50t6 44q0 23 -12.5 32t-55.5 10l-60 -229h-168l159 601h-66l23 91h235l-108 -407q39 0 63.5 23.5t65.5 91.5q51 84 122 84q43 0 66 -24.5
t23 -62.5q0 -37 -21.5 -66t-58.5 -29q-33 0 -50 23t-11 57q-18 -12 -38 -47q-27 -45 -61 -69q58 -6 81.5 -28.5t23.5 -60.5q0 -16 -4.5 -37.5t-4.5 -29.5z" />
    <glyph glyph-name="l" unicode="l" horiz-adv-x="336" 
d="M30 91q0 29 12 74l116 436h-66l23 91h235l-137 -489q-24 -82 -24 -93q0 -19 16 -19q30 0 69 95l55 -20q-64 -177 -188 -177q-51 0 -81 26.5t-30 75.5z" />
    <glyph glyph-name="m" unicode="m" horiz-adv-x="965" 
d="M770 -11q-51 0 -79 27.5t-28 70.5q0 45 33.5 137t33.5 115q0 27 -28 27q-96 0 -187 -366h-168l68 248q19 69 19 91q0 27 -30 27q-98 0 -189 -366h-168l84 317q17 65 -2 65q-23 0 -65 -96l-55 20q38 88 82 133t103 45q36 0 59 -25t23 -71q0 -49 -16 -111l8 -3
q95 210 218 210q45 0 70 -24.5t25 -70.5q0 -31 -21 -112l8 -3q95 210 228 210q46 0 75 -27t29 -75q0 -53 -40.5 -154.5t-40.5 -117.5q0 -19 16 -19q30 0 69 95l55 -20q-64 -177 -189 -177z" />
    <glyph glyph-name="n" unicode="n" horiz-adv-x="669" 
d="M523 110q0 -19 16 -19q30 0 69 95l55 -20q-64 -177 -189 -177q-51 0 -79 27.5t-28 70.5q0 45 33.5 137t33.5 115q0 27 -30 27q-98 0 -189 -366h-168l84 317q17 65 -2 65q-23 0 -65 -96l-55 20q38 88 82 133t103 45q36 0 59 -25t23 -71q0 -49 -16 -111l8 -3
q95 210 230 210q47 0 76.5 -27t29.5 -75q0 -53 -40.5 -154.5t-40.5 -117.5z" />
    <glyph glyph-name="o" unicode="o" horiz-adv-x="554" 
d="M315 484q96 0 157.5 -55.5t61.5 -142.5q0 -121 -89.5 -209t-205.5 -88q-96 0 -157.5 55.5t-61.5 142.5q0 121 89.5 209t205.5 88zM364 345q0 70 -46 70q-29 0 -55 -34t-41 -82t-23.5 -94.5t-8.5 -76.5q0 -70 45 -70q39 0 70.5 58t45 122t13.5 107z" />
    <glyph glyph-name="p" unicode="p" horiz-adv-x="615" 
d="M374 380q-47 0 -80.5 -76.5t-33.5 -157.5q0 -70 48 -70q45 0 79.5 81t34.5 151q0 72 -48 72zM131 317q16 61 -6 61q-23 0 -61 -92l-55 20q39 92 78 135t93 43q43 0 67.5 -30.5t24.5 -81.5q0 -15 -1 -27l8 -3q30 71 75.5 106.5t94.5 35.5q73 0 110 -46t37 -126
q0 -68 -26.5 -138.5t-81.5 -122t-125 -51.5q-92 0 -127 82l-40 -155h80l-24 -91h-310l24 91h62z" />
    <glyph glyph-name="q" unicode="q" horiz-adv-x="581" 
d="M574 473l-133 -546h65l-24 -91h-310l24 91h77l46 172l-8 3q-55 -102 -143 -102q-69 0 -106.5 48t-37.5 124q0 71 26.5 138t70.5 111q63 63 142 63q47 0 78 -28t43 -70l24 87h166zM245 101q44 0 81.5 78t37.5 146q0 72 -47 72q-31 0 -59.5 -39.5t-43.5 -91.5t-15 -95
q0 -70 46 -70z" />
    <glyph glyph-name="r" unicode="r" horiz-adv-x="533" 
d="M47 0l84 317q17 65 -2 65q-23 0 -65 -96l-55 20q38 88 82 133t103 45q36 0 59 -25t23 -71q0 -45 -13 -99l8 -3q45 106 85 152t98 46q40 0 67 -28t27 -70q0 -46 -26.5 -76.5t-66.5 -30.5q-34 0 -58.5 22.5t-20.5 62.5q-76 -27 -161 -364h-168z" />
    <glyph glyph-name="s" unicode="s" horiz-adv-x="487" 
d="M444 147q0 -77 -63.5 -117.5t-156.5 -40.5q-98 0 -158.5 34.5t-60.5 87.5q0 36 23 58t57 22q38 0 58 -20.5t20 -48.5q0 -32 -22 -57q32 -16 70 -16q37 0 55.5 16.5t18.5 42.5q0 18 -16 34t-27.5 22t-44.5 22t-52 26.5t-40.5 28t-31.5 38t-10 46.5q0 75 65 117t154 42
t144.5 -34.5t55.5 -83.5q0 -33 -22.5 -54t-54.5 -21q-39 0 -60 21t-21 47q0 32 18 53q-19 12 -50 12q-35 0 -54.5 -17t-19.5 -40q0 -9 2.5 -16.5t9 -14.5t13 -12t18.5 -12t20 -11t24.5 -12t25.5 -13q27 -14 40.5 -22t34 -24.5t29.5 -36.5t9 -46z" />
    <glyph glyph-name="t" unicode="t" horiz-adv-x="424" 
d="M432 382h-149l-53 -199q-7 -24 -7 -44q0 -41 38 -41q49 0 84 101l57 -20q-58 -190 -207 -190q-60 0 -100 31t-40 94q0 35 13 84l50 184h-82l20 78h83l32 116l169 20l-36 -136h148z" />
    <glyph glyph-name="u" unicode="u" horiz-adv-x="674" 
d="M493 -11q-47 0 -74.5 25.5t-27.5 73.5q0 35 22 119l-8 3q-53 -121 -107.5 -171t-117.5 -50q-48 0 -78.5 27t-30.5 76q0 52 37 153t37 118q0 19 -16 19q-25 0 -65 -96l-55 20q64 178 187 178q51 0 79.5 -26.5t28.5 -69.5q0 -44 -32 -134t-32 -114q0 -33 30 -33
q94 0 185 366h168l-82 -317q-7 -27 -7 -41q0 -24 19 -24q31 0 63 95l55 -20q-57 -177 -178 -177z" />
    <glyph glyph-name="v" unicode="v" horiz-adv-x="561" 
d="M199 484q48 0 75 -25.5t27 -65.5q0 -41 -32 -122.5t-32 -108.5q0 -29 19.5 -47t47.5 -18q43 0 83 44t60 98t16 90q-15 -11 -42 -11q-31 0 -52.5 21.5t-21.5 55.5q0 37 26 64.5t65 27.5q47 0 77 -34t30 -103q0 -74 -37.5 -156.5t-108.5 -143.5t-152 -61q-74 0 -123 45.5
t-49 109.5q0 40 17.5 86.5t35.5 82.5t18 52q0 17 -15 17q-16 0 -32 -22.5t-41 -73.5l-55 20q40 89 87 133.5t109 44.5z" />
    <glyph glyph-name="w" unicode="w" horiz-adv-x="823" 
d="M199 484q48 0 75 -25.5t27 -65.5q0 -53 -42 -145t-42 -116q0 -37 34 -37q29 0 54.5 30.5t56.5 116t64 231.5h151l-27 -113q-28 -118 -28 -188q0 -75 57 -75q63 0 107.5 85t38.5 147q-15 -11 -42 -11q-31 0 -52.5 21.5t-21.5 55.5q0 37 26 64.5t65 27.5q47 0 77 -34
t30 -105q0 -55 -19 -116t-52.5 -116t-87.5 -91t-117 -36t-101.5 35.5t-38.5 115.5v2l-6 2q-70 -155 -188 -155q-61 0 -101.5 38t-40.5 100q0 42 22.5 89.5t45.5 86.5t23 62q0 17 -15 17q-16 0 -32 -22.5t-41 -73.5l-55 20q40 89 87 133.5t109 44.5z" />
    <glyph glyph-name="x" unicode="x" horiz-adv-x="628" 
d="M393 184q0 -85 48 -85q25 0 42.5 24.5t37.5 84.5l56 -20q-26 -94 -69 -146.5t-116 -52.5q-118 0 -141 147h-6q-58 -147 -161 -147q-41 0 -68 25t-27 66q0 37 21.5 64t57.5 27q39 0 57.5 -28.5t9.5 -63.5q45 15 72.5 81t27.5 129q0 85 -45 85q-25 0 -42.5 -24.5
t-37.5 -84.5l-56 20q26 95 68.5 147t118.5 52q113 0 136 -147h6q58 147 161 147q41 0 68 -25t27 -67q0 -37 -21.5 -63.5t-57.5 -26.5q-39 0 -57.5 28.5t-9.5 63.5q-45 -15 -72.5 -81t-27.5 -129z" />
    <glyph glyph-name="y" unicode="y" horiz-adv-x="596" 
d="M199 484q46 0 73 -26t27 -66q0 -42 -28.5 -124.5t-28.5 -101.5q0 -29 30 -29q13 0 23.5 4t29 23.5t35.5 53t40 99t46 156.5h154l-103 -431q-16 -66 -46 -111.5t-70.5 -68t-80 -31t-87.5 -8.5q-26 0 -51.5 3.5t-60 13t-56 33.5t-21.5 59q0 32 22 55.5t59 23.5q36 0 57 -21
t21 -50q0 -35 -27 -55q16 -6 40 -6q56 0 87.5 35t52.5 115l34 126l-6 3q-41 -74 -83 -102.5t-93 -28.5q-53 0 -81.5 28.5t-28.5 72.5q0 43 34 128t34 109q0 17 -15 17q-16 0 -32 -22.5t-41 -73.5l-55 20q40 89 87 133.5t109 44.5z" />
    <glyph glyph-name="z" unicode="z" horiz-adv-x="530" 
d="M202 159q39 -2 92.5 -11.5t71.5 -9.5q29 0 46.5 16t39.5 67l54 -15q-32 -117 -68.5 -167t-103.5 -50q-95 0 -152 84l-22 32l-9 -2q-10 -60 -35.5 -87t-53.5 -27q-33 0 -55 22.5t-22 53.5q0 76 144 96q48 56 93 89.5t108 63.5q-40 2 -88 11.5t-64 9.5q-30 0 -50.5 -16.5
t-41.5 -66.5l-54 15q32 116 70.5 166.5t108.5 50.5q82 0 139 -84l22 -32l9 2q10 60 35.5 87t53.5 27q33 0 55 -22.5t22 -53.5q0 -76 -144 -96q-48 -56 -93 -89.5t-108 -63.5z" />
    <glyph glyph-name="braceleft" unicode="{" horiz-adv-x="401" 
d="M320 -161q-235 17 -235 143q0 35 29 104.5t29 93.5q0 22 -27.5 37.5t-82.5 15.5h-15l24 99h25q77 0 106 29q22 22 31.5 63.5t10 81t14 85t43.5 75.5q41 41 105.5 52.5t152.5 7.5l-19 -82q-77 -4 -99 -27q-17 -17 -27.5 -56t-14.5 -77.5t-18 -81.5t-39 -68t-61 -35.5
t-96 -16.5l-2 -9q73 -12 107 -33.5t34 -61.5q0 -25 -24 -95.5t-24 -93.5q0 -29 20 -43.5t72 -23.5z" />
    <glyph glyph-name="bar" unicode="|" horiz-adv-x="291" 
d="M-14 -198l229 920l99 -14l-229 -920z" />
    <glyph glyph-name="braceright" unicode="}" horiz-adv-x="401" 
d="M105 727q235 -17 235 -143q0 -35 -29 -104.5t-29 -93.5q0 -22 27.5 -37.5t82.5 -15.5h15l-24 -99h-25q-77 0 -106 -29q-22 -22 -31.5 -63.5t-10 -81t-14 -85t-43.5 -75.5q-41 -41 -105.5 -52.5t-152.5 -7.5l19 82q76 4 99 27q17 17 27.5 56t14.5 77.5t18 81.5t39 68
t61 35.5t96 16.5l2 9q-73 12 -107 33.5t-34 61.5q0 25 24 95.5t24 93.5q0 29 -20 43.5t-72 23.5z" />
    <glyph glyph-name="asciitilde" unicode="~" horiz-adv-x="431" 
d="M161 290q-34 0 -58 -55h-73q29 96 58.5 138t86.5 42q31 0 78 -27t59 -27q34 0 58 55h73q-29 -96 -58.5 -138t-86.5 -42q-30 0 -77 27t-60 27z" />
    <glyph glyph-name="uni00A0" unicode="&#xa0;" horiz-adv-x="174" 
 />
    <glyph glyph-name="exclamdown" unicode="&#xa1;" horiz-adv-x="310" 
d="M254 448q-9 -106 -19 -287q-2 -35 -4 -55.5t-9 -47t-18 -40.5t-31.5 -24.5t-49.5 -10.5q-46 0 -76 25.5t-30 61.5t39 121q87 191 122 271zM247 684q38 0 63 -22.5t27 -56.5q0 -41 -27.5 -69t-71.5 -28q-38 0 -63 22.5t-27 56.5q0 41 28 69t71 28z" />
    <glyph glyph-name="cent" unicode="&#xa2;" horiz-adv-x="566" 
d="M333 570l84 -10l-20 -83q70 -14 106 -53t36 -88q0 -42 -23.5 -69.5t-62.5 -27.5q-33 0 -53 19t-20 50q0 26 14.5 45.5t33.5 25.5q-10 18 -57 27l-81 -321q9 -1 28 -1q79 0 143 77l48 -41q-37 -55 -97.5 -92.5t-141.5 -38.5l-23 -95l-84 10l23 94q-78 17 -120.5 69
t-42.5 127q0 117 80.5 201.5t208.5 88.5zM183 211q0 -71 40 -103l74 296q-57 -16 -85.5 -72t-28.5 -121z" />
    <glyph glyph-name="sterling" unicode="&#xa3;" horiz-adv-x="632" 
d="M493 264h-134q-14 -62 -64 -109q101 -32 151 -32q33 0 51 18t42 70l60 -14q-27 -113 -68 -163t-114 -50q-91 0 -189 82q-56 -82 -134 -82q-49 0 -77.5 25.5t-28.5 65.5q0 51 40.5 82.5t99.5 31.5q34 0 76 -8q1 9 1 21q0 28 -8 62h-136l22 87h93q-9 43 -9 71q0 104 80 166
t194 62q99 0 151 -40.5t52 -93.5q0 -45 -26.5 -74t-67.5 -29q-38 0 -60 20t-22 53q0 30 17.5 50t39.5 27q-29 24 -72 24q-54 0 -82.5 -35.5t-28.5 -96.5q0 -15 3 -31.5t7.5 -38t6.5 -34.5h156zM105 46q44 0 77 56q-34 18 -65 18q-20 0 -35.5 -11t-15.5 -30q0 -15 10.5 -24
t28.5 -9z" />
    <glyph glyph-name="yen" unicode="&#xa5;" horiz-adv-x="636" 
d="M104 353h131l-79 187h-73l23 94h310l-23 -92h-63l65 -174l146 174h-74l23 92h240l-23 -94h-62l-168 -187h128l-20 -80h-173l-12 -50h173l-20 -80h-173l-13 -53h83l-22 -90h-323l22 90h84l13 53h-172l20 80h172l12 50h-172z" />
    <glyph glyph-name="section" unicode="&#xa7;" horiz-adv-x="535" 
d="M519 294q0 -54 -39 -90.5t-109 -50.5q68 -47 68 -109q0 -80 -70 -126t-163 -46q-100 0 -166 37t-66 96q0 37 25 60.5t60 23.5q36 0 58 -19t22 -48q0 -36 -34 -59q33 -26 98 -26q46 0 67.5 17.5t21.5 46.5q0 27 -28.5 48.5t-97.5 53.5t-107 64.5t-38 82.5q0 55 40 91
t112 48q-66 45 -66 105q0 76 69.5 121.5t160.5 45.5q99 0 158.5 -36.5t59.5 -87.5q0 -35 -24 -57.5t-60 -22.5q-35 0 -58 18.5t-23 45.5q0 33 30 56q-29 19 -76 19q-43 0 -67 -17t-24 -44q0 -23 28 -43.5t95 -51.5q32 -15 53 -27t44 -30t34.5 -40.5t11.5 -48.5zM253 346
q-12 5 -36 17q-56 -23 -56 -66q0 -18 17.5 -35t37 -27.5t57.5 -28.5q34 -16 51 -25q54 24 54 66q0 15 -8.5 28t-32.5 27.5t-35.5 20t-48.5 23.5z" />
    <glyph glyph-name="dieresis" unicode="&#xa8;" horiz-adv-x="412" 
d="M280 622q0 -35 -24.5 -63.5t-65.5 -28.5q-32 0 -52.5 20.5t-20.5 54.5q0 35 24.5 63.5t65.5 28.5q32 0 52.5 -20.5t20.5 -54.5zM482 622q0 -35 -24.5 -63.5t-65.5 -28.5q-32 0 -52.5 20.5t-20.5 54.5q0 35 24.5 63.5t65.5 28.5q32 0 52.5 -20.5t20.5 -54.5z" />
    <glyph glyph-name="copyright" unicode="&#xa9;" horiz-adv-x="787" 
d="M393 -35q-160 0 -264.5 102.5t-104.5 260.5t104.5 261t264.5 103t264.5 -103t104.5 -261t-104.5 -260.5t-264.5 -102.5zM393 19q136 0 219.5 86t83.5 223t-83.5 223.5t-219.5 86.5t-219.5 -86.5t-83.5 -223.5t83.5 -223t219.5 -86zM403 140q-88 0 -140 50.5t-52 135.5
q0 86 51.5 140t125.5 54q70 0 104 -43l12 42h55v-145h-63q-16 51 -38 74t-56 23q-79 0 -79 -138q0 -135 94 -135q72 0 88 96h59q-7 -72 -47 -113t-114 -41z" />
    <glyph glyph-name="ordfeminine" unicode="&#xaa;" horiz-adv-x="459" 
d="M347 654h123l-57 -216q-5 -16 -5 -29q0 -16 14 -16q22 0 44 64l41 -14q-22 -66 -54 -97t-78 -31q-35 0 -55.5 18.5t-20.5 50.5q0 2 0.5 8.5t0.5 10.5l-5 2q-42 -90 -115 -90q-53 0 -80 34t-27 84q0 52 21 104t51 82q44 43 100 43q33 0 55 -20t30 -49zM233 391
q32 0 56.5 55.5t24.5 103.5t-30 48q-31 0 -55 -57t-24 -107q0 -43 28 -43z" />
    <glyph glyph-name="guillemotleft" unicode="&#xab;" horiz-adv-x="530" 
d="M191 32l-155 162q-18 19 -18 40q0 28 33 48l225 143l35 -47l-152 -154l80 -157zM413 32l-155 162q-18 19 -18 40q0 28 33 48l225 143l35 -47l-152 -154l80 -157z" />
    <glyph glyph-name="registered" unicode="&#xae;" horiz-adv-x="500" 
d="M315 247q-98 0 -161.5 62t-63.5 159t63.5 159.5t161.5 62.5q97 0 161 -63t64 -159t-64 -158.5t-161 -62.5zM315 286q81 0 130 50.5t49 131.5t-49 132t-130 51t-130 -51t-49 -132t49 -131.5t130 -50.5zM296 453v-61h29v-32h-119v32h27v156h-27v32h127q46 0 68 -16.5
t22 -40.5q0 -48 -73 -56v-1q32 -2 45 -13.5t16 -34.5l1 -8q2 -18 10 -18q7 0 13 22l22 -6q-11 -53 -55 -53q-55 0 -55 61v5q0 18 -6 25t-22 7h-23zM296 483h26q18 0 26 7t8 26t-7 26t-27 7h-26v-66z" />
    <glyph glyph-name="macron" unicode="&#xaf;" horiz-adv-x="381" 
d="M105 536l27 107h319l-27 -107h-319z" />
    <glyph glyph-name="degree" unicode="&#xb0;" horiz-adv-x="402" 
d="M259 415q40 0 63.5 35t23.5 80q0 34 -17.5 53t-48.5 19q-41 0 -64 -34.5t-23 -80.5q0 -34 18 -53t48 -19zM447 532q0 -83 -55.5 -136t-139.5 -53q-78 0 -120 41.5t-42 100.5q0 83 55.5 136t139.5 53q78 0 120 -41.5t42 -100.5z" />
    <glyph glyph-name="plusminus" unicode="&#xb1;" horiz-adv-x="539" 
d="M207 165l38 154h-151l20 80h151l38 151h89l-38 -151h151l-20 -80h-151l-38 -154h-89zM414 36h-391l20 80h391z" />
    <glyph glyph-name="acute" unicode="&#xb4;" horiz-adv-x="281" 
d="M280 595l-94 -59h-79l83 133q20 32 31.5 47.5t30.5 29.5t40 14q32 0 52 -20.5t20 -47.5q0 -16 -5.5 -29t-20 -26t-25 -20t-33.5 -22z" />
    <glyph glyph-name="paragraph" unicode="&#xb6;" horiz-adv-x="652" 
d="M229 -114l68 273q-108 1 -173 57t-65 152q0 121 96.5 188t266.5 67h303l-22 -91h-66l-161 -646h-92l161 648h-63l-161 -648h-92z" />
    <glyph glyph-name="periodcentered" unicode="&#xb7;" horiz-adv-x="271" 
d="M149 220q-38 0 -62.5 26.5t-24.5 65.5q0 48 30.5 81t73.5 33q38 0 62.5 -26.5t24.5 -65.5q0 -48 -30.5 -81t-73.5 -33z" />
    <glyph glyph-name="cedilla" unicode="&#xb8;" horiz-adv-x="361" 
d="M-65 -157q48 -27 96 -27q43 0 43 27q0 16 -24 25t-68 6l-16 47l126 87h86l-80 -64l1 -4q98 -21 98 -87q0 -47 -42 -76t-110 -29q-82 0 -147 41z" />
    <glyph glyph-name="ordmasculine" unicode="&#xba;" horiz-adv-x="396" 
d="M287 662q68 0 112 -39t44 -100q0 -84 -64 -146t-146 -62q-68 0 -112 39t-44 100q0 84 64 146t146 62zM318 562q0 48 -31 48q-37 0 -61 -71.5t-24 -123.5q0 -48 30 -48q38 0 62 71.5t24 123.5z" />
    <glyph glyph-name="guillemotright" unicode="&#xbb;" horiz-adv-x="530" 
d="M339 426l155 -162q18 -19 18 -40q0 -28 -33 -48l-225 -143l-35 47l152 154l-80 157zM117 426l155 -162q18 -19 18 -40q0 -28 -33 -48l-225 -143l-35 47l152 154l-80 157z" />
    <glyph glyph-name="questiondown" unicode="&#xbf;" horiz-adv-x="512" 
d="M156 430q70 43 147 43q53 0 93.5 -28t40.5 -83q0 -50 -38.5 -82t-115.5 -57q-36 -11 -55.5 -19t-41 -20.5t-31 -28t-9.5 -36.5q0 -32 22.5 -46t52.5 -14q42 0 61 12q-20 27 -20 54q0 30 23.5 54t66.5 24q37 0 61.5 -23t24.5 -61q0 -61 -64 -98.5t-154 -37.5
q-112 0 -167.5 47t-55.5 116q0 43 15.5 74.5t48 53t68.5 35t90 25.5q48 11 66 20.5t18 24.5q0 24 -34 24q-38 0 -86 -22zM365 684q40 0 65 -24.5t25 -59.5q0 -38 -29 -65t-70 -27q-40 0 -65 24.5t-25 59.5q0 39 29 65.5t70 26.5z" />
    <glyph glyph-name="Agrave" unicode="&#xc0;" horiz-adv-x="715" 
d="M342 96h73l-7 105h-202l-58 -105h85l-24 -96h-260l24 96h64l326 566h175l56 -566h79l-24 -96h-331zM254 289h149l-14 237h-4zM469 836l29 -112h-70l-58 58q-57 57 -57 98q0 26 20 47.5t53 21.5q16 0 28 -6.5t19.5 -14.5t15 -26t11 -29.5t9.5 -36.5z" />
    <glyph glyph-name="Aacute" unicode="&#xc1;" horiz-adv-x="715" 
d="M342 96h73l-7 105h-202l-58 -105h85l-24 -96h-260l24 96h64l326 566h175l56 -566h79l-24 -96h-331zM254 289h149l-14 237h-4zM571 783l-94 -59h-79l83 133q20 32 31.5 47.5t30.5 29.5t40 14q32 0 52 -20.5t20 -47.5q0 -16 -5.5 -29t-20 -26t-25 -20t-33.5 -22z" />
    <glyph glyph-name="Acircumflex" unicode="&#xc2;" horiz-adv-x="715" 
d="M342 96h73l-7 105h-202l-58 -105h85l-24 -96h-260l24 96h64l326 566h175l56 -566h79l-24 -96h-331zM254 289h149l-14 237h-4zM276 724l177 203h98l79 -203h-95l-55 83l-98 -83h-106z" />
    <glyph glyph-name="Atilde" unicode="&#xc3;" horiz-adv-x="715" 
d="M342 96h73l-7 105h-202l-58 -105h85l-24 -96h-260l24 96h64l326 566h175l56 -566h79l-24 -96h-331zM254 289h149l-14 237h-4zM399 773q-34 0 -58 -55h-73q29 96 58.5 138t86.5 42q35 0 88 -27t69 -27q34 0 58 55h73q-29 -96 -58.5 -138t-86.5 -42q-34 0 -87 27t-70 27z
" />
    <glyph glyph-name="Adieresis" unicode="&#xc4;" horiz-adv-x="715" 
d="M342 96h73l-7 105h-202l-58 -105h85l-24 -96h-260l24 96h64l326 566h175l56 -566h79l-24 -96h-331zM254 289h149l-14 237h-4zM462 810q0 -35 -24.5 -63.5t-65.5 -28.5q-32 0 -52.5 20.5t-20.5 54.5q0 35 24.5 63.5t65.5 28.5q32 0 52.5 -20.5t20.5 -54.5zM664 810
q0 -35 -24.5 -63.5t-65.5 -28.5q-32 0 -52.5 20.5t-20.5 54.5q0 35 24.5 63.5t65.5 28.5q32 0 52.5 -20.5t20.5 -54.5z" />
    <glyph glyph-name="Aring" unicode="&#xc5;" horiz-adv-x="715" 
d="M603 755q0 -73 -63 -111l54 -548h79l-24 -96h-331l24 96h73l-7 105h-204l-58 -105h87l-24 -96h-260l24 96h66l323 561q-32 30 -32 78q0 54 40 93t104 39q58 0 93.5 -32.5t35.5 -79.5zM252 289h151l-14 240h-4zM417 730q0 -21 10.5 -35.5t32.5 -14.5q23 0 39.5 22t16.5 58
q0 21 -10.5 35.5t-32.5 14.5q-23 0 -39.5 -22t-16.5 -58z" />
    <glyph glyph-name="AE" unicode="&#xc6;" horiz-adv-x="1057" 
d="M359 96h79l29 115h-226l-102 -117h76l-24 -94h-264l24 96h60l424 466h-88l24 96h741l-61 -243h-93q5 97 -11.5 123.5t-81.5 26.5h-130l-47 -187h26q35 0 49 14.5t38 73.5h89l-67 -269h-87q8 57 1 72.5t-42 15.5h-30l-48 -192h123q33 0 55.5 6t38.5 15.5t31 34t26.5 49.5
t30.5 73h104l-68 -271h-623zM317 299h172l65 259h-11z" />
    <glyph glyph-name="Ccedilla" unicode="&#xc7;" horiz-adv-x="685" 
d="M150 -157q48 -27 96 -27q43 0 43 27q0 16 -24 25t-68 6l-16 47l99 69q-104 18 -164.5 91t-60.5 186q0 65 22.5 134t64.5 131t113.5 102t159.5 40q127 0 184 -86l49 84h101l-65 -264h-111q-4 89 -42 133t-95 44q-52 0 -92.5 -40t-61 -98.5t-31 -111t-10.5 -89.5
q0 -47 13 -80.5t34 -49t41.5 -22t43.5 -6.5q69 0 110.5 42t77.5 130l91 -27q-83 -240 -289 -249l-50 -40l1 -4q98 -21 98 -87q0 -47 -42 -76t-110 -29q-82 0 -147 41z" />
    <glyph glyph-name="Egrave" unicode="&#xc8;" horiz-adv-x="690" 
d="M132 658h613l-61 -243h-93q5 97 -11.5 123.5t-81.5 26.5h-130l-47 -187h26q35 0 49 14.5t38 73.5h89l-67 -269h-87q8 57 1 72.5t-42 15.5h-30l-48 -192h123q33 0 55.5 6t38.5 15.5t31 34t26.5 49.5t30.5 73h104l-68 -271h-623l24 96h79l116 466h-79zM479 836l29 -112h-70
l-58 58q-57 57 -57 98q0 26 20 47.5t53 21.5q16 0 28 -6.5t19.5 -14.5t15 -26t11 -29.5t9.5 -36.5z" />
    <glyph glyph-name="Eacute" unicode="&#xc9;" horiz-adv-x="690" 
d="M132 658h613l-61 -243h-93q5 97 -11.5 123.5t-81.5 26.5h-130l-47 -187h26q35 0 49 14.5t38 73.5h89l-67 -269h-87q8 57 1 72.5t-42 15.5h-30l-48 -192h123q33 0 55.5 6t38.5 15.5t31 34t26.5 49.5t30.5 73h104l-68 -271h-623l24 96h79l116 466h-79zM581 783l-94 -59h-79
l83 133q20 32 31.5 47.5t30.5 29.5t40 14q32 0 52 -20.5t20 -47.5q0 -16 -5.5 -29t-20 -26t-25 -20t-33.5 -22z" />
    <glyph glyph-name="Ecircumflex" unicode="&#xca;" horiz-adv-x="690" 
d="M132 658h613l-61 -243h-93q5 97 -11.5 123.5t-81.5 26.5h-130l-47 -187h26q35 0 49 14.5t38 73.5h89l-67 -269h-87q8 57 1 72.5t-42 15.5h-30l-48 -192h123q33 0 55.5 6t38.5 15.5t31 34t26.5 49.5t30.5 73h104l-68 -271h-623l24 96h79l116 466h-79zM287 724l177 203h98
l79 -203h-95l-55 83l-98 -83h-106z" />
    <glyph glyph-name="Edieresis" unicode="&#xcb;" horiz-adv-x="690" 
d="M132 658h613l-61 -243h-93q5 97 -11.5 123.5t-81.5 26.5h-130l-47 -187h26q35 0 49 14.5t38 73.5h89l-67 -269h-87q8 57 1 72.5t-42 15.5h-30l-48 -192h123q33 0 55.5 6t38.5 15.5t31 34t26.5 49.5t30.5 73h104l-68 -271h-623l24 96h79l116 466h-79zM473 810
q0 -35 -24.5 -63.5t-65.5 -28.5q-32 0 -52.5 20.5t-20.5 54.5q0 35 24.5 63.5t65.5 28.5q32 0 52.5 -20.5t20.5 -54.5zM675 810q0 -35 -24.5 -63.5t-65.5 -28.5q-32 0 -52.5 20.5t-20.5 54.5q0 35 24.5 63.5t65.5 28.5q32 0 52.5 -20.5t20.5 -54.5z" />
    <glyph glyph-name="Igrave" unicode="&#xcc;" horiz-adv-x="392" 
d="M-32 0l24 96h79l116 466h-79l24 96h338l-24 -96h-79l-116 -466h79l-24 -96h-338zM323 836l29 -112h-70l-58 58q-57 57 -57 98q0 26 20 47.5t53 21.5q16 0 28 -6.5t19.5 -14.5t15 -26t11 -29.5t9.5 -36.5z" />
    <glyph glyph-name="Iacute" unicode="&#xcd;" horiz-adv-x="392" 
d="M-32 0l24 96h79l116 466h-79l24 96h338l-24 -96h-79l-116 -466h79l-24 -96h-338zM425 783l-94 -59h-79l83 133q20 32 31.5 47.5t30.5 29.5t40 14q32 0 52 -20.5t20 -47.5q0 -16 -5.5 -29t-20 -26t-25 -20t-33.5 -22z" />
    <glyph glyph-name="Icircumflex" unicode="&#xce;" horiz-adv-x="392" 
d="M-32 0l24 96h79l116 466h-79l24 96h338l-24 -96h-79l-116 -466h79l-24 -96h-338zM131 724l177 203h98l79 -203h-95l-55 83l-98 -83h-106z" />
    <glyph glyph-name="Idieresis" unicode="&#xcf;" horiz-adv-x="392" 
d="M-32 0l24 96h79l116 466h-79l24 96h338l-24 -96h-79l-116 -466h79l-24 -96h-338zM317 810q0 -35 -24.5 -63.5t-65.5 -28.5q-32 0 -52.5 20.5t-20.5 54.5q0 35 24.5 63.5t65.5 28.5q32 0 52.5 -20.5t20.5 -54.5zM519 810q0 -35 -24.5 -63.5t-65.5 -28.5q-32 0 -52.5 20.5
t-20.5 54.5q0 35 24.5 63.5t65.5 28.5q32 0 52.5 -20.5t20.5 -54.5z" />
    <glyph glyph-name="Eth" unicode="&#xd0;" horiz-adv-x="740" 
d="M-32 0l24 96h79l49 199h-78l23 96h79l43 171h-79l24 96h265q169 0 257 -72.5t88 -194.5q0 -166 -109 -275q-116 -116 -346 -116h-319zM250 93h52q55 0 90.5 13.5t70.5 48.5q39 39 65.5 117t26.5 151q0 74 -36 108t-114 34h-37l-44 -174h105l-23 -96h-106z" />
    <glyph glyph-name="Ntilde" unicode="&#xd1;" horiz-adv-x="778" 
d="M447 -6l-165 497h-9l-99 -395h84l-24 -96h-258l24 96h78l116 466h-79l24 96h270l151 -452h9l88 356h-84l24 96h259l-24 -96h-79l-141 -568h-165zM445 773q-34 0 -58 -55h-73q29 96 58.5 138t86.5 42q35 0 88 -27t69 -27q34 0 58 55h73q-29 -96 -58.5 -138t-86.5 -42
q-34 0 -87 27t-70 27z" />
    <glyph glyph-name="Ograve" unicode="&#xd2;" horiz-adv-x="746" 
d="M55 277q0 63 22.5 129t66 127.5t120 101t173.5 39.5q133 0 217 -81t84 -212q0 -49 -13 -101.5t-43.5 -106t-73 -95t-108 -68t-143.5 -26.5q-134 0 -218 81t-84 212zM438 585q-51 0 -91 -42t-62 -103.5t-33 -121t-11 -105.5q0 -72 30.5 -106t83.5 -34q51 0 91 42t62 103.5
t33 121t11 105.5q0 72 -31 106t-83 34zM494 836l29 -112h-70l-58 58q-57 57 -57 98q0 26 20 47.5t53 21.5q16 0 28 -6.5t19.5 -14.5t15 -26t11 -29.5t9.5 -36.5z" />
    <glyph glyph-name="Oacute" unicode="&#xd3;" horiz-adv-x="746" 
d="M55 277q0 63 22.5 129t66 127.5t120 101t173.5 39.5q133 0 217 -81t84 -212q0 -49 -13 -101.5t-43.5 -106t-73 -95t-108 -68t-143.5 -26.5q-134 0 -218 81t-84 212zM438 585q-51 0 -91 -42t-62 -103.5t-33 -121t-11 -105.5q0 -72 30.5 -106t83.5 -34q51 0 91 42t62 103.5
t33 121t11 105.5q0 72 -31 106t-83 34zM596 783l-94 -59h-79l83 133q20 32 31.5 47.5t30.5 29.5t40 14q32 0 52 -20.5t20 -47.5q0 -16 -5.5 -29t-20 -26t-25 -20t-33.5 -22z" />
    <glyph glyph-name="Ocircumflex" unicode="&#xd4;" horiz-adv-x="746" 
d="M55 277q0 63 22.5 129t66 127.5t120 101t173.5 39.5q133 0 217 -81t84 -212q0 -49 -13 -101.5t-43.5 -106t-73 -95t-108 -68t-143.5 -26.5q-134 0 -218 81t-84 212zM438 585q-51 0 -91 -42t-62 -103.5t-33 -121t-11 -105.5q0 -72 30.5 -106t83.5 -34q51 0 91 42t62 103.5
t33 121t11 105.5q0 72 -31 106t-83 34zM302 724l177 203h98l79 -203h-95l-55 83l-98 -83h-106z" />
    <glyph glyph-name="Otilde" unicode="&#xd5;" horiz-adv-x="746" 
d="M55 277q0 63 22.5 129t66 127.5t120 101t173.5 39.5q133 0 217 -81t84 -212q0 -49 -13 -101.5t-43.5 -106t-73 -95t-108 -68t-143.5 -26.5q-134 0 -218 81t-84 212zM438 585q-51 0 -91 -42t-62 -103.5t-33 -121t-11 -105.5q0 -72 30.5 -106t83.5 -34q51 0 91 42t62 103.5
t33 121t11 105.5q0 72 -31 106t-83 34zM424 773q-34 0 -58 -55h-73q29 96 58.5 138t86.5 42q34 0 87 -27t70 -27q34 0 58 55h73q-29 -96 -58.5 -138t-86.5 -42q-34 0 -87 27t-70 27z" />
    <glyph glyph-name="Odieresis" unicode="&#xd6;" horiz-adv-x="746" 
d="M55 277q0 63 22.5 129t66 127.5t120 101t173.5 39.5q133 0 217 -81t84 -212q0 -49 -13 -101.5t-43.5 -106t-73 -95t-108 -68t-143.5 -26.5q-134 0 -218 81t-84 212zM438 585q-51 0 -91 -42t-62 -103.5t-33 -121t-11 -105.5q0 -72 30.5 -106t83.5 -34q51 0 91 42t62 103.5
t33 121t11 105.5q0 72 -31 106t-83 34zM488 810q0 -35 -24.5 -63.5t-65.5 -28.5q-32 0 -52.5 20.5t-20.5 54.5q0 35 24.5 63.5t65.5 28.5q32 0 52.5 -20.5t20.5 -54.5zM690 810q0 -35 -24.5 -63.5t-65.5 -28.5q-32 0 -52.5 20.5t-20.5 54.5q0 35 24.5 63.5t65.5 28.5
q32 0 52.5 -20.5t20.5 -54.5z" />
    <glyph glyph-name="multiply" unicode="&#xd7;" horiz-adv-x="520" 
d="M335 281l99 -135l-78 -62l-95 137l-170 -143l-54 72l174 141l-100 136l78 62l95 -138l170 142l54 -72z" />
    <glyph glyph-name="Oslash" unicode="&#xd8;" horiz-adv-x="746" 
d="M55 277q0 63 22.5 129t66 127.5t120 101t173.5 39.5q105 0 182 -52l92 99l64 -58l-95 -100q58 -75 58 -182q0 -49 -13 -101.5t-43.5 -106t-73 -95t-108 -68t-143.5 -26.5q-106 0 -183 52l-92 -99l-64 58l94 99q-57 75 -57 183zM438 585q-50 0 -90 -41t-62 -101.5
t-33.5 -119t-11.5 -105.5l293 313q-28 54 -96 54zM355 73q50 0 90 40.5t61.5 101.5t33 119t12.5 106l-294 -313q28 -54 97 -54z" />
    <glyph glyph-name="Ugrave" unicode="&#xd9;" horiz-adv-x="727" 
d="M328 -16q-115 0 -178 52t-63 132q0 33 16 99l74 295h-79l24 96h344l-24 -96h-84l-77 -306q-11 -46 -11 -71q0 -47 30.5 -68t76.5 -21q64 0 104 40q37 37 56 111l79 315h-78l24 96h254l-24 -96h-75l-84 -336q-25 -103 -85 -163q-79 -79 -220 -79zM557 836l29 -112h-70
l-58 58q-57 57 -57 98q0 26 20 47.5t53 21.5q16 0 28 -6.5t19.5 -14.5t15 -26t11 -29.5t9.5 -36.5z" />
    <glyph glyph-name="Uacute" unicode="&#xda;" horiz-adv-x="727" 
d="M328 -16q-115 0 -178 52t-63 132q0 33 16 99l74 295h-79l24 96h344l-24 -96h-84l-77 -306q-11 -46 -11 -71q0 -47 30.5 -68t76.5 -21q64 0 104 40q37 37 56 111l79 315h-78l24 96h254l-24 -96h-75l-84 -336q-25 -103 -85 -163q-79 -79 -220 -79zM659 783l-94 -59h-79
l83 133q20 32 31.5 47.5t30.5 29.5t40 14q32 0 52 -20.5t20 -47.5q0 -16 -5.5 -29t-20 -26t-25 -20t-33.5 -22z" />
    <glyph glyph-name="Ucircumflex" unicode="&#xdb;" horiz-adv-x="727" 
d="M328 -16q-115 0 -178 52t-63 132q0 33 16 99l74 295h-79l24 96h344l-24 -96h-84l-77 -306q-11 -46 -11 -71q0 -47 30.5 -68t76.5 -21q64 0 104 40q37 37 56 111l79 315h-78l24 96h254l-24 -96h-75l-84 -336q-25 -103 -85 -163q-79 -79 -220 -79zM365 724l177 203h98
l79 -203h-95l-55 83l-98 -83h-106z" />
    <glyph glyph-name="Udieresis" unicode="&#xdc;" horiz-adv-x="727" 
d="M328 -16q-115 0 -178 52t-63 132q0 33 16 99l74 295h-79l24 96h344l-24 -96h-84l-77 -306q-11 -46 -11 -71q0 -47 30.5 -68t76.5 -21q64 0 104 40q37 37 56 111l79 315h-78l24 96h254l-24 -96h-75l-84 -336q-25 -103 -85 -163q-79 -79 -220 -79zM551 810
q0 -35 -24.5 -63.5t-65.5 -28.5q-32 0 -52.5 20.5t-20.5 54.5q0 35 24.5 63.5t65.5 28.5q32 0 52.5 -20.5t20.5 -54.5zM753 810q0 -35 -24.5 -63.5t-65.5 -28.5q-32 0 -52.5 20.5t-20.5 54.5q0 35 24.5 63.5t65.5 28.5q32 0 52.5 -20.5t20.5 -54.5z" />
    <glyph glyph-name="Yacute" unicode="&#xdd;" horiz-adv-x="665" 
d="M414 364l161 200h-79l24 94h260l-24 -96h-65l-249 -291l-44 -175h84l-24 -96h-348l24 96h84l43 172l-109 294h-75l24 96h344l-24 -94h-74zM576 783l-94 -59h-79l83 133q20 32 31.5 47.5t30.5 29.5t40 14q32 0 52 -20.5t20 -47.5q0 -16 -5.5 -29t-20 -26t-25 -20
t-33.5 -22z" />
    <glyph glyph-name="Thorn" unicode="&#xde;" horiz-adv-x="688" 
d="M-29 0l24 96h76l116 466h-76l24 96h338l-24 -96h-82l-12 -46h40q156 0 221.5 -39.5t65.5 -119.5q0 -39 -16.5 -74.5t-52 -67t-100.5 -50.5t-152 -19h-98l-12 -50h82l-24 -96h-338zM371 424h-39l-46 -186h62q40 0 68.5 11.5t42.5 30t20 37t6 38.5q0 39 -27.5 54t-86.5 15z
" />
    <glyph glyph-name="germandbls" unicode="&#xdf;" horiz-adv-x="652" 
d="M476 377q0 -23 57 -66q4 -3 6 -5q26 -20 42.5 -35.5t32.5 -45t16 -62.5q0 -73 -56.5 -123.5t-145.5 -50.5q-80 0 -120.5 29t-40.5 71q0 34 21 56.5t57 22.5q30 0 49 -18.5t19 -48.5q0 -29 -23 -54q13 -9 34 -9q28 0 46.5 21t18.5 52q0 26 -18 47t-54 49
q-27 21 -39.5 32.5t-25.5 32.5t-13 43q0 32 16.5 53.5t67.5 60.5q27 21 41 34.5t25.5 39t11.5 57.5q0 36 -19.5 57.5t-53.5 21.5q-49 0 -77 -39.5t-46 -124.5l-86 -408q-27 -128 -91.5 -187t-153.5 -59q-54 0 -86.5 26.5t-32.5 66.5q0 33 20.5 57t55.5 24q25 0 43 -17.5
t18 -49.5q0 -29 -17 -53q26 0 38.5 18t22.5 69l83 420h-85l20 78h80q55 239 292 239q105 0 166 -37t61 -95q0 -25 -8.5 -44.5t-27.5 -35t-32 -23t-40 -20.5q-40 -19 -54.5 -33t-14.5 -34z" />
    <glyph glyph-name="agrave" unicode="&#xe0;" 
d="M570 473l-82 -317q-7 -27 -7 -41q0 -24 19 -24q31 0 63 95l55 -20q-57 -177 -178 -177q-47 0 -74.5 25.5t-27.5 73.5q0 8 2 26l-8 3q-58 -128 -161 -128q-74 0 -112 48t-38 120q0 75 29 148.5t72 116.5q62 62 140 62q45 0 76 -28t42 -70l24 87h166zM238 90q32 0 61.5 42
t45 96t15.5 97q0 72 -45 72q-31 0 -59.5 -43t-44 -99t-15.5 -101q0 -64 42 -64zM366 648l29 -112h-70l-58 58q-57 57 -57 98q0 26 20 47.5t53 21.5q16 0 28 -6.5t19.5 -14.5t15 -26t11 -29.5t9.5 -36.5z" />
    <glyph glyph-name="aacute" unicode="&#xe1;" 
d="M570 473l-82 -317q-7 -27 -7 -41q0 -24 19 -24q31 0 63 95l55 -20q-57 -177 -178 -177q-47 0 -74.5 25.5t-27.5 73.5q0 8 2 26l-8 3q-58 -128 -161 -128q-74 0 -112 48t-38 120q0 75 29 148.5t72 116.5q62 62 140 62q45 0 76 -28t42 -70l24 87h166zM238 90q32 0 61.5 42
t45 96t15.5 97q0 72 -45 72q-31 0 -59.5 -43t-44 -99t-15.5 -101q0 -64 42 -64zM468 595l-94 -59h-79l83 133q20 32 31.5 47.5t30.5 29.5t40 14q32 0 52 -20.5t20 -47.5q0 -16 -5.5 -29t-20 -26t-25 -20t-33.5 -22z" />
    <glyph glyph-name="acircumflex" unicode="&#xe2;" 
d="M570 473l-82 -317q-7 -27 -7 -41q0 -24 19 -24q31 0 63 95l55 -20q-57 -177 -178 -177q-47 0 -74.5 25.5t-27.5 73.5q0 8 2 26l-8 3q-58 -128 -161 -128q-74 0 -112 48t-38 120q0 75 29 148.5t72 116.5q62 62 140 62q45 0 76 -28t42 -70l24 87h166zM238 90q32 0 61.5 42
t45 96t15.5 97q0 72 -45 72q-31 0 -59.5 -43t-44 -99t-15.5 -101q0 -64 42 -64zM173 536l177 203h98l79 -203h-95l-55 83l-98 -83h-106z" />
    <glyph glyph-name="atilde" unicode="&#xe3;" 
d="M570 473l-82 -317q-7 -27 -7 -41q0 -24 19 -24q31 0 63 95l55 -20q-57 -177 -178 -177q-47 0 -74.5 25.5t-27.5 73.5q0 8 2 26l-8 3q-58 -128 -161 -128q-74 0 -112 48t-38 120q0 75 29 148.5t72 116.5q62 62 140 62q45 0 76 -28t42 -70l24 87h166zM238 90q32 0 61.5 42
t45 96t15.5 97q0 72 -45 72q-31 0 -59.5 -43t-44 -99t-15.5 -101q0 -64 42 -64zM296 585q-34 0 -58 -55h-73q29 96 58.5 138t86.5 42q34 0 87 -27t70 -27q34 0 58 55h73q-29 -96 -58.5 -138t-86.5 -42q-34 0 -87 27t-70 27z" />
    <glyph glyph-name="adieresis" unicode="&#xe4;" 
d="M570 473l-82 -317q-7 -27 -7 -41q0 -24 19 -24q31 0 63 95l55 -20q-57 -177 -178 -177q-47 0 -74.5 25.5t-27.5 73.5q0 8 2 26l-8 3q-58 -128 -161 -128q-74 0 -112 48t-38 120q0 75 29 148.5t72 116.5q62 62 140 62q45 0 76 -28t42 -70l24 87h166zM238 90q32 0 61.5 42
t45 96t15.5 97q0 72 -45 72q-31 0 -59.5 -43t-44 -99t-15.5 -101q0 -64 42 -64zM359 622q0 -35 -24.5 -63.5t-65.5 -28.5q-32 0 -52.5 20.5t-20.5 54.5q0 35 24.5 63.5t65.5 28.5q32 0 52.5 -20.5t20.5 -54.5zM561 622q0 -35 -24.5 -63.5t-65.5 -28.5q-32 0 -52.5 20.5
t-20.5 54.5q0 35 24.5 63.5t65.5 28.5q32 0 52.5 -20.5t20.5 -54.5z" />
    <glyph glyph-name="aring" unicode="&#xe5;" 
d="M570 473l-82 -317q-7 -27 -7 -41q0 -24 19 -24q31 0 63 95l55 -20q-57 -177 -178 -177q-47 0 -74.5 25.5t-27.5 73.5q0 8 2 26l-8 3q-58 -128 -161 -128q-74 0 -112 48t-38 120q0 75 29 148.5t72 116.5q62 62 140 62q45 0 76 -28t42 -70l24 87h166zM238 90q32 0 61.5 42
t45 96t15.5 97q0 72 -45 72q-31 0 -59.5 -43t-44 -99t-15.5 -101q0 -64 42 -64zM527 662q0 -54 -40 -93t-104 -39q-58 0 -93.5 32.5t-35.5 79.5q0 54 40 93t104 39q58 0 93.5 -32.5t35.5 -79.5zM341 637q0 -21 10.5 -35.5t32.5 -14.5q23 0 39.5 22t16.5 58q0 21 -10.5 35.5
t-32.5 14.5q-23 0 -39.5 -22t-16.5 -58z" />
    <glyph glyph-name="ae" unicode="&#xe6;" horiz-adv-x="786" 
d="M607 484q79 0 124 -34t45 -89q0 -74 -76.5 -120.5t-232.5 -47.5q0 -63 28 -89.5t70 -26.5q67 0 131 72l45 -42q-101 -118 -233 -118q-131 0 -178 89q-81 -89 -185 -89q-67 0 -102 34t-35 84q0 43 23 74t67.5 48.5t97 26t122.5 11.5q12 44 12 71q0 65 -78 65q-26 0 -46 -7
q14 -14 14 -37q0 -33 -24 -53t-57 -20q-36 0 -54.5 20.5t-18.5 45.5q0 66 64 99t158 33q110 0 152 -50q76 50 167 50zM586 416q-39 0 -71 -51t-43 -117q83 3 118 37t35 79q0 52 -39 52zM307 181q0 23 2 35q-30 -3 -51 -6.5t-44 -12t-35 -24t-12 -37.5t13.5 -37.5t35.5 -15.5
q51 0 95 51q-4 28 -4 47z" />
    <glyph glyph-name="ccedilla" unicode="&#xe7;" horiz-adv-x="508" 
d="M55 -157q48 -27 96 -27q43 0 43 27q0 16 -24 25t-68 6l-16 47l102 71q-78 10 -123 60t-45 129q0 125 89.5 214t210.5 89q71 0 120.5 -36t49.5 -105q0 -45 -27 -76t-66 -31q-33 0 -52.5 18.5t-19.5 48.5q0 28 18 47.5t39 25.5q-11 34 -52 34q-58 0 -97.5 -65.5
t-39.5 -148.5q0 -62 26.5 -87t62.5 -25q69 0 129 77l48 -42q-78 -105 -179 -125l-62 -50l1 -4q98 -21 98 -87q0 -47 -42 -76t-110 -29q-82 0 -147 41z" />
    <glyph glyph-name="egrave" unicode="&#xe8;" horiz-adv-x="509" 
d="M499 361q0 -74 -76.5 -120.5t-232.5 -47.5q0 -63 28 -89.5t70 -26.5q67 0 131 72l45 -42q-101 -118 -233 -118q-97 0 -154 51.5t-57 139.5q0 122 88.5 213t221.5 91q79 0 124 -34t45 -89zM336 648l29 -112h-70l-58 58q-57 57 -57 98q0 26 20 47.5t53 21.5q16 0 28 -6.5
t19.5 -14.5t15 -26t11 -29.5t9.5 -36.5zM309 416q-39 0 -71 -51t-43 -117q83 3 118 37t35 79q0 52 -39 52z" />
    <glyph glyph-name="eacute" unicode="&#xe9;" horiz-adv-x="509" 
d="M499 361q0 -74 -76.5 -120.5t-232.5 -47.5q0 -63 28 -89.5t70 -26.5q67 0 131 72l45 -42q-101 -118 -233 -118q-97 0 -154 51.5t-57 139.5q0 122 88.5 213t221.5 91q79 0 124 -34t45 -89zM438 595l-94 -59h-79l83 133q20 32 31.5 47.5t30.5 29.5t40 14q32 0 52 -20.5
t20 -47.5q0 -16 -5.5 -29t-20 -26t-25 -20t-33.5 -22zM309 416q-39 0 -71 -51t-43 -117q83 3 118 37t35 79q0 52 -39 52z" />
    <glyph glyph-name="ecircumflex" unicode="&#xea;" horiz-adv-x="509" 
d="M499 361q0 -74 -76.5 -120.5t-232.5 -47.5q0 -63 28 -89.5t70 -26.5q67 0 131 72l45 -42q-101 -118 -233 -118q-97 0 -154 51.5t-57 139.5q0 122 88.5 213t221.5 91q79 0 124 -34t45 -89zM143 536l177 203h98l79 -203h-95l-55 83l-98 -83h-106zM309 416q-39 0 -71 -51
t-43 -117q83 3 118 37t35 79q0 52 -39 52z" />
    <glyph glyph-name="edieresis" unicode="&#xeb;" horiz-adv-x="509" 
d="M499 361q0 -74 -76.5 -120.5t-232.5 -47.5q0 -63 28 -89.5t70 -26.5q67 0 131 72l45 -42q-101 -118 -233 -118q-97 0 -154 51.5t-57 139.5q0 122 88.5 213t221.5 91q79 0 124 -34t45 -89zM531 622q0 -35 -24.5 -63.5t-65.5 -28.5q-32 0 -52.5 20.5t-20.5 54.5
q0 35 24.5 63.5t65.5 28.5q32 0 52.5 -20.5t20.5 -54.5zM329 622q0 -35 -24.5 -63.5t-65.5 -28.5q-32 0 -52.5 20.5t-20.5 54.5q0 35 24.5 63.5t65.5 28.5q32 0 52.5 -20.5t20.5 -54.5zM309 416q-39 0 -71 -51t-43 -117q83 3 118 37t35 79q0 52 -39 52z" />
    <glyph glyph-name="igrave" unicode="&#xec;" horiz-adv-x="374" 
d="M308 394q0 -46 -41.5 -155.5t-41.5 -128.5t16 -19q30 0 69 95l55 -20q-64 -177 -188 -177q-49 0 -80 28t-31 75q0 40 41.5 147t41.5 125t-14 18q-23 0 -65 -96l-55 20q37 89 83.5 133.5t108.5 44.5q44 0 72.5 -25t28.5 -65zM226 648l29 -112h-70l-58 58q-57 57 -57 98
q0 26 20 47.5t53 21.5q16 0 28 -6.5t19.5 -14.5t15 -26t11 -29.5t9.5 -36.5z" />
    <glyph glyph-name="iacute" unicode="&#xed;" horiz-adv-x="374" 
d="M308 394q0 -46 -41.5 -155.5t-41.5 -128.5t16 -19q30 0 69 95l55 -20q-64 -177 -188 -177q-49 0 -80 28t-31 75q0 40 41.5 147t41.5 125t-14 18q-23 0 -65 -96l-55 20q37 89 83.5 133.5t108.5 44.5q44 0 72.5 -25t28.5 -65zM328 595l-94 -59h-79l83 133q20 32 31.5 47.5
t30.5 29.5t40 14q32 0 52 -20.5t20 -47.5q0 -16 -5.5 -29t-20 -26t-25 -20t-33.5 -22z" />
    <glyph glyph-name="icircumflex" unicode="&#xee;" horiz-adv-x="374" 
d="M308 394q0 -46 -41.5 -155.5t-41.5 -128.5t16 -19q30 0 69 95l55 -20q-64 -177 -188 -177q-49 0 -80 28t-31 75q0 40 41.5 147t41.5 125t-14 18q-23 0 -65 -96l-55 20q37 89 83.5 133.5t108.5 44.5q44 0 72.5 -25t28.5 -65zM33 536l177 203h98l79 -203h-95l-55 83
l-98 -83h-106z" />
    <glyph glyph-name="idieresis" unicode="&#xef;" horiz-adv-x="374" 
d="M308 394q0 -46 -41.5 -155.5t-41.5 -128.5t16 -19q30 0 69 95l55 -20q-64 -177 -188 -177q-49 0 -80 28t-31 75q0 40 41.5 147t41.5 125t-14 18q-23 0 -65 -96l-55 20q37 89 83.5 133.5t108.5 44.5q44 0 72.5 -25t28.5 -65zM219 622q0 -35 -24.5 -63.5t-65.5 -28.5
q-32 0 -52.5 20.5t-20.5 54.5q0 35 24.5 63.5t65.5 28.5q32 0 52.5 -20.5t20.5 -54.5zM421 622q0 -35 -24.5 -63.5t-65.5 -28.5q-32 0 -52.5 20.5t-20.5 54.5q0 35 24.5 63.5t65.5 28.5q32 0 52.5 -20.5t20.5 -54.5z" />
    <glyph glyph-name="eth" unicode="&#xf0;" horiz-adv-x="560" 
d="M585 602l-91 -29q50 -98 50 -206q0 -89 -25.5 -162t-68.5 -119.5t-97.5 -71.5t-114.5 -25q-96 0 -157.5 55.5t-61.5 142.5q0 117 73.5 192t166.5 75q83 0 126 -47q3 56 -20 126l-124 -38l-21 70l117 36q-16 33 -42 68l101 34q34 -32 58 -65l110 34zM358 304q0 70 -45 70
q-51 0 -87.5 -87.5t-36.5 -158.5q0 -70 45 -70q51 0 87.5 87.5t36.5 158.5z" />
    <glyph glyph-name="ntilde" unicode="&#xf1;" horiz-adv-x="669" 
d="M523 110q0 -19 16 -19q30 0 69 95l55 -20q-64 -177 -189 -177q-51 0 -79 27.5t-28 70.5q0 45 33.5 137t33.5 115q0 27 -30 27q-98 0 -189 -366h-168l84 317q17 65 -2 65q-23 0 -65 -96l-55 20q38 88 82 133t103 45q36 0 59 -25t23 -71q0 -49 -16 -111l8 -3
q95 210 230 210q47 0 76.5 -27t29.5 -75q0 -53 -40.5 -154.5t-40.5 -117.5zM331 585q-34 0 -58 -55h-73q29 96 58.5 138t86.5 42q35 0 88 -27t69 -27q34 0 58 55h73q-29 -96 -58.5 -138t-86.5 -42q-34 0 -87 27t-70 27z" />
    <glyph glyph-name="ograve" unicode="&#xf2;" horiz-adv-x="554" 
d="M315 484q96 0 157.5 -55.5t61.5 -142.5q0 -121 -89.5 -209t-205.5 -88q-96 0 -157.5 55.5t-61.5 142.5q0 121 89.5 209t205.5 88zM364 345q0 70 -46 70q-29 0 -55 -34t-41 -82t-23.5 -94.5t-8.5 -76.5q0 -70 45 -70q39 0 70.5 58t45 122t13.5 107zM346 648l29 -112h-70
l-58 58q-57 57 -57 98q0 26 20 47.5t53 21.5q16 0 28 -6.5t19.5 -14.5t15 -26t11 -29.5t9.5 -36.5z" />
    <glyph glyph-name="oacute" unicode="&#xf3;" horiz-adv-x="554" 
d="M315 484q96 0 157.5 -55.5t61.5 -142.5q0 -121 -89.5 -209t-205.5 -88q-96 0 -157.5 55.5t-61.5 142.5q0 121 89.5 209t205.5 88zM364 345q0 70 -46 70q-29 0 -55 -34t-41 -82t-23.5 -94.5t-8.5 -76.5q0 -70 45 -70q39 0 70.5 58t45 122t13.5 107zM448 595l-94 -59h-79
l83 133q20 32 31.5 47.5t30.5 29.5t40 14q32 0 52 -20.5t20 -47.5q0 -16 -5.5 -29t-20 -26t-25 -20t-33.5 -22z" />
    <glyph glyph-name="ocircumflex" unicode="&#xf4;" horiz-adv-x="554" 
d="M315 484q96 0 157.5 -55.5t61.5 -142.5q0 -121 -89.5 -209t-205.5 -88q-96 0 -157.5 55.5t-61.5 142.5q0 121 89.5 209t205.5 88zM364 345q0 70 -46 70q-29 0 -55 -34t-41 -82t-23.5 -94.5t-8.5 -76.5q0 -70 45 -70q39 0 70.5 58t45 122t13.5 107zM153 536l177 203h98
l79 -203h-95l-55 83l-98 -83h-106z" />
    <glyph glyph-name="otilde" unicode="&#xf5;" horiz-adv-x="554" 
d="M315 484q96 0 157.5 -55.5t61.5 -142.5q0 -121 -89.5 -209t-205.5 -88q-96 0 -157.5 55.5t-61.5 142.5q0 121 89.5 209t205.5 88zM364 345q0 70 -46 70q-29 0 -55 -34t-41 -82t-23.5 -94.5t-8.5 -76.5q0 -70 45 -70q39 0 70.5 58t45 122t13.5 107zM276 585q-34 0 -58 -55
h-73q29 96 58.5 138t86.5 42q34 0 87 -27t70 -27q34 0 58 55h73q-29 -96 -58.5 -138t-86.5 -42q-34 0 -87 27t-70 27z" />
    <glyph glyph-name="odieresis" unicode="&#xf6;" horiz-adv-x="554" 
d="M315 484q96 0 157.5 -55.5t61.5 -142.5q0 -121 -89.5 -209t-205.5 -88q-96 0 -157.5 55.5t-61.5 142.5q0 121 89.5 209t205.5 88zM364 345q0 70 -46 70q-29 0 -55 -34t-41 -82t-23.5 -94.5t-8.5 -76.5q0 -70 45 -70q39 0 70.5 58t45 122t13.5 107zM339 622
q0 -35 -24.5 -63.5t-65.5 -28.5q-32 0 -52.5 20.5t-20.5 54.5q0 35 24.5 63.5t65.5 28.5q32 0 52.5 -20.5t20.5 -54.5zM541 622q0 -35 -24.5 -63.5t-65.5 -28.5q-32 0 -52.5 20.5t-20.5 54.5q0 35 24.5 63.5t65.5 28.5q32 0 52.5 -20.5t20.5 -54.5z" />
    <glyph glyph-name="divide" unicode="&#xf7;" horiz-adv-x="519" 
d="M482 243h-441l21 87h441zM223 33q-32 0 -52 21t-20 52q0 38 25 64.5t60 26.5q32 0 52 -21t20 -52q0 -38 -25 -64.5t-60 -26.5zM308 375q-32 0 -52 21t-20 52q0 38 25 64.5t60 26.5q32 0 52 -21t20 -52q0 -38 -25 -64.5t-60 -26.5z" />
    <glyph glyph-name="oslash" unicode="&#xf8;" horiz-adv-x="554" 
d="M58 -52l-51 46l60 65q-47 52 -47 128q0 121 89.5 209t205.5 88q66 0 117 -28l64 69l51 -46l-60 -65q47 -53 47 -128q0 -121 -89.5 -209t-205.5 -88q-65 0 -117 27zM318 415q-45 0 -77.5 -71t-45.5 -156l166 186q-7 41 -43 41zM235 58q45 0 77.5 70t45.5 155l-166 -185
q8 -40 43 -40z" />
    <glyph glyph-name="ugrave" unicode="&#xf9;" horiz-adv-x="674" 
d="M493 -11q-47 0 -74.5 25.5t-27.5 73.5q0 35 22 119l-8 3q-53 -121 -107.5 -171t-117.5 -50q-48 0 -78.5 27t-30.5 76q0 52 37 153t37 118q0 19 -16 19q-25 0 -65 -96l-55 20q64 178 187 178q51 0 79.5 -26.5t28.5 -69.5q0 -44 -32 -134t-32 -114q0 -33 30 -33
q94 0 185 366h168l-82 -317q-7 -27 -7 -41q0 -24 19 -24q31 0 63 95l55 -20q-57 -177 -178 -177zM391 648l29 -112h-70l-58 58q-57 57 -57 98q0 26 20 47.5t53 21.5q16 0 28 -6.5t19.5 -14.5t15 -26t11 -29.5t9.5 -36.5z" />
    <glyph glyph-name="uacute" unicode="&#xfa;" horiz-adv-x="674" 
d="M493 -11q-47 0 -74.5 25.5t-27.5 73.5q0 35 22 119l-8 3q-53 -121 -107.5 -171t-117.5 -50q-48 0 -78.5 27t-30.5 76q0 52 37 153t37 118q0 19 -16 19q-25 0 -65 -96l-55 20q64 178 187 178q51 0 79.5 -26.5t28.5 -69.5q0 -44 -32 -134t-32 -114q0 -33 30 -33
q94 0 185 366h168l-82 -317q-7 -27 -7 -41q0 -24 19 -24q31 0 63 95l55 -20q-57 -177 -178 -177zM493 595l-94 -59h-79l83 133q20 32 31.5 47.5t30.5 29.5t40 14q32 0 52 -20.5t20 -47.5q0 -16 -5.5 -29t-20 -26t-25 -20t-33.5 -22z" />
    <glyph glyph-name="ucircumflex" unicode="&#xfb;" horiz-adv-x="674" 
d="M493 -11q-47 0 -74.5 25.5t-27.5 73.5q0 35 22 119l-8 3q-53 -121 -107.5 -171t-117.5 -50q-48 0 -78.5 27t-30.5 76q0 52 37 153t37 118q0 19 -16 19q-25 0 -65 -96l-55 20q64 178 187 178q51 0 79.5 -26.5t28.5 -69.5q0 -44 -32 -134t-32 -114q0 -33 30 -33
q94 0 185 366h168l-82 -317q-7 -27 -7 -41q0 -24 19 -24q31 0 63 95l55 -20q-57 -177 -178 -177zM198 536l177 203h98l79 -203h-95l-55 83l-98 -83h-106z" />
    <glyph glyph-name="udieresis" unicode="&#xfc;" horiz-adv-x="674" 
d="M493 -11q-47 0 -74.5 25.5t-27.5 73.5q0 35 22 119l-8 3q-53 -121 -107.5 -171t-117.5 -50q-48 0 -78.5 27t-30.5 76q0 52 37 153t37 118q0 19 -16 19q-25 0 -65 -96l-55 20q64 178 187 178q51 0 79.5 -26.5t28.5 -69.5q0 -44 -32 -134t-32 -114q0 -33 30 -33
q94 0 185 366h168l-82 -317q-7 -27 -7 -41q0 -24 19 -24q31 0 63 95l55 -20q-57 -177 -178 -177zM384 622q0 -35 -24.5 -63.5t-65.5 -28.5q-32 0 -52.5 20.5t-20.5 54.5q0 35 24.5 63.5t65.5 28.5q32 0 52.5 -20.5t20.5 -54.5zM586 622q0 -35 -24.5 -63.5t-65.5 -28.5
q-32 0 -52.5 20.5t-20.5 54.5q0 35 24.5 63.5t65.5 28.5q32 0 52.5 -20.5t20.5 -54.5z" />
    <glyph glyph-name="yacute" unicode="&#xfd;" horiz-adv-x="596" 
d="M199 484q46 0 73 -26t27 -66q0 -42 -28.5 -124.5t-28.5 -101.5q0 -29 30 -29q13 0 23.5 4t29 23.5t35.5 53t40 99t46 156.5h154l-103 -431q-16 -66 -46 -111.5t-70.5 -68t-80 -31t-87.5 -8.5q-26 0 -51.5 3.5t-60 13t-56 33.5t-21.5 59q0 32 22 55.5t59 23.5q36 0 57 -21
t21 -50q0 -35 -27 -55q16 -6 40 -6q56 0 87.5 35t52.5 115l34 126l-6 3q-41 -74 -83 -102.5t-93 -28.5q-53 0 -81.5 28.5t-28.5 72.5q0 43 34 128t34 109q0 17 -15 17q-16 0 -32 -22.5t-41 -73.5l-55 20q40 89 87 133.5t109 44.5zM479 595l-94 -59h-79l83 133
q20 32 31.5 47.5t30.5 29.5t40 14q32 0 52 -20.5t20 -47.5q0 -16 -5.5 -29t-20 -26t-25 -20t-33.5 -22z" />
    <glyph glyph-name="thorn" unicode="&#xfe;" horiz-adv-x="572" 
d="M331 380q-47 0 -80.5 -76.5t-33.5 -157.5q0 -70 48 -70q45 0 79.5 81t34.5 151q0 72 -48 72zM348 692l-100 -316l9 -3q26 51 65 81t84 30q73 0 110 -46t37 -126q0 -68 -26.5 -138.5t-81.5 -122t-125 -51.5q-92 0 -127 82l-40 -155h80l-24 -91h-310l24 91h62l171 674h-66
l23 91h235z" />
    <glyph glyph-name="ydieresis" unicode="&#xff;" horiz-adv-x="596" 
d="M199 484q46 0 73 -26t27 -66q0 -42 -28.5 -124.5t-28.5 -101.5q0 -29 30 -29q13 0 23.5 4t29 23.5t35.5 53t40 99t46 156.5h154l-103 -431q-16 -66 -46 -111.5t-70.5 -68t-80 -31t-87.5 -8.5q-26 0 -51.5 3.5t-60 13t-56 33.5t-21.5 59q0 32 22 55.5t59 23.5q36 0 57 -21
t21 -50q0 -35 -27 -55q16 -6 40 -6q56 0 87.5 35t52.5 115l34 126l-6 3q-41 -74 -83 -102.5t-93 -28.5q-53 0 -81.5 28.5t-28.5 72.5q0 43 34 128t34 109q0 17 -15 17q-16 0 -32 -22.5t-41 -73.5l-55 20q40 89 87 133.5t109 44.5zM370 622q0 -35 -24.5 -63.5t-65.5 -28.5
q-32 0 -52.5 20.5t-20.5 54.5q0 35 24.5 63.5t65.5 28.5q32 0 52.5 -20.5t20.5 -54.5zM572 622q0 -35 -24.5 -63.5t-65.5 -28.5q-32 0 -52.5 20.5t-20.5 54.5q0 35 24.5 63.5t65.5 28.5q32 0 52.5 -20.5t20.5 -54.5z" />
    <glyph glyph-name="Amacron" unicode="&#x100;" horiz-adv-x="715" 
d="M342 96h73l-7 105h-202l-58 -105h85l-24 -96h-260l24 96h64l326 566h175l56 -566h79l-24 -96h-331zM254 289h149l-14 237h-4zM303 724l27 107h319l-27 -107h-319z" />
    <glyph glyph-name="amacron" unicode="&#x101;" 
d="M570 473l-82 -317q-7 -27 -7 -41q0 -24 19 -24q31 0 63 95l55 -20q-57 -177 -178 -177q-47 0 -74.5 25.5t-27.5 73.5q0 8 2 26l-8 3q-58 -128 -161 -128q-74 0 -112 48t-38 120q0 75 29 148.5t72 116.5q62 62 140 62q45 0 76 -28t42 -70l24 87h166zM238 90q32 0 61.5 42
t45 96t15.5 97q0 72 -45 72q-31 0 -59.5 -43t-44 -99t-15.5 -101q0 -64 42 -64zM200 536l27 107h319l-27 -107h-319z" />
    <glyph glyph-name="Abreve" unicode="&#x102;" horiz-adv-x="715" 
d="M342 96h73l-7 105h-202l-58 -105h85l-24 -96h-260l24 96h64l326 566h175l56 -566h79l-24 -96h-331zM254 289h149l-14 237h-4zM466 718q-76 0 -112.5 49t-14.5 146h79q-5 -44 14 -64t52 -20q74 0 99 84h83q-18 -98 -70 -146.5t-130 -48.5z" />
    <glyph glyph-name="abreve" unicode="&#x103;" 
d="M570 473l-82 -317q-7 -27 -7 -41q0 -24 19 -24q31 0 63 95l55 -20q-57 -177 -178 -177q-47 0 -74.5 25.5t-27.5 73.5q0 8 2 26l-8 3q-58 -128 -161 -128q-74 0 -112 48t-38 120q0 75 29 148.5t72 116.5q62 62 140 62q45 0 76 -28t42 -70l24 87h166zM238 90q32 0 61.5 42
t45 96t15.5 97q0 72 -45 72q-31 0 -59.5 -43t-44 -99t-15.5 -101q0 -64 42 -64zM362 530q-76 0 -112.5 49t-14.5 146h79q-5 -44 14 -64t52 -20q74 0 99 84h83q-18 -98 -70 -146.5t-130 -48.5z" />
    <glyph glyph-name="Aogonek" unicode="&#x104;" horiz-adv-x="715" 
d="M592 -215q-62 -38 -127 -38q-56 0 -94 24.5t-38 75.5q0 46 36.5 81.5t105.5 71.5h-157l24 96h73l-7 105h-202l-58 -105h85l-24 -96h-260l24 96h64l326 566h175l56 -566h79l-24 -96h-71l-17 -12q-54 -38 -76.5 -64.5t-22.5 -51.5q0 -19 12.5 -32t37.5 -13q30 0 60 17z
M254 289h149l-14 237h-4z" />
    <glyph glyph-name="aogonek" unicode="&#x105;" 
d="M380 386l24 87h166l-82 -317q-7 -27 -7 -41q0 -24 19 -24q31 0 63 95l55 -20q-20 -60 -45.5 -99t-76.5 -75q-57 -39 -80.5 -66.5t-23.5 -53.5q0 -19 12.5 -32t37.5 -13q30 0 60 17l20 -59q-62 -38 -127 -38q-56 0 -94 24.5t-38 75.5q0 44 34 79.5t100 69.5q-59 20 -59 92
q0 8 2 26l-8 3q-58 -128 -161 -128q-74 0 -112 48t-38 120q0 75 29 148.5t72 116.5q62 62 140 62q45 0 76 -28t42 -70zM238 90q32 0 61.5 42t45 96t15.5 97q0 72 -45 72q-31 0 -59.5 -43t-44 -99t-15.5 -101q0 -64 42 -64z" />
    <glyph glyph-name="Cacute" unicode="&#x106;" horiz-adv-x="685" 
d="M348 -16q-133 0 -213 76t-80 207q0 65 22.5 134t64.5 131t113.5 102t159.5 40q127 0 184 -86l49 84h101l-65 -264h-111q-4 89 -42 133t-95 44q-52 0 -92.5 -40t-61 -98.5t-31 -111t-10.5 -89.5q0 -47 13 -80.5t34 -49t41.5 -22t43.5 -6.5q69 0 110.5 42t77.5 130l91 -27
q-85 -249 -304 -249zM551 783l-94 -59h-79l83 133q20 32 31.5 47.5t30.5 29.5t40 14q32 0 52 -20.5t20 -47.5q0 -16 -5.5 -29t-20 -26t-25 -20t-33.5 -22z" />
    <glyph glyph-name="cacute" unicode="&#x107;" horiz-adv-x="508" 
d="M320 484q71 0 120.5 -36t49.5 -105q0 -45 -27 -76t-66 -31q-33 0 -52.5 18.5t-19.5 48.5q0 28 18 47.5t39 25.5q-11 34 -52 34q-58 0 -97.5 -65.5t-39.5 -148.5q0 -62 26.5 -87t62.5 -25q69 0 129 77l48 -42q-96 -130 -231 -130q-95 0 -151.5 51.5t-56.5 140.5
q0 125 89.5 214t210.5 89zM428 595l-94 -59h-79l83 133q20 32 31.5 47.5t30.5 29.5t40 14q32 0 52 -20.5t20 -47.5q0 -16 -5.5 -29t-20 -26t-25 -20t-33.5 -22z" />
    <glyph glyph-name="Cdotaccent" unicode="&#x10a;" horiz-adv-x="685" 
d="M348 -16q-133 0 -213 76t-80 207q0 65 22.5 134t64.5 131t113.5 102t159.5 40q127 0 184 -86l49 84h101l-65 -264h-111q-4 89 -42 133t-95 44q-52 0 -92.5 -40t-61 -98.5t-31 -111t-10.5 -89.5q0 -47 13 -80.5t34 -49t41.5 -22t43.5 -6.5q69 0 110.5 42t77.5 130l91 -27
q-85 -249 -304 -249zM554 813q0 -36 -27 -66t-73 -30q-36 0 -58.5 21.5t-22.5 57.5t27 66t73 30q36 0 58.5 -21.5t22.5 -57.5z" />
    <glyph glyph-name="cdotaccent" unicode="&#x10b;" horiz-adv-x="508" 
d="M320 484q71 0 120.5 -36t49.5 -105q0 -45 -27 -76t-66 -31q-33 0 -52.5 18.5t-19.5 48.5q0 28 18 47.5t39 25.5q-11 34 -52 34q-58 0 -97.5 -65.5t-39.5 -148.5q0 -62 26.5 -87t62.5 -25q69 0 129 77l48 -42q-96 -130 -231 -130q-95 0 -151.5 51.5t-56.5 140.5
q0 125 89.5 214t210.5 89zM431 625q0 -36 -27 -66t-73 -30q-36 0 -58.5 21.5t-22.5 57.5t27 66t73 30q36 0 58.5 -21.5t22.5 -57.5z" />
    <glyph glyph-name="Ccaron" unicode="&#x10c;" horiz-adv-x="685" 
d="M348 -16q-133 0 -213 76t-80 207q0 65 22.5 134t64.5 131t113.5 102t159.5 40q127 0 184 -86l49 84h101l-65 -264h-111q-4 89 -42 133t-95 44q-52 0 -92.5 -40t-61 -98.5t-31 -111t-10.5 -89.5q0 -47 13 -80.5t34 -49t41.5 -22t43.5 -6.5q69 0 110.5 42t77.5 130l91 -27
q-85 -249 -304 -249zM658 927l-177 -203h-98l-79 203h95l55 -83l98 83h106z" />
    <glyph glyph-name="ccaron" unicode="&#x10d;" horiz-adv-x="508" 
d="M320 484q71 0 120.5 -36t49.5 -105q0 -45 -27 -76t-66 -31q-33 0 -52.5 18.5t-19.5 48.5q0 28 18 47.5t39 25.5q-11 34 -52 34q-58 0 -97.5 -65.5t-39.5 -148.5q0 -62 26.5 -87t62.5 -25q69 0 129 77l48 -42q-96 -130 -231 -130q-95 0 -151.5 51.5t-56.5 140.5
q0 125 89.5 214t210.5 89zM534 739l-177 -203h-98l-79 203h95l55 -83l98 83h106z" />
    <glyph glyph-name="Dcaron" unicode="&#x10e;" horiz-adv-x="734" 
d="M-38 0l24 96h79l116 466h-79l24 96h265q169 0 257 -72.5t88 -194.5q0 -166 -109 -275q-116 -116 -346 -116h-319zM244 93h52q55 0 90.5 13.5t70.5 48.5q39 39 65.5 117t26.5 151q0 74 -36 108t-114 34h-37zM688 927l-177 -203h-98l-79 203h95l55 -83l98 83h106z" />
    <glyph glyph-name="dcaron" unicode="&#x10f;" 
d="M238 90q48 0 86 84.5t38 158.5q0 64 -45 64q-34 0 -63 -43t-43.5 -98.5t-14.5 -101.5q0 -64 42 -64zM563 186l55 -20q-57 -177 -178 -177q-47 0 -74.5 25.5t-27.5 73.5q0 12 2 26l-8 3q-58 -128 -161 -128q-74 0 -112 48t-38 120q0 75 29 148.5t72 116.5q62 62 140 62
q44 0 75 -26t46 -63l54 206h-66l23 91h233l-139 -536q-7 -27 -7 -41q0 -24 19 -24q31 0 63 95zM782 634l-61 -85h-60l29 163q10 54 29.5 78.5t55.5 24.5q27 0 47.5 -18.5t20.5 -46.5q0 -9 -2 -18t-4.5 -15.5t-10 -18.5t-11 -17.5t-15.5 -22t-18 -24.5z" />
    <glyph glyph-name="Dcroat" unicode="&#x110;" horiz-adv-x="740" 
d="M-32 0l24 96h79l49 199h-78l23 96h79l43 171h-79l24 96h265q169 0 257 -72.5t88 -194.5q0 -166 -109 -275q-116 -116 -346 -116h-319zM250 93h52q55 0 90.5 13.5t70.5 48.5q39 39 65.5 117t26.5 151q0 74 -36 108t-114 34h-37l-44 -174h105l-23 -96h-106z" />
    <glyph glyph-name="dcroat" unicode="&#x111;" 
d="M394 692h233l-32 -121h67l-17 -68h-67l-90 -347q-7 -27 -7 -41q0 -24 19 -24q31 0 63 95l55 -20q-57 -177 -178 -177q-47 0 -74.5 25.5t-27.5 73.5q0 12 2 26l-8 3q-58 -128 -161 -128q-74 0 -112 48t-38 120q0 74 28 143t71 112q62 62 140 62q44 0 75 -26t46 -63l30 118
h-112l17 68h113l11 42h-66zM238 90q32 0 61.5 42t45 95.5t15.5 95.5q0 64 -45 64q-49 0 -84 -81.5t-35 -151.5q0 -64 42 -64z" />
    <glyph glyph-name="Emacron" unicode="&#x112;" horiz-adv-x="690" 
d="M132 658h613l-61 -243h-93q5 97 -11.5 123.5t-81.5 26.5h-130l-47 -187h26q35 0 49 14.5t38 73.5h89l-67 -269h-87q8 57 1 72.5t-42 15.5h-30l-48 -192h123q33 0 55.5 6t38.5 15.5t31 34t26.5 49.5t30.5 73h104l-68 -271h-623l24 96h79l116 466h-79zM314 724l27 107h319
l-27 -107h-319z" />
    <glyph glyph-name="emacron" unicode="&#x113;" horiz-adv-x="509" 
d="M499 361q0 -74 -76.5 -120.5t-232.5 -47.5q0 -63 28 -89.5t70 -26.5q67 0 131 72l45 -42q-101 -118 -233 -118q-97 0 -154 51.5t-57 139.5q0 122 88.5 213t221.5 91q79 0 124 -34t45 -89zM170 536l27 107h319l-27 -107h-319zM309 416q-39 0 -71 -51t-43 -117q83 3 118 37
t35 79q0 52 -39 52z" />
    <glyph glyph-name="Ebreve" unicode="&#x114;" horiz-adv-x="690" 
d="M132 658h613l-61 -243h-93q5 97 -11.5 123.5t-81.5 26.5h-130l-47 -187h26q35 0 49 14.5t38 73.5h89l-67 -269h-87q8 57 1 72.5t-42 15.5h-30l-48 -192h123q33 0 55.5 6t38.5 15.5t31 34t26.5 49.5t30.5 73h104l-68 -271h-623l24 96h79l116 466h-79zM476 718
q-76 0 -112.5 49t-14.5 146h79q-5 -44 14 -64t52 -20q74 0 99 84h83q-18 -98 -70 -146.5t-130 -48.5z" />
    <glyph glyph-name="ebreve" unicode="&#x115;" horiz-adv-x="509" 
d="M499 361q0 -74 -76.5 -120.5t-232.5 -47.5q0 -63 28 -89.5t70 -26.5q67 0 131 72l45 -42q-101 -118 -233 -118q-97 0 -154 51.5t-57 139.5q0 122 88.5 213t221.5 91q79 0 124 -34t45 -89zM332 530q-76 0 -112.5 49t-14.5 146h79q-5 -44 14 -64t52 -20q74 0 99 84h83
q-18 -98 -70 -146.5t-130 -48.5zM309 416q-39 0 -71 -51t-43 -117q83 3 118 37t35 79q0 52 -39 52z" />
    <glyph glyph-name="Edotaccent" unicode="&#x116;" horiz-adv-x="690" 
d="M132 658h613l-61 -243h-93q5 97 -11.5 123.5t-81.5 26.5h-130l-47 -187h26q35 0 49 14.5t38 73.5h89l-67 -269h-87q8 57 1 72.5t-42 15.5h-30l-48 -192h123q33 0 55.5 6t38.5 15.5t31 34t26.5 49.5t30.5 73h104l-68 -271h-623l24 96h79l116 466h-79zM584 813
q0 -36 -27 -66t-73 -30q-36 0 -58.5 21.5t-22.5 57.5t27 66t73 30q36 0 58.5 -21.5t22.5 -57.5z" />
    <glyph glyph-name="edotaccent" unicode="&#x117;" horiz-adv-x="509" 
d="M499 361q0 -74 -76.5 -120.5t-232.5 -47.5q0 -63 28 -89.5t70 -26.5q67 0 131 72l45 -42q-101 -118 -233 -118q-97 0 -154 51.5t-57 139.5q0 122 88.5 213t221.5 91q79 0 124 -34t45 -89zM441 625q0 -36 -27 -66t-73 -30q-36 0 -58.5 21.5t-22.5 57.5t27 66t73 30
q36 0 58.5 -21.5t22.5 -57.5zM309 416q-39 0 -71 -51t-43 -117q83 3 118 37t35 79q0 52 -39 52z" />
    <glyph glyph-name="Eogonek" unicode="&#x118;" horiz-adv-x="690" 
d="M552 -215q-62 -38 -127 -38q-56 0 -94 24.5t-38 75.5q0 46 36.5 81.5t105.5 71.5h-467l24 96h79l116 466h-79l24 96h613l-61 -243h-93q5 97 -11.5 123.5t-81.5 26.5h-130l-47 -187h26q35 0 49 14.5t38 73.5h89l-67 -269h-87q8 57 1 72.5t-42 15.5h-30l-48 -192h123
q33 0 55.5 6t38.5 15.5t31 34t26.5 49.5t30.5 73h104l-68 -271h-53l-17 -12q-54 -38 -76.5 -64.5t-22.5 -51.5q0 -19 12.5 -32t37.5 -13q30 0 60 17z" />
    <glyph glyph-name="eogonek" unicode="&#x119;" horiz-adv-x="509" 
d="M419 149l45 -42q-45 -51 -93 -83l-48 -32q-106 -70 -106 -120q0 -19 12.5 -32t37.5 -13q30 0 60 17l20 -59q-62 -38 -127 -38q-56 0 -94 24.5t-38 75.5q0 40 29.5 73.5t96.5 69.5q-90 5 -142 55.5t-52 134.5q0 122 88.5 213t221.5 91q79 0 124 -34t45 -89
q0 -74 -76.5 -120.5t-232.5 -47.5q0 -63 28 -89.5t70 -26.5q67 0 131 72zM309 416q-39 0 -71 -51t-43 -117q83 3 118 37t35 79q0 52 -39 52z" />
    <glyph glyph-name="Ecaron" unicode="&#x11a;" horiz-adv-x="690" 
d="M132 658h613l-61 -243h-93q5 97 -11.5 123.5t-81.5 26.5h-130l-47 -187h26q35 0 49 14.5t38 73.5h89l-67 -269h-87q8 57 1 72.5t-42 15.5h-30l-48 -192h123q33 0 55.5 6t38.5 15.5t31 34t26.5 49.5t30.5 73h104l-68 -271h-623l24 96h79l116 466h-79zM688 927l-177 -203
h-98l-79 203h95l55 -83l98 83h106z" />
    <glyph glyph-name="ecaron" unicode="&#x11b;" horiz-adv-x="509" 
d="M499 361q0 -74 -76.5 -120.5t-232.5 -47.5q0 -63 28 -89.5t70 -26.5q67 0 131 72l45 -42q-101 -118 -233 -118q-97 0 -154 51.5t-57 139.5q0 122 88.5 213t221.5 91q79 0 124 -34t45 -89zM544 739l-177 -203h-98l-79 203h95l55 -83l98 83h106zM309 416q-39 0 -71 -51
t-43 -117q83 3 118 37t35 79q0 52 -39 52z" />
    <glyph glyph-name="Gbreve" unicode="&#x11e;" horiz-adv-x="739" 
d="M343 83q31 0 55 13t39.5 37.5t24 46.5t17.5 54l4 15h-107l23 96h352l-23 -96h-69l-68 -257h-95l-13 90q-65 -98 -181 -98q-113 0 -180 75t-67 197q0 55 13.5 111.5t43 112t70.5 98.5t101.5 69.5t131.5 26.5q127 0 184 -86l49 84h101l-63 -254h-129q-3 87 -38 127t-83 40
q-52 0 -92.5 -41.5t-61 -102t-31 -115.5t-10.5 -96q0 -81 30 -114t72 -33zM461 718q-76 0 -112.5 49t-14.5 146h79q-5 -44 14 -64t52 -20q74 0 99 84h83q-18 -98 -70 -146.5t-130 -48.5z" />
    <glyph glyph-name="gbreve" unicode="&#x11f;" horiz-adv-x="573" 
d="M124 -114q21 -7 45 -7q51 0 84 33q42 42 77 183l-10 4q-48 -74 -134 -74q-76 0 -115.5 49t-39.5 126q0 135 87 222q62 62 139 62q50 0 84.5 -28.5t44.5 -69.5l24 87h166l-101 -433q-51 -217 -292 -217q-26 0 -54 4t-62.5 14.5t-56.5 35t-22 59.5q0 32 22 55.5t59 23.5
t57.5 -21.5t20.5 -53.5q0 -31 -23 -54zM255 117q45 0 76 65.5t31 138.5q0 76 -52 76q-32 0 -57 -35.5t-36.5 -81t-11.5 -85.5q0 -78 50 -78zM380 530q-76 0 -112.5 49t-14.5 146h79q-5 -44 14 -64t52 -20q74 0 99 84h83q-18 -98 -70 -146.5t-130 -48.5z" />
    <glyph glyph-name="Gdotaccent" unicode="&#x120;" horiz-adv-x="739" 
d="M343 83q31 0 55 13t39.5 37.5t24 46.5t17.5 54l4 15h-107l23 96h352l-23 -96h-69l-68 -257h-95l-13 90q-65 -98 -181 -98q-113 0 -180 75t-67 197q0 55 13.5 111.5t43 112t70.5 98.5t101.5 69.5t131.5 26.5q127 0 184 -86l49 84h101l-63 -254h-129q-3 87 -38 127t-83 40
q-52 0 -92.5 -41.5t-61 -102t-31 -115.5t-10.5 -96q0 -81 30 -114t72 -33zM569 813q0 -36 -27 -66t-73 -30q-36 0 -58.5 21.5t-22.5 57.5t27 66t73 30q36 0 58.5 -21.5t22.5 -57.5z" />
    <glyph glyph-name="gdotaccent" unicode="&#x121;" horiz-adv-x="573" 
d="M124 -114q21 -7 45 -7q51 0 84 33q42 42 77 183l-10 4q-48 -74 -134 -74q-76 0 -115.5 49t-39.5 126q0 135 87 222q62 62 139 62q50 0 84.5 -28.5t44.5 -69.5l24 87h166l-101 -433q-51 -217 -292 -217q-26 0 -54 4t-62.5 14.5t-56.5 35t-22 59.5q0 32 22 55.5t59 23.5
t57.5 -21.5t20.5 -53.5q0 -31 -23 -54zM255 117q45 0 76 65.5t31 138.5q0 76 -52 76q-32 0 -57 -35.5t-36.5 -81t-11.5 -85.5q0 -78 50 -78zM488 625q0 -36 -27 -66t-73 -30q-36 0 -58.5 21.5t-22.5 57.5t27 66t73 30q36 0 58.5 -21.5t22.5 -57.5z" />
    <glyph glyph-name="Gcommaaccent" unicode="&#x122;" horiz-adv-x="739" 
d="M343 83q31 0 55 13t39.5 37.5t24 46.5t17.5 54l4 15h-107l23 96h352l-23 -96h-69l-68 -257h-95l-13 90q-65 -98 -181 -98q-113 0 -180 75t-67 197q0 55 13.5 111.5t43 112t70.5 98.5t101.5 69.5t131.5 26.5q127 0 184 -86l49 84h101l-63 -254h-129q-3 87 -38 127t-83 40
q-52 0 -92.5 -41.5t-61 -102t-31 -115.5t-10.5 -96q0 -81 30 -114t72 -33zM155 -384l-17 57q118 32 148 99l-7 6q-11 -7 -28 -7q-33 0 -52.5 20.5t-19.5 51.5q0 41 27 70.5t69 29.5q45 0 73 -30.5t28 -82.5q0 -78 -61 -135t-160 -79z" />
    <glyph glyph-name="gcommaaccent" unicode="&#x123;" horiz-adv-x="573" 
d="M124 -114q21 -7 45 -7q51 0 84 33q42 42 77 183l-10 4q-48 -74 -134 -74q-76 0 -115.5 49t-39.5 126q0 135 87 222q62 62 139 62q50 0 84.5 -28.5t44.5 -69.5l24 87h166l-101 -433q-51 -217 -292 -217q-26 0 -54 4t-62.5 14.5t-56.5 35t-22 59.5q0 32 22 55.5t59 23.5
t57.5 -21.5t20.5 -53.5q0 -31 -23 -54zM255 117q45 0 76 65.5t31 138.5q0 76 -52 76q-32 0 -57 -35.5t-36.5 -81t-11.5 -85.5q0 -78 50 -78zM483 856l17 -57q-118 -32 -148 -99l7 -6q11 7 28 7q33 0 52.5 -20.5t19.5 -51.5q0 -41 -27 -70.5t-69 -29.5q-45 0 -73 30.5
t-28 82.5q0 78 61 135t160 79z" />
    <glyph glyph-name="Hbar" unicode="&#x126;" horiz-adv-x="796" 
d="M72 422l22 88h80l13 52h-79l24 96h341l-24 -96h-82l-16 -62h225l16 62h-82l24 96h340l-24 -96h-79l-13 -52h80l-22 -88h-80l-81 -326h79l-24 -96h-340l24 96h82l44 178h-225l-44 -178h82l-24 -96h-341l24 96h79l81 326h-80zM319 370h225l15 62h-225z" />
    <glyph glyph-name="hbar" unicode="&#x127;" horiz-adv-x="626" 
d="M431 -11q-51 0 -79 27.5t-28 70.5t32 132t32 110q0 27 -30 27q-97 0 -193 -356h-168l133 503h-65l17 68h66l11 42h-66l20 79h235l-38 -121h111l-17 -68h-116l-71 -226l8 -3q90 200 227 200q47 0 76.5 -27t29.5 -75q0 -51 -39 -149.5t-39 -112.5q0 -19 16 -19q30 0 69 95
l55 -20q-64 -177 -189 -177z" />
    <glyph glyph-name="Imacron" unicode="&#x12a;" horiz-adv-x="392" 
d="M-32 0l24 96h79l116 466h-79l24 96h338l-24 -96h-79l-116 -466h79l-24 -96h-338zM158 724l27 107h319l-27 -107h-319z" />
    <glyph glyph-name="imacron" unicode="&#x12b;" horiz-adv-x="374" 
d="M308 394q0 -46 -41.5 -155.5t-41.5 -128.5t16 -19q30 0 69 95l55 -20q-64 -177 -188 -177q-49 0 -80 28t-31 75q0 40 41.5 147t41.5 125t-14 18q-23 0 -65 -96l-55 20q37 89 83.5 133.5t108.5 44.5q44 0 72.5 -25t28.5 -65zM60 536l27 107h319l-27 -107h-319z" />
    <glyph glyph-name="Ibreve" unicode="&#x12c;" horiz-adv-x="392" 
d="M-32 0l24 96h79l116 466h-79l24 96h338l-24 -96h-79l-116 -466h79l-24 -96h-338zM320 718q-76 0 -112.5 49t-14.5 146h79q-5 -44 14 -64t52 -20q74 0 99 84h83q-18 -98 -70 -146.5t-130 -48.5z" />
    <glyph glyph-name="ibreve" unicode="&#x12d;" horiz-adv-x="374" 
d="M308 394q0 -46 -41.5 -155.5t-41.5 -128.5t16 -19q30 0 69 95l55 -20q-64 -177 -188 -177q-49 0 -80 28t-31 75q0 40 41.5 147t41.5 125t-14 18q-23 0 -65 -96l-55 20q37 89 83.5 133.5t108.5 44.5q44 0 72.5 -25t28.5 -65zM222 530q-76 0 -112.5 49t-14.5 146h79
q-5 -44 14 -64t52 -20q74 0 99 84h83q-18 -98 -70 -146.5t-130 -48.5z" />
    <glyph glyph-name="Iogonek" unicode="&#x12e;" horiz-adv-x="392" 
d="M-32 0l24 96h79l116 466h-79l24 96h338l-24 -96h-79l-116 -466h79l-24 -96h-93l-17 -12q-54 -38 -76.5 -64.5t-22.5 -51.5q0 -19 12.5 -32t37.5 -13q30 0 60 17l20 -59q-62 -38 -127 -38q-56 0 -94 24.5t-38 75.5q0 46 36.5 81.5t105.5 71.5h-142z" />
    <glyph glyph-name="iogonek" unicode="&#x12f;" horiz-adv-x="374" 
d="M310 186l55 -20q-38 -107 -117 -164q-67 -48 -89 -75.5t-22 -54.5q0 -19 12.5 -32t37.5 -13q30 0 60 17l20 -59q-62 -38 -127 -38q-56 0 -94 24.5t-38 75.5q0 44 33.5 78.5t97.5 68.5q-34 10 -53.5 35.5t-19.5 62.5q0 40 41.5 147t41.5 125t-14 18q-23 0 -65 -96l-55 20
q37 89 83.5 133.5t108.5 44.5q44 0 72.5 -25t28.5 -65q0 -46 -41.5 -155.5t-41.5 -128.5t16 -19q30 0 69 95zM359 642q0 -39 -29 -70.5t-77 -31.5q-37 0 -61 22.5t-24 60.5q0 39 29 70.5t77 31.5q37 0 61 -22.5t24 -60.5z" />
    <glyph glyph-name="Idotaccent" unicode="&#x130;" horiz-adv-x="392" 
d="M-32 0l24 96h79l116 466h-79l24 96h338l-24 -96h-79l-116 -466h79l-24 -96h-338zM428 813q0 -36 -27 -66t-73 -30q-36 0 -58.5 21.5t-22.5 57.5t27 66t73 30q36 0 58.5 -21.5t22.5 -57.5z" />
    <glyph glyph-name="dotlessi" unicode="&#x131;" horiz-adv-x="374" 
d="M308 394q0 -46 -41.5 -155.5t-41.5 -128.5t16 -19q30 0 69 95l55 -20q-64 -177 -188 -177q-49 0 -80 28t-31 75q0 40 41.5 147t41.5 125t-14 18q-23 0 -65 -96l-55 20q37 89 83.5 133.5t108.5 44.5q44 0 72.5 -25t28.5 -65z" />
    <glyph glyph-name="Kcommaaccent" unicode="&#x136;" horiz-adv-x="735" 
d="M719 562l-210 -166l137 -300h73l-24 -96h-332l24 94h60l-80 189l-87 -69l-29 -120h71l-24 -94h-330l24 96h79l116 466h-79l24 96h335l-24 -94h-76l-56 -225l270 225h-72l24 94h283l-24 -96h-73zM179 -384l-17 57q118 32 148 99l-7 6q-11 -7 -28 -7q-33 0 -52.5 20.5
t-19.5 51.5q0 41 27 70.5t69 29.5q45 0 73 -30.5t28 -82.5q0 -78 -61 -135t-160 -79z" />
    <glyph glyph-name="kcommaaccent" unicode="&#x137;" horiz-adv-x="588" 
d="M436 110q0 -19 17 -19q15 0 29.5 19t38.5 76l55 -20q-32 -87 -74.5 -132t-104.5 -45q-57 0 -86.5 30.5t-29.5 73.5q0 17 6 50t6 44q0 23 -12.5 32t-55.5 10l-60 -229h-168l159 601h-66l23 91h235l-108 -407q39 0 63.5 23.5t65.5 91.5q51 84 122 84q43 0 66 -24.5
t23 -62.5q0 -37 -21.5 -66t-58.5 -29q-33 0 -50 23t-11 57q-18 -12 -38 -47q-27 -45 -61 -69q58 -6 81.5 -28.5t23.5 -60.5q0 -16 -4.5 -37.5t-4.5 -29.5zM79 -379l-17 57q118 32 148 99l-7 6q-11 -7 -28 -7q-33 0 -52.5 20.5t-19.5 51.5q0 41 27 70.5t69 29.5
q45 0 73 -30.5t28 -82.5q0 -78 -61 -135t-160 -79z" />
    <glyph glyph-name="Lacute" unicode="&#x139;" horiz-adv-x="620" 
d="M132 658h353l-24 -93h-94l-117 -472h83q76 0 105.5 33.5t76.5 156.5h92l-71 -283h-568l24 96h79l116 466h-79zM426 783l-94 -59h-79l83 133q20 32 31.5 47.5t30.5 29.5t40 14q32 0 52 -20.5t20 -47.5q0 -16 -5.5 -29t-20 -26t-25 -20t-33.5 -22z" />
    <glyph glyph-name="lacute" unicode="&#x13a;" horiz-adv-x="336" 
d="M30 91q0 29 12 74l116 436h-66l23 91h235l-137 -489q-24 -82 -24 -93q0 -19 16 -19q30 0 69 95l55 -20q-64 -177 -188 -177q-51 0 -81 26.5t-30 75.5zM370 809l-94 -59h-79l83 133q20 32 31.5 47.5t30.5 29.5t40 14q32 0 52 -20.5t20 -47.5q0 -16 -5.5 -29t-20 -26
t-25 -20t-33.5 -22z" />
    <glyph glyph-name="Lcommaaccent" unicode="&#x13b;" horiz-adv-x="620" 
d="M132 658h353l-24 -93h-94l-117 -472h83q76 0 105.5 33.5t76.5 156.5h92l-71 -283h-568l24 96h79l116 466h-79zM119 -384l-17 57q118 32 148 99l-7 6q-11 -7 -28 -7q-33 0 -52.5 20.5t-19.5 51.5q0 41 27 70.5t69 29.5q45 0 73 -30.5t28 -82.5q0 -78 -61 -135t-160 -79z
" />
    <glyph glyph-name="lcommaaccent" unicode="&#x13c;" horiz-adv-x="336" 
d="M30 91q0 29 12 74l116 436h-66l23 91h235l-137 -489q-24 -82 -24 -93q0 -19 16 -19q30 0 69 95l55 -20q-64 -177 -188 -177q-51 0 -81 26.5t-30 75.5zM-28 -384l-17 57q118 32 148 99l-7 6q-11 -7 -28 -7q-33 0 -52.5 20.5t-19.5 51.5q0 41 27 70.5t69 29.5
q45 0 73 -30.5t28 -82.5q0 -78 -61 -135t-160 -79z" />
    <glyph glyph-name="Lcaron" unicode="&#x13d;" horiz-adv-x="620" 
d="M132 658h353l-24 -93h-94l-117 -472h83q76 0 105.5 33.5t76.5 156.5h92l-71 -283h-568l24 96h79l116 466h-79zM632 580l-61 -85h-60l29 163q10 54 29.5 78.5t55.5 24.5q27 0 47.5 -18.5t20.5 -46.5q0 -9 -2 -18t-4.5 -15.5t-10 -18.5t-11 -17.5t-15.5 -22t-18 -24.5z" />
    <glyph glyph-name="lcaron" unicode="&#x13e;" horiz-adv-x="336" 
d="M30 91q0 29 12 74l116 436h-66l23 91h235l-137 -489q-24 -82 -24 -93q0 -19 16 -19q30 0 69 95l55 -20q-64 -177 -188 -177q-51 0 -81 26.5t-30 75.5zM505 634l-61 -85h-60l29 163q10 54 29.5 78.5t55.5 24.5q27 0 47.5 -18.5t20.5 -46.5q0 -9 -2 -18t-4.5 -15.5
t-10 -18.5t-11 -17.5t-15.5 -22t-18 -24.5z" />
    <glyph glyph-name="Ldot" unicode="&#x13f;" horiz-adv-x="620" 
d="M132 658h353l-24 -93h-94l-117 -472h83q76 0 105.5 30t68.5 130h92l-63 -253h-568l24 96h79l116 466h-79zM511 313q-36 0 -58.5 21t-22.5 54q0 35 26.5 63t70.5 28q36 0 58.5 -21t22.5 -54q0 -35 -26.5 -63t-70.5 -28z" />
    <glyph glyph-name="ldot" unicode="&#x140;" horiz-adv-x="439" 
d="M477 353q0 -35 -25.5 -63.5t-68.5 -28.5q-34 0 -55.5 20.5t-21.5 54.5q0 35 25.5 63.5t68.5 28.5q34 0 55.5 -20.5t21.5 -54.5zM30 91q0 29 12 74l116 436h-66l23 91h235l-137 -489q-24 -82 -24 -93q0 -19 16 -19q30 0 69 95l55 -20q-64 -177 -188 -177q-51 0 -81 26.5
t-30 75.5z" />
    <glyph glyph-name="Lslash" unicode="&#x141;" horiz-adv-x="625" 
d="M137 658h353l-24 -93h-94l-43 -174l184 59l-23 -93l-184 -59l-51 -205h83q76 0 105.5 33.5t76.5 156.5h92l-71 -283h-568l24 96h79l35 139l-87 -27l23 94l87 28l58 232h-79z" />
    <glyph glyph-name="lslash" unicode="&#x142;" horiz-adv-x="352" 
d="M38 91q0 29 12 74l32 122l-96 -28l18 79l99 29l63 234h-66l23 91h235l-77 -274l106 31l-19 -78l-109 -32l-38 -136q-24 -82 -24 -93q0 -19 16 -19q30 0 69 95l55 -20q-64 -177 -188 -177q-51 0 -81 26.5t-30 75.5z" />
    <glyph glyph-name="Nacute" unicode="&#x143;" horiz-adv-x="778" 
d="M447 -6l-165 497h-9l-99 -395h84l-24 -96h-258l24 96h78l116 466h-79l24 96h270l151 -452h9l88 356h-84l24 96h259l-24 -96h-79l-141 -568h-165zM617 783l-94 -59h-79l83 133q20 32 31.5 47.5t30.5 29.5t40 14q32 0 52 -20.5t20 -47.5q0 -16 -5.5 -29t-20 -26t-25 -20
t-33.5 -22z" />
    <glyph glyph-name="nacute" unicode="&#x144;" horiz-adv-x="669" 
d="M523 110q0 -19 16 -19q30 0 69 95l55 -20q-64 -177 -189 -177q-51 0 -79 27.5t-28 70.5q0 45 33.5 137t33.5 115q0 27 -30 27q-98 0 -189 -366h-168l84 317q17 65 -2 65q-23 0 -65 -96l-55 20q38 88 82 133t103 45q36 0 59 -25t23 -71q0 -49 -16 -111l8 -3
q95 210 230 210q47 0 76.5 -27t29.5 -75q0 -53 -40.5 -154.5t-40.5 -117.5zM503 595l-94 -59h-79l83 133q20 32 31.5 47.5t30.5 29.5t40 14q32 0 52 -20.5t20 -47.5q0 -16 -5.5 -29t-20 -26t-25 -20t-33.5 -22z" />
    <glyph glyph-name="Ncommaaccent" unicode="&#x145;" horiz-adv-x="778" 
d="M447 -6l-165 497h-9l-99 -395h84l-24 -96h-258l24 96h78l116 466h-79l24 96h270l151 -452h9l88 356h-84l24 96h259l-24 -96h-79l-141 -568h-165zM166 -384l-17 57q118 32 148 99l-7 6q-11 -7 -28 -7q-33 0 -52.5 20.5t-19.5 51.5q0 41 27 70.5t69 29.5q45 0 73 -30.5
t28 -82.5q0 -78 -61 -135t-160 -79z" />
    <glyph glyph-name="ncommaaccent" unicode="&#x146;" horiz-adv-x="669" 
d="M523 110q0 -19 16 -19q30 0 69 95l55 -20q-64 -177 -189 -177q-51 0 -79 27.5t-28 70.5q0 45 33.5 137t33.5 115q0 27 -30 27q-98 0 -189 -366h-168l84 317q17 65 -2 65q-23 0 -65 -96l-55 20q38 88 82 133t103 45q36 0 59 -25t23 -71q0 -49 -16 -111l8 -3
q95 210 230 210q47 0 76.5 -27t29.5 -75q0 -53 -40.5 -154.5t-40.5 -117.5zM152 -374l-17 57q118 32 148 99l-7 6q-11 -7 -28 -7q-33 0 -52.5 20.5t-19.5 51.5q0 41 27 70.5t69 29.5q45 0 73 -30.5t28 -82.5q0 -78 -61 -135t-160 -79z" />
    <glyph glyph-name="Ncaron" unicode="&#x147;" horiz-adv-x="778" 
d="M447 -6l-165 497h-9l-99 -395h84l-24 -96h-258l24 96h78l116 466h-79l24 96h270l151 -452h9l88 356h-84l24 96h259l-24 -96h-79l-141 -568h-165zM723 927l-177 -203h-98l-79 203h95l55 -83l98 83h106z" />
    <glyph glyph-name="ncaron" unicode="&#x148;" horiz-adv-x="669" 
d="M523 110q0 -19 16 -19q30 0 69 95l55 -20q-64 -177 -189 -177q-51 0 -79 27.5t-28 70.5q0 45 33.5 137t33.5 115q0 27 -30 27q-98 0 -189 -366h-168l84 317q17 65 -2 65q-23 0 -65 -96l-55 20q38 88 82 133t103 45q36 0 59 -25t23 -71q0 -49 -16 -111l8 -3
q95 210 230 210q47 0 76.5 -27t29.5 -75q0 -53 -40.5 -154.5t-40.5 -117.5zM609 739l-177 -203h-98l-79 203h95l55 -83l98 83h106z" />
    <glyph glyph-name="Omacron" unicode="&#x14c;" horiz-adv-x="746" 
d="M55 277q0 63 22.5 129t66 127.5t120 101t173.5 39.5q133 0 217 -81t84 -212q0 -49 -13 -101.5t-43.5 -106t-73 -95t-108 -68t-143.5 -26.5q-134 0 -218 81t-84 212zM438 585q-51 0 -91 -42t-62 -103.5t-33 -121t-11 -105.5q0 -72 30.5 -106t83.5 -34q51 0 91 42t62 103.5
t33 121t11 105.5q0 72 -31 106t-83 34zM329 724l27 107h319l-27 -107h-319z" />
    <glyph glyph-name="omacron" unicode="&#x14d;" horiz-adv-x="554" 
d="M315 484q96 0 157.5 -55.5t61.5 -142.5q0 -121 -89.5 -209t-205.5 -88q-96 0 -157.5 55.5t-61.5 142.5q0 121 89.5 209t205.5 88zM364 345q0 70 -46 70q-29 0 -55 -34t-41 -82t-23.5 -94.5t-8.5 -76.5q0 -70 45 -70q39 0 70.5 58t45 122t13.5 107zM180 536l27 107h319
l-27 -107h-319z" />
    <glyph glyph-name="Obreve" unicode="&#x14e;" horiz-adv-x="746" 
d="M55 277q0 63 22.5 129t66 127.5t120 101t173.5 39.5q133 0 217 -81t84 -212q0 -49 -13 -101.5t-43.5 -106t-73 -95t-108 -68t-143.5 -26.5q-134 0 -218 81t-84 212zM438 585q-51 0 -91 -42t-62 -103.5t-33 -121t-11 -105.5q0 -72 30.5 -106t83.5 -34q51 0 91 42t62 103.5
t33 121t11 105.5q0 72 -31 106t-83 34zM491 718q-76 0 -112.5 49t-14.5 146h79q-5 -44 14 -64t52 -20q74 0 99 84h83q-18 -98 -70 -146.5t-130 -48.5z" />
    <glyph glyph-name="obreve" unicode="&#x14f;" horiz-adv-x="554" 
d="M315 484q96 0 157.5 -55.5t61.5 -142.5q0 -121 -89.5 -209t-205.5 -88q-96 0 -157.5 55.5t-61.5 142.5q0 121 89.5 209t205.5 88zM364 345q0 70 -46 70q-29 0 -55 -34t-41 -82t-23.5 -94.5t-8.5 -76.5q0 -70 45 -70q39 0 70.5 58t45 122t13.5 107zM342 530
q-76 0 -112.5 49t-14.5 146h79q-5 -44 14 -64t52 -20q74 0 99 84h83q-18 -98 -70 -146.5t-130 -48.5z" />
    <glyph glyph-name="Ohungarumlaut" unicode="&#x150;" horiz-adv-x="746" 
d="M55 277q0 63 22.5 129t66 127.5t120 101t173.5 39.5q133 0 217 -81t84 -212q0 -49 -13 -101.5t-43.5 -106t-73 -95t-108 -68t-143.5 -26.5q-134 0 -218 81t-84 212zM438 585q-51 0 -91 -42t-62 -103.5t-33 -121t-11 -105.5q0 -72 30.5 -106t83.5 -34q51 0 91 42t62 103.5
t33 121t11 105.5q0 72 -31 106t-83 34zM478 783l-82 -59h-77l69 133q24 46 45 68.5t49 22.5q31 0 51 -20t20 -47q0 -21 -11.5 -39.5t-24 -28.5t-39.5 -30zM679 783l-82 -59h-79l71 133q24 46 45 68.5t49 22.5q31 0 51 -20t20 -47q0 -21 -11.5 -39.5t-24 -28.5t-39.5 -30z
" />
    <glyph glyph-name="ohungarumlaut" unicode="&#x151;" horiz-adv-x="554" 
d="M315 484q96 0 157.5 -55.5t61.5 -142.5q0 -121 -89.5 -209t-205.5 -88q-96 0 -157.5 55.5t-61.5 142.5q0 121 89.5 209t205.5 88zM364 345q0 70 -46 70q-29 0 -55 -34t-41 -82t-23.5 -94.5t-8.5 -76.5q0 -70 45 -70q39 0 70.5 58t45 122t13.5 107zM330 595l-82 -59h-77
l69 133q24 46 45 68.5t49 22.5q31 0 51 -20t20 -47q0 -21 -11.5 -39.5t-24 -28.5t-39.5 -30zM531 595l-82 -59h-79l71 133q24 46 45 68.5t49 22.5q31 0 51 -20t20 -47q0 -21 -11.5 -39.5t-24 -28.5t-39.5 -30z" />
    <glyph glyph-name="OE" unicode="&#x152;" horiz-adv-x="1038" 
d="M499 658h594l-61 -243h-93q5 97 -11.5 123.5t-81.5 26.5h-130l-47 -187h26q35 0 49 14.5t38 73.5h89l-67 -269h-87q8 57 1 72.5t-42 15.5h-30l-48 -192h123q33 0 55.5 6t38.5 15.5t31 34t26.5 49.5t30.5 73h104l-68 -271h-550q-169 0 -257 72.5t-88 194.5q0 166 109 275
q116 116 346 116zM536 565h-52q-55 0 -90.5 -13.5t-70.5 -48.5q-39 -39 -65.5 -117t-26.5 -151q0 -74 36 -108t114 -34h37z" />
    <glyph glyph-name="oe" unicode="&#x153;" horiz-adv-x="833" 
d="M743 149l45 -42q-101 -118 -233 -118q-106 0 -155 70q-71 -70 -161 -70q-96 0 -157.5 55.5t-61.5 142.5q0 121 89.5 209t205.5 88q110 0 159 -79q77 79 184 79q76 0 120.5 -34t44.5 -89q0 -74 -76.5 -120.5t-232.5 -47.5q0 -63 28 -89.5t70 -26.5q67 0 131 72zM364 345
q0 70 -46 70q-29 0 -55 -34t-41 -82t-23.5 -94.5t-8.5 -76.5q0 -70 45 -70q39 0 70.5 58t45 122t13.5 107zM633 416q-39 0 -71 -51t-43 -117q83 3 118 37t35 79q0 52 -39 52z" />
    <glyph glyph-name="Racute" unicode="&#x154;" horiz-adv-x="717" 
d="M-32 0l24 96h79l116 466h-79l24 96h345q122 0 178.5 -41t56.5 -103q0 -79 -64 -127.5t-194 -56.5l-2 -6q77 -9 112 -38t35 -70q0 -17 -6 -51t-6 -44q0 -25 22 -25q12 0 23 12.5t28 47.5l54 -28q-32 -72 -71 -107.5t-104 -35.5q-61 0 -96.5 28t-35.5 77q0 22 9.5 69
t9.5 71q0 55 -87 55h-42l-47 -189h85l-24 -96h-343zM320 376h57q76 0 113 37q30 30 30 84q0 70 -90 70h-62zM549 783l-94 -59h-79l83 133q20 32 31.5 47.5t30.5 29.5t40 14q32 0 52 -20.5t20 -47.5q0 -16 -5.5 -29t-20 -26t-25 -20t-33.5 -22z" />
    <glyph glyph-name="racute" unicode="&#x155;" horiz-adv-x="533" 
d="M47 0l84 317q17 65 -2 65q-23 0 -65 -96l-55 20q38 88 82 133t103 45q36 0 59 -25t23 -71q0 -45 -13 -99l8 -3q45 106 85 152t98 46q40 0 67 -28t27 -70q0 -46 -26.5 -76.5t-66.5 -30.5q-34 0 -58.5 22.5t-20.5 62.5q-76 -27 -161 -364h-168zM436 595l-94 -59h-79l83 133
q20 32 31.5 47.5t30.5 29.5t40 14q32 0 52 -20.5t20 -47.5q0 -16 -5.5 -29t-20 -26t-25 -20t-33.5 -22z" />
    <glyph glyph-name="Rcommaaccent" unicode="&#x156;" horiz-adv-x="717" 
d="M-32 0l24 96h79l116 466h-79l24 96h345q122 0 178.5 -41t56.5 -103q0 -79 -64 -127.5t-194 -56.5l-2 -6q77 -9 112 -38t35 -70q0 -17 -6 -51t-6 -44q0 -25 22 -25q12 0 23 12.5t28 47.5l54 -28q-32 -72 -71 -107.5t-104 -35.5q-61 0 -96.5 28t-35.5 77q0 22 9.5 69
t9.5 71q0 55 -87 55h-42l-47 -189h85l-24 -96h-343zM320 376h57q76 0 113 37q30 30 30 84q0 70 -90 70h-62zM162 -384l-17 57q118 32 148 99l-7 6q-11 -7 -28 -7q-33 0 -52.5 20.5t-19.5 51.5q0 41 27 70.5t69 29.5q45 0 73 -30.5t28 -82.5q0 -78 -61 -135t-160 -79z" />
    <glyph glyph-name="rcommaaccent" unicode="&#x157;" horiz-adv-x="533" 
d="M47 0l84 317q17 65 -2 65q-23 0 -65 -96l-55 20q38 88 82 133t103 45q36 0 59 -25t23 -71q0 -45 -13 -99l8 -3q45 106 85 152t98 46q40 0 67 -28t27 -70q0 -46 -26.5 -76.5t-66.5 -30.5q-34 0 -58.5 22.5t-20.5 62.5q-76 -27 -161 -364h-168zM-18 -384l-17 57
q118 32 148 99l-7 6q-11 -7 -28 -7q-33 0 -52.5 20.5t-19.5 51.5q0 41 27 70.5t69 29.5q45 0 73 -30.5t28 -82.5q0 -78 -61 -135t-160 -79z" />
    <glyph glyph-name="Rcaron" unicode="&#x158;" horiz-adv-x="717" 
d="M-32 0l24 96h79l116 466h-79l24 96h345q122 0 178.5 -41t56.5 -103q0 -79 -64 -127.5t-194 -56.5l-2 -6q77 -9 112 -38t35 -70q0 -17 -6 -51t-6 -44q0 -25 22 -25q12 0 23 12.5t28 47.5l54 -28q-32 -72 -71 -107.5t-104 -35.5q-61 0 -96.5 28t-35.5 77q0 22 9.5 69
t9.5 71q0 55 -87 55h-42l-47 -189h85l-24 -96h-343zM320 376h57q76 0 113 37q30 30 30 84q0 70 -90 70h-62zM656 927l-177 -203h-98l-79 203h95l55 -83l98 83h106z" />
    <glyph glyph-name="rcaron" unicode="&#x159;" horiz-adv-x="533" 
d="M47 0l84 317q17 65 -2 65q-23 0 -65 -96l-55 20q38 88 82 133t103 45q36 0 59 -25t23 -71q0 -45 -13 -99l8 -3q45 106 85 152t98 46q40 0 67 -28t27 -70q0 -46 -26.5 -76.5t-66.5 -30.5q-34 0 -58.5 22.5t-20.5 62.5q-76 -27 -161 -364h-168zM542 739l-177 -203h-98
l-79 203h95l55 -83l98 83h106z" />
    <glyph glyph-name="Sacute" unicode="&#x15a;" horiz-adv-x="628" 
d="M-11 -14l60 256h97q7 -78 57 -122t125 -44q43 0 70.5 19t27.5 54q0 16 -8.5 29.5t-28 25t-36.5 19.5t-47 20l-15 6q-43 17 -69.5 31t-58.5 37.5t-48 57t-16 75.5q0 100 71 162t170 62q122 0 186 -79l43 77h95l-58 -246h-98q-6 77 -46 116.5t-106 39.5q-41 0 -67.5 -19.5
t-26.5 -52.5q0 -23 20.5 -43t39 -29.5t64.5 -28.5q11 -5 16 -7q33 -14 54 -24t49.5 -28t44.5 -36t27.5 -45.5t11.5 -59.5q0 -101 -71 -163t-175 -62q-141 0 -214 87l-46 -85h-94zM526 783l-94 -59h-79l83 133q20 32 31.5 47.5t30.5 29.5t40 14q32 0 52 -20.5t20 -47.5
q0 -16 -5.5 -29t-20 -26t-25 -20t-33.5 -22z" />
    <glyph glyph-name="sacute" unicode="&#x15b;" horiz-adv-x="487" 
d="M444 147q0 -77 -63.5 -117.5t-156.5 -40.5q-98 0 -158.5 34.5t-60.5 87.5q0 36 23 58t57 22q38 0 58 -20.5t20 -48.5q0 -32 -22 -57q32 -16 70 -16q37 0 55.5 16.5t18.5 42.5q0 18 -16 34t-27.5 22t-44.5 22t-52 26.5t-40.5 28t-31.5 38t-10 46.5q0 75 65 117t154 42
t144.5 -34.5t55.5 -83.5q0 -33 -22.5 -54t-54.5 -21q-39 0 -60 21t-21 47q0 32 18 53q-19 12 -50 12q-35 0 -54.5 -17t-19.5 -40q0 -9 2.5 -16.5t9 -14.5t13 -12t18.5 -12t20 -11t24.5 -12t25.5 -13q27 -14 40.5 -22t34 -24.5t29.5 -36.5t9 -46zM423 595l-94 -59h-79l83 133
q20 32 31.5 47.5t30.5 29.5t40 14q32 0 52 -20.5t20 -47.5q0 -16 -5.5 -29t-20 -26t-25 -20t-33.5 -22z" />
    <glyph glyph-name="Scedilla" unicode="&#x15e;" horiz-adv-x="628" 
d="M125 -157q48 -27 96 -27q43 0 43 27q0 16 -24 25t-68 6l-16 47l104 72q-81 17 -131 78l-46 -85h-94l60 256h97q7 -78 57 -122t125 -44q43 0 70.5 19t27.5 54q0 16 -8.5 29.5t-28 25t-36.5 19.5t-47 20l-15 6q-43 17 -69.5 31t-58.5 37.5t-48 57t-16 75.5q0 100 71 162
t170 62q122 0 186 -79l43 77h95l-58 -246h-98q-6 77 -46 116.5t-106 39.5q-41 0 -67.5 -19.5t-26.5 -52.5q0 -23 20.5 -43t39 -29.5t64.5 -28.5q11 -5 16 -7q33 -14 54 -24t49.5 -28t44.5 -36t27.5 -45.5t11.5 -59.5q0 -101 -71 -163t-175 -62h-5l-50 -40l1 -4
q98 -21 98 -87q0 -47 -42 -76t-110 -29q-82 0 -147 41z" />
    <glyph glyph-name="scedilla" unicode="&#x15f;" horiz-adv-x="487" 
d="M40 -157q48 -27 96 -27q43 0 43 27q0 16 -24 25t-68 6l-16 47l102 71q-77 8 -122.5 41t-45.5 78q0 36 23 58t57 22q38 0 58 -20.5t20 -48.5q0 -32 -22 -57q32 -16 70 -16q37 0 55.5 16.5t18.5 42.5q0 18 -16 34t-27.5 22t-44.5 22t-52 26.5t-40.5 28t-31.5 38t-10 46.5
q0 75 65 117t154 42t144.5 -34.5t55.5 -83.5q0 -33 -22.5 -54t-54.5 -21q-39 0 -60 21t-21 47q0 32 18 53q-19 12 -50 12q-35 0 -54.5 -17t-19.5 -40q0 -9 2.5 -16.5t9 -14.5t13 -12t18.5 -12t20 -11t24.5 -12t25.5 -13q27 -14 40.5 -22t34 -24.5t29.5 -36.5t9 -46
q0 -69 -51.5 -108.5t-131.5 -47.5l-58 -47l1 -4q98 -21 98 -87q0 -47 -42 -76t-110 -29q-82 0 -147 41z" />
    <glyph glyph-name="Scaron" unicode="&#x160;" horiz-adv-x="628" 
d="M-11 -14l60 256h97q7 -78 57 -122t125 -44q43 0 70.5 19t27.5 54q0 16 -8.5 29.5t-28 25t-36.5 19.5t-47 20l-15 6q-43 17 -69.5 31t-58.5 37.5t-48 57t-16 75.5q0 100 71 162t170 62q122 0 186 -79l43 77h95l-58 -246h-98q-6 77 -46 116.5t-106 39.5q-41 0 -67.5 -19.5
t-26.5 -52.5q0 -23 20.5 -43t39 -29.5t64.5 -28.5q11 -5 16 -7q33 -14 54 -24t49.5 -28t44.5 -36t27.5 -45.5t11.5 -59.5q0 -101 -71 -163t-175 -62q-141 0 -214 87l-46 -85h-94zM633 927l-177 -203h-98l-79 203h95l55 -83l98 83h106z" />
    <glyph glyph-name="scaron" unicode="&#x161;" horiz-adv-x="487" 
d="M444 147q0 -77 -63.5 -117.5t-156.5 -40.5q-98 0 -158.5 34.5t-60.5 87.5q0 36 23 58t57 22q38 0 58 -20.5t20 -48.5q0 -32 -22 -57q32 -16 70 -16q37 0 55.5 16.5t18.5 42.5q0 18 -16 34t-27.5 22t-44.5 22t-52 26.5t-40.5 28t-31.5 38t-10 46.5q0 75 65 117t154 42
t144.5 -34.5t55.5 -83.5q0 -33 -22.5 -54t-54.5 -21q-39 0 -60 21t-21 47q0 32 18 53q-19 12 -50 12q-35 0 -54.5 -17t-19.5 -40q0 -9 2.5 -16.5t9 -14.5t13 -12t18.5 -12t20 -11t24.5 -12t25.5 -13q27 -14 40.5 -22t34 -24.5t29.5 -36.5t9 -46zM529 739l-177 -203h-98
l-79 203h95l55 -83l98 83h106z" />
    <glyph glyph-name="Tcommaaccent" unicode="&#x162;" horiz-adv-x="707" 
d="M104 0l24 96h96l120 479h-23q-55 0 -79.5 -31.5t-81.5 -163.5h-95l70 278h641l-70 -278h-81q2 131 -9.5 163t-67.5 32h-15l-120 -479h100l-24 -96h-385zM147 -384l-17 57q118 32 148 99l-7 6q-11 -7 -28 -7q-33 0 -52.5 20.5t-19.5 51.5q0 41 27 70.5t69 29.5
q45 0 73 -30.5t28 -82.5q0 -78 -61 -135t-160 -79z" />
    <glyph glyph-name="tcommaaccent" unicode="&#x163;" horiz-adv-x="424" 
d="M432 382h-149l-53 -199q-7 -24 -7 -44q0 -41 38 -41q49 0 84 101l57 -20q-58 -190 -207 -190q-60 0 -100 31t-40 94q0 35 13 84l50 184h-82l20 78h83l32 116l169 20l-36 -136h148zM23 -384l-17 57q118 32 148 99l-7 6q-11 -7 -28 -7q-33 0 -52.5 20.5t-19.5 51.5
q0 41 27 70.5t69 29.5q45 0 73 -30.5t28 -82.5q0 -78 -61 -135t-160 -79z" />
    <glyph glyph-name="Tcaron" unicode="&#x164;" horiz-adv-x="707" 
d="M104 0l24 96h96l120 479h-23q-55 0 -79.5 -31.5t-81.5 -163.5h-95l70 278h641l-70 -278h-81q2 131 -9.5 163t-67.5 32h-15l-120 -479h100l-24 -96h-385zM691 927l-177 -203h-98l-79 203h95l55 -83l98 83h106z" />
    <glyph glyph-name="tcaron" unicode="&#x165;" horiz-adv-x="424" 
d="M432 382h-149l-53 -199q-7 -24 -7 -44q0 -41 38 -41q49 0 84 101l57 -20q-58 -190 -207 -190q-60 0 -100 31t-40 94q0 35 13 84l50 184h-82l20 78h83l32 116l169 20l-36 -136h148zM502 634l-61 -85h-60l29 163q10 54 29.5 78.5t55.5 24.5q27 0 47.5 -18.5t20.5 -46.5
q0 -9 -2 -18t-4.5 -15.5t-10 -18.5t-11 -17.5t-15.5 -22t-18 -24.5z" />
    <glyph glyph-name="Umacron" unicode="&#x16a;" horiz-adv-x="727" 
d="M328 -16q-115 0 -178 52t-63 132q0 33 16 99l74 295h-79l24 96h344l-24 -96h-84l-77 -306q-11 -46 -11 -71q0 -47 30.5 -68t76.5 -21q64 0 104 40q37 37 56 111l79 315h-78l24 96h254l-24 -96h-75l-84 -336q-25 -103 -85 -163q-79 -79 -220 -79zM392 724l27 107h319
l-27 -107h-319z" />
    <glyph glyph-name="umacron" unicode="&#x16b;" horiz-adv-x="674" 
d="M493 -11q-47 0 -74.5 25.5t-27.5 73.5q0 35 22 119l-8 3q-53 -121 -107.5 -171t-117.5 -50q-48 0 -78.5 27t-30.5 76q0 52 37 153t37 118q0 19 -16 19q-25 0 -65 -96l-55 20q64 178 187 178q51 0 79.5 -26.5t28.5 -69.5q0 -44 -32 -134t-32 -114q0 -33 30 -33
q94 0 185 366h168l-82 -317q-7 -27 -7 -41q0 -24 19 -24q31 0 63 95l55 -20q-57 -177 -178 -177zM225 536l27 107h319l-27 -107h-319z" />
    <glyph glyph-name="Ubreve" unicode="&#x16c;" horiz-adv-x="727" 
d="M328 -16q-115 0 -178 52t-63 132q0 33 16 99l74 295h-79l24 96h344l-24 -96h-84l-77 -306q-11 -46 -11 -71q0 -47 30.5 -68t76.5 -21q64 0 104 40q37 37 56 111l79 315h-78l24 96h254l-24 -96h-75l-84 -336q-25 -103 -85 -163q-79 -79 -220 -79zM554 718q-76 0 -112.5 49
t-14.5 146h79q-5 -44 14 -64t52 -20q74 0 99 84h83q-18 -98 -70 -146.5t-130 -48.5z" />
    <glyph glyph-name="ubreve" unicode="&#x16d;" horiz-adv-x="674" 
d="M493 -11q-47 0 -74.5 25.5t-27.5 73.5q0 35 22 119l-8 3q-53 -121 -107.5 -171t-117.5 -50q-48 0 -78.5 27t-30.5 76q0 52 37 153t37 118q0 19 -16 19q-25 0 -65 -96l-55 20q64 178 187 178q51 0 79.5 -26.5t28.5 -69.5q0 -44 -32 -134t-32 -114q0 -33 30 -33
q94 0 185 366h168l-82 -317q-7 -27 -7 -41q0 -24 19 -24q31 0 63 95l55 -20q-57 -177 -178 -177zM385 520q-76 0 -112.5 49t-14.5 146h79q-5 -44 14 -64t52 -20q74 0 99 84h83q-18 -98 -70 -146.5t-130 -48.5z" />
    <glyph glyph-name="Uring" unicode="&#x16e;" horiz-adv-x="727" 
d="M328 -16q-115 0 -178 52t-63 132q0 33 16 99l74 295h-79l24 96h344l-24 -96h-84l-77 -306q-11 -46 -11 -71q0 -47 30.5 -68t76.5 -21q64 0 104 40q37 37 56 111l79 315h-78l24 96h254l-24 -96h-75l-84 -336q-25 -103 -85 -163q-79 -79 -220 -79zM718 850q0 -54 -40 -93
t-104 -39q-58 0 -93.5 32.5t-35.5 79.5q0 54 40 93t104 39q58 0 93.5 -32.5t35.5 -79.5zM532 825q0 -21 10.5 -35.5t32.5 -14.5q23 0 39.5 22t16.5 58q0 21 -10.5 35.5t-32.5 14.5q-23 0 -39.5 -22t-16.5 -58z" />
    <glyph glyph-name="uring" unicode="&#x16f;" horiz-adv-x="674" 
d="M493 -11q-47 0 -74.5 25.5t-27.5 73.5q0 35 22 119l-8 3q-53 -121 -107.5 -171t-117.5 -50q-48 0 -78.5 27t-30.5 76q0 52 37 153t37 118q0 19 -16 19q-25 0 -65 -96l-55 20q64 178 187 178q51 0 79.5 -26.5t28.5 -69.5q0 -44 -32 -134t-32 -114q0 -33 30 -33
q94 0 185 366h168l-82 -317q-7 -27 -7 -41q0 -24 19 -24q31 0 63 95l55 -20q-57 -177 -178 -177zM552 662q0 -54 -40 -93t-104 -39q-58 0 -93.5 32.5t-35.5 79.5q0 54 40 93t104 39q58 0 93.5 -32.5t35.5 -79.5zM366 637q0 -21 10.5 -35.5t32.5 -14.5q23 0 39.5 22t16.5 58
q0 21 -10.5 35.5t-32.5 14.5q-23 0 -39.5 -22t-16.5 -58z" />
    <glyph glyph-name="Uhungarumlaut" unicode="&#x170;" horiz-adv-x="727" 
d="M328 -16q-115 0 -178 52t-63 132q0 33 16 99l74 295h-79l24 96h344l-24 -96h-84l-77 -306q-11 -46 -11 -71q0 -47 30.5 -68t76.5 -21q64 0 104 40q37 37 56 111l79 315h-78l24 96h254l-24 -96h-75l-84 -336q-25 -103 -85 -163q-79 -79 -220 -79zM541 783l-82 -59h-77
l69 133q24 46 45 68.5t49 22.5q31 0 51 -20t20 -47q0 -21 -11.5 -39.5t-24 -28.5t-39.5 -30zM742 783l-82 -59h-79l71 133q24 46 45 68.5t49 22.5q31 0 51 -20t20 -47q0 -21 -11.5 -39.5t-24 -28.5t-39.5 -30z" />
    <glyph glyph-name="uhungarumlaut" unicode="&#x171;" horiz-adv-x="674" 
d="M493 -11q-47 0 -74.5 25.5t-27.5 73.5q0 35 22 119l-8 3q-53 -121 -107.5 -171t-117.5 -50q-48 0 -78.5 27t-30.5 76q0 52 37 153t37 118q0 19 -16 19q-25 0 -65 -96l-55 20q64 178 187 178q51 0 79.5 -26.5t28.5 -69.5q0 -44 -32 -134t-32 -114q0 -33 30 -33
q94 0 185 366h168l-82 -317q-7 -27 -7 -41q0 -24 19 -24q31 0 63 95l55 -20q-57 -177 -178 -177zM375 595l-82 -59h-77l69 133q24 46 45 68.5t49 22.5q31 0 51 -20t20 -47q0 -21 -11.5 -39.5t-24 -28.5t-39.5 -30zM576 595l-82 -59h-79l71 133q24 46 45 68.5t49 22.5
q31 0 51 -20t20 -47q0 -21 -11.5 -39.5t-24 -28.5t-39.5 -30z" />
    <glyph glyph-name="Uogonek" unicode="&#x172;" horiz-adv-x="727" 
d="M422 -215q-62 -38 -127 -38q-56 0 -94 24.5t-38 75.5q0 75 117 140q-93 10 -143 60t-50 121q0 33 16 99l74 295h-79l24 96h344l-24 -96h-84l-77 -306q-11 -46 -11 -71q0 -47 30.5 -68t76.5 -21q64 0 104 40q37 37 56 111l79 315h-78l24 96h254l-24 -96h-75l-84 -336
q-25 -103 -85 -163t-156 -74l-1 -1q-54 -38 -76.5 -64.5t-22.5 -51.5q0 -19 12.5 -32t37.5 -13q30 0 60 17z" />
    <glyph glyph-name="uogonek" unicode="&#x173;" horiz-adv-x="674" 
d="M616 186l55 -20q-20 -60 -45.5 -99t-76.5 -75q-57 -39 -80.5 -66.5t-23.5 -53.5q0 -19 12.5 -32t37.5 -13q30 0 60 17l20 -59q-62 -38 -127 -38q-56 0 -94 24.5t-38 75.5q0 44 34 79.5t100 69.5q-59 20 -59 92q0 35 22 119l-8 3q-53 -121 -107.5 -171t-117.5 -50
q-48 0 -78.5 27t-30.5 76q0 52 37 153t37 118q0 19 -16 19q-25 0 -65 -96l-55 20q64 178 187 178q51 0 79.5 -26.5t28.5 -69.5q0 -44 -32 -134t-32 -114q0 -33 30 -33q94 0 185 366h168l-82 -317q-7 -27 -7 -41q0 -24 19 -24q31 0 63 95z" />
    <glyph glyph-name="Wcircumflex" unicode="&#x174;" horiz-adv-x="1054" 
d="M597 -4l-25 342l-201 -342h-160l-34 566h-86l24 96h322l-23 -94h-58l16 -393h7l183 306l-6 87h-70l23 94h308l-23 -94h-65l21 -393h7l196 393h-88l23 94h263l-24 -96h-67l-297 -566h-166zM482 724l177 203h98l79 -203h-95l-55 83l-98 -83h-106z" />
    <glyph glyph-name="wcircumflex" unicode="&#x175;" horiz-adv-x="823" 
d="M199 484q48 0 75 -25.5t27 -65.5q0 -53 -42 -145t-42 -116q0 -37 34 -37q29 0 54.5 30.5t56.5 116t64 231.5h151l-27 -113q-28 -118 -28 -188q0 -75 57 -75q63 0 107.5 85t38.5 147q-15 -11 -42 -11q-31 0 -52.5 21.5t-21.5 55.5q0 37 26 64.5t65 27.5q47 0 77 -34
t30 -105q0 -55 -19 -116t-52.5 -116t-87.5 -91t-117 -36t-101.5 35.5t-38.5 115.5v2l-6 2q-70 -155 -188 -155q-61 0 -101.5 38t-40.5 100q0 42 22.5 89.5t45.5 86.5t23 62q0 17 -15 17q-16 0 -32 -22.5t-41 -73.5l-55 20q40 89 87 133.5t109 44.5zM292 536l177 203h98
l79 -203h-95l-55 83l-98 -83h-106z" />
    <glyph glyph-name="Ycircumflex" unicode="&#x176;" horiz-adv-x="665" 
d="M414 364l161 200h-79l24 94h260l-24 -96h-65l-249 -291l-44 -175h84l-24 -96h-348l24 96h84l43 172l-109 294h-75l24 96h344l-24 -94h-74zM282 724l177 203h98l79 -203h-95l-55 83l-98 -83h-106z" />
    <glyph glyph-name="ycircumflex" unicode="&#x177;" horiz-adv-x="596" 
d="M199 484q46 0 73 -26t27 -66q0 -42 -28.5 -124.5t-28.5 -101.5q0 -29 30 -29q13 0 23.5 4t29 23.5t35.5 53t40 99t46 156.5h154l-103 -431q-16 -66 -46 -111.5t-70.5 -68t-80 -31t-87.5 -8.5q-26 0 -51.5 3.5t-60 13t-56 33.5t-21.5 59q0 32 22 55.5t59 23.5q36 0 57 -21
t21 -50q0 -35 -27 -55q16 -6 40 -6q56 0 87.5 35t52.5 115l34 126l-6 3q-41 -74 -83 -102.5t-93 -28.5q-53 0 -81.5 28.5t-28.5 72.5q0 43 34 128t34 109q0 17 -15 17q-16 0 -32 -22.5t-41 -73.5l-55 20q40 89 87 133.5t109 44.5zM184 536l177 203h98l79 -203h-95l-55 83
l-98 -83h-106z" />
    <glyph glyph-name="Ydieresis" unicode="&#x178;" horiz-adv-x="665" 
d="M414 364l161 200h-79l24 94h260l-24 -96h-65l-249 -291l-44 -175h84l-24 -96h-348l24 96h84l43 172l-109 294h-75l24 96h344l-24 -94h-74zM468 810q0 -35 -24.5 -63.5t-65.5 -28.5q-32 0 -52.5 20.5t-20.5 54.5q0 35 24.5 63.5t65.5 28.5q32 0 52.5 -20.5t20.5 -54.5z
M670 810q0 -35 -24.5 -63.5t-65.5 -28.5q-32 0 -52.5 20.5t-20.5 54.5q0 35 24.5 63.5t65.5 28.5q32 0 52.5 -20.5t20.5 -54.5z" />
    <glyph glyph-name="Zacute" unicode="&#x179;" horiz-adv-x="650" 
d="M-30 0l23 91l476 474h-117q-59 0 -89.5 -30.5t-90.5 -149.5h-88l69 273h562l-23 -91l-479 -474h140q59 0 90 32t93 158h88l-71 -283h-583zM556 783l-94 -59h-79l83 133q20 32 31.5 47.5t30.5 29.5t40 14q32 0 52 -20.5t20 -47.5q0 -16 -5.5 -29t-20 -26t-25 -20
t-33.5 -22z" />
    <glyph glyph-name="zacute" unicode="&#x17a;" horiz-adv-x="530" 
d="M202 159q39 -2 92.5 -11.5t71.5 -9.5q29 0 46.5 16t39.5 67l54 -15q-32 -117 -68.5 -167t-103.5 -50q-95 0 -152 84l-22 32l-9 -2q-10 -60 -35.5 -87t-53.5 -27q-33 0 -55 22.5t-22 53.5q0 76 144 96q48 56 93 89.5t108 63.5q-40 2 -88 11.5t-64 9.5q-30 0 -50.5 -16.5
t-41.5 -66.5l-54 15q32 116 70.5 166.5t108.5 50.5q82 0 139 -84l22 -32l9 2q10 60 35.5 87t53.5 27q33 0 55 -22.5t22 -53.5q0 -76 -144 -96q-48 -56 -93 -89.5t-108 -63.5zM449 595l-94 -59h-79l83 133q20 32 31.5 47.5t30.5 29.5t40 14q32 0 52 -20.5t20 -47.5
q0 -16 -5.5 -29t-20 -26t-25 -20t-33.5 -22z" />
    <glyph glyph-name="Zdotaccent" unicode="&#x17b;" horiz-adv-x="650" 
d="M-30 0l23 91l476 474h-117q-59 0 -89.5 -30.5t-90.5 -149.5h-88l69 273h562l-23 -91l-479 -474h140q59 0 90 32t93 158h88l-71 -283h-583zM559 813q0 -36 -27 -66t-73 -30q-36 0 -58.5 21.5t-22.5 57.5t27 66t73 30q36 0 58.5 -21.5t22.5 -57.5z" />
    <glyph glyph-name="zdotaccent" unicode="&#x17c;" horiz-adv-x="530" 
d="M202 159q39 -2 92.5 -11.5t71.5 -9.5q29 0 46.5 16t39.5 67l54 -15q-32 -117 -68.5 -167t-103.5 -50q-95 0 -152 84l-22 32l-9 -2q-10 -60 -35.5 -87t-53.5 -27q-33 0 -55 22.5t-22 53.5q0 76 144 96q48 56 93 89.5t108 63.5q-40 2 -88 11.5t-64 9.5q-30 0 -50.5 -16.5
t-41.5 -66.5l-54 15q32 116 70.5 166.5t108.5 50.5q82 0 139 -84l22 -32l9 2q10 60 35.5 87t53.5 27q33 0 55 -22.5t22 -53.5q0 -76 -144 -96q-48 -56 -93 -89.5t-108 -63.5zM452 625q0 -36 -27 -66t-73 -30q-36 0 -58.5 21.5t-22.5 57.5t27 66t73 30q36 0 58.5 -21.5
t22.5 -57.5z" />
    <glyph glyph-name="Zcaron" unicode="&#x17d;" horiz-adv-x="650" 
d="M-30 0l23 91l476 474h-117q-59 0 -89.5 -30.5t-90.5 -149.5h-88l69 273h562l-23 -91l-479 -474h140q59 0 90 32t93 158h88l-71 -283h-583zM663 927l-177 -203h-98l-79 203h95l55 -83l98 83h106z" />
    <glyph glyph-name="zcaron" unicode="&#x17e;" horiz-adv-x="530" 
d="M202 159q39 -2 92.5 -11.5t71.5 -9.5q29 0 46.5 16t39.5 67l54 -15q-32 -117 -68.5 -167t-103.5 -50q-95 0 -152 84l-22 32l-9 -2q-10 -60 -35.5 -87t-53.5 -27q-33 0 -55 22.5t-22 53.5q0 76 144 96q48 56 93 89.5t108 63.5q-40 2 -88 11.5t-64 9.5q-30 0 -50.5 -16.5
t-41.5 -66.5l-54 15q32 116 70.5 166.5t108.5 50.5q82 0 139 -84l22 -32l9 2q10 60 35.5 87t53.5 27q33 0 55 -22.5t22 -53.5q0 -76 -144 -96q-48 -56 -93 -89.5t-108 -63.5zM555 739l-177 -203h-98l-79 203h95l55 -83l98 83h106z" />
    <glyph glyph-name="Aringacute" unicode="&#x1fa;" horiz-adv-x="715" 
d="M603 755q0 -73 -63 -111l54 -548h79l-24 -96h-331l24 96h73l-7 105h-204l-58 -105h87l-24 -96h-260l24 96h66l323 561q-32 30 -32 78q0 54 40 93t104 39q58 0 93.5 -32.5t35.5 -79.5zM252 289h151l-14 240h-4zM417 730q0 -21 10.5 -35.5t32.5 -14.5q23 0 39.5 22t16.5 58
q0 21 -10.5 35.5t-32.5 14.5q-23 0 -39.5 -22t-16.5 -58zM625 969l-94 -59h-79l83 133q20 32 31.5 47.5t30.5 29.5t40 14q32 0 52 -20.5t20 -47.5q0 -16 -5.5 -29t-20 -26t-25 -20t-33.5 -22z" />
    <glyph glyph-name="aringacute" unicode="&#x1fb;" 
d="M570 473l-82 -317q-7 -27 -7 -41q0 -24 19 -24q31 0 63 95l55 -20q-57 -177 -178 -177q-47 0 -74.5 25.5t-27.5 73.5q0 8 2 26l-8 3q-58 -128 -161 -128q-74 0 -112 48t-38 120q0 75 29 148.5t72 116.5q62 62 140 62q45 0 76 -28t42 -70l24 87h166zM238 90q32 0 61.5 42
t45 96t15.5 97q0 72 -45 72q-31 0 -59.5 -43t-44 -99t-15.5 -101q0 -64 42 -64zM522 662q0 -54 -40 -93t-104 -39q-58 0 -93.5 32.5t-35.5 79.5q0 54 40 93t104 39q58 0 93.5 -32.5t35.5 -79.5zM336 637q0 -21 10.5 -35.5t32.5 -14.5q23 0 39.5 22t16.5 58q0 21 -10.5 35.5
t-32.5 14.5q-23 0 -39.5 -22t-16.5 -58zM535 875l-94 -59h-79l83 133q20 32 31.5 47.5t30.5 29.5t40 14q32 0 52 -20.5t20 -47.5q0 -16 -5.5 -29t-20 -26t-25 -20t-33.5 -22z" />
    <glyph glyph-name="AEacute" unicode="&#x1fc;" horiz-adv-x="1057" 
d="M359 96h79l29 115h-226l-102 -117h76l-24 -94h-264l24 96h60l424 466h-88l24 96h741l-61 -243h-93q5 97 -11.5 123.5t-81.5 26.5h-130l-47 -187h26q35 0 49 14.5t38 73.5h89l-67 -269h-87q8 57 1 72.5t-42 15.5h-30l-48 -192h123q33 0 55.5 6t38.5 15.5t31 34t26.5 49.5
t30.5 73h104l-68 -271h-623zM317 299h172l65 259h-11zM806 783l-94 -59h-79l83 133q20 32 31.5 47.5t30.5 29.5t40 14q32 0 52 -20.5t20 -47.5q0 -16 -5.5 -29t-20 -26t-25 -20t-33.5 -22z" />
    <glyph glyph-name="aeacute" unicode="&#x1fd;" horiz-adv-x="786" 
d="M607 484q79 0 124 -34t45 -89q0 -74 -76.5 -120.5t-232.5 -47.5q0 -63 28 -89.5t70 -26.5q67 0 131 72l45 -42q-101 -118 -233 -118q-131 0 -178 89q-81 -89 -185 -89q-67 0 -102 34t-35 84q0 43 23 74t67.5 48.5t97 26t122.5 11.5q12 44 12 71q0 65 -78 65q-26 0 -46 -7
q14 -14 14 -37q0 -33 -24 -53t-57 -20q-36 0 -54.5 20.5t-18.5 45.5q0 66 64 99t158 33q110 0 152 -50q76 50 167 50zM583 595l-94 -59h-79l83 133q20 32 31.5 47.5t30.5 29.5t40 14q32 0 52 -20.5t20 -47.5q0 -16 -5.5 -29t-20 -26t-25 -20t-33.5 -22zM586 416
q-39 0 -71 -51t-43 -117q83 3 118 37t35 79q0 52 -39 52zM307 181q0 23 2 35q-30 -3 -51 -6.5t-44 -12t-35 -24t-12 -37.5t13.5 -37.5t35.5 -15.5q51 0 95 51q-4 28 -4 47z" />
    <glyph glyph-name="Oslashacute" unicode="&#x1fe;" horiz-adv-x="746" 
d="M55 277q0 63 22.5 129t66 127.5t120 101t173.5 39.5q105 0 182 -52l92 99l64 -58l-95 -100q58 -75 58 -182q0 -49 -13 -101.5t-43.5 -106t-73 -95t-108 -68t-143.5 -26.5q-106 0 -183 52l-92 -99l-64 58l94 99q-57 75 -57 183zM438 585q-50 0 -90 -41t-62 -101.5
t-33.5 -119t-11.5 -105.5l293 313q-28 54 -96 54zM355 73q50 0 90 40.5t61.5 101.5t33 119t12.5 106l-294 -313q28 -54 97 -54zM581 783l-94 -59h-79l83 133q20 32 31.5 47.5t30.5 29.5t40 14q32 0 52 -20.5t20 -47.5q0 -16 -5.5 -29t-20 -26t-25 -20t-33.5 -22z" />
    <glyph glyph-name="oslashacute" unicode="&#x1ff;" horiz-adv-x="554" 
d="M58 -52l-51 46l60 65q-47 52 -47 128q0 121 89.5 209t205.5 88q66 0 117 -28l64 69l51 -46l-60 -65q47 -53 47 -128q0 -121 -89.5 -209t-205.5 -88q-65 0 -117 27zM443 595l-94 -59h-79l83 133q20 32 31.5 47.5t30.5 29.5t40 14q32 0 52 -20.5t20 -47.5q0 -16 -5.5 -29
t-20 -26t-25 -20t-33.5 -22zM318 415q-45 0 -77.5 -71t-45.5 -156l166 186q-7 41 -43 41zM235 58q45 0 77.5 70t45.5 155l-166 -185q8 -40 43 -40z" />
    <glyph glyph-name="Scommaaccent" unicode="&#x218;" horiz-adv-x="628" 
d="M-11 -14l60 256h97q7 -78 57 -122t125 -44q43 0 70.5 19t27.5 54q0 16 -8.5 29.5t-28 25t-36.5 19.5t-47 20l-15 6q-43 17 -69.5 31t-58.5 37.5t-48 57t-16 75.5q0 100 71 162t170 62q122 0 186 -79l43 77h95l-58 -246h-98q-6 77 -46 116.5t-106 39.5q-41 0 -67.5 -19.5
t-26.5 -52.5q0 -23 20.5 -43t39 -29.5t64.5 -28.5q11 -5 16 -7q33 -14 54 -24t49.5 -28t44.5 -36t27.5 -45.5t11.5 -59.5q0 -101 -71 -163t-175 -62q-141 0 -214 87l-46 -85h-94zM115 -384l-17 57q118 32 148 99l-7 6q-11 -7 -28 -7q-33 0 -52.5 20.5t-19.5 51.5
q0 41 27 70.5t69 29.5q45 0 73 -30.5t28 -82.5q0 -78 -61 -135t-160 -79z" />
    <glyph glyph-name="scommaaccent" unicode="&#x219;" horiz-adv-x="487" 
d="M444 147q0 -77 -63.5 -117.5t-156.5 -40.5q-98 0 -158.5 34.5t-60.5 87.5q0 36 23 58t57 22q38 0 58 -20.5t20 -48.5q0 -32 -22 -57q32 -16 70 -16q37 0 55.5 16.5t18.5 42.5q0 18 -16 34t-27.5 22t-44.5 22t-52 26.5t-40.5 28t-31.5 38t-10 46.5q0 75 65 117t154 42
t144.5 -34.5t55.5 -83.5q0 -33 -22.5 -54t-54.5 -21q-39 0 -60 21t-21 47q0 32 18 53q-19 12 -50 12q-35 0 -54.5 -17t-19.5 -40q0 -9 2.5 -16.5t9 -14.5t13 -12t18.5 -12t20 -11t24.5 -12t25.5 -13q27 -14 40.5 -22t34 -24.5t29.5 -36.5t9 -46zM33 -384l-17 57
q118 32 148 99l-7 6q-11 -7 -28 -7q-33 0 -52.5 20.5t-19.5 51.5q0 41 27 70.5t69 29.5q45 0 73 -30.5t28 -82.5q0 -78 -61 -135t-160 -79z" />
    <glyph glyph-name="schwa" unicode="&#x259;" horiz-adv-x="509" 
d="M10 112q0 74 76.5 120t232.5 48q-1 63 -29 89.5t-69 26.5q-67 0 -131 -72l-45 42q101 118 233 118q97 0 154 -51.5t57 -139.5q0 -122 -88.5 -213t-221.5 -91q-79 0 -124 34t-45 89zM200 57q39 0 70.5 50.5t43.5 117.5q-83 -3 -118 -37.5t-35 -78.5q0 -52 39 -52z" />
    <glyph glyph-name="circumflex" unicode="&#x2c6;" horiz-adv-x="373" 
d="M83 536l177 203h98l79 -203h-95l-55 83l-98 -83h-106z" />
    <glyph glyph-name="caron" unicode="&#x2c7;" horiz-adv-x="373" 
d="M459 739l-177 -203h-98l-79 203h95l55 -83l98 83h106z" />
    <glyph glyph-name="breve" unicode="&#x2d8;" horiz-adv-x="370" 
d="M270 530q-76 0 -112.5 49t-14.5 146h79q-5 -44 14 -64t52 -20q74 0 99 84h83q-18 -98 -70 -146.5t-130 -48.5z" />
    <glyph glyph-name="dotaccent" unicode="&#x2d9;" horiz-adv-x="222" 
d="M296 625q0 -36 -27 -66t-73 -30q-36 0 -58.5 21.5t-22.5 57.5t27 66t73 30q36 0 58.5 -21.5t22.5 -57.5z" />
    <glyph glyph-name="ring" unicode="&#x2da;" horiz-adv-x="311" 
d="M393 662q0 -54 -40 -93t-104 -39q-58 0 -93.5 32.5t-35.5 79.5q0 54 40 93t104 39q58 0 93.5 -32.5t35.5 -79.5zM207 637q0 -21 10.5 -35.5t32.5 -14.5q23 0 39.5 22t16.5 58q0 21 -10.5 35.5t-32.5 14.5q-23 0 -39.5 -22t-16.5 -58z" />
    <glyph glyph-name="ogonek" unicode="&#x2db;" horiz-adv-x="317" 
d="M182 -215q-62 -38 -127 -38q-56 0 -94 24.5t-38 75.5q0 46 38 82.5t110 73.5l28 14h93l-41 -29q-54 -38 -76.5 -64.5t-22.5 -51.5q0 -19 12.5 -32t37.5 -13q30 0 60 17z" />
    <glyph glyph-name="tilde" unicode="&#x2dc;" horiz-adv-x="431" 
d="M226 585q-34 0 -58 -55h-73q29 96 58.5 138t86.5 42q34 0 87 -27t70 -27q34 0 58 55h73q-29 -96 -58.5 -138t-86.5 -42q-34 0 -87 27t-70 27z" />
    <glyph glyph-name="hungarumlaut" unicode="&#x2dd;" horiz-adv-x="354" 
d="M212 595l-82 -59h-77l69 133q24 46 45 68.5t49 22.5q31 0 51 -20t20 -47q0 -21 -11.5 -39.5t-24 -28.5t-39.5 -30zM413 595l-82 -59h-79l71 133q24 46 45 68.5t49 22.5q31 0 51 -20t20 -47q0 -21 -11.5 -39.5t-24 -28.5t-39.5 -30z" />
    <glyph glyph-name="commaaccent" unicode="&#x326;" horiz-adv-x="275" 
d="M-83 -384l-17 57q118 32 148 99l-7 6q-11 -7 -28 -7q-33 0 -52.5 20.5t-19.5 51.5q0 41 27 70.5t69 29.5q45 0 73 -30.5t28 -82.5q0 -78 -61 -135t-160 -79z" />
    <glyph glyph-name="Wgrave" unicode="&#x1e80;" horiz-adv-x="1054" 
d="M597 -4l-25 342l-201 -342h-160l-34 566h-86l24 96h322l-23 -94h-58l16 -393h7l183 306l-6 87h-70l23 94h308l-23 -94h-65l21 -393h7l196 393h-88l23 94h263l-24 -96h-67l-297 -566h-166zM675 836l29 -112h-70l-58 58q-57 57 -57 98q0 26 20 47.5t53 21.5q16 0 28 -6.5
t19.5 -14.5t15 -26t11 -29.5t9.5 -36.5z" />
    <glyph glyph-name="wgrave" unicode="&#x1e81;" horiz-adv-x="823" 
d="M199 484q48 0 75 -25.5t27 -65.5q0 -53 -42 -145t-42 -116q0 -37 34 -37q29 0 54.5 30.5t56.5 116t64 231.5h151l-27 -113q-28 -118 -28 -188q0 -75 57 -75q63 0 107.5 85t38.5 147q-15 -11 -42 -11q-31 0 -52.5 21.5t-21.5 55.5q0 37 26 64.5t65 27.5q47 0 77 -34
t30 -105q0 -55 -19 -116t-52.5 -116t-87.5 -91t-117 -36t-101.5 35.5t-38.5 115.5v2l-6 2q-70 -155 -188 -155q-61 0 -101.5 38t-40.5 100q0 42 22.5 89.5t45.5 86.5t23 62q0 17 -15 17q-16 0 -32 -22.5t-41 -73.5l-55 20q40 89 87 133.5t109 44.5zM485 648l29 -112h-70
l-58 58q-57 57 -57 98q0 26 20 47.5t53 21.5q16 0 28 -6.5t19.5 -14.5t15 -26t11 -29.5t9.5 -36.5z" />
    <glyph glyph-name="Wacute" unicode="&#x1e82;" horiz-adv-x="1054" 
d="M597 -4l-25 342l-201 -342h-160l-34 566h-86l24 96h322l-23 -94h-58l16 -393h7l183 306l-6 87h-70l23 94h308l-23 -94h-65l21 -393h7l196 393h-88l23 94h263l-24 -96h-67l-297 -566h-166zM777 783l-94 -59h-79l83 133q20 32 31.5 47.5t30.5 29.5t40 14q32 0 52 -20.5
t20 -47.5q0 -16 -5.5 -29t-20 -26t-25 -20t-33.5 -22z" />
    <glyph glyph-name="wacute" unicode="&#x1e83;" horiz-adv-x="823" 
d="M199 484q48 0 75 -25.5t27 -65.5q0 -53 -42 -145t-42 -116q0 -37 34 -37q29 0 54.5 30.5t56.5 116t64 231.5h151l-27 -113q-28 -118 -28 -188q0 -75 57 -75q63 0 107.5 85t38.5 147q-15 -11 -42 -11q-31 0 -52.5 21.5t-21.5 55.5q0 37 26 64.5t65 27.5q47 0 77 -34
t30 -105q0 -55 -19 -116t-52.5 -116t-87.5 -91t-117 -36t-101.5 35.5t-38.5 115.5v2l-6 2q-70 -155 -188 -155q-61 0 -101.5 38t-40.5 100q0 42 22.5 89.5t45.5 86.5t23 62q0 17 -15 17q-16 0 -32 -22.5t-41 -73.5l-55 20q40 89 87 133.5t109 44.5zM587 595l-94 -59h-79
l83 133q20 32 31.5 47.5t30.5 29.5t40 14q32 0 52 -20.5t20 -47.5q0 -16 -5.5 -29t-20 -26t-25 -20t-33.5 -22z" />
    <glyph glyph-name="Wdieresis" unicode="&#x1e84;" horiz-adv-x="1054" 
d="M597 -4l-25 342l-201 -342h-160l-34 566h-86l24 96h322l-23 -94h-58l16 -393h7l183 306l-6 87h-70l23 94h308l-23 -94h-65l21 -393h7l196 393h-88l23 94h263l-24 -96h-67l-297 -566h-166zM668 810q0 -35 -24.5 -63.5t-65.5 -28.5q-32 0 -52.5 20.5t-20.5 54.5
q0 35 24.5 63.5t65.5 28.5q32 0 52.5 -20.5t20.5 -54.5zM870 810q0 -35 -24.5 -63.5t-65.5 -28.5q-32 0 -52.5 20.5t-20.5 54.5q0 35 24.5 63.5t65.5 28.5q32 0 52.5 -20.5t20.5 -54.5z" />
    <glyph glyph-name="wdieresis" unicode="&#x1e85;" horiz-adv-x="823" 
d="M199 484q48 0 75 -25.5t27 -65.5q0 -53 -42 -145t-42 -116q0 -37 34 -37q29 0 54.5 30.5t56.5 116t64 231.5h151l-27 -113q-28 -118 -28 -188q0 -75 57 -75q63 0 107.5 85t38.5 147q-15 -11 -42 -11q-31 0 -52.5 21.5t-21.5 55.5q0 37 26 64.5t65 27.5q47 0 77 -34
t30 -105q0 -55 -19 -116t-52.5 -116t-87.5 -91t-117 -36t-101.5 35.5t-38.5 115.5v2l-6 2q-70 -155 -188 -155q-61 0 -101.5 38t-40.5 100q0 42 22.5 89.5t45.5 86.5t23 62q0 17 -15 17q-16 0 -32 -22.5t-41 -73.5l-55 20q40 89 87 133.5t109 44.5zM680 622
q0 -35 -24.5 -63.5t-65.5 -28.5q-32 0 -52.5 20.5t-20.5 54.5q0 35 24.5 63.5t65.5 28.5q32 0 52.5 -20.5t20.5 -54.5zM478 622q0 -35 -24.5 -63.5t-65.5 -28.5q-32 0 -52.5 20.5t-20.5 54.5q0 35 24.5 63.5t65.5 28.5q32 0 52.5 -20.5t20.5 -54.5z" />
    <glyph glyph-name="Ygrave" unicode="&#x1ef2;" horiz-adv-x="665" 
d="M414 364l161 200h-79l24 94h260l-24 -96h-65l-249 -291l-44 -175h84l-24 -96h-348l24 96h84l43 172l-109 294h-75l24 96h344l-24 -94h-74zM474 836l29 -112h-70l-58 58q-57 57 -57 98q0 26 20 47.5t53 21.5q16 0 28 -6.5t19.5 -14.5t15 -26t11 -29.5t9.5 -36.5z" />
    <glyph glyph-name="ygrave" unicode="&#x1ef3;" horiz-adv-x="596" 
d="M199 484q46 0 73 -26t27 -66q0 -42 -28.5 -124.5t-28.5 -101.5q0 -29 30 -29q13 0 23.5 4t29 23.5t35.5 53t40 99t46 156.5h154l-103 -431q-16 -66 -46 -111.5t-70.5 -68t-80 -31t-87.5 -8.5q-26 0 -51.5 3.5t-60 13t-56 33.5t-21.5 59q0 32 22 55.5t59 23.5q36 0 57 -21
t21 -50q0 -35 -27 -55q16 -6 40 -6q56 0 87.5 35t52.5 115l34 126l-6 3q-41 -74 -83 -102.5t-93 -28.5q-53 0 -81.5 28.5t-28.5 72.5q0 43 34 128t34 109q0 17 -15 17q-16 0 -32 -22.5t-41 -73.5l-55 20q40 89 87 133.5t109 44.5zM377 648l29 -112h-70l-58 58q-57 57 -57 98
q0 26 20 47.5t53 21.5q16 0 28 -6.5t19.5 -14.5t15 -26t11 -29.5t9.5 -36.5z" />
    <glyph glyph-name="enspace" unicode="&#x2002;" horiz-adv-x="500" 
 />
    <glyph glyph-name="emspace" unicode="&#x2003;" horiz-adv-x="1000" 
 />
    <glyph glyph-name="threeperemspace" unicode="&#x2004;" horiz-adv-x="333" 
 />
    <glyph glyph-name="fourperemspace" unicode="&#x2005;" horiz-adv-x="250" 
 />
    <glyph glyph-name="thinspace" unicode="&#x2009;" horiz-adv-x="133" 
 />
    <glyph glyph-name="hairspace" unicode="&#x200a;" horiz-adv-x="75" 
 />
    <glyph glyph-name="endash" unicode="&#x2013;" horiz-adv-x="525" 
d="M36 201l25 101h435l-25 -101h-435z" />
    <glyph glyph-name="emdash" unicode="&#x2014;" horiz-adv-x="775" 
d="M36 201l25 101h685l-25 -101h-685z" />
    <glyph glyph-name="quoteleft" unicode="&#x2018;" horiz-adv-x="267" 
d="M318 682l17 -60q-66 -15 -109.5 -45t-59.5 -66l7 -6q13 10 33 10q31 0 50 -23t19 -57q0 -43 -28 -75t-72 -32q-48 0 -76.5 32.5t-28.5 88.5q0 88 69 150t179 83z" />
    <glyph glyph-name="quoteright" unicode="&#x2019;" horiz-adv-x="267" 
d="M80 320l-17 60q66 15 109.5 45t59.5 66l-7 6q-13 -10 -33 -10q-31 0 -50 23t-19 57q0 43 28 75t72 32q48 0 76.5 -32.5t28.5 -88.5q0 -88 -69 -150t-179 -83z" />
    <glyph glyph-name="quotesinglbase" unicode="&#x201a;" horiz-adv-x="267" 
d="M-59 -173l-17 60q66 15 109.5 45t59.5 66l-7 6q-13 -10 -33 -10q-31 0 -50 23t-19 57q0 43 28 75t72 32q48 0 76.5 -32.5t28.5 -88.5q0 -88 -69 -150t-179 -83z" />
    <glyph glyph-name="quotedblleft" unicode="&#x201c;" horiz-adv-x="521" 
d="M331 682l17 -60q-66 -15 -109.5 -45t-59.5 -66l7 -6q13 10 33 10q31 0 50 -23t19 -57q0 -43 -28 -75t-72 -32q-48 0 -76.5 32.5t-28.5 88.5q0 88 69 150t179 83zM572 682l17 -60q-66 -15 -109.5 -45t-59.5 -66l7 -6q13 10 33 10q31 0 50 -23t19 -57q0 -43 -28 -75
t-72 -32q-48 0 -76.5 32.5t-28.5 88.5q0 88 69 150t179 83z" />
    <glyph glyph-name="quotedblright" unicode="&#x201d;" horiz-adv-x="521" 
d="M80 320l-17 60q66 15 109.5 45t59.5 66l-7 6q-13 -10 -33 -10q-31 0 -50 23t-19 57q0 43 28 75t72 32q48 0 76.5 -32.5t28.5 -88.5q0 -88 -69 -150t-179 -83zM321 320l-17 60q66 15 109.5 45t59.5 66l-7 6q-13 -10 -33 -10q-31 0 -50 23t-19 57q0 43 28 75t72 32
q48 0 76.5 -32.5t28.5 -88.5q0 -88 -69 -150t-179 -83z" />
    <glyph glyph-name="quotedblbase" unicode="&#x201e;" horiz-adv-x="508" 
d="M-59 -173l-17 60q66 15 109.5 45t59.5 66l-7 6q-13 -10 -33 -10q-31 0 -50 23t-19 57q0 43 28 75t72 32q48 0 76.5 -32.5t28.5 -88.5q0 -88 -69 -150t-179 -83zM182 -173l-17 60q66 15 109.5 45t59.5 66l-7 6q-13 -10 -33 -10q-31 0 -50 23t-19 57q0 43 28 75t72 32
q48 0 76.5 -32.5t28.5 -88.5q0 -88 -69 -150t-179 -83z" />
    <glyph glyph-name="dagger" unicode="&#x2020;" horiz-adv-x="549" 
d="M450 618l-100 -175q54 -24 100 -24h4q-7 44 13.5 72.5t55.5 28.5q30 0 48 -19t18 -51q0 -36 -29 -66.5t-77 -30.5q-24 0 -47.5 5t-40 10.5t-58.5 21.5l-28 -311l-33 -133q-6 -23 -36.5 -41.5t-46.5 -18.5q-13 0 -34.5 34.5t-15.5 58.5l33 133l119 293q-54 24 -100 24h-4
q7 -44 -13.5 -72.5t-55.5 -28.5q-30 0 -48 19t-18 51q0 36 29 66.5t77 30.5q24 0 47.5 -5t40 -10.5t58.5 -21.5l-6 197l11 15q26 35 64 35q30 0 48 -20.5t22 -47.5z" />
    <glyph glyph-name="daggerdbl" unicode="&#x2021;" horiz-adv-x="549" 
d="M282 178q55 -22 97 -22h4q-7 44 13.5 72.5t55.5 28.5q30 0 48 -19t18 -51q0 -36 -29 -66.5t-77 -30.5q-24 0 -47.5 5t-40 10.5t-58.5 21.5l9 -190l-11 -15q-26 -35 -64 -35q-30 0 -48 20.5t-22 47.5l-3 19l97 168q-54 24 -100 24h-4q7 -44 -13.5 -72.5t-55.5 -28.5
q-30 0 -48 19t-18 51q0 36 29 66.5t77 30.5q24 0 47 -5t39 -10.5t57 -20.5l-5 116l66 101q-52 23 -97 23h-4q7 -44 -13.5 -72.5t-55.5 -28.5q-30 0 -48 19t-18 51q0 36 29 66.5t77 30.5q24 0 47.5 -5t40 -10.5t58.5 -21.5l-9 190l11 15q26 35 64 35q30 0 48 -20.5t22 -47.5
l3 -19l-97 -168q54 -24 100 -24h4q-7 44 13.5 72.5t55.5 28.5q30 0 48 -19t18 -51q0 -36 -29 -66.5t-77 -30.5q-35 0 -62.5 7.5t-81.5 28.5l6 -116z" />
    <glyph glyph-name="bullet" unicode="&#x2022;" horiz-adv-x="480" 
d="M248 157q-62 0 -101 43t-39 106q0 78 49 131t118 53q62 0 101 -43t39 -106q0 -78 -49 -131t-118 -53z" />
    <glyph glyph-name="ellipsis" unicode="&#x2026;" horiz-adv-x="790" 
d="M85 -17q-38 0 -62.5 26.5t-24.5 65.5q0 48 30.5 81t73.5 33q38 0 62.5 -26.5t24.5 -65.5q0 -48 -30.5 -81t-73.5 -33zM348 -17q-38 0 -62.5 26.5t-24.5 65.5q0 48 30.5 81t73.5 33q38 0 62.5 -26.5t24.5 -65.5q0 -48 -30.5 -81t-73.5 -33zM612 -17q-38 0 -62.5 26.5
t-24.5 65.5q0 48 30.5 81t73.5 33q38 0 62.5 -26.5t24.5 -65.5q0 -48 -30.5 -81t-73.5 -33z" />
    <glyph glyph-name="guilsinglleft" unicode="&#x2039;" horiz-adv-x="315" 
d="M199 32l-163 162q-18 19 -18 40q0 28 33 48l233 143l35 -50l-155 -151l83 -154z" />
    <glyph glyph-name="guilsinglright" unicode="&#x203a;" horiz-adv-x="315" 
d="M116 426l163 -162q18 -19 18 -40q0 -28 -33 -48l-233 -143l-35 50l155 151l-83 154z" />
    <glyph glyph-name="Euro" unicode="&#x20ac;" horiz-adv-x="668" 
d="M444 337h-150q-4 -20 -6 -62h141l-21 -85h-114q21 -105 114 -105q89 0 158 130l73 -47q-93 -184 -263 -184q-103 0 -171 52t-86 152h-104l21 87h77q2 34 7 62h-69l22 87h72q41 101 125.5 163.5t197.5 62.5q101 0 158 -50t57 -116q0 -49 -26.5 -80t-65.5 -31
q-35 0 -56.5 21.5t-21.5 54.5q0 30 14 51t33 30q-5 12 -27 23.5t-52 11.5q-116 0 -167 -143h152z" />
    <glyph glyph-name="published" unicode="&#x2117;" horiz-adv-x="787" 
d="M393 -35q-160 0 -264.5 102.5t-104.5 260.5t104.5 261t264.5 103t264.5 -103t104.5 -261t-104.5 -260.5t-264.5 -102.5zM393 19q136 0 219.5 86t83.5 223t-83.5 223.5t-219.5 86.5t-219.5 -86.5t-83.5 -223.5t83.5 -223t219.5 -86zM242 144v53h45v256h-45v53h190
q160 0 160 -113q0 -53 -39.5 -83t-120.5 -30h-41v-83h48v-53h-197zM391 332h32q33 0 46.5 14t13.5 48t-12.5 48t-47.5 14h-32v-124z" />
    <glyph glyph-name="servicemark" unicode="&#x2120;" horiz-adv-x="857" 
d="M65 335l28 122h52q12 -78 90 -78q46 0 46 34q0 15 -15 25t-46 22q-5 2 -8 3q-21 9 -34.5 15.5t-29.5 17.5t-23.5 26.5t-7.5 34.5q0 47 39.5 77.5t95.5 30.5q63 0 95 -37l20 36h50l-28 -117h-51q-9 72 -76 72q-21 0 -34 -9t-13 -25q0 -14 15 -23.5t45 -21.5q5 -2 8 -3
q22 -9 35 -15.5t29 -18t24 -27t8 -35.5q0 -48 -39.5 -77.5t-100.5 -29.5q-69 0 -104 40l-21 -39h-49zM382 341l12 55h43l51 207h-41l14 55h181l10 -162h7l86 162h180l-14 -55h-43l-51 -207h43l-14 -55h-179l13 54h40l52 206h-7l-148 -260h-44l-23 260h-7l-52 -206h40
l-13 -54h-136z" />
    <glyph glyph-name="trademark" unicode="&#x2122;" horiz-adv-x="889" 
d="M414 341l14 55h41l51 207h-41l14 55h181l10 -162h7l86 162h180l-14 -55h-43l-51 -207h43l-14 -55h-179l13 54h40l52 206h-7l-148 -260h-44l-23 260h-7l-52 -206h40l-13 -54h-136zM117 341l14 55h54l53 215h-16q-26 0 -40 -16.5t-37 -76.5h-49l35 140h334l-35 -140h-42
q0 59 -7 76t-30 17h-17l-53 -215h54l-14 -55h-204z" />
    <glyph glyph-name="minus" unicode="&#x2212;" horiz-adv-x="519" 
d="M459 239h-397l23 95h397z" />
    <glyph glyph-name="registered.alt" horiz-adv-x="787" 
d="M393 -35q-160 0 -264.5 102.5t-104.5 260.5t104.5 261t264.5 103t264.5 -103t104.5 -261t-104.5 -260.5t-264.5 -102.5zM393 19q136 0 219.5 86t83.5 223t-83.5 223.5t-219.5 86.5t-219.5 -86.5t-83.5 -223.5t83.5 -223t219.5 -86zM362 303v-100h48v-53h-196v53h44v256
h-44v53h208q76 0 112.5 -26.5t36.5 -66.5q0 -80 -121 -92v-3q53 -3 75.5 -22.5t25.5 -56.5l1 -12q1 -18 4.5 -24t12.5 -6q12 0 21 36l36 -9q-8 -42 -28.5 -65t-61.5 -23q-49 0 -69.5 25t-20.5 75v8q0 29 -10 41t-36 12h-38zM362 353h43q29 0 42.5 12t13.5 42q0 31 -11.5 43
t-44.5 12h-43v-109z" />
    <glyph glyph-name="zero.osf" horiz-adv-x="625" 
d="M38 230q0 42 11 88t35.5 93t59.5 83.5t87.5 60t115.5 23.5q118 0 184.5 -66t66.5 -180q0 -42 -11 -88t-35.5 -93t-59.5 -83.5t-87.5 -60t-115.5 -23.5q-118 0 -184.5 66t-66.5 180zM420 410q0 51 -18.5 68t-48.5 17q-33 0 -60.5 -40t-43.5 -97.5t-24.5 -112.5t-8.5 -93
q0 -51 18.5 -68t48.5 -17q33 0 60.5 40t43.5 97.5t24.5 112.5t8.5 93z" />
    <glyph glyph-name="one.osf" horiz-adv-x="470" 
d="M-20 0l23 91h125l78 316q-18 -5 -50 -5q-44 0 -83 12l19 78q141 -6 218 79h107l-119 -480h121l-23 -91h-416z" />
    <glyph glyph-name="two.osf" horiz-adv-x="566" 
d="M204 484q42 -19 42 -68q0 -37 -24.5 -61t-64.5 -24t-64 23t-24 61q0 66 69 114.5t175 48.5q114 0 176.5 -45t62.5 -111q0 -37 -13 -66.5t-34.5 -49t-54 -34.5t-65 -24t-74.5 -16q-89 -15 -137.5 -39t-74.5 -62l4 -5q50 37 118 37q46 0 99.5 -12t78.5 -12q27 0 43.5 17
t30.5 60l63 -13q-24 -121 -62 -170t-103 -49q-40 0 -72.5 16t-50.5 35.5t-41 35.5t-46 16q-19 0 -31 -3q10 -16 10 -34q0 -30 -20.5 -48.5t-51.5 -18.5q-28 0 -50.5 21.5t-22.5 63.5q0 121 211 218q45 21 67 32.5t48 29.5t36.5 38t10.5 46q0 33 -25 52t-68 19t-71 -19z" />
    <glyph glyph-name="three.osf" horiz-adv-x="552" 
d="M122 -7q22 -13 68 -13q116 0 116 137q0 43 -28 60.5t-95 17.5h-17l22 87h29q69 0 111 42q36 36 36 99q0 80 -79 80q-43 0 -64 -16q32 -29 32 -66q0 -36 -24 -60.5t-64 -24.5q-43 0 -68 24t-25 62q0 68 69 112t172 44q114 0 174.5 -44.5t60.5 -113.5q0 -75 -56.5 -124.5
t-163.5 -58.5l-1 -4q163 -14 163 -135q0 -80 -71 -136.5t-195 -56.5q-115 0 -179.5 41.5t-64.5 108.5q0 46 28.5 76.5t70.5 30.5q41 0 63 -25t22 -61q0 -55 -42 -83z" />
    <glyph glyph-name="four.osf" horiz-adv-x="589" 
d="M301 205l61 247h-6l-241 -247h186zM407 5h82l-23 -90h-319l23 90h82l26 106h-294l19 85l377 377h168l-92 -368h114l-23 -94h-114z" />
    <glyph glyph-name="five.osf" horiz-adv-x="542" 
d="M203 428l-50 -153q73 48 150 48q91 0 139.5 -48t48.5 -123q0 -99 -72.5 -173.5t-202.5 -74.5q-100 0 -163 39t-63 102q0 41 27 70t71 29q37 0 59 -22.5t22 -55.5q0 -44 -40 -76q15 -11 53 -11q65 0 96 50.5t31 111.5q0 28 -9 47t-24 27.5t-27.5 11.5t-26.5 3
q-49 0 -101 -33l-68 23l104 333l38 26q84 -32 196 -32q75 0 152 33l25 -52q-89 -128 -224 -128q-76 0 -141 28z" />
    <glyph glyph-name="six.osf" horiz-adv-x="585" 
d="M398 648q90 0 145 -39t55 -100q0 -40 -24 -69t-70 -29q-38 0 -60.5 22t-22.5 54q0 45 36 72q-19 17 -55 17q-64 0 -109 -62.5t-64 -166.5q51 46 138 46q76 0 128.5 -45t52.5 -120q0 -99 -71.5 -171.5t-189.5 -72.5q-119 0 -183.5 69t-64.5 185q0 167 100.5 288.5
t258.5 121.5zM273 58q46 0 72.5 49t26.5 118q0 94 -65 94q-48 0 -76 -47t-28 -118q0 -44 18.5 -70t51.5 -26z" />
    <glyph glyph-name="seven.osf" horiz-adv-x="563" 
d="M264 4q-18 -48 -42.5 -74t-66.5 -26q-41 0 -68.5 24.5t-27.5 58.5q0 65 69.5 136t272.5 225l67 54l-6 6q-61 -38 -110 -38q-29 0 -70 17t-60 17q-24 0 -40.5 -19.5t-44.5 -78.5h-89l66 265h95l-11 -92h8q27 53 51.5 76t56.5 23q29 0 49.5 -17.5t30 -38.5t24 -38.5
t33.5 -17.5q4 0 8 2q-6 16 -6 33q0 34 21 55.5t58 21.5q32 0 54 -18.5t22 -49.5q0 -59 -76 -117q-84 -64 -146.5 -148.5t-121.5 -240.5z" />
    <glyph glyph-name="eight.osf" horiz-adv-x="576" 
d="M583 491q0 -61 -44.5 -98.5t-111.5 -47.5q107 -58 107 -152q0 -91 -73.5 -149.5t-194.5 -58.5q-122 0 -187.5 44t-65.5 112q0 65 45.5 104.5t122.5 49.5q-94 49 -94 142q0 89 74 150t187 61q112 0 173.5 -47.5t61.5 -109.5zM370 142q0 38 -35 63.5t-116 61.5
q-73 -54 -73 -118q0 -38 30.5 -64.5t87.5 -26.5q46 0 76 22.5t30 61.5zM256 492q0 -37 31 -62.5t99 -55.5q64 52 64 115q0 34 -25 60t-72 26q-43 0 -70 -23t-27 -60z" />
    <glyph glyph-name="nine.osf" horiz-adv-x="585" 
d="M324 504q-46 0 -72.5 -50t-26.5 -119q0 -97 64 -97q48 0 76.5 48.5t28.5 119.5q0 44 -18.5 71t-51.5 27zM367 210q-51 -46 -138 -46q-76 0 -128 46.5t-52 121.5q0 99 71.5 172.5t189.5 73.5q119 0 183.5 -70t64.5 -186q0 -108 -44 -203t-128 -154.5t-189 -59.5
q-90 0 -144.5 39t-54.5 100q0 40 24 69t70 29q38 0 60.5 -22t22.5 -54q0 -45 -36 -72q19 -17 54 -17q64 0 109.5 64.5t64.5 168.5z" />
    <glyph glyph-name="dollar.osf" horiz-adv-x="559" 
d="M337 655l82 -9l-20 -80q74 -13 120 -47t46 -85q0 -36 -21.5 -60.5t-61.5 -24.5q-34 0 -57.5 19.5t-23.5 49.5q0 38 29 61q-18 16 -48 24l-40 -163q93 -32 138 -68t45 -97q0 -86 -69.5 -138.5t-182.5 -52.5q-3 0 -9.5 0.5t-9.5 0.5l-22 -94l-82 9l22 93
q-78 14 -126.5 48.5t-48.5 86.5q0 36 22.5 60.5t62.5 24.5q34 0 57.5 -19.5t23.5 -49.5q0 -39 -30 -62q18 -16 56 -25l41 165q-85 29 -127 63t-42 91q0 85 73 140t183 57zM378 124q0 46 -75 74l-37 -150h1q111 0 111 76zM209 433q0 -26 14 -41.5t46 -27.5l36 145
q-48 -4 -72 -25t-24 -51z" />
    <glyph glyph-name="sterling.osf" horiz-adv-x="629" 
d="M475 239h-126q-10 -51 -48 -98q98 -27 139 -27q34 0 52.5 19t42.5 74l60 -14q-27 -110 -67.5 -159.5t-112.5 -49.5q-84 0 -180 74q-60 -74 -147 -74q-51 0 -80.5 24t-29.5 62q0 49 42 78t103 29q43 0 91 -12q3 21 3 33q0 22 -6 41h-157l20 81h103q-18 41 -18 70
q0 82 78.5 135t186.5 53q102 0 156.5 -37t54.5 -85q0 -39 -25 -64.5t-63 -25.5t-59.5 18t-21.5 47q0 26 17 44t39 24q-32 16 -86 16q-48 0 -73 -33.5t-25 -89.5q0 -16 9 -72h148zM99 43q49 0 87 53q-38 23 -75 23q-23 0 -39.5 -11.5t-16.5 -31.5q0 -33 44 -33z" />
    <glyph glyph-name="Euro.osf" horiz-adv-x="666" 
d="M428 297h-146q-5 -24 -7 -54h140l-20 -78h-114q23 -84 113 -84q95 0 165 126l73 -47q-92 -176 -272 -176q-97 0 -164 46t-85 133h-103l20 80h77q1 27 6 54h-70l20 80h75q40 90 121.5 145.5t190.5 55.5q101 0 158.5 -47.5t57.5 -111.5q0 -49 -27 -79t-68 -30q-37 0 -58 20
t-21 52q0 62 54 86q-20 29 -82 29q-108 0 -159 -122h145z" />
    <glyph glyph-name="yen.osf" horiz-adv-x="640" 
d="M107 355h90l-53 119h-82l22 89h323l-22 -87h-67l65 -166l144 166h-73l22 87h244l-22 -89h-67l-110 -119h87l-20 -78h-139l-46 -50h173l-20 -78h-174l-16 -64h83l-21 -85h-319l21 85h84l16 64h-175l20 78h174l2 6l-20 44h-144z" />
    <glyph glyph-name="hfjslug" horiz-adv-x="694" 
d="M644 -200h-208l-8 14h-163l-8 -14h-207v303q14 0 23 9.5t9 22.5t-9.5 22.5t-22.5 9.5v554h100l30 79h334l29 -79h101v-921zM400 563v-172h15v78h38v14h-38v66h43v14h-58zM184 563v-172h15v79h47v-79h15v172h-15v-79h-47v79h-15zM460 394q8 -4 21 -4q31 0 31 36v137h-16
v-137q0 -22 -16 -22q-10 0 -20 6v-16zM349 438l-16 31q23 21 23 42q0 12 -7 21.5t-20 9.5q-12 0 -20 -9.5t-8 -21.5q0 -13 14 -39q-23 -18 -23 -45q0 -17 9 -28t22 -11q17 0 27 24h1l12 -24l11 8l-16 30q10 23 13 39l-13 3q-2 -9 -9 -30zM523 323v-46h8v13l7 7l16 -20h9
l-19 26l18 20h-10l-21 -24v24h-8zM488 292l10 -15h9l-12 17q10 3 10 15q0 5 -4.5 9.5t-11.5 4.5h-21v-46h8v15h12zM426 276q11 0 17.5 7t6.5 17q0 9 -7 16.5t-17 7.5t-16.5 -7.5t-6.5 -16.5q0 -10 6.5 -17t16.5 -7zM370 301l-13 22h-9l18 -29v-17h8v17l18 29h-9zM193 323
v-46h33v7h-25v13h22v7h-22v12h25v7h-33zM132 323v-46h8v32l25 -32h7v46h-8v-32l-25 32h-7zM241 323l15 -47h8l10 34h1l11 -34h8l14 47h-8l-10 -35h-1l-10 35h-8l-11 -35h-1l-10 35h-8zM327 479q-12 22 -12 32q0 19 14 19q13 0 13 -19q0 -15 -15 -32zM342 423q-6 -21 -18 -21
q-17 0 -17 27q0 18 15 33zM488 299h-12v17h11q10 0 10 -8q0 -9 -9 -9zM426 283q-15 0 -15 17q0 6 4.5 11.5t10.5 5.5q7 0 11.5 -5.5t4.5 -11.5q0 -7 -4.5 -12t-11.5 -5z" />
    <glyph glyph-name="i.dot" horiz-adv-x="374" 
d="M359 642q0 -39 -29 -70.5t-77 -31.5q-37 0 -61 22.5t-24 60.5q0 39 29 70.5t77 31.5q37 0 61 -22.5t24 -60.5zM308 394q0 -46 -41.5 -155.5t-41.5 -128.5t16 -19q30 0 69 95l55 -20q-64 -177 -188 -177q-49 0 -80 28t-31 75q0 40 41.5 147t41.5 125t-14 18q-23 0 -65 -96
l-55 20q37 89 83.5 133.5t108.5 44.5q44 0 72.5 -25t28.5 -65z" />
    <glyph glyph-name="caron.alt" horiz-adv-x="238" 
d="M257 614l-61 -85h-60l29 163q10 54 29.5 78.5t55.5 24.5q27 0 47.5 -18.5t20.5 -46.5q0 -9 -2 -18t-4.5 -15.5t-10 -18.5t-11 -17.5t-15.5 -22t-18 -24.5z" />
    </font>
</defs>
</svg>
