<svg xmlns="http://www.w3.org/2000/svg" xmlns:xlink="http://www.w3.org/1999/xlink" width="800" height="460" viewBox="0 0 800 460">
  <defs>
    <style>
      .cls-1 {
        clip-path: url(#clip-Risk);
      }

      .cls-2 {
        fill: #24262d;
      }

      .cls-11,
      .cls-3,
      .cls-7 {
        opacity: 0.4;
      }

      .cls-3,
      .cls-5,
      .cls-6 {
        fill: url(#linear-gradient);
      }

      .cls-12,
      .cls-15,
      .cls-17,
      .cls-18,
      .cls-19,
      .cls-20,
      .cls-4,
      .cls-8 {
        fill: none;
      }

      .cls-4 {
        stroke: #36f097;
      }

      .cls-12,
      .cls-4,
      .cls-8 {
        stroke-width: 2px;
      }

      .cls-11,
      .cls-12,
      .cls-17,
      .cls-4,
      .cls-7,
      .cls-8 {
        fill-rule: evenodd;
      }

      .cls-13,
      .cls-5,
      .cls-9 {
        opacity: 0.2;
      }

      .cls-10,
      .cls-7,
      .cls-9 {
        fill: url(#linear-gradient-4);
      }

      .cls-8 {
        stroke: #1ed6ff;
      }

      .cls-11 {
        fill: url(#linear-gradient-7);
      }

      .cls-12 {
        stroke: #268aff;
      }

      .cls-13,
      .cls-14 {
        fill: #268aff;
      }

      .cls-15,
      .cls-20 {
        stroke: #969696;
      }

      .cls-15 {
        stroke-linecap: round;
      }

      .cls-16 {
        fill: rgba(255, 255, 255, 0.6);
        font-size: 12px;
        font-family: NotoSans, Noto Sans;
      }

      .cls-17,
      .cls-18 {
        stroke: rgba(255, 255, 255, 0.2);
      }

      .cls-17 {
        stroke-dasharray: 2;
      }

      .cls-18,
      .cls-19 {
        stroke-dasharray: 2 2;
      }

      .cls-19 {
        stroke: red;
      }

      .cls-20 {
        stroke-linecap: square;
      }

      .cls-21 {
        fill: #f94144;
      }

      .cls-22 {
        fill: #f9c74f;
      }

      .cls-23 {
        fill: #36f097;
      }

      .cls-24 {
        fill: #1ed6ff;
      }

      .cls-25 {
        fill: #e4e4e4;
      }
    </style>
    <linearGradient id="linear-gradient" x1="0.5" x2="0.5" y2="1" gradientUnits="objectBoundingBox">
      <stop offset="0" stop-color="#36f097" />
      <stop offset="1" stop-color="#36f097" stop-opacity="0.2" />
    </linearGradient>
    <linearGradient id="linear-gradient-4" x1="0.5" x2="0.5" y2="1" gradientUnits="objectBoundingBox">
      <stop offset="0" stop-color="#1ed6ff" />
      <stop offset="1" stop-color="#1ed6ff" stop-opacity="0.2" />
    </linearGradient>
    <linearGradient id="linear-gradient-7" x1="0.5" x2="0.5" y2="1" gradientUnits="objectBoundingBox">
      <stop offset="0" stop-color="#268aff" />
      <stop offset="1" stop-color="#268aff" stop-opacity="0.2" />
    </linearGradient>
    <clipPath id="clip-Risk">
      <rect width="800" height="460" />
    </clipPath>
  </defs>
  <g id="Risk" class="cls-1">
    <rect class="cls-25" width="800" height="460" />
    <g id="Risk-2" data-name="Risk">
      <rect id="Background" class="cls-2" width="800" height="460" />
      <g id="Chart" transform="translate(100 50)">
        <g id="a1">
          <path id="gradient" class="cls-3" d="M66.25,0,0,76V180H600V36L531.25,87,465,60l-66.25,84L332.5,126.5,266.25,52l-67.5,12L132.5,88Z" transform="translate(0 120)" />
          <path id="stroke" class="cls-4" d="M0,76,66.25,0,132.5,88l66.25-24,67.5-12,66.25,74.5L398.75,144,465,60l66.25,27L600,36" transform="translate(0 120)" />
          <g id="a1-dot" transform="translate(294 204)">
            <circle id="a1-dot-fade" class="cls-5" cx="6" cy="6" r="6" />
            <circle id="a1-dot-opaque" class="cls-6" cx="3" cy="3" r="3" transform="translate(3 3)" />
          </g>
        </g>
        <g id="a2">
          <path id="gradient-2" class="cls-7" d="M6,76,72.25,0,138.5,8l66.25,64,67.5-28L338.5,78.5,404.75,48,471,76l66.25-53L606,36V80l-68.75,51L471,104l-66.25,84L338.5,170.5,272.25,96l-67.5,12L138.5,132,72.25,44,6,120Z" transform="translate(-6 76)" />
          <path id="stroke-2" class="cls-8" d="M6,76,72.25,0,138.5,8l66.25,64,67.5-28L338.5,78.5,404.75,48,471,76l66.25-53L606,36" transform="translate(-6 76)" />
          <g id="a2-dot" transform="translate(-6 146)">
            <circle id="a2-dot-fade" class="cls-9" cx="6" cy="6" r="6" />
            <circle id="a2-dot-opaque" class="cls-10" cx="3" cy="3" r="3" transform="translate(3 3)" />
          </g>
        </g>
        <g id="a3">
          <path id="gradient-3" class="cls-11" d="M5.98,44,72.23,8l66.25-8,66.25,40,67.5,20,66.25-34.5L404.73,72l66.25-44,66.25,11,68.75-27V94L537.23,81l-66.25,53-66.25-28-62.99,29H335.6l-63.37-33-67.5,28L138.48,66,72.23,58,5.98,134Z" transform="translate(-5.98 18)" />
          <path id="stroke-3" class="cls-12" d="M5.98,44,72.23,8l66.25-8,66.25,40,67.5,20,66.25-34.5L404.73,72l66.25-44,66.25,11,68.75-27" transform="translate(-5.98 18)" />
          <g id="dot-3" transform="translate(-5.98 55.02)">
            <circle id="a3-dot-fade" class="cls-13" cx="6" cy="6" r="6" />
            <circle id="a3-dot-opaque" class="cls-14" cx="3" cy="3" r="3" transform="translate(3 3)" />
          </g>
        </g>
      </g>
      <g id="Y-Grid_Text" data-name="Y-Grid Text" transform="translate(56 41.56)">
        <g id="_-30" data-name="-30" transform="translate(4.85 300)">
          <path id="Brdr" class="cls-15" d="M4,0H0" transform="translate(35.15 8.44)" />
          <text id="label" class="cls-16">
            <tspan x="2.771" y="13">-30%</tspan>
          </text>
        </g>
        <g id="_-20" data-name="-20" transform="translate(4.85 250)">
          <path id="Brdr-2" data-name="Brdr" class="cls-15" d="M4,0H0" transform="translate(35.15 8.44)" />
          <text id="label-2" data-name="label" class="cls-16">
            <tspan x="2.771" y="13">-20%</tspan>
          </text>
        </g>
        <g id="_-10" data-name="-10" transform="translate(4.85 200)">
          <path id="Brdr-3" data-name="Brdr" class="cls-15" d="M4,0H0" transform="translate(35.15 8.44)" />
          <text id="label-3" data-name="label" class="cls-16">
            <tspan x="2.771" y="13">-10%</tspan>
          </text>
        </g>
        <g id="_0" data-name="0" transform="translate(4.85 150)">
          <path id="Brdr-4" data-name="Brdr" class="cls-15" d="M4,0H0" transform="translate(35.15 8.44)" />
          <text id="label-4" data-name="label" class="cls-16">
            <tspan x="13.459" y="13">0%</tspan>
          </text>
        </g>
        <g id="_10" data-name="10" transform="translate(4.85 100)">
          <path id="Brdr-5" data-name="Brdr" class="cls-15" d="M4,0H0" transform="translate(35.15 8.44)" />
          <text id="label-5" data-name="label" class="cls-16">
            <tspan x="6.85" y="13">10%</tspan>
          </text>
        </g>
        <g id="_20" data-name="20" transform="translate(4.85 50)">
          <path id="Brdr-6" data-name="Brdr" class="cls-15" d="M4,0H0" transform="translate(35.15 8.44)" />
          <text id="label-6" data-name="label" class="cls-16">
            <tspan x="6.85" y="13">20%</tspan>
          </text>
        </g>
        <g id="_30" data-name="30" transform="translate(4.85)">
          <path id="Brdr-7" data-name="Brdr" class="cls-15" d="M4,0H0" transform="translate(35.15 8.44)" />
          <text id="label-7" data-name="label" class="cls-16">
            <tspan x="6.85" y="13">30%</tspan>
          </text>
        </g>
      </g>
      <g id="Y-Grid_Lines" data-name="Y-Grid Lines" transform="translate(55 -198.44)">
        <path id="y-30" class="cls-17" d="M45,258.44H645" transform="translate(0 290)" />
        <path id="y-20" class="cls-17" d="M45,258.44H645" transform="translate(0 240)" />
        <path id="y-10" class="cls-17" d="M45,258.44H645" transform="translate(0 190)" />
        <path id="y-0" class="cls-17" d="M45,258.44H645" transform="translate(0 140)" />
        <path id="y_10" data-name="y+10" class="cls-17" d="M45,258.44H645" transform="translate(0 90)" />
        <path id="y_20" data-name="y+20" class="cls-17" d="M45,258.44H645" transform="translate(0 40)" />
        <path id="y_30" data-name="y+30" class="cls-17" d="M45,258.44H645" transform="translate(0 -10)" />
      </g>

      <g id="X-Grid_Text-2" data-name="X-Grid Text-2" transform="translate(83.15 344.06)">
        <g id="_9" data-name="9" transform="translate(591.85 15.94)">
          <text id="label-8" data-name="label" class="cls-16">
            <tspan x="14.811" y="13">Feb</tspan>
          </text>
        </g>
        <g id="_8" data-name="8" transform="translate(516.85 15.94)">
          <text id="label-9" data-name="label" class="cls-16">
            <tspan x="16.287" y="13">Jan</tspan>
          </text>
        </g>
        <g id="_7" data-name="7" transform="translate(441.85 15.94)">
          <text id="label-10" data-name="label" class="cls-16">
            <tspan x="14.356" y="13">Dec</tspan>
          </text>
        </g>
        <g id="_6" data-name="6" transform="translate(366.85 15.94)">
          <text id="label-11" data-name="label" class="cls-16">
            <tspan x="13.823" y="13">Nov</tspan>
          </text>
        </g>
        <g id="_5" data-name="5" transform="translate(291.85 15.94)">
          <text id="label-12" data-name="label" class="cls-16">
            <tspan x="15.271" y="13">Oct</tspan>
          </text>
        </g>
        <g id="_4" data-name="4" transform="translate(216.85 15.94)">
          <text id="label-13" data-name="label" class="cls-16">
            <tspan x="14.632" y="13">Sep</tspan>
          </text>
        </g>
        <g id="_3" data-name="3" transform="translate(141.85 15.94)">
          <text id="label-14" data-name="label" class="cls-16">
            <tspan x="13.765" y="13">Aug</tspan>
          </text>
        </g>
        <g id="_2" data-name="2" transform="translate(66.85 15.94)">
          <text id="label-15" data-name="label" class="cls-16">
            <tspan x="15.048" y="13">July</tspan>
          </text>
        </g>
        <g id="_1" data-name="1" transform="translate(-8.15 15.94)">
          <text id="label-16" data-name="label" class="cls-16">
            <tspan x="12.561" y="13">June</tspan>
          </text>
        </g>
      </g>
      <g id="X-Grid_Lines" data-name="X-Grid Lines" transform="translate(55.5 -0.5)">
        <g id="X-Line_9" data-name="X-Line 9" transform="translate(644.5 50.5)">
          <line id="stub" class="cls-15" y2="8" transform="translate(0 300)" />
          <line id="Line_1" data-name="Line 1" class="cls-18" y2="300" />
        </g>
        <g id="X-Line_8" data-name="X-Line 8" transform="translate(569.5 50.5)">
          <line id="stub-2" data-name="stub" class="cls-15" y2="8" transform="translate(0 300)" />
          <line id="Line_1-2" data-name="Line 1" class="cls-18" y2="300" />
        </g>
        <g id="X-Line_7" data-name="X-Line 7" transform="translate(494.5 50.5)">
          <line id="stub-3" data-name="stub" class="cls-15" y2="8" transform="translate(0 300)" />
          <line id="Line_1-3" data-name="Line 1" class="cls-18" y2="300" />
        </g>
        <g id="X-Line_6" data-name="X-Line 6" transform="translate(419.5 50.5)">
          <line id="stub-4" data-name="stub" class="cls-15" y2="8" transform="translate(0 300)" />
          <line id="Line_1-4" data-name="Line 1" class="cls-18" y2="300" />
        </g>
        <g id="X-Line_5" data-name="X-Line 5" transform="translate(344.5 50.5)">
          <line id="stub-5" data-name="stub" class="cls-15" y2="8" transform="translate(0 300)" />
          <line id="Line_1-5" data-name="Line 1" class="cls-18" y2="300" />
        </g>
        <g id="X-Line_4" data-name="X-Line 4" transform="translate(269.5 50.5)">
          <line id="stub-6" data-name="stub" class="cls-15" y2="8" transform="translate(0 300)" />
          <line id="Line_1-6" data-name="Line 1" class="cls-18" y2="300" />
        </g>
        <g id="X-Line_3" data-name="X-Line 3" transform="translate(194.5 50.5)">
          <line id="stub-7" data-name="stub" class="cls-15" y2="8" transform="translate(0 300)" />
          <line id="Line_1-7" data-name="Line 1" class="cls-18" y2="300" />
        </g>
        <g id="X-Line_2" data-name="X-Line 2" transform="translate(119.5 50.5)">
          <line id="stub-8" data-name="stub" class="cls-15" y2="8" transform="translate(0 300)" />
          <line id="Line_1-8" data-name="Line 1" class="cls-18" y2="300" />
        </g>
        <g id="X-Line_1" data-name="X-Line 1" transform="translate(44.5 50.5)">
          <line id="stub-9" data-name="stub" class="cls-15" y2="8" transform="translate(0 300)" />
          <line id="Line_1-9" data-name="Line 1" class="cls-18" y2="300" />
        </g>
      </g>
      <g id="Event" transform="translate(-0.5)">
        <line id="Event-2" data-name="Event" class="cls-19" y2="350" transform="translate(400.5)" />
      </g>
      <g id="Border" transform="translate(99 50)">
        <line id="brdr-btm" class="cls-20" x2="600" transform="translate(1 300)" />
        <line id="brdr-left" class="cls-20" y1="300" transform="translate(1)" />
        <line id="brdr-right" class="cls-20" y1="300" transform="translate(601)" />
      </g>
      <g id="Legend" transform="translate(100 403)">
        <g id="label-17" data-name="label" transform="translate(389)">
          <text id="Current" class="cls-16" transform="translate(16 13)">
            <tspan x="0" y="0">Strategy 5</tspan>
          </text>
          <rect id="swatch" class="cls-21" width="10" height="10" rx="2" transform="translate(0 4)" />
        </g>
        <g id="label-18" data-name="label" transform="translate(301)">
          <text id="Current-2" data-name="Current" class="cls-16" transform="translate(16 13)">
            <tspan x="0" y="0">Strategy 4</tspan>
          </text>
          <rect id="swatch-2" data-name="swatch" class="cls-22" width="10" height="10" rx="2" transform="translate(0 4)" />
        </g>
        <g id="label-19" data-name="label" transform="translate(213)">
          <text id="Current-3" data-name="Current" class="cls-16" transform="translate(16 13)">
            <tspan x="0" y="0">Strategy 3</tspan>
          </text>
          <rect id="swatch-3" data-name="swatch" class="cls-23" width="10" height="10" rx="2" transform="translate(0 4)" />
        </g>
        <g id="label-20" data-name="label" transform="translate(125)">
          <text id="Current-4" data-name="Current" class="cls-16" transform="translate(16 13)">
            <tspan x="0" y="0">Strategy 2</tspan>
          </text>
          <rect id="swatch-4" data-name="swatch" class="cls-24" width="10" height="10" rx="2" transform="translate(0 4)" />
        </g>
        <g id="label-21" data-name="label">
          <text id="Current-5" data-name="Current" class="cls-16" transform="translate(16 13)">
            <tspan x="0" y="0">Current Strategy</tspan>
          </text>
          <rect id="swatch-5" data-name="swatch" class="cls-14" width="10" height="10" rx="2" transform="translate(0 4)" />
        </g>
      </g>
    </g>
  </g>
</svg>