<svg width="100%" height="100%" viewBox="0 0 32 32" fill="none" xmlns="http://www.w3.org/2000/svg">
<path fill-rule="evenodd" clip-rule="evenodd" d="M12.1459 4.84132C11.4444 4.16178 10.3071 4.16178 9.60568 4.84132C8.90423 5.52085 8.90423 6.6226 9.60568 7.30213L18.5841 15.9999L9.60568 24.6978C8.90423 25.3773 8.90423 26.479 9.60568 27.1586C10.3071 27.8381 11.4444 27.8381 12.1459 27.1586L22.3886 17.2359C22.3905 17.2341 22.3925 17.2322 22.3944 17.2304C22.6574 16.9755 22.8218 16.6613 22.8876 16.3323C22.9441 16.0495 22.9278 15.7557 22.8385 15.4792C22.7547 15.2196 22.6067 14.9752 22.3944 14.7695C22.3925 14.7677 22.3905 14.7658 22.3886 14.764L12.1459 4.84132Z" fill="white" fill-opacity="0.5"/>
</svg>
