<svg width="100%" height="100%" viewBox="0 0 31 31" fill="none" xmlns="http://www.w3.org/2000/svg">
<rect x="9.67676" y="14.4182" width="12.9789" height="1.5" rx="0.75" fill="white"/>
<path fill-rule="evenodd" clip-rule="evenodd" d="M17.4283 8.63007C17.1354 8.33718 16.6606 8.33718 16.3677 8.63007C16.0748 8.92296 16.0748 9.39784 16.3677 9.69073L21.8451 15.1681L16.3654 20.6478C16.0725 20.9407 16.0725 21.4155 16.3654 21.7084C16.6583 22.0013 17.1332 22.0013 17.4261 21.7084L23.4268 15.7077C23.43 15.7047 23.4331 15.7016 23.4361 15.6985C23.582 15.5526 23.6553 15.3616 23.6558 15.1704C23.6564 14.9777 23.5832 14.7848 23.4361 14.6377C23.4331 14.6346 23.4299 14.6316 23.4268 14.6285L17.4283 8.63007Z" fill="white"/>
</svg>
