<?xml version="1.0" standalone="no"?>
<!DOCTYPE svg PUBLIC "-//W3C//DTD SVG 1.1//EN" "http://www.w3.org/Graphics/SVG/1.1/DTD/svg11.dtd" >
<svg xmlns="http://www.w3.org/2000/svg" xmlns:xlink="http://www.w3.org/1999/xlink" version="1.1">
<metadata>
Created by FontForge 20200427 at Thu Dec  4 01:31:25 2008
 By www
Copyright (C) 2004, 2009 Hoefler &#38; Frere-Jones. http://www.typography.com
</metadata>
<defs>
<font id="Sentinel-Bold" horiz-adv-x="563" >
  <font-face 
    font-family="Sentinel Bold"
    font-weight="400"
    font-stretch="normal"
    units-per-em="1000"
    panose-1="0 0 0 0 0 0 0 0 0 0"
    ascent="800"
    descent="-200"
    x-height="468"
    cap-height="658"
    bbox="-68 -365 1237 1122"
    underline-thickness="50"
    underline-position="-100"
    unicode-range="U+0020-FB04"
  />
<missing-glyph horiz-adv-x="500" 
d="M0 -200v1000h500v-1000h-500zM71 750l179 -390l179 390h-358zM50 -76l172 376l-172 376v-752zM450 676l-172 -376l172 -376v752zM250 240l-179 -390h358z" />
    <glyph glyph-name="f_f" unicode="ff" horiz-adv-x="684" 
d="M336 694q102 0 141 -44q61 47 147 47q73 0 109.5 -26.5t36.5 -70.5q0 -31 -20.5 -52.5t-52.5 -21.5q-34 0 -53.5 18t-19.5 51q0 26 14 40q-12 6 -25 6q-71 0 -71 -121v-57h141v-78h-134v-302h99v-83h-299v83h54v302h-156v-302h54v-83h-268v83h67v302h-85v78h85v7
q0 110 68 167t168 57zM403 463v20q0 26 2 39q-55 8 -55 66q0 26 14 42q-12 7 -34 7q-42 0 -66 -29.5t-24 -106.5v-38h163z" />
    <glyph glyph-name="fi" unicode="fi" horiz-adv-x="645" 
d="M407 385h-160v-302h55v-83h-270v83h68v302h-85v78h85v7q0 112 70 169.5t176 57.5q88 0 135.5 -29.5t47.5 -73.5q0 -32 -23 -53t-60 -21q-40 0 -62 18t-22 50q0 26 14 42q-16 10 -40 10q-49 0 -72.5 -32t-23.5 -101v-44h313v-380h76v-83h-278v83h56v302z" />
    <glyph glyph-name="fl" unicode="fl" horiz-adv-x="660" 
d="M32 0v83h68v302h-85v78h85v10q0 109 67.5 166.5t167.5 57.5q62 0 101 -17l127 15v-612h76v-83h-283v83h61v302h-170v-302h60v-83h-275zM240 502v-39h177v63q-70 2 -70 68q0 26 13 41q-14 6 -32 6q-42 0 -65 -30t-23 -109z" />
    <glyph glyph-name="f_f_i" unicode="ffi" horiz-adv-x="947" 
d="M542 507v-44h314v-380h76v-83h-278v83h55v302h-160v-302h56v-83h-256v83h54v302h-156v-302h54v-83h-268v83h67v302h-85v78h85v6q0 110 68 167.5t168 57.5q108 0 144 -49q67 52 169 52q88 0 135.5 -29.5t47.5 -73.5q0 -32 -23 -53t-61 -21q-40 0 -62 18t-22 50q0 26 14 42
q-16 10 -40 10q-96 0 -96 -133zM403 470q0 31 4 52q-57 8 -57 66q0 26 14 42q-12 7 -34 7q-42 0 -66 -29.5t-24 -106.5v-38h163v7z" />
    <glyph glyph-name="f_f_l" unicode="ffl" horiz-adv-x="962" 
d="M659 0v83h60v302h-170v-302h61v-83h-261v83h54v302h-156v-302h54v-83h-268v83h67v302h-85v78h85v6q0 110 68 167.5t168 57.5q106 0 143 -47q62 50 158 50q62 0 101 -17l128 15v-612h76v-83h-283zM542 502v-39h177v63q-32 1 -50.5 18.5t-18.5 49.5q0 26 12 41q-14 6 -32 6
q-42 0 -65 -30t-23 -109zM403 463v10q0 28 4 49q-57 8 -57 66q0 26 14 42q-12 7 -34 7q-42 0 -66 -29.5t-24 -106.5v-38h163z" />
    <glyph glyph-name="f_b" unicode="fb" horiz-adv-x="914" 
d="M32 0v83h68v302h-85v78h85v10q0 109 67.5 166.5t167.5 57.5q61 0 99 -16l118 14v-320q49 104 149 104q70 0 120 -48q63 -63 63 -196q0 -128 -67 -195q-48 -50 -124 -50q-112 0 -165 98l-45 -95h-77v392h-159v-302h60v-83h-275zM644 71q83 0 83 162q0 153 -84 153
q-47 0 -73.5 -45t-26.5 -115t27 -112.5t74 -42.5zM240 502v-39h166v63q-59 8 -59 68q0 26 13 41q-14 6 -32 6q-42 0 -65 -30t-23 -109z" />
    <glyph glyph-name="f_h" unicode="fh" horiz-adv-x="950" 
d="M356 0v83h61v302h-170v-302h60v-83h-275v83h68v302h-85v78h85v10q0 109 67.5 166.5t167.5 57.5q62 0 101 -17l127 15v-332q58 115 161 115q73 0 108 -44t35 -121v-230h68v-83h-268v83h54v210q0 49 -22 71q-18 16 -46 16q-36 0 -63 -32.5t-27 -81.5v-183h53v-83h-260z
M240 502v-39h177v63q-70 2 -70 68q0 26 13 41q-14 6 -32 6q-42 0 -65 -30t-23 -109z" />
    <glyph glyph-name="f_j" unicode="fj" horiz-adv-x="630" 
d="M553 463v-426q0 -103 -50 -157t-143 -54q-66 0 -103.5 23.5t-37.5 62.5q0 29 19.5 49.5t52.5 20.5q35 0 55 -20t20 -47q0 -19 -6 -31q8 -2 15 -2q32 2 32 56v447h-160v-302h55v-83h-270v83h68v302h-85v78h85v7q0 112 70 169.5t176 57.5q88 0 135.5 -29.5t47.5 -73.5
q0 -32 -23 -53t-60 -21q-40 0 -62 18t-22 50q0 26 14 42q-16 10 -40 10q-49 0 -72.5 -32t-23.5 -101v-44h313z" />
    <glyph glyph-name="f_k" unicode="fk" horiz-adv-x="922" 
d="M32 0v83h68v302h-85v78h85v10q0 109 67.5 166.5t167.5 57.5q62 0 101 -17l127 15v-454l157 145h-73v82h244v-83h-70l-105 -94l154 -208h51v-83h-258v82h53l-93 131l-60 -54v-77h50v-82h-257v83h61v302h-170v-302h60v-83h-275zM240 502v-39h177v63q-70 2 -70 68
q0 26 13 41q-14 6 -32 6q-42 0 -65 -30t-23 -109z" />
    <glyph glyph-name="f_f_b" unicode="ffb" horiz-adv-x="1216" 
d="M855 695v-320q47 104 148 104q72 0 120 -48q63 -63 63 -196q0 -130 -67 -195q-48 -50 -124 -50q-112 0 -165 98l-45 -95h-77v392h-159v-302h61v-83h-261v83h54v302h-156v-302h54v-83h-268v83h67v302h-85v78h85v6q0 110 68 167.5t168 57.5q106 0 143 -47q62 50 158 50
q61 0 99 -16zM946 71q83 0 83 162q0 153 -84 153q-46 0 -72.5 -45t-26.5 -115t26.5 -112.5t73.5 -42.5zM542 502v-39h166v63q-58 8 -58 68q0 26 12 41q-14 6 -32 6q-42 0 -65 -30t-23 -109zM403 463v10q0 28 4 49q-57 8 -57 66q0 26 14 42q-12 7 -34 7q-42 0 -66 -29.5
t-24 -106.5v-38h163z" />
    <glyph glyph-name="f_f_h" unicode="ffh" horiz-adv-x="1252" 
d="M659 0v83h60v302h-170v-302h61v-83h-261v83h54v302h-156v-302h54v-83h-268v83h67v302h-85v78h85v6q0 110 68 167.5t168 57.5q106 0 143 -47q62 50 158 50q62 0 101 -17l128 15v-332q58 115 161 115q73 0 108 -44t35 -121v-230h67v-83h-268v83h54v210q0 50 -21 71
q-18 16 -47 16q-36 0 -62.5 -32.5t-26.5 -81.5v-183h52v-83h-259zM542 502v-39h177v63q-32 1 -50.5 18.5t-18.5 49.5q0 26 12 41q-14 6 -32 6q-42 0 -65 -30t-23 -109zM403 473q0 28 4 49q-57 8 -57 66q0 26 14 42q-12 7 -34 7q-42 0 -66 -29.5t-24 -106.5v-38h163v10z" />
    <glyph glyph-name="f_f_j" unicode="ffj" horiz-adv-x="932" 
d="M856 463v-426q0 -103 -50.5 -157t-143.5 -54q-66 0 -103.5 23.5t-37.5 62.5q0 29 19.5 49.5t52.5 20.5q36 0 56 -20t20 -47q0 -17 -7 -31q8 -2 16 -2q31 2 31 56v447h-160v-302h56v-83h-256v83h54v302h-156v-302h54v-83h-268v83h67v302h-85v78h85v6q0 110 68 167.5
t168 57.5q108 0 144 -49q67 52 169 52q88 0 135.5 -29.5t47.5 -73.5q0 -32 -23 -53t-61 -21q-40 0 -62 18t-22 50q0 26 14 42q-16 10 -40 10q-96 0 -96 -133v-44h314zM403 470q0 31 4 52q-57 8 -57 66q0 26 14 42q-12 7 -34 7q-42 0 -66 -29.5t-24 -106.5v-38h163v7z" />
    <glyph glyph-name="f_f_k" unicode="ffk" horiz-adv-x="1224" 
d="M866 695v-454l157 145h-74v82h244v-83h-70l-104 -94l154 -208h50v-83h-258v82h53l-92 131l-60 -54v-77h50v-82h-257v83h60v302h-170v-302h61v-83h-261v83h54v302h-156v-302h54v-83h-268v83h67v302h-85v78h85v6q0 110 68 167.5t168 57.5q106 0 143 -47q62 50 158 50
q62 0 101 -17zM542 502v-39h177v63q-32 1 -50.5 18.5t-18.5 49.5q0 26 12 41q-14 6 -32 6q-42 0 -65 -30t-23 -109zM403 473q0 28 4 49q-57 8 -57 66q0 26 14 42q-12 7 -34 7q-42 0 -66 -29.5t-24 -106.5v-38h163v10z" />
    <glyph glyph-name=".notdef" horiz-adv-x="500" 
d="M0 -200v1000h500v-1000h-500zM71 750l179 -390l179 390h-358zM50 -76l172 376l-172 376v-752zM450 676l-172 -376l172 -376v752zM250 240l-179 -390h358z" />
    <glyph glyph-name=".null" horiz-adv-x="0" 
 />
    <glyph glyph-name="nonmarkingreturn" horiz-adv-x="333" 
 />
    <glyph glyph-name="space" unicode=" " horiz-adv-x="175" 
 />
    <glyph glyph-name="exclam" unicode="!" horiz-adv-x="301" 
d="M150 684q43 0 66 -24t23 -66q0 -37 -17 -139q-24 -140 -38 -247h-67q-14 107 -38 247q-18 98 -18 139q0 42 23.5 66t65.5 24zM150 -17q-37 0 -63 25t-26 61t26 61.5t64 25.5q37 0 63 -25t26 -61t-26 -61.5t-64 -25.5z" />
    <glyph glyph-name="quotedbl" unicode="&#x22;" horiz-adv-x="437" 
d="M290 387l-50 22l20 110q13 74 26 106q17 44 59 44q29 0 50 -17.5t21 -46.5q0 -17 -6 -34q-19 -41 -55 -93zM101 387l-50 22l13 106q10 75 23 108q18 46 61 46q29 0 50 -17.5t21 -46.5q0 -19 -5 -31q-17 -43 -52 -95z" />
    <glyph glyph-name="numbersign" unicode="#" horiz-adv-x="677" 
d="M192 404h-129v78h144l34 181h89l-34 -181h145l33 181h90l-34 -181h118v-78h-132l-34 -178h130v-78h-144l-35 -188h-89l35 188h-145l-35 -188h-89l35 188h-118v78h132zM428 405h-147l-35 -180h148z" />
    <glyph glyph-name="dollar" unicode="$" horiz-adv-x="560" 
d="M325 -83h-76v83q-110 6 -167.5 45.5t-57.5 93.5q0 33 22 55.5t55 22.5q31 0 52 -20.5t21 -50.5q0 -35 -26 -56q36 -22 101 -29v200q-107 29 -157 65t-50 112q0 79 56 132t151 64v76h76v-74q104 -6 153.5 -46t49.5 -86q0 -35 -19.5 -56.5t-51.5 -21.5q-35 0 -55.5 19
t-20.5 50q0 34 25 55q-23 18 -82 26v-191q107 -28 156.5 -67t49.5 -117q0 -79 -53 -134t-152 -65v-85zM408 152q0 31 -21.5 51.5t-64.5 36.5v-178q86 13 86 90zM167 490q0 -34 19 -53t65 -33v171q-84 -14 -84 -85z" />
    <glyph glyph-name="percent" unicode="%" horiz-adv-x="796" 
d="M158 264q-62 0 -101 38.5t-39 101.5q0 87 62 158t142 71q67 0 102 -40q36 -16 92 -16q94 0 167 72h78l-441 -675h-97l390 574l-3 3q-51 -42 -119 -42q-26 0 -38 2v-6q0 -87 -57 -164t-138 -77zM579 -14q-62 0 -101 38t-39 102q0 87 62 158t142 71q60 0 95.5 -34t35.5 -94
q0 -55 -24.5 -110t-70.5 -93t-100 -38zM597 44q45 0 79.5 62.5t34.5 124.5q0 61 -48 61q-43 0 -78.5 -63t-35.5 -122q0 -63 48 -63zM177 322q44 0 78.5 63t34.5 124q0 11 -1 16q-33 14 -63 42q-39 -11 -68.5 -70t-29.5 -112q0 -31 13.5 -47t35.5 -16z" />
    <glyph glyph-name="ampersand" unicode="&#x26;" horiz-adv-x="748" 
d="M499 388h225v-84h-71q-47 -87 -116 -161q25 -35 40.5 -46.5t33.5 -11.5q19 0 31 14t22 49l56 -17q-34 -147 -149 -147q-48 0 -79.5 17.5t-64.5 61.5q-81 -79 -187 -79q-97 0 -153 49t-56 125q0 120 154 179q-37 37 -53 68t-16 70q0 67 55.5 114.5t142.5 47.5
q81 0 126.5 -41t45.5 -96q0 -53 -32.5 -84.5t-96.5 -59.5q79 -76 137 -159q42 48 73 108h-68v83zM288 76q51 0 99 36q-69 97 -160 186q-51 -40 -51 -111q0 -51 30 -81t82 -30zM246 509q0 -27 16 -52t54 -63q58 42 58 103q0 33 -16.5 54t-49.5 21q-27 0 -44.5 -17.5
t-17.5 -45.5z" />
    <glyph glyph-name="quotesingle" unicode="'" horiz-adv-x="242" 
d="M99 387l-51 23l16 107q15 89 23 108q20 44 61 44q29 0 51.5 -18.5t22.5 -46.5q0 -16 -6 -31q-13 -31 -55 -94z" />
    <glyph glyph-name="parenleft" unicode="(" horiz-adv-x="389" 
d="M366 -160q-137 53 -221.5 169.5t-84.5 269.5q0 155 84.5 274t221.5 171l34 -58q-193 -133 -193 -381q0 -254 193 -387z" />
    <glyph glyph-name="parenright" unicode=")" horiz-adv-x="389" 
d="M23 724q137 -53 221.5 -169.5t84.5 -269.5q0 -155 -84.5 -274t-221.5 -171l-34 58q193 133 193 381q0 254 -193 387z" />
    <glyph glyph-name="asterisk" unicode="*" horiz-adv-x="430" 
d="M211 352q-10 28 1 120l-13 5q-45 -81 -70 -100q-42 -30 -73 11q-14 20 -10.5 39.5t23.5 33.5q28 20 115 36v14q-84 15 -115 37q-43 30 -13 72q31 41 73 11q26 -18 70 -100l13 5q-11 93 -1 122q16 49 65 33t33 -66q-11 -33 -73 -97l8 -11q82 39 116 39q25 0 38.5 -13.5
t13.5 -37.5q0 -52 -52 -52q-33 0 -115 39l-8 -11q61 -65 72 -97q16 -50 -33 -66t-65 34z" />
    <glyph glyph-name="plus" unicode="+" horiz-adv-x="525" 
d="M218 69v175h-172v81h172v173h89v-173h172v-81h-172v-175h-89z" />
    <glyph glyph-name="comma" unicode="," horiz-adv-x="256" 
d="M35 -166l-22 48q121 50 136 129l-8 4q-13 -18 -39 -18q-28 0 -45.5 20t-17.5 52q0 38 24 64.5t61 26.5q45 0 72.5 -31t27.5 -85q0 -73 -48 -127t-141 -83z" />
    <glyph glyph-name="hyphen" unicode="-" horiz-adv-x="356" 
d="M48 203v100h260v-100h-260z" />
    <glyph glyph-name="period" unicode="." horiz-adv-x="256" 
d="M128 -17q-37 0 -63 25.5t-26 62.5q0 38 26 63.5t64 25.5q37 0 63 -25.5t26 -62.5t-26 -63t-64 -26z" />
    <glyph glyph-name="slash" unicode="/" horiz-adv-x="427" 
d="M-61 -203l389 914h98l-389 -914h-98z" />
    <glyph glyph-name="zero" unicode="0" horiz-adv-x="609" 
d="M304 -16q-121 0 -194 89t-73 241q0 153 74.5 244.5t193.5 91.5q121 0 193.5 -89t72.5 -241q0 -154 -74 -245t-193 -91zM307 60q50 0 74 60t24 197q0 136 -26 196.5t-77 60.5t-74.5 -59.5t-23.5 -197.5q0 -136 26 -196.5t77 -60.5z" />
    <glyph glyph-name="one" unicode="1" horiz-adv-x="489" 
d="M48 0v83h135v406q-22 -8 -60 -8q-44 0 -80 12v70q67 -3 121 18t79 61h95v-559h132v-83h-422z" />
    <glyph glyph-name="two" unicode="2" horiz-adv-x="577" 
d="M35 84q0 34 14.5 64.5t43 57t52 44t61.5 41.5q83 52 115 87.5t32 94.5q0 50 -26 78t-72 28q-70 0 -98 -49q55 -19 55 -74q0 -33 -22 -55.5t-60 -22.5t-62.5 27t-24.5 68q0 71 67.5 124t172.5 53q114 0 178.5 -52.5t64.5 -133.5q0 -42 -16 -74t-49 -56.5t-63 -39.5
t-79 -35q-66 -27 -93.5 -40t-58.5 -37.5t-43 -54.5l4 -4q51 38 117 38q39 0 93 -18.5t75 -18.5q28 0 42 19.5t26 72.5l59 -5q-7 -122 -42 -174.5t-98 -52.5q-38 0 -71.5 16.5t-53.5 36.5t-44 36.5t-46 16.5q-10 0 -18 -2q16 -14 16 -41t-18 -45.5t-48 -18.5
q-37 0 -59.5 27.5t-22.5 73.5z" />
    <glyph glyph-name="three" unicode="3" horiz-adv-x="557" 
d="M266 -16q-111 0 -177.5 42.5t-66.5 106.5q0 40 24 63.5t63 23.5q38 0 59 -20.5t21 -51.5q0 -44 -43 -66q22 -24 101 -24q51 0 80.5 27.5t29.5 80.5q0 61 -34 88t-121 27h-29v80h27q81 0 113.5 28t32.5 89q0 98 -104 98q-54 0 -85 -22q20 -8 32.5 -26t12.5 -40
q0 -31 -20.5 -52t-58.5 -21q-39 0 -62.5 23t-23.5 62q0 63 66 106.5t171 43.5q114 0 178 -47t64 -116q0 -130 -190 -157v-5q201 -21 201 -154q0 -81 -71 -134t-190 -53z" />
    <glyph glyph-name="four" unicode="4" horiz-adv-x="598" 
d="M320 266v262h-5l-200 -262h205zM464 85h93v-85h-340v85h103v95h-302v86l297 379h149v-379h121v-86h-121v-95z" />
    <glyph glyph-name="five" unicode="5" horiz-adv-x="558" 
d="M162 509l-12 -160q62 50 153 50q113 0 168 -55t55 -139q0 -92 -66.5 -156.5t-189.5 -64.5q-103 0 -167.5 39t-64.5 103q0 39 23.5 65t63.5 26q36 0 56 -20.5t20 -49.5q0 -46 -38 -69q30 -24 80 -24q55 0 84.5 35t29.5 99q0 128 -112 128q-58 0 -111 -43l-64 19l23 332
l24 22q92 -34 208 -34q90 0 164 38l26 -49q-65 -120 -202 -120q-76 0 -151 28z" />
    <glyph glyph-name="six" unicode="6" horiz-adv-x="587" 
d="M205 325q49 72 149 72q88 0 142.5 -52.5t54.5 -141.5q0 -91 -64.5 -155t-178.5 -64q-125 0 -195.5 88t-70.5 222q0 163 82.5 259.5t224.5 96.5q88 0 137.5 -37.5t49.5 -92.5q0 -38 -23 -62.5t-61 -24.5t-58.5 21t-20.5 52q0 41 30 61q-19 15 -55 15q-73 0 -108.5 -60.5
t-34.5 -196.5zM209 196q0 -69 28.5 -105.5t71.5 -36.5q83 0 83 131q0 140 -90 140q-43 0 -68 -33.5t-25 -95.5z" />
    <glyph glyph-name="seven" unicode="7" horiz-adv-x="552" 
d="M323 76q-12 -92 -85 -92q-41 0 -64.5 22.5t-23.5 58.5q0 70 53 151t186 222q1 1 13 14t24 25.5t16 15.5l-6 6q-50 -35 -105 -35q-33 0 -80 18.5t-65 18.5q-27 0 -42 -24t-26 -90h-82v254h88l9 -83h7q27 89 93 89q27 0 52 -16t40.5 -34.5t35.5 -34.5t39 -16q9 0 15 2
q-12 14 -12 36q0 30 19 48t52 18q32 0 52 -20.5t20 -50.5q0 -20 -9.5 -40.5t-20 -34t-30.5 -35.5q-60 -68 -101 -156.5t-62 -236.5z" />
    <glyph glyph-name="eight" unicode="8" horiz-adv-x="575" 
d="M54 452q0 83 67 140.5t173 57.5q107 0 166.5 -45.5t59.5 -109.5q0 -48 -32.5 -83.5t-90.5 -52.5q142 -53 142 -167q0 -90 -70.5 -149t-183.5 -59q-114 0 -178.5 48.5t-64.5 117.5q0 49 34 85.5t96 55.5q-118 48 -118 161zM404 141q0 47 -45 74t-141 52q-55 -39 -55 -106
q0 -48 33.5 -78t95.5 -30q51 0 81.5 25t30.5 63zM190 500q0 -46 38 -71.5t123 -48.5q51 40 51 104q0 40 -30.5 68.5t-83.5 28.5q-45 0 -71.5 -23t-26.5 -58z" />
    <glyph glyph-name="nine" unicode="9" horiz-adv-x="587" 
d="M382 301q-23 -33 -62.5 -52.5t-86.5 -19.5q-89 0 -143.5 53.5t-54.5 144.5q0 94 64.5 158.5t179.5 64.5q125 0 195.5 -88t70.5 -222q0 -164 -82 -260t-224 -96q-93 0 -144.5 37.5t-51.5 94.5q0 39 23 63t60 24q38 0 59 -20.5t21 -51.5q0 -40 -30 -61q28 -18 64 -18
q72 0 107.5 58.5t34.5 190.5zM378 435q0 72 -28 108.5t-72 36.5q-83 0 -83 -136q0 -143 90 -143q43 0 68 34.5t25 99.5z" />
    <glyph glyph-name="colon" unicode=":" horiz-adv-x="270" 
d="M135 269q-37 0 -63 25.5t-26 62.5q0 38 26 63.5t64 25.5q37 0 63 -25.5t26 -62.5t-26 -63t-64 -26zM135 -17q-37 0 -63 25.5t-26 62.5q0 38 26 63.5t64 25.5q37 0 63 -25.5t26 -62.5t-26 -63t-64 -26z" />
    <glyph glyph-name="semicolon" unicode=";" horiz-adv-x="270" 
d="M136 269q-37 0 -63 25.5t-26 62.5q0 38 26 63.5t64 25.5q37 0 63 -25.5t26 -62.5t-26 -63t-64 -26zM41 -166l-23 48q121 50 136 129l-7 4q-15 -18 -40 -18q-27 0 -45 20t-18 52q0 38 24.5 64.5t61.5 26.5q45 0 72 -31t27 -85q0 -73 -48 -127t-140 -83z" />
    <glyph glyph-name="less" unicode="&#x3c;" horiz-adv-x="524" 
d="M451 60l-377 180v89l377 180v-95l-291 -130l291 -130v-94z" />
    <glyph glyph-name="equal" unicode="=" horiz-adv-x="525" 
d="M54 340v87h417v-87h-417zM54 142v87h417v-87h-417z" />
    <glyph glyph-name="greater" unicode="&#x3e;" horiz-adv-x="524" 
d="M73 509l377 -180v-89l-377 -180v95l291 130l-291 130v94z" />
    <glyph glyph-name="question" unicode="?" horiz-adv-x="494" 
d="M183 219q1 87 57 165q4 6 15 21t15.5 21t12 19t10.5 22t5.5 22t2.5 27q0 46 -23 71t-68 25q-64 0 -84 -38q25 -8 40.5 -28t15.5 -46q0 -33 -21.5 -55.5t-58.5 -22.5q-38 0 -62.5 25.5t-24.5 66.5q0 70 61.5 120t162.5 50q106 0 167.5 -51.5t61.5 -126.5q0 -54 -25.5 -89
t-76.5 -71q-43 -29 -68 -57t-38 -70h-77zM223 -17q-38 0 -63.5 25t-25.5 61t25.5 61.5t64.5 25.5q37 0 63 -25t26 -61t-26 -61.5t-64 -25.5z" />
    <glyph glyph-name="at" unicode="@" horiz-adv-x="900" 
d="M465 -152q-187 0 -304.5 106t-117.5 289q0 193 129 319.5t317 126.5q163 0 269.5 -95t106.5 -253q0 -132 -67.5 -209.5t-160.5 -77.5q-61 0 -98 28t-32 83l-7 3q-52 -108 -135 -108q-64 0 -98 41.5t-34 109.5q0 58 23 117t58 94q58 58 132 58q39 0 65.5 -23.5t33.5 -59.5
l22 76h121l-74 -251q-16 -54 -4.5 -77.5t53.5 -23.5q53 0 96 64.5t43 153.5q0 134 -88.5 215.5t-227.5 81.5q-161 0 -270 -112t-109 -278q0 -158 99 -251.5t262 -93.5q139 0 253 79l28 -46q-126 -86 -284 -86zM411 141q33 0 61 36t41.5 81t13.5 82q0 71 -52 71
q-35 0 -62 -39t-39 -84t-12 -80q0 -67 49 -67z" />
    <glyph glyph-name="A" unicode="A" horiz-adv-x="734" 
d="M476 87l-42 123h-225l-42 -123h83v-87h-253v87h72l212 575h164l209 -575h78v-87h-345v87h89zM321 535l-85 -246h172l-83 246h-4z" />
    <glyph glyph-name="B" unicode="B" horiz-adv-x="680" 
d="M27 0v87h90v484h-90v87h338q263 0 263 -159q0 -55 -42 -96t-135 -55v-7q201 -22 201 -159q0 -82 -66 -132t-215 -50h-344zM280 384h67q64 0 90.5 25.5t26.5 74.5q0 46 -24.5 66.5t-90.5 20.5h-69v-187zM280 87h69q77 0 106.5 24.5t29.5 85.5q0 103 -138 103h-67v-213z
" />
    <glyph glyph-name="C" unicode="C" horiz-adv-x="695" 
d="M373 -16q-153 0 -245 94t-92 247q0 151 93 250t225 99q123 0 187 -78l21 76h90v-262h-99q-30 92 -73.5 137t-105.5 45q-160 0 -160 -257t182 -257q72 0 116 49.5t57 135.5h96q-13 -131 -87.5 -205t-204.5 -74z" />
    <glyph glyph-name="D" unicode="D" horiz-adv-x="751" 
d="M27 0v87h90v484h-90v87h295q195 0 294 -87t99 -238q0 -152 -97.5 -242.5t-289.5 -90.5h-301zM280 85h57q110 0 155 55t45 192q0 130 -47.5 185.5t-159.5 55.5h-50v-488z" />
    <glyph glyph-name="E" unicode="E" horiz-adv-x="707" 
d="M27 0v87h90v484h-90v87h626v-234h-87q-19 96 -40.5 122.5t-83.5 26.5h-162v-199h54q41 0 52.5 15t22.5 77h78v-267h-78q-9 62 -21.5 78t-53.5 16h-54v-208h158q72 0 95 32t42 143h87v-260h-635z" />
    <glyph glyph-name="F" unicode="F" horiz-adv-x="676" 
d="M27 0v87h90v484h-90v87h613v-239h-87q-23 100 -48 127t-89 27h-136v-210h42q42 0 54 15.5t21 76.5h78v-270h-78q-8 62 -21 79t-54 17h-42v-194h109v-87h-362z" />
    <glyph glyph-name="G" unicode="G" horiz-adv-x="751" 
d="M536 91q-56 -107 -184 -107q-138 0 -227 96t-89 248q0 147 95.5 246.5t225.5 99.5q120 0 183 -82l21 80h91v-256h-111q-29 90 -69 133t-98 43q-73 0 -116.5 -63.5t-43.5 -193.5q0 -125 42 -193t123 -68q57 0 92 44q32 38 32 118v18h-110v87h347v-87h-76v-262h-90z" />
    <glyph glyph-name="H" unicode="H" horiz-adv-x="816" 
d="M27 0v87h90v484h-90v87h342v-87h-89v-188h257v188h-90v87h343v-87h-90v-484h90v-87h-343v87h90v212h-257v-212h89v-87h-342z" />
    <glyph glyph-name="I" unicode="I" horiz-adv-x="423" 
d="M38 0v87h92v484h-92v87h347v-87h-92v-484h92v-87h-347z" />
    <glyph glyph-name="J" unicode="J" horiz-adv-x="586" 
d="M251 -16q-108 0 -171.5 48t-63.5 126q0 46 28 76.5t69 30.5q37 0 60 -22t23 -62q0 -58 -52 -83q26 -34 87 -34q45 0 68.5 28.5t23.5 80.5v398h-98v87h350v-87h-88v-358q0 -108 -59.5 -168.5t-176.5 -60.5z" />
    <glyph glyph-name="K" unicode="K" horiz-adv-x="751" 
d="M280 222v-136h81v-86h-334v87h90v484h-90v87h338v-86h-85v-246l246 246h-81v86h279v-87h-81l-174 -171l224 -313h71v-87h-334v86h74l-146 212z" />
    <glyph glyph-name="L" unicode="L" horiz-adv-x="637" 
d="M27 658h352v-85h-99v-488h112q42 0 63 13t37.5 50t38.5 124h79v-272h-583v87h90v484h-90v87z" />
    <glyph glyph-name="M" unicode="M" horiz-adv-x="962" 
d="M28 0v87h86v484h-86v87h317l142 -406h3l133 406h311v-87h-88v-484h88v-87h-334v87h83v463h-9l-194 -551h-67l-201 551h-9v-463h83v-87h-258z" />
    <glyph glyph-name="N" unicode="N" horiz-adv-x="786" 
d="M521 -9l-309 510h-9v-414h90v-87h-265v87h86v484h-86v87h280l279 -460h9v373h-90v87h265v-87h-86v-580h-164z" />
    <glyph glyph-name="O" unicode="O" horiz-adv-x="748" 
d="M374 -16q-149 0 -243.5 94.5t-94.5 249.5q0 153 96.5 249.5t241.5 96.5q149 0 243.5 -94.5t94.5 -249.5q0 -153 -96.5 -249.5t-241.5 -96.5zM377 66q80 0 118.5 63.5t38.5 199.5q0 263 -163 263q-80 0 -118.5 -64t-38.5 -199q0 -263 163 -263z" />
    <glyph glyph-name="P" unicode="P" horiz-adv-x="664" 
d="M27 0v87h90v484h-90v87h327q148 0 217.5 -53.5t69.5 -146.5q0 -92 -69 -147.5t-216 -55.5h-76v-168h97v-87h-350zM280 338h64q70 0 96.5 29t26.5 92q0 60 -27 88t-97 28h-63v-237z" />
    <glyph glyph-name="Q" unicode="Q" horiz-adv-x="748" 
d="M374 -13q-148 0 -243 94t-95 247t96.5 249.5t241.5 96.5q149 0 243.5 -94.5t94.5 -249.5q0 -83 -35 -153.5t-95 -118.5q20 -41 35.5 -55.5t37.5 -14.5q23 0 34.5 17t19.5 62h64q-14 -181 -145 -181q-60 0 -95.5 26t-63.5 88q-50 -13 -95 -13zM243 158q13 50 47.5 80
t85.5 30q92 0 141 -104q21 62 21 165q0 263 -167 263q-80 0 -118.5 -64t-38.5 -199q0 -118 29 -171zM377 66q34 0 57 8q-21 52 -42 77t-52 25q-25 0 -40.5 -17.5t-15.5 -41.5q0 -51 93 -51z" />
    <glyph glyph-name="R" unicode="R" horiz-adv-x="728" 
d="M280 287v-200h93v-87h-346v87h90v484h-90v87h361q138 0 202 -48t64 -119q0 -138 -204 -162v-7q90 -8 129 -45t41 -100l3 -39q1 -31 8 -42t23 -11q22 0 40 59l59 -19q-33 -139 -149 -139q-77 0 -113 40.5t-36 123.5l-1 34q-1 57 -19.5 80t-72.5 23h-82zM280 368h87
q59 0 85.5 24.5t26.5 81.5q0 53 -23.5 77t-85.5 24h-90v-207z" />
    <glyph glyph-name="S" unicode="S" horiz-adv-x="618" 
d="M45 -14v244h88q33 -86 79.5 -124.5t124.5 -38.5q52 0 81.5 23.5t29.5 63.5q0 17 -8.5 31t-19 22.5t-35 17.5t-42 14t-54.5 14q-5 1 -8 2q-40 10 -66.5 18t-60.5 25t-54 37.5t-34.5 54t-14.5 75.5q0 90 67 149.5t164 59.5q114 0 168 -73l21 71h88v-234h-88
q-32 82 -72.5 117.5t-103.5 35.5q-48 0 -75.5 -24t-27.5 -60q0 -30 25 -50.5t49 -28.5t87 -23q7 -2 11 -3q51 -12 82.5 -23.5t68.5 -34t55.5 -59t18.5 -87.5q0 -94 -67.5 -154t-174.5 -60q-60 0 -111 22t-80 58l-24 -78h-87z" />
    <glyph glyph-name="T" unicode="T" horiz-adv-x="698" 
d="M164 0v87h103v496h-25q-60 0 -83.5 -33.5t-51.5 -156.5h-79v265h642v-265h-79q-28 123 -51.5 156.5t-83.5 33.5h-25v-496h103v-87h-370z" />
    <glyph glyph-name="U" unicode="U" horiz-adv-x="752" 
d="M389 -16q-142 0 -214.5 63.5t-72.5 178.5v345h-85v87h340v-87h-92v-322q0 -89 38 -127t115 -38q67 0 106 39q41 41 41 146v302h-88v87h263v-87h-82v-340q0 -107 -68.5 -177t-200.5 -70z" />
    <glyph glyph-name="V" unicode="V" horiz-adv-x="737" 
d="M299 -4l-217 575h-78v87h346v-87h-89l149 -428h7l153 428h-83v87h253v-87h-72l-218 -575h-151z" />
    <glyph glyph-name="W" unicode="W" horiz-adv-x="1066" 
d="M742 572h-85l114 -416h8l116 416h-82v86h255v-87h-76l-178 -575h-158l-108 367l-133 -367h-156l-172 575h-83v87h340v-86h-80l116 -418h8l121 333l-25 85h-74v86h332v-86z" />
    <glyph glyph-name="X" unicode="X" horiz-adv-x="718" 
d="M439 572v86h263v-87h-76l-182 -214l199 -270h73v-87h-342v86h77l-119 174l-137 -174h77v-86h-264v87h77l188 227l-192 257h-74v87h342v-86h-76l112 -160l131 160h-77z" />
    <glyph glyph-name="Y" unicode="Y" horiz-adv-x="676" 
d="M385 361l125 211h-79v86h254v-87h-73l-187 -297v-187h89v-87h-341v87h89v177l-190 307h-69v87h336v-86h-75z" />
    <glyph glyph-name="Z" unicode="Z" horiz-adv-x="655" 
d="M28 0v79l396 494h-160q-60 0 -83.5 -29.5t-55.5 -147.5h-78v262h570v-79l-397 -494h183q60 0 83 31t56 156h78v-272h-592z" />
    <glyph glyph-name="bracketleft" unicode="[" horiz-adv-x="366" 
d="M79 -159v883h294v-77h-157v-728h157v-78h-294z" />
    <glyph glyph-name="backslash" unicode="\" horiz-adv-x="427" 
d="M390 -203l-388 914h98l388 -914h-98z" />
    <glyph glyph-name="bracketright" unicode="]" horiz-adv-x="366" 
d="M287 724v-883h-294v78h157v728h-157v77h294z" />
    <glyph glyph-name="asciicircum" unicode="^" horiz-adv-x="372" 
d="M14 491l132 226h83l129 -226h-85l-87 108l-87 -108h-85z" />
    <glyph glyph-name="underscore" unicode="_" horiz-adv-x="447" 
d="M-2 0v87h451v-87h-451z" />
    <glyph glyph-name="grave" unicode="`" horiz-adv-x="268" 
d="M226 535h-65l-74 66q-32 27 -45.5 46.5t-13.5 43.5t18.5 42t44.5 18q33 0 52 -24t39 -76z" />
    <glyph glyph-name="a" unicode="a" horiz-adv-x="548" 
d="M172 -9q-63 0 -103 34t-40 90q0 48 33 81q47 47 194 66q42 6 51 9t9 12v41q0 44 -21 63t-65 19q-32 0 -60 -12q24 -18 24 -51q0 -26 -20 -44t-51 -18q-36 0 -56 20t-20 50q0 61 64.5 94t157.5 33q191 0 191 -163v-213q0 -16 6 -22t19 -6q19 0 31 45l49 -16
q-14 -58 -43.5 -85t-79.5 -27q-45 0 -74.5 24.5t-35.5 74.5h-5q-42 -99 -155 -99zM240 76q34 0 55 28.5t21 73.5v46q-4 -1 -17.5 -3t-27.5 -5q-52 -9 -72.5 -27t-20.5 -53q0 -26 15.5 -43t46.5 -17z" />
    <glyph glyph-name="b" unicode="b" horiz-adv-x="580" 
d="M309 71q84 0 84 162q0 153 -84 153q-47 0 -73.5 -45t-26.5 -115t26.5 -112.5t73.5 -42.5zM71 -7v612h-68v85h215v-315q49 104 149 104q71 0 119 -48q64 -64 64 -196q0 -128 -67 -195q-50 -50 -125 -50q-113 0 -164 98l-46 -95h-77z" />
    <glyph glyph-name="c" unicode="c" horiz-adv-x="513" 
d="M281 -10q-118 0 -185.5 64.5t-67.5 171.5q0 113 72 183t186 70q95 0 149.5 -46.5t54.5 -105.5q0 -39 -21 -62.5t-59 -23.5q-35 0 -55 20.5t-20 50.5q0 23 12.5 39.5t29.5 23.5q-25 32 -77 32q-51 0 -83 -45.5t-32 -124.5q0 -75 30.5 -118.5t87.5 -43.5q80 0 110 86h78
q-17 -79 -70.5 -125t-139.5 -46z" />
    <glyph glyph-name="d" unicode="d" horiz-adv-x="594" 
d="M214 -10q-72 0 -121 49q-64 64 -64 193q0 131 68 197q48 50 123 50q92 0 141 -80v206h-72v85h218v-607h67v-83h-204v98q-47 -108 -156 -108zM275 76q43 0 69 44t26 114t-23.5 113.5t-71.5 43.5q-89 0 -89 -160q0 -155 89 -155z" />
    <glyph glyph-name="e" unicode="e" horiz-adv-x="528" 
d="M499 215h-319q4 -79 35 -112t89 -33q83 0 112 82h78q-30 -162 -215 -162q-116 0 -183.5 65.5t-67.5 174.5q0 107 70 178t176 71q115 0 172.5 -73t52.5 -191zM271 411q-41 0 -63.5 -30.5t-26.5 -102.5h175q-4 71 -24 102t-61 31z" />
    <glyph glyph-name="f" unicode="f" horiz-adv-x="382" 
d="M32 0v83h68v302h-85v78h85v20q0 103 64 158.5t158 55.5q73 0 109 -26.5t36 -70.5q0 -31 -20.5 -52.5t-52.5 -21.5q-33 0 -53 18t-20 51q0 25 15 40q-12 6 -26 6q-70 0 -70 -121v-57h141v-78h-134v-302h99v-83h-314z" />
    <glyph glyph-name="g" unicode="g" horiz-adv-x="521" 
d="M453 329q0 -73 -52.5 -112t-149.5 -39q-10 0 -32.5 1t-31.5 1q-21 0 -34.5 -9.5t-13.5 -23.5q0 -33 72 -33h129q89 0 131 -33.5t42 -91.5q0 -75 -71 -119t-217 -44q-111 0 -165.5 27t-54.5 75q0 35 29 58.5t82 30.5v5q-41 9 -63 32.5t-22 53.5q0 36 32.5 64t84.5 34
q-108 27 -108 124q0 66 54.5 107.5t149.5 41.5q49 0 85 -10q18 50 52.5 78t81.5 28q42 0 63.5 -20.5t21.5 -50.5q0 -27 -17 -44.5t-46 -17.5q-26 0 -41.5 15t-15.5 38q0 2 0.5 6.5t0.5 6.5q-34 -3 -54 -56q78 -39 78 -123zM241 -107q142 0 142 63q0 41 -79 41h-120
q-40 0 -60.5 -13.5t-20.5 -35.5q0 -55 138 -55zM249 228q63 0 63 98q0 99 -68 99q-64 0 -64 -99q0 -98 69 -98z" />
    <glyph glyph-name="h" unicode="h" horiz-adv-x="623" 
d="M22 0v83h68v522h-68v85h215v-327q58 115 161 115q73 0 108 -44t35 -121v-230h67v-83h-267v83h53v210q0 50 -21 71q-18 16 -47 16q-36 0 -62.5 -32.5t-26.5 -81.5v-183h52v-83h-267z" />
    <glyph glyph-name="i" unicode="i" horiz-adv-x="345" 
d="M173 537q-40 0 -64.5 23t-24.5 60t25 62t64 25q40 0 65 -24t25 -60q0 -37 -25.5 -61.5t-64.5 -24.5zM31 0v83h76v302h-76v83h222v-385h76v-83h-298z" />
    <glyph glyph-name="j" unicode="j" horiz-adv-x="343" 
d="M186 537q-40 0 -64.5 23t-24.5 60t25 62t64 25q40 0 65 -24t25 -60q0 -37 -25.5 -61.5t-64.5 -24.5zM73 -174q-66 0 -103.5 23.5t-37.5 62.5q0 29 19.5 49.5t52.5 20.5q36 0 56 -20t20 -47q0 -17 -7 -31q8 -2 16 -2q31 2 31 56v447h-83v83h230v-431q0 -103 -50.5 -157
t-143.5 -54z" />
    <glyph glyph-name="k" unicode="k" horiz-adv-x="596" 
d="M494 385l-104 -94l154 -208h50v-83h-257v82h52l-92 131l-60 -54v-77h50v-82h-265v83h68v522h-68v85h215v-449l157 145h-74v82h244v-83h-70z" />
    <glyph glyph-name="l" unicode="l" horiz-adv-x="339" 
d="M20 0v83h76v522h-76v85h223v-607h76v-83h-299z" />
    <glyph glyph-name="m" unicode="m" horiz-adv-x="915" 
d="M532 354q56 124 162 124q71 0 104.5 -44t33.5 -121v-230h68v-83h-264v83h50v210q0 51 -21 72q-15 15 -42 15q-33 0 -59 -33t-26 -81v-183h48v-83h-244v83h50v210q0 50 -22 72q-14 15 -41 15q-33 0 -59 -33t-26 -81v-183h48v-83h-263v83h69v302h-69v83h206v-123
q56 133 165 133q116 0 132 -124z" />
    <glyph glyph-name="n" unicode="n" horiz-adv-x="630" 
d="M29 0v83h69v302h-69v83h206v-123q56 133 170 133q73 0 108 -44t35 -121v-230h67v-83h-267v83h53v210q0 50 -21 71q-18 16 -46 16q-36 0 -63 -32.5t-27 -81.5v-183h52v-83h-267z" />
    <glyph glyph-name="o" unicode="o" 
d="M281 -10q-112 0 -182.5 67t-70.5 175q0 107 72.5 177t181.5 70q111 0 181.5 -67t70.5 -175t-72 -177.5t-181 -69.5zM284 58q48 0 69 41.5t21 135.5q0 93 -23.5 134.5t-72.5 41.5q-47 0 -68.5 -41.5t-21.5 -135.5q0 -93 23.5 -134.5t72.5 -41.5z" />
    <glyph glyph-name="p" unicode="p" horiz-adv-x="593" 
d="M325 81q81 0 81 159q0 146 -83 146q-43 0 -69.5 -44.5t-26.5 -110.5q0 -67 25 -108.5t73 -41.5zM21 -161v83h68v463h-68v83h206v-110q46 121 156 121q68 0 117 -49q64 -64 64 -188q0 -123 -66 -189q-53 -53 -121 -53q-99 0 -141 78v-156h86v-83h-301z" />
    <glyph glyph-name="q" unicode="q" horiz-adv-x="574" 
d="M273 393q-86 0 -86 -157q0 -149 88 -149q41 0 67 43.5t26 109.5q0 68 -25 110.5t-70 42.5zM359 93q-47 -93 -140 -93q-76 0 -126 50q-63 63 -63 186q0 121 68 191q52 52 131 52q96 0 152 -104l47 99h77v-552h68v-83h-301v83h87v171z" />
    <glyph glyph-name="r" unicode="r" horiz-adv-x="479" 
d="M29 0v83h69v302h-69v83h206v-120q21 64 59 97t87 33q42 0 68.5 -27t26.5 -65q0 -37 -22.5 -61.5t-55.5 -24.5q-34 0 -56 19t-22 52q0 1 0.5 3.5t0.5 4.5q-22 -2 -43.5 -25.5t-33.5 -64.5v-206h87v-83h-302z" />
    <glyph glyph-name="s" unicode="s" horiz-adv-x="483" 
d="M35 -9v172h77q32 -49 72.5 -77.5t82.5 -28.5q61 0 61 48q0 27 -24 41.5t-95 32.5q-88 23 -127.5 55.5t-39.5 93.5q0 63 47 107t123 44q86 0 134 -58l16 56h78v-160h-77q-61 95 -134 95q-59 0 -59 -45q0 -25 23.5 -38.5t92.5 -31.5q87 -23 129 -55.5t42 -97.5
q0 -64 -47.5 -109t-129.5 -45q-96 0 -152 64l-16 -63h-77z" />
    <glyph glyph-name="t" unicode="t" horiz-adv-x="414" 
d="M90 573l143 17v-127h150v-78h-150v-236q0 -67 49 -67q22 0 35 19t27 69l60 -17q-17 -86 -56 -124.5t-109 -38.5q-152 0 -152 160v235h-83v78h86v110z" />
    <glyph glyph-name="u" unicode="u" horiz-adv-x="619" 
d="M224 -9q-71 0 -105.5 44t-34.5 120v230h-68v83h214v-293q0 -49 21 -71q16 -16 45 -16q35 0 61.5 33t26.5 82v182h-69v83h215v-385h68v-83h-205v123q-56 -132 -169 -132z" />
    <glyph glyph-name="v" unicode="v" horiz-adv-x="571" 
d="M215 -4l-152 389h-61v83h293v-83h-72l97 -282h5l103 282h-60v83h206v-83h-58l-157 -389h-144z" />
    <glyph glyph-name="w" unicode="w" horiz-adv-x="844" 
d="M590 386h-61l83 -277h4l76 277h-54v82h203v-83h-61l-120 -389h-151l-79 240l-86 -240h-153l-121 389h-61v83h271v-82h-58l79 -277h4l86 240l-12 37h-53v82h264v-82z" />
    <glyph glyph-name="x" unicode="x" horiz-adv-x="549" 
d="M285 387h-57l72 -96l85 96h-50v81h197v-83h-49l-134 -137l134 -165h56v-83h-275v81h58l-73 100l-88 -100h52v-81h-198v83h49l136 141l-134 161h-55v83h274v-81z" />
    <glyph glyph-name="y" unicode="y" 
d="M89 14q36 0 55.5 -23.5t19.5 -55.5q0 -21 -8 -37q32 4 53 23.5t42 70.5l-188 393h-62v83h293v-83h-71l105 -245l94 245h-59v83h205v-83h-57l-160 -372q-40 -94 -87 -140.5t-123 -46.5q-62 0 -95.5 28.5t-33.5 75.5q0 36 21.5 60t55.5 24z" />
    <glyph glyph-name="z" unicode="z" horiz-adv-x="497" 
d="M29 0v69l274 331h-87q-49 0 -68.5 -20t-41.5 -99h-67v187h427v-69l-275 -330h103q48 0 68 21.5t41 105.5h67v-196h-441z" />
    <glyph glyph-name="braceleft" unicode="{" horiz-adv-x="397" 
d="M18 326h27q66 0 94 21t28 63q0 20 -7.5 70t-7.5 74q0 167 253 170v-76q-69 -7 -91 -28.5t-22 -75.5q0 -14 3 -55.5t3 -60.5q0 -71 -35 -101t-127 -41v-7q92 -11 127 -41t35 -101q0 -19 -3 -60.5t-3 -55.5q0 -54 22 -75.5t91 -28.5v-76q-253 3 -253 170q0 24 7.5 74
t7.5 70q0 42 -28 63t-94 21h-27v87z" />
    <glyph glyph-name="bar" unicode="|" horiz-adv-x="290" 
d="M100 -203v914h90v-914h-90z" />
    <glyph glyph-name="braceright" unicode="}" horiz-adv-x="397" 
d="M379 239h-27q-66 0 -94 -21t-28 -63q0 -20 7.5 -70t7.5 -74q0 -167 -253 -170v76q69 7 91 28.5t22 75.5q0 14 -3 55.5t-3 60.5q0 71 35 101t127 41v7q-92 11 -127 41t-35 101q0 19 3 60.5t3 55.5q0 54 -22 75.5t-91 28.5v76q253 -3 253 -170q0 -24 -7.5 -74t-7.5 -70
q0 -42 28 -63t94 -21h27v-87z" />
    <glyph glyph-name="asciitilde" unicode="~" horiz-adv-x="413" 
d="M32 239q7 84 31.5 122.5t80.5 38.5q32 0 77 -24t61 -24q13 0 21 12.5t13 41.5h66q-7 -84 -31.5 -122.5t-80.5 -38.5q-32 0 -77 24t-61 24q-13 0 -21 -12.5t-13 -41.5h-66z" />
    <glyph glyph-name="uni00A0" unicode="&#xa0;" horiz-adv-x="175" 
 />
    <glyph glyph-name="exclamdown" unicode="&#xa1;" horiz-adv-x="301" 
d="M150 -17q-43 0 -66 24t-23 66q0 37 17 139q24 140 38 247h67q14 -107 38 -247q18 -98 18 -139q0 -42 -23.5 -66t-65.5 -24zM150 684q37 0 63 -25t26 -61t-26 -61.5t-64 -25.5q-37 0 -63 25t-26 61t26 61.5t64 25.5z" />
    <glyph glyph-name="cent" unicode="&#xa2;" horiz-adv-x="552" 
d="M316 -102l-78 4l5 92q-100 13 -154.5 74.5t-54.5 157.5q0 104 67.5 173.5t179.5 77.5l7 84l78 -4l-7 -82q77 -12 125 -54t48 -95q0 -38 -20.5 -60t-56.5 -22q-34 0 -54.5 19.5t-20.5 47.5q0 46 39 68q-24 28 -71 33l-25 -343h2q86 0 119 92h78q-33 -157 -200 -170z
M184 237q0 -131 70 -160l25 334q-95 -19 -95 -174z" />
    <glyph glyph-name="sterling" unicode="&#xa3;" horiz-adv-x="631" 
d="M494 269h-146v-2q0 -51 -39 -105q30 -9 65 -22t57 -19.5t44 -6.5q30 0 46 20.5t28 74.5l59 -5q-2 -115 -33.5 -167.5t-106.5 -52.5q-18 0 -37.5 4.5t-32 8.5t-36 17t-31.5 18t-36.5 23.5t-34.5 22.5q-46 -94 -134 -94q-47 0 -75 24.5t-28 63.5q0 49 41 81t116 32
q24 0 48 -4q-1 42 -25 88h-149v80h105q-22 44 -22 87q0 94 72 154t181 60q83 0 138.5 -39t55.5 -95q0 -40 -25 -66.5t-61 -26.5t-57 22t-21 53q0 44 35 67q-22 22 -72 22q-48 0 -73 -24.5t-25 -66.5q0 -23 6 -45.5t21 -57.5t18 -44h164v-80zM133 45q48 0 76 60
q-30 13 -58 13q-25 0 -39.5 -11.5t-14.5 -29.5q0 -32 36 -32z" />
    <glyph glyph-name="yen" unicode="&#xa5;" horiz-adv-x="645" 
d="M81 342h131l-133 206h-66v86h311v-84h-73l115 -196l111 196h-71v84h236v-86h-72l-130 -206h133v-73h-173v-55h173v-73h-173v-58h94v-83h-334v83h95v58h-174v73h174v55h-174v73z" />
    <glyph glyph-name="section" unicode="&#xa7;" horiz-adv-x="539" 
d="M261 -125q-94 0 -154 35.5t-60 88.5q0 31 21 53t54 22t54 -18.5t21 -47.5q0 -31 -22 -50q30 -21 90 -21q48 0 71 16.5t23 43.5q0 33 -30.5 53.5t-111.5 46.5q-90 29 -134.5 60.5t-44.5 90.5q0 45 32 78.5t89 50.5v7q-91 37 -91 113q0 73 64.5 117t157.5 44
q87 0 139 -33.5t52 -80.5q0 -31 -19.5 -51.5t-52.5 -20.5q-34 0 -54.5 18t-20.5 47q0 25 18 44q-28 15 -67 15q-47 0 -71 -16.5t-24 -44.5q0 -27 30 -45t113 -46q41 -13 67 -24.5t53 -29t40 -41.5t13 -56q0 -43 -30.5 -77t-85.5 -52v-7q92 -37 92 -116q0 -74 -61.5 -120
t-159.5 -46zM331 187q53 21 53 64q0 30 -32 51t-98 41l-38 12q-56 -21 -56 -66q0 -30 32 -49.5t103 -40.5q5 -2 18 -6t18 -6z" />
    <glyph glyph-name="dieresis" unicode="&#xa8;" horiz-adv-x="385" 
d="M293 538q-34 0 -56 21.5t-22 54.5t22.5 55.5t55.5 22.5q34 0 55.5 -21.5t21.5 -54.5t-22 -55.5t-55 -22.5zM92 538q-34 0 -56 21.5t-22 54.5t22.5 55.5t55.5 22.5q34 0 56 -21.5t22 -54.5t-22 -55.5t-56 -22.5z" />
    <glyph glyph-name="copyright" unicode="&#xa9;" horiz-adv-x="787" 
d="M393 -34q-157 0 -262 103t-105 260q0 156 105 259t262 103q158 0 262.5 -103t104.5 -259q0 -157 -104.5 -260t-262.5 -103zM393 15q136 0 222 88.5t86 225.5q0 136 -86 224.5t-222 88.5q-135 0 -221.5 -88.5t-86.5 -224.5q0 -137 86.5 -225.5t221.5 -88.5zM401 140
q-84 0 -136 52.5t-52 136.5t52.5 138t125.5 54q68 0 102 -43l12 42h51v-143h-56q-17 50 -40.5 73.5t-57.5 23.5q-88 0 -88 -139q0 -141 100 -141q78 0 93 101h55q-7 -72 -48 -113.5t-113 -41.5z" />
    <glyph glyph-name="ordfeminine" unicode="&#xaa;" horiz-adv-x="433" 
d="M134 315q-45 0 -74 24.5t-29 63.5q0 37 27 61q37 33 137 45q35 6 39 11v30q0 31 -14.5 44.5t-44.5 13.5q-21 0 -41 -9q17 -11 17 -36q0 -19 -15 -31.5t-37 -12.5q-26 0 -40.5 14.5t-14.5 35.5q0 43 46 66.5t112 23.5q139 0 139 -115v-143q0 -21 17 -21q14 0 22 33l38 -12
q-10 -45 -32.5 -65t-59.5 -20q-69 0 -78 66h-4q-31 -67 -110 -67zM182 376q23 0 37.5 20.5t14.5 51.5v31q-3 -1 -30 -6q-37 -7 -50 -18.5t-13 -36.5q0 -42 41 -42z" />
    <glyph glyph-name="guillemotleft" unicode="&#xab;" horiz-adv-x="521" 
d="M160 229l107 -167l-40 -31l-179 157q-24 23 -24 39q0 19 24 40l179 156l40 -31zM375 229l108 -167l-41 -31l-178 157q-25 22 -25 39q0 19 25 40l178 156l41 -31z" />
    <glyph glyph-name="registered" unicode="&#xae;" horiz-adv-x="505" 
d="M252 247q-96 0 -159.5 63t-63.5 159t63.5 158.5t159.5 62.5q97 0 161 -62.5t64 -158.5t-64 -159t-161 -63zM252 284q82 0 132 51t50 134q0 82 -50 133.5t-132 51.5q-81 0 -131 -51.5t-50 -133.5q0 -83 49.5 -134t131.5 -51zM231 455v-65h31v-30h-118v30h30v162h-30v30
h124q47 0 68.5 -16.5t21.5 -41.5q0 -47 -70 -55v-2q30 -3 43 -14.5t15 -33.5l2 -12q1 -18 10 -18q8 0 13 20l21 -6q-12 -48 -52 -48q-52 0 -52 56v11q0 18 -6.5 25.5t-23.5 7.5h-27zM231 483h28q20 0 28.5 8t8.5 27t-7.5 27t-28.5 8h-29v-70z" />
    <glyph glyph-name="macron" unicode="&#xaf;" horiz-adv-x="363" 
d="M32 540v98h299v-98h-299z" />
    <glyph glyph-name="degree" unicode="&#xb0;" horiz-adv-x="405" 
d="M203 346q-81 0 -128 46t-47 117q0 70 49 117.5t126 47.5q80 0 127 -45.5t47 -116.5t-48.5 -118.5t-125.5 -47.5zM205 413q36 0 57 25t21 72t-23 72t-60 25q-35 0 -56 -25t-21 -71q0 -47 22.5 -72.5t59.5 -25.5z" />
    <glyph glyph-name="plusminus" unicode="&#xb1;" horiz-adv-x="539" 
d="M230 163v157h-154v72h154v154h80v-154h153v-72h-153v-157h-80zM462 33h-386v73h386v-73z" />
    <glyph glyph-name="acute" unicode="&#xb4;" horiz-adv-x="268" 
d="M38 535l44 116q20 52 39 76t52 24q26 0 44.5 -18t18.5 -42t-13.5 -43t-44.5 -47l-75 -66h-65z" />
    <glyph glyph-name="paragraph" unicode="&#xb6;" horiz-adv-x="652" 
d="M315 -111v273q-125 1 -202.5 61t-77.5 168q0 106 78 167.5t223 61.5h291v-83h-75v-648h-85v649h-66v-649h-86z" />
    <glyph glyph-name="periodcentered" unicode="&#xb7;" horiz-adv-x="263" 
d="M131 232q-37 0 -63 25.5t-26 62.5q0 38 26 63.5t64 25.5q37 0 63 -25.5t26 -62.5t-26 -63t-64 -26z" />
    <glyph glyph-name="cedilla" unicode="&#xb8;" horiz-adv-x="337" 
d="M137 -249q-76 0 -133 32l29 49q42 -20 86 -20q48 0 48 28q0 36 -77 36q-10 0 -27 -3l-23 42l109 92h72l-65 -66l1 -4q57 -6 85.5 -30t28.5 -58q0 -45 -35.5 -71.5t-98.5 -26.5z" />
    <glyph glyph-name="ordmasculine" unicode="&#xba;" horiz-adv-x="413" 
d="M207 314q-81 0 -131.5 47.5t-50.5 123.5t52 125t130 49q80 0 130 -47.5t50 -123.5t-51 -125t-129 -49zM209 366q32 0 46.5 28t14.5 93t-16 92.5t-50 27.5q-33 0 -47 -28t-14 -93q0 -64 16 -92t50 -28z" />
    <glyph glyph-name="guillemotright" unicode="&#xbb;" horiz-adv-x="521" 
d="M361 225l-107 167l40 31l179 -157q24 -23 24 -39q0 -19 -24 -40l-179 -156l-40 31zM146 225l-108 167l41 31l178 -157q25 -22 25 -39q0 -19 -25 -40l-178 -156l-41 31z" />
    <glyph glyph-name="questiondown" unicode="&#xbf;" horiz-adv-x="491" 
d="M311 448q-1 -87 -57 -165q-4 -6 -15 -21t-15.5 -21t-12 -19t-10.5 -22t-5.5 -22t-2.5 -27q0 -46 23 -71t68 -25q64 0 84 38q-25 8 -40.5 28t-15.5 46q0 33 21.5 55.5t58.5 22.5q38 0 62.5 -25.5t24.5 -66.5q0 -70 -61.5 -120t-162.5 -50q-106 0 -167.5 51.5t-61.5 126.5
q0 54 25.5 89t76.5 71q43 29 68 57t38 70h77zM271 684q38 0 63.5 -25t25.5 -61t-25.5 -61.5t-64.5 -25.5q-37 0 -63 25t-26 61t26 61.5t64 25.5z" />
    <glyph glyph-name="Agrave" unicode="&#xc0;" horiz-adv-x="734" 
d="M476 87l-42 123h-225l-42 -123h83v-87h-253v87h72l212 575h164l209 -575h78v-87h-345v87h89zM410 729h-65l-74 66q-32 27 -45.5 46.5t-13.5 43.5t18.5 42t44.5 18q33 0 52 -24t39 -76zM321 535l-85 -246h172l-83 246h-4z" />
    <glyph glyph-name="Aacute" unicode="&#xc1;" horiz-adv-x="734" 
d="M476 87l-42 123h-225l-42 -123h83v-87h-253v87h72l212 575h164l209 -575h78v-87h-345v87h89zM322 729l44 116q20 52 39 76t52 24q26 0 44.5 -18t18.5 -42t-13.5 -43t-44.5 -47l-75 -66h-65zM321 535l-85 -246h172l-83 246h-4z" />
    <glyph glyph-name="Acircumflex" unicode="&#xc2;" horiz-adv-x="734" 
d="M476 87l-42 123h-225l-42 -123h83v-87h-253v87h72l212 575h164l209 -575h78v-87h-345v87h89zM201 729l124 197h81l122 -197h-85l-80 86l-77 -86h-85zM321 535l-85 -246h172l-83 246h-4z" />
    <glyph glyph-name="Atilde" unicode="&#xc3;" horiz-adv-x="734" 
d="M476 87l-42 123h-225l-42 -123h83v-87h-253v87h72l212 575h164l209 -575h78v-87h-345v87h89zM182 726q7 84 31.5 122.5t80.5 38.5q32 0 84 -24t68 -24q14 0 21.5 12t12.5 42h66q-6 -84 -31 -122.5t-81 -38.5q-32 0 -84 24t-68 24q-13 0 -21 -12.5t-13 -41.5h-66zM321 535
l-85 -246h172l-83 246h-4z" />
    <glyph glyph-name="Adieresis" unicode="&#xc4;" horiz-adv-x="734" 
d="M476 87l-42 123h-225l-42 -123h83v-87h-253v87h72l212 575h164l209 -575h78v-87h-345v87h89zM321 535l-85 -246h172l-83 246h-4zM264 732q-34 0 -56 21.5t-22 54.5t22.5 55.5t55.5 22.5q34 0 56 -21.5t22 -54.5t-22 -55.5t-56 -22.5zM465 732q-34 0 -56 21.5t-22 54.5
t22.5 55.5t55.5 22.5q34 0 55.5 -21.5t21.5 -54.5t-22 -55.5t-55 -22.5z" />
    <glyph glyph-name="Aring" unicode="&#xc5;" horiz-adv-x="734" 
d="M364 682q23 0 37 18t14 48q0 32 -14.5 49t-38.5 17q-23 0 -37 -17t-14 -48t15 -49t38 -18zM408 289l-83 246h-4l-84 -246h171zM210 210l-43 -123h83v-87h-253v87h72l211 573q-47 29 -47 87q0 49 36 83t95 34t94 -33t35 -82q0 -58 -48 -89l53 -143q52 -143 104 -287
l52 -143h78v-87h-345v87h89l-42 123h-224z" />
    <glyph glyph-name="AE" unicode="&#xc6;" horiz-adv-x="1058" 
d="M467 299v266h-9l-167 -266h176zM242 220l-83 -134h78v-86h-257v87h71l314 484h-95v87h733v-234h-86q-20 96 -41 122.5t-83 26.5h-162v-199h54q41 0 52.5 15t22.5 77h78v-267h-78q-9 62 -21.5 78t-53.5 16h-54v-208h158q72 0 95 32t42 143h86v-260h-635v87h90v133h-225z
" />
    <glyph glyph-name="Ccedilla" unicode="&#xc7;" horiz-adv-x="695" 
d="M354 -249q-76 0 -133 32l29 49q42 -20 86 -20q48 0 48 28q0 36 -77 36q-11 0 -27 -3l-23 42l83 71q-139 10 -221.5 102.5t-82.5 236.5q0 151 93 250t225 99q123 0 187 -78l21 76h90v-262h-99q-30 92 -73.5 137t-105.5 45q-160 0 -160 -257t182 -257q72 0 116 49.5
t57 135.5h96q-12 -119 -75 -191.5t-172 -84.5l-45 -46l1 -4q57 -6 85.5 -30t28.5 -58q0 -45 -35.5 -71.5t-98.5 -26.5z" />
    <glyph glyph-name="Egrave" unicode="&#xc8;" horiz-adv-x="707" 
d="M27 0v87h90v484h-90v87h626v-234h-87q-19 96 -40.5 122.5t-83.5 26.5h-162v-199h54q41 0 52.5 15t22.5 77h78v-267h-78q-9 62 -21.5 78t-53.5 16h-54v-208h158q72 0 95 32t42 143h87v-260h-635zM421 729h-65l-74 66q-32 27 -45.5 46.5t-13.5 43.5t18.5 42t44.5 18
q33 0 52 -24t39 -76z" />
    <glyph glyph-name="Eacute" unicode="&#xc9;" horiz-adv-x="707" 
d="M333 729l44 116q20 52 39 76t52 24q26 0 44.5 -18t18.5 -42t-13.5 -43t-44.5 -47l-75 -66h-65zM27 0v87h90v484h-90v87h626v-234h-87q-19 96 -40.5 122.5t-83.5 26.5h-162v-199h54q41 0 52.5 15t22.5 77h78v-267h-78q-9 62 -21.5 78t-53.5 16h-54v-208h158q72 0 95 32
t42 143h87v-260h-635z" />
    <glyph glyph-name="Ecircumflex" unicode="&#xca;" horiz-adv-x="707" 
d="M212 729l124 197h81l122 -197h-85l-80 86l-77 -86h-85zM27 0v87h90v484h-90v87h626v-234h-87q-19 96 -40.5 122.5t-83.5 26.5h-162v-199h54q41 0 52.5 15t22.5 77h78v-267h-78q-9 62 -21.5 78t-53.5 16h-54v-208h158q72 0 95 32t42 143h87v-260h-635z" />
    <glyph glyph-name="Edieresis" unicode="&#xcb;" horiz-adv-x="707" 
d="M476 732q-34 0 -56 21.5t-22 54.5t22.5 55.5t55.5 22.5q34 0 55.5 -21.5t21.5 -54.5t-22 -55.5t-55 -22.5zM275 732q-34 0 -56 21.5t-22 54.5t22.5 55.5t55.5 22.5q34 0 56 -21.5t22 -54.5t-22 -55.5t-56 -22.5zM27 0v87h90v484h-90v87h626v-234h-87q-19 96 -40.5 122.5
t-83.5 26.5h-162v-199h54q41 0 52.5 15t22.5 77h78v-267h-78q-9 62 -21.5 78t-53.5 16h-54v-208h158q72 0 95 32t42 143h87v-260h-635z" />
    <glyph glyph-name="Igrave" unicode="&#xcc;" horiz-adv-x="423" 
d="M38 0v87h92v484h-92v87h347v-87h-92v-484h92v-87h-347zM257 729h-65l-74 66q-32 27 -45.5 46.5t-13.5 43.5t18.5 42t44.5 18q33 0 52 -24t39 -76z" />
    <glyph glyph-name="Iacute" unicode="&#xcd;" horiz-adv-x="423" 
d="M38 0v87h92v484h-92v87h347v-87h-92v-484h92v-87h-347zM169 729l44 116q20 52 39 76t52 24q26 0 44.5 -18t18.5 -42t-13.5 -43t-44.5 -47l-75 -66h-65z" />
    <glyph glyph-name="Icircumflex" unicode="&#xce;" horiz-adv-x="423" 
d="M38 0v87h92v484h-92v87h347v-87h-92v-484h92v-87h-347zM47 729l124 197h81l122 -197h-85l-80 86l-77 -86h-85z" />
    <glyph glyph-name="Idieresis" unicode="&#xcf;" horiz-adv-x="423" 
d="M38 0v87h92v484h-92v87h347v-87h-92v-484h92v-87h-347zM311 732q-34 0 -56 21.5t-22 54.5t22.5 55.5t55.5 22.5q34 0 55.5 -21.5t21.5 -54.5t-22 -55.5t-55 -22.5zM110 732q-34 0 -56 21.5t-22 54.5t22.5 55.5t55.5 22.5q34 0 56 -21.5t22 -54.5t-22 -55.5t-56 -22.5z
" />
    <glyph glyph-name="Eth" unicode="&#xd0;" horiz-adv-x="751" 
d="M27 0v87h90v213h-90v86h90v185h-90v87h295q195 0 294 -87t99 -238q0 -152 -97.5 -242.5t-289.5 -90.5h-301zM280 85h57q110 0 155 55t45 192q0 130 -47.5 185.5t-159.5 55.5h-50v-187h114v-86h-114v-215z" />
    <glyph glyph-name="Ntilde" unicode="&#xd1;" horiz-adv-x="786" 
d="M521 -9l-309 510h-9v-414h90v-87h-265v87h86v484h-86v87h280l279 -460h9v373h-90v87h265v-87h-86v-580h-164zM223 726q7 84 31.5 122.5t80.5 38.5q32 0 84 -24t68 -24q14 0 21.5 12t12.5 42h66q-6 -84 -31 -122.5t-81 -38.5q-32 0 -84 24t-68 24q-13 0 -21 -12.5
t-13 -41.5h-66z" />
    <glyph glyph-name="Ograve" unicode="&#xd2;" horiz-adv-x="748" 
d="M374 -16q-149 0 -243.5 94.5t-94.5 249.5q0 153 96.5 249.5t241.5 96.5q149 0 243.5 -94.5t94.5 -249.5q0 -153 -96.5 -249.5t-241.5 -96.5zM377 66q80 0 118.5 63.5t38.5 199.5q0 263 -163 263q-80 0 -118.5 -64t-38.5 -199q0 -263 163 -263zM420 729h-65l-74 66
q-32 27 -45.5 46.5t-13.5 43.5t18.5 42t44.5 18q33 0 52 -24t39 -76z" />
    <glyph glyph-name="Oacute" unicode="&#xd3;" horiz-adv-x="748" 
d="M332 729l44 116q20 52 39 76t52 24q26 0 44.5 -18t18.5 -42t-13.5 -43t-44.5 -47l-75 -66h-65zM374 -16q-149 0 -243.5 94.5t-94.5 249.5q0 153 96.5 249.5t241.5 96.5q149 0 243.5 -94.5t94.5 -249.5q0 -153 -96.5 -249.5t-241.5 -96.5zM377 66q80 0 118.5 63.5
t38.5 199.5q0 263 -163 263q-80 0 -118.5 -64t-38.5 -199q0 -263 163 -263z" />
    <glyph glyph-name="Ocircumflex" unicode="&#xd4;" horiz-adv-x="748" 
d="M210 729l124 197h81l122 -197h-85l-80 86l-77 -86h-85zM374 -16q-149 0 -243.5 94.5t-94.5 249.5q0 153 96.5 249.5t241.5 96.5q149 0 243.5 -94.5t94.5 -249.5q0 -153 -96.5 -249.5t-241.5 -96.5zM377 66q80 0 118.5 63.5t38.5 199.5q0 263 -163 263q-80 0 -118.5 -64
t-38.5 -199q0 -263 163 -263z" />
    <glyph glyph-name="Otilde" unicode="&#xd5;" horiz-adv-x="748" 
d="M374 -16q-149 0 -243.5 94.5t-94.5 249.5q0 153 96.5 249.5t241.5 96.5q149 0 243.5 -94.5t94.5 -249.5q0 -153 -96.5 -249.5t-241.5 -96.5zM377 66q80 0 118.5 63.5t38.5 199.5q0 263 -163 263q-80 0 -118.5 -64t-38.5 -199q0 -263 163 -263zM192 726q7 84 31.5 122.5
t80.5 38.5q32 0 84 -24t68 -24q14 0 21.5 12t12.5 42h66q-6 -84 -31 -122.5t-81 -38.5q-32 0 -84 24t-68 24q-13 0 -21 -12.5t-13 -41.5h-66z" />
    <glyph glyph-name="Odieresis" unicode="&#xd6;" horiz-adv-x="748" 
d="M474 732q-34 0 -56 21.5t-22 54.5t22.5 55.5t55.5 22.5q34 0 55.5 -21.5t21.5 -54.5t-22 -55.5t-55 -22.5zM273 732q-34 0 -56 21.5t-22 54.5t22.5 55.5t55.5 22.5q34 0 56 -21.5t22 -54.5t-22 -55.5t-56 -22.5zM374 -16q-149 0 -243.5 94.5t-94.5 249.5
q0 153 96.5 249.5t241.5 96.5q149 0 243.5 -94.5t94.5 -249.5q0 -153 -96.5 -249.5t-241.5 -96.5zM377 66q80 0 118.5 63.5t38.5 199.5q0 263 -163 263q-80 0 -118.5 -64t-38.5 -199q0 -263 163 -263z" />
    <glyph glyph-name="multiply" unicode="&#xd7;" horiz-adv-x="520" 
d="M317 284l137 -139l-60 -61l-134 142l-134 -142l-60 61l137 139l-137 140l60 61l134 -142l134 142l60 -61z" />
    <glyph glyph-name="Oslash" unicode="&#xd8;" horiz-adv-x="748" 
d="M152 -34h-105l86 113q-97 95 -97 249q0 152 96 249t238 97q98 0 180 -46l46 64h105l-86 -114q97 -97 97 -248q0 -153 -96 -249.5t-239 -96.5q-100 0 -180 46zM213 329q0 -84 13 -137l258 354q-40 47 -113 47q-81 0 -119.5 -64t-38.5 -200zM377 65q81 0 119.5 64t38.5 200
q0 83 -13 136l-258 -354q39 -46 113 -46z" />
    <glyph glyph-name="Ugrave" unicode="&#xd9;" horiz-adv-x="752" 
d="M389 -16q-142 0 -214.5 63.5t-72.5 178.5v345h-85v87h340v-87h-92v-322q0 -89 38 -127t115 -38q67 0 106 39q41 41 41 146v302h-88v87h263v-87h-82v-340q0 -107 -68.5 -177t-200.5 -70zM452 729h-65l-74 66q-32 27 -45.5 46.5t-13.5 43.5t18.5 42t44.5 18q33 0 52 -24
t39 -76z" />
    <glyph glyph-name="Uacute" unicode="&#xda;" horiz-adv-x="752" 
d="M364 729l44 116q20 52 39 76t52 24q26 0 44.5 -18t18.5 -42t-13.5 -43t-44.5 -47l-75 -66h-65zM389 -16q-142 0 -214.5 63.5t-72.5 178.5v345h-85v87h340v-87h-92v-322q0 -89 38 -127t115 -38q67 0 106 39q41 41 41 146v302h-88v87h263v-87h-82v-340q0 -107 -68.5 -177
t-200.5 -70z" />
    <glyph glyph-name="Ucircumflex" unicode="&#xdb;" horiz-adv-x="752" 
d="M243 729l124 197h81l122 -197h-85l-80 86l-77 -86h-85zM389 -16q-142 0 -214.5 63.5t-72.5 178.5v345h-85v87h340v-87h-92v-322q0 -89 38 -127t115 -38q67 0 106 39q41 41 41 146v302h-88v87h263v-87h-82v-340q0 -107 -68.5 -177t-200.5 -70z" />
    <glyph glyph-name="Udieresis" unicode="&#xdc;" horiz-adv-x="752" 
d="M507 732q-34 0 -56 21.5t-22 54.5t22.5 55.5t55.5 22.5q34 0 55.5 -21.5t21.5 -54.5t-22 -55.5t-55 -22.5zM306 732q-34 0 -56 21.5t-22 54.5t22.5 55.5t55.5 22.5q34 0 56 -21.5t22 -54.5t-22 -55.5t-56 -22.5zM389 -16q-142 0 -214.5 63.5t-72.5 178.5v345h-85v87h340
v-87h-92v-322q0 -89 38 -127t115 -38q67 0 106 39q41 41 41 146v302h-88v87h263v-87h-82v-340q0 -107 -68.5 -177t-200.5 -70z" />
    <glyph glyph-name="Yacute" unicode="&#xdd;" horiz-adv-x="676" 
d="M385 361l125 211h-79v86h254v-87h-73l-187 -297v-187h89v-87h-341v87h89v177l-190 307h-69v87h336v-86h-75zM327 729l44 116q20 52 39 76t52 24q26 0 44.5 -18t18.5 -42t-13.5 -43t-44.5 -47l-75 -66h-65z" />
    <glyph glyph-name="Thorn" unicode="&#xde;" horiz-adv-x="670" 
d="M27 0v87h90v484h-90v87h345v-87h-92v-52h78q287 0 287 -183q0 -188 -284 -188h-81v-61h92v-87h-345zM280 232h63q70 0 99 25t29 79q0 51 -28.5 75t-99.5 24h-63v-203z" />
    <glyph glyph-name="germandbls" unicode="&#xdf;" horiz-adv-x="643" 
d="M449 -8q-73 0 -114 26.5t-41 72.5q0 29 18 48.5t48 19.5q32 0 50 -19t18 -49q0 -24 -11 -40q16 -8 37 -8q28 0 43 15.5t15 41.5q0 31 -21.5 53t-67.5 47q-58 33 -83.5 59.5t-25.5 70.5q0 43 47 102q57 67 57 126q0 37 -21.5 59t-58.5 22q-91 0 -91 -123v-516h-215v83h68
v302h-85v78h88v7q0 113 68 170t176 57q98 0 154 -37.5t56 -94.5q0 -26 -13 -48t-28.5 -34.5t-42.5 -29.5q-33 -20 -44.5 -32t-11.5 -29q0 -19 18 -34.5t66 -43.5q39 -22 63.5 -40t45.5 -51t21 -72q0 -68 -49 -113.5t-133 -45.5z" />
    <glyph glyph-name="agrave" unicode="&#xe0;" horiz-adv-x="548" 
d="M172 -9q-63 0 -103 34t-40 90q0 48 33 81q47 47 194 66q42 6 51 9t9 12v41q0 44 -21 63t-65 19q-32 0 -60 -12q24 -18 24 -51q0 -26 -20 -44t-51 -18q-36 0 -56 20t-20 50q0 61 64.5 94t157.5 33q191 0 191 -163v-213q0 -16 6 -22t19 -6q19 0 31 45l49 -16
q-14 -58 -43.5 -85t-79.5 -27q-45 0 -74.5 24.5t-35.5 74.5h-5q-42 -99 -155 -99zM240 76q34 0 55 28.5t21 73.5v46q-4 -1 -17.5 -3t-27.5 -5q-52 -9 -72.5 -27t-20.5 -53q0 -26 15.5 -43t46.5 -17zM313 535h-65l-74 66q-32 27 -45.5 46.5t-13.5 43.5t18.5 42t44.5 18
q33 0 52 -24t39 -76z" />
    <glyph glyph-name="aacute" unicode="&#xe1;" horiz-adv-x="548" 
d="M172 -9q-63 0 -103 34t-40 90q0 48 33 81q47 47 194 66q42 6 51 9t9 12v41q0 44 -21 63t-65 19q-32 0 -60 -12q24 -18 24 -51q0 -26 -20 -44t-51 -18q-36 0 -56 20t-20 50q0 61 64.5 94t157.5 33q191 0 191 -163v-213q0 -16 6 -22t19 -6q19 0 31 45l49 -16
q-14 -58 -43.5 -85t-79.5 -27q-45 0 -74.5 24.5t-35.5 74.5h-5q-42 -99 -155 -99zM240 76q34 0 55 28.5t21 73.5v46q-4 -1 -17.5 -3t-27.5 -5q-52 -9 -72.5 -27t-20.5 -53q0 -26 15.5 -43t46.5 -17zM225 535l44 116q20 52 39 76t52 24q26 0 44.5 -18t18.5 -42t-13.5 -43
t-44.5 -47l-75 -66h-65z" />
    <glyph glyph-name="acircumflex" unicode="&#xe2;" horiz-adv-x="548" 
d="M172 -9q-63 0 -103 34t-40 90q0 48 33 81q47 47 194 66q42 6 51 9t9 12v41q0 44 -21 63t-65 19q-32 0 -60 -12q24 -18 24 -51q0 -26 -20 -44t-51 -18q-36 0 -56 20t-20 50q0 61 64.5 94t157.5 33q191 0 191 -163v-213q0 -16 6 -22t19 -6q19 0 31 45l49 -16
q-14 -58 -43.5 -85t-79.5 -27q-45 0 -74.5 24.5t-35.5 74.5h-5q-42 -99 -155 -99zM240 76q34 0 55 28.5t21 73.5v46q-4 -1 -17.5 -3t-27.5 -5q-52 -9 -72.5 -27t-20.5 -53q0 -26 15.5 -43t46.5 -17zM104 535l124 197h81l122 -197h-85l-80 86l-77 -86h-85z" />
    <glyph glyph-name="atilde" unicode="&#xe3;" horiz-adv-x="548" 
d="M172 -9q-63 0 -103 34t-40 90q0 48 33 81q47 47 194 66q42 6 51 9t9 12v41q0 44 -21 63t-65 19q-32 0 -60 -12q24 -18 24 -51q0 -26 -20 -44t-51 -18q-36 0 -56 20t-20 50q0 61 64.5 94t157.5 33q191 0 191 -163v-213q0 -16 6 -22t19 -6q19 0 31 45l49 -16
q-14 -58 -43.5 -85t-79.5 -27q-45 0 -74.5 24.5t-35.5 74.5h-5q-42 -99 -155 -99zM240 76q34 0 55 28.5t21 73.5v46q-4 -1 -17.5 -3t-27.5 -5q-52 -9 -72.5 -27t-20.5 -53q0 -26 15.5 -43t46.5 -17zM85 532q7 84 31.5 122.5t80.5 38.5q32 0 84 -24t68 -24q14 0 21.5 12
t12.5 42h66q-6 -84 -31 -122.5t-81 -38.5q-32 0 -84 24t-68 24q-13 0 -21 -12.5t-13 -41.5h-66z" />
    <glyph glyph-name="adieresis" unicode="&#xe4;" horiz-adv-x="548" 
d="M172 -9q-63 0 -103 34t-40 90q0 48 33 81q47 47 194 66q42 6 51 9t9 12v41q0 44 -21 63t-65 19q-32 0 -60 -12q24 -18 24 -51q0 -26 -20 -44t-51 -18q-36 0 -56 20t-20 50q0 61 64.5 94t157.5 33q191 0 191 -163v-213q0 -16 6 -22t19 -6q19 0 31 45l49 -16
q-14 -58 -43.5 -85t-79.5 -27q-45 0 -74.5 24.5t-35.5 74.5h-5q-42 -99 -155 -99zM240 76q34 0 55 28.5t21 73.5v46q-4 -1 -17.5 -3t-27.5 -5q-52 -9 -72.5 -27t-20.5 -53q0 -26 15.5 -43t46.5 -17zM368 538q-34 0 -56 21.5t-22 54.5t22.5 55.5t55.5 22.5q34 0 55.5 -21.5
t21.5 -54.5t-22 -55.5t-55 -22.5zM167 538q-34 0 -56 21.5t-22 54.5t22.5 55.5t55.5 22.5q34 0 56 -21.5t22 -54.5t-22 -55.5t-56 -22.5z" />
    <glyph glyph-name="aring" unicode="&#xe5;" horiz-adv-x="548" 
d="M172 -9q-63 0 -103 34t-40 90q0 48 33 81q47 47 194 66q42 6 51 9t9 12v41q0 44 -21 63t-65 19q-32 0 -60 -12q24 -18 24 -51q0 -26 -20 -44t-51 -18q-36 0 -56 20t-20 50q0 61 64.5 94t157.5 33q191 0 191 -163v-213q0 -16 6 -22t19 -6q19 0 31 45l49 -16
q-14 -58 -43.5 -85t-79.5 -27q-45 0 -74.5 24.5t-35.5 74.5h-5q-42 -99 -155 -99zM240 76q34 0 55 28.5t21 73.5v46q-4 -1 -17.5 -3t-27.5 -5q-52 -9 -72.5 -27t-20.5 -53q0 -26 15.5 -43t46.5 -17zM268 529q-61 0 -95.5 33t-34.5 82t35.5 83t94.5 34t94 -33t35 -82t-35 -83
t-94 -34zM269 579q23 0 37 17.5t14 48.5q0 32 -14.5 49t-39.5 17q-22 0 -36.5 -17t-14.5 -48t15 -49t39 -18z" />
    <glyph glyph-name="ae" unicode="&#xe6;" horiz-adv-x="803" 
d="M773 215h-317q4 -79 34.5 -112t88.5 -33q83 0 112 82h77q-31 -162 -209 -162q-163 0 -213 113q-21 -55 -64.5 -83.5t-102.5 -28.5q-68 0 -109 33.5t-41 90.5q0 48 33 81q47 47 194 66q42 6 51 9t9 12v41q0 44 -21 63t-65 19q-32 0 -60 -12q24 -18 24 -51q0 -26 -20 -44
t-51 -18q-36 0 -56 20t-20 50q0 61 63.5 94t151.5 33q106 0 144 -56q57 57 148 57q110 0 167 -73t52 -191zM546 411q-40 0 -62.5 -30.5t-26.5 -102.5h173q-4 71 -24 102t-60 31zM240 76q34 0 55 28.5t21 73.5v46q-4 -1 -17.5 -3t-27.5 -5q-52 -9 -72.5 -27t-20.5 -53
q0 -26 15.5 -43t46.5 -17z" />
    <glyph glyph-name="ccedilla" unicode="&#xe7;" horiz-adv-x="513" 
d="M262 -249q-76 0 -133 32l29 49q42 -20 86 -20q48 0 48 28q0 36 -77 36q-11 0 -27 -3l-23 42l89 76q-106 7 -166 70.5t-60 164.5q0 113 72 183t186 70q95 0 149.5 -46.5t54.5 -105.5q0 -39 -21 -62.5t-59 -23.5q-35 0 -55 20.5t-20 50.5q0 23 12.5 39.5t29.5 23.5
q-25 32 -77 32q-51 0 -83 -45.5t-32 -124.5q0 -75 30.5 -118.5t87.5 -43.5q80 0 110 86h78q-15 -66 -54.5 -109.5t-102.5 -56.5l-53 -54l1 -4q57 -6 85.5 -30t28.5 -58q0 -45 -35.5 -71.5t-98.5 -26.5z" />
    <glyph glyph-name="egrave" unicode="&#xe8;" horiz-adv-x="528" 
d="M499 215h-319q4 -79 35 -112t89 -33q83 0 112 82h78q-30 -162 -215 -162q-116 0 -183.5 65.5t-67.5 174.5q0 107 70 178t176 71q115 0 172.5 -73t52.5 -191zM322 535h-65l-74 66q-32 27 -45.5 46.5t-13.5 43.5t18.5 42t44.5 18q33 0 52 -24t39 -76zM271 411
q-41 0 -63.5 -30.5t-26.5 -102.5h175q-4 71 -24 102t-61 31z" />
    <glyph glyph-name="eacute" unicode="&#xe9;" horiz-adv-x="528" 
d="M499 215h-319q4 -79 35 -112t89 -33q83 0 112 82h78q-30 -162 -215 -162q-116 0 -183.5 65.5t-67.5 174.5q0 107 70 178t176 71q115 0 172.5 -73t52.5 -191zM234 535l44 116q20 52 39 76t52 24q26 0 44.5 -18t18.5 -42t-13.5 -43t-44.5 -47l-75 -66h-65zM271 411
q-41 0 -63.5 -30.5t-26.5 -102.5h175q-4 71 -24 102t-61 31z" />
    <glyph glyph-name="ecircumflex" unicode="&#xea;" horiz-adv-x="528" 
d="M499 215h-319q4 -79 35 -112t89 -33q83 0 112 82h78q-30 -162 -215 -162q-116 0 -183.5 65.5t-67.5 174.5q0 107 70 178t176 71q115 0 172.5 -73t52.5 -191zM112 535l124 197h81l122 -197h-85l-80 86l-77 -86h-85zM271 411q-41 0 -63.5 -30.5t-26.5 -102.5h175
q-4 71 -24 102t-61 31z" />
    <glyph glyph-name="edieresis" unicode="&#xeb;" horiz-adv-x="528" 
d="M499 215h-319q4 -79 35 -112t89 -33q83 0 112 82h78q-30 -162 -215 -162q-116 0 -183.5 65.5t-67.5 174.5q0 107 70 178t176 71q115 0 172.5 -73t52.5 -191zM175 538q-34 0 -56 21.5t-22 54.5t22.5 55.5t55.5 22.5q34 0 56 -21.5t22 -54.5t-22 -55.5t-56 -22.5zM376 538
q-34 0 -56 21.5t-22 54.5t22.5 55.5t55.5 22.5q34 0 55.5 -21.5t21.5 -54.5t-22 -55.5t-55 -22.5zM271 411q-41 0 -63.5 -30.5t-26.5 -102.5h175q-4 71 -24 102t-61 31z" />
    <glyph glyph-name="igrave" unicode="&#xec;" horiz-adv-x="345" 
d="M31 0v83h76v302h-76v83h222v-385h76v-83h-298zM208 535h-65l-74 66q-32 27 -45.5 46.5t-13.5 43.5t18.5 42t44.5 18q33 0 52 -24t39 -76z" />
    <glyph glyph-name="iacute" unicode="&#xed;" horiz-adv-x="345" 
d="M120 535l44 116q20 52 39 76t52 24q26 0 44.5 -18t18.5 -42t-13.5 -43t-44.5 -47l-75 -66h-65zM31 0v83h76v302h-76v83h222v-385h76v-83h-298z" />
    <glyph glyph-name="icircumflex" unicode="&#xee;" horiz-adv-x="345" 
d="M-1 535l124 197h81l122 -197h-85l-80 86l-77 -86h-85zM31 0v83h76v302h-76v83h222v-385h76v-83h-298z" />
    <glyph glyph-name="idieresis" unicode="&#xef;" horiz-adv-x="345" 
d="M263 538q-34 0 -56 21.5t-22 54.5t22.5 55.5t55.5 22.5q34 0 55.5 -21.5t21.5 -54.5t-22 -55.5t-55 -22.5zM62 538q-34 0 -56 21.5t-22 54.5t22.5 55.5t55.5 22.5q34 0 56 -21.5t22 -54.5t-22 -55.5t-56 -22.5zM31 0v83h76v302h-76v83h222v-385h76v-83h-298z" />
    <glyph glyph-name="eth" unicode="&#xf0;" horiz-adv-x="568" 
d="M505 619l-86 -33q116 -134 116 -298q0 -145 -71 -221.5t-189 -76.5q-113 0 -180 65t-67 172q0 104 56.5 167.5t147.5 63.5q98 0 141 -71q-12 79 -62 159l-123 -47l-22 60l107 40q-32 40 -75 80l103 16q48 -38 70 -59l112 42zM282 58q47 0 68.5 39.5t21.5 126.5
q0 86 -24 122.5t-75 36.5q-45 0 -66 -37t-21 -123q0 -88 23.5 -126.5t72.5 -38.5z" />
    <glyph glyph-name="ntilde" unicode="&#xf1;" horiz-adv-x="630" 
d="M29 0v83h69v302h-69v83h206v-123q56 133 170 133q73 0 108 -44t35 -121v-230h67v-83h-267v83h53v210q0 50 -21 71q-18 16 -46 16q-36 0 -63 -32.5t-27 -81.5v-183h52v-83h-267zM144 532q7 84 31.5 122.5t80.5 38.5q32 0 84 -24t68 -24q14 0 21.5 12t12.5 42h66
q-6 -84 -31 -122.5t-81 -38.5q-32 0 -84 24t-68 24q-13 0 -21 -12.5t-13 -41.5h-66z" />
    <glyph glyph-name="ograve" unicode="&#xf2;" 
d="M281 -10q-112 0 -182.5 67t-70.5 175q0 107 72.5 177t181.5 70q111 0 181.5 -67t70.5 -175t-72 -177.5t-181 -69.5zM284 58q48 0 69 41.5t21 135.5q0 93 -23.5 134.5t-72.5 41.5q-47 0 -68.5 -41.5t-21.5 -135.5q0 -93 23.5 -134.5t72.5 -41.5zM326 535h-65l-74 66
q-32 27 -45.5 46.5t-13.5 43.5t18.5 42t44.5 18q33 0 52 -24t39 -76z" />
    <glyph glyph-name="oacute" unicode="&#xf3;" 
d="M238 535l44 116q20 52 39 76t52 24q26 0 44.5 -18t18.5 -42t-13.5 -43t-44.5 -47l-75 -66h-65zM281 -10q-112 0 -182.5 67t-70.5 175q0 107 72.5 177t181.5 70q111 0 181.5 -67t70.5 -175t-72 -177.5t-181 -69.5zM284 58q48 0 69 41.5t21 135.5q0 93 -23.5 134.5
t-72.5 41.5q-47 0 -68.5 -41.5t-21.5 -135.5q0 -93 23.5 -134.5t72.5 -41.5z" />
    <glyph glyph-name="ocircumflex" unicode="&#xf4;" 
d="M117 535l124 197h81l122 -197h-85l-80 86l-77 -86h-85zM281 -10q-112 0 -182.5 67t-70.5 175q0 107 72.5 177t181.5 70q111 0 181.5 -67t70.5 -175t-72 -177.5t-181 -69.5zM284 58q48 0 69 41.5t21 135.5q0 93 -23.5 134.5t-72.5 41.5q-47 0 -68.5 -41.5t-21.5 -135.5
q0 -93 23.5 -134.5t72.5 -41.5z" />
    <glyph glyph-name="otilde" unicode="&#xf5;" 
d="M281 -10q-112 0 -182.5 67t-70.5 175q0 107 72.5 177t181.5 70q111 0 181.5 -67t70.5 -175t-72 -177.5t-181 -69.5zM284 58q48 0 69 41.5t21 135.5q0 93 -23.5 134.5t-72.5 41.5q-47 0 -68.5 -41.5t-21.5 -135.5q0 -93 23.5 -134.5t72.5 -41.5zM99 532q7 84 31.5 122.5
t80.5 38.5q32 0 84 -24t68 -24q14 0 21.5 12t12.5 42h66q-6 -84 -31 -122.5t-81 -38.5q-32 0 -84 24t-68 24q-13 0 -21 -12.5t-13 -41.5h-66z" />
    <glyph glyph-name="odieresis" unicode="&#xf6;" 
d="M381 538q-34 0 -56 21.5t-22 54.5t22.5 55.5t55.5 22.5q34 0 55.5 -21.5t21.5 -54.5t-22 -55.5t-55 -22.5zM180 538q-34 0 -56 21.5t-22 54.5t22.5 55.5t55.5 22.5q34 0 56 -21.5t22 -54.5t-22 -55.5t-56 -22.5zM281 -10q-112 0 -182.5 67t-70.5 175q0 107 72.5 177
t181.5 70q111 0 181.5 -67t70.5 -175t-72 -177.5t-181 -69.5zM284 58q48 0 69 41.5t21 135.5q0 93 -23.5 134.5t-72.5 41.5q-47 0 -68.5 -41.5t-21.5 -135.5q0 -93 23.5 -134.5t72.5 -41.5z" />
    <glyph glyph-name="divide" unicode="&#xf7;" horiz-adv-x="519" 
d="M261 521q31 0 53 -21.5t22 -51.5t-22.5 -52t-54.5 -22q-31 0 -53 21.5t-22 51.5q0 31 22.5 52.5t54.5 21.5zM478 245h-437v80h437v-80zM261 195q31 0 53 -21.5t22 -51.5q0 -31 -22.5 -52.5t-54.5 -21.5q-31 0 -53 21.5t-22 51.5t22.5 52t54.5 22z" />
    <glyph glyph-name="oslash" unicode="&#xf8;" 
d="M115 -28h-88l70 87q-69 67 -69 176q0 106 72.5 175t179.5 69q73 0 130 -31l38 49h87l-70 -89q69 -69 69 -174q0 -106 -72 -175t-180 -69q-71 0 -129 30zM284 55q51 0 74.5 43t23.5 137q0 41 -5 76l-168 -223q22 -33 75 -33zM181 234q0 -48 4 -76l169 222q-23 33 -76 33
q-51 0 -74 -42.5t-23 -136.5z" />
    <glyph glyph-name="ugrave" unicode="&#xf9;" horiz-adv-x="619" 
d="M224 -9q-71 0 -105.5 44t-34.5 120v230h-68v83h214v-293q0 -49 21 -71q16 -16 45 -16q35 0 61.5 33t26.5 82v182h-69v83h215v-385h68v-83h-205v123q-56 -132 -169 -132zM342 535h-65l-74 66q-32 27 -45.5 46.5t-13.5 43.5t18.5 42t44.5 18q33 0 52 -24t39 -76z" />
    <glyph glyph-name="uacute" unicode="&#xfa;" horiz-adv-x="619" 
d="M254 535l44 116q20 52 39 76t52 24q26 0 44.5 -18t18.5 -42t-13.5 -43t-44.5 -47l-75 -66h-65zM224 -9q-71 0 -105.5 44t-34.5 120v230h-68v83h214v-293q0 -49 21 -71q16 -16 45 -16q35 0 61.5 33t26.5 82v182h-69v83h215v-385h68v-83h-205v123q-56 -132 -169 -132z" />
    <glyph glyph-name="ucircumflex" unicode="&#xfb;" horiz-adv-x="619" 
d="M132 535l124 197h81l122 -197h-85l-80 86l-77 -86h-85zM224 -9q-71 0 -105.5 44t-34.5 120v230h-68v83h214v-293q0 -49 21 -71q16 -16 45 -16q35 0 61.5 33t26.5 82v182h-69v83h215v-385h68v-83h-205v123q-56 -132 -169 -132z" />
    <glyph glyph-name="udieresis" unicode="&#xfc;" horiz-adv-x="619" 
d="M396 538q-34 0 -56 21.5t-22 54.5t22.5 55.5t55.5 22.5q34 0 55.5 -21.5t21.5 -54.5t-22 -55.5t-55 -22.5zM195 538q-34 0 -56 21.5t-22 54.5t22.5 55.5t55.5 22.5q34 0 56 -21.5t22 -54.5t-22 -55.5t-56 -22.5zM224 -9q-71 0 -105.5 44t-34.5 120v230h-68v83h214v-293
q0 -49 21 -71q16 -16 45 -16q35 0 61.5 33t26.5 82v182h-69v83h215v-385h68v-83h-205v123q-56 -132 -169 -132z" />
    <glyph glyph-name="yacute" unicode="&#xfd;" 
d="M89 14q36 0 55.5 -23.5t19.5 -55.5q0 -21 -8 -37q32 4 53 23.5t42 70.5l-188 393h-62v83h293v-83h-71l105 -245l94 245h-59v83h205v-83h-57l-160 -372q-40 -94 -87 -140.5t-123 -46.5q-62 0 -95.5 28.5t-33.5 75.5q0 36 21.5 60t55.5 24zM259 535l44 116q20 52 39 76
t52 24q26 0 44.5 -18t18.5 -42t-13.5 -43t-44.5 -47l-75 -66h-65z" />
    <glyph glyph-name="thorn" unicode="&#xfe;" horiz-adv-x="580" 
d="M3 -161v83h68v683h-68v85h215v-315q49 104 149 104q71 0 119 -48q64 -64 64 -196q0 -117 -67 -186q-49 -49 -123 -49q-101 0 -142 77v-155h86v-83h-301zM312 78q81 0 81 158q0 150 -84 150q-47 0 -73.5 -44t-26.5 -112t27.5 -110t75.5 -42z" />
    <glyph glyph-name="ydieresis" unicode="&#xff;" 
d="M89 14q36 0 55.5 -23.5t19.5 -55.5q0 -21 -8 -37q32 4 53 23.5t42 70.5l-188 393h-62v83h293v-83h-71l105 -245l94 245h-59v83h205v-83h-57l-160 -372q-40 -94 -87 -140.5t-123 -46.5q-62 0 -95.5 28.5t-33.5 75.5q0 36 21.5 60t55.5 24zM201 538q-34 0 -56 21.5
t-22 54.5t22.5 55.5t55.5 22.5q34 0 56 -21.5t22 -54.5t-22 -55.5t-56 -22.5zM402 538q-34 0 -56 21.5t-22 54.5t22.5 55.5t55.5 22.5q34 0 55.5 -21.5t21.5 -54.5t-22 -55.5t-55 -22.5z" />
    <glyph glyph-name="Amacron" unicode="&#x100;" horiz-adv-x="734" 
d="M476 87l-42 123h-225l-42 -123h83v-87h-253v87h72l212 575h164l209 -575h78v-87h-345v87h89zM215 734v98h299v-98h-299zM321 535l-85 -246h172l-83 246h-4z" />
    <glyph glyph-name="amacron" unicode="&#x101;" horiz-adv-x="548" 
d="M172 -9q-63 0 -103 34t-40 90q0 48 33 81q47 47 194 66q42 6 51 9t9 12v41q0 44 -21 63t-65 19q-32 0 -60 -12q24 -18 24 -51q0 -26 -20 -44t-51 -18q-36 0 -56 20t-20 50q0 61 64.5 94t157.5 33q191 0 191 -163v-213q0 -16 6 -22t19 -6q19 0 31 45l49 -16
q-14 -58 -43.5 -85t-79.5 -27q-45 0 -74.5 24.5t-35.5 74.5h-5q-42 -99 -155 -99zM240 76q34 0 55 28.5t21 73.5v46q-4 -1 -17.5 -3t-27.5 -5q-52 -9 -72.5 -27t-20.5 -53q0 -26 15.5 -43t46.5 -17zM118 540v98h299v-98h-299z" />
    <glyph glyph-name="Abreve" unicode="&#x102;" horiz-adv-x="734" 
d="M476 87l-42 123h-225l-42 -123h83v-87h-253v87h72l212 575h164l209 -575h78v-87h-345v87h89zM364 727q-75 0 -115.5 46.5t-39.5 137.5h69q13 -85 87 -85q73 0 86 85h69q1 -91 -39.5 -137.5t-116.5 -46.5zM321 535l-85 -246h172l-83 246h-4z" />
    <glyph glyph-name="abreve" unicode="&#x103;" horiz-adv-x="548" 
d="M172 -9q-63 0 -103 34t-40 90q0 48 33 81q47 47 194 66q42 6 51 9t9 12v41q0 44 -21 63t-65 19q-32 0 -60 -12q24 -18 24 -51q0 -26 -20 -44t-51 -18q-36 0 -56 20t-20 50q0 61 64.5 94t157.5 33q191 0 191 -163v-213q0 -16 6 -22t19 -6q19 0 31 45l49 -16
q-14 -58 -43.5 -85t-79.5 -27q-45 0 -74.5 24.5t-35.5 74.5h-5q-42 -99 -155 -99zM240 76q34 0 55 28.5t21 73.5v46q-4 -1 -17.5 -3t-27.5 -5q-52 -9 -72.5 -27t-20.5 -53q0 -26 15.5 -43t46.5 -17zM267 533q-75 0 -115.5 46.5t-39.5 137.5h69q13 -85 87 -85q73 0 86 85h69
q1 -91 -39.5 -137.5t-116.5 -46.5z" />
    <glyph glyph-name="Aogonek" unicode="&#x104;" horiz-adv-x="734" 
d="M567 -250q-58 0 -90 28.5t-32 71.5t25 75t81 72l4 3h-168v87h89l-42 123h-225l-42 -123h83v-87h-253v87h72l212 575h164l209 -575h78v-87h-89l-13 -12q-73 -67 -73 -112q0 -23 14.5 -36.5t40.5 -13.5t59 19l24 -52q-66 -43 -128 -43zM321 535l-85 -246h172l-83 246h-4z
" />
    <glyph glyph-name="aogonek" unicode="&#x105;" horiz-adv-x="548" 
d="M426 -250q-58 0 -90 28.5t-32 71.5q0 42 23.5 74t78.5 72q-65 17 -74 94h-5q-42 -99 -155 -99q-63 0 -103 34t-40 90q0 52 40 86q26 22 68 36.5t124 25.5q48 7 55 15v46q0 44 -21 63t-65 19q-32 0 -60 -12q24 -18 24 -51q0 -26 -20 -44t-51 -18q-36 0 -56 20t-20 50
q0 61 64.5 94t157.5 33q191 0 191 -163v-213q0 -16 6 -22t19 -6q19 0 31 45l49 -16q-13 -60 -52 -94q-58 -49 -77.5 -78.5t-19.5 -54.5q0 -50 54 -50q27 0 60 19l23 -52q-66 -43 -127 -43zM240 76q34 0 55 28.5t21 73.5v46q-3 -1 -9 -2t-16 -2.5t-20 -3.5q-52 -9 -72.5 -27
t-20.5 -53q0 -26 15.5 -43t46.5 -17z" />
    <glyph glyph-name="Cacute" unicode="&#x106;" horiz-adv-x="695" 
d="M318 729l44 116q20 52 39 76t52 24q26 0 44.5 -18t18.5 -42t-13.5 -43t-44.5 -47l-75 -66h-65zM373 -16q-153 0 -245 94t-92 247q0 151 93 250t225 99q123 0 187 -78l21 76h90v-262h-99q-30 92 -73.5 137t-105.5 45q-160 0 -160 -257t182 -257q72 0 116 49.5t57 135.5h96
q-13 -131 -87.5 -205t-204.5 -74z" />
    <glyph glyph-name="cacute" unicode="&#x107;" horiz-adv-x="513" 
d="M237 535l44 116q20 52 39 76t52 24q26 0 44.5 -18t18.5 -42t-13.5 -43t-44.5 -47l-75 -66h-65zM281 -10q-118 0 -185.5 64.5t-67.5 171.5q0 113 72 183t186 70q95 0 149.5 -46.5t54.5 -105.5q0 -39 -21 -62.5t-59 -23.5q-35 0 -55 20.5t-20 50.5q0 23 12.5 39.5
t29.5 23.5q-25 32 -77 32q-51 0 -83 -45.5t-32 -124.5q0 -75 30.5 -118.5t87.5 -43.5q80 0 110 86h78q-17 -79 -70.5 -125t-139.5 -46z" />
    <glyph glyph-name="Cdotaccent" unicode="&#x10a;" horiz-adv-x="695" 
d="M373 -16q-153 0 -245 94t-92 247q0 151 93 250t225 99q123 0 187 -78l21 76h90v-262h-99q-30 92 -73.5 137t-105.5 45q-160 0 -160 -257t182 -257q72 0 116 49.5t57 135.5h96q-13 -131 -87.5 -205t-204.5 -74zM360 726q-37 0 -61 22.5t-24 56.5q0 35 24 58.5t61 23.5
q38 0 62 -22.5t24 -56.5q0 -35 -24.5 -58.5t-61.5 -23.5z" />
    <glyph glyph-name="cdotaccent" unicode="&#x10b;" horiz-adv-x="513" 
d="M281 -10q-118 0 -185.5 64.5t-67.5 171.5q0 113 72 183t186 70q95 0 149.5 -46.5t54.5 -105.5q0 -39 -21 -62.5t-59 -23.5q-35 0 -55 20.5t-20 50.5q0 23 12.5 39.5t29.5 23.5q-25 32 -77 32q-51 0 -83 -45.5t-32 -124.5q0 -75 30.5 -118.5t87.5 -43.5q80 0 110 86h78
q-17 -79 -70.5 -125t-139.5 -46zM278 532q-37 0 -61 22.5t-24 56.5q0 35 24 58.5t61 23.5q38 0 62 -22.5t24 -56.5q0 -35 -24.5 -58.5t-61.5 -23.5z" />
    <glyph glyph-name="Ccaron" unicode="&#x10c;" horiz-adv-x="695" 
d="M320 732l-122 197h85l80 -86l77 86h85l-124 -197h-81zM373 -16q-153 0 -245 94t-92 247q0 151 93 250t225 99q123 0 187 -78l21 76h90v-262h-99q-30 92 -73.5 137t-105.5 45q-160 0 -160 -257t182 -257q72 0 116 49.5t57 135.5h96q-13 -131 -87.5 -205t-204.5 -74z" />
    <glyph glyph-name="ccaron" unicode="&#x10d;" horiz-adv-x="513" 
d="M238 538l-122 197h85l80 -86l77 86h85l-124 -197h-81zM281 -10q-118 0 -185.5 64.5t-67.5 171.5q0 113 72 183t186 70q95 0 149.5 -46.5t54.5 -105.5q0 -39 -21 -62.5t-59 -23.5q-35 0 -55 20.5t-20 50.5q0 23 12.5 39.5t29.5 23.5q-25 32 -77 32q-51 0 -83 -45.5
t-32 -124.5q0 -75 30.5 -118.5t87.5 -43.5q80 0 110 86h78q-17 -79 -70.5 -125t-139.5 -46z" />
    <glyph glyph-name="Dcaron" unicode="&#x10e;" horiz-adv-x="751" 
d="M348 732l-122 197h85l80 -86l77 86h85l-124 -197h-81zM27 0v87h90v484h-90v87h295q195 0 294 -87t99 -238q0 -152 -97.5 -242.5t-289.5 -90.5h-301zM280 85h57q110 0 155 55t45 192q0 130 -47.5 185.5t-159.5 55.5h-50v-488z" />
    <glyph glyph-name="dcaron" unicode="&#x10f;" horiz-adv-x="594" 
d="M631 541h-52q-9 111 -9 162q-1 93 66 93q25 0 43 -18t18 -46q0 -27 -28 -92zM214 -10q-72 0 -121 49q-64 64 -64 193q0 131 68 197q48 50 123 50q92 0 141 -80v206h-72v85h218v-607h67v-83h-204v98q-47 -108 -156 -108zM275 76q43 0 69 44t26 114t-23.5 113.5t-71.5 43.5
q-89 0 -89 -160q0 -155 89 -155z" />
    <glyph glyph-name="Dcroat" unicode="&#x110;" horiz-adv-x="751" 
d="M27 0v87h90v215h-90v82h90v187h-90v87h295q195 0 294 -87t99 -238q0 -152 -97.5 -242.5t-289.5 -90.5h-301zM280 85h57q110 0 155 55t45 192q0 130 -47.5 185.5t-159.5 55.5h-50v-189h132v-82h-132v-217z" />
    <glyph glyph-name="dcroat" unicode="&#x111;" horiz-adv-x="594" 
d="M214 -10q-72 0 -121 49q-64 64 -64 189q0 128 68 194q48 50 123 50q92 0 141 -80v111h-118v65h118v46h-72v76h218v-122h67v-65h-67v-420h67v-83h-204v98q-47 -108 -156 -108zM275 76q43 0 69 43.5t26 111.5t-23.5 110.5t-71.5 42.5q-89 0 -89 -157q0 -151 89 -151z" />
    <glyph glyph-name="Emacron" unicode="&#x112;" horiz-adv-x="707" 
d="M27 0v87h90v484h-90v87h626v-234h-87q-19 96 -40.5 122.5t-83.5 26.5h-162v-199h54q41 0 52.5 15t22.5 77h78v-267h-78q-9 62 -21.5 78t-53.5 16h-54v-208h158q72 0 95 32t42 143h87v-260h-635zM226 734v98h299v-98h-299z" />
    <glyph glyph-name="emacron" unicode="&#x113;" horiz-adv-x="528" 
d="M499 215h-319q4 -79 35 -112t89 -33q83 0 112 82h78q-30 -162 -215 -162q-116 0 -183.5 65.5t-67.5 174.5q0 107 70 178t176 71q115 0 172.5 -73t52.5 -191zM127 540v98h299v-98h-299zM271 411q-41 0 -63.5 -30.5t-26.5 -102.5h175q-4 71 -24 102t-61 31z" />
    <glyph glyph-name="Ebreve" unicode="&#x114;" horiz-adv-x="707" 
d="M27 0v87h90v484h-90v87h626v-234h-87q-19 96 -40.5 122.5t-83.5 26.5h-162v-199h54q41 0 52.5 15t22.5 77h78v-267h-78q-9 62 -21.5 78t-53.5 16h-54v-208h158q72 0 95 32t42 143h87v-260h-635zM375 727q-75 0 -115.5 46.5t-39.5 137.5h69q13 -85 87 -85q73 0 86 85h69
q1 -91 -39.5 -137.5t-116.5 -46.5z" />
    <glyph glyph-name="ebreve" unicode="&#x115;" horiz-adv-x="528" 
d="M499 215h-319q4 -79 35 -112t89 -33q83 0 112 82h78q-30 -162 -215 -162q-116 0 -183.5 65.5t-67.5 174.5q0 107 70 178t176 71q115 0 172.5 -73t52.5 -191zM275 533q-75 0 -115.5 46.5t-39.5 137.5h69q13 -85 87 -85q73 0 86 85h69q1 -91 -39.5 -137.5t-116.5 -46.5z
M271 411q-41 0 -63.5 -30.5t-26.5 -102.5h175q-4 71 -24 102t-61 31z" />
    <glyph glyph-name="Edotaccent" unicode="&#x116;" horiz-adv-x="707" 
d="M27 0v87h90v484h-90v87h626v-234h-87q-19 96 -40.5 122.5t-83.5 26.5h-162v-199h54q41 0 52.5 15t22.5 77h78v-267h-78q-9 62 -21.5 78t-53.5 16h-54v-208h158q72 0 95 32t42 143h87v-260h-635zM375 726q-37 0 -61 22.5t-24 56.5q0 35 24 58.5t61 23.5q38 0 62 -22.5
t24 -56.5q0 -35 -24.5 -58.5t-61.5 -23.5z" />
    <glyph glyph-name="edotaccent" unicode="&#x117;" horiz-adv-x="528" 
d="M499 215h-319q4 -79 35 -112t89 -33q83 0 112 82h78q-30 -162 -215 -162q-116 0 -183.5 65.5t-67.5 174.5q0 107 70 178t176 71q115 0 172.5 -73t52.5 -191zM275 532q-37 0 -61 22.5t-24 56.5q0 35 24 58.5t61 23.5q38 0 62 -22.5t24 -56.5q0 -35 -24.5 -58.5
t-61.5 -23.5zM271 411q-41 0 -63.5 -30.5t-26.5 -102.5h175q-4 71 -24 102t-61 31z" />
    <glyph glyph-name="Eogonek" unicode="&#x118;" horiz-adv-x="707" 
d="M27 0v87h90v484h-90v87h626v-234h-87q-19 96 -40.5 122.5t-83.5 26.5h-162v-199h54q41 0 52.5 15t22.5 77h78v-267h-78q-9 62 -21.5 78t-53.5 16h-54v-208h158q72 0 95 32t42 143h87v-260h-62l-13 -12q-73 -67 -73 -112q0 -23 14.5 -36.5t40.5 -13.5t59 19l24 -52
q-66 -43 -128 -43q-58 0 -90 28.5t-32 71.5t25 75t81 72l4 3h-485z" />
    <glyph glyph-name="eogonek" unicode="&#x119;" horiz-adv-x="528" 
d="M499 215h-319q4 -79 35 -112t89 -33q83 0 112 82h78q-9 -45 -28.5 -76.5t-55.5 -64.5l-25 -25q-72 -66 -72 -110q0 -50 55 -50q26 0 59 19l24 -52q-66 -43 -128 -43q-58 0 -90 28.5t-32 71.5q0 38 20 67.5t63 63.5l11 9h-7q-123 0 -191.5 66t-68.5 174q0 107 70 178
t176 71q115 0 172.5 -73t52.5 -191zM271 411q-41 0 -63.5 -30.5t-26.5 -102.5h175q-4 71 -24 102t-61 31z" />
    <glyph glyph-name="Ecaron" unicode="&#x11a;" horiz-adv-x="707" 
d="M335 732l-122 197h85l80 -86l77 86h85l-124 -197h-81zM27 0v87h90v484h-90v87h626v-234h-87q-19 96 -40.5 122.5t-83.5 26.5h-162v-199h54q41 0 52.5 15t22.5 77h78v-267h-78q-9 62 -21.5 78t-53.5 16h-54v-208h158q72 0 95 32t42 143h87v-260h-635z" />
    <glyph glyph-name="ecaron" unicode="&#x11b;" horiz-adv-x="528" 
d="M499 215h-319q4 -79 35 -112t89 -33q83 0 112 82h78q-30 -162 -215 -162q-116 0 -183.5 65.5t-67.5 174.5q0 107 70 178t176 71q115 0 172.5 -73t52.5 -191zM235 538l-122 197h85l80 -86l77 86h85l-124 -197h-81zM271 411q-41 0 -63.5 -30.5t-26.5 -102.5h175
q-4 71 -24 102t-61 31z" />
    <glyph glyph-name="Gbreve" unicode="&#x11e;" horiz-adv-x="751" 
d="M536 91q-56 -107 -184 -107q-138 0 -227 96t-89 248q0 147 95.5 246.5t225.5 99.5q120 0 183 -82l21 80h91v-256h-111q-29 90 -69 133t-98 43q-73 0 -116.5 -63.5t-43.5 -193.5q0 -125 42 -193t123 -68q57 0 92 44q32 38 32 118v18h-110v87h347v-87h-76v-262h-90z
M365 727q-75 0 -115.5 46.5t-39.5 137.5h69q13 -85 87 -85q73 0 86 85h69q1 -91 -39.5 -137.5t-116.5 -46.5z" />
    <glyph glyph-name="gbreve" unicode="&#x11f;" horiz-adv-x="521" 
d="M453 329q0 -73 -52.5 -112t-149.5 -39q-10 0 -32.5 1t-31.5 1q-21 0 -34.5 -9.5t-13.5 -23.5q0 -33 72 -33h129q89 0 131 -33.5t42 -91.5q0 -75 -71 -119t-217 -44q-111 0 -165.5 27t-54.5 75q0 35 29 58.5t82 30.5v5q-41 9 -63 32.5t-22 53.5q0 36 32.5 64t84.5 34
q-108 27 -108 124q0 66 54.5 107.5t149.5 41.5q49 0 85 -10q18 50 52.5 78t81.5 28q42 0 63.5 -20.5t21.5 -50.5q0 -27 -17 -44.5t-46 -17.5q-26 0 -41.5 15t-15.5 38q0 2 0.5 6.5t0.5 6.5q-34 -3 -54 -56q78 -39 78 -123zM241 547q-75 0 -115.5 46.5t-39.5 137.5h69
q13 -85 87 -85q73 0 86 85h69q1 -91 -39.5 -137.5t-116.5 -46.5zM241 -107q142 0 142 63q0 41 -79 41h-120q-40 0 -60.5 -13.5t-20.5 -35.5q0 -55 138 -55zM249 228q63 0 63 98q0 99 -68 99q-64 0 -64 -99q0 -98 69 -98z" />
    <glyph glyph-name="Gdotaccent" unicode="&#x120;" horiz-adv-x="751" 
d="M536 91q-56 -107 -184 -107q-138 0 -227 96t-89 248q0 147 95.5 246.5t225.5 99.5q120 0 183 -82l21 80h91v-256h-111q-29 90 -69 133t-98 43q-73 0 -116.5 -63.5t-43.5 -193.5q0 -125 42 -193t123 -68q57 0 92 44q32 38 32 118v18h-110v87h347v-87h-76v-262h-90z
M365 726q-37 0 -61 22.5t-24 56.5q0 35 24 58.5t61 23.5q38 0 62 -22.5t24 -56.5q0 -35 -24.5 -58.5t-61.5 -23.5z" />
    <glyph glyph-name="gdotaccent" unicode="&#x121;" horiz-adv-x="521" 
d="M453 329q0 -73 -52.5 -112t-149.5 -39q-10 0 -32.5 1t-31.5 1q-21 0 -34.5 -9.5t-13.5 -23.5q0 -33 72 -33h129q89 0 131 -33.5t42 -91.5q0 -75 -71 -119t-217 -44q-111 0 -165.5 27t-54.5 75q0 35 29 58.5t82 30.5v5q-41 9 -63 32.5t-22 53.5q0 36 32.5 64t84.5 34
q-108 27 -108 124q0 66 54.5 107.5t149.5 41.5q49 0 85 -10q18 50 52.5 78t81.5 28q42 0 63.5 -20.5t21.5 -50.5q0 -27 -17 -44.5t-46 -17.5q-26 0 -41.5 15t-15.5 38q0 2 0.5 6.5t0.5 6.5q-34 -3 -54 -56q78 -39 78 -123zM241 -107q142 0 142 63q0 41 -79 41h-120
q-40 0 -60.5 -13.5t-20.5 -35.5q0 -55 138 -55zM238 539q-37 0 -61 22.5t-24 56.5q0 35 24 58.5t61 23.5q38 0 62 -22.5t24 -56.5q0 -35 -24.5 -58.5t-61.5 -23.5zM249 228q63 0 63 98q0 99 -68 99q-64 0 -64 -99q0 -98 69 -98z" />
    <glyph glyph-name="Gcommaaccent" unicode="&#x122;" horiz-adv-x="751" 
d="M286 -365l-21 47q103 47 113 115l-7 4q-14 -16 -37 -16q-27 0 -45 19t-18 50q0 34 23.5 58.5t59.5 24.5q43 0 69 -30t26 -81q0 -134 -163 -191zM536 91q-56 -107 -184 -107q-138 0 -227 96t-89 248q0 147 95.5 246.5t225.5 99.5q120 0 183 -82l21 80h91v-256h-111
q-29 90 -69 133t-98 43q-73 0 -116.5 -63.5t-43.5 -193.5q0 -125 42 -193t123 -68q57 0 92 44q32 38 32 118v18h-110v87h347v-87h-76v-262h-90z" />
    <glyph glyph-name="gcommaaccent" unicode="&#x123;" horiz-adv-x="521" 
d="M453 329q0 -73 -52.5 -112t-149.5 -39q-10 0 -32.5 1t-31.5 1q-21 0 -34.5 -9.5t-13.5 -23.5q0 -33 72 -33h129q89 0 131 -33.5t42 -91.5q0 -75 -71 -119t-217 -44q-111 0 -165.5 27t-54.5 75q0 35 29 58.5t82 30.5v5q-41 9 -63 32.5t-22 53.5q0 36 32.5 64t84.5 34
q-108 27 -108 124q0 66 54.5 107.5t149.5 41.5q49 0 85 -10q18 50 52.5 78t81.5 28q42 0 63.5 -20.5t21.5 -50.5q0 -27 -17 -44.5t-46 -17.5q-26 0 -41.5 15t-15.5 38q0 2 0.5 6.5t0.5 6.5q-34 -3 -54 -56q78 -39 78 -123zM314 841l21 -47q-103 -47 -113 -115l7 -4
q14 16 37 16q27 0 45 -19t18 -50q0 -34 -23.5 -58.5t-59.5 -24.5q-43 0 -69 30t-26 81q0 134 163 191zM241 -107q142 0 142 63q0 41 -79 41h-120q-40 0 -60.5 -13.5t-20.5 -35.5q0 -55 138 -55zM249 228q63 0 63 98q0 99 -68 99q-64 0 -64 -99q0 -98 69 -98z" />
    <glyph glyph-name="Hbar" unicode="&#x126;" horiz-adv-x="816" 
d="M27 430v78h90v63h-90v87h342v-87h-89v-69h257v69h-90v87h343v-87h-90v-63h90v-78h-90v-343h90v-87h-343v87h90v195h-257v-195h89v-87h-342v87h90v343h-90zM280 367h257v70h-257v-70z" />
    <glyph glyph-name="hbar" unicode="&#x127;" horiz-adv-x="623" 
d="M22 0v83h68v420h-68v65h68v37h-68v85h215v-122h117v-65h-117v-147q58 115 161 115q73 0 108 -44t35 -121v-223h67v-83h-267v83h53v203q0 50 -21 71q-18 16 -47 16q-36 0 -62.5 -32.5t-26.5 -81.5v-176h52v-83h-267z" />
    <glyph glyph-name="Imacron" unicode="&#x12a;" horiz-adv-x="423" 
d="M38 0v87h92v484h-92v87h347v-87h-92v-484h92v-87h-347zM62 734v98h299v-98h-299z" />
    <glyph glyph-name="imacron" unicode="&#x12b;" horiz-adv-x="345" 
d="M31 0v83h76v302h-76v83h222v-385h76v-83h-298zM13 540v98h299v-98h-299z" />
    <glyph glyph-name="Ibreve" unicode="&#x12c;" horiz-adv-x="423" 
d="M38 0v87h92v484h-92v87h347v-87h-92v-484h92v-87h-347zM210 727q-75 0 -115.5 46.5t-39.5 137.5h69q13 -85 87 -85q73 0 86 85h69q1 -91 -39.5 -137.5t-116.5 -46.5z" />
    <glyph glyph-name="ibreve" unicode="&#x12d;" horiz-adv-x="345" 
d="M31 0v83h76v302h-76v83h222v-385h76v-83h-298zM162 533q-75 0 -115.5 46.5t-39.5 137.5h69q13 -85 87 -85q73 0 86 85h69q1 -91 -39.5 -137.5t-116.5 -46.5z" />
    <glyph glyph-name="Iogonek" unicode="&#x12e;" horiz-adv-x="423" 
d="M38 0v87h92v484h-92v87h347v-87h-92v-484h92v-87h-99l-13 -12q-73 -67 -73 -112q0 -23 14.5 -36.5t40.5 -13.5t59 19l24 -52q-66 -43 -128 -43q-58 0 -90 28.5t-32 71.5t25 75t81 72l4 3h-160z" />
    <glyph glyph-name="iogonek" unicode="&#x12f;" horiz-adv-x="345" 
d="M31 0v83h76v302h-76v83h222v-385h76v-83h-75l-13 -12q-73 -67 -73 -112q0 -23 14.5 -36.5t40.5 -13.5t59 19l24 -52q-66 -43 -128 -43q-58 0 -90 28.5t-32 71.5t25 75t81 72l4 3h-135zM173 537q-40 0 -64.5 23t-24.5 60t25 62t64 25q40 0 65 -24t25 -60
q0 -37 -25.5 -61.5t-64.5 -24.5z" />
    <glyph glyph-name="Idotaccent" unicode="&#x130;" horiz-adv-x="423" 
d="M38 0v87h92v484h-92v87h347v-87h-92v-484h92v-87h-347zM210 726q-37 0 -61 22.5t-24 56.5q0 35 24 58.5t61 23.5q38 0 62 -22.5t24 -56.5q0 -35 -24.5 -58.5t-61.5 -23.5z" />
    <glyph glyph-name="dotlessi" unicode="&#x131;" horiz-adv-x="345" 
d="M31 0v83h76v302h-76v83h222v-385h76v-83h-298z" />
    <glyph glyph-name="Kcommaaccent" unicode="&#x136;" horiz-adv-x="751" 
d="M280 222v-136h81v-86h-334v87h90v484h-90v87h338v-86h-85v-246l246 246h-81v86h279v-87h-81l-174 -171l224 -313h71v-87h-334v86h74l-146 212zM309 -365l-21 47q103 47 113 115l-7 4q-14 -16 -37 -16q-27 0 -45 19t-18 50q0 34 23.5 58.5t59.5 24.5q43 0 69 -30t26 -81
q0 -134 -163 -191z" />
    <glyph glyph-name="kcommaaccent" unicode="&#x137;" horiz-adv-x="596" 
d="M494 385l-104 -94l154 -208h50v-83h-257v82h52l-92 131l-60 -54v-77h50v-82h-265v83h68v522h-68v85h215v-449l157 145h-74v82h244v-83h-70zM225 -365l-21 47q103 47 113 115l-7 4q-14 -16 -37 -16q-27 0 -45 19t-18 50q0 34 23.5 58.5t59.5 24.5q43 0 69 -30t26 -81
q0 -134 -163 -191z" />
    <glyph glyph-name="Lacute" unicode="&#x139;" horiz-adv-x="637" 
d="M160 729l44 116q20 52 39 76t52 24q26 0 44.5 -18t18.5 -42t-13.5 -43t-44.5 -47l-75 -66h-65zM27 658h352v-85h-99v-488h112q42 0 63 13t37.5 50t38.5 124h79v-272h-583v87h90v484h-90v87z" />
    <glyph glyph-name="lacute" unicode="&#x13a;" horiz-adv-x="339" 
d="M112 757l44 116q20 52 39 76t52 24q26 0 44.5 -18t18.5 -42t-13.5 -43t-44.5 -47l-75 -66h-65zM20 0v83h76v522h-76v85h223v-607h76v-83h-299z" />
    <glyph glyph-name="Lcommaaccent" unicode="&#x13b;" horiz-adv-x="637" 
d="M254 -365l-21 47q103 47 113 115l-7 4q-14 -16 -37 -16q-27 0 -45 19t-18 50q0 34 23.5 58.5t59.5 24.5q43 0 69 -30t26 -81q0 -134 -163 -191zM27 658h352v-85h-99v-488h112q42 0 63 13t37.5 50t38.5 124h79v-272h-583v87h90v484h-90v87z" />
    <glyph glyph-name="lcommaaccent" unicode="&#x13c;" horiz-adv-x="339" 
d="M95 -365l-21 47q103 47 113 115l-7 4q-14 -16 -37 -16q-27 0 -45 19t-18 50q0 34 23.5 58.5t59.5 24.5q43 0 69 -30t26 -81q0 -134 -163 -191zM20 0v83h76v522h-76v85h223v-607h76v-83h-299z" />
    <glyph glyph-name="Lcaron" unicode="&#x13d;" horiz-adv-x="637" 
d="M497 495h-52q-9 111 -9 162q-1 93 66 93q25 0 43 -18t18 -46q0 -27 -28 -92zM27 658h352v-85h-99v-488h112q42 0 63 13t37.5 50t38.5 124h79v-272h-583v87h90v484h-90v87z" />
    <glyph glyph-name="lcaron" unicode="&#x13e;" horiz-adv-x="339" 
d="M366 527h-52q-9 111 -9 162q-1 93 66 93q25 0 43 -18t18 -46q0 -27 -28 -92zM20 0v83h76v522h-76v85h223v-607h76v-83h-299z" />
    <glyph glyph-name="Ldot" unicode="&#x13f;" horiz-adv-x="637" 
d="M27 658h352v-85h-99v-488h112q59 0 83 27.5t56 134.5h79v-247h-583v87h90v484h-90v87zM498 306q-37 0 -60 22t-23 56t23.5 57t59.5 23q38 0 61 -22t23 -56q0 -33 -24 -56.5t-60 -23.5z" />
    <glyph glyph-name="ldot" unicode="&#x140;" horiz-adv-x="425" 
d="M382 268q-36 0 -58.5 21.5t-22.5 54.5t23 56t58 23q36 0 58.5 -21.5t22.5 -54.5t-22.5 -56t-58.5 -23zM20 0v83h76v522h-76v85h223v-607h76v-83h-299z" />
    <glyph glyph-name="Lslash" unicode="&#x141;" horiz-adv-x="640" 
d="M30 658h352v-85h-99v-185l162 55v-81l-162 -56v-221h112q42 0 63 13t37.5 50t38.5 124h79v-272h-583v87h90v162l-83 -28v83l83 28v239h-90v87z" />
    <glyph glyph-name="lslash" unicode="&#x142;" horiz-adv-x="355" 
d="M28 0v83h76v209l-93 -29v72l93 29v241h-76v85h223v-279l95 31v-72l-95 -31v-256h76v-83h-299z" />
    <glyph glyph-name="Nacute" unicode="&#x143;" horiz-adv-x="786" 
d="M363 729l44 116q20 52 39 76t52 24q26 0 44.5 -18t18.5 -42t-13.5 -43t-44.5 -47l-75 -66h-65zM521 -9l-309 510h-9v-414h90v-87h-265v87h86v484h-86v87h280l279 -460h9v373h-90v87h265v-87h-86v-580h-164z" />
    <glyph glyph-name="nacute" unicode="&#x144;" horiz-adv-x="630" 
d="M284 535l44 116q20 52 39 76t52 24q26 0 44.5 -18t18.5 -42t-13.5 -43t-44.5 -47l-75 -66h-65zM29 0v83h69v302h-69v83h206v-123q56 133 170 133q73 0 108 -44t35 -121v-230h67v-83h-267v83h53v210q0 50 -21 71q-18 16 -46 16q-36 0 -63 -32.5t-27 -81.5v-183h52v-83
h-267z" />
    <glyph glyph-name="Ncommaaccent" unicode="&#x145;" horiz-adv-x="786" 
d="M313 -365l-21 47q103 47 113 115l-7 4q-14 -16 -37 -16q-27 0 -45 19t-18 50q0 34 23.5 58.5t59.5 24.5q43 0 69 -30t26 -81q0 -134 -163 -191zM521 -9l-309 510h-9v-414h90v-87h-265v87h86v484h-86v87h280l279 -460h9v373h-90v87h265v-87h-86v-580h-164z" />
    <glyph glyph-name="ncommaaccent" unicode="&#x146;" horiz-adv-x="630" 
d="M248 -365l-21 47q103 47 113 115l-7 4q-14 -16 -37 -16q-27 0 -45 19t-18 50q0 34 23.5 58.5t59.5 24.5q43 0 69 -30t26 -81q0 -134 -163 -191zM29 0v83h69v302h-69v83h206v-123q56 133 170 133q73 0 108 -44t35 -121v-230h67v-83h-267v83h53v210q0 50 -21 71
q-18 16 -46 16q-36 0 -63 -32.5t-27 -81.5v-183h52v-83h-267z" />
    <glyph glyph-name="Ncaron" unicode="&#x147;" horiz-adv-x="786" 
d="M365 732l-122 197h85l80 -86l77 86h85l-124 -197h-81zM521 -9l-309 510h-9v-414h90v-87h-265v87h86v484h-86v87h280l279 -460h9v373h-90v87h265v-87h-86v-580h-164z" />
    <glyph glyph-name="ncaron" unicode="&#x148;" horiz-adv-x="630" 
d="M285 538l-122 197h85l80 -86l77 86h85l-124 -197h-81zM29 0v83h69v302h-69v83h206v-123q56 133 170 133q73 0 108 -44t35 -121v-230h67v-83h-267v83h53v210q0 50 -21 71q-18 16 -46 16q-36 0 -63 -32.5t-27 -81.5v-183h52v-83h-267z" />
    <glyph glyph-name="Omacron" unicode="&#x14c;" horiz-adv-x="748" 
d="M225 734v98h299v-98h-299zM374 -16q-149 0 -243.5 94.5t-94.5 249.5q0 153 96.5 249.5t241.5 96.5q149 0 243.5 -94.5t94.5 -249.5q0 -153 -96.5 -249.5t-241.5 -96.5zM377 66q80 0 118.5 63.5t38.5 199.5q0 263 -163 263q-80 0 -118.5 -64t-38.5 -199q0 -263 163 -263z
" />
    <glyph glyph-name="omacron" unicode="&#x14d;" 
d="M131 540v98h299v-98h-299zM281 -10q-112 0 -182.5 67t-70.5 175q0 107 72.5 177t181.5 70q111 0 181.5 -67t70.5 -175t-72 -177.5t-181 -69.5zM284 58q48 0 69 41.5t21 135.5q0 93 -23.5 134.5t-72.5 41.5q-47 0 -68.5 -41.5t-21.5 -135.5q0 -93 23.5 -134.5t72.5 -41.5z
" />
    <glyph glyph-name="Obreve" unicode="&#x14e;" horiz-adv-x="748" 
d="M374 -16q-149 0 -243.5 94.5t-94.5 249.5q0 153 96.5 249.5t241.5 96.5q149 0 243.5 -94.5t94.5 -249.5q0 -153 -96.5 -249.5t-241.5 -96.5zM377 66q80 0 118.5 63.5t38.5 199.5q0 263 -163 263q-80 0 -118.5 -64t-38.5 -199q0 -263 163 -263zM373 727q-75 0 -115.5 46.5
t-39.5 137.5h69q13 -85 87 -85q73 0 86 85h69q1 -91 -39.5 -137.5t-116.5 -46.5z" />
    <glyph glyph-name="obreve" unicode="&#x14f;" 
d="M281 -10q-112 0 -182.5 67t-70.5 175q0 107 72.5 177t181.5 70q111 0 181.5 -67t70.5 -175t-72 -177.5t-181 -69.5zM284 58q48 0 69 41.5t21 135.5q0 93 -23.5 134.5t-72.5 41.5q-47 0 -68.5 -41.5t-21.5 -135.5q0 -93 23.5 -134.5t72.5 -41.5zM280 533
q-75 0 -115.5 46.5t-39.5 137.5h69q13 -85 87 -85q73 0 86 85h69q1 -91 -39.5 -137.5t-116.5 -46.5z" />
    <glyph glyph-name="Ohungarumlaut" unicode="&#x150;" horiz-adv-x="748" 
d="M426 729l48 116q21 51 40.5 75.5t50.5 24.5q25 0 42.5 -17.5t17.5 -40.5t-13.5 -42.5t-43.5 -47.5l-74 -68h-68zM253 729l42 116q19 52 36.5 76t49.5 24q26 0 43 -17.5t17 -40.5q0 -24 -12.5 -43.5t-40.5 -46.5l-72 -68h-63zM374 -16q-149 0 -243.5 94.5t-94.5 249.5
q0 153 96.5 249.5t241.5 96.5q149 0 243.5 -94.5t94.5 -249.5q0 -153 -96.5 -249.5t-241.5 -96.5zM377 66q80 0 118.5 63.5t38.5 199.5q0 263 -163 263q-80 0 -118.5 -64t-38.5 -199q0 -263 163 -263z" />
    <glyph glyph-name="ohungarumlaut" unicode="&#x151;" 
d="M333 535l48 116q21 51 40.5 75.5t50.5 24.5q25 0 42.5 -17.5t17.5 -40.5t-13.5 -42.5t-43.5 -47.5l-74 -68h-68zM160 535l42 116q19 52 36.5 76t49.5 24q26 0 43 -17.5t17 -40.5q0 -24 -12.5 -43.5t-40.5 -46.5l-72 -68h-63zM281 -10q-112 0 -182.5 67t-70.5 175
q0 107 72.5 177t181.5 70q111 0 181.5 -67t70.5 -175t-72 -177.5t-181 -69.5zM284 58q48 0 69 41.5t21 135.5q0 93 -23.5 134.5t-72.5 41.5q-47 0 -68.5 -41.5t-21.5 -135.5q0 -93 23.5 -134.5t72.5 -41.5z" />
    <glyph glyph-name="OE" unicode="&#x152;" horiz-adv-x="1063" 
d="M429 0q-195 0 -294 87t-99 238q0 152 98 242.5t289 90.5h585v-234h-87q-19 96 -40.5 122.5t-83.5 26.5h-162v-199h54q41 0 52.5 15t22.5 77h78v-267h-78q-9 62 -21.5 78t-53.5 16h-54v-208h158q73 0 96 32.5t41 142.5h87v-260h-588zM421 85h51v488h-57q-110 0 -155 -55
t-45 -192q0 -131 47 -186t159 -55z" />
    <glyph glyph-name="oe" unicode="&#x153;" horiz-adv-x="872" 
d="M842 215h-318q4 -79 35 -112t89 -33q83 0 112 82h78q-15 -77 -66 -119.5t-137 -42.5q-129 0 -185 83q-61 -83 -174 -83q-108 0 -178 67t-70 175q0 107 72 177t177 70q118 0 178 -85q60 85 171 85q109 0 165.5 -73t50.5 -191zM284 58q48 0 69 41.5t21 135.5
q0 93 -23.5 134.5t-72.5 41.5q-47 0 -68.5 -41.5t-21.5 -135.5q0 -93 23.5 -134.5t72.5 -41.5zM614 411q-40 0 -62.5 -30.5t-26.5 -102.5h175q-4 70 -24.5 101.5t-61.5 31.5z" />
    <glyph glyph-name="Racute" unicode="&#x154;" horiz-adv-x="728" 
d="M325 729l44 116q20 52 39 76t52 24q26 0 44.5 -18t18.5 -42t-13.5 -43t-44.5 -47l-75 -66h-65zM280 287v-200h93v-87h-346v87h90v484h-90v87h361q138 0 202 -48t64 -119q0 -138 -204 -162v-7q90 -8 129 -45t41 -100l3 -39q1 -31 8 -42t23 -11q22 0 40 59l59 -19
q-33 -139 -149 -139q-77 0 -113 40.5t-36 123.5l-1 34q-1 57 -19.5 80t-72.5 23h-82zM280 368h87q59 0 85.5 24.5t26.5 81.5q0 53 -23.5 77t-85.5 24h-90v-207z" />
    <glyph glyph-name="racute" unicode="&#x155;" horiz-adv-x="479" 
d="M216 535l44 116q20 52 39 76t52 24q26 0 44.5 -18t18.5 -42t-13.5 -43t-44.5 -47l-75 -66h-65zM29 0v83h69v302h-69v83h206v-120q21 64 59 97t87 33q42 0 68.5 -27t26.5 -65q0 -37 -22.5 -61.5t-55.5 -24.5q-34 0 -56 19t-22 52q0 1 0.5 3.5t0.5 4.5q-22 -2 -43.5 -25.5
t-33.5 -64.5v-206h87v-83h-302z" />
    <glyph glyph-name="Rcommaaccent" unicode="&#x156;" horiz-adv-x="728" 
d="M297 -365l-21 47q103 47 113 115l-7 4q-14 -16 -37 -16q-27 0 -45 19t-18 50q0 34 23.5 58.5t59.5 24.5q43 0 69 -30t26 -81q0 -134 -163 -191zM280 287v-200h93v-87h-346v87h90v484h-90v87h361q138 0 202 -48t64 -119q0 -138 -204 -162v-7q90 -8 129 -45t41 -100l3 -39
q1 -31 8 -42t23 -11q22 0 40 59l59 -19q-33 -139 -149 -139q-77 0 -113 40.5t-36 123.5l-1 34q-1 57 -19.5 80t-72.5 23h-82zM280 368h87q59 0 85.5 24.5t26.5 81.5q0 53 -23.5 77t-85.5 24h-90v-207z" />
    <glyph glyph-name="rcommaaccent" unicode="&#x157;" horiz-adv-x="479" 
d="M103 -365l-21 47q103 47 113 115l-7 4q-14 -16 -37 -16q-27 0 -45 19t-18 50q0 34 23.5 58.5t59.5 24.5q43 0 69 -30t26 -81q0 -134 -163 -191zM29 0v83h69v302h-69v83h206v-120q21 64 59 97t87 33q42 0 68.5 -27t26.5 -65q0 -37 -22.5 -61.5t-55.5 -24.5q-34 0 -56 19
t-22 52q0 1 0.5 3.5t0.5 4.5q-22 -2 -43.5 -25.5t-33.5 -64.5v-206h87v-83h-302z" />
    <glyph glyph-name="Rcaron" unicode="&#x158;" horiz-adv-x="728" 
d="M327 732l-122 197h85l80 -86l77 86h85l-124 -197h-81zM280 287v-200h93v-87h-346v87h90v484h-90v87h361q138 0 202 -48t64 -119q0 -138 -204 -162v-7q90 -8 129 -45t41 -100l3 -39q1 -31 8 -42t23 -11q22 0 40 59l59 -19q-33 -139 -149 -139q-77 0 -113 40.5t-36 123.5
l-1 34q-1 57 -19.5 80t-72.5 23h-82zM280 368h87q59 0 85.5 24.5t26.5 81.5q0 53 -23.5 77t-85.5 24h-90v-207z" />
    <glyph glyph-name="rcaron" unicode="&#x159;" horiz-adv-x="479" 
d="M217 538l-122 197h85l80 -86l77 86h85l-124 -197h-81zM29 0v83h69v302h-69v83h206v-120q21 64 59 97t87 33q42 0 68.5 -27t26.5 -65q0 -37 -22.5 -61.5t-55.5 -24.5q-34 0 -56 19t-22 52q0 1 0.5 3.5t0.5 4.5q-22 -2 -43.5 -25.5t-33.5 -64.5v-206h87v-83h-302z" />
    <glyph glyph-name="Sacute" unicode="&#x15a;" horiz-adv-x="618" 
d="M270 729l44 116q20 52 39 76t52 24q26 0 44.5 -18t18.5 -42t-13.5 -43t-44.5 -47l-75 -66h-65zM45 -14v244h88q33 -86 79.5 -124.5t124.5 -38.5q52 0 81.5 23.5t29.5 63.5q0 17 -8.5 31t-19 22.5t-35 17.5t-42 14t-54.5 14q-5 1 -8 2q-40 10 -66.5 18t-60.5 25t-54 37.5
t-34.5 54t-14.5 75.5q0 90 67 149.5t164 59.5q114 0 168 -73l21 71h88v-234h-88q-32 82 -72.5 117.5t-103.5 35.5q-48 0 -75.5 -24t-27.5 -60q0 -30 25 -50.5t49 -28.5t87 -23q7 -2 11 -3q51 -12 82.5 -23.5t68.5 -34t55.5 -59t18.5 -87.5q0 -94 -67.5 -154t-174.5 -60
q-60 0 -111 22t-80 58l-24 -78h-87z" />
    <glyph glyph-name="sacute" unicode="&#x15b;" horiz-adv-x="483" 
d="M202 535l44 116q20 52 39 76t52 24q26 0 44.5 -18t18.5 -42t-13.5 -43t-44.5 -47l-75 -66h-65zM35 -9v172h77q32 -49 72.5 -77.5t82.5 -28.5q61 0 61 48q0 27 -24 41.5t-95 32.5q-88 23 -127.5 55.5t-39.5 93.5q0 63 47 107t123 44q86 0 134 -58l16 56h78v-160h-77
q-61 95 -134 95q-59 0 -59 -45q0 -25 23.5 -38.5t92.5 -31.5q87 -23 129 -55.5t42 -97.5q0 -64 -47.5 -109t-129.5 -45q-96 0 -152 64l-16 -63h-77z" />
    <glyph glyph-name="Scedilla" unicode="&#x15e;" horiz-adv-x="618" 
d="M297 -249q-76 0 -133 32l29 49q42 -20 86 -20q48 0 48 28q0 36 -77 36q-10 0 -27 -3l-23 42l88 75q-86 17 -132 74l-24 -78h-87v244h88q33 -86 79.5 -124.5t124.5 -38.5q52 0 81.5 23.5t29.5 63.5q0 17 -8.5 31t-19 22.5t-35 17.5t-42 14t-54.5 14q-5 1 -8 2
q-40 10 -66.5 18t-60.5 25t-54 37.5t-34.5 54t-14.5 75.5q0 90 67 149.5t164 59.5q114 0 168 -73l21 71h88v-234h-88q-32 82 -72.5 117.5t-103.5 35.5q-48 0 -75.5 -24t-27.5 -60q0 -30 25 -50.5t49 -28.5t87 -23q7 -2 11 -3q51 -12 82.5 -23.5t68.5 -34t55.5 -59
t18.5 -87.5q0 -91 -64 -150.5t-167 -63.5l-42 -43l1 -4q57 -6 85.5 -30t28.5 -58q0 -45 -35.5 -71.5t-98.5 -26.5z" />
    <glyph glyph-name="scedilla" unicode="&#x15f;" horiz-adv-x="483" 
d="M226 -249q-76 0 -133 32l29 49q42 -20 86 -20q48 0 48 28q0 36 -77 36q-11 0 -27 -3l-23 42l96 81q-57 13 -97 58l-16 -63h-77v172h77q32 -49 72.5 -77.5t82.5 -28.5q61 0 61 48q0 27 -24 41.5t-95 32.5q-88 23 -127.5 55.5t-39.5 93.5q0 63 47 107t123 44q86 0 134 -58
l16 56h78v-160h-77q-61 95 -134 95q-59 0 -59 -45q0 -25 23.5 -38.5t92.5 -31.5q87 -23 129 -55.5t42 -97.5q0 -61 -44 -105t-120 -48l-48 -50l1 -4q57 -6 85.5 -30t28.5 -58q0 -45 -35.5 -71.5t-98.5 -26.5z" />
    <glyph glyph-name="Scaron" unicode="&#x160;" horiz-adv-x="618" 
d="M272 732l-122 197h85l80 -86l77 86h85l-124 -197h-81zM45 -14v244h88q33 -86 79.5 -124.5t124.5 -38.5q52 0 81.5 23.5t29.5 63.5q0 17 -8.5 31t-19 22.5t-35 17.5t-42 14t-54.5 14q-5 1 -8 2q-40 10 -66.5 18t-60.5 25t-54 37.5t-34.5 54t-14.5 75.5q0 90 67 149.5
t164 59.5q114 0 168 -73l21 71h88v-234h-88q-32 82 -72.5 117.5t-103.5 35.5q-48 0 -75.5 -24t-27.5 -60q0 -30 25 -50.5t49 -28.5t87 -23q7 -2 11 -3q51 -12 82.5 -23.5t68.5 -34t55.5 -59t18.5 -87.5q0 -94 -67.5 -154t-174.5 -60q-60 0 -111 22t-80 58l-24 -78h-87z" />
    <glyph glyph-name="scaron" unicode="&#x161;" horiz-adv-x="483" 
d="M204 538l-122 197h85l80 -86l77 86h85l-124 -197h-81zM35 -9v172h77q32 -49 72.5 -77.5t82.5 -28.5q61 0 61 48q0 27 -24 41.5t-95 32.5q-88 23 -127.5 55.5t-39.5 93.5q0 63 47 107t123 44q86 0 134 -58l16 56h78v-160h-77q-61 95 -134 95q-59 0 -59 -45
q0 -25 23.5 -38.5t92.5 -31.5q87 -23 129 -55.5t42 -97.5q0 -64 -47.5 -109t-129.5 -45q-96 0 -152 64l-16 -63h-77z" />
    <glyph glyph-name="Tcommaaccent" unicode="&#x162;" horiz-adv-x="698" 
d="M275 -365l-21 47q103 47 113 115l-7 4q-14 -16 -37 -16q-27 0 -45 19t-18 50q0 34 23.5 58.5t59.5 24.5q43 0 69 -30t26 -81q0 -134 -163 -191zM164 0v87h103v496h-25q-60 0 -83.5 -33.5t-51.5 -156.5h-79v265h642v-265h-79q-28 123 -51.5 156.5t-83.5 33.5h-25v-496h103
v-87h-370z" />
    <glyph glyph-name="tcommaaccent" unicode="&#x163;" horiz-adv-x="414" 
d="M143 -365l-21 47q103 47 113 115l-7 4q-14 -16 -37 -16q-27 0 -45 19t-18 50q0 34 23.5 58.5t59.5 24.5q43 0 69 -30t26 -81q0 -134 -163 -191zM90 573l143 17v-127h150v-78h-150v-236q0 -67 49 -67q22 0 35 19t27 69l60 -17q-17 -86 -56 -124.5t-109 -38.5
q-152 0 -152 160v235h-83v78h86v110z" />
    <glyph glyph-name="Tcaron" unicode="&#x164;" horiz-adv-x="698" 
d="M309 732l-122 197h85l80 -86l77 86h85l-124 -197h-81zM164 0v87h103v496h-25q-60 0 -83.5 -33.5t-51.5 -156.5h-79v265h642v-265h-79q-28 123 -51.5 156.5t-83.5 33.5h-25v-496h103v-87h-370z" />
    <glyph glyph-name="tcaron" unicode="&#x165;" horiz-adv-x="414" 
d="M353 527h-52q-9 111 -9 162q-1 93 66 93q25 0 43 -18t18 -46q0 -27 -28 -92zM90 573l143 17v-127h150v-78h-150v-236q0 -67 49 -67q22 0 35 19t27 69l60 -17q-17 -86 -56 -124.5t-109 -38.5q-152 0 -152 160v235h-83v78h86v110z" />
    <glyph glyph-name="Umacron" unicode="&#x16a;" horiz-adv-x="752" 
d="M389 -16q-142 0 -214.5 63.5t-72.5 178.5v345h-85v87h340v-87h-92v-322q0 -89 38 -127t115 -38q67 0 106 39q41 41 41 146v302h-88v87h263v-87h-82v-340q0 -107 -68.5 -177t-200.5 -70zM257 734v98h299v-98h-299z" />
    <glyph glyph-name="umacron" unicode="&#x16b;" horiz-adv-x="619" 
d="M224 -9q-71 0 -105.5 44t-34.5 120v230h-68v83h214v-293q0 -49 21 -71q16 -16 45 -16q35 0 61.5 33t26.5 82v182h-69v83h215v-385h68v-83h-205v123q-56 -132 -169 -132zM147 540v98h299v-98h-299z" />
    <glyph glyph-name="Ubreve" unicode="&#x16c;" horiz-adv-x="752" 
d="M389 -16q-142 0 -214.5 63.5t-72.5 178.5v345h-85v87h340v-87h-92v-322q0 -89 38 -127t115 -38q67 0 106 39q41 41 41 146v302h-88v87h263v-87h-82v-340q0 -107 -68.5 -177t-200.5 -70zM406 727q-75 0 -115.5 46.5t-39.5 137.5h69q13 -85 87 -85q73 0 86 85h69
q1 -91 -39.5 -137.5t-116.5 -46.5z" />
    <glyph glyph-name="ubreve" unicode="&#x16d;" horiz-adv-x="619" 
d="M224 -9q-71 0 -105.5 44t-34.5 120v230h-68v83h214v-293q0 -49 21 -71q16 -16 45 -16q35 0 61.5 33t26.5 82v182h-69v83h215v-385h68v-83h-205v123q-56 -132 -169 -132zM295 533q-75 0 -115.5 46.5t-39.5 137.5h69q13 -85 87 -85q73 0 86 85h69q1 -91 -39.5 -137.5
t-116.5 -46.5z" />
    <glyph glyph-name="Uring" unicode="&#x16e;" horiz-adv-x="752" 
d="M407 723q-61 0 -95.5 33t-34.5 82t35.5 83t94.5 34t94 -33t35 -82t-35 -83t-94 -34zM408 773q23 0 37 17.5t14 48.5q0 32 -14.5 49t-39.5 17q-22 0 -36.5 -17t-14.5 -48t15 -49t39 -18zM389 -16q-142 0 -214.5 63.5t-72.5 178.5v345h-85v87h340v-87h-92v-322
q0 -89 38 -127t115 -38q67 0 106 39q41 41 41 146v302h-88v87h263v-87h-82v-340q0 -107 -68.5 -177t-200.5 -70z" />
    <glyph glyph-name="uring" unicode="&#x16f;" horiz-adv-x="619" 
d="M296 529q-61 0 -95.5 33t-34.5 82t35.5 83t94.5 34t94 -33t35 -82t-35 -83t-94 -34zM297 579q23 0 37 17.5t14 48.5q0 32 -14.5 49t-39.5 17q-22 0 -36.5 -17t-14.5 -48t15 -49t39 -18zM224 -9q-71 0 -105.5 44t-34.5 120v230h-68v83h214v-293q0 -49 21 -71
q16 -16 45 -16q35 0 61.5 33t26.5 82v182h-69v83h215v-385h68v-83h-205v123q-56 -132 -169 -132z" />
    <glyph glyph-name="Uhungarumlaut" unicode="&#x170;" horiz-adv-x="752" 
d="M389 -16q-142 0 -214.5 63.5t-72.5 178.5v345h-85v87h340v-87h-92v-322q0 -89 38 -127t115 -38q67 0 106 39q41 41 41 146v302h-88v87h263v-87h-82v-340q0 -107 -68.5 -177t-200.5 -70zM459 729l48 116q21 51 40.5 75.5t50.5 24.5q25 0 42.5 -17.5t17.5 -40.5
t-13.5 -42.5t-43.5 -47.5l-74 -68h-68zM286 729l42 116q19 52 36.5 76t49.5 24q26 0 43 -17.5t17 -40.5q0 -24 -12.5 -43.5t-40.5 -46.5l-72 -68h-63z" />
    <glyph glyph-name="uhungarumlaut" unicode="&#x171;" horiz-adv-x="619" 
d="M224 -9q-71 0 -105.5 44t-34.5 120v230h-68v83h214v-293q0 -49 21 -71q16 -16 45 -16q35 0 61.5 33t26.5 82v182h-69v83h215v-385h68v-83h-205v123q-56 -132 -169 -132zM348 535l48 116q21 51 40.5 75.5t50.5 24.5q25 0 42.5 -17.5t17.5 -40.5t-13.5 -42.5t-43.5 -47.5
l-74 -68h-68zM175 535l42 116q19 52 36.5 76t49.5 24q26 0 43 -17.5t17 -40.5q0 -24 -12.5 -43.5t-40.5 -46.5l-72 -68h-63z" />
    <glyph glyph-name="Uogonek" unicode="&#x172;" horiz-adv-x="752" 
d="M384 -250q-58 0 -90 28.5t-32 71.5q0 40 21.5 70.5t67.5 64.5q-123 9 -186 71.5t-63 169.5v345h-85v87h340v-87h-92v-322q0 -89 38 -127t115 -38q67 0 106 39q41 41 41 146v302h-88v87h263v-87h-82v-340q0 -94 -53.5 -161t-157.5 -82q-73 -67 -73 -112q0 -23 14.5 -36.5
t40.5 -13.5t59 19l24 -52q-66 -43 -128 -43z" />
    <glyph glyph-name="uogonek" unicode="&#x173;" horiz-adv-x="619" 
d="M224 -9q-71 0 -105.5 44t-34.5 120v230h-68v83h214v-293q0 -49 21 -71q16 -16 45 -16q35 0 61.5 33t26.5 82v182h-69v83h215v-385h68v-83h-38l-13 -12q-73 -67 -73 -112q0 -23 14.5 -36.5t40.5 -13.5t59 19l24 -52q-66 -43 -128 -43q-58 0 -90 28.5t-32 71.5t25 75t81 72
l4 3h-79v123q-56 -132 -169 -132z" />
    <glyph glyph-name="Wcircumflex" unicode="&#x174;" horiz-adv-x="1066" 
d="M742 572h-85l114 -416h8l116 416h-82v86h255v-87h-76l-178 -575h-158l-108 367l-133 -367h-156l-172 575h-83v87h340v-86h-80l116 -418h8l121 333l-25 85h-74v86h332v-86zM409 729l124 197h81l122 -197h-85l-80 86l-77 -86h-85z" />
    <glyph glyph-name="wcircumflex" unicode="&#x175;" horiz-adv-x="844" 
d="M590 386h-61l83 -277h4l76 277h-54v82h203v-83h-61l-120 -389h-151l-79 240l-86 -240h-153l-121 389h-61v83h271v-82h-58l79 -277h4l86 240l-12 37h-53v82h264v-82zM291 535l124 197h81l122 -197h-85l-80 86l-77 -86h-85z" />
    <glyph glyph-name="Ycircumflex" unicode="&#x176;" horiz-adv-x="676" 
d="M385 361l125 211h-79v86h254v-87h-73l-187 -297v-187h89v-87h-341v87h89v177l-190 307h-69v87h336v-86h-75zM206 729l124 197h81l122 -197h-85l-80 86l-77 -86h-85z" />
    <glyph glyph-name="ycircumflex" unicode="&#x177;" 
d="M89 14q36 0 55.5 -23.5t19.5 -55.5q0 -21 -8 -37q32 4 53 23.5t42 70.5l-188 393h-62v83h293v-83h-71l105 -245l94 245h-59v83h205v-83h-57l-160 -372q-40 -94 -87 -140.5t-123 -46.5q-62 0 -95.5 28.5t-33.5 75.5q0 36 21.5 60t55.5 24zM138 535l124 197h81l122 -197
h-85l-80 86l-77 -86h-85z" />
    <glyph glyph-name="Ydieresis" unicode="&#x178;" horiz-adv-x="676" 
d="M385 361l125 211h-79v86h254v-87h-73l-187 -297v-187h89v-87h-341v87h89v177l-190 307h-69v87h336v-86h-75zM470 732q-34 0 -56 21.5t-22 54.5t22.5 55.5t55.5 22.5q34 0 55.5 -21.5t21.5 -54.5t-22 -55.5t-55 -22.5zM269 732q-34 0 -56 21.5t-22 54.5t22.5 55.5
t55.5 22.5q34 0 56 -21.5t22 -54.5t-22 -55.5t-56 -22.5z" />
    <glyph glyph-name="Zacute" unicode="&#x179;" horiz-adv-x="655" 
d="M295 729l44 116q20 52 39 76t52 24q26 0 44.5 -18t18.5 -42t-13.5 -43t-44.5 -47l-75 -66h-65zM28 0v79l396 494h-160q-60 0 -83.5 -29.5t-55.5 -147.5h-78v262h570v-79l-397 -494h183q60 0 83 31t56 156h78v-272h-592z" />
    <glyph glyph-name="zacute" unicode="&#x17a;" horiz-adv-x="497" 
d="M215 535l44 116q20 52 39 76t52 24q26 0 44.5 -18t18.5 -42t-13.5 -43t-44.5 -47l-75 -66h-65zM29 0v69l274 331h-87q-49 0 -68.5 -20t-41.5 -99h-67v187h427v-69l-275 -330h103q48 0 68 21.5t41 105.5h67v-196h-441z" />
    <glyph glyph-name="Zdotaccent" unicode="&#x17b;" horiz-adv-x="655" 
d="M28 0v79l396 494h-160q-60 0 -83.5 -29.5t-55.5 -147.5h-78v262h570v-79l-397 -494h183q60 0 83 31t56 156h78v-272h-592zM337 726q-37 0 -61 22.5t-24 56.5q0 35 24 58.5t61 23.5q38 0 62 -22.5t24 -56.5q0 -35 -24.5 -58.5t-61.5 -23.5z" />
    <glyph glyph-name="zdotaccent" unicode="&#x17c;" horiz-adv-x="497" 
d="M29 0v69l274 331h-87q-49 0 -68.5 -20t-41.5 -99h-67v187h427v-69l-275 -330h103q48 0 68 21.5t41 105.5h67v-196h-441zM256 532q-37 0 -61 22.5t-24 56.5q0 35 24 58.5t61 23.5q38 0 62 -22.5t24 -56.5q0 -35 -24.5 -58.5t-61.5 -23.5z" />
    <glyph glyph-name="Zcaron" unicode="&#x17d;" horiz-adv-x="655" 
d="M297 732l-122 197h85l80 -86l77 86h85l-124 -197h-81zM28 0v79l396 494h-160q-60 0 -83.5 -29.5t-55.5 -147.5h-78v262h570v-79l-397 -494h183q60 0 83 31t56 156h78v-272h-592z" />
    <glyph glyph-name="zcaron" unicode="&#x17e;" horiz-adv-x="497" 
d="M216 538l-122 197h85l80 -86l77 86h85l-124 -197h-81zM29 0v69l274 331h-87q-49 0 -68.5 -20t-41.5 -99h-67v187h427v-69l-275 -330h103q48 0 68 21.5t41 105.5h67v-196h-441z" />
    <glyph glyph-name="Aringacute" unicode="&#x1fa;" horiz-adv-x="734" 
d="M319 906l44 116q20 52 39 76t52 24q26 0 44.5 -18t18.5 -42t-13.5 -43t-44.5 -47l-75 -66h-65zM364 682q23 0 37 18t14 48q0 32 -14.5 49t-38.5 17q-23 0 -37 -17t-14 -48t15 -49t38 -18zM408 289l-83 246h-4l-84 -246h171zM210 210l-43 -123h83v-87h-253v87h72l211 573
q-47 29 -47 87q0 49 36 83t95 34t94 -33t35 -82q0 -58 -48 -89l53 -143q52 -143 104 -287l52 -143h78v-87h-345v87h89l-42 123h-224z" />
    <glyph glyph-name="aringacute" unicode="&#x1fb;" horiz-adv-x="548" 
d="M172 -9q-63 0 -103 34t-40 90q0 48 33 81q47 47 194 66q42 6 51 9t9 12v41q0 44 -21 63t-65 19q-32 0 -60 -12q24 -18 24 -51q0 -26 -20 -44t-51 -18q-36 0 -56 20t-20 50q0 61 64.5 94t157.5 33q191 0 191 -163v-213q0 -16 6 -22t19 -6q19 0 31 45l49 -16
q-14 -58 -43.5 -85t-79.5 -27q-45 0 -74.5 24.5t-35.5 74.5h-5q-42 -99 -155 -99zM240 76q34 0 55 28.5t21 73.5v46q-4 -1 -17.5 -3t-27.5 -5q-52 -9 -72.5 -27t-20.5 -53q0 -26 15.5 -43t46.5 -17zM226 802l44 116q20 52 39 76t52 24q26 0 44.5 -18t18.5 -42t-13.5 -43
t-44.5 -47l-75 -66h-65zM270 529q-61 0 -95.5 33t-34.5 82t35.5 83t94.5 34t94 -33t35 -82t-35 -83t-94 -34zM271 579q23 0 37 17.5t14 48.5q0 32 -14.5 49t-39.5 17q-22 0 -36.5 -17t-14.5 -48t15 -49t39 -18z" />
    <glyph glyph-name="AEacute" unicode="&#x1fc;" horiz-adv-x="1058" 
d="M545 729l44 116q20 52 39 76t52 24q26 0 44.5 -18t18.5 -42t-13.5 -43t-44.5 -47l-75 -66h-65zM467 299v266h-9l-167 -266h176zM242 220l-83 -134h78v-86h-257v87h71l314 484h-95v87h733v-234h-86q-20 96 -41 122.5t-83 26.5h-162v-199h54q41 0 52.5 15t22.5 77h78v-267
h-78q-9 62 -21.5 78t-53.5 16h-54v-208h158q72 0 95 32t42 143h86v-260h-635v87h90v133h-225z" />
    <glyph glyph-name="aeacute" unicode="&#x1fd;" horiz-adv-x="803" 
d="M773 215h-317q4 -79 34.5 -112t88.5 -33q83 0 112 82h77q-31 -162 -209 -162q-163 0 -213 113q-21 -55 -64.5 -83.5t-102.5 -28.5q-68 0 -109 33.5t-41 90.5q0 48 33 81q47 47 194 66q42 6 51 9t9 12v41q0 44 -21 63t-65 19q-32 0 -60 -12q24 -18 24 -51q0 -26 -20 -44
t-51 -18q-36 0 -56 20t-20 50q0 61 63.5 94t151.5 33q106 0 144 -56q57 57 148 57q110 0 167 -73t52 -191zM375 535l44 116q20 52 39 76t52 24q26 0 44.5 -18t18.5 -42t-13.5 -43t-44.5 -47l-75 -66h-65zM546 411q-40 0 -62.5 -30.5t-26.5 -102.5h173q-4 71 -24 102t-60 31z
M240 76q34 0 55 28.5t21 73.5v46q-4 -1 -17.5 -3t-27.5 -5q-52 -9 -72.5 -27t-20.5 -53q0 -26 15.5 -43t46.5 -17z" />
    <glyph glyph-name="Oslashacute" unicode="&#x1fe;" horiz-adv-x="748" 
d="M152 -34h-105l86 113q-97 95 -97 249q0 152 96 249t238 97q98 0 180 -46l46 64h105l-86 -114q97 -97 97 -248q0 -153 -96 -249.5t-239 -96.5q-100 0 -180 46zM213 329q0 -84 13 -137l258 354q-40 47 -113 47q-81 0 -119.5 -64t-38.5 -200zM377 65q81 0 119.5 64t38.5 200
q0 83 -13 136l-258 -354q39 -46 113 -46zM332 729l44 116q20 52 39 76t52 24q26 0 44.5 -18t18.5 -42t-13.5 -43t-44.5 -47l-75 -66h-65z" />
    <glyph glyph-name="oslashacute" unicode="&#x1ff;" 
d="M115 -28h-88l70 87q-69 67 -69 176q0 106 72.5 175t179.5 69q73 0 130 -31l38 49h87l-70 -89q69 -69 69 -174q0 -106 -72 -175t-180 -69q-71 0 -129 30zM238 535l44 116q20 52 39 76t52 24q26 0 44.5 -18t18.5 -42t-13.5 -43t-44.5 -47l-75 -66h-65zM284 55q51 0 74.5 43
t23.5 137q0 41 -5 76l-168 -223q22 -33 75 -33zM181 234q0 -48 4 -76l169 222q-23 33 -76 33q-51 0 -74 -42.5t-23 -136.5z" />
    <glyph glyph-name="Scommaaccent" unicode="&#x218;" horiz-adv-x="618" 
d="M238 -365l-21 47q103 47 113 115l-7 4q-14 -16 -37 -16q-27 0 -45 19t-18 50q0 34 23.5 58.5t59.5 24.5q43 0 69 -30t26 -81q0 -134 -163 -191zM45 -14v244h88q33 -86 79.5 -124.5t124.5 -38.5q52 0 81.5 23.5t29.5 63.5q0 17 -8.5 31t-19 22.5t-35 17.5t-42 14t-54.5 14
q-5 1 -8 2q-40 10 -66.5 18t-60.5 25t-54 37.5t-34.5 54t-14.5 75.5q0 90 67 149.5t164 59.5q114 0 168 -73l21 71h88v-234h-88q-32 82 -72.5 117.5t-103.5 35.5q-48 0 -75.5 -24t-27.5 -60q0 -30 25 -50.5t49 -28.5t87 -23q7 -2 11 -3q51 -12 82.5 -23.5t68.5 -34t55.5 -59
t18.5 -87.5q0 -94 -67.5 -154t-174.5 -60q-60 0 -111 22t-80 58l-24 -78h-87z" />
    <glyph glyph-name="scommaaccent" unicode="&#x219;" horiz-adv-x="483" 
d="M170 -365l-21 47q103 47 113 115l-7 4q-14 -16 -37 -16q-27 0 -45 19t-18 50q0 34 23.5 58.5t59.5 24.5q43 0 69 -30t26 -81q0 -134 -163 -191zM35 -9v172h77q32 -49 72.5 -77.5t82.5 -28.5q61 0 61 48q0 27 -24 41.5t-95 32.5q-88 23 -127.5 55.5t-39.5 93.5
q0 63 47 107t123 44q86 0 134 -58l16 56h78v-160h-77q-61 95 -134 95q-59 0 -59 -45q0 -25 23.5 -38.5t92.5 -31.5q87 -23 129 -55.5t42 -97.5q0 -64 -47.5 -109t-129.5 -45q-96 0 -152 64l-16 -63h-77z" />
    <glyph glyph-name="schwa" unicode="&#x259;" horiz-adv-x="528" 
d="M254 -11q-115 0 -172.5 73t-52.5 191h318q-4 79 -34.5 112t-88.5 33q-83 0 -112 -82h-78q30 162 215 162q116 0 183.5 -65.5t67.5 -174.5q0 -107 -70 -178t-176 -71zM257 57q40 0 63 30.5t27 102.5h-175q4 -71 24 -102t61 -31z" />
    <glyph glyph-name="circumflex" unicode="&#x2c6;" horiz-adv-x="351" 
d="M12 535l124 197h81l122 -197h-85l-80 86l-77 -86h-85z" />
    <glyph glyph-name="caron" unicode="&#x2c7;" horiz-adv-x="351" 
d="M134 538l-122 197h85l80 -86l77 86h85l-124 -197h-81z" />
    <glyph glyph-name="breve" unicode="&#x2d8;" horiz-adv-x="360" 
d="M179 533q-75 0 -115.5 46.5t-39.5 137.5h69q13 -85 87 -85q73 0 86 85h69q1 -91 -39.5 -137.5t-116.5 -46.5z" />
    <glyph glyph-name="dotaccent" unicode="&#x2d9;" horiz-adv-x="213" 
d="M106 532q-37 0 -61 22.5t-24 56.5q0 35 24 58.5t61 23.5q38 0 62 -22.5t24 -56.5q0 -35 -24.5 -58.5t-61.5 -23.5z" />
    <glyph glyph-name="ring" unicode="&#x2da;" horiz-adv-x="295" 
d="M148 529q-61 0 -95.5 33t-34.5 82t35.5 83t94.5 34t94 -33t35 -82t-35 -83t-94 -34zM149 579q23 0 37 17.5t14 48.5q0 32 -14.5 49t-39.5 17q-22 0 -36.5 -17t-14.5 -48t15 -49t39 -18z" />
    <glyph glyph-name="ogonek" unicode="&#x2db;" horiz-adv-x="303" 
d="M135 -250q-58 0 -90 28.5t-32 71.5t25 75t81 72l25 19h86l-32 -28q-73 -67 -73 -112q0 -23 14.5 -36.5t40.5 -13.5t59 19l24 -52q-66 -43 -128 -43z" />
    <glyph glyph-name="tilde" unicode="&#x2dc;" horiz-adv-x="401" 
d="M19 532q7 84 31.5 122.5t80.5 38.5q32 0 84 -24t68 -24q14 0 21.5 12t12.5 42h66q-6 -84 -31 -122.5t-81 -38.5q-32 0 -84 24t-68 24q-13 0 -21 -12.5t-13 -41.5h-66z" />
    <glyph glyph-name="hungarumlaut" unicode="&#x2dd;" horiz-adv-x="334" 
d="M156 535l48 116q21 51 40.5 75.5t50.5 24.5q25 0 42.5 -17.5t17.5 -40.5t-13.5 -42.5t-43.5 -47.5l-74 -68h-68zM-17 535l42 116q19 52 36.5 76t49.5 24q26 0 43 -17.5t17 -40.5q0 -24 -12.5 -43.5t-40.5 -46.5l-72 -68h-63z" />
    <glyph glyph-name="commaaccent" unicode="&#x326;" horiz-adv-x="260" 
d="M53 -365l-21 47q103 47 113 115l-7 4q-14 -16 -37 -16q-27 0 -45 19t-18 50q0 34 23.5 58.5t59.5 24.5q43 0 69 -30t26 -81q0 -134 -163 -191z" />
    <glyph glyph-name="Wgrave" unicode="&#x1e80;" horiz-adv-x="1066" 
d="M742 572h-85l114 -416h8l116 416h-82v86h255v-87h-76l-178 -575h-158l-108 367l-133 -367h-156l-172 575h-83v87h340v-86h-80l116 -418h8l121 333l-25 85h-74v86h332v-86zM618 729h-65l-74 66q-32 27 -45.5 46.5t-13.5 43.5t18.5 42t44.5 18q33 0 52 -24t39 -76z" />
    <glyph glyph-name="wgrave" unicode="&#x1e81;" horiz-adv-x="844" 
d="M590 386h-61l83 -277h4l76 277h-54v82h203v-83h-61l-120 -389h-151l-79 240l-86 -240h-153l-121 389h-61v83h271v-82h-58l79 -277h4l86 240l-12 37h-53v82h264v-82zM500 535h-65l-74 66q-32 27 -45.5 46.5t-13.5 43.5t18.5 42t44.5 18q33 0 52 -24t39 -76z" />
    <glyph glyph-name="Wacute" unicode="&#x1e82;" horiz-adv-x="1066" 
d="M742 572h-85l114 -416h8l116 416h-82v86h255v-87h-76l-178 -575h-158l-108 367l-133 -367h-156l-172 575h-83v87h340v-86h-80l116 -418h8l121 333l-25 85h-74v86h332v-86zM530 729l44 116q20 52 39 76t52 24q26 0 44.5 -18t18.5 -42t-13.5 -43t-44.5 -47l-75 -66h-65z
" />
    <glyph glyph-name="wacute" unicode="&#x1e83;" horiz-adv-x="844" 
d="M590 386h-61l83 -277h4l76 277h-54v82h203v-83h-61l-120 -389h-151l-79 240l-86 -240h-153l-121 389h-61v83h271v-82h-58l79 -277h4l86 240l-12 37h-53v82h264v-82zM412 535l44 116q20 52 39 76t52 24q26 0 44.5 -18t18.5 -42t-13.5 -43t-44.5 -47l-75 -66h-65z" />
    <glyph glyph-name="Wdieresis" unicode="&#x1e84;" horiz-adv-x="1066" 
d="M742 572h-85l114 -416h8l116 416h-82v86h255v-87h-76l-178 -575h-158l-108 367l-133 -367h-156l-172 575h-83v87h340v-86h-80l116 -418h8l121 333l-25 85h-74v86h332v-86zM472 732q-34 0 -56 21.5t-22 54.5t22.5 55.5t55.5 22.5q34 0 56 -21.5t22 -54.5t-22 -55.5
t-56 -22.5zM673 732q-34 0 -56 21.5t-22 54.5t22.5 55.5t55.5 22.5q34 0 55.5 -21.5t21.5 -54.5t-22 -55.5t-55 -22.5z" />
    <glyph glyph-name="wdieresis" unicode="&#x1e85;" horiz-adv-x="844" 
d="M590 386h-61l83 -277h4l76 277h-54v82h203v-83h-61l-120 -389h-151l-79 240l-86 -240h-153l-121 389h-61v83h271v-82h-58l79 -277h4l86 240l-12 37h-53v82h264v-82zM354 538q-34 0 -56 21.5t-22 54.5t22.5 55.5t55.5 22.5q34 0 56 -21.5t22 -54.5t-22 -55.5t-56 -22.5z
M555 538q-34 0 -56 21.5t-22 54.5t22.5 55.5t55.5 22.5q34 0 55.5 -21.5t21.5 -54.5t-22 -55.5t-55 -22.5z" />
    <glyph glyph-name="Ygrave" unicode="&#x1ef2;" horiz-adv-x="676" 
d="M385 361l125 211h-79v86h254v-87h-73l-187 -297v-187h89v-87h-341v87h89v177l-190 307h-69v87h336v-86h-75zM415 729h-65l-74 66q-32 27 -45.5 46.5t-13.5 43.5t18.5 42t44.5 18q33 0 52 -24t39 -76z" />
    <glyph glyph-name="ygrave" unicode="&#x1ef3;" 
d="M89 14q36 0 55.5 -23.5t19.5 -55.5q0 -21 -8 -37q32 4 53 23.5t42 70.5l-188 393h-62v83h293v-83h-71l105 -245l94 245h-59v83h205v-83h-57l-160 -372q-40 -94 -87 -140.5t-123 -46.5q-62 0 -95.5 28.5t-33.5 75.5q0 36 21.5 60t55.5 24zM347 535h-65l-74 66
q-32 27 -45.5 46.5t-13.5 43.5t18.5 42t44.5 18q33 0 52 -24t39 -76z" />
    <glyph glyph-name="enspace" unicode="&#x2002;" horiz-adv-x="500" 
 />
    <glyph glyph-name="emspace" unicode="&#x2003;" horiz-adv-x="1000" 
 />
    <glyph glyph-name="threeperemspace" unicode="&#x2004;" horiz-adv-x="333" 
 />
    <glyph glyph-name="fourperemspace" unicode="&#x2005;" horiz-adv-x="250" 
 />
    <glyph glyph-name="thinspace" unicode="&#x2009;" horiz-adv-x="133" 
 />
    <glyph glyph-name="hairspace" unicode="&#x200a;" horiz-adv-x="75" 
 />
    <glyph glyph-name="endash" unicode="&#x2013;" horiz-adv-x="530" 
d="M48 204v92h434v-92h-434z" />
    <glyph glyph-name="emdash" unicode="&#x2014;" horiz-adv-x="780" 
d="M48 204v92h684v-92h-684z" />
    <glyph glyph-name="quoteleft" unicode="&#x2018;" horiz-adv-x="256" 
d="M130 356q-45 0 -72 31t-27 85q0 73 48 127t141 83l22 -48q-121 -50 -136 -129l7 -4q15 18 40 18q27 0 45 -20t18 -52q0 -38 -24.5 -64.5t-61.5 -26.5z" />
    <glyph glyph-name="quoteright" unicode="&#x2019;" horiz-adv-x="256" 
d="M38 347l-23 48q121 51 136 130l-7 3q-14 -17 -40 -17q-27 0 -44.5 20t-17.5 52q0 38 24 64.5t61 26.5q45 0 72 -31t27 -85q0 -150 -188 -211z" />
    <glyph glyph-name="quotesinglbase" unicode="&#x201a;" horiz-adv-x="256" 
d="M38 -166l-23 48q121 51 136 130l-7 3q-14 -17 -40 -17q-27 0 -44.5 20t-17.5 52q0 38 24 64.5t61 26.5q45 0 72 -31t27 -85q0 -150 -188 -211z" />
    <glyph glyph-name="quotedblleft" unicode="&#x201c;" horiz-adv-x="482" 
d="M356 356q-45 0 -72 31t-27 85q0 73 48 127t141 83l22 -48q-121 -50 -136 -129l7 -4q15 18 40 18q27 0 45 -20t18 -52q0 -38 -24.5 -64.5t-61.5 -26.5zM130 356q-45 0 -72 31t-27 85q0 73 48 127t140 83l23 -48q-121 -50 -136 -129l7 -4q13 18 40 18t45 -20t18 -52
q0 -38 -24.5 -64.5t-61.5 -26.5z" />
    <glyph glyph-name="quotedblright" unicode="&#x201d;" horiz-adv-x="482" 
d="M264 347l-22 48q122 52 136 130l-8 3q-14 -17 -39 -17q-28 0 -45.5 20t-17.5 52q0 38 24 64.5t62 26.5q45 0 72 -31.5t27 -84.5q0 -73 -48 -127t-141 -84zM38 347l-23 48q121 51 136 130l-7 3q-14 -17 -40 -17q-27 0 -44.5 20t-17.5 52q0 38 24 64.5t61 26.5q45 0 72 -31
t27 -85q0 -150 -188 -211z" />
    <glyph glyph-name="quotedblbase" unicode="&#x201e;" horiz-adv-x="482" 
d="M264 -166l-22 48q122 52 136 130l-8 3q-14 -17 -39 -17q-28 0 -45.5 20t-17.5 52q0 38 24 64.5t62 26.5q45 0 72 -31.5t27 -84.5q0 -73 -48 -127t-141 -84zM38 -166l-23 48q121 51 136 130l-7 3q-14 -17 -40 -17q-27 0 -44.5 20t-17.5 52q0 38 24 64.5t61 26.5
q45 0 72 -31t27 -85q0 -150 -188 -211z" />
    <glyph glyph-name="dagger" unicode="&#x2020;" horiz-adv-x="540" 
d="M248 412q-69 25 -102 25q-8 0 -11 -1q9 -16 9 -34q0 -24 -17 -42t-45 -18q-27 0 -46 17t-19 48q0 37 27.5 62.5t74.5 25.5q55 0 126 -30l-45 172l8 19q20 47 61 47q43 0 63 -47l7 -19l-50 -192q80 -26 104 -26q9 0 12 1q-9 15 -9 34q0 25 16.5 42.5t45.5 17.5
q27 0 46 -17t19 -47q0 -38 -27.5 -63.5t-74.5 -25.5q-57 0 -127 31l37 -278v-142q0 -27 -24.5 -55t-36.5 -28q-13 0 -37 28t-24 55v142z" />
    <glyph glyph-name="daggerdbl" unicode="&#x2021;" horiz-adv-x="540" 
d="M245 469l-45 169l8 18q20 47 61 47q43 0 63 -47l7 -18l-49 -188q74 -26 103 -26q9 0 12 1q-9 14 -9 34q0 25 16.5 42.5t45.5 17.5q27 0 46 -17t19 -47q0 -38 -27.5 -63.5t-74.5 -25.5q-57 0 -123 29l28 -108l-31 -112q71 -25 98 -25q9 0 12 1q-9 15 -9 34q0 25 16.5 42.5
t45.5 17.5q27 0 46 -17t19 -47q0 -37 -27.5 -62.5t-74.5 -25.5q-58 0 -126 30l44 -169l-7 -18q-8 -19 -24.5 -33t-37.5 -14q-42 0 -62 47l-8 18l50 188q-74 26 -104 26q-8 0 -11 -1q9 -16 9 -34q0 -24 -17 -42t-45 -18q-27 0 -46 17t-19 48q0 37 27.5 62.5t74.5 25.5
q55 0 123 -29l-29 109l32 112q-68 24 -99 24q-8 0 -11 -1q9 -16 9 -34q0 -25 -16.5 -42.5t-45.5 -17.5q-27 0 -46 17t-19 47q0 38 27.5 63.5t74.5 25.5q59 0 126 -31z" />
    <glyph glyph-name="bullet" unicode="&#x2022;" horiz-adv-x="490" 
d="M245 168q-64 0 -109 44.5t-45 108.5t45 109.5t109 45.5t109 -45.5t45 -109.5t-45 -108.5t-109 -44.5z" />
    <glyph glyph-name="ellipsis" unicode="&#x2026;" horiz-adv-x="755" 
d="M627 -17q-37 0 -62 25t-25 62t25.5 62.5t63.5 25.5q37 0 62 -25.5t25 -61.5q0 -37 -25.5 -62.5t-63.5 -25.5zM377 -17q-37 0 -62.5 25t-25.5 62t25.5 62.5t63.5 25.5q37 0 62.5 -25.5t25.5 -61.5q0 -37 -25.5 -62.5t-63.5 -25.5zM126 -17q-37 0 -62 25t-25 62t25.5 62.5
t63.5 25.5q37 0 62 -25.5t25 -61.5q0 -37 -25.5 -62.5t-63.5 -25.5z" />
    <glyph glyph-name="guilsinglleft" unicode="&#x2039;" horiz-adv-x="310" 
d="M164 229l108 -165l-40 -33l-184 156q-24 21 -24 40q0 20 24 40l184 157l40 -33z" />
    <glyph glyph-name="guilsinglright" unicode="&#x203a;" horiz-adv-x="310" 
d="M146 226l-108 165l40 33l184 -156q24 -21 24 -40q0 -20 -24 -40l-184 -157l-40 33z" />
    <glyph glyph-name="Euro" unicode="&#x20ac;" horiz-adv-x="669" 
d="M28 343v77h92q28 105 106 167.5t190 62.5q91 0 154 -45.5t63 -109.5q0 -38 -22.5 -63.5t-62.5 -25.5q-37 0 -59 21.5t-22 55.5q0 40 34 63q-28 26 -84 26q-58 0 -94 -35t-49 -119h153v-75h-160v-32q0 -23 1 -33h159v-75h-151q25 -128 139 -128q113 0 136 142h89
q-11 -109 -72.5 -171t-174.5 -62q-114 0 -184 57.5t-92 159.5h-89v77h78v30q0 23 1 35h-79z" />
    <glyph glyph-name="published" unicode="&#x2117;" horiz-adv-x="787" 
d="M393 -34q-157 0 -262 103t-105 260q0 156 105 259t262 103q158 0 262.5 -103t104.5 -259q0 -157 -104.5 -260t-262.5 -103zM393 15q136 0 222 88.5t86 225.5q0 136 -86 224.5t-222 88.5q-135 0 -221.5 -88.5t-86.5 -224.5q0 -137 86.5 -225.5t221.5 -88.5zM242 145v49h50
v266h-50v49h183q159 0 159 -112q0 -51 -38.5 -82t-119.5 -31h-42v-90h53v-49h-195zM384 331h35q38 0 52.5 15.5t14.5 51.5q0 34 -15 49t-53 15h-34v-131z" />
    <glyph glyph-name="servicemark" unicode="&#x2120;" horiz-adv-x="845" 
d="M43 342v113h47q34 -73 99 -73q22 0 34 10.5t12 27.5q0 18 -17 27t-59 19q-51 12 -81.5 34t-30.5 67q0 43 32 71t80 28q56 0 85 -36l10 35h46v-109h-47q-30 68 -83 68q-21 0 -33 -10t-12 -25q0 -19 18 -28.5t60 -19.5q51 -12 81 -33.5t30 -65.5q0 -45 -32.5 -73t-85.5 -28
q-64 0 -97 38l-11 -37h-45zM348 347v49h42v213h-42v49h177l53 -175h7l51 175h171v-49h-44v-213h44v-49h-170v48h37v208h-9l-81 -256h-49l-85 256h-10v-208h39v-48h-131z" />
    <glyph glyph-name="trademark" unicode="&#x2122;" horiz-adv-x="882" 
d="M386 347v49h41v213h-41v49h176l54 -175h7l50 175h171v-49h-43v-213h43v-49h-170v48h38v208h-9l-82 -256h-49l-85 256h-9v-208h38v-48h-130zM94 347v49h54v220h-11q-25 0 -36.5 -16.5t-27.5 -73.5h-42v132h323v-132h-42q-15 57 -27 73.5t-37 16.5h-11v-220h55v-49h-198z
" />
    <glyph glyph-name="minus" unicode="&#x2212;" horiz-adv-x="519" 
d="M455 241h-390v87h390v-87z" />
    <glyph glyph-name="registered.alt" horiz-adv-x="787" 
d="M393 -34q-157 0 -262 103t-105 260q0 156 105 259t262 103q158 0 262.5 -103t104.5 -259q0 -157 -104.5 -260t-262.5 -103zM393 15q136 0 222 88.5t86 225.5q0 136 -86 224.5t-222 88.5q-135 0 -221.5 -88.5t-86.5 -224.5q0 -137 86.5 -225.5t221.5 -88.5zM357 305v-107
h51v-49h-192v49h48v266h-48v50h201q77 0 112.5 -27t35.5 -67q0 -79 -114 -92v-3q49 -4 70.5 -24t24.5 -55l1 -20q1 -17 5 -23t12 -6q13 0 22 34l33 -10q-17 -79 -83 -79q-44 0 -64 22.5t-20 69.5v17q0 29 -10.5 41.5t-39.5 12.5h-45zM357 351h47q32 0 47 13.5t15 45.5
q0 30 -13 43.5t-47 13.5h-49v-116z" />
    <glyph glyph-name="zero.osf" horiz-adv-x="614" 
d="M307 -16q-121 0 -195.5 80.5t-74.5 212.5q0 133 75.5 215.5t194.5 82.5q121 0 195.5 -80.5t74.5 -212.5q0 -133 -75.5 -215.5t-194.5 -82.5zM310 60q52 0 74.5 50.5t22.5 169.5q0 116 -25 167.5t-78 51.5q-52 0 -74.5 -50.5t-22.5 -169.5q0 -116 25 -167.5t78 -51.5z" />
    <glyph glyph-name="one.osf" horiz-adv-x="480" 
d="M48 0v83h131v330q-25 -7 -56 -7q-49 0 -80 11v71q142 -6 195 79h95v-484h128v-83h-413z" />
    <glyph glyph-name="two.osf" horiz-adv-x="569" 
d="M512 409q0 -38 -14 -66.5t-43.5 -47.5t-59.5 -31t-76 -25q-82 -22 -132 -48.5t-68 -69.5l5 -3q47 36 114 36q38 0 93 -15t77 -15q29 0 42.5 18t25.5 69l59 -5q-9 -222 -140 -222q-38 0 -72 15.5t-54 34.5t-44 34.5t-44 15.5q-9 0 -19 -2q17 -13 17 -39q0 -25 -17.5 -42.5
t-47.5 -17.5q-36 0 -60 25.5t-24 67.5q0 114 178 202q77 38 104.5 65t27.5 76q0 39 -25.5 62t-72.5 23q-56 0 -87 -29q52 -17 52 -70q0 -32 -21 -53t-58 -21t-60.5 24t-23.5 62q0 65 63.5 111.5t165.5 46.5q113 0 176 -47.5t63 -118.5z" />
    <glyph glyph-name="three.osf" horiz-adv-x="547" 
d="M262 -92q-110 0 -175 43t-65 109q0 40 24 64t63 24q40 0 61.5 -21t21.5 -53q0 -22 -12.5 -41.5t-31.5 -28.5q27 -25 96 -25q48 0 75.5 28.5t27.5 81.5q0 61 -32.5 89t-118.5 28h-22v80h21q79 0 110 28.5t31 89.5q0 100 -99 100q-45 0 -77 -24q20 -8 32.5 -28t12.5 -42
q0 -32 -21 -53t-60 -21t-63 23.5t-24 62.5q0 65 64 109t168 44q113 0 175 -47.5t62 -116.5q0 -129 -186 -157v-4q197 -20 197 -155q0 -81 -68.5 -134t-186.5 -53z" />
    <glyph glyph-name="four.osf" horiz-adv-x="593" 
d="M316 197v257h-6l-190 -257h196zM460 0h84v-82h-313v82h85v111h-298v79l293 380h149v-373h119v-86h-119v-111z" />
    <glyph glyph-name="five.osf" horiz-adv-x="548" 
d="M159 437l-12 -161q64 51 151 51q111 0 165 -55.5t54 -140.5q0 -95 -67.5 -159t-190.5 -64q-100 0 -163 38.5t-63 104.5q0 40 24.5 66t65.5 26q36 0 56.5 -21t20.5 -50q0 -46 -38 -71q31 -23 76 -23q54 0 82 34.5t28 100.5q0 68 -26.5 99.5t-81.5 31.5q-56 0 -109 -43
l-64 19l23 332l24 22q90 -33 206 -33q90 0 160 37l26 -48q-62 -120 -199 -120q-80 0 -148 27z" />
    <glyph glyph-name="six.osf" horiz-adv-x="586" 
d="M205 321q49 72 149 72q90 0 145 -52t55 -140q0 -90 -65 -153.5t-180 -63.5q-126 0 -196.5 87t-70.5 220q0 156 85.5 255t225.5 99q89 0 138.5 -37t49.5 -92q0 -38 -23 -62.5t-61 -24.5q-39 0 -59.5 20.5t-20.5 52.5q0 39 32 60q-24 15 -58 15q-146 0 -146 -256zM209 194
q0 -69 28.5 -104.5t72.5 -35.5q84 0 84 129q0 138 -91 138q-44 0 -69 -33t-25 -94z" />
    <glyph glyph-name="seven.osf" horiz-adv-x="537" 
d="M136 -15q0 67 56 153.5t186 224.5l50 54l-5 5q-49 -34 -97 -34q-32 0 -78.5 18t-64.5 18q-26 0 -39.5 -23t-24.5 -87h-82v253h88l9 -86h7q25 92 89 92q28 0 52 -16t38.5 -35.5t34 -35.5t38.5 -16q7 0 11 2q-14 16 -14 39q0 29 18.5 47t50.5 18q34 0 53.5 -20t19.5 -52
q0 -50 -59 -111q-63 -67 -102 -154.5t-61 -239.5q-14 -92 -85 -92q-41 0 -65 21.5t-24 56.5z" />
    <glyph glyph-name="eight.osf" horiz-adv-x="568" 
d="M55 447q0 83 65 140t170 57q107 0 164.5 -44.5t57.5 -109.5q0 -48 -32 -83t-89 -52q140 -51 140 -165q0 -89 -69 -147t-181 -58q-114 0 -176.5 47.5t-62.5 117.5q0 47 34 83t95 54q-116 46 -116 160zM397 140q0 46 -42.5 72t-139.5 52q-52 -40 -52 -104q0 -49 32 -78
t94 -29q51 0 79.5 24t28.5 63zM190 495q0 -46 37 -71.5t118 -46.5q49 39 49 102q0 40 -28.5 68t-81.5 28q-45 0 -69.5 -22.5t-24.5 -57.5z" />
    <glyph glyph-name="nine.osf" horiz-adv-x="586" 
d="M382 232q-21 -33 -61 -52.5t-89 -19.5q-89 0 -144 53t-55 143q0 91 65.5 155t180.5 64q128 0 196.5 -87.5t68.5 -223.5q0 -158 -84 -257t-226 -99q-91 0 -141.5 37.5t-50.5 92.5q0 38 23.5 63t60.5 25q39 0 59.5 -21t20.5 -52q0 -40 -31 -61q23 -16 61 -16q73 0 109 62.5
t37 193.5zM378 363q0 70 -27 106t-71 36q-88 0 -88 -132q0 -140 92 -140q44 0 69 33t25 97z" />
    <glyph glyph-name="dollar.osf" horiz-adv-x="554" 
d="M322 -100h-76v85q-105 6 -162.5 43.5t-57.5 91.5q0 31 21.5 52.5t53.5 21.5q33 0 54.5 -19t21.5 -48q0 -35 -27 -55q35 -21 96 -27v171q-105 26 -154.5 60.5t-49.5 106.5q0 75 55.5 124.5t148.5 60.5v74h76v-73q103 -5 150.5 -44t47.5 -86q0 -33 -20.5 -53.5t-52.5 -20.5
q-34 0 -54.5 18t-20.5 48q0 34 25 52q-24 20 -76 26v-168q105 -26 154.5 -62t49.5 -108q0 -74 -52.5 -124.5t-150.5 -60.5v-86zM402 123q0 26 -20.5 43t-62.5 30v-150q83 11 83 77zM167 435q0 -30 18.5 -46t62.5 -30v149q-81 -11 -81 -73z" />
    <glyph glyph-name="sterling.osf" horiz-adv-x="630" 
d="M478 240h-144q-3 -44 -29 -87q26 -8 61 -21.5t56 -19.5t42 -6q32 0 47.5 18.5t29.5 78.5l59 -4q-2 -114 -33 -164.5t-106 -50.5q-33 0 -72.5 15t-62.5 28t-72 44q-54 -87 -137 -87q-47 0 -75 23.5t-28 62.5q0 46 39.5 75.5t114.5 29.5q31 0 59 -4v3q0 25 -27 66h-148v75
h100q-19 40 -19 78q0 77 70 130t186 53q88 0 142 -35.5t54 -89.5q0 -33 -22.5 -57t-60.5 -24q-35 0 -55.5 19.5t-20.5 48.5q0 38 35 59q-30 16 -69 16q-50 0 -77.5 -23.5t-27.5 -57.5q0 -20 5.5 -38.5t16.5 -42t15 -36.5h154v-75zM126 43q48 0 81 55q-34 17 -65 17
q-28 0 -41.5 -11t-13.5 -27q0 -34 39 -34z" />
    <glyph glyph-name="Euro.osf" horiz-adv-x="669" 
d="M27 300v73h93q30 91 107 147t185 56q96 0 160.5 -45t64.5 -110q0 -37 -22.5 -61.5t-62.5 -24.5q-38 0 -59.5 21t-21.5 54q0 39 35 64q-29 27 -88 27q-120 0 -147 -129h158v-72h-167v-26q0 -22 1 -32h166v-72h-154q29 -98 137 -98q60 0 96 37.5t48 104.5h88
q-10 -105 -75.5 -167.5t-180.5 -62.5q-108 0 -177 49.5t-94 135.5h-90v73h77v25q0 22 1 33h-78z" />
    <glyph glyph-name="yen.osf" horiz-adv-x="660" 
d="M71 344h105l-90 134h-71v82h316v-81h-73l113 -180l111 180h-71v81h239v-82h-74l-91 -134h107v-72h-156l-33 -49v-6h189v-72h-189v-66h93v-79h-329v79h94v66h-190v72h190v2l-36 53h-154v72z" />
    <glyph glyph-name="hfjslug" horiz-adv-x="694" 
d="M644 -200h-208l-8 14h-163l-8 -14h-207v303q14 0 23 9.5t9 22.5t-9.5 22.5t-22.5 9.5v554h100l30 79h334l29 -79h101v-921zM400 563v-172h15v78h38v14h-38v66h43v14h-58zM184 563v-172h15v79h47v-79h15v172h-15v-79h-47v79h-15zM460 394q10 -4 21 -4q31 0 31 36v137h-16
v-137q0 -22 -16 -22q-8 0 -20 5v-15zM371 465l-13 3q-4 -18 -8 -30h-1l-16 31q23 21 23 42q0 31 -27 31q-12 0 -20 -9t-8 -22t14 -39q-23 -18 -23 -47q0 -16 8 -26.5t21 -10.5q19 0 29 24h1l12 -24l12 6l-17 32q6 14 13 39zM523 323v-46h8v12l8 8l15 -20h10l-20 26l18 20
h-10l-20 -24h-1v24h-8zM488 292l10 -15h9l-12 17q10 4 10 14q0 15 -17 15h-20v-46h8v15h12zM426 276q10 0 17 7t7 17q0 9 -7 16.5t-17 7.5t-17 -7.5t-7 -16.5q0 -10 7 -17t17 -7zM370 301l-13 22h-9l18 -29v-17h8v17l18 29h-9zM193 323v-46h34v7h-26v13h23v7h-23v12h26v7
h-34zM132 323v-46h8v32l25 -32h7v46h-8v-32l-25 32h-7zM241 323l14 -47h8l11 34h1l11 -34h8l14 47h-8l-10 -35h-1l-11 35h-7l-11 -35h-1l-10 35h-8zM327 479q-12 22 -12 32q0 19 14 19q13 0 13 -19q0 -15 -15 -32zM342 423q-8 -21 -20 -21q-16 0 -16 25q0 19 16 35zM487 299
h-11v17h11q10 0 10 -8q0 -9 -10 -9zM426 283q-16 0 -16 17q0 6 4.5 11.5t11.5 5.5t11.5 -5.5t4.5 -11.5q0 -17 -16 -17z" />
    <glyph glyph-name="i.dot" horiz-adv-x="345" 
d="M173 537q-40 0 -64.5 23t-24.5 60t25 62t64 25q40 0 65 -24t25 -60q0 -37 -25.5 -61.5t-64.5 -24.5zM31 0v83h76v302h-76v83h222v-385h76v-83h-298z" />
    <glyph glyph-name="caron.alt" horiz-adv-x="238" 
d="M120 527h-52q-9 111 -9 162q-1 93 66 93q25 0 43 -18t18 -46q0 -27 -28 -92z" />
    </font>
</defs>
</svg>
