<svg viewBox="0 0 96 96" fill="none" xmlns="http://www.w3.org/2000/svg" class="dark-turny">
  <path d="M47.0804 2.77965C35.1688 3.10273 23.8528 8.0617 15.5533 16.5976C7.24959 25.1376 2.61624 36.5776 2.64417 48.4804C2.64417 60.5824 7.45647 72.1852 16.0211 80.7448C24.5858 89.3003 36.2012 94.1073 48.3163 94.1073C60.4314 94.1073 72.0466 89.3002 80.6115 80.7448C89.1801 72.1854 93.9884 60.5824 93.9884 48.4804C94.0157 36.1491 89.0436 24.3361 80.2065 15.7257C71.3693 7.11526 59.4179 2.44484 47.0813 2.77965H47.0804ZM48.3156 7.00684V89.9582V89.9544C33.571 89.8259 19.9986 81.8932 12.6657 69.1144C5.32833 56.3357 5.32833 40.6295 12.6657 27.8509C19.9992 15.0723 33.571 7.13947 48.3156 7.00694V7.00684Z" fill="black"></path>
</svg>