<svg viewBox="0 0 52 52" fill="none" xmlns="http://www.w3.org/2000/svg" class="theme-icon light-sun">
  <path d="M26.0012 35.375C20.8349 35.375 16.6258 31.166 16.6258 26C16.6258 20.834 20.8349 16.625 26.0012 16.625C31.1675 16.625 35.3767 20.834 35.3767 26C35.3767 31.166 31.1675 35.375 26.0012 35.375ZM50.0649 27.5137L40.8164 32.1328L44.088 41.9375C44.5275 43.2656 43.2677 44.5254 41.9493 44.0762L32.1441 40.8047L27.515 50.0625C26.8899 51.3125 25.1125 51.3125 24.4875 50.0625L19.8681 40.8145L10.0532 44.0859C8.72498 44.5254 7.46516 43.2656 7.9144 41.9473L11.186 32.1426L1.93754 27.5137C0.687485 26.8887 0.687485 25.1113 1.93754 24.4863L11.186 19.8672L7.9144 10.0527C7.47492 8.72461 8.73475 7.46484 10.0532 7.91406L19.8583 11.1855L24.4777 1.9375C25.1027 0.6875 26.8802 0.6875 27.5052 1.9375L32.1246 11.1855L41.9297 7.91406C43.2579 7.47461 44.5177 8.73438 44.0685 10.0527L40.7969 19.8574L50.0453 24.4766C51.3149 25.1113 51.3149 26.8887 50.0649 27.5137ZM34.8395 17.1621C29.9662 12.2891 22.0362 12.2891 17.1629 17.1621C12.2896 22.0352 12.2896 29.9648 17.1629 34.8379C22.0362 39.7109 29.9662 39.7109 34.8395 34.8379C39.7128 29.9648 39.7128 22.0352 34.8395 17.1621Z" fill="black"></path>
</svg>